<svg id="Layer_1" xmlns="http://www.w3.org/2000/svg" viewBox="0 0 44.5 38"><path d="M4.6,0c-1.6,0-3,1.3-3,3c0,1.7,1.3,3,3,3c0.5,0,0.8-0.4,0.8-0.8S5.1,4.3,4.7,4.3C4,4.3,3.4,3.9,3.4,3.1 C3.4,2.4,4,2,4.7,2h0C4.8,2,6,1.7,6,2.9v32.5C6,36.7,7.4,38,8.8,38h4.5c0,0,0,0,0,0h23.1c1.8,0,3.3-1.7,3.3-3.5 c0-1.8-1.5-3.5-3.3-3.5h-24c-0.4,0-0.8,0.4-0.8,0.8c-0.1,0.4,0.2,0.8,0.5,1c0,0,1.6,0.6,1.6,1.7c0,0.9-1.2,1.6-1.6,1.6H8.8 C8.4,36,8,35.8,8,35.3V2.5C8,2.1,8.4,2,8.8,2h25.9C35.3,2,36,2.1,36,2.5V30h-0.4c0,0,0.4,0.8,0.8,0.8c0.4,0,0.8-0.8,0.8-0.8H37 V2.5C37,1.1,36.2,0,34.8,0L4.6,0L4.6,0z M15,36c0.3,0,0.5-0.8,0.5-1.5c0-0.7-0.2-1.5-0.5-1.5h21.5c0.9,0,1.6,0.6,1.6,1.5 c0,0.9-0.7,1.5-1.6,1.5H15L15,36z M15,36.1" fill="#FFF"/><g fill="#FFF"><path d="M22.3,15.9c3.4,0,4.2,1.1,4.2,2.1h4.2c0-3-3.6-4.9-8.3-4.9C17.5,13.1,14,15,14,18h4.2 C18.1,17,18.8,15.9,22.3,15.9L22.3,15.9z M22.3,15.6"/><path d="M14 18H18V20H14z"/><path d="M26 18H31V20H26z"/><path d="M24,23.6c0,1-0.8,1.7-1.7,1.7c-1,0-1.7-0.8-1.7-1.7c0-1,0.8-1.7,1.7-1.7C23.3,21.9,24,22.7,24,23.6L24,23.6z M24,23.6"/><path d="M24,16.6c0-0.1-1-0.2-1-0.2V19h-1v-2.6c-1,0-1,0.1-2,0.2v3.2l-5,2.8V27h14v-4.4l-5-2.8V16.6z M25.1,23.6 c0,1.5-1.2,2.8-2.8,2.8c-1.5,0-2.8-1.2-2.8-2.8c0-1.5,1.2-2.8,2.8-2.8C23.8,20.9,25.1,22.1,25.1,23.6L25.1,23.6z M25.1,23.6"/></g><path fill="none" d="M0 4.5H44.5V19.1H0z"/><text transform="translate(11.094 9.38)" fill="#FFF" font-family="FreightSansProBook-Regular" font-size="7.051">Contact</text></svg>