<svg id="Layer_1" xmlns="http://www.w3.org/2000/svg" viewBox="0 0 242.2 90"><style>.st0{fill:#fff}</style><path class="st0" d="M8.8 81.7V56.2l-3.5-.7v-3.8h17c3.7 0 6.7.3 8.8.8 2.1.6 3.7 1.6 4.7 2.8 1 1.3 1.4 3 1.4 5.2 0 1.3-.3 2.5-.7 3.7-.4 1.1-1.3 2.4-2.3 3.4-1 1-2.4 1.7-4 2.1 1.3.4 2.3 1 3.3 1.8.8.8 1.7 1.8 2.3 2.8.6 1 1.3 2.3 1.8 3.7.6 1.1 1 2 1.4 2.5s.7.8 1.1 1l1.3.4v3.4H30.5c-.6 0-1-.4-1.4-1.4-.4-1-1.1-2.4-1.8-4.4-.6-1.7-1.1-3-1.6-4-.4-1-1-2-1.4-2.8-.6-.8-1.1-1.3-1.8-1.4H19v10.3l4.2.4v3.4h-18V82l3.6-.3zm16.6-15.3c.8-1.1 1.3-3 1.3-5.5 0-2.1-.4-3.7-1.3-4.7-.8-1-2.1-1.4-4-1.4-1.3 0-2.1.1-2.5.3V68c.1.1.6.1 1.3.1h1.6c1.4 0 2.7-.5 3.6-1.7zm18.2-6.8c1.4-2.5 3.4-4.5 5.9-5.9 2.5-1.4 5.7-2.1 9.2-2.1 5.9 0 10.3 1.4 13 4.2 2.7 2.8 4.1 6.8 4.1 12.2 0 3.4-.7 6.5-2.1 9.2s-3.4 4.7-6.1 6.2c-2.5 1.6-5.7 2.3-9.2 2.3-5.9 0-10.2-1.6-12.9-4.5s-4.1-7.2-4.1-12.5c.1-3.5.8-6.5 2.2-9.1zM54.3 79c1 2.1 2.5 3.3 4.5 3.3s3.5-1.3 4.5-3.7 1.6-5.9 1.6-10.6c0-3.3-.3-5.8-.7-7.8-.4-1.8-1.1-3.3-2-4.1-.8-.8-2-1.1-3.3-1.1-2 0-3.5 1.1-4.5 3.4s-1.6 5.7-1.6 10.2c-.1 4.9.5 8.3 1.5 10.4zm25.6-19.4c1.4-2.5 3.4-4.5 5.9-5.9 2.5-1.4 5.7-2.1 9.2-2.1 5.9 0 10.3 1.4 13 4.2 2.7 2.8 4.1 6.8 4.1 12.2 0 3.4-.7 6.5-2.1 9.2-1.4 2.7-3.4 4.7-5.9 6.2-2.7 1.6-5.7 2.3-9.2 2.3-5.9 0-10.2-1.6-12.9-4.5-2.7-3-4.1-7.2-4.1-12.5 0-3.5.6-6.5 2-9.1zM90.5 79c1 2.1 2.5 3.3 4.5 3.3s3.5-1.3 4.5-3.7c1-2.4 1.6-5.9 1.6-10.6 0-3.3-.3-5.8-.7-7.8-.4-1.8-1.1-3.3-2-4.1s-2-1.1-3.3-1.1c-2 0-3.5 1.1-4.5 3.4S89 64.1 89 68.6c0 4.9.5 8.3 1.5 10.4zm27.5 2.7V56l-3.8-.7v-3.5h28.7l.6 8.9h-5.1l-2.3-4.8-7.9-.8v12.3h5.2l1.1-4.2h4v12.9h-4l-1.1-4.4h-5.2v10.2l7.5.6v3.4h-21.4v-3.4l3.7-.8zm31.3 0V56l-3.8-.7v-3.5h18v3.5l-4 .7v25.8l4 .6v3.4h-17.8v-3.4l3.6-.7zm20.4 0V56l-4-.7v-3.5h14.2l12.5 18 2.8 5.8V56l-4.2-.7v-3.5h13.3v3.5l-3.7.7v29.6h-9.1L178 65.7l-3-5.9v22l5.5.6v3.4h-14.9v-3.4l4.1-.7zm38.2-22.2c1.6-2.5 3.8-4.5 6.7-5.8 2.8-1.3 6.5-2 10.6-2 2.3 0 4.7.1 7.2.4 2.5.3 4.4.6 5.9 1l-.7 8.8h-7.2l-1.6-5.9c-.1-.3-.6-.4-1.3-.7-.6-.1-1.4-.3-2.5-.3-2.5 0-4.5 1.1-5.8 3.4-1.3 2.3-2 5.5-2 9.9s.6 7.8 1.7 10.2c1.1 2.4 2.8 3.5 5.4 3.5 1 0 1.8-.1 2.7-.4.7-.3 1.4-.6 1.7-1v-9.2l-3.8-.4v-3.7h16V71l-2.3.4v11.9c-.4 0-1 0-1.6.1-.6.1-1.4.3-2.5.6-2.1.4-4 .8-5.8 1.1-1.7.3-3.5.4-5.4.4-3.8 0-7.1-.7-9.8-2.1-2.7-1.4-4.7-3.4-6.1-5.9-1.4-2.5-2.1-5.4-2.1-8.6.2-3.7 1.1-6.9 2.6-9.4zM72.1 10.4c1-1.8 2.4-3.3 4.2-4.2 1.8-1 3.8-1.4 6.1-1.4 3.8 0 6.7 1.1 8.4 3.3s2.5 5 2.5 8.6c0 2.5-.6 4.7-1.6 6.5-1 1.8-2.4 3.3-4.2 4.1-1.8 1-3.8 1.4-6.1 1.4-2.4 0-4.4-.6-5.9-1.6-1.7-1-2.8-2.4-3.7-4.2s-1.3-3.7-1.3-5.9c0-2.5.5-4.8 1.6-6.6zm12.5.7c-.4-1.6-1.1-2.3-2.4-2.3s-2.1.7-2.5 2c-.4 1.3-.7 3.3-.7 5.8 0 2.3.3 4.1.7 5.8.4 1.6 1.3 2.4 2.4 2.4.8 0 1.6-.3 2-1 .4-.6.7-1.4.8-2.5.1-1.1.3-2.4.3-4.1-.1-2.6-.4-4.6-.6-6.1zm25.6-6.3L92.6 45.5h-6.4l17.6-40.6h6.4zm13.6 19.3c1.7 2.3 2.5 5.2 2.5 8.9 0 2.5-.6 4.8-1.6 6.7-1 1.8-2.4 3.3-4.2 4.2-1.8 1-3.8 1.4-6.1 1.4-2.4 0-4.4-.6-5.9-1.6-1.7-1.1-2.8-2.5-3.7-4.4-.8-1.8-1.3-3.8-1.3-6.1 0-2.5.6-4.8 1.6-6.8 1-1.8 2.4-3.4 4.2-4.4s3.8-1.6 6.1-1.6c3.9.4 6.6 1.6 8.4 3.7zm-6.4 15.3c.4-1.3.6-3.3.6-5.8 0-2.7-.1-4.8-.6-6.4-.4-1.6-1.1-2.4-2.4-2.4-1.3 0-2.1.7-2.5 2.1s-.7 3.4-.7 6.1c0 2.3.3 4.2.7 5.9.4 1.7 1.3 2.5 2.4 2.5 1.2-.2 2.1-.7 2.5-2zm14.8-25.1c1.6-3.1 3.7-5.4 6.5-7.1 2.8-1.7 6.2-2.5 10.2-2.5 6.5 0 11.3 1.7 14.3 5.1s4.4 8.2 4.4 14.6c0 4.1-.7 7.8-2.3 11s-3.7 5.7-6.7 7.5c-2.8 1.8-6.2 2.7-10.2 2.7-6.5 0-11.2-1.8-14.2-5.4s-4.5-8.6-4.5-15c.2-4.2.9-7.8 2.5-10.9zm11.6 23.4c1.1 2.5 2.8 3.8 5 3.8 2.1 0 3.8-1.4 5-4.4 1.1-3 1.7-7.2 1.7-12.7 0-4-.3-7.1-.8-9.3s-1.3-4-2.3-4.8c-1-1-2.1-1.4-3.5-1.4-2.1 0-3.8 1.3-5 4s-1.7 6.8-1.7 12.2c-.1 5.8.4 9.9 1.6 12.6zm30.6 3.1V9.9l-4.2-.8V4.8h31.4l.7 10.6h-5.7l-2.3-5.8-8.8-.8v14.7h5.8l1.1-5.1h4.4v15.4h-4.2l-1.3-5.4h-5.8v12.3l8.2.7v4.1h-23.4v-4.1l4.1-.6zm34.2 0V9.9l-4.2-.8V4.8h31.4l.7 10.6h-5.7l-2.3-5.8-8.8-.8v14.7h5.8l1.1-5.1h4.4v15.4h-4.2l-1.3-5.4h-5.8v12.3l8.2.7v4.1h-23.4v-4.1l4.1-.6zM50 41.9c2-1 3.5-2.3 4.7-4 1.1-1.7 1.7-3.4 1.7-5.2 0-2.3-.6-3.8-1.7-4.8s-2.8-1.4-5.2-1.4c-1.1 0-2.4.1-3.8.4-1.4.3-2.4.6-3.4 1L40 26.4l2.5-20.8h18.8l.6-1h4.2L64.7 13H49.2l-2 9.5c.1-.1.7-.3 1.6-.7s2-.7 3.3-1.1c1.3-.4 2.5-.4 4-.4 4 0 6.9 1 8.9 2.8 2 1.8 3 4.4 3 7.6 0 3.5-1 6.7-3.1 9.3-2.1 2.7-5 4.7-8.5 6.1-3.5 1.4-7.6 2.1-12 2.1-1.4 0-2.7-.1-3.8-.4v-4.7c.8.1 2 .1 3.1.1 2.2.2 4.3-.3 6.3-1.3zm-30.9.7V16.3c-.7.3-1.7.4-3.3.8-1.6.3-2.5.4-3.3.4l-.7-6.4c2.1-.6 4.4-1.6 6.8-3 2.4-1.6 4.2-3 5.7-4.5l5.8.8v38l5.4.8v5.2H13.2v-5.2l5.9-.6z"/></svg>