<svg width="350" height="159" viewBox="0 0 350 159" xmlns="http://www.w3.org/2000/svg"><title>15 percent off with stars for coupon section</title><g fill="#FFF"><path d="M5.636 152.313v-37.819l-5.191-1.038v-5.636h25.212c5.488 0 9.937.445 13.051 1.187 3.115.89 5.488 2.373 6.971 4.152 1.483 1.928 2.076 4.45 2.076 7.712 0 1.928-.445 3.708-1.038 5.488-.593 1.631-1.928 3.56-3.41 5.042-1.484 1.483-3.56 2.521-5.933 3.115 1.928.593 3.41 1.483 4.894 2.67 1.186 1.186 2.521 2.669 3.411 4.152.89 1.483 1.928 3.411 2.67 5.487.89 1.632 1.483 2.966 2.076 3.708s1.038 1.187 1.631 1.483l1.928.593v5.043H37.82c-.89 0-1.483-.593-2.077-2.076-.593-1.484-1.631-3.56-2.67-6.526-.89-2.521-1.63-4.45-2.372-5.932-.593-1.483-1.483-2.967-2.076-4.153-.89-1.186-1.632-1.928-2.67-2.076h-5.19v15.275l6.228.594v5.042H.297v-5.042l5.339-.445zm24.619-22.691c1.186-1.632 1.928-4.45 1.928-8.157 0-3.115-.593-5.488-1.928-6.97-1.187-1.484-3.115-2.077-5.932-2.077-1.928 0-3.115.148-3.708.445v19.131c.148.149.89.149 1.928.149h2.373c2.076 0 4.004-.742 5.339-2.521zm26.992-10.085a22.557 22.557 0 0 1 8.75-8.75c3.708-2.077 8.454-3.115 13.645-3.115 8.75 0 15.275 2.076 19.28 6.229 4.004 4.152 6.08 10.085 6.08 18.093 0 5.043-1.038 9.64-3.114 13.645-2.076 4.004-5.043 6.97-9.047 9.195-3.708 2.373-8.454 3.411-13.644 3.411-8.75 0-15.128-2.373-19.132-6.674-4.004-4.3-6.08-10.678-6.08-18.538.148-5.191 1.186-9.64 3.262-13.496zm15.869 28.771c1.483 3.115 3.708 4.895 6.674 4.895s5.19-1.928 6.674-5.488c1.483-3.56 2.373-8.75 2.373-15.72 0-4.895-.445-8.602-1.038-11.569-.594-2.67-1.632-4.894-2.967-6.08-1.186-1.187-2.966-1.632-4.894-1.632-2.966 0-5.19 1.632-6.674 5.043-1.483 3.411-2.373 8.453-2.373 15.127-.148 7.267.742 12.31 2.225 15.424zm37.967-28.771a22.557 22.557 0 0 1 8.75-8.75c3.708-2.077 8.454-3.115 13.645-3.115 8.75 0 15.275 2.076 19.28 6.229 4.004 4.152 6.08 10.085 6.08 18.093 0 5.043-1.038 9.64-3.114 13.645-2.076 4.004-5.043 6.97-8.75 9.195-4.005 2.373-8.454 3.411-13.645 3.411-8.75 0-15.127-2.373-19.132-6.674-4.004-4.45-6.08-10.678-6.08-18.538 0-5.191.89-9.64 2.966-13.496zm15.72 28.771c1.484 3.115 3.708 4.895 6.675 4.895 2.966 0 5.19-1.928 6.673-5.488 1.484-3.56 2.373-8.75 2.373-15.72 0-4.895-.445-8.602-1.038-11.569-.593-2.67-1.631-4.894-2.966-6.08-1.335-1.187-2.966-1.632-4.894-1.632-2.966 0-5.19 1.632-6.674 5.043-1.483 3.411-2.373 8.453-2.373 15.127 0 7.267.742 12.31 2.225 15.424zm40.786 4.005v-38.116l-5.636-1.038v-5.19h42.564l.89 13.199h-7.564l-3.41-7.119-11.717-1.186v18.242h7.712l1.631-6.23h5.933v19.132h-5.933l-1.631-6.525h-7.712v15.127l11.123.89v5.043h-31.738v-5.043zm46.42 0v-38.116l-5.636-1.038v-5.19h26.696v5.19l-5.933 1.038v38.264l5.933.89v5.042h-26.4v-5.042zm30.255 0v-38.116l-5.932-1.038v-5.19h21.06l18.538 26.695 4.153 8.602v-29.069l-6.23-1.038v-5.19h19.726v5.19l-5.488 1.038v43.9h-13.496l-20.021-29.514-4.45-8.75v32.628l8.157.89v5.042h-22.098v-5.042zm56.654-32.925c2.373-3.707 5.635-6.674 9.936-8.602 4.153-1.928 9.64-2.966 15.721-2.966 3.411 0 6.97.149 10.678.593 3.708.445 6.526.89 8.75 1.484l-1.038 13.05h-10.678l-2.373-8.75c-.148-.444-.89-.593-1.928-1.038-.89-.148-2.076-.445-3.707-.445-3.708 0-6.674 1.632-8.602 5.043-1.928 3.411-2.967 8.157-2.967 14.682 0 6.526.89 11.568 2.522 15.128 1.631 3.56 4.152 5.19 8.008 5.19 1.483 0 2.67-.148 4.005-.593 1.038-.444 2.076-.89 2.52-1.483v-13.644l-5.635-.593v-5.488h23.73v5.488l-3.412.593v17.649c-.593 0-1.483 0-2.372.148-.89.148-2.077.445-3.708.89-3.115.593-5.933 1.186-8.602 1.631-2.521.445-5.19.593-8.009.593-5.635 0-10.53-1.038-14.534-3.114-4.004-2.076-6.97-5.043-9.047-8.75-2.076-3.708-3.114-8.009-3.114-12.755.296-5.487 1.631-10.233 3.856-13.94zM99.515 10.975c1.483-2.67 3.56-4.894 6.229-6.23 2.67-1.482 5.636-2.075 9.047-2.075 5.635 0 9.936 1.63 12.458 4.894 2.52 3.263 3.707 7.415 3.707 12.754 0 3.708-.89 6.97-2.373 9.64-1.483 2.67-3.559 4.894-6.229 6.08-2.67 1.484-5.635 2.077-9.046 2.077-3.56 0-6.526-.89-8.75-2.373-2.522-1.483-4.153-3.56-5.488-6.229-1.335-2.67-1.928-5.487-1.928-8.75 0-3.708.742-7.119 2.373-9.788zm18.538 1.038c-.593-2.373-1.63-3.411-3.559-3.411-1.928 0-3.114 1.038-3.708 2.966-.593 1.928-1.038 4.894-1.038 8.602 0 3.411.445 6.08 1.038 8.602.594 2.373 1.928 3.56 3.56 3.56 1.186 0 2.373-.446 2.966-1.484.593-.89 1.038-2.076 1.186-3.708.149-1.631.445-3.559.445-6.08-.148-3.856-.593-6.822-.89-9.047zM156.02 2.67l-26.102 60.36h-9.492L146.53 2.818h9.491V2.67zm20.17 28.623c2.522 3.411 3.708 7.712 3.708 13.2 0 3.707-.89 7.118-2.373 9.936-1.483 2.67-3.56 4.894-6.229 6.23-2.67 1.482-5.636 2.075-9.047 2.075-3.559 0-6.525-.89-8.75-2.372-2.521-1.632-4.152-3.708-5.487-6.526a21.904 21.904 0 0 1-1.928-9.047c0-3.708.89-7.119 2.373-10.085 1.483-2.67 3.56-5.042 6.229-6.525 2.67-1.483 5.635-2.373 9.046-2.373 5.785.593 9.789 2.373 12.458 5.487zm-9.49 22.691c.593-1.928.89-4.894.89-8.602 0-4.004-.149-7.118-.89-9.491-.594-2.373-1.632-3.56-3.56-3.56-1.928 0-3.114 1.038-3.707 3.115-.594 2.076-1.039 5.042-1.039 9.047 0 3.41.445 6.228 1.039 8.75.593 2.521 1.928 3.707 3.559 3.707 1.78-.296 3.114-1.038 3.708-2.966zm21.948-37.225c2.373-4.598 5.488-8.009 9.64-10.53 4.153-2.521 9.195-3.708 15.128-3.708 9.64 0 16.759 2.521 21.208 7.564 4.45 5.042 6.525 12.161 6.525 21.653 0 6.08-1.038 11.568-3.41 16.314-2.374 4.746-5.488 8.454-9.937 11.123-4.153 2.67-9.195 4.004-15.128 4.004-9.64 0-16.61-2.67-21.06-8.008-4.449-5.34-6.673-12.755-6.673-22.247.296-6.228 1.334-11.568 3.707-16.165zm17.204 34.704c1.631 3.708 4.153 5.636 7.415 5.636 3.115 0 5.636-2.077 7.416-6.526 1.631-4.45 2.521-10.678 2.521-18.835 0-5.932-.445-10.53-1.186-13.793-.742-3.262-1.928-5.932-3.411-7.118-1.483-1.484-3.115-2.077-5.191-2.077-3.115 0-5.636 1.928-7.416 5.933-1.78 4.004-2.52 10.085-2.52 18.093-.15 8.602.592 14.683 2.372 18.687zm45.382 4.597V10.234l-6.229-1.186V2.67h46.57l1.038 15.72h-8.454l-3.411-8.602-13.051-1.186v21.801h8.602l1.631-7.564h6.526v22.84h-6.23L276.3 37.67h-8.602v18.242l12.161 1.038v6.081h-34.704v-6.08zm50.722 0V10.234l-6.229-1.186V2.67h46.569l1.038 15.72h-8.454l-3.41-8.602-13.052-1.186v21.801h8.602l1.631-7.564h6.526v22.84h-6.229l-1.928-8.009h-8.602v18.242l12.161 1.038v6.081h-34.704v-6.08zM66.739 57.692c2.966-1.483 5.19-3.411 6.97-5.932 1.632-2.522 2.522-5.043 2.522-7.712 0-3.411-.89-5.636-2.522-7.12-1.631-1.482-4.152-2.076-7.712-2.076a27 27 0 0 0-5.635.594c-2.077.445-3.56.89-5.043 1.483l-3.411-2.225 3.708-30.848h27.882l.89-1.483h6.228L88.54 14.83H65.552l-2.966 14.09c.148-.15 1.038-.446 2.373-1.039 1.335-.593 2.966-1.038 4.894-1.631 1.928-.594 3.708-.594 5.933-.594 5.932 0 10.233 1.483 13.199 4.153 2.966 2.67 4.45 6.526 4.45 11.271 0 5.191-1.484 9.937-4.598 13.793-3.115 4.004-7.416 6.97-12.606 9.047-5.191 2.076-11.272 3.114-17.797 3.114-2.077 0-4.005-.148-5.636-.593v-6.97c1.186.148 2.966.148 4.597.148 3.263.297 6.378-.445 9.344-1.928zM20.911 58.73V19.725c-1.038.445-2.52.593-4.894 1.186-2.373.445-3.707.594-4.894.594l-1.038-9.492c3.114-.89 6.526-2.373 10.085-4.45 3.56-2.372 6.229-4.449 8.454-6.673l8.601 1.186v56.358l8.01 1.186v7.712H12.16V59.62l8.75-.89zm198.141 14.09l3.114 6.228c.297.594.89 1.039 1.631 1.187l6.823 1.038c1.78.297 2.52 2.373 1.186 3.708l-4.894 4.894c-.445.445-.742 1.186-.593 1.928l1.186 6.822c.297 1.78-1.483 3.115-3.114 2.225l-6.081-3.263a2.2 2.2 0 0 0-1.928 0l-6.08 3.263c-1.632.89-3.412-.445-3.115-2.225l1.186-6.822c.149-.742-.148-1.335-.593-1.928l-4.894-4.894c-1.335-1.187-.593-3.411 1.186-3.708l6.823-1.038c.741-.148 1.334-.593 1.631-1.187l3.114-6.229c.297-1.631 2.67-1.631 3.412 0zm-46.421 0l3.114 6.228c.297.594.89 1.039 1.632 1.187l6.822 1.038c1.78.297 2.521 2.373 1.187 3.708l-4.895 4.894c-.445.445-.741 1.186-.593 1.928l1.187 6.822c.296 1.78-1.484 3.115-3.115 2.225l-6.08-3.263a2.2 2.2 0 0 0-1.929 0l-6.08 3.263c-1.632.89-3.411-.445-3.115-2.225l1.187-6.822c.148-.742-.149-1.335-.593-1.928l-4.895-4.894c-1.334-1.187-.593-3.411 1.187-3.708l6.822-1.038c.742-.148 1.335-.593 1.631-1.187l3.115-6.229c.297-1.631 2.67-1.631 3.411 0zm92.841 0l3.115 6.228c.296.594.89 1.039 1.63 1.187l6.823 1.038c1.78.297 2.521 2.373 1.187 3.708l-4.895 4.894c-.445.445-.741 1.186-.593 1.928l1.187 6.822c.296 1.78-1.483 3.115-3.115 2.225l-6.08-3.263a2.2 2.2 0 0 0-1.928 0l-6.081 3.263c-1.632.89-3.411-.445-3.115-2.225l1.187-6.822c.148-.742-.148-1.335-.593-1.928l-4.895-4.894c-1.334-1.187-.593-3.411 1.187-3.708l6.822-1.038c.742-.148 1.335-.593 1.631-1.187l3.115-6.229c.445-1.631 2.67-1.631 3.411 0zm45.234 0l3.115 6.228c.296.594.89 1.039 1.631 1.187l6.822 1.038c1.78.297 2.521 2.373 1.187 3.708l-4.895 4.894c-.444.445-.741 1.186-.593 1.928l1.187 6.822c.296 1.78-1.483 3.115-3.115 2.225l-6.08-3.263a2.2 2.2 0 0 0-1.928 0l-6.081 3.263c-1.631.89-3.411-.445-3.115-2.225l1.187-6.822c.148-.742-.148-1.335-.593-1.928l-4.894-4.894c-1.335-1.187-.594-3.411 1.186-3.708l6.822-1.038c.742-.148 1.335-.593 1.632-1.187l3.114-6.229c.297-1.631 2.67-1.631 3.411 0zm-232.844 0l3.114 6.228c.297.594.89 1.039 1.632 1.187l6.822 1.038c1.78.297 2.521 2.373 1.186 3.708l-4.894 4.894c-.445.445-.741 1.186-.593 1.928l1.186 6.822c.297 1.78-1.483 3.115-3.114 2.225l-6.08-3.263a2.2 2.2 0 0 0-1.929 0l-6.08 3.263c-1.632.89-3.411-.445-3.115-2.225l1.187-6.822c.148-.742-.149-1.335-.594-1.928l-4.894-4.894c-1.334-1.187-.593-3.411 1.187-3.708l6.822-1.038c.741-.148 1.335-.593 1.631-1.187l2.818-6.229a2.016 2.016 0 0 1 3.708 0zm-46.421 0l3.115 6.228c.296.594.89 1.039 1.631 1.187l6.822 1.038c1.78.297 2.522 2.373 1.187 3.708l-4.894 4.894c-.445.445-.742 1.186-.594 1.928l1.187 6.822c.297 1.78-1.483 3.115-3.115 2.225l-6.08-3.263a2.2 2.2 0 0 0-1.928 0l-6.08 3.263c-1.632.89-3.412-.445-3.115-2.225l1.186-6.822c.148-.742-.148-1.335-.593-1.928l-4.894-4.894c-1.335-1.187-.593-3.411 1.186-3.708l6.822-1.038c.742-.148 1.335-.593 1.632-1.187l3.114-6.229c.445-1.631 2.67-1.631 3.411 0zm92.989 0l3.115 6.228c.297.594.89 1.039 1.632 1.187l6.822 1.038c1.78.297 2.521 2.373 1.186 3.708l-4.894 4.894c-.445.445-.741 1.186-.593 1.928l1.186 6.822c.297 1.78-1.483 3.115-3.114 2.225l-6.08-3.263a2.2 2.2 0 0 0-1.929 0l-6.08 3.263c-1.632.89-3.412-.445-3.115-2.225l1.187-6.822c.148-.742-.149-1.335-.594-1.928l-4.894-4.894c-1.335-1.187-.593-3.411 1.187-3.708l6.822-1.038c.741-.148 1.335-.593 1.631-1.187l3.115-6.229c.296-1.631 2.52-1.631 3.41 0z"/><path d="M221.424 75.044l3.115 6.229c.297.593.89 1.038 1.631 1.186l6.823 1.039c1.78.296 2.52 2.373 1.186 3.707l-4.894 4.895c-.445.444-.742 1.186-.593 1.928l1.186 6.822c.297 1.78-1.483 3.114-3.114 2.224l-6.081-3.262a2.2 2.2 0 0 0-1.928 0l-6.08 3.262c-1.632.89-3.412-.445-3.115-2.224l1.186-6.822c.149-.742-.148-1.335-.593-1.928l-4.894-4.895c-1.335-1.186-.593-3.41 1.186-3.707l6.822-1.039c.742-.148 1.335-.593 1.632-1.186l3.114-6.229c.445-1.631 2.67-1.631 3.411 0zm-46.42 0l3.114 6.229c.297.593.89 1.038 1.632 1.186l6.822 1.039c1.78.296 2.521 2.373 1.186 3.707l-4.894 4.895c-.445.444-.741 1.186-.593 1.928l1.187 6.822c.296 1.78-1.484 3.114-3.115 2.224l-6.08-3.262a2.2 2.2 0 0 0-1.929 0l-6.08 3.262c-1.632.89-3.411-.445-3.115-2.224l1.187-6.822c.148-.742-.149-1.335-.594-1.928l-4.894-4.895c-1.334-1.186-.593-3.41 1.187-3.707l6.822-1.039c.742-.148 1.335-.593 1.631-1.186l3.115-6.229c.445-1.631 2.67-1.631 3.41 0zm92.841 0l3.114 6.229c.297.593.89 1.038 1.632 1.186l6.822 1.039c1.78.296 2.521 2.373 1.187 3.707l-4.895 4.895c-.445.444-.741 1.186-.593 1.928l1.187 6.822c.296 1.78-1.484 3.114-3.115 2.224l-6.08-3.262a2.2 2.2 0 0 0-1.929 0l-6.08 3.262c-1.632.89-3.411-.445-3.115-2.224l1.187-6.822c.148-.742-.149-1.335-.593-1.928l-4.895-4.895c-1.334-1.186-.593-3.41 1.187-3.707l6.822-1.039c.742-.148 1.335-.593 1.631-1.186l3.115-6.229c.445-1.631 2.67-1.631 3.411 0zm45.235 0l3.114 6.229c.296.593.89 1.038 1.63 1.186l6.823 1.039c1.78.296 2.521 2.373 1.187 3.707l-4.895 4.895c-.445.444-.741 1.186-.593 1.928l1.187 6.822c.296 1.78-1.483 3.114-3.115 2.224l-6.08-3.262a2.2 2.2 0 0 0-1.928 0l-6.081 3.262c-1.632.89-3.411-.445-3.115-2.224l1.187-6.822c.148-.742-.148-1.335-.593-1.928l-4.895-4.895c-1.334-1.186-.593-3.41 1.187-3.707l6.822-1.039c.742-.148 1.335-.593 1.631-1.186l3.115-6.229c.445-1.631 2.67-1.631 3.411 0zm-232.697 0l3.115 6.229c.296.593.89 1.038 1.631 1.186l6.822 1.039c1.78.296 2.521 2.373 1.187 3.707L88.244 92.1c-.445.444-.742 1.186-.594 1.928l1.187 6.822c.296 1.78-1.483 3.114-3.115 2.224l-6.08-3.262a2.2 2.2 0 0 0-1.928 0l-6.081 3.262c-1.928.445-3.708-.89-3.411-2.52l1.186-6.823c.149-.742-.148-1.335-.593-1.928l-5.042-4.894c-1.335-1.187-.594-3.411 1.186-3.708l6.822-1.038c.742-.148 1.335-.593 1.632-1.187l3.114-6.229c.742-1.334 2.966-1.334 3.856.297zm-46.42 0l3.114 6.229c.297.593.89 1.038 1.631 1.186l6.823 1.039c1.78.296 2.52 2.373 1.186 3.707L41.823 92.1c-.445.444-.742 1.186-.593 1.928l1.186 6.822c.297 1.78-1.483 3.114-3.114 2.224l-6.08-3.262a2.2 2.2 0 0 0-1.929 0l-6.08 3.262c-1.632.89-3.412-.445-3.115-2.224l1.186-6.822c.149-.742-.148-1.335-.593-1.928l-4.894-4.895c-1.335-1.186-.593-3.41 1.186-3.707l6.823-1.039c.741-.148 1.334-.593 1.631-1.186l3.115-6.229c.296-1.631 2.52-1.631 3.41 0zm92.841 0l3.114 6.229c.297.593.89 1.038 1.632 1.186l6.822 1.039c1.78.296 2.521 2.373 1.186 3.707l-4.894 4.895c-.445.444-.742 1.186-.593 1.928l1.186 6.822c.297 1.78-1.483 3.114-3.114 2.224l-6.08-3.262a2.2 2.2 0 0 0-1.929 0l-6.08 3.262c-1.632.89-3.412-.445-3.115-2.224l1.186-6.822c.149-.742-.148-1.335-.593-1.928l-4.894-4.895c-1.335-1.186-.593-3.41 1.187-3.707l6.822-1.039c.741-.148 1.335-.593 1.631-1.186l3.115-6.229c.296-1.631 2.52-1.631 3.41 0z" opacity=".2"/></g></svg>