<svg width="76" height="86" viewBox="0 0 76 86" xmlns="http://www.w3.org/2000/svg"><title>calendar</title><path d="M.4 27.6v51.2c0 3.8 3.1 6.9 6.8 6.9h61.6c3.8 0 6.8-3.1 6.8-6.9V27.6H.4zm18.8 53H5.5V66.9h13.7v13.7zm0-17.1H5.5V49.8h13.7v13.7zm0-17.1H5.5V32.7h13.7v13.7zm17.1 34.2H22.6V66.9h13.7v13.7zm0-17.1H22.6V49.8h13.7v13.7zm0-17.1H22.6V32.7h13.7v13.7zm17.1 34.2H39.7V66.9h13.7v13.7zm0-17.1H39.7V49.8h13.7v13.7zm0-17.1H39.7V32.7h13.7v13.7zm17.1 34.2H56.8V66.9h13.7v13.7zm0-17.1H56.8V49.8h13.7v13.7zm0-17.1H56.8V32.7h13.7v13.7zm-1.7-35.9H57.7V2.8c0-1.4-1.1-2.6-2.6-2.6-1.4 0-2.6 1.1-2.6 2.6v7.7h-29V2.8c0-1.4-1.1-2.6-2.6-2.6-1.4 0-2.6 1.1-2.6 2.6v7.7H7.2c-3.8 0-6.8 3.1-6.8 6.9v6.8h75.2v-6.8c0-3.8-3-6.9-6.8-6.9zm-47.9 12c-2.8 0-5.1-2.3-5.1-5.1 0-1.9 1-3.5 2.6-4.4v4.4c0 1.4 1.1 2.6 2.6 2.6 1.4 0 2.6-1.1 2.6-2.6V13c1.5.9 2.6 2.5 2.6 4.4-.2 2.8-2.5 5.1-5.3 5.1zm34.2 0c-2.8 0-5.1-2.3-5.1-5.1 0-1.9 1-3.5 2.6-4.4v4.4c0 1.4 1.1 2.6 2.6 2.6 1.4 0 2.6-1.1 2.6-2.6V13c1.5.9 2.6 2.5 2.6 4.4-.2 2.8-2.5 5.1-5.3 5.1z" fill="#FFF" fill-rule="evenodd"/></svg>