<svg id="Layer_1" xmlns="http://www.w3.org/2000/svg" viewBox="0 0 90 90"><style>.st0{fill:#424242}</style><path class="st0" d="M7.4 29.6v51.2c0 3.8 3.1 6.9 6.8 6.9h61.6c3.8 0 6.8-3.1 6.8-6.9V29.6H7.4zm18.8 53H12.5V68.9h13.7v13.7zm0-17.1H12.5V51.8h13.7v13.7zm0-17.1H12.5V34.7h13.7v13.7zm17.1 34.2H29.6V68.9h13.7v13.7zm0-17.1H29.6V51.8h13.7v13.7zm0-17.1H29.6V34.7h13.7v13.7zm17.1 34.2H46.7V68.9h13.7v13.7zm0-17.1H46.7V51.8h13.7v13.7zm0-17.1H46.7V34.7h13.7v13.7zm17.1 34.2H63.8V68.9h13.7v13.7zm0-17.1H63.8V51.8h13.7v13.7zm0-17.1H63.8V34.7h13.7v13.7zm-1.7-35.9H64.7V4.8c0-1.4-1.1-2.6-2.6-2.6-1.4 0-2.6 1.1-2.6 2.6v7.7h-29V4.8c0-1.4-1.1-2.6-2.6-2.6-1.4 0-2.6 1.1-2.6 2.6v7.7H14.2c-3.8 0-6.8 3.1-6.8 6.9v6.8h75.2v-6.8c0-3.8-3-6.9-6.8-6.9zm-47.9 12c-2.8 0-5.1-2.3-5.1-5.1 0-1.9 1-3.5 2.6-4.4v4.4c0 1.4 1.1 2.6 2.6 2.6 1.4 0 2.6-1.1 2.6-2.6V15c1.5.9 2.6 2.5 2.6 4.4-.2 2.8-2.5 5.1-5.3 5.1zm34.2 0c-2.8 0-5.1-2.3-5.1-5.1 0-1.9 1-3.5 2.6-4.4v4.4c0 1.4 1.1 2.6 2.6 2.6 1.4 0 2.6-1.1 2.6-2.6V15c1.5.9 2.6 2.5 2.6 4.4-.2 2.8-2.5 5.1-5.3 5.1z"/></svg>