<svg width="248" height="248" viewBox="0 0 248 248" xmlns="http://www.w3.org/2000/svg"><title>complete_home_ventilation_icon</title><g id="Page-1" fill="none" fill-rule="evenodd"><g id="complete_home_ventilation_icon" fill="#4CAF50"><g id="Group"><path d="M123.75,247.5 C55.625,247.5 0,191.875 0,123.75 C0,55.625 55.625,0 123.75,0 C191.875,0 247.5,55.625 247.5,123.75 C247.5,191.875 191.875,247.5 123.75,247.5 L123.75,247.5 Z M123.75,10.625 C61.25,10.625 10,61.875 10,124.375 C10,186.875 61.25,237.5 123.75,237.5 C186.25,237.5 237.5,186.25 237.5,123.75 C237.5,61.25 186.25,10.625 123.75,10.625 L123.75,10.625 Z" id="Shape"/><g id="Shape"><path d="M27.5,91.25 L25.625,88.75 C24.375,87.5 -2.5,55 4.375,31.25 C7.5,21.25 15,15 28.125,10.625 C56.25,2.5 73.75,3.125 80,14.375 C84.375,21.25 83.75,30.625 78.125,41.875 C67.5,63.75 59.375,78.75 59.375,78.75 L58.125,80 L27.5,91.25 L27.5,91.25 Z M58.75,15 C51.25,15 42.5,16.25 30.625,20 C21.25,22.5 16.25,27.5 14.375,33.125 C10,46.875 23.75,68.125 31.25,78.125 L51.875,70.625 C54.375,66.25 61.25,53.75 69.375,36.25 C73.125,28.125 73.75,21.875 71.875,18.75 C69.375,15.625 63.125,15 58.75,15 L58.75,15 Z" transform="translate(75 18.75)"/><path d="M47.5,205 C29.375,205 18.75,200.625 13.75,192.5 C10,185 11.875,175.625 20,164.375 C33.75,144.375 45,131.25 45,130.625 L46.25,129.375 L78.75,124.375 L80,127.5 C81.25,128.75 101.875,165.625 90.625,188.125 C86.25,197.5 76.875,202.5 63.75,204.375 C58.75,204.375 53.125,205 47.5,205 L47.5,205 Z M51.875,139.375 C48.75,143.75 39.375,155 28.75,170.625 C23.75,178.125 21.25,184.375 23.75,188.125 C25,190.625 30,195 48.125,195 C52.5,195 58.75,194.375 64.375,193.75 C74.375,192.5 80.625,189.375 83.75,183.125 C90.625,170 80.625,146.25 75,135.625 L51.875,139.375 L51.875,139.375 Z" transform="translate(75 18.75)"/><path d="M186.25,80 C181.25,80 175.625,78.75 169.375,75.625 C147.5,65 132.5,56.875 132.5,56.875 L131.25,55.625 L120,24.375 L122.5,22.5 C123.75,21.25 148.75,0.625 171.25,0.625 C181.25,0.625 194.375,5 200.625,25.625 C207.5,50 208.125,65.625 201.25,74.375 C196.875,77.5 192.5,80 186.25,80 L186.25,80 Z M138.75,48.125 C143.125,50.625 155.625,57.5 173.125,65.625 C178.125,68.125 183.125,69.375 186.25,69.375 C190,69.375 191.25,68.125 192.5,66.875 C195,63.75 197.5,54.375 190.625,27.5 C186.25,11.875 177.5,10 171.25,10 C156.25,10 138.75,22.5 131.875,27.5 L138.75,48.125 L138.75,48.125 Z" transform="translate(18.75 75)"/><path d="M37.5,91.875 C19.375,91.875 8.125,81.25 6.25,61.25 C3.75,37.5 5.625,21.875 13.125,15 C20.625,7.5 32.5,7.5 46.25,17.5 C66.25,31.875 79.375,42.5 79.375,42.5 L80.625,43.75 L85.625,76.25 L82.5,77.5 C81.25,78.75 58.125,91.875 37.5,91.875 L37.5,91.875 Z M25,20 C23.125,20 21.25,20.625 20.625,21.875 C18.125,25 13.75,33.75 16.25,60.625 C18.125,75 24.375,81.875 37.5,81.875 C51.25,81.875 67.5,74.375 74.375,71.25 L71.25,50 C66.875,46.875 55.625,38.125 40,26.875 C32.5,21.25 27.5,20 25,20 L25,20 Z" transform="translate(18.75 75)"/><path d="M105,126.875 C94.375,126.875 85.625,118.125 85.625,107.5 C85.625,96.875 94.375,88.125 105,88.125 C115.625,88.125 124.375,96.875 124.375,107.5 C124.375,118.125 115.625,126.875 105,126.875 L105,126.875 Z M105,98.125 C100,98.125 95.625,102.5 95.625,107.5 C95.625,112.5 100,116.875 105,116.875 C110,116.875 114.375,112.5 114.375,107.5 C114.375,102.5 110,98.125 105,98.125 L105,98.125 Z" transform="translate(18.75 18.75)"/></g></g></g></g></svg>