<svg id="airplane_1_" xmlns="http://www.w3.org/2000/svg" xmlns:xlink="http://www.w3.org/1999/xlink" viewBox="0 0 250 250"><style>.st0{display:none}.st1{display:inline;fill:none;stroke:#000;stroke-miterlimit:10}.st2{fill:url(#SVGID_1_)}.st2,.st3{display:inline;stroke:#000;stroke-miterlimit:10}.st3{fill:url(#SVGID_2_)}.st4{fill-rule:evenodd;clip-rule:evenodd;fill:#ffe0b2}.st5{fill:#ffcc80}.st6{fill:#dc542f}.st7{fill:#dda23c}.st8{fill:#ff9800}.st9{clip-path:url(#SVGID_4_);fill:#ffcc80}.st10{fill:#FFF}.st11{fill:#f57c00}.st12{fill:#ffb74d}</style><g id="grid" class="st0"><path class="st1" d="M-.3 25h249.9M-.3 224.9h249.9"/><linearGradient id="SVGID_1_" gradientUnits="userSpaceOnUse" x1="24.724" y1="124.953" x2="24.724" y2="124.953"><stop offset="0" stop-color="#FFF"/><stop offset="1"/></linearGradient><path class="st2" d="M24.7 0v249.9"/><linearGradient id="SVGID_2_" gradientUnits="userSpaceOnUse" x1="224.649" y1="124.953" x2="224.649" y2="124.953"><stop offset="0" stop-color="#FFF"/><stop offset="1"/></linearGradient><path class="st3" d="M224.6 0v249.9"/></g><path class="st4" d="M125 223.5c55 0 99.8-44.3 99.8-98.5 0-54.3-44.8-98.5-99.8-98.5S25.2 70.8 25.2 125c0 54.3 44.8 98.5 99.8 98.5z"/><path class="st5" d="M199.6 70.8c6 3.8-6.1 0-6.1 0s-2.5-29.4-29.9-25.6c-19.2 2.6-27.2 7.4-30.9 7.4-3.7 0-11.2-.8-16.2-.8-4.9 0-11.4 1.3-17.8 3.6-8.2 2.9-5.5 8.9-1.8 8.7 2.5-.2 3.1-1.2 5.2-1.4-1.8 1.3-16.2 6.7-17.8 14.6-1.5 7.9 3.7 6.7 6.9 3.3 3.2-3.4 10.7-10.1 13.6-9.4-1 1.2-8.5 6.5-12.3 13.7-5.9 11.4 2 12.6 5.3 10.3 3.2-2.3 9.3-14 13.3-17.3 4.7-3.9 10-5.4 11.1-4.9-4.1 4.3-6.3 5.3-10.6 14.4-5.9 12.4-4.6 18.4-2.7 21.4 1.9 3 5.2.9 6.4-.6 1.2-1.5 2.7-13.2 7.8-20.7s15.3-14.6 19.2-9c3.4 4.9-.8 8.8-1.6 14.8s-2.4 17.9 2.8 18.8c7.9 1.3 5.3-23.7 13-27.7s14.3-11.4 16.9-17.5c4.7.1 20.2.1 26.2 3.9z"/><path class="st6" d="M146 108.1c-27.6-11.3-53.9-1.5-53.9-1.5s-4-13.5-12.9-11.1c-8.9 2.4-4.3 20.1-4 21.7-4.6 1.7-12.2 14.7-12.2 14.7s-10.8 1.3-12.6 1.5c-1.8.2-2.1 1.3-2.2 1.8-3.3 20.5 5.8 27.7 9.1 29.7.7.4 1.3.6 2.6.1 4.3-1.5 13.2-4.6 18.6-9 .7 8.3-8.8 16.6-12.9 19.8-1.1.8-1.4 1.5-.6 2.8.7 1 4.5 5.6 6.1 7.5.5.5.8 1.3 1 1.9.8 3.1 3.2 13.1 4.8 17.1.5 1.1.8 1.8 3 1.8h12.9c2.3 0 2.3-2.4 2.3-2.4l1.2-8.8s4.1 7.2 21.6 7.2 24.6-7.2 24.6-7.2-2.2 9.3-2 8.3c.2-1.1-1.1 2.8 1.3 2.9 2.4.2 12 0 14.1 0 2.8 0 10.7-21.7 15.6-28.5 10-13.8 8.2-31.5 7-35.2-1.2-3.7-4.9-23.8-32.5-35.1z"/><path class="st7" d="M146 108.1c-27.6-11.3-53.9-1.5-53.9-1.5s-4-13.5-12.9-11.1c-8.9 2.4-4.3 20.1-4 21.7-4.6 1.7-12.2 14.7-12.2 14.7s-10.8 1.3-12.6 1.5c-1.8.2-2.1 1.3-2.2 1.8-3.3 20.5 5.8 27.7 9.1 29.7.7.4 1.3.6 2.6.1 4.3-1.5 13.2-4.6 18.6-9 .7 8.3-8.8 16.6-12.9 19.8-1.1.8-1.4 1.5-.6 2.8.7 1 4.5 5.6 6.1 7.5.5.5.8 1.3 1 1.9.8 3.1 3.2 13.1 4.8 17.1.5 1.1.8 1.8 3 1.8h12.9c2.3 0 2.3-2.4 2.3-2.4l1.2-8.8s4.1 7.2 21.6 7.2 24.6-7.2 24.6-7.2-2.2 9.3-2 8.3c.2-1.1-1.1 2.8 1.3 2.9 2.4.2 12 0 14.1 0 2.8 0 10.7-21.7 15.6-28.5 10-13.8 8.2-31.5 7-35.2-1.2-3.7-4.9-23.8-32.5-35.1z"/><path class="st8" d="M146 108.1c-27.6-11.3-53.9-1.5-53.9-1.5s-4-13.5-12.9-11.1c-8.9 2.4-4.3 20.1-4 21.7-4.6 1.7-12.2 14.7-12.2 14.7s-10.8 1.3-12.6 1.5c-1.8.2-2.1 1.3-2.2 1.8-3.3 20.5 5.8 27.7 9.1 29.7.7.4 1.3.6 2.6.1 4.3-1.5 13.2-4.6 18.6-9 .7 8.3-8.8 16.6-12.9 19.8-1.1.8-1.4 1.5-.6 2.8.7 1 4.5 5.6 6.1 7.5.5.5.8 1.3 1 1.9.8 3.1 3.2 13.1 4.8 17.1.5 1.1.8 1.8 3 1.8h12.9c2.3 0 2.3-2.4 2.3-2.4l1.2-8.8s4.1 7.2 21.6 7.2 24.6-7.2 24.6-7.2-2.2 9.3-2 8.3c.2-1.1-1.1 2.8 1.3 2.9 2.4.2 12 0 14.1 0 2.8 0 10.7-21.7 15.6-28.5 10-13.8 8.2-31.5 7-35.2-1.2-3.7-4.9-23.8-32.5-35.1z"/><path class="st8" d="M144.5 122.7c-.4 0-.8-.1-1.2-.3-17.4-8.3-36.8-3.7-37-3.7-1.6.4-3.2-.7-3.6-2.4-.4-1.7.6-3.4 2.3-3.8.9-.2 21.5-5.1 40.7 4.1 1.5.7 2.2 2.6 1.5 4.2-.5 1.2-1.6 1.9-2.7 1.9z"/><path class="st5" d="M144.5 126.5c-.4 0-.8-.1-1.2-.3-17.4-8.3-36.8-3.7-37-3.7-1.6.4-3.2-.7-3.6-2.4-.4-1.7.6-3.4 2.3-3.8.9-.2 21.5-5.1 40.7 4.1 1.5.7 2.2 2.6 1.5 4.2-.5 1.2-1.6 1.9-2.7 1.9z"/><defs><path id="SVGID_3_" d="M144.5 126.5c-.4 0-.8-.1-1.2-.3-17.4-8.3-36.8-3.7-37-3.7-1.6.4-3.2-.7-3.6-2.4-.4-1.7.6-3.4 2.3-3.8.9-.2 21.5-5.1 40.7 4.1 1.5.7 2.2 2.6 1.5 4.2-.5 1.2-1.6 1.9-2.7 1.9"/></defs><clipPath id="SVGID_4_"><use xlink:href="#SVGID_3_" overflow="visible"/></clipPath><path class="st9" d="M144.5 122.7c-.4 0-.8-.1-1.2-.3-17.4-8.3-36.8-3.7-37-3.7-1.6.4-3.2-.7-3.6-2.4-.4-1.7.6-3.4 2.3-3.8.9-.2 21.5-5.1 40.7 4.1 1.5.7 2.2 2.6 1.5 4.2-.5 1.2-1.6 1.9-2.7 1.9z"/><ellipse class="st10" cx="85.2" cy="134.3" rx="7.3" ry="7.8"/><ellipse class="st11" cx="85.2" cy="134.4" rx="3.9" ry="4.2"/><ellipse class="st10" cx="86.5" cy="131.6" rx="2.6" ry="2.8"/><path class="st8" d="M170.7 140c-1.6.6-2.4 2.5-1.8 4.3.6 1.7 2.4 2.6 4 2 1.8-.8-2.1-6.4-2.2-6.3z"/><ellipse class="st12" cx="126.5" cy="106.2" rx="17" ry="18.2"/><ellipse class="st12" cx="126.5" cy="106.2" rx="13.1" ry="14"/><path class="st8" d="M126.5 120.6c-7.4 0-13.5-6.5-13.5-14.5s6.1-14.5 13.5-14.5 13.5 6.5 13.5 14.5-6 14.5-13.5 14.5zm0-28c-7 0-12.7 6.1-12.7 13.6s5.7 13.6 12.7 13.6c7 0 12.7-6.1 12.7-13.6s-5.7-13.6-12.7-13.6z"/><path class="st5" d="M132.8 102c0 .8-.4 1.4-1.1 1.4-1.2 0-2-2.3-4-2.3-.6 0-1.2.3-1.2 1.1 0 2.2 6.6.9 6.6 6.2 0 3-3.1 4.7-4.7 4.8-.5 0-.5.2-.5.8 0 1.1-.1 1.1-1.1 1.1s-1.3.2-1.3-1c0-.4.1-.8-.3-.9-.8-.1-2.5-.5-3.1-1-.8-.6-1.2-2.7-1.2-3.6 0-.5.2-1.1.8-1.1 1.5 0 1.2 3.2 4.5 3.2.5 0 1.6-.2 1.6-1 0-.7-.2-.8-2.5-1.7-2-.7-4-2.2-4-4.7 0-2.3 1.8-4.2 3.8-4.6.6-.1.5-.2.5-.8 0-1.2.1-1.1 1.1-1.1s1.3-.2 1.3 1c0 .3-.1.8.3.9l1.5.3c.3 0 .6-.2 1-.2.7 0 2 1.8 2 3.2z"/><path class="st8" d="M103.8 118.1s8-2.1 18.6-2.1c10.5 0 23.6 6.6 23.6 6.6l-4.9 14.4-36.1-10.7-1.2-8.2zM179.4 42.5l-9.4-.2s-1.1.2-1.1.8c0 .5 1.7 25.7 2.2 32.9 0 .7 0 1.2.3 1.5.4.5 1.2.4 1.4.4 1.4-.1 18.3 1.3 42.5 3.5-2.6-4.3-5.2-8.7-7.7-13-2.8-3.9-6.4-8.4-11-13-4.5-4.4-8.8-7.9-12.6-10.6-1.6-.8-3.1-1.6-4.6-2.3z"/><path class="st5" d="M114.2 82.2c-.8 1.4-1.7 3.1-2.7 5.2-5.9 12.4-4.6 18.4-2.7 21.4 1.9 3 5.2.9 6.4-.6 1.2-1.5 2.7-13.2 7.8-20.7 1.1-1.6 2.4-3.2 3.8-4.6-4.1-.6-8.3-.9-12.6-.7zM141.8 88.8c-.5 1.4-1 2.9-1.2 4.5l-.3 2.1c2.1 3 3.3 6.7 3.3 10.7 0 2-.3 3.9-.9 5.7l.6.2c5.8 1 5.6-11.2 8.1-19.3-3.1-1.4-6.3-2.8-9.6-3.9z"/><path class="st8" d="M172.7 141.1l-1.2-.6c-1-.6-1.3-1.9-.8-2.9s1.8-1.4 2.7-.9c2 1.2 4.4 1.5 6.4.9-2-2.2-2.5-5.2-1.5-8.2 1.1-3.5 2.8-4.4 4.1-4.6 1.5-.2 3 .5 4.1 2.2 1.4 2.1 2.2 5.9.5 9.4l-.2.4c1.4.3 2.8.1 3.5-.5.9-.7 2.2-.5 2.8.5.7 1 .5 2.3-.4 3-2.2 1.7-5.8 1.8-8.9.6-.8.6-1.7 1.1-2.7 1.4-2.6.8-5.7.5-8.4-.7zm10.2-12c-.2.2-.5.6-.8 1.7-.5 1.7-.2 3.1 1 4.2l.3-.6c.6-1.2.7-2.8.2-4.1-.2-.7-.5-1.1-.7-1.2zM107.9 127.5l-10.8 1.3-1.7-16 10.7-1.3zM150.6 133.9l-10.3-3.6 4.7-15.4 10.3 3.6z"/></svg>