<svg width="80" height="74" viewBox="0 0 80 74" xmlns="http://www.w3.org/2000/svg"><title>fastestimate</title><g fill="#FFF" fill-rule="evenodd"><path d="M70.1 14.5v17.4l-12 10.2-7 6 18.7 16.2-2.5 2.5-19-16.2H31.8l-19 16.2-2.5-2.5L29 48.1l-7-6L9.9 31.9V14.5L.4 22.7v44.4c0 3.5 2.9 6.3 6.3 6.3h66.6c3.5 0 6.3-2.9 6.3-6.3V22.7l-9.5-8.2z"/><path d="M56.5 38.6L67 29.7v-26C67 1.8 65.4.5 63.8.5H16.2C14.3.5 13 1.8 13 3.7v26l10.5 8.9h33zM19.4 10.1h41.2v3.2H19.4v-3.2zm0 9.5h41.2v3.2H19.4v-3.2zm0 9.5h41.2v3.2H19.4v-3.2zM47 46.5l5.7-4.7H27.3l5.7 4.7h14z"/></g></svg>