<svg id="Layer_1" xmlns="http://www.w3.org/2000/svg" viewBox="0 0 90 90"><style>.st0{fill:#424242}</style><path class="st0" d="M75.1 22.5v17.4l-12 10.2-7 6 18.7 16.2-2.5 2.5-19-16.2H36.8l-19 16.2-2.5-2.5L34 56.1l-7-6-12.1-10.2V22.5l-9.5 8.2v44.4c0 3.5 2.9 6.3 6.3 6.3h66.6c3.5 0 6.3-2.9 6.3-6.3V30.7l-9.5-8.2z"/><path class="st0" d="M61.5 46.6L72 37.7v-26c0-1.9-1.6-3.2-3.2-3.2H21.2c-1.9 0-3.2 1.3-3.2 3.2v26l10.5 8.9h33zM24.4 18.1h41.2v3.2H24.4v-3.2zm0 9.5h41.2v3.2H24.4v-3.2zm0 9.5h41.2v3.2H24.4v-3.2zM52 54.5l5.7-4.7H32.3l5.7 4.7z"/></svg>