<svg id="Layer_1" xmlns="http://www.w3.org/2000/svg" viewBox="-145 354.2 320 125.8"><style>.st0{fill:#ff9800}.st1{fill:#f57c00}.st2,.st3{stroke:#f57c00;stroke-miterlimit:10}.st2{stroke-width:1.5;stroke-linecap:square;fill:none}.st3{fill:#ff9800}.st4{fill:url(#SVGID_1_)}.st5{fill:url(#SVGID_2_)}.st6{fill:url(#SVGID_3_)}.st7{fill:url(#SVGID_4_)}.st8{fill:url(#SVGID_5_)}.st9{fill:#8a8a8a}.st10{fill:url(#SVGID_6_)}.st11{fill:#b3b1b2}.st12{fill:url(#SVGID_7_)}.st13{fill:url(#SVGID_8_)}.st14{fill:url(#SVGID_9_)}.st15{fill:url(#SVGID_10_)}.st16{fill:url(#SVGID_11_)}.st17{fill:url(#SVGID_12_)}.st18{fill:url(#SVGID_13_)}.st19{fill:url(#SVGID_14_)}.st20{fill:url(#SVGID_15_)}.st21{fill:url(#SVGID_16_)}.st22{fill:url(#SVGID_17_)}.st23{fill:url(#SVGID_18_)}.st24{fill:url(#SVGID_19_)}.st25{fill:url(#SVGID_20_)}.st26{fill:url(#SVGID_21_)}.st27{fill:url(#SVGID_22_)}.st28{fill:url(#SVGID_23_)}.st29{fill:url(#SVGID_24_)}.st30{fill:url(#SVGID_25_)}.st31{fill:url(#SVGID_26_)}.st32{fill:url(#SVGID_27_)}.st33{fill:url(#SVGID_28_)}.st34{fill:url(#SVGID_29_)}.st35{fill:url(#SVGID_30_)}.st36{fill:url(#SVGID_31_)}.st37{fill:url(#SVGID_32_)}.st38{fill:url(#SVGID_33_)}.st39{fill:url(#SVGID_34_)}.st40{fill:url(#SVGID_35_)}.st41{fill:url(#SVGID_36_)}.st42{fill:#f3b175}.st43{fill:url(#SVGID_37_)}.st44{fill:url(#SVGID_38_)}.st45{fill:url(#SVGID_39_)}.st46{fill:#fff}.st47{fill:url(#SVGID_40_)}.st48{fill:#eeb87d}.st49{fill:#7e1416}.st50{fill:url(#SVGID_41_)}.st51{fill:url(#SVGID_42_)}.st52{fill:url(#SVGID_43_)}.st53{fill:url(#SVGID_44_)}.st54{fill:url(#SVGID_45_)}.st55{fill:#d84315}.st56{fill:#e57373}.st57{fill:#fcdbd0}.st58{fill:#fdd3aa}.st59{fill:url(#SVGID_46_)}.st60{fill:url(#SVGID_47_)}.st61{fill:url(#SVGID_48_)}.st62{fill:url(#SVGID_49_)}.st63{fill:url(#SVGID_50_)}.st64{fill:url(#SVGID_51_)}.st65{fill:#fcc680}.st66{fill:#ffddae}.st67{fill:#757575}.st68{fill:#64b5f6}.st69{fill:#bbdefb}.st70{fill:#424242}.st71{fill:#808184}.st72{fill:#616161}.st73{fill:#ff6d00}.st74{fill:none;stroke:#f57c00;stroke-width:2;stroke-miterlimit:10}</style><path class="st0" d="M-10.7 388c.1-1 .7-1.9 1-1.9s.9.9 1 1.9h-2z"/><path class="st1" d="M-9.7 387.1c0 .1.1.1.1.2h-.2c.1-.1.1-.2.1-.2m0-1.7c-1 0-1.8 1.5-1.8 3.3v.4H-8v-.5c0-1.8-.7-3.2-1.7-3.2z"/><path class="st0" d="M-14.8 399c0-6 2.4-10.3 5.1-10.3 2.7 0 5.1 4.3 5.1 10.3h-10.2z"/><path class="st1" d="M-9.7 389.3c1.9 0 4.1 3.8 4.3 8.8H-14c.2-5.1 2.4-8.8 4.3-8.8m0-1.3c-3.2 0-5.8 5.1-5.8 11.3v.7h11.7v-.7c0-6.2-2.7-11.3-5.9-11.3z"/><path class="st2" d="M-9.7 387.4v-33.2"/><path class="st3" d="M93.5 376.5h3v101h-3v-101zm62 0h2v101h-2v-101zm11.5 21H88h79z"/><path class="st3" d="M87.5 420.5h79v1h-79v-1zm0 27h79v1h-79v-1zm13-67v16h10v-16h-10zm25 52v15h11v-15h-11zm-1-36.4c0 .2-.2.4-.4.4h-2.2c-.2 0-.4-.2-.4-.4v-17.2c0-.2.2-.4.4-.4h2.2c.2 0 .4.2.4.4v17.2zm29.3.6l-.7.5c-.1.1-.2 0-.3-.1l-10.5-15c-.1-.1 0-.2.1-.3l.7-.5c.1-.1.2 0 .3.1l10.5 15c.1.1 0 .2-.1.3zm-22.3-.6c0 .2-.2.4-.4.4h-2.2c-.2 0-.4-.2-.4-.4v-13.2c0-.2.2-.4.4-.4h2.2c.2 0 .4.2.4.4v13.2zm3 0c0 .2-.2.4-.4.4h-1.2c-.2 0-.4-.2-.4-.4v-15.2c0-.2.2-.4.4-.4h1.2c.2 0 .4.2.4.4v15.2zm3 .3c0 .1-.1.2-.2.2h-.7c-.1 0-.2-.1-.2-.2v-14.7c0-.1.1-.2.2-.2h.7c.1 0 .2.1.2.2v14.7zm4-.2c0 .2-.2.4-.4.4h-1.2c-.2 0-.4-.2-.4-.4v-15.3c0-.2.2-.4.4-.4h1.2c.2 0 .4.2.4.4v15.3zm-27 14.9c0 .2-.2.4-.4.4h-12.2c-.2 0-.4-.2-.4-.4v-2.2c0-.2.2-.4.4-.4h12.2c.2 0 .4.2.4.4v2.2zm2 3c0 .2-.2.4-.4.4h-15.2c-.2 0-.4-.2-.4-.4v-1.2c0-.2.2-.4.4-.4h15.2c.2 0 .4.2.4.4v1.2zm-1 4c0 .2-.2.4-.4.4h-14.2c-.2 0-.4-.2-.4-.4v-2.2c0-.2.2-.4.4-.4h14.2c.2 0 .4.2.4.4v2.2z"/><path class="st3" d="M117.5 419.2c0 .2-.2.4-.4.4H98.9c-.2 0-.4-.2-.4-.4V418c0-.2.2-.4.4-.4h18.2c.2 0 .4.2.4.4v1.2zm-16 34.3v23h23v-23h-23zm14.2 5h-3.1c-.9 0-1.6-.6-1.6-1.5s.7-1.5 1.6-1.5h3.1c.9 0 1.6.6 1.6 1.5s-.7 1.5-1.6 1.5zm11.8-5v23h22v-23h-22zm13.4 5h-3.1c-.9 0-1.6-.6-1.6-1.5s.7-1.5 1.6-1.5h3.1c.9 0 1.6.6 1.6 1.5s-.7 1.5-1.6 1.5zm-.9-46.6c-2.2 0-3.9.2-3.9.4l1.7 7.7s.7.4 2.3.4c1.9 0 2.5-.4 2.5-.4l1.4-7.7c0-.2-1.8-.4-4-.4z"/><ellipse class="st3" cx="140" cy="412.3" rx="3.6" ry=".4"/><path class="st3" d="M139.8 412.7h-.3c-.3-1.4-.6-5.8.9-7.9 1.9-2.6 6-4.2 5.9-3.6s-5.6 5-6 6.8c-.4 1.8-.5 4.7-.5 4.7z"/><path class="st3" d="M139.6 412.5h.2c.1 0 .8-2.3-.3-3.7-.9-1.2-2.8-1.6-2.9-1.5 0 .3 2.6 2.9 2.8 3.8.1.9.2 1.4.2 1.4zm.1-4l.2.1c.4-.7 1.5-3 1.1-4.4-.5-1.8-2.5-3.5-2.6-3.2-.1.3 1.8 4.7 1.7 5.7-.2 1-.4 1.8-.4 1.8z"/><path class="st3" d="M139.9 408l.2.1c.7-.6 2.6-2.6 2.7-4.2 0-2-1.5-4.4-1.7-4.1s.4 5.4-.1 6.5c-.6 1.1-1.1 1.7-1.1 1.7z"/><path class="st3" d="M139.8 410.4c0 .1.1.3.1.4.1-.4.8-2.5-.4-4.1-.9-1.2-2.7-1.8-2.8-1.7 0 .4 2.2 2.2 2.8 3.9.1.3.3.8.3 1.5zm-31.3 22.1v15h10v-15h-10z"/><path class="st3" d="M140.1 411c0 .1-.1.3-.1.4-.1-.4-.8-2.5.4-4.1.9-1.2 2.7-1.8 2.8-1.7 0 .4-2.2 2.2-2.8 3.9-.2.3-.3.8-.3 1.5z"/><path class="st1" d="M-131 435.4v2.3-2.3zm0-3.2v2.3-2.3zm32.9 16.1v1.8-1.8z"/><path class="st0" d="M-136.1 477.7v-88.3h43.2v88.3h-43.2zm22.9-7.3H-96v-74.7h-17.2v74.7zm-19.8 0h16.7v-74.7H-133v74.7z"/><path class="st1" d="M-93.7 390.2V477h-41.6v-86.8h41.6m-20.2 81h18.7V395h-18.7v76.2m-19.8 0h18.2V395h-18.2v76.2m41.5-82.5h-44.6v89.8h44.7l-.1-89.8c.1 0 0 0 0 0zm-20.2 81v-73.2h15.7v73.2h-15.7zm-19.8 0v-73.2h15.2v73.2h-15.2z"/><path class="st0" d="M-115 478v-89 89-.3.4V389v89z"/><path class="st1" d="M-115 389v89-89zm0 .4V478v-88.6zm.3 88.9h-.3.3z"/><path class="st0" d="M-112 449h15v1h-15v-1z"/><path class="st1" d="M-96 448h-16v2h16v-2z"/><path class="st0" d="M-132 449h15v1h-15v-1z"/><path class="st1" d="M-117 448h-16v2h16v-2z"/><path class="st0" d="M-112 406h15-15z"/><path class="st1" d="M-96 405h-16v2h16v-2z"/><path class="st0" d="M-132 406h15-15z"/><path class="st1" d="M-117 405h-16v2h16v-2z"/><path class="st0" d="M-119 434v-.3.3l.1-.2h-.1v.2l.2-.2-.2.2.2-.2-.2.2.2-.2v-.1c-.1-.2-.1-.6-.2-1.1 0-.5-.1-1.2-.1-1.9 0-.9 0-1.7.1-2.3 0-.3.1-.5.1-.7v-.1l-.1-.1.1.1-.1-.1v.1l-.2-.2v.2h.1l-.1-.2v.2-.2l-.1.2h.1v-.2l-.1.2.1-.1-.1.1.1-.1-.1.1v.1c.1.2.1.6.2 1.1 0 .5.1 1.2.1 1.9 0 .9 0 1.7-.1 2.3 0 .3-.1.5-.1.7v.1l.2.2-.2-.2.2.2-.2-.2.2.2v-.3h-.1l.1.3v-.3.6s.2 0 .3-.1c.1-.1.1-.2.2-.2.1-.1.1-.3.2-.5.1-.6.2-1.6.2-2.8 0-.9 0-1.8-.1-2.4 0-.3-.1-.6-.1-.8 0-.1-.1-.2-.1-.3l-.1-.1s-.1-.1-.2-.1-.2 0-.2.1c-.1.1-.1.2-.2.2-.1.1-.1.3-.1.5-.1.6-.2 1.6-.2 2.8 0 .9 0 1.8.1 2.4 0 .3.1.6.1.8 0 .1.1.2.1.3 0 0 0 .1.1.1l.2.1v-.3h-.2z"/><path class="st1" d="M-118.9 427c-.1 0-.2 0-.2.1l-.2.2c-.1.1-.1.3-.1.5-.1.6-.2 1.6-.2 2.8 0 .9 0 1.8.1 2.4 0 .3.1.6.1.8 0 .1.1.2.1.3h.3v-.2h-.2l.1.1s0-.2.1-.2v-.2c0-.1.1-.3.1-.5s-.1-.4-.1-.6c0-.5-.1-1.2-.1-1.9 0-.9 0-1.7.1-2.3v-.2c0-.2-.1-.4-.1-.5v-.1h-.2l.2-.2v.1l.1.1v-.1l.1.1v.1c0 .1-.1.3-.1.5s.1.4.1.6c0 .5.1 1.2.1 1.9 0 .9 0 1.7-.1 2.3v.2c0 .2.1.4.1.5v.1l-.1.1v-.1l-.1.1v-.1l-.1.1-.1.1v.4s.2 0 .3-.1c.1-.1.1-.2.2-.2.1-.1.1-.3.2-.5.1-.6.2-1.6.2-2.8 0-.9 0-1.8-.1-2.4 0-.3-.1-.6-.1-.8 0-.1-.1-.2-.1-.3l-.1-.1s-.1-.1-.2-.1zm-.2.4v.2-.2zm0 0zm0 0v.2-.2zm.2 0zm-.1.1c-.1 0-.1 0 0 0zm0 0c-.1 0 0 .1 0 0zm0 6.2c-.1 0-.1 0 0 0zm-.1 0v.2-.2zm0 0v.2-.2zm0 0v.2-.2zm0 0v.2-.2z"/><path class="st0" d="M-111 434v-.3.3l.1-.2h-.1v.2l.3-.2v.1l.1-.1-.1.1.1-.1v-.1c-.1-.2-.1-.6-.2-1.1 0-.5-.1-1.2-.1-1.9 0-.9 0-1.7.1-2.3 0-.3.1-.5.1-.7v-.1l-.1-.1.1.1-.1-.1-.1.1-.3-.2v.2h.1l-.1-.2v.2-.2l-.1.2h.1v-.2l.1.2.2-.1-.1.1.1-.1-.1.1v.1c.1.2.1.6.2 1.1 0 .5.1 1.2.1 1.9 0 .9 0 1.7-.1 2.3 0 .3-.1.5-.1.7v.1l.1.1-.1-.1.1.1-.3-.1.1.2v-.3h-.1l.1.3v-.3.6s.4 0 .4-.1c.1-.1.2-.2.3-.2.1-.1.1-.3.2-.5.1-.6.2-1.6.2-2.8 0-.9 0-1.8-.1-2.4 0-.3-.1-.6-.1-.8 0-.1-.1-.2-.1-.3l-.1-.1s-.1-.1-.2-.1-.2 0-.2.1c-.1.1-.1.2-.2.2-.1.1-.1.3-.1.5-.1.6-.2 1.6-.2 2.8 0 .9 0 1.8.1 2.4 0 .3.1.6.1.8v.2c.1.1-.1.2 0 .2v.1-.3z"/><path class="st1" d="M-110.6 427c-.1 0-.2 0-.2.1l-.2.2c-.1.1-.1.3-.1.5-.1.6-.2 1.6-.2 2.8 0 .9 0 1.8.1 2.4 0 .3.1.6.1.8 0 .1.1.2.1.3v-.2l.2.1.1-.2v-.2c0-.1.1-.3.1-.5s-.1-.4-.1-.6c0-.5-.1-1.2-.1-1.9 0-.9 0-1.7.1-2.3v-.2c0-.2-.1-.4-.1-.5v-.1h-.3l.1-.2.2.1h.1l.1.1v-.1l.1.1v.1c0 .1-.1.3-.1.5s.1.4.1.6c0 .5.1 1.2.1 1.9 0 .9 0 1.7-.1 2.3v.2c0 .2.1.4.1.5v.1l-.1.1v-.1l-.1.1v-.1l-.1.1h-.1l-.2.1v.4s.4 0 .4-.1c.1-.1.2-.2.3-.2.1-.1.1-.3.2-.5.1-.6.2-1.6.2-2.8 0-.9 0-1.8-.1-2.4 0-.3-.1-.6-.1-.8 0-.1-.1-.2-.1-.3l-.1-.1c-.2 0-.2-.1-.3-.1zm-.2.4v.2-.2zm0 0zm0 0v.2-.2zm.2 0zm-.1.1c-.1 0-.1.1 0 0zm-.1 6.2c.1 0 .1 0 0 0zm-.1 0v.2-.2zm.1 0v.2-.2zm0 0v.2-.2zm0 0v.2-.2z"/><path class="st0" d="M-74 394h16v16h-16v-16z"/><path class="st1" d="M-59 394v15h-15v-15h15m1-1h-17v17h17v-17z"/><path class="st0" d="M-71.2 401.9c.1.1.1.1.2.1.2 0 .4-.2.4-.6-.1.1-.2.2-.3.2-.3 0-.4-.2-.4-.4 0-.3.2-.5.4-.5.3 0 .5.2.5.7 0 .6-.3.8-.6.8-.2 0-.3-.1-.4-.2l.2-.1zm.6-.7c0-.3-.1-.4-.3-.4-.1 0-.3.1-.3.3 0 .2.1.3.3.3.1 0 .2 0 .3-.2z"/><path class="st1" d="M-70.9 400.6c-.2 0-.4.2-.4.5s.2.4.4.4c.1 0 .3-.1.3-.2 0 .5-.2.6-.4.6-.1 0-.2 0-.2-.1l-.1.1c.1.1.2.2.4.2.3 0 .6-.2.6-.8-.1-.4-.3-.7-.6-.7zm0 .8c-.2 0-.3-.1-.3-.3 0-.2.1-.3.3-.3.2 0 .3.2.3.4-.1.2-.2.2-.3.2z"/><path class="st0" d="M-61.9 401.8c.1.1.2.2.4.2s.3-.1.3-.2c0-.2-.5-.3-.5-.3v-.1s.5-.1.5-.2-.1-.2-.2-.2-.2 0-.3.1l-.1-.1c.1-.1.3-.2.4-.1.3 0 .2.2.2.4s0 .3-.5.3c.5.1.5.2.5.4 0 .3-.1.4-.4.4-.2 0-.3-.1-.4-.2l.1-.4z"/><path class="st1" d="M-61.5 400.6c-.2 0-.3.1-.4.2l.1.1c.1-.1.2-.1.3-.1.2 0 .2.1.2.2 0 .2-.5.2-.5.2v.1c.5 0 .5-.1.5-.3.1-.2.1-.3-.2-.4zm-.3.8c0 .1.5.2.5.4s-.1.2-.2.2c-.2 0-.3-.1-.4-.2l-.2.1c.1.1.2.2.4.2s.3-.1.4-.4c.1-.1 0-.3-.5-.3z"/><path class="st0" d="M-65.8 405.6c-.1-.1-.1-.1-.2-.1-.2 0-.4.2-.4.6.1-.1.2-.2.3-.2.3 0 .4.2.4.4 0 .3-.2.5-.4.5-.3 0-.5-.2-.5-.7 0-.6.3-.8.6-.8.2 0 .3.1.4.2l-.2.1zm0 .8c0-.2-.1-.3-.3-.3-.1 0-.2.1-.3.2 0 .3.1.4.3.4.1 0 .3-.1.3-.3z"/><path class="st1" d="M-66 405.4c-.3 0-.6.2-.6.8 0 .5.2.7.5.7.2 0 .4-.2.4-.5s-.2-.4-.4-.4c-.1 0-.2.1-.3.2 0-.5.2-.6.4-.6.1 0 .2 0 .2.1l.1-.1c-.1-.2-.2-.2-.3-.2zm-.1 1.3c-.2 0-.3-.2-.3-.4.1-.1.2-.2.3-.2.2 0 .3.1.3.3 0 .2-.2.3-.3.3z"/><path class="st0" d="M-65.8 400.8l.1.3-4.7 3.4 4.6-3.7z"/><path class="st1" d="M-65.8 400.8l-4.6 3.7 4.7-3.4-.1-.3z"/><path class="st0" d="M-66.1 401.8h-.3l.1-4.3.2 4.3z"/><path class="st1" d="M-66.3 397.5l-.1 4.3h.3l-.2-4.3z"/><path class="st0" d="M-50.7 467c-3.5 0-7-.8-10.4-1.8-5.1-1.5-7.6-2.2-10.1-4.3-2.2-1.9-2.8-3.5-3.6-5.5-.8-2-1.7-4.6-4.7-8.1l-.1-.1c-.7-.8-1.8-2.1-1.6-3 .1-.3.6-1 3.7-1.6 1.9-.4 4.9-.5 8.6-.5 4.4 0 9.9.2 16.3.7 11 .8 22.2 2.2 32.4 4 13.2 2.3 28.6 5.9 31.1 8.4.2.2.3.3.3.4 0 .4-.7 1-1.2 1.4l-.2.2c-.2.1-.3.2-.4.4-.1.1-.4.6-2.8 2.9-2.9 2.8-6 5.7-6.4 6-.1.1-.3.2-.5.4l-.1.1h-50.3z"/><path class="st1" d="M-68.8 442.9c4.4 0 9.8.2 16.2.7 10.9.8 22.1 2.2 32.4 4 15.6 2.7 28.4 6.1 30.6 8.2-.2.2-.6.5-.8.7l-.2.2c-.2.2-.4.3-.5.6-.1.1-.6.7-2.7 2.7-3 2.9-5.9 5.4-6.3 5.7-.1.1-.3.3-.5.3h-50.1c-3.5 0-6.9-.7-10.2-1.7-5.1-1.5-7.5-2.1-9.8-4.1-2.1-1.8-2.6-3.1-3.4-5.1-.8-2.1-1.8-4.7-4.8-8.3l-.1-.1c-.4-.5-1.6-1.8-1.4-2.3 0 0 .4-.6 3.1-1.1 1.9-.2 4.8-.4 8.5-.4m0-1.5c-3.5 0-6.6.2-8.8.6-2.9.5-4 1.3-4.3 2.1-.4 1.3.9 2.8 1.8 3.8 5.8 6.8 3.6 9.6 8.4 13.6 2.6 2.2 5.2 3 10.4 4.5 4.3 1.2 8 2 10.6 2H.2c.1 0 .2-.4.2-.5.1-.2.3-.3.3-.3.5-.3 3.7-3.4 6.5-6.1 3.9-3.8 2.6-2.8 3.1-3.3.8-.6 1.7-1.3 1.7-2.2 0-.3-.2-.6-.5-.9-2.9-2.9-19.3-6.5-31.5-8.7-10.6-1.9-21.9-3.2-32.5-4-5.4-.3-11.3-.6-16.3-.6z"/><path class="st0" d="M-71.3 467c-1.3 0-2.7-.4-2.7-.6v-4.6c0-.2 1.2-.5 2.6-.6 13.1-1.1 26.7-1.7 40.5-1.7s27.4.6 40.5 1.7c1.4.1 2.5.5 2.5.8v4.5c0 .2-1.1.6-2.4.6h-81v-.1z"/><path class="st1" d="M-30.9 460.2c13.7 0 27.2.6 40.3 1.7.9.1 1.7.3 1.7.4v3.6c0 .1-.7 0-1.4 0h-81c-.8 0-1.7.1-1.7 0v-3.7c0-.1 1-.3 1.8-.4 13-1 26.5-1.6 40.3-1.6m0-1.5c-13.7 0-27.5.6-40.7 1.7-1.7.2-3.4.7-3.4 1.2v5c0 .5 2 1.4 3.7 1.4H9.6c1.8 0 3.4-.9 3.4-1.4v-5c-1-.5-1.6-1-3.3-1.2-13.2-1.1-27-1.7-40.6-1.7z"/><path class="st0" d="M-78 478v-4h1.9l-1 4h-.9z"/><path class="st1" d="M-75.2 473H-78v5h1.4l1.4-5z"/><path class="st0" d="M-78 468h90v4h-90v-4z"/><path class="st1" d="M11 468v3h-88v-3h88m2-1h-91v6h91v-6z"/><path class="st0" d="M9.3 474c-2-15 .5-20.3 2.2-22.2.9-1 1.9-1.7 3.1-1.7 1.1 0 2.2.5 3 1.4 1.9 2 1.3 3.3-.5 5.8-2.1 3.1-5.3 7.7-2 16.7H9.3z"/><path class="st1" d="M14.6 450.8c.9 0 1.8.4 2.5 1.2 1.5 1.6 1.1 2.3-.6 4.8-2.1 3.1-5.2 7.3-2.4 16.3H10c-1.9-15 .8-19.4 2.1-20.9.7-.9 1.6-1.4 2.5-1.4m0-1.7c-4.1 0-8.7 5.9-5.9 24.9h7.5c-6.5-16 7.6-17.5 1.9-23.4-.9-1-2.2-1.5-3.5-1.5z"/><path class="st0" d="M-79.8 473c3.3-9 .1-13.7-2-16.8-1.8-2.5-2.4-3.8-.5-5.7.9-.9 2-1.5 3-1.5 1.1 0 2.2.7 3.1 1.7 1.7 2 4.2 7.2 2.2 22.2l-5.8.1z"/><path class="st1" d="M-79.3 449.8c.9 0 1.7.5 2.5 1.4 1.3 1.5 4 5.9 2.1 20.9h-4.1c2.8-9-.3-13.2-2.4-16.3-1.7-2.5-2.1-3.2-.6-4.7.8-.9 1.7-1.3 2.5-1.3m0-1.7c-1.3 0-2.6.5-3.6 1.6-5.6 5.9 8.4 7.4 1.9 23.4h7.5c2.9-19.1-1.7-25-5.8-25z"/><path class="st0" d="M-66.6 460.5c.3-4.4 0-8.8-.7-13.1 2 .2 4 .2 5.9.2 5.2 0 10.3-.5 15.6-1.6-.3 4.4 0 8.8.7 13.1-2-.2-4-.2-5.9-.2-5.2-.1-10.3.5-15.6 1.6z"/><path class="st1" d="M-46.5 446.8c-.2 3.8 0 7.6.6 11.4-1.7-.1-3.4-.2-5-.2-5 0-9.8.5-14.8 1.5.2-3.8 0-7.6-.6-11.4 1.7.1 3.4.2 5 .2 4.9 0 9.8-.5 14.8-1.5m1.6-1.8c-5.5 1.2-10.9 1.8-16.4 1.8-2.3 0-4.5-.1-6.8-.3.9 4.9 1.2 9.9.8 14.9 5.5-1.2 10.9-1.8 16.4-1.8 2.3 0 4.5.1 6.8.3-.9-4.9-1.2-9.9-.8-14.9z"/><path class="st0" d="M-64.1 459.6c-.4.1-.9.1-1.3.2.2-4.3 0-8.7-.8-12.9.4 0 .9 0 1.3.1.7 4.1.9 8.4.8 12.6z"/><path class="st1" d="M-66.2 446.9c.7 4.3 1 8.6.8 12.9.4-.1.9-.2 1.3-.2.2-4.2-.1-8.5-.7-12.6-.5 0-.9-.1-1.4-.1z"/><path class="st0" d="M-61.8 459.3c-.4.1-.9.1-1.3.2.1-4.2-.1-8.3-.7-12.4h1.3c.5 4 .7 8.1.7 12.2z"/><path class="st1" d="M-63.9 447c.6 4.1.8 8.3.7 12.4.4-.1.9-.1 1.3-.2 0-4.1-.2-8.2-.7-12.2h-1.3z"/><path class="st0" d="M-48.5 459.6h-1.3c-.5-4-.8-8.2-.7-12.2.4-.1.9-.1 1.3-.2-.1 4.1.2 8.3.7 12.4z"/><path class="st1" d="M-49.2 447.1c-.4.1-.9.1-1.3.2 0 4.1.2 8.2.7 12.2h1.3c-.5-4-.8-8.2-.7-12.4z"/><path class="st0" d="M-46.1 459.7c-.4 0-.9 0-1.3-.1-.7-4.2-.9-8.4-.7-12.6.4-.1.9-.1 1.3-.2-.3 4.3-.1 8.6.7 12.9z"/><path class="st1" d="M-46.9 446.8c-.4.1-.9.2-1.3.2-.2 4.2.1 8.5.7 12.6.4 0 .9 0 1.3.1-.7-4.3-.9-8.6-.7-12.9z"/><path class="st0" d="M12.6 478l-1-3H13v3h-.4z"/><path class="st1" d="M14 474h-3.3l1.3 5h2v-5zm-80.6-77.5l-.2.1v-.1h.2l.1 1h-.1v-1zm.5 1l.1-.2c.3-.3.4-.4.4-.6 0-.1-.1-.2-.2-.2s-.2.1-.2.1v-.1c.1-.1.2-.1.3-.1.2 0 .3.2.3.3 0 .2-.1.4-.4.6l-.1.1h.5v.1h-.7z"/><linearGradient id="SVGID_1_" gradientUnits="userSpaceOnUse" x1="-474.537" y1="1074.702" x2="-474.381" y2="1074.702" gradientTransform="scale(25.695 -25.695) rotate(-9.39 -6882.583 -2361.84)"><stop offset="0"/><stop offset="1" stop-color="#484848"/></linearGradient><path class="st4" d="M9.6 435.9c-.8-.4-2.4-1.2-2-3.8s1.8-3 2.8-1.4c1.1 1.5 1 6-.8 5.2z"/><linearGradient id="SVGID_2_" gradientUnits="userSpaceOnUse" x1="-533.642" y1="526.086" x2="-533.486" y2="526.086" gradientTransform="scale(-51.18 51.18) rotate(59.21 188.457 736.566)"><stop offset="0" stop-color="#ffdfb2"/><stop offset="1" stop-color="#fbbb6c"/></linearGradient><path class="st5" d="M20.5 437.3c-3.4-1.8-8.3-4-10.1-6.6-.6.7-1 3.7-.9 5.2 2.1.7 7.8 5.3 10 6.7-.6 3.4 3.4 6.1 3.8 3.8.5-3.1 1-4.2.9-5.4.1-1.3-1.7-2.7-3.7-3.7z"/><linearGradient id="SVGID_3_" gradientUnits="userSpaceOnUse" x1="-474.536" y1="1075.703" x2="-474.38" y2="1075.703" gradientTransform="matrix(25.35 4.192 4.192 -25.35 7526.722 29695.49)"><stop offset="0"/><stop offset="1" stop-color="#484848"/></linearGradient><path class="st6" d="M8.9 440.5c-.9-.3-2.4-1.2-2-3.8s1.8-2.7 2.8-1.4c1.2 1.5.6 5.8-.8 5.2z"/><linearGradient id="SVGID_4_" gradientUnits="userSpaceOnUse" x1="-536.824" y1="544.907" x2="-536.668" y2="544.907" gradientTransform="scale(-30.493 30.493) rotate(58.92 200.852 754.402)"><stop offset="0" stop-color="#ffdfb2"/><stop offset="1" stop-color="#fbbb6c"/></linearGradient><path class="st7" d="M19.8 441.9c-3.4-1.8-8.3-4-10.1-6.6-.6.7-1 3.7-.9 5.2 2.1.7 7.8 5.3 10 6.7.3 1.4 4 2.4 4.4.1.1-.3.2-1.2.3-1.7.3-1.3-1.8-2.7-3.7-3.7z"/><linearGradient id="SVGID_5_" gradientUnits="userSpaceOnUse" x1="-530.34" y1="502.839" x2="-530.184" y2="502.839" gradientTransform="scale(-268.816 268.816) rotate(57.517 191.47 735.066)"><stop offset="0" stop-color="#7e3d1b"/><stop offset="1" stop-color="#3f160a"/></linearGradient><path class="st8" d="M76.6 392.3c-12.6-7.3-26.3-2.2-34 10.8-4.3 7.3-5.1 12.5-4.5 16.8 1 6.9 24.7 22.1 32.9 18.8 8.4-3.4 29.3-32.6 5.6-46.4z"/><path class="st9" d="M54.2 444.5c-1.3-.3-2.2.3-2.6 1.5-.2.5-2.5 7.5-2.5 7.5-.2.7-1 1.2-1.8 1l-3.4-.7-.4 1.2 3.4.7 3.8.8c1.4.3 2.9-.6 3.3-1.9l2.5-7.5c.4-1.1-.7-2.3-2.3-2.6z"/><linearGradient id="SVGID_6_" gradientUnits="userSpaceOnUse" x1="-531.876" y1="1098.612" x2="-531.72" y2="1098.612" gradientTransform="matrix(49.06 -145.39 149.14 31.028 -137712.625 -110938.164)"><stop offset="0"/><stop offset="1" stop-color="#484848"/></linearGradient><path class="st10" d="M54 454.5s2.4-7 2.5-7.5c.2-.5.2-2-2.4-2.5 1 .4 1.6 1.1 1.2 2.3-.2.5-2.5 7.5-2.5 7.5-.2.7-1 1.2-1.8 1l-7.3-1.5-.4 1.2 7.3 1.5c1.5.2 3-.6 3.4-2z"/><path class="st11" d="M60.8 431.3c-8.2-1.8-14.1 1.4-20 13.6-1.7 3.6 2.3 5.3 10.1 6.9 7.8 1.6 11.3 1.5 13-2.1 6.2-12.9 5.1-16.8-3.1-18.4z"/><linearGradient id="SVGID_7_" gradientUnits="userSpaceOnUse" x1="-525.044" y1="520.986" x2="-524.888" y2="520.986" gradientTransform="scale(-54.478 54.478) rotate(78.248 52.312 586.807)"><stop offset="0" stop-color="#6bc9f2"/><stop offset="1" stop-color="#327ec0"/></linearGradient><path class="st12" d="M57.7 453.7c-.1.6-.8 1.1-1.4.9l-24.5-5.1c-.6-.1-1.1-.8-.9-1.4l.3-1.7c.1-.6.8-1.1 1.4-.9l24.5 5.1c.6.1 1.1.8.9 1.4l-.3 1.7z"/><linearGradient id="SVGID_8_" gradientUnits="userSpaceOnUse" x1="-538.132" y1="457.509" x2="-537.976" y2="457.509" gradientTransform="scale(30.15 -30.15) rotate(78.248 22.426 552.804)"><stop offset="0" stop-color="#515050"/><stop offset="1" stop-color="#99999a"/></linearGradient><path class="st13" d="M46.7 461.6c-.1.5-.2 1.5 0 1.5.3.1.4.1.5.1.3.1.7-.5.9-1.3.2-.8 0-1.5-.3-1.6-.2 0-.3-.1-.5-.1-.2-.1-.5.9-.6 1.4z"/><linearGradient id="SVGID_9_" gradientUnits="userSpaceOnUse" x1="-538.442" y1="457.411" x2="-538.286" y2="457.411" gradientTransform="scale(30.15 -30.15) rotate(78.248 22.171 552.973)"><stop offset="0" stop-color="#515050"/><stop offset="1" stop-color="#99999a"/></linearGradient><path class="st14" d="M46.2 461.4c-.1.5-.2 1.5 0 1.5s.4.1.5.1c.3.1.7-.5.9-1.3s0-1.5-.3-1.6c-.2 0-.3-.1-.5-.1s-.5 1-.6 1.4z"/><linearGradient id="SVGID_10_" gradientUnits="userSpaceOnUse" x1="-538.132" y1="457.318" x2="-537.976" y2="457.318" gradientTransform="scale(30.15 -30.15) rotate(78.248 22.285 552.69)"><stop offset="0" stop-color="#515050"/><stop offset="1" stop-color="#99999a"/></linearGradient><path class="st15" d="M45.6 461.3c-.1.5-.2 1.5 0 1.5.3.1.4.1.5.1.3.1.7-.5.9-1.3.2-.8 0-1.5-.3-1.6-.2 0-.3-.1-.5-.1-.1 0-.5 1-.6 1.4z"/><linearGradient id="SVGID_11_" gradientUnits="userSpaceOnUse" x1="-522.453" y1="1132.838" x2="-522.298" y2="1132.838" gradientTransform="scale(-28.958 28.958) rotate(78.248 424.618 894.51)"><stop offset="0" stop-color="#515050"/><stop offset="1" stop-color="#99999a"/></linearGradient><path class="st16" d="M45.4 461.3c-.2.8 0 1.5.3 1.6s.7-.5.9-1.3c.2-.8 0-1.5-.3-1.6-.3-.1-.7.5-.9 1.3z"/><linearGradient id="SVGID_12_" gradientUnits="userSpaceOnUse" x1="-538.132" y1="455.724" x2="-537.976" y2="455.724" gradientTransform="scale(30.15 -30.15) rotate(78.248 21.126 551.747)"><stop offset="0" stop-color="#515050"/><stop offset="1" stop-color="#99999a"/></linearGradient><path class="st17" d="M37 459.5c-.1.5-.2 1.5 0 1.5.3.1.4.1.5.1.3.1.7-.5.9-1.3s0-1.5-.3-1.6c-.2 0-.3-.1-.5-.1s-.5 1-.6 1.4z"/><linearGradient id="SVGID_13_" gradientUnits="userSpaceOnUse" x1="-538.442" y1="455.628" x2="-538.286" y2="455.628" gradientTransform="scale(30.15 -30.15) rotate(78.248 20.871 551.915)"><stop offset="0" stop-color="#515050"/><stop offset="1" stop-color="#99999a"/></linearGradient><path class="st18" d="M36.4 459.4c-.1.5-.2 1.5 0 1.5.3.1.4.1.5.1.3.1.7-.5.9-1.3s0-1.5-.3-1.6c-.2 0-.3-.1-.5-.1-.1 0-.5 1-.6 1.4z"/><linearGradient id="SVGID_14_" gradientUnits="userSpaceOnUse" x1="-538.132" y1="455.531" x2="-537.976" y2="455.531" gradientTransform="scale(30.15 -30.15) rotate(78.248 20.985 551.632)"><stop offset="0" stop-color="#515050"/><stop offset="1" stop-color="#99999a"/></linearGradient><path class="st19" d="M35.9 459.3c-.1.5-.2 1.5 0 1.5.3.1.4.1.5.1.3.1.7-.5.9-1.3.2-.8 0-1.5-.3-1.6-.2 0-.3-.1-.5-.1s-.5 1-.6 1.4z"/><linearGradient id="SVGID_15_" gradientUnits="userSpaceOnUse" x1="-522.453" y1="1134.694" x2="-522.298" y2="1134.694" gradientTransform="scale(-28.958 28.958) rotate(78.248 425.971 895.61)"><stop offset="0" stop-color="#515050"/><stop offset="1" stop-color="#99999a"/></linearGradient><path class="st20" d="M35.6 459.3c-.2.8 0 1.5.3 1.6s.7-.5.9-1.3c.2-.8 0-1.5-.3-1.6-.3-.2-.7.4-.9 1.3z"/><linearGradient id="SVGID_16_" gradientUnits="userSpaceOnUse" x1="-523.561" y1="1126.904" x2="-523.404" y2="1126.904" gradientTransform="scale(-33.904 33.904) rotate(78.248 421.997 891.222)"><stop offset="0" stop-color="#515050"/><stop offset="1" stop-color="#99999a"/></linearGradient><path class="st21" d="M47 460.1l-4.8.2.6-3 4.3 1.9-.1.9z"/><linearGradient id="SVGID_17_" gradientUnits="userSpaceOnUse" x1="-527.515" y1="514.584" x2="-527.359" y2="514.584" gradientTransform="scale(-75.73 75.73) rotate(78.248 48.595 584.222)"><stop offset="0"/><stop offset="1" stop-color="#484848"/></linearGradient><path class="st22" d="M44.2 458.6l-4-.8 1.3-6.3 4 .9-1.3 6.2z"/><linearGradient id="SVGID_18_" gradientUnits="userSpaceOnUse" x1="-523.649" y1="529.937" x2="-523.493" y2="529.937" gradientTransform="scale(-39.288 39.288) rotate(78.248 56.34 591.91)"><stop offset="0"/><stop offset="1" stop-color="#484848"/></linearGradient><path class="st23" d="M45.5 455.7l-5.4-1.1.7-3.2 5.4 1.1-.7 3.2z"/><linearGradient id="SVGID_19_" gradientUnits="userSpaceOnUse" x1="-523.506" y1="1046.154" x2="-523.35" y2="1046.154" gradientTransform="rotate(101.75 4570.608 21557.528) scale(28.957)"><stop offset="0"/><stop offset="1" stop-color="#484848"/></linearGradient><path class="st24" d="M31.9 457.7l10.3 2.1.5-2.5-10.6-.5-.2.9z"/><linearGradient id="SVGID_20_" gradientUnits="userSpaceOnUse" x1="-523.506" y1="543.228" x2="-523.35" y2="543.228" gradientTransform="scale(-28.954 28.954) rotate(78.248 61.854 600.725)"><stop offset="0"/><stop offset="1" stop-color="#484848"/></linearGradient><circle class="st25" cx="31.6" cy="459.2" r="1.5"/><linearGradient id="SVGID_21_" gradientUnits="userSpaceOnUse" x1="-523.506" y1="1132.604" x2="-523.35" y2="1132.604" gradientTransform="scale(-28.956 28.956) rotate(78.248 423.825 895.14)"><stop offset="0"/><stop offset="1" stop-color="#484848"/></linearGradient><path class="st26" d="M52.5 462l-10.3-2.2.5-2.5 10 3.8-.2.9z"/><linearGradient id="SVGID_22_" gradientUnits="userSpaceOnUse" x1="-523.506" y1="1131.623" x2="-523.35" y2="1131.623" gradientTransform="scale(-28.954 28.954) rotate(78.247 423.117 894.566)"><stop offset="0"/><stop offset="1" stop-color="#484848"/></linearGradient><circle class="st27" cx="52.2" cy="463.5" r="1.5"/><linearGradient id="SVGID_23_" gradientUnits="userSpaceOnUse" x1="-508.958" y1="620.519" x2="-508.802" y2="620.519" gradientTransform="scale(-10.27 10.27) rotate(78.248 97.377 643.156)"><stop offset="0"/><stop offset="1" stop-color="#484848"/></linearGradient><path class="st28" d="M40.5 460l.8.2.2-.9-.8-.2-.2.9z"/><linearGradient id="SVGID_24_" gradientUnits="userSpaceOnUse" x1="-523.57" y1="1053.402" x2="-523.414" y2="1053.402" gradientTransform="rotate(101.752 5484.25 25321.404) scale(33.903)"><stop offset="0"/><stop offset="1" stop-color="#484848"/></linearGradient><path class="st29" d="M41.3 460.2l.9.2.6-3-1.3 1.9-.2.9z"/><linearGradient id="SVGID_25_" gradientUnits="userSpaceOnUse" x1="-520.26" y1="1037.227" x2="-520.104" y2="1037.227" gradientTransform="rotate(101.751 3656.772 17501.507) scale(23.632)"><stop offset="0"/><stop offset="1" stop-color="#484848"/></linearGradient><path class="st30" d="M40.7 459.1l.8.2 1.3-1.9-.8-.2-1.3 1.9z"/><linearGradient id="SVGID_26_" gradientUnits="userSpaceOnUse" x1="-538.751" y1="449.905" x2="-538.595" y2="449.905" gradientTransform="scale(26.244 -26.244) rotate(78.248 18.83 548.185)"><stop offset="0"/><stop offset="1" stop-color="#484848"/></linearGradient><path class="st31" d="M40.5 461.5c-.1.5-.3 1.5-.6 1.4-.3-.1-.7-.1-.8-.2-.2-.1-.3-.7-.1-1.6.2-.8.5-1.4.8-1.4.1 0 .6.1.8.2.2.2 0 1.3-.1 1.6z"/><linearGradient id="SVGID_27_" gradientUnits="userSpaceOnUse" x1="-536.452" y1="1123.572" x2="-536.295" y2="1123.572" gradientTransform="matrix(7.718 -37.1 37.1 7.718 -37504.34 -28109.176)"><stop offset="0"/><stop offset="1" stop-color="#484848"/></linearGradient><path class="st32" d="M41.3 461.7c-.1.5-.3 1.5-.6 1.4s-.7-.1-.8-.2c-.2-.1-.3-.7-.1-1.6.2-.8.5-1.4.8-1.4.1 0 .6.1.8.2s0 1.3-.1 1.6z"/><linearGradient id="SVGID_28_" gradientUnits="userSpaceOnUse" x1="-538.751" y1="450.248" x2="-538.595" y2="450.248" gradientTransform="scale(26.244 -26.244) rotate(78.248 19.08 548.387)"><stop offset="0"/><stop offset="1" stop-color="#484848"/></linearGradient><path class="st33" d="M42.1 461.9c-.1.5-.3 1.5-.6 1.4-.3-.1-.7-.1-.8-.2-.2-.1-.3-.7-.1-1.6.2-.8.5-1.4.8-1.4.1 0 .6.1.8.2.2.1 0 1.3-.1 1.6z"/><linearGradient id="SVGID_29_" gradientUnits="userSpaceOnUse" x1="-523.603" y1="1047.153" x2="-523.447" y2="1047.153" gradientTransform="rotate(101.75 4582.801 21576.065) scale(28.957)"><stop offset="0"/><stop offset="1" stop-color="#484848"/></linearGradient><path class="st34" d="M42.3 461.9c-.2.8-.5 1.4-.8 1.4-.2-.1-.3-.7-.1-1.6.2-.8.5-1.4.8-1.4.2.1.3.8.1 1.6z"/><linearGradient id="SVGID_30_" gradientUnits="userSpaceOnUse" x1="-530.673" y1="1121.272" x2="-530.516" y2="1121.272" gradientTransform="matrix(14.427 -40.374 37.157 20.204 -33960.309 -43642.918)"><stop offset="0" stop-color="#fff"/><stop offset="1" stop-color="#d3d3d3"/></linearGradient><path class="st35" d="M43.5 425c-1.4 1.9-6.3 13.6-1.8 16.2s12.2-7.1 14.5-9.1c2.2-2-11.2-9.2-12.7-7.1z"/><linearGradient id="SVGID_31_" gradientUnits="userSpaceOnUse" x1="-534.607" y1="486.421" x2="-534.451" y2="486.421" gradientTransform="scale(108.934 -108.934) rotate(83.217 9.041 542.313)"><stop offset="0"/><stop offset="1" stop-color="#484848"/></linearGradient><path class="st36" d="M48.7 445.3s1.6 6.4-2.7 5.5-16.8-3.5-19.8-4.1-2.3-6.6 1.7-5.7c4 .8 20.8 4.3 20.8 4.3z"/><linearGradient id="SVGID_32_" gradientUnits="userSpaceOnUse" x1="-523.423" y1="496.362" x2="-523.266" y2="496.362" gradientTransform="scale(182.92 -182.92) rotate(-11.752 -2684.861 -2296.49)"><stop offset="0"/><stop offset="1" stop-color="#484848"/></linearGradient><path class="st37" d="M35.3 442.5l-7-1.5-4.6-2.5c-4-.8-5.2 6.8-2.2 7.4l13.1 2.4c3 .8 4.7-4.9.7-5.8z"/><linearGradient id="SVGID_33_" gradientUnits="userSpaceOnUse" x1="-555.499" y1="1092.918" x2="-555.343" y2="1092.918" gradientTransform="scale(-310.554 310.554) rotate(11.194 5289.169 3400.647)"><stop offset="0"/><stop offset="1" stop-color="#484848"/></linearGradient><path class="st38" d="M73 437.6c-.6 2.6-5.4.4-13.9-3.8-2.8-1.4-5.5 1.9-3.3 3.6 13.1 10 26.6 11.8 24.3-7.2-2.4 3.2-5 5.9-7.1 7.4z"/><linearGradient id="SVGID_34_" gradientUnits="userSpaceOnUse" x1="-527.301" y1="509.4" x2="-527.145" y2="509.4" gradientTransform="scale(-117.154 117.154) rotate(75.99 59.985 593.756)"><stop offset="0"/><stop offset="1" stop-color="#484848"/></linearGradient><path class="st39" d="M44.2 425.7c-4.6-4.4-6.1-7-6.3-8.8.1-2.9.8-6.3 2.8-10.4-13.4 1-12 12.9 1.3 22.2 2.3 1.7 4.5-.8 2.2-3z"/><linearGradient id="SVGID_35_" gradientUnits="userSpaceOnUse" x1="-526.627" y1="1092.844" x2="-526.471" y2="1092.844" gradientTransform="matrix(123.536 217.637 267.337 -103.8 -227062.625 228471.703)"><stop offset="0"/><stop offset="1" stop-color="#484848"/></linearGradient><path class="st40" d="M43.6 427.6c-.4 1.1-3.3 9.6-2.8 11.1 3.4-1.7 14.7-7.4 15.4-7.7.6-.3 2.3 2 2.9 2.7.6.7-7.7 7.9-8.5 10.5-.7 2.4-.5 5.8-.5 5.8l-14.9-7.9s2.6-4.2 3-5.1c-.8-.8-1.5-3.5-1-5.1.6-1.9 3.3-3.5 5.3-5 1.4-1 1.8-1 1.1.7z"/><linearGradient id="SVGID_36_" gradientUnits="userSpaceOnUse" x1="-530.655" y1="1154.502" x2="-530.499" y2="1154.502" gradientTransform="rotate(-60.44 -25322.618 2666.545) scale(20.47)"><stop offset="0" stop-color="#ffdfb2"/><stop offset="1" stop-color="#efa05e"/></linearGradient><path class="st41" d="M50.4 426.7s-2-1.1-4.2-2.3c-2.4 4.4-1.6 6.7-1.6 6.7s7.7 2.3 10.1-2.1c-2.3-1.2-4.3-2.3-4.3-2.3z"/><ellipse class="st42" cx="45.1" cy="429.5" rx=".8" ry=".8"/><ellipse class="st42" cx="46.5" cy="430.9" rx=".8" ry=".8"/><linearGradient id="SVGID_37_" gradientUnits="userSpaceOnUse" x1="-528.17" y1="674.328" x2="-528.014" y2="674.328" gradientTransform="scale(-7.56 7.56) rotate(61.473 252.286 804.595)"><stop offset="0" stop-color="#fff"/><stop offset="1" stop-color="#efe9da"/></linearGradient><circle class="st43" cx="44.9" cy="429.1" r=".8"/><linearGradient id="SVGID_38_" gradientUnits="userSpaceOnUse" x1="-528.494" y1="915.46" x2="-528.338" y2="915.46" gradientTransform="rotate(118.52 -44.447 4877.44) scale(7.56)"><stop offset="0" stop-color="#fff"/><stop offset="1" stop-color="#efe9da"/></linearGradient><circle class="st44" cx="46.4" cy="430.4" r=".8"/><linearGradient id="SVGID_39_" gradientUnits="userSpaceOnUse" x1="-528.372" y1="916.956" x2="-528.216" y2="916.956" gradientTransform="matrix(-3.61 6.643 -6.643 -3.61 4232.43 7251.092)"><stop offset="0" stop-color="#fff"/><stop offset="1" stop-color="#efe9da"/></linearGradient><circle class="st45" cx="48.3" cy="431.3" r=".8"/><path class="st46" d="M44.8 431.1c1.6.9 8.8-.9 10.9-2.8.7.2 1.7 2.7 1.8 3 .1.3-3.7 5.1-4.4 6.9-.1-2-1.4-6.2-1.9-6.5-.4-.2-6.2 1.2-7.3.4-1-.8-1.1-4.8-1.6-5.1-.5-.3-4 1.1-4.9 1.3.9-.7 7-4.6 7.9-4.1s1.4.5 1.4.5-2.9 5.9-1.9 6.4z"/><linearGradient id="SVGID_40_" gradientUnits="userSpaceOnUse" x1="-532.278" y1="518.935" x2="-532.122" y2="518.935" gradientTransform="scale(-62.4 62.4) rotate(54.27 233.116 781.27)"><stop offset="0" stop-color="#ffdfb2"/><stop offset="1" stop-color="#fbc38f"/></linearGradient><path class="st47" d="M76.1 423.3c3.5-4.7 5.6-9.2 2.5-15.5-5.2-10.5-13.6-15.4-19.6-14.2-5.8 1.1-8.8 3.8-12.2 8.6-3.7 5.2-5.5 9.3-5.6 12-.1 4.3 1.6 10.6 6.2 13.7 7.7 4.9 10.9 4.2 16.8 3.7 4.5-.5 8.2-3.2 11.9-8.3z"/><path class="st48" d="M73.8 422c-7.8.4 1.9-14.5-2.1-17.8-4 2.1-12.1 3.4-18.9 0 4.1 1.1 10.6.5 12.6-1.4-3.9.2-13.9.4-17.5-2.3 8.1-10.9 17.8-15.1 31.2-3.2 13.3 11.9 3.2 22.1-.7 26.1-.5-.7-1.2-1.6-4.6-1.4z"/><path class="st49" d="M64.3 406.5c1.9.3 4.5 2.1 5.4 3.3-.7-1.9-3.3-4-5.4-3.3zm-5.5-3.4c-.5-1.8-2.7-4.1-4-4.9 1.9.5 4.4 2.8 4 4.9z"/><linearGradient id="SVGID_41_" gradientUnits="userSpaceOnUse" x1="-507.271" y1="517.367" x2="-507.115" y2="517.367" gradientTransform="scale(39.556 -39.556) rotate(-72.88 -610.344 -91.475)"><stop offset="0" stop-color="#ffdfb2"/><stop offset="1" stop-color="#fbc38f"/></linearGradient><path class="st50" d="M75.8 421.1l-6.6 8.1c1.8 1.9 5.4 4.2 8.6.3 3.2-3.9.5-7.2-2-8.4z"/><linearGradient id="SVGID_42_" gradientUnits="userSpaceOnUse" x1="-597.485" y1="488.669" x2="-597.329" y2="488.669" gradientTransform="scale(-17.742 17.742) rotate(-41.482 -914.239 -526.824)"><stop offset="0" stop-color="#e5b274"/><stop offset="1" stop-color="#fbc38f"/></linearGradient><path class="st51" d="M75 422.9l-4.2 5.1c1.1 1.2 3.4 2.6 5.4.2 2.1-2.4.4-4.5-1.2-5.3z"/><linearGradient id="SVGID_43_" gradientUnits="userSpaceOnUse" x1="-530.401" y1="502.234" x2="-530.246" y2="502.234" gradientTransform="scale(-308.868 308.868) rotate(57.517 191.084 734.756)"><stop offset="0" stop-color="#7e3d1b"/><stop offset="1" stop-color="#3f160a"/></linearGradient><path class="st52" d="M73.8 422c-5.5.4 2.7-15.7-1.3-19-4 2.1-12.5 3.6-19.3.2 4.1 1.1 10.6.5 12.6-1.4-3.9.2-14.9-.3-18.4-3 9.1-9.9 18.7-13.3 31.5-3.8 14.3 10.7 5.3 24.2-.3 28.5-.6-.7-1.4-1.7-4.8-1.5z"/><linearGradient id="SVGID_44_" gradientUnits="userSpaceOnUse" x1="-523.125" y1="1080.316" x2="-522.969" y2="1080.316" gradientTransform="rotate(90.37 26627.664 78151.334) scale(97.38)"><stop offset="0" stop-color="#8b4920"/><stop offset="1" stop-color="#5c270c"/></linearGradient><path class="st53" d="M87.5 410.3c-.2.2-.5.4-.9.5-.2.1-.5.1-.7.2-3.1.4-9.4-1.8-12.3-3.6-.2 3.7-1.8 8.7-1.8 11.8 1.8 1.6 5.1 2.7 7.7 3h.3c1.5.1 3.4 0 5-.3 1.7-3.7 2.7-7.7 2.7-11.6z"/><linearGradient id="SVGID_45_" gradientUnits="userSpaceOnUse" x1="-533.799" y1="1078.189" x2="-533.643" y2="1078.189" gradientTransform="rotate(141.966 -8832.349 68666.608) scale(108.478)"><stop offset="0" stop-color="#8b4920"/><stop offset="1" stop-color="#602b0e"/></linearGradient><path class="st54" d="M65.4 388.9c-6.4-.2-12.5 2.4-17.5 7.2.2 1.1 1.2 2.9 2.4 4.1 4.2 1.3 10.4 1.6 14 1.6-2-3.2-1.1-10.2 1.1-12.9z"/><path class="st55" d="M49.1 417.9c-.2-.3 1.7-.5 2.3-.2s.6.8.6.8.7-.2 1.2 0c.7.3 3.5 2.9 4.7 3.8-1.2 1.7-4.5 6.3-8.8 3.9-3.1-1.6-.1-8.2 0-8.3z"/><path class="st56" d="M49.1 417.9c1.5.7 6.8 3.8 8.8 4.5-1.6.6-4.4 3.7-7.9 2-2.6-1.3-1.3-5.8-.9-6.5z"/><path class="st46" d="M51.5 420.7c1.5.7 3.6 1.7 5.6 1.4-1.9-.8-5.1-2.6-7-3.6-.1.8 0 1.4 1.4 2.2z"/><path class="st57" d="M50.9 425c-.8-.2-1-.3-1.1-.2 0 .1.2.3 1 .5s1.3.2 1.3.1-.4-.2-1.2-.4z"/><ellipse transform="rotate(-144.2 64.537 423.602)" class="st58" cx="64.5" cy="423.6" rx="3.1" ry="2.1"/><ellipse transform="rotate(-144.204 44.647 409.873)" class="st58" cx="44.6" cy="409.9" rx="1.6" ry="1.5"/><path class="st49" d="M65.6 416.9c.5.4.7.7 1.1.8-.6.2-1.2 0-1.5-.4-.3-.3 0-.7.4-.4z"/><linearGradient id="SVGID_46_" gradientUnits="userSpaceOnUse" x1="-527.67" y1="1058.575" x2="-527.514" y2="1058.575" gradientTransform="scale(40.448 -40.448) rotate(50.64 866.539 1083.341)"><stop offset="0" stop-color="#ffdfb2"/><stop offset="1" stop-color="#7e1416"/></linearGradient><circle class="st59" cx="62.3" cy="415.6" r="3.6"/><ellipse class="st46" cx="62.3" cy="415.6" rx="3.2" ry="3.2"/><linearGradient id="SVGID_47_" gradientUnits="userSpaceOnUse" x1="-535.829" y1="1148.953" x2="-535.673" y2="1148.953" gradientTransform="scale(-21.905 21.905) rotate(50.64 924.856 1147.115)"><stop offset="0" stop-color="#5a2c0e"/><stop offset="1" stop-color="#2e160c"/></linearGradient><circle class="st60" cx="63" cy="415.5" r="1.9"/><linearGradient id="SVGID_48_" gradientUnits="userSpaceOnUse" x1="-537.377" y1="1166.76" x2="-537.221" y2="1166.76" gradientTransform="scale(-16.797 16.797) rotate(50.64 936.368 1159.605)"><stop offset="0" stop-color="#955924"/><stop offset="1" stop-color="#5c2c0f"/></linearGradient><circle class="st61" cx="63.1" cy="415.5" r="1.4"/><ellipse class="st46" cx="63.4" cy="414.3" rx=".4" ry=".4"/><path class="st49" d="M49 404.6c-.5-.4-.8-.6-1-.9 0 .6.3 1.2.7 1.4.3.2.7-.2.3-.5z"/><linearGradient id="SVGID_49_" gradientUnits="userSpaceOnUse" x1="-527.537" y1="464.375" x2="-527.38" y2="464.375" gradientTransform="scale(40.448 -40.448) rotate(50.64 238.303 785.9)"><stop offset="0" stop-color="#ffdfb2"/><stop offset="1" stop-color="#7e1416"/></linearGradient><circle class="st62" cx="50.9" cy="407.6" r="3.6"/><ellipse class="st46" cx="50.9" cy="407.6" rx="3.2" ry="3.2"/><linearGradient id="SVGID_50_" gradientUnits="userSpaceOnUse" x1="-536.086" y1="1152.374" x2="-535.93" y2="1152.374" gradientTransform="scale(-21.904 21.904) rotate(50.64 928.981 1149.455)"><stop offset="0" stop-color="#5a2c0e"/><stop offset="1" stop-color="#2e160c"/></linearGradient><circle class="st63" cx="51.7" cy="407.5" r="1.9"/><linearGradient id="SVGID_51_" gradientUnits="userSpaceOnUse" x1="-537.71" y1="1171.205" x2="-537.554" y2="1171.205" gradientTransform="scale(-16.798 16.798) rotate(50.64 941.741 1162.655)"><stop offset="0" stop-color="#955924"/><stop offset="1" stop-color="#5c2c0f"/></linearGradient><circle class="st64" cx="51.7" cy="407.5" r="1.4"/><ellipse class="st46" cx="52.1" cy="406.4" rx=".4" ry=".4"/><path class="st65" d="M54.5 413.9c-1.4-1.5-3.2-1.9-4.4-1-1.2.9 0 2.4 1.2 3.5-2-2.6 1.5-4 3.2-2.5z"/><path class="st66" d="M51.4 416.4l3.1-2.5c-1.7-1.5-5.2-.1-3.1 2.5z"/><path class="st67" d="M1.1 440c0 .3-.3.6-.6.6h-4.4c-.3 0-.6-.3-.6-.6s.3-.6.6-.6H.5c.3 0 .6.2.6.6z"/><path class="st68" d="M-28 416.2H1.1l1.6 18h-29.1l-1.6-18z"/><path class="st69" d="M1.1 416.2l.5-.5 1.6 18-.5.5-1.6-18z"/><path class="st69" d="M-28 416.2l.8-.5H1.6l-.5.5H-28z"/><path class="st70" d="M-9.9 426.3H-17l-2.9 13.7h7.1l2.9-13.7z"/><path class="st71" d="M-9.9 426.3l.1.3-2.5 12.2h-.2l2.6-12.5z"/><path class="st67" d="M-23.9 438.8h15.5l-.4 1.9h-15.4l.3-1.9z"/><path class="st72" d="M-8.4 438.8l2.2 1.8-2.6.1.4-1.9z"/><path class="st70" d="M-37.7 440.5H64.1v39H-37.7v-39z"/><path class="st73" d="M-39.8 444H66.3c.9 0 1.5-.7 1.5-1.5v-.4c0-.9-.7-1.5-1.5-1.5H-39.8c-.9 0-1.5.7-1.5 1.5v.4c-.1.8.6 1.5 1.5 1.5z"/><path class="st0" d="M10.3 391c.1-1 .7-1.9 1-1.9s.9.9 1 1.9h-2z"/><path class="st1" d="M11.3 390.1c0 .1.1.1.1.2h-.2c.1-.1.1-.2.1-.2m0-1.7c-1 0-1.8 1.5-1.8 3.3v.4H13v-.5c0-1.8-.7-3.2-1.7-3.2z"/><path class="st0" d="M6.2 402c0-6 2.4-10.3 5.1-10.3 2.7 0 5.1 4.3 5.1 10.3H6.2z"/><path class="st1" d="M11.3 392.3c1.9 0 4.1 3.8 4.3 8.8H7c.2-5.1 2.4-8.8 4.3-8.8m0-1.3c-3.2 0-5.8 5.1-5.8 11.3v.7h11.7v-.7c0-6.2-2.7-11.3-5.9-11.3z"/><path class="st2" d="M11.3 390.4v-33.2"/><path class="st74" d="M-145 479h320"/></svg>