<svg id="Layer_1" xmlns="http://www.w3.org/2000/svg" viewBox="0 0 320.3 185.9"><style>.st0{fill:#8bc540}.st1{fill:#cccbcb}.st2{fill:gray}.st3{fill:#90806e}.st4{fill:#4d4e4e}.st5{fill:#f2f2f2}.st6{fill:#a57c52}.st7{fill:#603a17}.st8{fill:#3bb44a}.st9{fill:url(#SVGID_1_)}.st10{fill:#e5e5e4}.st11{fill:#979797}.st12{fill:#c8e6c9}.st13,.st14{fill:#a0c0c8;stroke:#e5e5e4;stroke-width:2;stroke-miterlimit:10}.st14{fill:none;stroke:#f2f2f2;stroke-dasharray:5}.st15{fill:#eee}.st16{fill:#bdbdbd}.st17{fill:#fff}.st18{fill:#757575}.st19{fill:#bdbdbd;stroke:#c6bc9e;stroke-miterlimit:10}.st20{opacity:.5;fill:#616161}.st20,.st21,.st22{enable-background:new}.st21{opacity:.3;fill:#bcae8f}.st22{opacity:.57;fill:none;stroke:#fff;stroke-miterlimit:10}.st23{fill:#938d7c}.st24{fill:#424242}.st25{fill:#616161}.st26{fill:none;stroke:#fff6de;stroke-miterlimit:10}.st27{fill:#e0e0e0}.st28{fill:none;stroke:#c6bc9e;stroke-miterlimit:10}.st29{fill:#4a4a4a}.st30{fill:url(#SVGID_2_)}.st31{fill:url(#SVGID_3_)}.st32{fill:#bbc5cd}.st33{fill:#64b5f6}.st34{fill:#f2f7fa}.st35{fill:url(#SVGID_4_)}.st36{fill:#ffbd65}.st37{fill:url(#SVGID_5_)}.st38{fill:#ffc680}.st39{fill:#ffe0b3}.st40{fill:#212121}.st41{fill:url(#SVGID_6_)}.st42{fill:url(#SVGID_7_)}.st43{fill:url(#SVGID_8_)}.st44{fill:url(#SVGID_9_)}.st45{fill:none;stroke:#424242;stroke-linecap:round;stroke-linejoin:round}.st46{fill:#f4511e}.st47{fill:#d84315}.st48{fill:url(#SVGID_10_)}.st49{fill:url(#SVGID_11_)}.st50{fill:#eb9e4d}.st51{fill:url(#SVGID_12_)}.st52{fill:url(#SVGID_13_)}.st53{fill:url(#SVGID_14_)}.st54{fill:url(#SVGID_15_)}.st55{fill:url(#SVGID_16_)}.st56{fill:#ff9800}.st57{fill:#e0e4eb}.st58{fill:#333}.st59{fill:#f5d227}.st60{fill:#ffa726}.st61{opacity:.65}.st62{fill:#f70}.st63{fill:#af1d36}.st64{opacity:.4;fill:#fdb100;enable-background:new}.st65{fill:#ff9c06}.st66{opacity:.15}.st67,.st68{fill:#5e3206}.st68{opacity:.4;enable-background:new}.st69{fill:#e97000}.st70{fill:#805623}</style><path class="st0" d="M244.7 172.6H320c-10.9-6.9-22.5-11.6-42.3-11.6-14.8 0-36 5.8-39.1 11.6h6.1z"/><path class="st1" d="M193.3 179.3l60-78.5v78.5h-60z"/><path class="st2" d="M313.3 179.3l-60-78.5v78.5h60z"/><path class="st3" d="M131.2 175.3h186.6v7.5H131.2v-7.5z"/><path class="st1" d="M148.5 179.3l42.6-55.6v55.6h-42.6z"/><path class="st2" d="M233.6 179.3l-42.5-55.6v55.6h42.5z"/><path class="st4" d="M284.8 150.5l-.3 22.5h1.2v-22.5h-.9zm1.8 0h-.9V173h1.2l-.3-22.5z"/><ellipse transform="rotate(-34.785 280.71 143.398)" class="st4" cx="280.7" cy="143.4" rx=".7" ry="8.7"/><ellipse transform="rotate(-64.793 281.998 158.354)" class="st4" cx="282" cy="158.4" rx="8.6" ry=".7"/><ellipse transform="rotate(-4.795 294.2 149.8)" class="st4" cx="294.2" cy="149.8" rx="8.7" ry=".7"/><circle class="st4" cx="285.7" cy="150.5" r="1.2"/><path class="st4" d="M304.7 154.1l-.3 19.2h1.1v-19.2h-.8zm1.6 0h-.8v19.2h1l-.2-19.2z"/><path class="st4" d="M300.6 148.4c-2.4-3.4-4-6.2-3.8-6.4.3-.2 2.4 2.4 4.8 5.7 2.4 3.4 4 6.2 3.8 6.4-.3.2-2.4-2.4-4.8-5.7z"/><path class="st4" d="M302.8 161.1c-1.8 3.7-3.4 6.6-3.7 6.4-.3-.1.9-3.3 2.6-7 1.8-3.7 3.4-6.6 3.7-6.4.3.1-.9 3.3-2.6 7z"/><ellipse transform="rotate(-4.863 312.892 153.496)" class="st4" cx="312.9" cy="153.5" rx="7.5" ry=".6"/><ellipse class="st4" cx="305.5" cy="154.1" rx="1" ry="1"/><path class="st4" d="M266.8 147l-.3 26.6h1.4V147h-1.1zm2.1 0h-1v26.6h1.3l-.3-26.6z"/><path class="st4" d="M261.4 139.2c-3.2-4.6-5.4-8.6-5-8.9.4-.3 3.3 3.3 6.4 7.9 3.2 4.6 5.4 8.6 5 8.9-.4.2-3.3-3.3-6.4-7.9z"/><path class="st4" d="M264.2 156.6c-2.4 5.1-4.6 9.1-5 8.9-.4-.2 1.2-4.5 3.5-9.6 2.4-5.1 4.6-9.1 5-8.9.5.3-1.1 4.5-3.5 9.6z"/><ellipse transform="rotate(-4.726 277.8 146.2)" class="st4" cx="277.8" cy="146.2" rx="10" ry=".8"/><ellipse class="st4" cx="267.9" cy="147" rx="1.3" ry="1.4"/><path class="st0" d="M0 172.1h320v13.8H0v-13.8z"/><path class="st5" d="M59.5 79.5c-.4 0-.7 0-1.1.1-1-2.2-3.3-3.8-6-3.8-2.2 0-4.2 1.1-5.3 2.7-.4-.1-.7-.1-1.1-.1-2.8 0-5.1 2.2-5.1 4.8 0 2.3 1.6 4.1 3.8 4.7v.1h14.7c2.5 0 4.5-1.9 4.5-4.3.1-2.3-2-4.2-4.4-4.2zm105.8 14.2c-.2 0-.4 0-.5.1-.5-1.1-1.6-1.9-3-1.9-1.1 0-2.1.5-2.7 1.3-.2 0-.4-.1-.6-.1-1.4 0-2.5 1.1-2.5 2.4 0 1.1.8 2.1 1.9 2.3v.1h7.4c1.2 0 2.2-1 2.2-2.1 0-1.2-1-2.1-2.2-2.1z"/><path class="st6" d="M66.6 167.2h.5v4.9h-.5v-4.9z"/><path class="st7" d="M67.2 167.2h.5v4.9h-.5v-4.9z"/><path class="st0" d="M64.1 163.7c0 2.8 1.4 5.1 3 5.1v-10.1c-1.6 0-3 2.2-3 5z"/><path class="st8" d="M67.2 158.7v10.1c1.7 0 3-2.3 3-5.1s-1.4-5-3-5z"/><path class="st0" d="M9.4 172.1h113.1c-16.4-9.3-33.8-15.4-63.5-15.4-22.2 0-54.2 7.7-58.7 15.4h9.1z"/><path class="st6" d="M30.5 154h1.2v11.3h-1.2V154z"/><path class="st7" d="M31.7 154h1.2v11.3h-1.2V154z"/><path class="st0" d="M24.7 145.9c0 6.5 3.1 11.7 7 11.7v-23.4c-3.8 0-7 5.3-7 11.7z"/><path class="st8" d="M31.7 134.2v23.4c3.9 0 7-5.2 7-11.7 0-6.4-3.1-11.7-7-11.7z"/><path class="st6" d="M84 153.7h1.1v10.5H84v-10.5z"/><path class="st7" d="M85.2 153.7h1.1v10.5h-1.1v-10.5z"/><path class="st0" d="M78.7 146.2c0 6 2.9 10.9 6.5 10.9v-21.7c-3.6-.1-6.5 4.8-6.5 10.8z"/><path class="st8" d="M85.2 135.3V157c3.6 0 6.5-4.9 6.5-10.9 0-5.9-2.9-10.8-6.5-10.8z"/><path class="st6" d="M13.9 162.5h.6v6h-.6v-6z"/><path class="st7" d="M14.6 162.5h.6v6h-.6v-6z"/><path class="st0" d="M10.9 158.2c0 3.4 1.7 6.2 3.7 6.2v-12.3c-2.1 0-3.7 2.7-3.7 6.1z"/><path class="st8" d="M14.6 152.1v12.3c2 0 3.7-2.8 3.7-6.2s-1.7-6.1-3.7-6.1z"/><path class="st6" d="M215.3 165.9h.6v6h-.6v-6z"/><path class="st7" d="M215.9 165.9h.6v6h-.6v-6z"/><path class="st0" d="M212.2 161.7c0 3.4 1.7 6.2 3.7 6.2v-12.3c-2-.1-3.7 2.7-3.7 6.1z"/><path class="st8" d="M215.9 155.5v12.3c2 0 3.7-2.8 3.7-6.2 0-3.3-1.6-6.1-3.7-6.1z"/><path class="st6" d="M234.3 167.2h.5v4.9h-.5v-4.9z"/><path class="st7" d="M234.8 167.2h.5v4.9h-.5v-4.9z"/><path class="st0" d="M231.8 163.7c0 2.8 1.4 5.1 3 5.1v-10.1c-1.7 0-3 2.2-3 5z"/><path class="st8" d="M234.8 158.7v10.1c1.7 0 3-2.3 3-5.1s-1.3-5-3-5z"/><linearGradient id="SVGID_1_" gradientUnits="userSpaceOnUse" y1="-827.05" x2="320" y2="-827.05" gradientTransform="matrix(1 0 0 -1 0 -648)"><stop offset=".591" stop-color="#90806E"/><stop offset=".774" stop-color="#878078"/><stop offset="1" stop-color="gray"/></linearGradient><path class="st9" d="M0 175.3h320v7.5H0v-7.5z"/><path class="st10" d="M243.5 117.7l-.7 54.4h3.2v-54.4h-2.5z"/><path class="st11" d="M248.3 117.7H246v54.4h2.9l-.6-54.4z"/><path class="st12" d="M248.8 156.3h-5.7l-.3 15.8h6.1l-.1-15.8zm-5.7-5.1h5.6v3h-5.6v-3z"/><path class="st4" d="M231.7 101.7c-6.9-9.5-11.9-17.6-11.1-18.1.8-.5 7.1 6.7 14.1 16.2 6.9 9.5 11.9 17.6 11.1 18.1-.9.5-7.2-6.8-14.1-16.2z"/><path class="st4" d="M238 137.5c-5.2 10.4-10.1 18.6-11 18.2-.9-.4 2.5-9.2 7.7-19.6s10.1-18.6 11-18.2c.9.3-2.5 9.1-7.7 19.6z"/><path class="st4" d="M267.5 114.4c12.1-1 22-1 22.1 0s-9.7 2.5-21.8 3.5c-12.1 1-22 1-22.1 0s9.7-2.6 21.8-3.5z"/><ellipse class="st13" cx="246" cy="117.7" rx="2.9" ry="2.8"/><path class="st14" d="M2.5 179H320"/><path class="st5" d="M282 77.6c-.4 0-.7 0-1.1.1-1-2.2-3.3-3.8-6-3.8-2.2 0-4.2 1.1-5.3 2.7-.4-.1-.7-.1-1.1-.1-2.8 0-5.1 2.2-5.1 4.8 0 2.3 1.6 4.1 3.8 4.7v.2H282c2.5 0 4.5-1.9 4.5-4.3s-2-4.3-4.5-4.3zm-30-4.9c-.2 0-.4 0-.5.1-.5-1.1-1.6-1.9-3-1.9-1.1 0-2.1.5-2.7 1.3-.2 0-.4-.1-.6-.1-1.4 0-2.5 1.1-2.5 2.4 0 1.1.8 2.1 1.9 2.3v.2h7.4c1.2 0 2.2-1 2.2-2.1.1-1.2-.9-2.2-2.2-2.2z"/><path class="st15" d="M80 149.5h37.1v22.6H80v-22.6z"/><path class="st16" d="M80.6 156.2c1-2.2 3.6-4.9 3.6-4.9H83c-.8.4-1.7 1.8-2.3 2.8v-1.8h.3v-1.1h-2.2v1.1h.4V167h.1v8.1h2.5v-7.7h.5v-.8h-1.6v-10.4h-.1z"/><path class="st17" d="M164.7 173H156l-.2-19.7h8.9V173z"/><path class="st18" d="M153.6 135.8l13.3 15.3-11.1-.4-.1-4.1-2.4-7 .3-3.8z"/><path class="st16" d="M156.2 165.7h9.1v1.2h-9.1v-1.2z"/><path class="st16" d="M162.9 152.9h1.8v13.2h-1.8v-13.2zm-6.7 17.8h8.6v2.3h-8.6v-2.3z"/><path class="st19" d="M155.9 150.7h11.2v1.3h-11.2v-1.3z"/><path class="st17" d="M57.7 132.9v2.1h7l1.7-2.1h-8.7z"/><path class="st15" d="M58.3 134.8v5.9l5.8-5.9h-5.8z"/><path class="st17" d="M134.8 116.2l-1.7.1-4.5-6.1.1-13.5h6.1v19.5z"/><path class="st15" d="M130.1 112.8v-11.3c0-.9.8-1.7 1.7-1.7s1.7.8 1.7 1.7l.2 15.4"/><path class="st16" d="M128.3 95.7h7.1v1h-7.1v-1z"/><path class="st17" d="M127.9 94.9h7.9v.9h-7.9v-.9z"/><path class="st15" d="M131 93.3h1.8v1.6H131v-1.6z"/><path class="st17" d="M107.4 149.6h7.5v22.5h-7.5v-22.5z"/><path class="st18" d="M48.9 149.7L87.2 112l14.9-.4-12.4 22.5.1 11.1-11.4 4.8-29.5-.3z"/><path class="st18" d="M66.7 120.7c-.4.5-11.6 10.4-11.2 10.3.4-.1 13.2-.2 13.2-.2l9.8-9.9-11.8-.2z"/><path class="st19" d="M55.4 130.8v1.1l11.3.1 1.3-1.3-12.6.1zm10.2 2.3l1-1.1H56v1.1h9.6z"/><path class="st20" d="M89.3 138.3l-10.9-17.5L49 149.7h.9l25.4.1 16.9-5.5-2.9-6z"/><path class="st17" d="M115.9 96.4L104 112.3l18.6 23.9 11.6-16.2-18.3-23.6z"/><path class="st15" d="M134.3 119.3l-14.1-17.5-4.2-5.5-11.7 15.7-.1.3 4.2 5.5 10.5-14 14 17.6 1.4-2.1z"/><path class="st17" d="M156.2 174.7h-40.5v-25.9l19.9-28.3 20.3 27.2.3 27z"/><path class="st16" d="M116.2 95.7l17.8 23.7.8-1L116 93.5l-12.2 16.8 2 2.5-.9-1.2 11.3-15.9z"/><path class="st19" d="M133.3 120.4l.9-1.1-18.1-24.4-11.3 15.8.9 1.2L116 97.1l17.3 23.3z"/><path class="st17" d="M103.5 112.1l-14.4 19.5.2 13.8 26.5.2 6.3-8.6-18.6-24.9z"/><path class="st16" d="M48.4 149.8h30.4v1.1H48.4v-1.1z"/><path class="st19" d="M49.1 150.8h30.1v1.2H49.1v-1.2z"/><path class="st21" d="M75.3 149.8s.6 2.4.7 2.4 3.5.1 3.5.1l.1-2.5h-4.3z"/><path class="st18" d="M117.3 122.3v-7.8s1.8-1.3 2.8-1.3v9.1h-2.8zm6.3 0v-7.8s-1.8-1.3-2.8-1.3v9.1h2.8z"/><path class="st22" d="M113.9 122.7h1.4l-.1-8.2c-3.7-3.1-6.7.2-6.7.2l.1 1.1 5.3 6.9zm-6.3-10.1s4.2-3.3 7.4-.2l.1-9.5-7.5 9.7zm17.2 0s-4.2-3.3-7.4-.2l-.1-9.5 7.5 9.7zm.8 9.6l-.2-8 6.6 8h-6.4zm-8.5 4.7v-2.5l6.5-.1v9.6l-.6 1-5.9-8zm8.4 4.2l-.1-6.9 5.1.1-5 6.8z"/><path class="st18" d="M133.1 116.3l13.1-.1 10.5 11.3-12.4-.2-8.3-10.5-1.2 1.6-1.7-2.1z"/><path class="st17" d="M52.1 152.4v22.3l27.2-.2v-22.2l-27.2.1z"/><path class="st16" d="M145.8 129.7l10.1-.1-.1-1-10.5.1.5 1z"/><path class="st17" d="M147.4 131.5h6.9l-.1-1.8-8.2.1 1.4 1.7z"/><path class="st15" d="M153.3 131.5l.2 8.2-6.1-8.2h5.9z"/><path class="st22" d="M148.2 132.7h4l.1 5.2"/><path class="st16" d="M157.6 153.3h3.8v1.9h-3.8v-1.9z"/><path class="st16" d="M158.1 155.1h2.7v11.2h-2.7v-11.2zm-106 17.7h27.1v2.3H52.1v-2.3z"/><path class="st23" d="M108.8 142.9v-10c0-1.8-2.2-3.4-5-3.2-2.5 0-4.5 1.4-4.5 3.2v10h9.5z"/><path class="st18" d="M100 131.6h3.2v9.8H100v-9.8zm4.6 0h3.2v9.8h-3.2v-9.8z"/><path class="st24" d="M96.7 130s1.7-.1 2.5.9v11.5h-2.5V130zm14.6.1s-1.7-.1-2.5.9v11.5h2.5v-12.4z"/><path class="st17" d="M107.9 135.5h-3.3v-3.9h-1.4v3.9H100v.6h3.2v6h1.4v-6h3.3v-.6z"/><path class="st15" d="M103.7 151.9h.6v18.3h-.6v-18.3z"/><path class="st25" d="M75.9 148.8c.2-.1 13.3-3.6 13.3-3.6l25.7-.1.9.1-2.8 3.7-37.1-.1z"/><ellipse class="st18" cx="88.1" cy="158.3" rx="2.3" ry="2.4"/><path class="st16" d="M122.8 135.8l.9-1.1-20.5-26.7-21 29.5h1.9l19.3-27.3 19.4 25.6z"/><path class="st19" d="M122 137.2l.9-1.4-19.3-25.7L84 137.3h1.7l18.1-24 18.2 23.9z"/><path class="st15" d="M89.1 132.9l.1 2.9 15.9-20.8-1.4-1.7-14.6 19.6z"/><path class="st20" d="M85.7 137.7l3.5 7.5-.1-12.3-3.4 4.8z"/><path class="st15" d="M103.8 115.9l16.6 22.4 1-1.6-17.3-22.8-.3 2z"/><path class="st18" d="M130.9 165.7v-18.8c0-2.7 2.2-4.8 4.8-4.8 3.1-.2 5.7 2.1 5.7 4.7l-.3 18.7v.2c-2 0-7.3.1-10.2 0-.1.1 0 0 0 0z"/><path class="st26" d="M132.8 165.7l.2-16.7c0-2.7 1.3-4.4 3-4.5h-.1c2.7-.2 3.3 1.8 3.3 4.4v16.6c0 .1 0 0 0 0"/><path class="st18" d="M124.4 147.7h5v17.9h-5v-17.9z"/><path class="st16" d="M124.4 152.2h5v.6h-5v-.6zm0 1h5v.6h-5v-.6z"/><path class="st16" d="M126.7 147.7h.5V158h-.5v-10.3z"/><path class="st16" d="M124.4 157.7h5v.6h-5v-.6zm0-1.1h5v.6h-5v-.6z"/><path class="st18" d="M142.7 147.7h5v17.9h-5v-17.9z"/><path class="st16" d="M142.7 152.2h5v.6h-5v-.6zm0 1h5v.6h-5v-.6z"/><path class="st16" d="M144.9 147.7h.5V158h-.5v-10.3z"/><path class="st16" d="M142.7 157.7h5v.6h-5v-.6zm0-1.1h5v.6h-5v-.6zm-11.9-4.5h10.4v1.2h-10.4v-1.2zm-7.8 14.2h26v1.1h-26v-1.1z"/><path class="st26" d="M136 142.1v2.6m4.8.1l-2.2 1.2m2.8 3h-2.2m-7.9-4.2l2.3 1.3m-2.7 3h2.2"/><path class="st19" d="M145.3 128.7c.2 0 11.8-.2 11.8-.2l-.1-1.1-12.8-.1 1.1 1.4z"/><path class="st24" d="M89.2 145.2l23.8 3.3 2.5-3.3H89.2z"/><path class="st16" d="M52 152.1h26.9v2.1H52v-2.1z"/><path class="st27" d="M161.9 153.3h1.1v12.5h-1.1v-12.5z"/><path class="st16" d="M90.6 156.8c.5-2.2 3.9-5.8 3.9-5.8h-1.2c-.9.5-2.1 2.4-2.6 3.3v-2.1h.4v-1.1h-2.2v1.1h.4v2.2c-.5-.9-1.7-2.9-2.7-3.4h-1.2s3.4 3.7 3.9 5.9v9.6h-.9v.8h.3v5H91v-5h.6v-.8h-1v-9.7z"/><path class="st27" d="M158.1 155.1h2.7v.7h-2.7v-.7z"/><path class="st15" d="M155.8 145.9l-15.5-19.2.1-.1-4.2-5.4-11.8 15.7-9.4 14.2-.1 9.1 24.2-31.6 16.8 21.1-.1-3.8z"/><path class="st24" d="M96.5 169.1l.1-15.4s6.5-3.6 14.3.3v16.2l-14.3-.2-.1-.9z"/><path class="st18" d="M98 154.8h4.4v11.5H98v-11.5zm7.3 0h4.4v11.5h-4.4v-11.5z"/><path class="st24" d="M108.9 161.1v-2.3h1.2v-.3h-1.2v-2.3h1.2v-.3h-1.2v-1.2h-.4v1.2h-2.2v-1.2h-.3v1.2h-.9v.3h.9v2.3h-.9v.4h.9v2.3h-.9l-.1.6h5v-.6l-1.1-.1zm-.3 0h-2.2v-2.3h2.2v2.3zm0-2.7h-2.2v-2.3h2.2v2.3zm-6.9 2.7v-2.3h1.2v-.3h-1.2v-2.3h1.2v-.3h-1.2v-1.2h-.4v1.2h-2.2v-1.2h-.3v1.2h-.9v.3h.9v2.3h-.9v.4h.9v2.3h-.9l-.1.6h5v-.6l-1.1-.1zm-.4 0h-2.2v-2.3h2.2v2.3zm0-2.6h-2.2v-2.3h2.2v2.3z"/><path class="st19" d="M56.9 173.9l.1-16.4s9.3-3.8 20.5.3v17.1l-20.6-.1v-.9z"/><path class="st15" d="M73.1 158.5h3.2v2.7h-3.2v-2.7zm-4.8 0h3.2v2.7h-3.2v-2.7zm-5 0h3.2v2.7h-3.2v-2.7zm-5 0h3.2v2.7h-3.2v-2.7z"/><path class="st19" d="M58.1 162.3h18.2v12.6H58.1v-12.6z"/><path class="st28" d="M58 164.3h18.2m-18.1 2.2h18.3m-18.3 2h18.3m-18.3 2.2h18.3m-18.3 1.7h18.2"/><path class="st16" d="M75.4 148.8h39.3v1.2H75.4v-1.2z"/><path class="st19" d="M78.7 150.1h34.8v1.3H78.7v-1.3z"/><path class="st16" d="M116.6 166.5h-.2l-.1-17.3-1.4 1.9v2.2c-.5-.8-1.1-1.8-1.8-2.1h-1.2s2 1.9 3 3.8v11.6h-1.5v.8h.3v7.6h2.6v-8.5h.3z"/><path class="st27" d="M155.9 152.1h11.5v1.3h-11.5v-1.3z"/><path class="st16" d="M116.7 172H156v2.3h-39.3V172zm-17.5-30.7h9.7v1.7h-9.7v-1.7z"/><path class="st19" d="M160.8 149.4L136 116.8l-24.5 34.4 2.1 2 22.6-32 22.3 30 2.3-1.8z"/><path class="st19" d="M159.7 150.1l-23.5-31-23.6 33.1 1 1 22.6-31.8 22.3 29.8 1.2-1.1z"/><path class="st16" d="M96 168h15.8v4.2H96V168z"/><path class="st29" d="M71.4 139.1c-.3.5-1.2.8-1.7 1-.4.1-1.8.3-2.5.4-.7 0-.9.8-.4 1s2.2.5 2.8.1c.7-.3 1.8-.6 2.1-.7.1.2 0 .4 0 .4s2-.2 2-.7c0-.4-.1-1.6-.1-1.6l-2.2.1z"/><path class="st24" d="M70.2 130.3c0 2.1.1 5.3.2 8.2h3.9c-.2-3.1-.5-6.1-.5-8.1 0-1.9-3.6-1.4-3.6-.1z"/><path class="st24" d="M70 137.9l.2 1.5 4.4-.1-.1-1.3-4.5-.1z"/><path class="st29" d="M79.6 139.1c.3.5 1.2.8 1.7 1 .4.1 1.8.3 2.5.4.7 0 .9.8.4 1s-2.2.5-2.8.1c-.7-.3-1.8-.6-2.1-.7-.1.2 0 .4 0 .4s-2-.2-2-.7c0-.4.1-1.6.1-1.6l2.2.1z"/><path class="st24" d="M80.7 130.5c0 2.1-.1 5.3-.2 8.2h-3.9c.2-3.1.5-6.1.5-8.1.1-2 3.6-1.4 3.6-.1z"/><path class="st24" d="M80.9 137.9l-.1 1.5-4.4-.1V138l4.5-.1zm-2.1-21.5c.7-1.2 7.2-16.7 8-18.6.7-1.6 12.4 6.8 11.8 7.2-3 2.1-17.2 13.2-18.8 14.1-1.7 1.1-1.6-1.5-1-2.7zm-11.5-.7c-2.4.8-8.6 4-8.6 7.4 0 3.9 3.9 5.5 7.2 6.2.2-1.1.5-3.2.7-4.3-1.2-.1-3.6-.5-3.6-1.7 0-1.3 3.1-3.1 4-3.5.2-1.3-.1-2.7.3-4.1z"/><linearGradient id="SVGID_2_" gradientUnits="userSpaceOnUse" x1="8391.557" y1="1219.101" x2="8404.993" y2="1218.258" gradientTransform="rotate(5.79 -8986.166 -82967.717)"><stop offset="0"/><stop offset="1" stop-color="#474747"/></linearGradient><path class="st30" d="M69 127.1c4-1.4 8.5-2.2 12.4.4-2.9-3.9-2.5-12.8-2.6-14s-11.8.4-11.4 3.9c.3 2.4 1.2 6 1.6 9.7z"/><linearGradient id="SVGID_3_" gradientUnits="userSpaceOnUse" x1="8413.419" y1="1212.585" x2="8409.273" y2="1221.495" gradientTransform="rotate(5.79 -8986.166 -82967.717)"><stop offset="0" stop-color="#FFF"/><stop offset="1" stop-color="#E5E8EB"/></linearGradient><path class="st31" d="M67.8 115.2l2.8-.5 9.4-.4c-1 7.6.1 9.1 1.1 12.8-1.5.1-10.2-.1-13.5 0-1.1-4-.3-7.5.2-11.9z"/><path class="st32" d="M77.1 117.1l-8-2.6-1.7 1.5s2.3 3.5 5.5 4.1c.1-.4.3-.8.3-.8l.7.3 1.5.1 2.2-2-.5-.6z"/><path class="st32" d="M74.5 115.1l1.8-.2 3.4-1.6c.2 1 .5 1.7.6 2.6-.7 1.5-1.4 3.1-3.2 4.2-.6-1.9-2.6-5-2.6-5z"/><path class="st33" d="M78.4 116.2l-6.7.7-.3.7s3.2 1.7 3.5 1.8c.3.1.9 0 1-.1.2-.2 2.9-2.4 2.9-2.4l-.4-.7z"/><path class="st34" d="M69 114.5c-.7-.1-1.5 1.2-1.5 1.2.8.9 2.2 2.7 4.9 3.6.6-1.6 2-4.2 2-4.2s-3.8-.4-5.4-.6zm10.1-1.2c.2-.1.6-.7.7.7.1 1-.7 3.4-2.3 4.8-.8-1.5-3-3.8-3-3.8s3.7-1.1 4.6-1.7z"/><path class="st24" d="M80.1 112.9c-.9 5.2 1.4 10.5 3.7 14.5-.9.8-1.9 1.4-3 1.9-4-5.8-1.6-9.8-1.4-16.8.5-.1.7.4.7.4z"/><path class="st25" d="M78.7 124.4c1.1-2.3 3-6.2 3-6.2l-1.3-1.2 1.3-.9-1.7-2.3-.9.1c.1-.1-1.3 6.5-.4 10.5z"/><path class="st18" d="M81 124.5c.1 0 .6-.4.9-.6l.3.6c-.4.3-.9.6-.9.6-.2-.2-.3-.6-.3-.6z"/><path class="st24" d="M81.1 127.1c0 1-.2 3-2 3.3-1.9.3-7.3.2-8.7 0-1.4-.2-2.2-1.4-2.7-3.3h13.4z"/><path class="st33" d="M74.3 119c-.5 3-.4 5.6 0 7.9.7.5 2.7 2.1 2.7 2.1l1.2-2.4c-1.3-2.4-2-4.6-2-7.6-.5-.2-1.5-.1-1.9 0z"/><path class="st24" d="M66.7 116c0 4.8.6 10.2-.2 14.2 1.3.3 2.9.4 4.1.6.3-1.2.5-3.3.6-4.4 1.1-6.5.2-9.9-.1-10.8-.2-.6-3 .2-4.4.4z"/><path class="st24" d="M66.9 126.4l.1-.8 3 .4-.1.8-3-.4z"/><path class="st18" d="M71.1 115.7c.4 1.1 1.3 4 .1 10.8-.7-3-1.4-4.8-2-5.9l1.9-1.2-1.9-.5s-.2-2.4.2-3.2c.2-.5 1.4-1.1 1.7 0z"/><linearGradient id="SVGID_4_" gradientUnits="userSpaceOnUse" x1="-8165.667" y1="381.052" x2="-8164.327" y2="380.778" gradientTransform="rotate(-169.03 -3902.423 -497.833)"><stop offset="0" stop-color="#FFE0B3"/><stop offset="1" stop-color="#FFCF95"/></linearGradient><path class="st35" d="M81 102.9v6.7c1.6.2 4.4-.2 4.3-3.4.1-3.2-2.6-3.8-4.3-3.3z"/><path class="st36" d="M80.7 104.4c.6-.5 2.4-.9 2.8.9s-1.5 2.1-2.2 2c-.1-.6-.6-2.9-.6-2.9z"/><linearGradient id="SVGID_5_" gradientUnits="userSpaceOnUse" x1="2035.714" y1="-2881.934" x2="2035.714" y2="-2888.13" gradientTransform="rotate(168.72 797.262 -2591.94)"><stop offset="0" stop-color="#FFE0B3"/><stop offset="1" stop-color="#FFCF95"/></linearGradient><path class="st37" d="M63.7 113c-4.4-9.1-2.5-16.6 6.4-19.1 4-1.1 10.3-3.5 12.4 4.8.5 1.9 1 4 1.4 7.1.4 2.8 0 6.3-.9 7.7-1.2 1.8-3.4 3.5-8.7 3.9-7.4.7-9.4-2-10.6-4.4z"/><path class="st38" d="M77.7 107.5c1.2-.5 2.3-.2 2.7.6.4.8-.6 1.3-1.6 1.6 1.8-1 .2-2.6-1.1-2.2z"/><path class="st39" d="M61.9 106.3l2.7 6c-1.4.9-5.1 2.2-6.5-.7-1.3-2.9 1.1-5.2 3.8-5.3z"/><path class="st36" d="M61.9 107.9c-1.1.3-2.9 1.1-2.2 2.8.8 1.7 3 .9 3.7.3-.5-1.2-1.5-3.1-1.5-3.1z"/><path class="st40" d="M60.1 95.8c1.8-2.6 5.8-3.5 9-4 2.3-.4 4.7-3.3 4.7-3.3s.1 1.1.1 2.5c1.8-1.5 3.9-4.1 3.9-4.1s.2 2.1-.3 3.9c1.2-1 2.4-1.8 3.2-3.6 1 2.8 1.2 4.6 1.4 5.6.4 1.9.6 4.8.5 6-.6-2-1.2-2.6-1.5-2.8-.2-.1-3.9 1-4.7 1.2-1 .2-10.2.8-11.7 2.4-.8.8-.1 3.7 0 4.8-1 .7-.8 2.8.6 5.8-.5.1-1.2.2-1.5.3-.2-.6-1.6-3.4-1.9-4-.6.1-1.2.2-2 .5-2.5-6.1-1.2-9.2.2-11.2z"/><linearGradient id="SVGID_6_" gradientUnits="userSpaceOnUse" x1="-55.521" y1="-394.003" x2="-55.521" y2="-390.304" gradientTransform="rotate(168.275 -130.863 -1249.252)"><stop offset="0" stop-color="#FFE0B3"/><stop offset="1" stop-color="#FFBD6D"/></linearGradient><path class="st41" d="M73.9 107.7c1.1-.2 1.9-1.3 1.6-2.5-.2-1.1-1.3-1.9-2.5-1.6-1.1.2-1.9 1.3-1.6 2.5.2 1.1 1.3 1.9 2.5 1.6z"/><ellipse transform="rotate(-11.735 73.393 105.688)" class="st17" cx="73.4" cy="105.7" rx="1.9" ry="1.9"/><linearGradient id="SVGID_7_" gradientUnits="userSpaceOnUse" x1="-55.013" y1="-390.892" x2="-55.013" y2="-392.895" gradientTransform="rotate(168.275 -130.863 -1249.252)"><stop offset="0" stop-color="#664000"/><stop offset="1" stop-color="#6B4000"/></linearGradient><path class="st42" d="M73.1 106.6c.6-.1 1-.7.9-1.3-.1-.6-.7-1-1.3-.9-.6.1-1 .7-.9 1.3.1.6.7 1 1.3.9z"/><ellipse transform="rotate(-11.735 72.493 104.888)" class="st17" cx="72.5" cy="104.9" rx=".2" ry=".2"/><linearGradient id="SVGID_8_" gradientUnits="userSpaceOnUse" x1="-62.521" y1="-394.214" x2="-62.521" y2="-390.514" gradientTransform="rotate(168.275 -130.863 -1249.252)"><stop offset="0" stop-color="#FFE0B3"/><stop offset="1" stop-color="#FFBD6D"/></linearGradient><path class="st43" d="M80.8 106.5c1.1-.2 1.9-1.3 1.6-2.5-.2-1.1-1.3-1.9-2.5-1.6-1.1.2-1.9 1.3-1.6 2.5.2 1.1 1.3 1.8 2.5 1.6z"/><ellipse transform="rotate(-11.735 80.293 104.488)" class="st17" cx="80.3" cy="104.5" rx="1.9" ry="1.9"/><linearGradient id="SVGID_9_" gradientUnits="userSpaceOnUse" x1="-62.033" y1="-391.103" x2="-62.033" y2="-393.105" gradientTransform="rotate(168.275 -130.863 -1249.252)"><stop offset="0" stop-color="#664000"/><stop offset="1" stop-color="#6B4000"/></linearGradient><path class="st44" d="M80 105.3c.6-.1 1-.7.9-1.3-.1-.6-.7-1-1.3-.9-.6.1-1 .7-.9 1.3.1.7.7 1.1 1.3.9z"/><ellipse transform="rotate(-11.735 79.396 103.693)" class="st17" cx="79.4" cy="103.7" rx=".2" ry=".2"/><path class="st45" d="M80.9 99.5c-.4-.6-1.7-.5-2.1.3m-7.8 1.8c.4-.7 2.3-1.3 3.2-.8"/><path class="st46" d="M78.7 110.4s-6.9.6-8.6.3c1.1 2.6 3.9 4 6 3.8 2.2-.3 2.4-2.8 2.6-4.1z"/><path class="st47" d="M71.8 113c3.1-.7 4.4.2 4.6 1.4-.1 0-.2 0-.3.1-1.3.1-3-.4-4.3-1.5z"/><path class="st17" d="M75.6 111.8c-1.7.3-3.6.3-4.7.3-.3-.4-.6-.9-.8-1.4 1.4.3 6.1-.1 7.9-.2 0 .5-.4 1-2.4 1.3z"/><linearGradient id="SVGID_10_" gradientUnits="userSpaceOnUse" x1="66.844" y1="-772.342" x2="66.649" y2="-777.897" gradientTransform="matrix(1 0 0 -1 0 -648)"><stop offset="0" stop-color="#FFE0B3"/><stop offset="1" stop-color="#FFAB63"/></linearGradient><path class="st48" d="M66.8 128c.6 0 1.3-.3 1.3-1 0-.3-.7-.3-1.3-.3.9-.2 1.7-.4 1.7-1 0-.5-1-.4-1.7-.5 1.3-.1 1.6-.6 1.4-1.1-.1-.4-1.6-.5-2.4 0-1 .7-.8 3.4-.4 4.3.2.4 1.1 1.2 1.2.5.2-.7.2-.4.2-.9z"/><linearGradient id="SVGID_11_" gradientUnits="userSpaceOnUse" x1="26.104" y1="-838.074" x2="26.104" y2="-850.309" gradientTransform="rotate(5.315 8092.048 1214)"><stop offset="0" stop-color="#FFE0B3"/><stop offset="1" stop-color="#FFB063"/></linearGradient><path class="st49" d="M102.1 103.4c-1.5 1.7-4.7 2-6.8 1.8-2.6-.2-6.2-.7-8-2.9-1.3-1.8-.9-6.4-.7-8.5.4-2.9 7.4-1.8 11.2-.9 3.4.8 5.3 1.8 5.9 3.9s-.1 5-1.6 6.6z"/><path class="st50" d="M95.6 98c.1 1.1-2.3 2.1-3.8 2.1s-3-3.1-.7-3.5c2.2-.3 4.4-.1 4.5 1.4z"/><path class="st50" d="M103.7 96.8c-.2-.8-.6-1.5-1.1-2.2-.1 0-.3.1-.4.1V94c-.7-.8-1.6-1.4-2.5-2-.4 0-.9.1-1.2.3-.1-.4-.2-.8-.5-1.1-1.1-.4-2.3-.7-3.5-.8-.3.1-.5.3-.7.6-.6.8-.9 2.5-1.2 3.5-.3 1.1-.6 2.6.3 3.5.7.6 2.2.8 3 .4.2-.1.4-.2.6-.4 0 .5.2.9.6 1.3.6.6 2 .7 2.8.4.2-.1.4-.2.5-.3 0 .5.1 1 .5 1.4.5.5 1.8.6 2.4.3.1 0 .1-.1.2-.1.4-1.4.6-3 .2-4.2z"/><linearGradient id="SVGID_12_" gradientUnits="userSpaceOnUse" x1="-190.438" y1="-830.494" x2="-190.438" y2="-842.313" gradientTransform="matrix(.846 .08 .092 -.996 328.272 -727.48)"><stop offset="0" stop-color="#FFE0B3"/><stop offset=".509" stop-color="#FFD39C"/><stop offset="1" stop-color="#FCAD6B"/></linearGradient><path class="st51" d="M86.7 93.8c.5-4 1.1-12.6 4.6-12.3 3.7.3 2 8.6 1.7 12.8-.4 4.3-6.9 4-6.3-.5z"/><linearGradient id="SVGID_13_" gradientUnits="userSpaceOnUse" x1="-7.352" y1="-821.61" x2="-6.479" y2="-824.772" gradientTransform="rotate(4.997 8410.01 1711.524)"><stop offset="0" stop-color="#FFE0B3"/><stop offset=".509" stop-color="#FFD39C"/><stop offset="1" stop-color="#FCAD6B"/></linearGradient><path class="st52" d="M105 98.1c.4-1.2 1.1-3-.1-4-.8-.7-2.4-.9-3.1.1-.5.7-.7 1.9-.9 2.8-.2.9-.5 2.1.3 2.8.5.5 1.8.6 2.4.3.7-.4 1.1-1.2 1.4-2z"/><linearGradient id="SVGID_14_" gradientUnits="userSpaceOnUse" x1="-11.104" y1="-819.894" x2="-10.085" y2="-823.581" gradientTransform="rotate(4.997 8410.01 1711.524)"><stop offset="0" stop-color="#FFE0B3"/><stop offset=".509" stop-color="#FFD39C"/><stop offset="1" stop-color="#FCAD6B"/></linearGradient><path class="st53" d="M101.8 96.4c.4-1.4 1.2-3.5-.1-4.6-1-.8-2.8-1-3.6.1-.6.8-.8 2.3-1.1 3.2-.3 1-.6 2.4.3 3.2.6.6 2 .7 2.8.4 1-.5 1.4-1.4 1.7-2.3z"/><linearGradient id="SVGID_15_" gradientUnits="userSpaceOnUse" x1="-15.495" y1="-818.664" x2="-14.39" y2="-822.663" gradientTransform="rotate(4.997 8410.01 1711.524)"><stop offset="0" stop-color="#FFE0B3"/><stop offset=".509" stop-color="#FFD39C"/><stop offset="1" stop-color="#FCAD6B"/></linearGradient><path class="st54" d="M97.7 95c.5-1.5 1.4-3.8-.1-5-1.1-.9-3-1.1-3.9.1-.6.8-.9 2.5-1.2 3.5-.3 1.1-.6 2.6.3 3.5.7.6 2.2.8 3 .4 1.1-.5 1.6-1.5 1.9-2.5z"/><linearGradient id="SVGID_16_" gradientUnits="userSpaceOnUse" x1="-18.994" y1="-824.721" x2="-18.452" y2="-831.021" gradientTransform="rotate(4.997 8410.015 1711.524)"><stop offset="0" stop-color="#FFE0B3"/><stop offset=".509" stop-color="#FFD39C"/><stop offset="1" stop-color="#FCAD6B"/></linearGradient><path class="st55" d="M95.3 103.7c-1.4 2.7-8.8 0-10.2-3.1-1.2-2.9.9-5.7 3.7-6.5 1.1-.3 2.7-.3 3.9-.3 1.3.1 2.5.7 3 1.9.7 1.7-2.2 3-3.5 3 2.1.6 4.4 2.3 3.1 5z"/><path class="st56" d="M127.7 151.4h30.8c4.2 0 12.3 10.3 12.3 10.3s4.6.8 7.6 2.6 1.8 9 1.8 9h-4.7c0-3-2.4-5.4-5.4-5.4s-5.4 2.4-5.4 5.4h-22.4c0-3-2.4-5.4-5.4-5.4s-5.4 2.4-5.4 5.4H125c-.5 0-.9-.4-.9-.9v-12.2c0-.1 1.2-8.8 3.6-8.8z"/><path class="st57" d="M152.7 159.8h13c.1 0 .2-.2.1-.3-1-1.2-4.8-5.7-6.8-5.7h-6.3v6z"/><ellipse class="st58" cx="170.2" cy="173.2" rx="4.8" ry="4.8"/><ellipse class="st57" cx="170.2" cy="173.2" rx="2.1" ry="2.1"/><ellipse class="st58" cx="137" cy="173.2" rx="4.8" ry="4.8"/><ellipse class="st57" cx="137" cy="173.2" rx="2.1" ry="2.1"/><path class="st58" d="M164.6 173.7h-22.3v.5c0 .6.5 1.1 1.1 1.1h20.1c.6 0 1.1-.5 1.1-1.1v-.5z"/><ellipse class="st59" cx="179" cy="167.9" rx=".6" ry="1.4"/><path class="st57" d="M163.6 154.1c.1.1 1.6 1.2 5.5 5.6.1.1 0 0-.2 0h-1c-.3 0-1-.2-1.2-.4l-5.1-5.4c-.1-.1 0-.2.1-.2.3-.1 1-.1 1.6 0 0 .2.3.4.3.4z"/><path class="st24" d="M129 161.5v-.4h.2c.1 0 .1 0 .1-.1v-1.8c0-.1 0-.1-.1-.1h-.2v-.4h1.5c.7 0 1 .4 1 .8 0 .7-.4 1-1.1 1h-.2v.5c0 .1 0 .1.1.1h.5v.4H129zm1.3-1.6c.1 0 .3 0 .3-.4 0-.3-.2-.3-.3-.3h-.1l.1.7zm1.3 1.6v-.4h.3c.1 0 .1 0 .1-.1v-1.8c0-.1 0-.1-.1-.1h-.3v-.4h1.7v.4h-.3c-.1 0-.1 0-.1.1v1.8c0 .1 0 .1.1.1h.3v.4h-1.7zm1.8-1.4c0-.8.4-1.5 1.5-1.5 1 0 1.4.6 1.4 1.4 0 .9-.4 1.5-1.4 1.5-1.2 0-1.5-.6-1.5-1.4zm1.9 0c0-.6-.1-.8-.4-.8-.3 0-.5.2-.5.8s.1.8.5.8c.2 0 .4-.2.4-.8zm3 1.4l-1-1.7v1.2c0 .1 0 .1.1.1h.3v.4h-1.3v-.4h.2c.1 0 .1 0 .1-.1v-1.8c0-.1 0-.1-.1-.1h-.2v-.4h1.3l1 1.7v-1.2c0-.1 0-.1-.1-.1h-.2v-.4h1.3v.4h-.3c-.1 0-.1 0-.1.1v2.3h-1zm1.5 0v-.4h.2c.1 0 .1 0 .1-.1v-1.8c0-.1 0-.1-.1-.1h-.2v-.4h2.2v.9h-.7l-.1-.3s0-.1-.1-.1h-.1v.6h.8v.6h-.8v.6h.4l.1-.3h.7v.9l-2.4-.1zm2.5 0v-.4h.2c.1 0 .1 0 .1-.1v-1.8c0-.1 0-.1-.1-.1h-.2v-.4h2.2v.9h-.7l-.1-.3s0-.1-.1-.1h-.2v.6h.8v.6h-.8v.6h.4l.1-.3h.7v.9l-2.3-.1zm4.3 0l-.3-.9c0-.1-.1-.2-.2-.2v.6c0 .1 0 .1.1.1h.2v.4h-1.5v-.4h.2c.1 0 .1 0 .1-.1v-1.8c0-.1 0-.1-.1-.1h-.2v-.4h1.6c.7 0 1 .3 1 .8 0 .4-.3.6-.5.7.2.1.3.2.4.4l.2.4c0 .1 0 .1.1.1h.2v.4h-1.3zm-.5-1.7c.2 0 .3-.1.3-.3s-.1-.3-.3-.3h-.1l.1.6z"/><path class="st24" d="M147.6 158.5l-9.2-3.7h-.3l-9.1 3.7c-.1.1-.1.3.1.3h18.5c.1-.1.1-.3 0-.3z"/><path class="st60" d="M137.1 157.2h1v1h-1v-1zm1.2-1.3v1.2h1v-.1c.1-.6-.4-1.1-1-1.1zm0 1.3h1v1h-1v-1zm-1.2-.2v.1h1v-1.2c-.5 0-1 .5-1 1.1z"/><path class="st24" d="M136.5 162.4h10.6c.3 0 .6-.3.6-.6v-.1h-11.2v.7zm-7 0h7v-.7h-7.6v.1c0 .3.2.6.6.6z"/><g class="st61"><path class="st62" d="M297.8 38.8c.3-1.5 3.9-3.5 3.9-3.5-3.5.5-4.4-1.4-4.4-1.4-2.4 1.1-5.4.6-5.4.6.5-1.6 4.5-2.3 4.5-2.3-1-.7 2.2-3.2 2.2-3.2-.9.4-2.7-.8-2.7-.8 1.8-1.4 1.2-3.2 1.2-3.2-1 .1-.4-1.9-.4-1.9-1.9.3-.9-3.1-.9-3.1s-2.3 2.6-3.1.9c0 0-1.3 1.6-1.8.6 0 0-1.8.4-2.1 2.7 0 0-1.9-.9-2.1-1.8 0 0-.4 4-1.5 3.6 0 0 1.5 3.8.4 5 0 0-2-2.3-2.3-4.9 0 0-2.1.3-3.5-3 0 0 .2 4.1-.9 5.1 0 0 1.5 2.4-.1 2.3 0 0 3.9 3.3 2.3 3.6s-2.9.5-2.9.5 2.3 3.7 4.5 3.3 3.7-2.7 3.9-1c1.5-.8.4 1.7 1.2 3.8.8 2.1 5.2 2.1 5.2 2.1s-.6-1.2-1.2-2.7c-.6-1.6 4.2 0 4.2 0-1-1.3 1.8-1.3 1.8-1.3z"/><path class="st63" d="M295.8 20.3c0-.1.1-.2.1-.2s-2.3 2.6-3.1.9c0 0-1.3 1.6-1.8.6 0 0-1.8.4-2.1 2.7 0 0-1.9-.9-2.1-1.8 0 0-.4 4-1.5 3.6 0 0 1.5 3.8.4 5 0 0-2-2.3-2.3-4.9 0 0-2.1.3-3.5-3 0 0 .2 4.1-.9 5.1 0 0 1.5 2.4-.1 2.3 0 0 3.9 3.3 2.3 3.6s-2.9.5-2.9.5 2.3 3.7 4.5 3.3 3.7-2.7 3.9-1l9.1-16.7z"/><path class="st64" d="M295.8 20.3c0-.1.1-.2.1-.2s-2.3 2.6-3.1.9c0 0-1.3 1.6-1.8.6 0 0-1.8.4-2.1 2.7 0 0-1.9-.9-2.1-1.8 0 0-.4 4-1.5 3.6 0 0 1.5 3.8.4 5 0 0-2-2.3-2.3-4.9 0 0-2.1.3-3.5-3 0 0 .2 4.1-.9 5.1 0 0 1.5 2.4-.1 2.3 0 0 3.9 3.3 2.3 3.6s-2.9.5-2.9.5 2.3 3.7 4.5 3.3 3.7-2.7 3.9-1l9.1-16.7z"/><path class="st65" d="M285.6 35.7l6.9-9.6-4.6 10.9-2.3-1.3z"/><path class="st65" d="M285.5 36.4l2.4-9.7.2 9.9-2.6-.2z"/><path class="st65" d="M285.7 37.2l-3.7-6.4.3-.2 5.4 5-2 1.6z"/><path class="st65" d="M285.9 35.4l8.6-5.1-7 7.1-1.6-2z"/><path class="st65" d="M286.7 35.2l7.4 1.9v.4l-7.7.3.3-2.6z"/><path class="st65" d="M286.7 36.4s-2.3 4.6-4.6 7.3c0 0 .2.4.7.7 0 0 2.1-2.8 4-7.8l-.1-.2z"/><g class="st66"><path class="st67" d="M297.8 38.8c.3-1.5 3.9-3.5 3.9-3.5-3.5.5-4.4-1.4-4.4-1.4-2.4 1.1-5.4.6-5.4.6.5-1.6 4.5-2.3 4.5-2.3-1-.7 2.2-3.2 2.2-3.2-.9.4-2.7-.8-2.7-.8 1.8-1.4 1.2-3.2 1.2-3.2-1 .1-.4-1.9-.4-1.9-1.9.3-.9-3.1-.9-3.1s-2.3 2.6-3.1.9c0 0-1.3 1.6-1.8.6 0 0-1.8.4-2.1 2.7 0 0-1.9-.9-2.1-1.8 0 0-.4 4-1.5 3.6 0 0 1.5 3.8.4 5 0 0-2-2.3-2.3-4.9 0 0-2.1.3-3.5-3 0 0 .2 4.1-.9 5.1 0 0 1.5 2.4-.1 2.3 0 0 3.9 3.3 2.3 3.6s-2.9.5-2.9.5 2.3 3.7 4.5 3.3 3.7-2.7 3.9-1c1.5-.8.4 1.7 1.2 3.8.8 2.1 5.2 2.1 5.2 2.1s-.6-1.2-1.2-2.7c-.6-1.6 4.2 0 4.2 0-1-1.3 1.8-1.3 1.8-1.3z"/><path class="st67" d="M295.8 20.3c0-.1.1-.2.1-.2s-2.3 2.6-3.1.9c0 0-1.3 1.6-1.8.6 0 0-1.8.4-2.1 2.7 0 0-1.9-.9-2.1-1.8 0 0-.4 4-1.5 3.6 0 0 1.5 3.8.4 5 0 0-2-2.3-2.3-4.9 0 0-2.1.3-3.5-3 0 0 .2 4.1-.9 5.1 0 0 1.5 2.4-.1 2.3 0 0 3.9 3.3 2.3 3.6s-2.9.5-2.9.5 2.3 3.7 4.5 3.3 3.7-2.7 3.9-1l9.1-16.7z"/><path class="st68" d="M295.8 20.3c0-.1.1-.2.1-.2s-2.3 2.6-3.1.9c0 0-1.3 1.6-1.8.6 0 0-1.8.4-2.1 2.7 0 0-1.9-.9-2.1-1.8 0 0-.4 4-1.5 3.6 0 0 1.5 3.8.4 5 0 0-2-2.3-2.3-4.9 0 0-2.1.3-3.5-3 0 0 .2 4.1-.9 5.1 0 0 1.5 2.4-.1 2.3 0 0 3.9 3.3 2.3 3.6s-2.9.5-2.9.5 2.3 3.7 4.5 3.3 3.7-2.7 3.9-1l9.1-16.7z"/><path class="st67" d="M285.6 35.7l6.9-9.6-4.6 10.9-2.3-1.3z"/><path class="st67" d="M285.5 36.4l2.4-9.7.2 9.9-2.6-.2z"/><path class="st67" d="M285.7 37.2l-3.7-6.4.3-.2 5.4 5-2 1.6z"/><path class="st67" d="M285.9 35.4l8.6-5.1-7 7.1-1.6-2z"/><path class="st67" d="M286.7 35.2l7.4 1.9v.4l-7.7.3.3-2.6z"/><path class="st67" d="M286.7 36.4s-2.3 4.6-4.6 7.3c0 0 .2.4.7.7 0 0 2.1-2.8 4-7.8l-.1-.2z"/></g></g><g class="st61"><path class="st62" d="M23.2 74c-1.1-.1-2.8-2.6-2.8-2.6.6 2.5-.8 3.3-.8 3.3 1 1.7.8 3.9.8 3.9-1.2-.3-2-3.1-2-3.1-.4.7-2.3-1.5-2.3-1.5.3.6-.4 2-.4 2-1.1-1.2-2.4-.7-2.4-.7.1.8-1.3.4-1.3.4.3 1.4-2.2.8-2.2.8s2.1 1.5.8 2.2c0 0 1.2.9.6 1.3 0 0 .4 1.3 2.1 1.4 0 0-.5 1.4-1.2 1.6 0 0 2.9.1 2.7.9 0 0 2.7-1.3 3.6-.6 0 0-1.6 1.6-3.5 2 0 0 .3 1.5-1.9 2.7 0 0 3-.4 3.8.3 0 0 1.6-1.2 1.7-.1 0 0 2.1-3 2.5-1.9.3 1.2.5 2.1.5 2.1s2.6-1.9 2.1-3.5-2.2-2.6-.9-2.8c-.7-1.1 1.2-.4 2.7-1.1s1.2-3.9 1.2-3.9-.8.5-1.9 1-.2-3.1-.2-3.1c-1.1 1-1.3-1-1.3-1z"/><path class="st63" d="M9.8 76.6h-.2s2.1 1.5.8 2.2c0 0 1.2.9.6 1.3 0 0 .4 1.3 2.1 1.4 0 0-.5 1.4-1.2 1.6 0 0 2.9.1 2.7.9 0 0 2.7-1.3 3.6-.6 0 0-1.6 1.6-3.5 2 0 0 .3 1.5-1.9 2.7 0 0 3-.4 3.8.3 0 0 1.6-1.2 1.7-.1 0 0 2.1-3 2.5-1.9.3 1.2.5 2.1.5 2.1s2.6-1.9 2.1-3.5-2.2-2.6-.9-2.8L9.8 76.6z"/><path class="st64" d="M9.8 76.6h-.2s2.1 1.5.8 2.2c0 0 1.2.9.6 1.3 0 0 .4 1.3 2.1 1.4 0 0-.5 1.4-1.2 1.6 0 0 2.9.1 2.7.9 0 0 2.7-1.3 3.6-.6 0 0-1.6 1.6-3.5 2 0 0 .3 1.5-1.9 2.7 0 0 3-.4 3.8.3 0 0 1.6-1.2 1.7-.1 0 0 2.1-3 2.5-1.9.3 1.2.5 2.1.5 2.1s2.6-1.9 2.1-3.5-2.2-2.6-.9-2.8L9.8 76.6z"/><path class="st65" d="M21.7 83.1l-7.4-4.5 8.2 2.6-.8 1.9z"/><path class="st65" d="M22.2 83.2L15 81.9l7.2-.8v2.1z"/><path class="st65" d="M22.9 83l-4.5 3-.2-.3 3.3-4.3 1.4 1.6z"/><path class="st65" d="M21.4 82.9l-4.1-6 5.6 4.6-1.5 1.4z"/><path class="st65" d="M21.2 82.3l1-5.5h.4l.7 5.5h-2.1z"/><path class="st65" d="M22.1 82.3s3.5 1.4 5.6 2.9c0 0 .3-.2.4-.5 0 0-2.1-1.4-5.9-2.5l-.1.1z"/><g class="st66"><path class="st67" d="M23.2 74c-1.1-.1-2.8-2.6-2.8-2.6.6 2.5-.8 3.3-.8 3.3 1 1.7.8 3.9.8 3.9-1.2-.3-2-3.1-2-3.1-.4.7-2.3-1.5-2.3-1.5.3.6-.4 2-.4 2-1.1-1.2-2.4-.7-2.4-.7.1.8-1.3.4-1.3.4.3 1.4-2.2.8-2.2.8s2.1 1.5.8 2.2c0 0 1.2.9.6 1.3 0 0 .4 1.3 2.1 1.4 0 0-.5 1.4-1.2 1.6 0 0 2.9.1 2.7.9 0 0 2.7-1.3 3.6-.6 0 0-1.6 1.6-3.5 2 0 0 .3 1.5-1.9 2.7 0 0 3-.4 3.8.3 0 0 1.6-1.2 1.7-.1 0 0 2.1-3 2.5-1.9.3 1.2.5 2.1.5 2.1s2.6-1.9 2.1-3.5-2.2-2.6-.9-2.8c-.7-1.1 1.2-.4 2.7-1.1s1.2-3.9 1.2-3.9-.8.5-1.9 1-.2-3.1-.2-3.1c-1.1 1-1.3-1-1.3-1z"/><path class="st67" d="M9.8 76.6h-.2s2.1 1.5.8 2.2c0 0 1.2.9.6 1.3 0 0 .4 1.3 2.1 1.4 0 0-.5 1.4-1.2 1.6 0 0 2.9.1 2.7.9 0 0 2.7-1.3 3.6-.6 0 0-1.6 1.6-3.5 2 0 0 .3 1.5-1.9 2.7 0 0 3-.4 3.8.3 0 0 1.6-1.2 1.7-.1 0 0 2.1-3 2.5-1.9.3 1.2.5 2.1.5 2.1s2.6-1.9 2.1-3.5-2.2-2.6-.9-2.8L9.8 76.6z"/><path class="st68" d="M9.8 76.6h-.2s2.1 1.5.8 2.2c0 0 1.2.9.6 1.3 0 0 .4 1.3 2.1 1.4 0 0-.5 1.4-1.2 1.6 0 0 2.9.1 2.7.9 0 0 2.7-1.3 3.6-.6 0 0-1.6 1.6-3.5 2 0 0 .3 1.5-1.9 2.7 0 0 3-.4 3.8.3 0 0 1.6-1.2 1.7-.1 0 0 2.1-3 2.5-1.9.3 1.2.5 2.1.5 2.1s2.6-1.9 2.1-3.5-2.2-2.6-.9-2.8L9.8 76.6z"/><path class="st67" d="M21.7 83.1l-7.4-4.5 8.2 2.6-.8 1.9z"/><path class="st67" d="M22.2 83.2L15 81.9l7.2-.8v2.1z"/><path class="st67" d="M22.9 83l-4.5 3-.2-.3 3.3-4.3 1.4 1.6z"/><path class="st67" d="M21.4 82.9l-4.1-6 5.6 4.6-1.5 1.4z"/><path class="st67" d="M21.2 82.3l1-5.5h.4l.7 5.5h-2.1z"/><path class="st67" d="M22.1 82.3s3.5 1.4 5.6 2.9c0 0 .3-.2.4-.5 0 0-2.1-1.4-5.9-2.5l-.1.1z"/></g></g><g class="st61"><path class="st62" d="M35.1 15.3c-1.4-.2-3.4-3.2-3.4-3.2.7 3.1-.9 4-.9 4 1.2 2 1 4.8 1 4.8-1.4-.3-2.4-3.8-2.4-3.8-.6.9-3-1.7-3-1.7.4.8-.5 2.4-.5 2.4-1.4-1.5-3-.8-3-.8.1.9-1.6.5-1.6.5.4 1.7-2.7 1-2.7 1s2.5 1.9 1 2.7c0 0 1.5 1 .7 1.6 0 0 .5 1.6 2.6 1.7 0 0-.6 1.8-1.5 2 0 0 3.6.1 3.3 1.1 0 0 3.3-1.6 4.5-.7 0 0-1.9 2-4.2 2.4 0 0 .4 1.8-2.4 3.3 0 0 3.6-.5 4.7.4 0 0 2-1.5 2-.1 0 0 2.6-3.7 3-2.3.4 1.4.6 2.6.6 2.6s3.2-2.3 2.6-4.2c-.6-1.9-2.7-3.1-1.1-3.4-.8-1.3 1.5-.5 3.3-1.4s1.5-4.8 1.5-4.8-1 .6-2.4 1.2c-1.3.6-.3-3.8-.3-3.8-1.3 1-1.4-1.5-1.4-1.5z"/><path class="st63" d="M18.6 18.5h-.2s2.5 1.9 1 2.7c0 0 1.5 1 .7 1.6 0 0 .5 1.6 2.6 1.7 0 0-.6 1.8-1.5 2 0 0 3.6.1 3.3 1.1 0 0 3.3-1.6 4.5-.7 0 0-1.9 2-4.2 2.4 0 0 .4 1.8-2.4 3.3 0 0 3.6-.5 4.7.4 0 0 2-1.5 2-.1 0 0 2.6-3.7 3-2.3.4 1.4.6 2.6.6 2.6s3.2-2.3 2.6-4.2c-.6-1.9-2.7-3.1-1.1-3.4l-15.6-7.1z"/><path class="st64" d="M18.6 18.5h-.2s2.5 1.9 1 2.7c0 0 1.5 1 .7 1.6 0 0 .5 1.6 2.6 1.7 0 0-.6 1.8-1.5 2 0 0 3.6.1 3.3 1.1 0 0 3.3-1.6 4.5-.7 0 0-1.9 2-4.2 2.4 0 0 .4 1.8-2.4 3.3 0 0 3.6-.5 4.7.4 0 0 2-1.5 2-.1 0 0 2.6-3.7 3-2.3.4 1.4.6 2.6.6 2.6s3.2-2.3 2.6-4.2c-.6-1.9-2.7-3.1-1.1-3.4l-15.6-7.1z"/><path class="st65" d="M33.3 26.3L24.1 21l10 3.4-.8 1.9z"/><path class="st65" d="M33.8 26.3L25 25l8.8-.7v2z"/><path class="st65" d="M34.5 26.2L29.1 30l-.2-.2 4.2-5.2 1.4 1.6z"/><path class="st65" d="M33 26.1l-5.3-7.2 6.8 5.8-1.5 1.4z"/><path class="st65" d="M32.8 25.5l1-6.8h.4l.7 6.8h-2.1z"/><path class="st65" d="M33.7 25.5s4.3 1.7 6.8 3.5c0 0 .4-.2.5-.7 0 0-2.6-1.7-7.3-3v.2z"/><g class="st66"><path class="st67" d="M35.1 15.3c-1.4-.2-3.4-3.2-3.4-3.2.7 3.1-.9 4-.9 4 1.2 2 1 4.8 1 4.8-1.4-.3-2.4-3.8-2.4-3.8-.6.9-3-1.7-3-1.7.4.8-.5 2.4-.5 2.4-1.4-1.5-3-.8-3-.8.1.9-1.6.5-1.6.5.4 1.7-2.7 1-2.7 1s2.5 1.9 1 2.7c0 0 1.5 1 .7 1.6 0 0 .5 1.6 2.6 1.7 0 0-.6 1.8-1.5 2 0 0 3.6.1 3.3 1.1 0 0 3.3-1.6 4.5-.7 0 0-1.9 2-4.2 2.4 0 0 .4 1.8-2.4 3.3 0 0 3.6-.5 4.7.4 0 0 2-1.5 2-.1 0 0 2.6-3.7 3-2.3.4 1.4.6 2.6.6 2.6s3.2-2.3 2.6-4.2c-.6-1.9-2.7-3.1-1.1-3.4-.8-1.3 1.5-.5 3.3-1.4s1.5-4.8 1.5-4.8-1 .6-2.4 1.2c-1.3.6-.3-3.8-.3-3.8-1.3 1-1.4-1.5-1.4-1.5z"/><path class="st67" d="M18.6 18.5h-.2s2.5 1.9 1 2.7c0 0 1.5 1 .7 1.6 0 0 .5 1.6 2.6 1.7 0 0-.6 1.8-1.5 2 0 0 3.6.1 3.3 1.1 0 0 3.3-1.6 4.5-.7 0 0-1.9 2-4.2 2.4 0 0 .4 1.8-2.4 3.3 0 0 3.6-.5 4.7.4 0 0 2-1.5 2-.1 0 0 2.6-3.7 3-2.3.4 1.4.6 2.6.6 2.6s3.2-2.3 2.6-4.2c-.6-1.9-2.7-3.1-1.1-3.4l-15.6-7.1z"/><path class="st68" d="M18.6 18.5h-.2s2.5 1.9 1 2.7c0 0 1.5 1 .7 1.6 0 0 .5 1.6 2.6 1.7 0 0-.6 1.8-1.5 2 0 0 3.6.1 3.3 1.1 0 0 3.3-1.6 4.5-.7 0 0-1.9 2-4.2 2.4 0 0 .4 1.8-2.4 3.3 0 0 3.6-.5 4.7.4 0 0 2-1.5 2-.1 0 0 2.6-3.7 3-2.3.4 1.4.6 2.6.6 2.6s3.2-2.3 2.6-4.2c-.6-1.9-2.7-3.1-1.1-3.4l-15.6-7.1z"/><path class="st67" d="M33.3 26.3L24.1 21l10 3.4-.8 1.9z"/><path class="st67" d="M33.8 26.3L25 25l8.8-.7v2z"/><path class="st67" d="M34.5 26.2L29.1 30l-.2-.2 4.2-5.2 1.4 1.6z"/><path class="st67" d="M33 26.1l-5.3-7.2 6.8 5.8-1.5 1.4z"/><path class="st67" d="M32.8 25.5l1-6.8h.4l.7 6.8h-2.1z"/><path class="st67" d="M33.7 25.5s4.3 1.7 6.8 3.5c0 0 .4-.2.5-.7 0 0-2.6-1.7-7.3-3v.2z"/></g></g><g class="st61"><path class="st69" d="M189 107.6c.8-.2 2.6 1.1 2.6 1.1-1.1-1.6-.3-2.5-.3-2.5-1.1-.9-1.6-2.5-1.6-2.5.9-.1 2.2 1.6 2.2 1.6.1-.6 2.1.3 2.1.3-.4-.4-.2-1.5-.2-1.5 1.1.5 1.9-.2 1.9-.2-.3-.5.8-.6.8-.6-.6-.9 1.3-1.2 1.3-1.2s-1.9-.5-1.2-1.3c0 0-1.1-.3-.7-.7 0 0-.7-.8-1.8-.4 0 0 0-1.1.4-1.5 0 0-2 .7-2.1.1 0 0-1.5 1.6-2.4 1.4 0 0 .7-1.5 1.9-2.3 0 0-.6-.9.6-2.4 0 0-2 1.1-2.7.8 0 0-.8 1.3-1.1.5 0 0-.7 2.7-1.2 2s-.9-1.3-.9-1.3-1.3 2-.5 3c.7 1 2.2 1.2 1.4 1.7.8.6-.7.6-1.6 1.5-.8.9.2 3 .2 3s.4-.6 1.1-1.2c.6-.7 1 2.1 1 2.1.2-.9.8.5.8.5z"/><path class="st69" d="M197.6 102.2h.1s-1.9-.5-1.2-1.3c0 0-1.1-.3-.7-.7 0 0-.7-.8-1.8-.4 0 0 0-1.1.4-1.5 0 0-2 .7-2.1.1 0 0-1.5 1.6-2.4 1.4 0 0 .7-1.5 1.9-2.3 0 0-.6-.9.6-2.4 0 0-2 1.1-2.7.8 0 0-.8 1.3-1.1.5 0 0-.7 2.7-1.2 2s-.9-1.3-.9-1.3-1.3 2-.5 3c.7 1 2.2 1.2 1.4 1.7l10.2.4z"/><path class="st64" d="M197.6 102.2h.1s-1.9-.5-1.2-1.3c0 0-1.1-.3-.7-.7 0 0-.7-.8-1.8-.4 0 0 0-1.1.4-1.5 0 0-2 .7-2.1.1 0 0-1.5 1.6-2.4 1.4 0 0 .7-1.5 1.9-2.3 0 0-.6-.9.6-2.4 0 0-2 1.1-2.7.8 0 0-.8 1.3-1.1.5 0 0-.7 2.7-1.2 2s-.9-1.3-.9-1.3-1.3 2-.5 3c.7 1 2.2 1.2 1.4 1.7l10.2.4z"/><path class="st70" d="M187.6 101.2l6.4.8-6.4.1v-.9z"/><path class="st70" d="M187.4 101.3l5.2-1.4-4.9 2.2-.3-.8z"/><path class="st70" d="M187.2 101.4l2-3.4.2.1-1.4 3.7-.8-.4z"/><path class="st70" d="M187.8 101.2l4.6 2.7-5-1.9.4-.8z"/><path class="st70" d="M187.9 101.4l1.1 4h-.2l-1.7-3.7.8-.3z"/><path class="st70" d="M187.6 101.6s-2.8 0-4.6-.5c0 0-.2.2-.2.5 0 0 1.9.4 4.8 0z"/><g class="st66"><path class="st67" d="M189 107.6c.8-.2 2.6 1.1 2.6 1.1-1.1-1.6-.3-2.5-.3-2.5-1.1-.9-1.6-2.5-1.6-2.5.9-.1 2.2 1.6 2.2 1.6.1-.6 2.1.3 2.1.3-.4-.4-.2-1.5-.2-1.5 1.1.5 1.9-.2 1.9-.2-.3-.5.8-.6.8-.6-.6-.9 1.3-1.2 1.3-1.2s-1.9-.5-1.2-1.3c0 0-1.1-.3-.7-.7 0 0-.7-.8-1.8-.4 0 0 0-1.1.4-1.5 0 0-2 .7-2.1.1 0 0-1.5 1.6-2.4 1.4 0 0 .7-1.5 1.9-2.3 0 0-.6-.9.6-2.4 0 0-2 1.1-2.7.8 0 0-.8 1.3-1.1.5 0 0-.7 2.7-1.2 2s-.9-1.3-.9-1.3-1.3 2-.5 3c.7 1 2.2 1.2 1.4 1.7.8.6-.7.6-1.6 1.5-.8.9.2 3 .2 3s.4-.6 1.1-1.2c.6-.7 1 2.1 1 2.1.2-.9.8.5.8.5z"/><path class="st67" d="M197.6 102.2h.1s-1.9-.5-1.2-1.3c0 0-1.1-.3-.7-.7 0 0-.7-.8-1.8-.4 0 0 0-1.1.4-1.5 0 0-2 .7-2.1.1 0 0-1.5 1.6-2.4 1.4 0 0 .7-1.5 1.9-2.3 0 0-.6-.9.6-2.4 0 0-2 1.1-2.7.8 0 0-.8 1.3-1.1.5 0 0-.7 2.7-1.2 2s-.9-1.3-.9-1.3-1.3 2-.5 3c.7 1 2.2 1.2 1.4 1.7l10.2.4z"/><path class="st68" d="M197.6 102.2h.1s-1.9-.5-1.2-1.3c0 0-1.1-.3-.7-.7 0 0-.7-.8-1.8-.4 0 0 0-1.1.4-1.5 0 0-2 .7-2.1.1 0 0-1.5 1.6-2.4 1.4 0 0 .7-1.5 1.9-2.3 0 0-.6-.9.6-2.4 0 0-2 1.1-2.7.8 0 0-.8 1.3-1.1.5 0 0-.7 2.7-1.2 2s-.9-1.3-.9-1.3-1.3 2-.5 3c.7 1 2.2 1.2 1.4 1.7l10.2.4z"/><path class="st67" d="M187.6 101.2l6.4.8-6.4.1v-.9z"/><path class="st67" d="M187.4 101.3l5.2-1.4-4.9 2.2-.3-.8z"/><path class="st67" d="M187.2 101.4l2-3.4.2.1-1.4 3.7-.8-.4z"/><path class="st67" d="M187.8 101.2l4.6 2.7-5-1.9.4-.8z"/><path class="st67" d="M187.9 101.4l1.1 4h-.2l-1.7-3.7.8-.3z"/><path class="st67" d="M187.6 101.6s-2.8 0-4.6-.5c0 0-.2.2-.2.5 0 0 1.9.4 4.8 0z"/></g></g><g class="st61"><path class="st69" d="M309.4 98.3c.4-.7 2.6-1.2 2.6-1.2-1.9-.3-2-1.5-2-1.5-1.4.2-2.9-.5-2.9-.5.5-.7 2.7-.5 2.7-.5-.4-.5 1.6-1.3 1.6-1.3-.6 0-1.2-.9-1.2-.9 1.1-.5 1.1-1.5 1.1-1.5-.6-.1.1-1 .1-1-1.1-.2 0-1.8 0-1.8s-1.7 1.1-1.8 0c0 0-1 .6-1 0 0 0-1.1 0-1.5 1.1 0 0-.8-.7-.8-1.3 0 0-.8 1.9-1.3 1.6 0 0 .2 2.2-.6 2.7 0 0-.6-1.5-.4-3 0 0-1.1-.2-1.4-2.1 0 0-.5 2.2-1.2 2.5 0 0 .4 1.5-.4 1.1 0 0 1.5 2.3.7 2.2-.9-.1-1.6-.2-1.6-.2s.6 2.3 1.9 2.4c1.2.2 2.4-.8 2.2.1 1-.2 0 .9 0 2.2.1 1.2 2.3 1.9 2.3 1.9s-.2-.7-.1-1.6c-.1-.9 2.2.7 2.2.7-.7-.6.8-.1.8-.1z"/><path class="st69" d="M311.2 88.3c.1 0 .1 0 0 0 .1-.1-1.6 1-1.7-.1 0 0-1 .6-1 0 0 0-1.1 0-1.5 1.1 0 0-.8-.7-.8-1.3 0 0-.8 1.9-1.3 1.6 0 0 .2 2.2-.6 2.7 0 0-.6-1.5-.4-3 0 0-1.1-.2-1.4-2.1 0 0-.5 2.2-1.2 2.5 0 0 .4 1.5-.4 1.1 0 0 1.5 2.3.7 2.2-.9-.1-1.6-.2-1.6-.2s.6 2.3 1.9 2.4c1.2.2 2.4-.8 2.2.1l7.1-7z"/><path class="st64" d="M311.2 88.3c.1 0 .1 0 0 0 .1-.1-1.6 1-1.7-.1 0 0-1 .6-1 0 0 0-1.1 0-1.5 1.1 0 0-.8-.7-.8-1.3 0 0-.8 1.9-1.3 1.6 0 0 .2 2.2-.6 2.7 0 0-.6-1.5-.4-3 0 0-1.1-.2-1.4-2.1 0 0-.5 2.2-1.2 2.5 0 0 .4 1.5-.4 1.1 0 0 1.5 2.3.7 2.2-.9-.1-1.6-.2-1.6-.2s.6 2.3 1.9 2.4c1.2.2 2.4-.8 2.2.1l7.1-7z"/><path class="st70" d="M303.7 95l4.9-4.1-4.2 4.7-.7-.6z"/><path class="st70" d="M303.6 95.3l2.5-4.8-1.7 5.1-.8-.3z"/><path class="st70" d="M303.6 95.5l-1.2-3.8.2-.1 1.8 3.5-.8.4z"/><path class="st70" d="M303.8 94.9l5.1-1.6-4.8 2.4-.3-.8z"/><path class="st70" d="M304 94.9l3.7 1.9-.1.2-3.9-1.3.3-.8z"/><path class="st70" d="M304 95.3s-1.9 2.1-3.5 3.1c0 0 0 .3.2.5 0-.1 1.6-1.2 3.3-3.6z"/><g class="st66"><path class="st67" d="M309.4 98.3c.4-.7 2.6-1.2 2.6-1.2-1.9-.3-2-1.5-2-1.5-1.4.2-2.9-.5-2.9-.5.5-.7 2.7-.5 2.7-.5-.4-.5 1.6-1.3 1.6-1.3-.6 0-1.2-.9-1.2-.9 1.1-.5 1.1-1.5 1.1-1.5-.6-.1.1-1 .1-1-1.1-.2 0-1.8 0-1.8s-1.7 1.1-1.8 0c0 0-1 .6-1 0 0 0-1.1 0-1.5 1.1 0 0-.8-.7-.8-1.3 0 0-.8 1.9-1.3 1.6 0 0 .2 2.2-.6 2.7 0 0-.6-1.5-.4-3 0 0-1.1-.2-1.4-2.1 0 0-.5 2.2-1.2 2.5 0 0 .4 1.5-.4 1.1 0 0 1.5 2.3.7 2.2-.9-.1-1.6-.2-1.6-.2s.6 2.3 1.9 2.4c1.2.2 2.4-.8 2.2.1 1-.2 0 .9 0 2.2.1 1.2 2.3 1.9 2.3 1.9s-.2-.7-.1-1.6c-.1-.9 2.2.7 2.2.7-.7-.6.8-.1.8-.1z"/><path class="st67" d="M311.2 88.3c.1 0 .1 0 0 0 .1-.1-1.6 1-1.7-.1 0 0-1 .6-1 0 0 0-1.1 0-1.5 1.1 0 0-.8-.7-.8-1.3 0 0-.8 1.9-1.3 1.6 0 0 .2 2.2-.6 2.7 0 0-.6-1.5-.4-3 0 0-1.1-.2-1.4-2.1 0 0-.5 2.2-1.2 2.5 0 0 .4 1.5-.4 1.1 0 0 1.5 2.3.7 2.2-.9-.1-1.6-.2-1.6-.2s.6 2.3 1.9 2.4c1.2.2 2.4-.8 2.2.1l7.1-7z"/><path class="st68" d="M311.2 88.3c.1 0 .1 0 0 0 .1-.1-1.6 1-1.7-.1 0 0-1 .6-1 0 0 0-1.1 0-1.5 1.1 0 0-.8-.7-.8-1.3 0 0-.8 1.9-1.3 1.6 0 0 .2 2.2-.6 2.7 0 0-.6-1.5-.4-3 0 0-1.1-.2-1.4-2.1 0 0-.5 2.2-1.2 2.5 0 0 .4 1.5-.4 1.1 0 0 1.5 2.3.7 2.2-.9-.1-1.6-.2-1.6-.2s.6 2.3 1.9 2.4c1.2.2 2.4-.8 2.2.1l7.1-7z"/><path class="st67" d="M303.7 95l4.9-4.1-4.2 4.7-.7-.6z"/><path class="st67" d="M303.6 95.3l2.5-4.8-1.7 5.1-.8-.3z"/><path class="st67" d="M303.6 95.5l-1.2-3.8.2-.1 1.8 3.5-.8.4z"/><path class="st67" d="M303.8 94.9l5.1-1.6-4.8 2.4-.3-.8z"/><path class="st67" d="M304 94.9l3.7 1.9-.1.2-3.9-1.3.3-.8z"/><path class="st67" d="M304 95.3s-1.9 2.1-3.5 3.1c0 0 0 .3.2.5 0-.1 1.6-1.2 3.3-3.6z"/></g></g></svg>