<svg id="airplane_1_" xmlns="http://www.w3.org/2000/svg" viewBox="0 0 250 250"><style>.st0{display:none}.st1{display:inline;fill:none;stroke:#000}.st1,.st2{stroke-miterlimit:10}.st2{fill:url(#SVGID_1_)}.st2,.st3{display:inline;stroke:#000}.st3{fill:url(#SVGID_2_)}.st3,.st4{stroke-miterlimit:10}.st4{fill:none;stroke:#ff9800;stroke-width:2}.st5{fill:#64b5f6}</style><g id="grid" class="st0"><path class="st1" d="M-125-75h500m-500 400h500"/><linearGradient id="SVGID_1_" gradientUnits="userSpaceOnUse" x1="-75" y1="125" x2="-75" y2="125" gradientTransform="matrix(1 0 0 -1 0 250)"><stop offset="0" stop-color="#FFF"/><stop offset="1"/></linearGradient><path class="st2" d="M-75-125v500"/><linearGradient id="SVGID_2_" gradientUnits="userSpaceOnUse" x1="325" y1="125" x2="325" y2="125" gradientTransform="matrix(1 0 0 -1 0 250)"><stop offset="0" stop-color="#FFF"/><stop offset="1"/></linearGradient><path class="st3" d="M325-125v500"/></g><path class="st4" d="M228.5 160.5h-80.7l-5-22.1-11.6 30.8-12.8-39-16.2 30.3H81.4c9.4 12 22.5 22.5 38.3 36.4l8.9 8.7 8.9-7.8c12.8-11.3 23.8-21.3 32.6-29.3h58.5l-.1-8zm-130.4-6l20.8-39.8 12.7 35.5 11.3-27.2 10.3 31h27.5c7.2-9.8 11.2-19.3 11.2-29.6 0-19.5-15.2-34.6-34.9-34.6-10.8 0-21.6 5-28.5 13.2-7-8.2-17.8-13.2-28.5-13.2-19.7 0-34.9 16.5-34.9 36 0 8.1 2.5 13.7 7.1 24.7H21.5v4h76.6c.1 0 0 0 0 0z"/><path class="st5" d="M118.4 63.2c-.1-.1-.1-.1-.2-.1s-.2 0-.2.1c-.5.8-1.9 2.7-1.9 3.7 0 1.2.9 2.1 2.1 2.1s2.1-.9 2.1-2.1c-.1-.9-1.4-2.9-1.9-3.7zm-1.2 4.5l-.2.1c-.5-.4-.3-1.1-.3-1.1 0-.1.1-.2.2-.1.1 0 .2.1.1.2 0 0-.1.5.2.7.1 0 .1.2 0 .2zm11.3 7.2c-.1-.2-.4-.3-.6-.3-.3 0-.5.1-.6.3-1.6 2.2-5.5 8-5.5 10.8 0 3.4 2.8 6.2 6.2 6.2s6.2-2.8 6.2-6.2c-.1-2.8-4.1-8.6-5.7-10.8zm-3.3 13.3c-.1.1-.3.2-.4.2s-.2 0-.3-.1c-1.5-1.3-1-3.2-1-3.3.1-.3.4-.5.7-.4.3.1.5.4.4.7 0 .1-.3 1.3.6 2.2.2.1.2.4 0 .7zm13.4-28.1c-.1-.1-.3-.2-.4-.2-.2 0-.3.1-.4.2-1.1 1.5-3.7 5.4-3.7 7.2 0 2.3 1.9 4.2 4.2 4.2s4.2-1.9 4.2-4.2c-.1-1.8-2.8-5.7-3.9-7.2zm-2.2 8.9c-.1.1-.2.1-.3.1s-.2 0-.2-.1c-1-.9-.7-2.2-.7-2.2.1-.2.3-.3.4-.2.2.1.3.3.3.4 0 0-.2.9.4 1.5.2.1.2.4.1.5zm18.2 10.5c-.1-.1-.3-.2-.4-.2-.2 0-.3.1-.4.2-1.1 1.5-3.7 5.4-3.7 7.2 0 2.3 1.9 4.2 4.2 4.2s4.2-1.9 4.2-4.2c-.2-1.8-2.8-5.7-3.9-7.2zm-2.3 9c-.1.1-.2.1-.3.1s-.2 0-.2-.1c-1-.9-.7-2.2-.7-2.2.1-.2.3-.3.4-.2.2.1.3.3.2.4 0 0-.2.9.4 1.5.4.1.4.3.2.5zm-44.8-2.8c0-.1-.1-.1-.2-.1s-.2 0-.2.1c-.5.8-1.9 2.7-1.9 3.7 0 1.2.9 2.1 2.1 2.1s2.1-.9 2.1-2.1c0-1-1.4-3-1.9-3.7zm-1.1 4.5l-.2.1c-.5-.4-.3-1.1-.3-1.1 0-.1.1-.2.2-.1.1 0 .2.1.1.2 0 0-.1.5.2.7v.2zm-9.8-21.4c-.1-.1-.3-.2-.4-.2-.2 0-.3.1-.4.2-1.2 1.5-3.8 5.4-3.8 7.2 0 2.3 1.9 4.2 4.2 4.2 2.3 0 4.2-1.9 4.2-4.2-.1-1.8-2.8-5.7-3.8-7.2zm-2.3 8.9c-.1.1-.2.1-.3.1-.1 0-.2 0-.2-.1-1-.9-.7-2.2-.7-2.2.1-.2.3-.3.4-.2.2.1.3.3.3.4 0 0-.2.9.4 1.5.2.1.3.3.1.5zm64.8-26.9c0-.1-.1-.1-.2-.1s-.2 0-.2.1c-.5.8-1.9 2.7-1.9 3.7 0 1.2.9 2.1 2.1 2.1 1.2 0 2.1-.9 2.1-2.1 0-1-1.4-2.9-1.9-3.7zm-1.1 4.5l-.1.1h-.1c-.5-.4-.3-1.1-.3-1.1 0-.1.1-.2.2-.1.1 0 .2.1.1.2 0 0-.1.5.2.7v.2zm-52-10.6c0-.1-.1-.1-.2-.1s-.2 0-.2.1c-.5.8-1.9 2.7-1.9 3.7 0 1.2.9 2.1 2.1 2.1s2.1-.9 2.1-2.1c0-1-1.3-3-1.9-3.7zm-1.1 4.5l-.2.1c-.5-.4-.3-1.1-.3-1.1 0-.1.1-.2.2-.1.1 0 .2.1.1.2 0 0-.1.5.2.7.1 0 .1.1 0 .2z"/></svg>