<svg id="Layer_1" xmlns="http://www.w3.org/2000/svg" viewBox="0 0 90 92.3"><style>.st0{fill:#ff9800}.st1{fill:none;stroke:#ff9800;stroke-width:2;stroke-miterlimit:10}</style><path class="st0" d="M74.5 6.5C73.9 6.4 59.6 4 45 4S16.1 6.4 15.5 6.5l-2.8.5v40.8c0 .3 2.2 28.1 31.1 38.7l1.1.4 1.1-.4C74.8 75.9 77.1 48 77.1 47.8V7.1l-2.6-.6zM15.9 9c.6-.1 14.7-2.6 29.1-2.6 14.4 0 28.5 2.4 29.1 2.5l.7.1v37.4H15.2V9h.7zm35.6 39.9v32.5c-.9.5-1.9 1-2.9 1.4V48.9h2.9zm2.5 0h2.9v29h.2c-1 .7-2 1.4-3.1 2.1V48.9zm5.3 0h2.9v24.5c-.9.9-1.9 1.8-2.9 2.7V48.9zm5.3 0h2.9v18c-.9 1.3-1.8 2.6-2.9 3.9V48.9zm5.4 0h4.6c-.4 2.4-1.5 7.8-4.6 13.8V48.9zm-34.5 0v30.7c-1-.6-2-1.3-2.9-2V48.9h2.9zm2.4 0h2.9v33.6c-1-.5-2-.9-2.9-1.4V48.9zm-16 17.2V48.9h2.9v21.2c-1.1-1.3-2-2.7-2.9-4zm-2.4-4.5c-2.7-5.6-3.7-10.5-4.1-12.7h4.1v12.7zm7.8 11.3v-24h2.9v26.8c-1.1-.9-2-1.8-2.9-2.8zm18 11.3l-.3.1-.3-.1c-.5-.2-.9-.4-1.4-.6V48.9h2.9v34.9c-.3.2-.6.3-.9.4z"/><path class="st1" d="M45 11.4l4.8 9.7 10.6 1.5-7.7 7.6 1.8 10.6-9.5-5-9.5 5 1.8-10.6-7.7-7.6 10.6-1.5z"/></svg>