<svg id="Layer_1" xmlns="http://www.w3.org/2000/svg" viewBox="0 0 276 125"><style>.st0{fill:#434343}.st1{fill:#fff}.st2{fill:#ffe0b2}.st3{fill:#f57c00}</style><path class="st0" d="M3.1 104.8V99l3.6-.4c.8-.1.9-.3.9-1.1V71.6c0-.8-.1-1-.9-1.1l-3.6-.4v-5.8H25c10.5 0 14.9 5.5 14.9 12 0 9.9-6.2 14-16.3 14h-2.4v7.2c0 .9.1 1.1.9 1.1l7.9.4v5.8H3.1zm18.5-22.5c1.8 0 4.5-.3 4.5-5.2 0-4.6-2.8-4.7-4-4.7h-.9v9.9h.4zm19.7 22.5V99l4.2-.4c.8-.1.9-.3.9-1.1V71.8c0-.8-.1-1.2-.9-1.2l-4.2-.4v-5.8h23.9v5.8l-4.4.4c-.8.1-.8.2-.8 1v25.9c0 .9.1 1 .9 1.1l4.4.4v5.8h-24zm25.3-19.9c0-12 5.9-21.3 21.1-21.3s20.2 9.3 20.2 20.6c0 13.1-5.7 21.4-20.9 21.4-15.5-.1-20.4-8.7-20.4-20.7zm27.4-.3C94 76 92.4 73 87.7 73c-4.9 0-7.1 3.1-7.1 11.6 0 9 1.9 11.5 6.8 11.5 4.6 0 6.6-2.4 6.6-11.5zm44.3 20.2l-14-24.4v17.1c0 .9.1 1 .9 1.1l3.8.4v5.8h-18.9V99l3.6-.4c.8-.1.9-.3.9-1.1V71.6c0-.8-.1-1-.9-1.1l-3.6-.4v-5.8h18.3l14 25V71.7c0-.8-.1-1-.9-1.1l-3.6-.4v-5.9h19v5.9l-3.8.4c-.9.1-.9.2-.9 1.1v33.1h-13.9zm20.6 0V99l3.6-.4c.8-.1.9-.3.9-1.1V71.6c0-.8-.1-1-.9-1.1l-3.6-.4v-5.8h32.6v13.4l-9.4-.3-.8-4.2c-.1-.6-.4-.7-1-.7H177v8h10.9V89H177v8h4.6c.6 0 .8-.1.9-.6l.9-4.9h9.5v13.6h-34v-.3zm36.7 0V99l3.6-.4c.8-.1.9-.3.9-1.1V71.6c0-.8-.1-1-.9-1.1l-3.6-.4v-5.8h32.6v13.4l-9.4-.3-.8-4.2c-.1-.6-.4-.7-1-.7h-3.3v8h10.9V89h-10.9v8h4.6c.6 0 .8-.1.9-.6l.9-4.9h9.5v13.6h-34v-.3zm62.3 0l-4.7-13.7c-.5-1.5-1.1-2.2-2.4-2.2h-.5v8.6c0 .9.1 1 .9 1.1l2.2.4v5.8h-21.1V99l3.6-.4c.8-.1.9-.3.9-1.1V71.6c0-.8-.1-1-.9-1.1l-3.6-.4v-5.8h22.9c10.3 0 14.1 5 14.1 10.9 0 6-4.2 8.8-7.7 10.2 2.8.7 4.2 2.5 5.3 5.5l2.6 6.1c.3 1 .7 1.3 2 1.5l2.6.5v5.8h-16.2zM251 81.3c2.4 0 4.3-.8 4.3-4.6 0-3-1.3-4.3-3.9-4.3h-1.1v8.8l.7.1zm22.3-25.1L140.8 3.1c-1.6-.6-3.4-.7-5-.1L3.6 56.3c-1.9.8-1.3 3.7.8 3.7h268.1c2.1-.1 2.7-3 .8-3.8z"/><path class="st1" d="M166.9 53.5h-2.1v-8.4h3.4c2.2 0 3.4 1 3.4 2.7 0 1.1-.6 2-1.7 2.4l2.2 3.3h-2.4l-1.7-2.8-1 .1-.1 2.7zm1.1-4.3c.9-.1 1.4-.4 1.4-1.3 0-.7-.5-1.1-1.6-1.1h-.9v2.4h1.1zm8.8 4.5c-2.5 0-4.4-1.5-4.4-4.4 0-2.7 1.9-4.4 4.4-4.4s4.4 1.5 4.4 4.4c.1 2.7-1.9 4.4-4.4 4.4zm0-7.1c-1.4 0-2.2 1.1-2.2 2.7s.8 2.7 2.3 2.7c1.4 0 2.2-1.1 2.2-2.7s-.8-2.7-2.3-2.7zm9.8 7.1c-2.5 0-4.4-1.5-4.4-4.4 0-2.7 1.9-4.4 4.4-4.4s4.4 1.5 4.4 4.4c0 2.7-1.9 4.4-4.4 4.4zm0-7.1c-1.4 0-2.2 1.1-2.2 2.7s.8 2.7 2.3 2.7c1.4 0 2.2-1.1 2.2-2.7-.1-1.6-.9-2.7-2.3-2.7zm5.7-1.5h6v1.8h-3.9v1.7h3.1v1.7h-3.1v3.2h-2.1v-8.4zm7.1 8.4v-8.4h2.1v8.4h-2.1zm9.6-8.4h2v8.5h-2.3l-3.5-5.5v5.5h-2v-8.4h2.3l3.5 5.5v-5.6zm7.8 8.6c-2.7 0-4.5-1.6-4.5-4.4 0-2.8 1.8-4.4 4.5-4.4 1.1 0 2.4.2 3.2.7l-.7 1.8c-.8-.5-1.6-.7-2.4-.7-1.5 0-2.5 1-2.5 2.6 0 1.7.8 2.7 2.4 2.7.5 0 1-.1 1.3-.3v-1.2H216v-1.7h4V53c-.8.5-2 .7-3.2.7z"/><path class="st2" d="M122.1 38.4h15.1v15.1h-15.1V38.4zM139 19.6v17.1h15.1V35c0-8.5-6.7-15.4-15.1-15.4zm0 18.8h15.1v15.1H139V38.4zM122.1 35v1.7h15.1V19.6c-8.3 0-15.1 6.9-15.1 15.4z"/><path class="st3" d="M120.2 111.5v6.6h-3.1v-6.6h-3v-2.3h9v2.3h-2.9zm4.1 6.7v-8.9h7.7v2.2h-4.6v1.2h3.7v2.2h-3.7v1.2h4.6v2.2l-7.7-.1zm11.7 0h-3.3l3.3-4.5-3.2-4.5h3.4l1.7 2.6 1.7-2.6h3.4l-3.2 4.4 3.3 4.6h-3.4l-1.8-2.7-1.9 2.7z"/><path class="st3" d="M153.7 118.2h-3.1l-.6-1.7h-3.3l-.6 1.7h-3l3.4-8.9h3.9l3.3 8.9zm-5.3-6.9l-1.1 3.1h2.1l-1-3.1zm10.8 4.3c0-.4-.7-.6-1.8-.9-1.4-.4-3.3-1-3.3-2.8 0-1.7 1.3-2.9 4-2.9 1.7 0 3 .4 4 .8l-.5 2.3c-1.1-.5-2.4-.8-3.5-.8-.6 0-.9.1-.9.5s.9.6 1.9.9c1.6.4 3.2 1 3.2 2.7 0 1.8-1.5 3-4.3 3-1.6 0-3.1-.4-4-.8l.5-2.3c1.1.5 2.4.8 3.6.8.6 0 1.1-.1 1.1-.5z"/><path class="st0" d="M166.4 108.9h108v9.5h-108v-9.5zm-164 0h108v9.5H2.4v-9.5z"/></svg>