<svg id="Layer_1" xmlns="http://www.w3.org/2000/svg" viewBox="0 0 100 100"><style>.st0{fill:#ff9800}</style><path class="st0" d="M94.3 91.3h.7c-1.3-13.7-12-24.7-25.5-26.6h-.2c-.4-.1-.8-.1-1.2-.1v.5c-.1.7-.3 1.4-.6 2C65.2 72.5 58.1 83 54 88.9l-.9-12.3c1.2-.6 2.3-1.7 2.9-2.9.5-.9.8-1.8.8-2.8 0 0-3.1 1.4-6.3 1.4h-1c-3.2 0-6.3-1.4-6.3-1.4 0 1 .3 1.9.8 2.8.7 1.2 1.7 2.2 2.9 2.9L46 88.9C41.9 83 34.8 72.5 32.6 67c-.3-.6-.5-1.3-.6-2v-.5c-.4 0-.8.1-1.3.1h-.2c-13.5 2-24.2 13-25.4 26.7h89.2zM55.5 41.9c1.4-1.1 5.4-1.4 7.6-.2.4.2 1 .1 1.2-.3.2-.4.1-1-.3-1.2-2.6-1.5-7.6-1.4-9.6.3-.4.3-.4.9-.1 1.2.2.2.4.3.7.3.1.1.3 0 .5-.1zm7.1 3.9c.1.2.3.3.5.3.1 0 .2 0 .2-.1.3-.1.4-.5.3-.7-.7-1.5-2.4-2.5-4.3-2.5s-3.6 1-4.3 2.5c-.1.3 0 .6.3.7.3.1.6 0 .7-.3.4-.8 1.2-1.4 2.2-1.7-.2.3-.3.6-.3.9 0 .8.7 1.5 1.5 1.5s1.5-.7 1.5-1.5c0-.3-.1-.7-.3-.9.7.4 1.6 1 2 1.8zm-20.4-3c-1.9 0-3.6 1-4.3 2.5-.1.3 0 .6.3.7.3.1.6 0 .7-.3.4-.8 1.2-1.4 2.2-1.7-.2.3-.3.6-.3.9 0 .8.7 1.5 1.5 1.5s1.5-.7 1.5-1.5c0-.3-.1-.7-.3-.9 1 .3 1.8.9 2.2 1.7.1.2.3.3.5.3.1 0 .2 0 .2-.1.3-.1.4-.5.3-.7-.9-1.4-2.6-2.4-4.5-2.4z"/><path class="st0" d="M71 41.8c-.5-1.6-1.7-2.5-3.2-2.3v-1.9c2.4-11-2.9-16.1-7.3-18.8-3.6-2.2-8.2-2.3-10.5-2.3-2.2-.1-6.9.1-10.5 2.3-4.4 2.7-9.7 7.7-7.3 18.7v2.1c-1.5-.2-2.7.6-3.2 2.3-.9 2.8.4 8.3 2.9 10 .2.1.4.2.6.2.4 2.2 1.1 4.4 2.2 6.5 2.4 7 7.2 12.8 15.3 12.8 8.1 0 12.9-5.8 15.3-12.8 1-2.1 1.8-4.3 2.2-6.5.2 0 .4-.1.6-.2 2.5-1.8 3.8-7.2 2.9-10.1zM50.6 57.1l1.5 1.4s1.1 0 2.4.1c-1.1.5-2.7.8-4.4.8-1.7 0-3.2-.3-4.3-.8 1.7 0 3.3-.1 3.3-.1l1.5-1.4zm-6 3c1.4.8 3.4 1.2 5.5 1.2s4.1-.4 5.5-1.2c.4-.2.6-.8.3-1.2 0-.1-.1-.1-.2-.2 1.4 0 2.7.1 3.1.1.5 0 1.1.6 1.7 1.2l-2.4 4-6.4 3-1-2.1h-1.3l-1 2.1-6.4-3-2-3.2c.7-.9 1.7-2.1 2.4-2.1h2.1s-.1.1-.1.2c-.4.4-.2.9.2 1.2zm16.9-1.2l-2.9-2.8-5.5-.6s-.8-.2-1.6-.2c.2-.1.5-.3.6-.5.3.1.5.2.8.2 1.1 0 2-.9 2-2v-.1c0-.3-.2-.5-.6-.5-.3 0-.5.3-.5.6 0 .5-.4.9-.9.9-.2 0-.4-.1-.6-.2-.1-.1-.3-.2-.5-.1-.2 0-.3.1-.4.3-.2.4-.6.6-1 .6s-.8-.2-1-.6c-.1-.1-.2-.2-.4-.3-.2 0-.3 0-.5.1s-.4.2-.6.2c-.5 0-.9-.4-.9-.9 0-.3-.2-.6-.5-.6s-.6.2-.6.5v.1c0 1.1.9 2 2 2 .3 0 .6-.1.8-.2.2.2.4.4.7.5l-1.4.2-5.5.6-3.5 3.4v-.2s-1.3-1-2.8-1.7c-1-2.2-1.8-4.4-2-6.6l2.6 2.6v1.1c0 .3.2.6.6.6.3 0 .6-.2.6-.6v-1.4c0-.1-.1-.3-.2-.4L34 49.3V36.1c.6-3.3 1.5-6.2 4.2-8.8 1.9-.7 8.8 5 13.8 5-2.6-2.7-2.9-4.3-2-5.2 2.6 2.2 4.7 2.9 9.3 4.1l-2.9-4.9c7.2.7 7.8 5.7 9.6 11.8v11.2l-3.7 3.6c-.1.1-.2.2-.2.4v1.4c0 .3.2.6.6.6s.6-.2.6-.6v-1.1l2.6-2.6c-.3 2.2-1 4.5-2 6.6-1 .4-1.9.9-2.4 1.3zM30.7 42.4c.3-1.1.9-1.1 1.1-1.1.1 0 .3 0 .4.1h.1v8.4c-1.4-1.7-2.3-5.4-1.6-7.4zm37.1 7.4v-8.4h.1c.2 0 .3-.1.4-.1.2 0 .7 0 1.1 1.1.6 2-.3 5.7-1.6 7.4z"/><path class="st0" d="M48.4 63.3h4.2c.3 0 .5-.2.6-.5 0-.3-.2-.6-.5-.6h-4.2c-.3 0-.5.3-.5.6-.2.3.1.5.4.5zm-1.5-23.1c-2.6-1.5-7.6-1.4-9.6.3-.4.3-.4.9-.1 1.2.2.2.4.3.7.3.2 0 .4-.1.6-.2 1.4-1.1 5.4-1.4 7.6-.2.4.2 1 .1 1.2-.3.2-.4.1-.9-.4-1.1z"/><path class="st0" d="M26.8 39.3h46.6c1.8 0 3.3-1.5 3.3-3.3 0-1.8-1.5-3.3-3.3-3.3h-.9c0-8.7-5-16.2-12.2-19.9l-.7 3.8-1.2 6.7c-.1.8-.9 1.4-1.7 1.4h-.3c-.9-.2-1.6-1-1.4-2l1.3-7.4.8-4.6c-.8-1.3-2.2-2.1-3.8-2.1H47c-1.6 0-3 .8-3.8 2.1l.8 4.6 1.3 7.4c.2.9-.5 1.8-1.4 2h-.3c-.8 0-1.5-.6-1.7-1.4l-1.2-6.7-.7-3.8C32.7 16.5 27.8 24 27.8 32.7h-.9c-1.8 0-3.3 1.5-3.3 3.3-.1 1.8 1.4 3.3 3.2 3.3z"/></svg>