<svg xmlns="http://www.w3.org/2000/svg" id="airplane_1_" viewBox="0 0 231 376"><style>.st0{display:none}.st1{display:inline;fill:none;stroke:#000;stroke-miterlimit:10}.st2,.st3{stroke:#616161;stroke-width:6}.st2{stroke-linejoin:round;fill:#90caf9}.st3{fill:#f9d5a5}.st4{fill:#616161}.st5{fill:none;stroke:#616161;stroke-width:6;stroke-linecap:round;stroke-linejoin:round}.st6{opacity:.57;fill:#f2f2f2;enable-background:new}.st7{fill:#ffe0b2;stroke:#616161;stroke-width:6}.st8{fill:#fbb03b}.st9{opacity:.57;fill:#f57c00;enable-background:new}.st10{fill:#424242}</style><g id="grid" class="st0"><path d="M-131-15h500m-500 400h500M-81-65v500M319-65v500" class="st1"/></g><path d="M145.1 239H83.8L26 279.4V353h186v-73.6L145.1 239z" class="st2"/><path d="M98 220h40v33H98v-33z" class="st3"/><ellipse cx="127.8" cy="277.7" class="st4" rx="3.8" ry="3.5"/><ellipse cx="127.8" cy="292.2" class="st4" rx="3.8" ry="3.5"/><ellipse cx="127.8" cy="306.8" class="st4" rx="3.8" ry="3.5"/><ellipse cx="127.8" cy="321.4" class="st4" rx="3.8" ry="3.5"/><ellipse cx="127.8" cy="336" class="st4" rx="3.8" ry="3.5"/><path d="M65 347v-54m99 54v-54" class="st5"/><path d="M123.8 21.8S107.1 32.6 97.3 34c0 0 14.8.5 26.5-12.2z" class="st6"/><path d="M55.7 73l2.1 112.5 43.1 34.5h37.9l45.2-40.2V73H55.7zM52 123.7c-6 0-15.7 6.4-15.7 14.3S46 152.3 52 152.3v-28.6zm132 0c7 0 15.7 6.4 15.7 14.3s-8.7 14.3-15.7 14.3v-28.6z" class="st7"/><path d="M57.3 147H77v-27.6s14.2-6.1 7.5-44.9c0 0 37.1 14.2 75.5 3.8 0 0-2.9 27.9 10.1 40.7v28h14v-30s20.3-11.8 9.9-42.6c0 0 18.3-9.9 7.9-42.1 0 0-16.5 27.9-38.4 0 0 0-10.3-15.6-45.2-15.1 0 0-47.8-2.4-60.9 37.4 0 0-39 27.2-5.3 59.8L53 147h4.3z" class="st4"/><path d="M81.4 123h-3.8c-1.2 0-2.2.9-2.2 2s1 2 2.2 2h3.8c1.2 0 2.2-.9 2.2-2s-1-2-2.2-2zm91.2 0h-3.8c-1.2 0-2.2.9-2.2 2s1 2 2.2 2h3.8c1.2 0 2.2-.9 2.2-2 .1-1.1-.9-2-2.2-2z" class="st4"/><path d="M84.2 124.4c-.8 0-1.4.6-1.6.6h3.2c-.2 0-.8-.6-1.6-.6z" class="st8"/><path d="M117.7 126c-.2-.2-.3-.5-.5-.7s-.4-.3-.6-.4c-.5-.3-1-.6-1.6-.8-2.8-1.1-5.7-1.6-8.7-1.8-3.1-.3-6.2-.2-9.4.2-2 .2-4.1.6-6 1.2-1.3.4-2.4 1-2.9 2.2-.3.7-.5 1.3-.6 2-.5 3.4-.1 6.8.9 10.2.6 1.9 1.9 3.4 4.1 4.3.4.2.7.4 1.1.5.4.2.9.3 1.3.5 1.1.4 2.2.6 3.4.7 1.7.2 3.5.1 5.2 0 4.9-.4 9.5-2.4 12.2-5.9 1-1.4 1.8-2.9 2.3-4.5.6-1.7 1-3.5.9-5.3-.1-.5-.2-1.1-.5-1.6-.3-.4-.5-.6-.6-.8z" class="st9"/><path d="M84.2 125.6c.8 0 1.4.4 1.6-.6h-3.2c.2 1 .8.6 1.6.6z" class="st8"/><path d="M162 125.8c-.5-1.2-1.6-1.7-2.9-2.2-1.9-.7-3.9-1-6-1.2-3.1-.3-6.2-.4-9.4-.2-3 .2-5.9.7-8.7 1.8-.6.2-1.1.5-1.6.8-.2.1-.4.3-.6.4-.2.2-.4.5-.5.7-.2.2-.4.4-.5.7-.3.5-.4 1-.5 1.6-.1 1.8.3 3.6.9 5.3.5 1.6 1.2 3.1 2.3 4.5 2.6 3.5 7.3 5.5 12.2 5.9 1.7.1 3.5.2 5.2 0 1.2-.1 2.3-.3 3.4-.7.4-.2.9-.3 1.3-.5.4-.1.7-.3 1.1-.5 2.2-.9 3.5-2.4 4.1-4.3 1.1-3.3 1.4-6.7.9-10.2-.2-.6-.4-1.2-.7-1.9z" class="st9"/><path d="M165.8 124.4c-.8 0-1.4.6-1.6.6h3.2c-.2 0-.8-.6-1.6-.6zm0 1.2c.8 0 1.4.4 1.6-.6h-3.2c.2 1 .8.6 1.6.6z" class="st8"/><path d="M168.6 123.7c0-.2 0-.4-.1-.6-.1-.8-.3-1-1.3-1.1-1.3-.1-2.6-.1-3.9-.2-1.9-.2-3.7-.4-5.6-.5-.8-.1-1.5-.1-2.3-.2-1.3-.1-2.7-.2-4-.3-.7 0-1.3-.1-2-.1-1.7-.1-3.3 0-4.9.2l-3.3.3c-1.5.2-3 .4-4.5.7-1.8.3-3.6.7-5.4 1-2.1.4-4.2.5-6.4.5-2.1 0-4.2-.1-6.3-.5-1.8-.4-3.6-.7-5.4-1-1.5-.3-3-.5-4.5-.7l-3.3-.3c-1.6-.2-3.3-.3-4.9-.2-.7 0-1.3.1-2 .1-1.3.1-2.7.2-4 .3-.8.1-1.5.1-2.3.2-1.9.1-3.7.4-5.6.5-1.3.1-2.6.2-3.9.2-1 .1-1.2.2-1.3 1.1 0 .2-.1.4-.1.6 0 .9-.1 1.8-.1 2.7 0 .4.1.7.6.8 1.3.3 2 1 2.2 2.1.3 1.3.6 2.6.8 3.9.4 2 1 4 2 5.9.8 1.6 1.9 3.1 3.8 4 1.3.6 2.6 1.1 4 1.4 2.3.6 4.8.8 7.2.7 6.9-.3 13.1-3 16.3-8.1 1.3-2.1 2.3-4.3 3.2-6.5 1.2-2.8 5.8-2.9 7 0 .9 2.2 1.9 4.4 3.2 6.5 3.2 5.2 9.4 7.8 16.3 8.1 2.5.1 4.9-.1 7.2-.7 1.4-.3 2.7-.8 4-1.4 1.9-.9 3-2.3 3.8-4 1-1.9 1.5-3.9 2-5.9.3-1.3.6-2.6.8-3.9.2-1.1.9-1.8 2.2-2.1.5-.1.6-.5.6-.8.3-.9.2-1.8.2-2.7zm-84.4 1.9c-.8 0-1.4.4-1.6-.6h3.2c-.2 1-.8.6-1.6.6zm-1.6-.6c.2 0 .8-.6 1.6-.6s1.4.6 1.6.6h-3.2zm35.3 8.5c-.5 1.6-1.2 3.1-2.3 4.5-2.6 3.5-7.3 5.5-12.2 5.9-1.7.1-3.5.2-5.2 0-1.2-.1-2.3-.3-3.4-.7-.4-.2-.9-.3-1.3-.5-.4-.1-.7-.3-1.1-.5-2.2-.9-3.5-2.4-4.1-4.3-1.1-3.3-1.4-6.7-.9-10.2.1-.7.4-1.4.6-2 .5-1.2 1.6-1.7 2.9-2.2 1.9-.7 3.9-1 6-1.2 3.1-.3 6.2-.4 9.4-.2 3 .2 5.9.7 8.7 1.8.6.2 1.1.5 1.6.8.2.1.4.3.6.4.2.2.4.5.5.7.2.2.4.4.5.7.3.5.4 1 .5 1.6.2 1.9-.3 3.7-.8 5.4zm43.8 4.5c-.6 1.9-1.9 3.4-4.1 4.3-.4.2-.7.4-1.1.5-.4.2-.9.3-1.3.5-1.1.4-2.2.6-3.4.7-1.7.2-3.5.1-5.2 0-4.9-.4-9.5-2.4-12.2-5.9-1-1.4-1.8-2.9-2.3-4.5-.6-1.7-1-3.5-.9-5.3.1-.5.2-1.1.5-1.6.2-.2.4-.4.5-.7.2-.2.3-.5.5-.7s.4-.3.6-.4c.2-.1.4-.3.6-.4l.6-.3h.1c.1 0 .2-.1.3-.1.7-.3 1.3-.5 2-.7.3-.1.6-.2.9-.2.6-.1 1.2-.3 1.7-.4 1.3-.2 2.7-.4 4-.5 3.1-.3 6.2-.2 9.4.2 2.1.2 4.1.6 6 1.2 1.3.4 2.4 1 2.9 2.2.3.7.5 1.3.6 2 .7 3.4.4 6.8-.7 10.1zm4.1-12.4c-.8 0-1.4.4-1.6-.6h3.2c-.2 1-.8.6-1.6.6zm-1.6-.6c.2 0 .8-.6 1.6-.6s1.4.6 1.6.6h-3.2zm-39.1 25.3c-6.5.1-7.9 3-7.9 3 0-2.8 3.5-5.1 7.9-5.1 4.3 0 7.9 2.3 7.9 5.1 0 0-1.8-3.1-7.9-3z" class="st4"/><path d="M147.1 237.9c1.4 9.8 2.6 28.5-5.1 49.8-5.5 15.4-13.6 26.4-19.5 33.2-7.6-7.4-18.5-19.9-27.1-37.9-8.6-18.1-11.3-34.4-12.3-45-20 14.7-36 29.4-57.2 44.1V353h186v-70.9l-64.8-44.2z" class="st10"/><path d="M110.5 321.6h3.7v3.3h-3.7v-3.3z" class="st10"/><path d="M127.8 318.8c-.2.4-.7 1.2-2 1.8-.2.1-.7.3-1.5.6-.8.2-1.7.5-2.7.4-.8-.1-1.2-.4-2.5-1.3-.5-.3-1.3-.8-2.5-1.3-.2-25.8-.2-51.6-.3-77.3h9.6c.9 25.7 1.4 51.5 1.9 77.1z" class="st4"/><path d="M120.1 239.9l-12.8 24.6-22.8-26.1 18-18.5 17.6 20zm2.7-.6l11.6 23.8 20.6-25.3-16.3-17.9-15.9 19.4z" class="st2"/><path d="M116.1 315.5c-6.7-3.7-13.8-8-21.2-13-8.2-5.6-15.6-8.3-22-13.7l11.4-13.1H71.2l-5.6-22.5 22.3-16c4.7 13.8 9.5 27 14.4 40.9 4.7 12.9 9.2 24.8 13.8 37.4zm12.5-.5c6.1-3.9 12.1-7.9 18.3-11.8 7.1-4.6 14.2-7.8 21.2-12.2l-10.6-11.6h12.2c1.8-6.2 3.6-16 5.3-23.1-7-4.7-13.9-10.6-20.9-15.3-4.9 12.6-9.7 25.5-14.2 39.1-4.1 11.9-7.8 23.5-11.3 34.9z" class="st7"/><path d="M123 162.7s7.2-6.4 18.1-.7c0 0 8.9 6 10.9 6.6 1.4.3 4.9 1.1 6.6-.7 0 0 2.6-2.5-.7-5.6 0 0-2.5-2-4.4-.5 0 0 1.6-2.8 5.7-.9 0 0 4.8 1.9 3.6 9 0 0-2.2 8.4-15 8.3 0 0-13.9.6-23.2-6.3 0 0-1.4-1.2-1.8-1.2 0 0-.4 0-1.8 1.3 0 0-9.2 7.3-24.8 6.2 0 0-8.5-.9-11.7-5.7 0 0-4.2-6.7 1.9-11 0 0 1.8-1.4 5.6-.2 0 0-6.7-.2-4.9 5.9 0 0 .7 2.5 4 1.9 0 0 1.9 0 10.3-4.9 0 0 6-3.5 8.6-4.3.2.4 6.7-1.9 13 2.8" class="st4"/></svg>