<svg width="74" height="98" viewBox="0 0 74 98" xmlns="http://www.w3.org/2000/svg"><title>menu-livechat</title><g fill="none" fill-rule="evenodd"><path d="M36.7 27.8c.2.3.3.5.5.7-.1-.8-.2-1.5-.3-2 0 .5-.1.9-.2 1.3z"/><path d="M49 24.7h-.1l-1.3 1.2-15.9-8.2c-5.2-.5-6 6.5-6.1 7.1-.2-.1-.4-.2-.6-.2-.1 0-.2 0-.2.1-.5.4-.7 1.6-.4 3 .2 1.1.6 2 1 2.4.2.2.4.3.7.3.1 0 .2-.1.3-.2.1.4.3.8.5 1.3 1.5.4 3.1.6 4.8.5.3-.7.9-1.2 1.7-1.3 1.2-.2 2.4.6 2.7 1.9.3 1.3-.6 2.4-1.9 2.7-.9.2-1.7-.2-2.2-.9-.4 0-.8.1-1.2.1-.9 0-1.8-.1-2.7-.2 1.1 1.8 2.4 3.5 3.9 4.7 1.5 1.2 3.2 1.9 5 1.9 1.8 0 3.4-.7 4.9-1.9 2.6-2 4.6-5.3 5.6-8.5.1.1.2.1.3.2.2 0 .4 0 .6-.2.5-.4.9-1.4 1.1-2.5.3-1.7.1-3-.5-3.3z"/><path d="M36.4 5.5h1C-12.9-1 50.7 3.6 52.3 21.8c.1-1.1.3-2.2.6-3.1-1.8-8.4-8.3-14.6-16-14.6-7.7 0-14.2 6.2-16 14.6.2.7.4 1.4.5 2.3 2.1-17.3 15-15.5 15-15.5zm8.2 34.3c-1.3 1.3-2.8 2.3-4.3 2.9-1 .4-2.1.6-3.2.6s-2.2-.2-3.2-.6c-1.5-.6-3-1.6-4.3-2.9 0 1.6-1.2 2.5-2 2.9-.1.1-.2.1-.3.1-.3.1-.5.2-.5.2 0 .4.2.8.5 1.2 1.4 1.7 5.2 4.3 9.7 4.3 4.5 0 8.4-2.5 9.7-4.3.3-.4.5-.8.5-1.2-.5-.2-2.6-1.1-2.6-3.2z"/><path d="M67.1 95.2H6.9c-.6 0-1.1.5-1.1 1.1 0 .6.5 1.1 1.1 1.1h60.3c.6 0 1.1-.5 1.1-1.1-.1-.6-.6-1.1-1.2-1.1zm-56.6-.9h53.1c2.5 0 4.5-2 4.5-4.5L73.4 59c0-2.5-2-4.5-4.5-4.5h-4.3c0 .1.1.2.1.3H10c0-.1.1-.2.1-.3H5.2c-2.5 0-4.5 2-4.5 4.6L6 89.8c-.1 2.5 2 4.5 4.5 4.5zM5.1 55h63.7c2.2 0 4 1.8 4 3.9l-5.3 30.8c0 2.2-1.8 4-4 4h-53c-2.2 0-4-1.8-4-4L1.2 59c0-2.2 1.7-4 3.9-4z" fill="#424242"/><path d="M64.6 54.8c0-.1-.1-.2-.1-.3-3.2-10-8.7-10.4-9.9-10.7-.1 0-.3-.1-.4-.1-3.4-3.2-1.6-15.4-1.3-17.7.4 2.8 1.5 4.9 2.8 4.9 1.6 0 3-3.3 3-7.4 0-3.5-1-6.4-2.2-7.1C53.9 7.3 46.4.7 37.5.7c-8.8 0-16.3 6.6-19 15.7-1.3.8-2.2 3.7-2.2 7.1 0 4.1 1.3 7.4 3 7.4.5 0 .9-.3 1.3-.7.6.6 1.2 1.2 2 1.8.3 4.4.2 9.9-1.9 11.9-.1 0-.3.1-.4.1-1.2.3-6.7.7-9.9 10.7 0 .1-.1.2-.1.3l54.3-.2zM47.5 43c0 .4-.2.8-.5 1.2-1.4 1.7-5.2 4.3-9.7 4.3-4.5 0-8.4-2.5-9.7-4.3-.3-.4-.5-.8-.5-1.2.1 0 .2-.1.4-.2.1 0 .2-.1.3-.1.8-.4 2-1.3 2-2.9 1.3 1.3 2.8 2.3 4.3 2.9 1 .4 2.1.6 3.2.6s2.2-.2 3.2-.6c1.5-.6 3-1.6 4.3-2.9.1 2.1 2.2 3 2.7 3.2zm2.4-15.2c-.2 1.2-.7 2.1-1.1 2.5-.2.2-.4.2-.6.2-.1 0-.2-.1-.3-.2-1.1 3.3-3.1 6.6-5.6 8.5-1.5 1.2-3.2 1.9-4.9 1.9-1.8 0-3.5-.7-5-1.9s-2.8-2.8-3.9-4.7c.9.1 1.8.2 2.7.2.4 0 .8 0 1.2-.1.5.7 1.3 1.1 2.2.9 1.3-.2 2.1-1.4 1.9-2.7-.2-1.2-1.4-2.1-2.7-1.9-.8.1-1.4.7-1.7 1.3-1.7.1-3.3-.1-4.8-.5-.2-.4-.3-.8-.5-1.3-.1.1-.2.1-.3.2-.2 0-.4-.1-.7-.3-.4-.4-.9-1.3-1-2.4-.3-1.4-.1-2.7.4-3 .1 0 .1-.1.2-.1.2 0 .4 0 .6.2.1-.6.9-7.6 6.1-7.1L48 25.9l1.3-1.2h.1c.5.3.8 1.6.5 3.1zm-28.4 0l.3-1.2c.1.5.2 1.2.3 2-.2-.3-.4-.5-.6-.8zm.4-6.8c-.1-.8-.3-1.6-.5-2.3 1.8-8.4 8.3-14.6 16-14.6 7.7 0 14.2 6.2 16 14.6-.3.9-.5 1.9-.6 3.1-1.7-18.2-15-16.3-15-16.3h-1c-.1 0-13-1.8-14.9 15.5zm15.3 52l1.1 2.2 2.4.3-1.7 1.7.4 2.3-2.2-1.1-2.1 1.1.4-2.3-1.7-1.7 2.4-.3 1-2.2z" fill="#424242"/></g></svg>