<svg id="Layer_1" xmlns="http://www.w3.org/2000/svg" viewBox="0 0 100 75.8"><style>.st0{fill:#e65100}</style><path class="st0" d="M10.5 8.2c-.8 0-1.5.1-2.2.4L49.9 43 92.1 8.7c-.8-.4-1.6-.6-2.5-.6l-79.1.1z"/><path class="st0" d="M95.4 12.7L51.5 48.4c-.5.4-1.1.6-1.7.6-.6 0-1.2-.2-1.7-.6l-43.5-36c-.2.6-.3 1.2-.3 1.9v47.2c0 .7.1 1.4.4 2L29 39.9c1-1 2.7-1 3.7 0s1 2.7 0 3.7L8.4 67.2c.6.2 1.3.4 2.1.4h79c.8 0 1.6-.2 2.3-.5L67.5 43.4c-1-1-1-2.7 0-3.7s2.6-1 3.7 0l24.2 23.6c.2-.6.3-1.2.3-1.8V14.3c-.1-.6-.2-1.1-.3-1.6z"/></svg>