<svg id="Layer_1" xmlns="http://www.w3.org/2000/svg" viewBox="0 0 24 24"><style>.st0{fill:none}.st1{fill:#424242}.st2{opacity:.87;fill:none;stroke:#424242;stroke-miterlimit:10}</style><path class="st0" d="M0 0h24v24H0V0z"/><path class="st1" d="M6.3 11.1c1.3 2.6 3.4 4.7 6 6l2-2c.2-.2.6-.3.9-.2 1 .3 2.1.5 3.3.5.5 0 .9.4.9.9v3.2c0 .5-.4.9-.9.9C10 20.5 3 13.5 3 4.9c0-.5.4-.9.9-.9h3.2c.5 0 .9.4.9.9 0 1.1.2 2.2.5 3.3.1.3 0 .7-.2.9l-2 2z"/><path class="st2" d="M1.2 1.2h21.5v21.5H1.2z"/><path class="st1" d="M19.2 4H13c-.4 0-.8.3-.8.8v4.6c0 .4.3.8.8.8h6.2c.4 0 .8-.3.8-.8V4.8c0-.5-.3-.8-.8-.8zm0 1.5l-3.1 1.9L13 5.5v-.7l3.1 1.9 3.1-1.9v.7z"/></svg>