<svg width="92" height="60" viewBox="0 0 92 60" xmlns="http://www.w3.org/2000/svg"><title>menu-email</title><g fill="#424242" fill-rule="evenodd"><path d="M6.5.2C5.7.2 5 .3 4.3.6L45.9 35 88.1.7c-.8-.4-1.6-.6-2.5-.6L6.5.2z"/><path d="M91.4 4.7L47.5 40.4c-.5.4-1.1.6-1.7.6-.6 0-1.2-.2-1.7-.6L.6 4.4C.4 5 .3 5.6.3 6.3v47.2c0 .7.1 1.4.4 2L25 31.9c1-1 2.7-1 3.7 0s1 2.7 0 3.7L4.4 59.2c.6.2 1.3.4 2.1.4h79c.8 0 1.6-.2 2.3-.5L63.5 35.4c-1-1-1-2.7 0-3.7s2.6-1 3.7 0l24.2 23.6c.2-.6.3-1.2.3-1.8V6.3c-.1-.6-.2-1.1-.3-1.6z"/></g></svg>