<svg width="382" height="274" viewBox="0 0 382 274" xmlns="http://www.w3.org/2000/svg"><title>airplane</title><g fill="none" fill-rule="evenodd"><path d="M377.3 12.9c-7.2 0-34.6 3.2-39.4 3.8-17.1 2.3-34.1 4.6-51.2 6.8-40.7 5.4-81.4 10.9-122.1 16.3-36.8 4.9-73.7 9.8-110.5 14.8l-31.2 4.2-15.6 2.1c-1.6.2-5 .6-6.6 1.1-1.1.4.4 2.1 1.5 3.1.7.6 1.3 1.4 2 2.1l5.1 5.4c4.6 4.9 9.2 9.8 13.9 14.7 10.6 11.2 21.1 22.5 31.7 33.7 5.4 5.7 10.7 11.4 16.1 17.1 1.3 10.8 2.6 21.7 3.9 32.5 1.8 14.8 3.5 29.7 5.3 44.5.4 3.1.7 6.2 1.1 9.4.2 2.1 1 10.8 3 9.7 3-1.7 8.2-4.8 10.6-6.4 5.1-3.5 10.2-6.9 15.3-10.4 7-4.7 13.9-9.4 20.9-14.1 5.3 6.2 10.7 12.5 16 18.8 9.8 11.5 19.7 23.1 29.5 34.6 3.1 3.7 6.3 7.4 9.4 11l3.3 3.9c.4.4.9 1.4 1.4 1.6 3.6 2 4.8-2.3 6.4-4.4 2.6-3.7 5.3-7.4 7.9-11.1 5.3-7.4 10.6-14.8 15.8-22.1 20.9-29.2 41.8-58.4 62.7-87.7 21.2-29.7 42.4-59.3 63.6-89 6-8.3 11.9-16.6 17.8-25 2.4-3.4 16.7-21 12.4-21z" opacity=".1" fill="#757575"/><path d="M93.9 151.3c1-3.8 1.4-7.1 3.2-9.7.9-1.3 2.2-2.5 4.1-3.5 16.3-8.6 33.1-16.2 49.6-24.3 22.9-11.2 45.8-22.4 68.7-33.7 23.8-11.7 47.6-23.3 71.4-35 18.1-8.9 36.2-17.7 54.3-26.6 5.9-2.9 11.9-6.6 18-8.8L75.1 116.1l6.9 79.4c2.3-8.7 4.7-17.4 7-26 1.6-6.1 3.3-12.2 4.9-18.2z" fill="#F57C00"/><path d="M10.3 40.5l63.2 71.6L363 5 10.3 40.5z" fill="#FF9800"/><path d="M83.7 205.8l42.2-26.6-26.2-32.8-16 59.4z" fill="#FFA726"/><path d="M187.5 249.5l182.9-239-268.3 131.9 85.4 107.1z" fill="#FF9800"/><path d="M341.4 2.8C324.3 4.5 307.2 6.2 290 8c-40.8 4.1-81.7 8.2-122.5 12.3-37 3.7-74 7.4-110.9 11.2-17.9 1.8-35.8 3.6-53.8 5.4h-.5l-.8.1 69.2 78.5c.9 10.9 1.9 21.7 2.8 32.6l3.9 44.7c.3 3.1.5 6.3.8 9.4.2 2.1.6 10.8 2.7 9.8 3-1.6 8.3-4.5 10.8-6.1l15.6-9.9c7.1-4.5 14.2-9 21.3-13.4l58.6 73.5.3.4c9.9-12.9 19.7-25.8 29.6-38.7 21.8-28.5 43.7-57.1 65.5-85.6 22.2-29 44.3-57.9 66.5-86.9 6.2-8.1 12.4-16.2 18.7-24.4C370.4 17.5 385.2.4 380.9.2c-7.1-.1-34.7 2.1-39.5 2.6zM10.3 40.5L363 5 73.5 112.1 10.3 40.5zm71.7 155l-6.9-79.4L363.4 9.6c-6.2 2.3-12.1 5.9-18 8.8-18.1 8.9-36.2 17.7-54.3 26.6-23.8 11.7-47.6 23.3-71.4 35-22.9 11.2-45.8 22.4-68.7 33.7-16.5 8.1-33.4 15.7-49.6 24.3-1.9 1-3.2 2.2-4.1 3.5-1.8 2.6-2.2 5.9-3.2 9.7-1.6 6.1-3.3 12.2-4.9 18.2-2.5 8.8-4.9 17.5-7.2 26.1zm1.7 10.3l16.1-59.4 26.2 32.8-42.3 26.6zm103.8 43.7l-85.4-107L370.3 10.6 187.5 249.5z" fill="#FFCC80"/></g></svg>