<svg width="247" height="177" viewBox="0 0 247 177" xmlns="http://www.w3.org/2000/svg"><title>paperplane</title><g id="Page-1" fill="none" fill-rule="evenodd"><g id="paperplane"><g id="Group"><path d="M243.9,8.3 C239.3,8.3 221.5,10.3 218.4,10.8 C207.4,12.3 196.4,13.7 185.3,15.2 L106.4,25.7 C82.6,28.8 58.8,32 35,35.2 C28.3,36.1 21.6,37 14.8,37.9 C11.4,38.3 8.1,38.8 4.7,39.2 C3.7,39.3 1.4,39.6 0.4,39.9 C-0.3,40.2 0.6,41.3 1.3,41.9 C1.8,42.3 2.2,42.8 2.6,43.3 C3.7,44.5 4.8,45.6 5.9,46.8 C8.9,50 11.9,53.2 14.9,56.3 C21.7,63.6 28.6,70.8 35.4,78.1 C38.9,81.8 42.3,85.5 45.8,89.2 C46.6,96.2 47.5,103.2 48.3,110.2 C49.4,119.8 50.6,129.4 51.7,139 C51.9,141 52.2,143 52.4,145.1 C52.6,146.5 53,152.1 54.3,151.4 C56.2,150.3 59.6,148.3 61.2,147.2 C64.5,145 67.8,142.7 71.1,140.5 C75.6,137.5 80.1,134.4 84.6,131.4 C88,135.4 91.5,139.5 94.9,143.5 C101.3,151 107.6,158.4 114,165.9 C116,168.3 118.1,170.7 120.1,173 C120.8,173.8 121.5,174.7 122.2,175.5 C122.4,175.8 122.8,176.4 123.1,176.6 C125.4,177.9 126.2,175.1 127.2,173.7 C128.9,171.3 130.6,168.9 132.3,166.5 C135.7,161.7 139.1,157 142.5,152.2 C156,133.3 169.5,114.4 183,95.5 C196.7,76.3 210.4,57.2 224.1,38 C227.9,32.6 231.8,27.2 235.6,21.9 C237.5,19.6 246.7,8.3 243.9,8.3 L243.9,8.3 Z" id="Shape" fill="#333" opacity=".1"/><g id="Shape"><path d="M59.7,97.7 C60.4,95.2 60.6,93.1 61.8,91.4 C62.4,90.5 63.2,89.8 64.5,89.1 C75,83.5 85.9,78.6 96.6,73.4 C111.4,66.1 126.2,58.9 141,51.6 C156.4,44.1 171.8,36.5 187.2,29 C198.9,23.3 210.6,17.5 222.3,11.8 C226.1,9.9 230,7.6 234,6.1 L47.6,75 L52,126.3 C53.5,120.7 55,115.1 56.5,109.5 C57.6,105.6 58.6,101.6 59.7,97.7 L59.7,97.7 Z" fill="#B6BFD0" transform="translate(1)"/><path d="M5.7,26.1 L46.5,72.4 L233.7,3.1 L5.7,26.1 Z" fill="#EAEDF7" transform="translate(1)"/><path d="M53.1,133 L80.4,115.8 L63.5,94.5 L53.1,133 Z" fill="#EAEDF7" transform="translate(1)"/><path d="M120.2,161.2 L238.4,6.7 L65,92 L120.2,161.2 Z" fill="#EAEDF7" transform="translate(1)"/><path d="M219.7,1.7 C208.6,2.8 197.6,3.9 186.5,5 C160.1,7.7 133.7,10.3 107.3,13 L35.6,20.2 C24,21.4 12.4,22.6 0.8,23.8 L0.5,23.8 L0,23.9 L44.7,74.7 C45.3,81.7 45.9,88.7 46.5,95.8 C47.3,105.4 48.2,115.1 49,124.7 C49.2,126.7 49.4,128.7 49.5,130.8 C49.6,132.2 49.9,137.8 51.2,137.1 C53.2,136.1 56.6,134.2 58.2,133.2 C61.6,131.1 64.9,129 68.3,126.8 C72.9,123.9 77.5,121 82.1,118.1 L120,165.6 L120.2,165.9 C126.6,157.6 133,149.2 139.4,140.9 C153.5,122.5 167.6,104 181.7,85.6 C196,66.9 210.3,48.2 224.7,29.4 C228.7,24.1 232.7,18.9 236.8,13.6 C238.5,11.4 248.1,0.3 245.3,0.2 C240.6,3.24740235e-15 222.8,1.4 219.7,1.7 L219.7,1.7 Z M5.7,26.1 L233.7,3.1 L46.5,72.4 L5.7,26.1 L5.7,26.1 Z M52,126.3 L47.5,75 L233.9,6.1 C229.9,7.6 226.1,9.9 222.2,11.8 C210.5,17.5 198.8,23.3 187.1,29 C171.7,36.5 156.3,44.1 140.9,51.6 C126.1,58.9 111.3,66.1 96.5,73.4 C85.8,78.6 74.9,83.6 64.4,89.1 C63.2,89.8 62.3,90.5 61.7,91.4 C60.5,93.1 60.3,95.2 59.6,97.7 C58.5,101.6 57.5,105.6 56.4,109.5 C55,115.1 53.5,120.7 52,126.3 L52,126.3 Z M53.1,133 L63.5,94.6 L80.4,115.8 L53.1,133 L53.1,133 Z M120.2,161.2 L65,92 L238.4,6.7 L120.2,161.2 L120.2,161.2 Z" fill="#DFE3E9" transform="translate(1)"/></g></g></g></g></svg>