<svg width="402" height="290" viewBox="0 0 402 290" xmlns="http://www.w3.org/2000/svg"><title>dallas-san-antonio-roofing-contractor-store-pic</title><g id="Page-1" fill="none" fill-rule="evenodd"><g id="dallas-san-antonio-roofing-contractor-store-pic"><path d="M329.4,192 C312.6,192 298.9,205.6 298.9,222.5 L298.9,262.4 L359.8,262.4 L359.8,222.5 C359.9,205.7 346.3,192 329.4,192 L329.4,192 Z" id="Shape" fill="#FFB74D"/><circle id="Oval" fill="#FFCC80" cx="366.5" cy="237.3" r="21.3"/><circle id="Oval" fill="#FFCC80" cx="24.4" cy="244.4" r="14.2"/><circle id="Oval" fill="#FFB74D" cx="55.7" cy="229.3" r="29.2"/><path d="M0.2,250.7 L400.1,250.7 L400.1,267 L0.2,267 L0.2,250.7 Z" id="Shape" fill="#757575"/><path d="M67.3,83.9 L333.2,83.9 L333.2,250.8 L67.3,250.8 L67.3,83.9 Z" id="Shape" fill="#FFCC80"/><path d="M333.9,240.7 L308.5,240.7 L308.5,250.8 L336.8,250.8 L336.8,243.6 C336.8,242 335.5,240.7 333.9,240.7 L333.9,240.7 Z" id="Shape" fill="#E3F2FD"/><path d="M233.8,130.1 L308.5,130.1 L308.5,250.8 L233.8,250.8 L233.8,130.1 Z" id="Shape" fill="#EF6C00"/><path d="M238.3,134.5 L304.1,134.5 L304.1,246.3 L238.3,246.3 L238.3,134.5 Z" id="Shape" fill="#FFB74D"/><g id="Group" fill="#FB8C00"><path d="M66.1,28.2 L66.1,35 L31.6,0.5 L38.4,0.5 L66.1,28.2 Z M66.1,95.6 L66.1,102.4 L0.3,36.6 L0.3,29.7 L66.1,95.6 Z M66.1,38.7 L66.1,52.4 L14.2,0.5 L27.9,0.5 L66.1,38.7 Z" id="Shape" transform="translate(238 134)"/></g><path d="M238.3,134.5 L304.1,134.5 L304.1,136.9 L238.3,136.9 L238.3,134.5 Z" id="Shape" opacity=".2" fill="#616161"/><path d="M233.8,223.9 L233.8,250.7 L260.7,250.7 L233.8,223.9 Z" id="Shape" opacity=".4" fill="#616161"/><circle id="Oval" fill="#E3F2FD" cx="246.2" cy="182.6" r="2.8"/><circle id="Oval" fill="#E3F2FD" cx="246.2" cy="202.9" r="2.8"/><path d="M246.2,180.3 C245.3,180.3 244.6,181 244.6,181.9 L244.6,203.4 C244.6,204.3 245.3,205 246.2,205 C247.1,205 247.8,204.3 247.8,203.4 L247.8,182 C247.9,181.1 247.1,180.3 246.2,180.3 L246.2,180.3 Z M233.8,240.7 L65.8,240.7 C64.6,240.7 63.6,241.7 63.6,242.9 L63.6,250.8 L233.8,250.8 L233.8,240.7 L233.8,240.7 Z" id="Shape" fill="#E3F2FD"/><path d="M66.9,73.3 L333.4,73.3 L333.4,78.2 L66.9,78.2 L66.9,73.3 Z" id="Shape" fill="#757575"/><path d="M66.9,63.5 L333.4,63.5 L333.4,68.4 L66.9,68.4 L66.9,63.5 Z" id="Shape" fill="#FFCC80"/><path d="M70.2,68.4 L330.2,68.4 L330.2,73.3 L70.2,73.3 L70.2,68.4 Z" id="Shape" fill="#FFB74D"/><path d="M70.2,68.4 L330.2,68.4 L330.2,70.8 L70.2,70.8 L70.2,68.4 Z" id="Shape" fill="#EF6C00"/><path d="M285.1,120.1 L300,120.1 L300,125.9 L285.1,125.9 L285.1,120.1 Z M303.9,120.1 L318.8,120.1 L318.8,125.9 L303.9,125.9 L303.9,120.1 Z M294.6,110.5 L309.5,110.5 L309.5,116.3 L294.6,116.3 L294.6,110.5 Z M311.4,201.5 L326.3,201.5 L326.3,207.3 L311.4,207.3 L311.4,201.5 Z M320.9,191.9 L329.5,191.9 L329.5,197.7 L320.9,197.7 L320.9,191.9 Z M91.9,120.1 L106.8,120.1 L106.8,125.9 L91.9,125.9 L91.9,120.1 Z M110.7,120.1 L125.6,120.1 L125.6,125.9 L110.7,125.9 L110.7,120.1 Z M101.3,110.5 L116.2,110.5 L116.2,116.3 L101.3,116.3 L101.3,110.5 Z M120.2,110.5 L135.1,110.5 L135.1,116.3 L120.2,116.3 L120.2,110.5 Z M137.1,230.2 L152,230.2 L152,236 L137.1,236 L137.1,230.2 Z M192.8,220.6 L207.7,220.6 L207.7,226.4 L192.8,226.4 L192.8,220.6 Z M118.3,230.2 L133.2,230.2 L133.2,236 L118.3,236 L118.3,230.2 Z M127.7,220.6 L142.6,220.6 L142.6,226.4 L127.7,226.4 L127.7,220.6 Z M108.8,220.6 L123.7,220.6 L123.7,226.4 L108.8,226.4 L108.8,220.6 Z M67.9,170.4 L78.7,170.4 L78.7,176.2 L67.9,176.2 L67.9,170.4 Z M74.7,160.7 L85.5,160.7 L85.5,166.5 L74.7,166.5 L74.7,160.7 Z" id="Shape" fill="#FFBB58"/><path d="M308.5,147.1 C307.9,147.1 307.4,147.6 307.4,148.2 L307.4,156.7 C307.4,157.3 307.9,157.8 308.5,157.8 C309.1,157.8 309.6,157.3 309.6,156.7 L309.6,148.2 C309.6,147.6 309.1,147.1 308.5,147.1 L308.5,147.1 Z M308.5,223 C307.9,223 307.4,223.5 307.4,224.1 L307.4,232.6 C307.4,233.2 307.9,233.7 308.5,233.7 C309.1,233.7 309.6,233.2 309.6,232.6 L309.6,224.1 C309.6,223.5 309.1,223 308.5,223 L308.5,223 Z" id="Shape" fill="#F5F5F5"/><path d="M189.4,120.1 L196.9,120.1 L196.9,125.9 L189.4,125.9 L189.4,120.1 Z M197.9,110.5 L205.4,110.5 L205.4,116.3 L197.9,116.3 L197.9,110.5 Z M177.9,110.5 L192.8,110.5 L192.8,116.3 L177.9,116.3 L177.9,110.5 Z M77.5,220.2 L85,220.2 L85,226 L77.5,226 L77.5,220.2 Z M71.4,210.6 L79.7,210.6 L79.7,216.4 L71.4,216.4 L71.4,210.6 Z M313.8,163.4 L324.6,163.4 L324.6,169.2 L313.8,169.2 L313.8,163.4 Z M214.7,145.2 L222.2,145.2 L222.2,151 L214.7,151 L214.7,145.2 Z M218.5,153.6 L226,153.6 L226,159.4 L218.5,159.4 L218.5,153.6 Z" id="Shape" fill="#FFBB58"/><g id="Group"><path d="M31.3,21.2 C31.3,29.8 38.3,36.8 46.9,36.8 C55.5,36.8 62.5,29.8 62.5,21.2 L62.5,11.5 L31.4,11.5 L31.4,21.2 L31.3,21.2 L31.3,21.2 Z M93.5,21.2 C93.5,29.8 100.5,36.8 109.1,36.8 C117.7,36.8 124.7,29.8 124.7,21.2 L124.7,11.5 L93.6,11.5 L93.6,21.2 L93.5,21.2 L93.5,21.2 Z M155.7,21.2 C155.7,29.8 162.7,36.8 171.3,36.8 C179.9,36.8 186.9,29.8 186.9,21.2 L186.9,11.5 L155.8,11.5 L155.8,21.2 L155.7,21.2 L155.7,21.2 Z M217.9,11.5 L217.9,21.2 C217.9,29.8 224.9,36.8 233.5,36.8 C242.1,36.8 249.1,29.8 249.1,21.2 L249.1,11.5 L217.9,11.5 L217.9,11.5 Z" id="Shape" fill="#FFF3E0" transform="translate(60 78)"/><path d="M31.3,11.5 L62.4,11.5 L66.2,0.2 L36.5,0.2 L31.3,11.5 Z M93.5,11.5 L124.6,11.5 L125.4,0.2 L95.8,0.2 L93.5,11.5 Z M155,0.2 L155.7,11.5 L186.8,11.5 L184.6,0.2 L155,0.2 Z M243.8,0.2 L214.2,0.2 L217.9,11.5 L249,11.5 L243.8,0.2 Z" id="Shape" fill="#FFE0B2" transform="translate(60 78)"/><path d="M0.2,21.2 C0.2,29.8 7.2,36.8 15.8,36.8 C24.4,36.8 31.4,29.8 31.4,21.2 L31.4,11.5 L0.3,11.5 L0.2,21.2 L0.2,21.2 Z M62.4,21.2 C62.4,29.8 69.4,36.8 78,36.8 C86.6,36.8 93.6,29.8 93.6,21.2 L93.6,11.5 L62.5,11.5 L62.5,21.2 L62.4,21.2 L62.4,21.2 Z M124.6,21.2 C124.6,29.8 131.6,36.8 140.2,36.8 C148.8,36.8 155.8,29.8 155.8,21.2 L155.8,11.5 L124.7,11.5 L124.7,21.2 L124.6,21.2 L124.6,21.2 Z M186.8,21.2 C186.8,29.8 193.8,36.8 202.4,36.8 C211,36.8 218,29.8 218,21.2 L218,11.5 L186.9,11.5 L186.9,21.2 L186.8,21.2 L186.8,21.2 Z M249,11.5 L249,21.2 C249,29.8 256,36.8 264.6,36.8 C273.2,36.8 280.2,29.8 280.2,21.2 L280.2,11.5 L249,11.5 L249,11.5 Z" id="Shape" fill="#FB8C00" transform="translate(60 78)"/><path d="M0.2,11.5 L31.3,11.5 L36.5,0.2 L6.9,0.2 L0.2,11.5 Z M62.4,11.5 L93.5,11.5 L95.8,0.2 L66.2,0.2 L62.4,11.5 Z M125.4,0.2 L124.6,11.5 L155.7,11.5 L155,0.2 L125.4,0.2 Z M184.6,0.2 L186.8,11.5 L217.9,11.5 L214.2,0.2 L184.6,0.2 Z M273.5,0.2 L243.8,0.2 L249,11.5 L280.2,11.5 L273.5,0.2 Z" id="Shape" fill="#F57C00" transform="translate(60 78)"/></g><path d="M70.2,130.1 L78.1,130.1 L78.1,135.9 L70.2,135.9 L70.2,130.1 Z" id="Shape" fill="#FFBB58"/><g id="Group"><path d="M7.2,0.3 L133.7,0.3 L133.7,77.1 L7.2,77.1 L7.2,0.3 Z" id="Shape" fill="#EF6C00" transform="translate(81 131)"/><path d="M11.6,4.7 L129.3,4.7 L129.3,72.6 L11.6,72.6 L11.6,4.7 Z" id="Shape" fill="#FFB74D" transform="translate(81 131)"/><path d="M79.3,20.8 L79.3,31.3 L48.8,0.7 L59.3,0.7 L79.3,20.8 Z M79.3,34.2 L79.3,39.4 L40.6,0.7 L45.9,0.7 L79.3,34.2 Z M79.3,58.1 L79.3,68.6 L68.8,68.6 L0.9,0.7 L21.9,0.7 L79.3,58.1 Z" transform="translate(131 135)" id="Shape" fill="#FB8C00"/><path d="M11.6,4.7 L129.3,4.7 L129.3,7.1 L11.6,7.1 L11.6,4.7 Z" id="Shape" opacity=".2" fill="#616161" transform="translate(81 131)"/><path d="M0.6,77.1 L140.3,77.1 L140.3,91.5 L0.6,91.5 L0.6,77.1 Z" id="Shape" fill="#E3F2FD" transform="translate(81 131)"/><path d="M131.7,68.6 L9.3,68.6 C6.1,68.6 3.4,71.2 3.4,74.5 L3.4,77.1 L137.5,77.1 L137.5,74.5 C137.5,71.2 134.9,68.6 131.7,68.6 L131.7,68.6 Z" id="Shape" fill="#FFB74D" transform="translate(81 131)"/><path d="M0.6,77.1 L140.3,77.1 L140.3,80.2 L0.6,80.2 L0.6,77.1 Z" id="Shape" opacity=".5" fill="#BBDEFB" transform="translate(81 131)"/><path d="M137.5,74.2 L3.4,74.2 L3.4,77.1 L137.5,77.1 L137.5,74.5 L137.5,74.2 L137.5,74.2 Z" id="Shape" opacity=".2" fill="#616161" transform="translate(81 131)"/><path d="M153.1,90.4 L153.1,120.6 L29.1,120.6 L0.9,92.4 L140.6,92.4 L140.6,77.9 L153.1,90.4 Z" id="Shape" opacity=".4" fill="#616161" transform="translate(81 131)"/></g><path d="M337.5,0.8 L62.9,0.8 C58.6,0.8 55.1,4.3 55.1,8.6 L55.1,51 C55.1,55.3 58.6,58.8 62.9,58.8 L337.6,58.8 C341.9,58.8 345.4,55.3 345.4,51 L345.4,8.6 C345.3,4.3 341.8,0.8 337.5,0.8 L337.5,0.8 Z" id="Shape" fill="#EF6C00"/><path d="M335.8,5.4 L64.6,5.4 C61.8,5.4 59.6,7.6 59.6,10.4 L59.6,49.2 C59.6,52 61.8,54.2 64.6,54.2 L335.8,54.2 C338.6,54.2 340.8,52 340.8,49.2 L340.8,10.4 C340.8,7.6 338.6,5.4 335.8,5.4 L335.8,5.4 Z" id="Shape" fill="#FFA726"/><path d="M340.8,10.4 L340.8,11 L59.6,11 L59.6,10.4 C59.6,7.6 61.8,5.4 64.6,5.4 L335.8,5.4 C338.6,5.4 340.8,7.6 340.8,10.4 L340.8,10.4 Z" id="Shape" opacity=".2" fill="#FFB74D"/><path d="M81.5,36.7 L80.1,36.7 L80.1,41.3 L74.7,41.3 L74.7,24.1 L81.9,24.1 C86.8,24.1 89.6,26.6 89.6,30.3 C89.5,34.5 86.7,36.7 81.5,36.7 L81.5,36.7 Z M81.4,28.3 L79.9,28.3 L79.9,32.8 L81.3,32.8 C83.2,32.8 84.1,32 84.1,30.5 C84.1,29 83.2,28.3 81.4,28.3 L81.4,28.3 Z M95.9,41.4 L95.9,24.2 L101.3,24.2 L101.3,41.4 L95.9,41.4 L95.9,41.4 Z M117,41.8 C111.9,41.8 107.8,38.8 107.8,32.8 C107.8,27.2 111.9,23.7 117,23.7 C122.1,23.7 126.2,26.6 126.2,32.6 C126.3,38.3 122.2,41.8 117,41.8 L117,41.8 Z M117,28 C114.5,28 113.3,29.9 113.3,32.7 C113.3,35.5 114.6,37.5 117.1,37.5 C119.6,37.5 120.8,35.5 120.8,32.8 C120.8,30 119.5,28 117,28 L117,28 Z M144.8,24.2 L149.8,24.2 L149.8,41.6 L144,41.6 L137.8,31.7 L137.8,41.4 L132.8,41.4 L132.8,24.2 L138.6,24.2 L144.7,34 L144.7,24.2 L144.8,24.2 Z M157,41.4 L157,24.2 L170.4,24.2 L170.4,28.4 L162.3,28.4 L162.3,30.7 L168.7,30.7 L168.7,34.9 L162.3,34.9 L162.3,37.2 L170.4,37.2 L170.4,41.4 L157,41.4 L157,41.4 Z M177.2,41.4 L177.2,24.2 L190.6,24.2 L190.6,28.4 L182.5,28.4 L182.5,30.7 L188.9,30.7 L188.9,34.9 L182.5,34.9 L182.5,37.2 L190.6,37.2 L190.6,41.4 L177.2,41.4 L177.2,41.4 Z M202.7,41.4 L197.3,41.4 L197.3,24.2 L205.1,24.2 C209.9,24.2 212.4,26.4 212.4,29.8 C212.4,32 211.3,33.8 209,34.8 L213.3,41.4 L207.3,41.4 L204.2,36.2 L202.7,36.3 L202.7,41.4 L202.7,41.4 Z M204.5,32.4 C206.2,32.2 206.8,31.6 206.8,30.2 C206.8,28.9 206.1,28.3 204.1,28.3 L202.6,28.3 L202.6,32.4 L204.5,32.4 L204.5,32.4 Z" id="Shape" fill="#FFF3E0"/><path d="M238,28.6 L238,41.4 L232.6,41.4 L232.6,28.6 L227.4,28.6 L227.4,24.2 L243.2,24.2 L243.2,28.6 L238,28.6 L238,28.6 Z M249.5,41.4 L249.5,24.2 L262.9,24.2 L262.9,28.4 L254.8,28.4 L254.8,30.7 L261.2,30.7 L261.2,34.9 L254.8,34.9 L254.8,37.2 L262.9,37.2 L262.9,41.4 L249.5,41.4 L249.5,41.4 Z M274.2,41.4 L268.3,41.4 L274.1,32.8 L268.5,24.2 L274.5,24.2 L277.4,29.2 L280.4,24.2 L286.3,24.2 L280.6,32.6 L286.5,41.4 L280.5,41.4 L277.4,36.1 L274.2,41.4 L274.2,41.4 Z M309.5,41.4 L304.1,41.4 L303,38.2 L297.2,38.2 L296.2,41.4 L290.9,41.4 L296.8,24.2 L303.7,24.2 L309.5,41.4 L309.5,41.4 Z M300.2,28 L298.3,34 L302,34 L300.2,28 L300.2,28 Z M323.4,36.4 C323.4,35.6 322.2,35.3 320.2,34.7 C317.7,34 314.5,32.8 314.5,29.3 C314.5,25.9 316.8,23.7 321.5,23.7 C324.6,23.7 326.8,24.4 328.4,25.2 L327.5,29.6 C325.6,28.7 323.2,28 321.4,28 C320.4,28 319.7,28.2 319.7,28.9 C319.7,29.7 321.4,30.1 323.1,30.6 C325.8,31.4 328.7,32.6 328.7,35.9 C328.7,39.3 326.1,41.7 321.1,41.7 C318.3,41.7 315.6,41 314,40.2 L314.8,35.8 C316.6,36.7 319,37.4 321.1,37.4 C322.6,37.4 323.4,37.1 323.4,36.4 L323.4,36.4 Z" id="Shape" fill="#FFF3E0"/><path d="M86.2,58.8 L90.8,58.8 L90.8,63.5 L86.2,63.5 L86.2,58.8 Z M309.5,58.8 L314.1,58.8 L314.1,63.5 L309.5,63.5 L309.5,58.8 Z" id="Shape" fill="#FFCC80"/><g id="Group" transform="translate(1 274)" fill="#FF9800"><path d="M5.8,14.9 L0.6,14.9 L0.6,1.7 L6.1,1.7 C10.9,1.7 13.5,4.3 13.5,8.2 C13.6,12.3 10.8,14.9 5.8,14.9 L5.8,14.9 Z M5.9,4.9 L4.9,4.9 L4.9,11.7 L6.1,11.7 C8.2,11.7 9.4,10.7 9.4,8.3 C9.4,5.9 8.3,4.9 5.9,4.9 L5.9,4.9 Z M20.7,13.7 C20,14.5 19.3,15.3 17.8,15.3 C16.2,15.3 14.9,14.1 14.9,12.6 C14.9,10.7 16.4,9.2 20.7,9.1 L20.7,9 C20.7,8.2 20.2,7.9 19.2,7.9 C18.2,7.9 17,8.3 15.8,8.9 L15,6.1 C16.1,5.6 17.9,4.9 20,4.9 C23.8,4.9 24.9,6.7 24.8,9.5 L24.8,11.8 C24.8,12.4 24.9,12.5 25.5,12.5 L25.1,15.3 C22.5,15.5 21.3,14.9 20.7,13.7 L20.7,13.7 Z M20.6,10.8 C19.1,10.9 18.5,11.2 18.5,11.9 C18.5,12.4 18.9,12.7 19.4,12.7 C19.9,12.7 20.3,12.5 20.6,12.2 L20.6,10.8 L20.6,10.8 Z M26.6,14.9 L26.6,1.1 L30.6,0.6 L30.6,14.9 L26.6,14.9 L26.6,14.9 Z M32.7,14.9 L32.7,1.1 L36.7,0.6 L36.7,14.9 L32.7,14.9 L32.7,14.9 Z M44.1,13.7 C43.4,14.5 42.7,15.3 41.2,15.3 C39.6,15.3 38.3,14.1 38.3,12.6 C38.3,10.7 39.8,9.2 44.1,9.1 L44.1,9 C44.1,8.2 43.6,7.9 42.6,7.9 C41.6,7.9 40.4,8.3 39.2,8.9 L38.4,6.1 C39.5,5.6 41.3,4.9 43.4,4.9 C47.2,4.9 48.3,6.7 48.2,9.5 L48.2,11.8 C48.2,12.4 48.3,12.5 48.9,12.5 L48.5,15.3 C46,15.5 44.7,14.9 44.1,13.7 L44.1,13.7 Z M44.1,10.8 C42.6,10.9 42,11.2 42,11.9 C42,12.4 42.4,12.7 42.9,12.7 C43.4,12.7 43.8,12.5 44.1,12.2 L44.1,10.8 L44.1,10.8 Z M54.1,15.3 C52.6,15.3 50.6,15 49.5,14.4 L50.2,11.7 C51.5,12.3 52.9,12.6 54.1,12.6 C54.9,12.6 55.1,12.4 55.1,12.1 C55.1,11.8 54.9,11.6 53.7,11.4 C51,10.9 49.5,10 49.5,8 C49.5,6.1 51.1,4.7 54.2,4.7 C55.6,4.7 57.6,5.1 58.6,5.6 L57.8,8.3 C56.5,7.7 55.1,7.3 54.1,7.3 C53.4,7.3 53.2,7.4 53.2,7.8 C53.2,8.2 53.6,8.3 54.6,8.5 C57.4,9 58.7,9.9 58.7,11.9 C59,13.7 57.4,15.3 54.1,15.3 L54.1,15.3 Z" id="Shape"/><path d="M208.3,14.9 L204.2,14.9 L203.4,12.4 L198.9,12.4 L198.1,14.9 L194,14.9 L198.5,1.7 L203.8,1.7 L208.3,14.9 L208.3,14.9 Z M201.2,4.7 L199.7,9.3 L202.6,9.3 L201.2,4.7 L201.2,4.7 Z M213.2,5.1 L213.2,10.8 C213.2,11.7 213.7,12 214.3,12 C214.8,12 215.1,11.8 215.5,11.6 L215.5,5.1 L219.5,5.1 L219.5,14.7 L215.5,15.2 L215.5,13.7 C214.8,14.5 213.7,15.3 212.4,15.3 C210.4,15.3 209.3,14 209.3,11.9 L209.3,5.1 L213.2,5.1 L213.2,5.1 Z M225.5,15.3 C224,15.3 222,15 220.9,14.4 L221.6,11.7 C222.9,12.3 224.3,12.6 225.5,12.6 C226.3,12.6 226.5,12.4 226.5,12.1 C226.5,11.8 226.3,11.6 225.1,11.4 C222.4,10.9 220.9,10 220.9,8 C220.9,6.1 222.5,4.7 225.6,4.7 C227,4.7 229,5.1 230,5.6 L229.2,8.3 C227.9,7.7 226.5,7.3 225.5,7.3 C224.8,7.3 224.5,7.4 224.5,7.8 C224.5,8.2 224.9,8.3 225.9,8.5 C228.7,9 230,9.9 230,11.9 C230.3,13.7 228.8,15.3 225.5,15.3 L225.5,15.3 Z M236.3,15.3 C233.6,15.3 232.1,14.3 232.3,11.5 L232.4,8.6 L231,8.3 L231.1,5.7 L232.5,5.2 L232.5,2.9 L236.4,2.9 L236.4,5.3 L238.6,5.3 L238.5,8.3 L236.1,8.3 L236,10.8 C236,11.7 236.5,12 237.3,12 C237.6,12 238,11.9 238.3,11.8 L238.7,14.9 C238,15.1 237.4,15.3 236.3,15.3 L236.3,15.3 Z M242.2,4 C240.8,4 239.9,3.4 239.9,2 C239.9,0.6 240.8,0 242.2,0 C243.6,0 244.5,0.6 244.5,2 C244.5,3.4 243.6,4 242.2,4 L242.2,4 Z M240.2,14.9 L240.2,5.3 L244.2,4.8 L244.2,14.9 L240.2,14.9 L240.2,14.9 Z M252.7,14.9 L252.7,9.2 C252.7,8.3 252.2,8 251.6,8 C251,8 250.6,8.3 250.2,8.6 L250.2,14.9 L246.2,14.9 L246.2,5.3 L250.2,4.8 L250.2,6.5 C251,5.4 252.2,4.7 253.6,4.7 C255.6,4.7 256.7,6 256.7,8.1 L256.7,14.9 L252.7,14.9 L252.7,14.9 Z" id="Shape"/><path d="M94.9,14.9 L94.9,10 L90.6,10 L90.6,14.9 L86.4,14.9 L86.4,1.7 L90.6,1.7 L90.6,6.5 L94.9,6.5 L94.9,1.7 L99.1,1.7 L99.1,14.9 L94.9,14.9 L94.9,14.9 Z M106.2,15.3 C103.1,15.3 100.7,13.5 100.7,10.1 C100.7,6.7 103.3,4.8 106.3,4.8 C109.4,4.8 111.8,6.6 111.8,10 C111.8,13.4 109.3,15.3 106.2,15.3 L106.2,15.3 Z M106.3,7.7 C105.3,7.7 104.8,8.6 104.8,10 C104.8,11.5 105.3,12.3 106.4,12.3 C107.4,12.3 107.9,11.5 107.9,10 C107.9,8.5 107.3,7.7 106.3,7.7 L106.3,7.7 Z M117.3,5.1 L117.3,10.8 C117.3,11.7 117.8,12 118.4,12 C118.9,12 119.2,11.8 119.6,11.6 L119.6,5.1 L123.6,5.1 L123.6,14.7 L119.6,15.2 L119.6,13.7 C118.9,14.5 117.8,15.3 116.5,15.3 C114.5,15.3 113.4,14 113.4,11.9 L113.4,5.1 L117.3,5.1 L117.3,5.1 Z M129.6,15.3 C128.1,15.3 126.1,15 125,14.4 L125.7,11.7 C127,12.3 128.4,12.6 129.6,12.6 C130.4,12.6 130.6,12.4 130.6,12.1 C130.6,11.8 130.4,11.6 129.2,11.4 C126.5,10.9 125,10 125,8 C125,6.1 126.6,4.7 129.7,4.7 C131.1,4.7 133.1,5.1 134.1,5.6 L133.3,8.3 C132,7.7 130.6,7.3 129.6,7.3 C128.9,7.3 128.7,7.4 128.7,7.8 C128.7,8.2 129.1,8.3 130.1,8.5 C132.9,9 134.2,9.9 134.2,11.9 C134.5,13.7 132.9,15.3 129.6,15.3 L129.6,15.3 Z M140.4,15.3 C137.7,15.3 136.2,14.3 136.4,11.5 L136.5,8.6 L135.1,8.3 L135.2,5.7 L136.6,5.2 L136.6,2.9 L140.5,2.9 L140.5,5.3 L142.7,5.3 L142.6,8.3 L140.2,8.3 L140.1,10.8 C140.1,11.7 140.6,12 141.4,12 C141.7,12 142.1,11.9 142.4,11.8 L142.8,14.9 C142.1,15.1 141.6,15.3 140.4,15.3 L140.4,15.3 Z M149.2,15.3 C146.1,15.3 143.7,13.5 143.7,10.1 C143.7,6.7 146.3,4.8 149.3,4.8 C152.4,4.8 154.8,6.6 154.8,10 C154.8,13.4 152.3,15.3 149.2,15.3 L149.2,15.3 Z M149.3,7.7 C148.3,7.7 147.8,8.6 147.8,10 C147.8,11.5 148.3,12.3 149.4,12.3 C150.4,12.3 150.9,11.5 150.9,10 C150.9,8.5 150.3,7.7 149.3,7.7 L149.3,7.7 Z M162.8,14.9 L162.8,9.2 C162.8,8.3 162.3,8 161.7,8 C161.1,8 160.7,8.3 160.3,8.6 L160.3,14.9 L156.3,14.9 L156.3,5.3 L160.3,4.8 L160.3,6.5 C161.1,5.4 162.3,4.7 163.7,4.7 C165.7,4.7 166.8,6 166.8,8.1 L166.8,14.9 L162.8,14.9 L162.8,14.9 Z" id="Shape"/><circle id="Oval" cx="74.1" cy="9" r="4"/><circle id="Oval" cx="182.5" cy="9" r="4"/><circle id="Oval" cx="270.9" cy="9" r="4"/><path d="M289.4,11.1 C289.4,10.5 288.5,10.3 286.9,9.8 C285,9.3 282.5,8.3 282.5,5.6 C282.5,3 284.3,1.3 287.9,1.3 C290.2,1.3 292,1.8 293.2,2.5 L292.5,5.9 C291,5.2 289.2,4.7 287.9,4.7 C287.1,4.7 286.6,4.9 286.6,5.4 C286.6,6 287.9,6.3 289.2,6.7 C291.3,7.3 293.5,8.2 293.5,10.7 C293.5,13.3 291.5,15.2 287.7,15.2 C285.5,15.2 283.5,14.7 282.3,14 L282.9,10.6 C284.3,11.3 286.1,11.8 287.8,11.8 C288.8,11.9 289.4,11.7 289.4,11.1 L289.4,11.1 Z M300.7,13.7 C300,14.5 299.3,15.3 297.8,15.3 C296.2,15.3 294.9,14.1 294.9,12.6 C294.9,10.7 296.4,9.2 300.7,9.1 L300.7,9 C300.7,8.2 300.2,7.9 299.2,7.9 C298.2,7.9 297,8.3 295.8,8.8 L295,6 C296.1,5.5 297.9,4.8 300,4.8 C303.8,4.8 304.9,6.6 304.8,9.4 L304.8,11.7 C304.8,12.3 304.9,12.4 305.5,12.4 L305.1,15.2 C302.6,15.5 301.3,14.9 300.7,13.7 L300.7,13.7 Z M300.7,10.8 C299.2,10.9 298.6,11.2 298.6,11.9 C298.6,12.4 299,12.7 299.5,12.7 C300,12.7 300.4,12.5 300.7,12.2 L300.7,10.8 L300.7,10.8 Z M313.2,14.9 L313.2,9.2 C313.2,8.3 312.7,8 312.1,8 C311.5,8 311.1,8.3 310.7,8.6 L310.7,14.9 L306.7,14.9 L306.7,5.3 L310.7,4.8 L310.7,6.5 C311.5,5.4 312.7,4.7 314.1,4.7 C316.1,4.7 317.2,6 317.2,8.1 L317.2,14.9 L313.2,14.9 L313.2,14.9 Z M337.3,14.9 L333.2,14.9 L332.4,12.4 L327.9,12.4 L327.1,14.9 L323,14.9 L327.5,1.7 L332.8,1.7 L337.3,14.9 L337.3,14.9 Z M330.2,4.7 L328.7,9.3 L331.6,9.3 L330.2,4.7 L330.2,4.7 Z M344.8,14.9 L344.8,9.2 C344.8,8.3 344.3,8 343.7,8 C343.1,8 342.7,8.3 342.3,8.6 L342.3,14.9 L338.3,14.9 L338.3,5.3 L342.3,4.8 L342.3,6.5 C343.1,5.4 344.3,4.7 345.7,4.7 C347.7,4.7 348.8,6 348.8,8.1 L348.8,14.9 L344.8,14.9 L344.8,14.9 Z M355.2,15.3 C352.5,15.3 351,14.3 351.2,11.5 L351.3,8.6 L349.9,8.3 L350,5.7 L351.4,5.2 L351.4,2.9 L355.3,2.9 L355.3,5.3 L357.5,5.3 L357.4,8.3 L355,8.3 L354.9,10.8 C354.9,11.7 355.4,12 356.2,12 C356.5,12 356.9,11.9 357.2,11.8 L357.6,14.9 C356.9,15.1 356.4,15.3 355.2,15.3 L355.2,15.3 Z M364,15.3 C360.9,15.3 358.5,13.5 358.5,10.1 C358.5,6.7 361.1,4.8 364.1,4.8 C367.2,4.8 369.6,6.6 369.6,10 C369.6,13.4 367.1,15.3 364,15.3 L364,15.3 Z M364.1,7.7 C363.1,7.7 362.6,8.6 362.6,10 C362.6,11.5 363.1,12.3 364.2,12.3 C365.2,12.3 365.7,11.5 365.7,10 C365.6,8.5 365.1,7.7 364.1,7.7 L364.1,7.7 Z M377.6,14.9 L377.6,9.2 C377.6,8.3 377.1,8 376.5,8 C375.9,8 375.5,8.3 375.1,8.6 L375.1,14.9 L371.1,14.9 L371.1,5.3 L375.1,4.8 L375.1,6.5 C375.9,5.4 377.1,4.7 378.5,4.7 C380.5,4.7 381.6,6 381.6,8.1 L381.6,14.9 L377.6,14.9 L377.6,14.9 Z M385.6,4 C384.2,4 383.3,3.4 383.3,2 C383.3,0.6 384.2,0 385.6,0 C387,0 387.9,0.6 387.9,2 C387.9,3.4 387,4 385.6,4 L385.6,4 Z M383.6,14.9 L383.6,5.3 L387.6,4.8 L387.6,14.9 L383.6,14.9 L383.6,14.9 Z M394.6,15.3 C391.5,15.3 389.1,13.5 389.1,10.1 C389.1,6.7 391.7,4.8 394.7,4.8 C397.8,4.8 400.2,6.6 400.2,10 C400.2,13.4 397.7,15.3 394.6,15.3 L394.6,15.3 Z M394.7,7.7 C393.7,7.7 393.2,8.6 393.2,10 C393.2,11.5 393.7,12.3 394.8,12.3 C395.8,12.3 396.3,11.5 396.3,10 C396.2,8.5 395.7,7.7 394.7,7.7 L394.7,7.7 Z" id="Shape"/></g></g></g></svg>