<svg width="152" height="65" viewBox="0 0 152 65" xmlns="http://www.w3.org/2000/svg"><title>pioneerlogo</title><g fill="none" fill-rule="evenodd"><path d="M1.2 57.2V54l2-.2c.4-.1.5-.2.5-.6V38.8c0-.5-.1-.6-.5-.6l-2-.2v-3.2h12.1c5.8 0 8.3 3.1 8.3 6.7 0 5.5-3.4 7.8-9.1 7.8h-1.4v4c0 .5 0 .6.5.6l4.4.2v3.2H1.2v-.1zm10.3-12.5c1 0 2.5-.2 2.5-2.9 0-2.5-1.5-2.6-2.2-2.6h-.5v5.5h.2zm10.9 12.5V54l2.3-.2c.4 0 .5-.2.5-.6V38.9c0-.5-.1-.7-.5-.7l-2.3-.2v-3.2h13.3V38l-2.4.2c-.5.1-.5.1-.5.6v14.4c0 .5 0 .6.5.6l2.4.2v3.2H22.4zm14.1-11c0-6.7 3.3-11.8 11.7-11.8 8.4 0 11.2 5.2 11.2 11.4 0 7.3-3.2 11.9-11.6 11.9-8.6-.1-11.3-4.9-11.3-11.5zm15.1-.2c0-4.8-.9-6.5-3.5-6.5-2.7 0-3.9 1.7-3.9 6.5 0 5 1.1 6.4 3.8 6.4 2.5 0 3.6-1.4 3.6-6.4zm24.6 11.2l-7.8-13.6v9.5c0 .5 0 .6.5.6l2.1.2v3.2H60.6V54l2-.2c.4-.1.5-.2.5-.6V38.8c0-.5-.1-.6-.5-.6l-2-.2v-3.2h10.2l7.8 13.9V39c0-.5-.1-.6-.5-.6L76 38v-3.3h10.5V38l-2.1.2c-.5.1-.5.1-.5.6v18.4h-7.7zm11.4 0V54l2-.2c.4-.1.5-.2.5-.6V38.8c0-.5-.1-.6-.5-.6l-2-.2v-3.2h18.1v7.4l-5.2-.2-.4-2.3c-.1-.3-.2-.4-.6-.4h-1.8v4.4h6v4.7h-6v4.4h2.5c.3 0 .4 0 .5-.3l.5-2.7h5.3v7.6H87.6v-.2zm20.4 0V54l2-.2c.4-.1.5-.2.5-.6V38.8c0-.5-.1-.6-.5-.6l-2-.2v-3.2h18.1v7.4l-5.2-.2-.4-2.3c-.1-.3-.2-.4-.6-.4H118v4.4h6v4.7h-6v4.4h2.5c.3 0 .4 0 .5-.3l.5-2.7h5.3v7.6H108v-.2zm34.6 0l-2.6-7.6c-.3-.8-.6-1.2-1.3-1.2h-.3v4.8c0 .5 0 .6.5.6l1.2.2v3.2h-11.7V54l2-.2c.4-.1.5-.2.5-.6V38.8c0-.5-.1-.6-.5-.6l-2-.2v-3.2h12.7c5.7 0 7.8 2.8 7.8 6 0 3.3-2.3 4.9-4.3 5.7 1.6.4 2.3 1.4 2.9 3.1l1.4 3.4c.2.5.4.7 1.1.8l1.4.3v3.2h-8.8v-.1zm-3.8-13c1.4 0 2.4-.5 2.4-2.5 0-1.7-.7-2.4-2.2-2.4h-.6v4.9h.4zm12.1-13.9L77.4.8c-.9-.4-1.9-.4-2.8 0L1.3 30.3c-1.1.4-.7 2 .4 2h148.8c1.2 0 1.5-1.6.4-2z" fill="#FFF"/><path d="M92.5 26.9l.5.9v.2c0 .2-.2.4-.4.4-.1 0-.3-.1-.3-.2l-.6-1.1h-.6v1c0 .2-.2.4-.4.4s-.4-.2-.4-.4v-2.9c0-.2.2-.4.4-.4H92c.8 0 1.2.5 1.2 1.2.2.5-.3.8-.7.9zm-1.3-1.6v1h.8c.3 0 .6-.2.6-.5s-.2-.5-.6-.5h-.8zm4.4 3.1c-1.1 0-1.9-.8-1.9-1.9 0-1.1.8-1.9 1.9-1.9 1.1 0 1.9.8 1.9 1.9 0 1.1-.7 1.9-1.9 1.9zm0-3.1c-.7 0-1.1.5-1.1 1.2s.4 1.2 1.1 1.2c.7 0 1.1-.5 1.1-1.2.1-.7-.4-1.2-1.1-1.2zm4.2 3.1c-1.1 0-1.9-.8-1.9-1.9 0-1.1.8-1.9 1.9-1.9 1.1 0 1.9.8 1.9 1.9 0 1.1-.8 1.9-1.9 1.9zm0-3.1c-.7 0-1.1.5-1.1 1.2s.4 1.2 1.1 1.2c.7 0 1.1-.5 1.1-1.2s-.4-1.2-1.1-1.2zm4.7 0H103v.8h1.5c.2 0 .3.2.3.3 0 .2-.2.3-.3.3H103V28c0 .2-.2.4-.4.4s-.4-.2-.4-.4v-2.9c0-.2.2-.4.4-.4h1.9c.2 0 .3.2.3.3.1.2-.1.3-.3.3zm1.2 3.1c-.2 0-.4-.2-.4-.4v-3c0-.2.2-.4.4-.4s.4.2.4.4v3c0 .2-.2.4-.4.4zm3.9 0c-.1 0-.3-.1-.4-.2l-1.6-2.2v2c0 .2-.2.4-.4.4s-.4-.2-.4-.4v-2.9c0-.3.2-.5.5-.5.2 0 .3.1.4.2l1.6 2.1v-2c0-.2.2-.4.4-.4s.4.2.4.4v2.9c0 .3-.2.6-.5.6zm2.9 0c-1.1 0-2-.8-2-1.9 0-1.2.9-1.9 2-1.9.6 0 1 .2 1.3.5.1.1.1.2.1.2 0 .2-.2.4-.4.4-.1 0-.2 0-.3-.1-.2-.2-.5-.3-.8-.3-.7 0-1.2.5-1.2 1.2s.5 1.2 1.2 1.2c.3 0 .6-.1.8-.3V27h-.7c-.2 0-.3-.1-.3-.3 0-.2.1-.3.3-.3h1c.2 0 .4.2.4.4v.6c.2.6-.6 1-1.4 1zm-45.2-8h8.4v8.4h-8.4zM76.6 10v9.5H85v-.9c0-4.8-3.7-8.6-8.4-8.6zm0 10.4H85v8.4h-8.4zm-9.3-1h8.4V10c-4.7 0-8.4 3.8-8.4 8.5v.9z" fill="#FFB74D"/><path d="M90 64.8h60.6c.6 0 1.1-.5 1.1-1.1v-4.1H90v5.2zm-87.9 0h60v-5.2H.8v4c0 .6.6 1.2 1.3 1.2z" fill="#FFF"/><g fill="#FFF"><path d="M65.1 60.6h-1.5v-1.2h4.3v1.2h-1.5v4h-1.3v-4zm3.4-1.1h3.8v1.1h-2.5v.9h2.4v1.1h-2.4v.9h2.5v1.1h-3.8v-5.1zm6.7 3.4L74 64.7h-1.6l1.8-2.7-1.7-2.5h1.6l1 1.6 1-1.6h1.6L76.1 62l1.8 2.7h-1.6l-1.1-1.8z"/><path d="M81.6 63.9h-2.2l-.3.8h-1.5l2-5.2h1.7l2 5.2h-1.5l-.2-.8zm-1.9-1.1h1.5l-.7-2.1-.8 2.1zm4.2.1c.4.4 1 .7 1.7.7.5 0 .7-.2.7-.4 0-.3-.3-.4-.9-.5-.9-.2-2.1-.4-2.1-1.6 0-.9.7-1.6 2.1-1.6.8 0 1.6.3 2.1.7l-.7 1c-.4-.4-1-.5-1.5-.5-.4 0-.6.2-.6.4 0 .3.3.4.9.5.9.2 2.1.4 2.1 1.6 0 1-.8 1.7-2.2 1.7-1.1 0-1.8-.3-2.3-.8l.7-1.2z"/></g></g></svg>