<svg id="Layer_1" xmlns="http://www.w3.org/2000/svg" viewBox="-229 364 152 65"><style>.st0{fill:#fff}</style><title>pioneerlogo</title><g id="pioneerlogo"><g id="Group" transform="translate(1 34)"><path id="Shape" class="st0" d="M-228.8 387.2V384l2-.2c.4-.1.5-.2.5-.6v-14.4c0-.5-.1-.6-.5-.6l-2-.2v-3.2h12.1c5.8 0 8.3 3.1 8.3 6.7 0 5.5-3.4 7.8-9.1 7.8h-1.4v4c0 .5 0 .6.5.6l4.4.2v3.2l-14.8-.1zm10.3-12.5c1 0 2.5-.2 2.5-2.9 0-2.5-1.5-2.6-2.2-2.6h-.5v5.5h.2z"/><path id="Shape_1_" class="st0" d="M-207.6 387.2V384l2.3-.2c.4 0 .5-.2.5-.6v-14.3c0-.5-.1-.7-.5-.7l-2.3-.2v-3.2h13.3v3.2l-2.4.2c-.5.1-.5.1-.5.6v14.4c0 .5 0 .6.5.6l2.4.2v3.2h-13.3z"/><path id="Shape_2_" class="st0" d="M-193.5 376.2c0-6.7 3.3-11.8 11.7-11.8 8.4 0 11.2 5.2 11.2 11.4 0 7.3-3.2 11.9-11.6 11.9-8.6-.1-11.3-4.9-11.3-11.5zm15.1-.2c0-4.8-.9-6.5-3.5-6.5-2.7 0-3.9 1.7-3.9 6.5 0 5 1.1 6.4 3.8 6.4 2.5 0 3.6-1.4 3.6-6.4z"/><path id="Shape_3_" class="st0" d="M-153.8 387.2l-7.8-13.6v9.5c0 .5 0 .6.5.6l2.1.2v3.2h-10.4V384l2-.2c.4-.1.5-.2.5-.6v-14.4c0-.5-.1-.6-.5-.6l-2-.2v-3.2h10.2l7.8 13.9V369c0-.5-.1-.6-.5-.6l-2.1-.4v-3.3h10.5v3.3l-2.1.2c-.5.1-.5.1-.5.6v18.4h-7.7z"/><path id="Shape_4_" class="st0" d="M-142.4 387.2V384l2-.2c.4-.1.5-.2.5-.6v-14.4c0-.5-.1-.6-.5-.6l-2-.2v-3.2h18.1v7.4l-5.2-.2-.4-2.3c-.1-.3-.2-.4-.6-.4h-1.8v4.4h6v4.7h-6v4.4h2.5c.3 0 .4 0 .5-.3l.5-2.7h5.3v7.6h-18.9v-.2z"/><path id="Shape_5_" class="st0" d="M-122 387.2V384l2-.2c.4-.1.5-.2.5-.6v-14.4c0-.5-.1-.6-.5-.6l-2-.2v-3.2h18.1v7.4l-5.2-.2-.4-2.3c-.1-.3-.2-.4-.6-.4h-1.9v4.4h6v4.7h-6v4.4h2.5c.3 0 .4 0 .5-.3l.5-2.7h5.3v7.6H-122v-.2z"/><path id="Shape_6_" class="st0" d="M-87.4 387.2l-2.6-7.6c-.3-.8-.6-1.2-1.3-1.2h-.3v4.8c0 .5 0 .6.5.6l1.2.2v3.2h-11.7V384l2-.2c.4-.1.5-.2.5-.6v-14.4c0-.5-.1-.6-.5-.6l-2-.2v-3.2h12.7c5.7 0 7.8 2.8 7.8 6 0 3.3-2.3 4.9-4.3 5.7 1.6.4 2.3 1.4 2.9 3.1l1.4 3.4c.2.5.4.7 1.1.8l1.4.3v3.2l-8.8-.1zm-3.8-13c1.4 0 2.4-.5 2.4-2.5 0-1.7-.7-2.4-2.2-2.4h-.6v4.9h.4z"/></g><path id="Shape_17_" class="st0" d="M-139 428.8h60.6c.6 0 1.1-.5 1.1-1.1v-4.1H-139v5.2z"/><path id="Shape_18_" class="st0" d="M-226.9 428.8h60v-5.2h-61.3v4c0 .6.6 1.2 1.3 1.2z"/><g id="Group_3_" transform="translate(63 59)"><path id="Shape_19_" class="st0" d="M-226.9 365.6h-1.5v-1.2h4.3v1.2h-1.5v4h-1.3v-4z"/><path id="Shape_20_" class="st0" d="M-223.5 364.5h3.8v1.1h-2.5v.9h2.4v1.1h-2.4v.9h2.5v1.1h-3.8v-5.1z"/><path id="Shape_21_" class="st0" d="M-216.8 367.9l-1.2 1.8h-1.6l1.8-2.7-1.7-2.5h1.6l1 1.6 1-1.6h1.6l-1.6 2.5 1.8 2.7h-1.6l-1.1-1.8z"/><path id="Shape_22_" class="st0" d="M-210.4 368.9h-2.2l-.3.8h-1.5l2-5.2h1.7l2 5.2h-1.5l-.2-.8zm-1.9-1.1h1.5l-.7-2.1-.8 2.1z"/><path id="Shape_23_" class="st0" d="M-208.1 367.9c.4.4 1 .7 1.7.7.5 0 .7-.2.7-.4 0-.3-.3-.4-.9-.5-.9-.2-2.1-.4-2.1-1.6 0-.9.7-1.6 2.1-1.6.8 0 1.6.3 2.1.7l-.7 1c-.4-.4-1-.5-1.5-.5-.4 0-.6.2-.6.4 0 .3.3.4.9.5.9.2 2.1.4 2.1 1.6 0 1-.8 1.7-2.2 1.7-1.1 0-1.8-.3-2.3-.8l.7-1.2z"/></g></g><path class="st0" d="M-133.4 389.3c-.7 0-1.1.5-1.1 1.2s.4 1.2 1.1 1.2c.7 0 1.1-.5 1.1-1.2.1-.7-.4-1.2-1.1-1.2zm4.2 0c-.7 0-1.1.5-1.1 1.2s.4 1.2 1.1 1.2 1.1-.5 1.1-1.2-.4-1.2-1.1-1.2z"/><path class="st0" d="M-78.1 394.3l-73.5-29.5c-.9-.4-1.9-.4-2.8 0l-73.3 29.5c-1.1.4-.7 2 .4 2h148.8c1.2 0 1.5-1.6.4-2zm-75.2-1.5h-8.4v-8.4h8.4v8.4zm0-9.4h-8.4v-.9c0-4.7 3.7-8.5 8.4-8.5v9.4zm9.3 9.4h-8.4v-8.4h8.4v8.4zm0-9.3h-8.4V374c4.7 0 8.4 3.8 8.4 8.6v.9zm7.5 7.4l.5.9v.2c0 .2-.2.4-.4.4-.1 0-.3-.1-.3-.2l-.6-1.1h-.6v1c0 .2-.2.4-.4.4s-.4-.2-.4-.4v-2.9c0-.2.2-.4.4-.4h1.3c.8 0 1.2.5 1.2 1.2.2.5-.3.8-.7.9zm3.1 1.5c-1.1 0-1.9-.8-1.9-1.9s.8-1.9 1.9-1.9c1.1 0 1.9.8 1.9 1.9s-.7 1.9-1.9 1.9zm4.2 0c-1.1 0-1.9-.8-1.9-1.9s.8-1.9 1.9-1.9c1.1 0 1.9.8 1.9 1.9s-.8 1.9-1.9 1.9zm4.7-2.3c.2 0 .3.2.3.3 0 .2-.2.3-.3.3h-1.5v1.3c0 .2-.2.4-.4.4s-.4-.2-.4-.4v-2.9c0-.2.2-.4.4-.4h1.9c.2 0 .3.2.3.3.1.2-.1.3-.3.3h-1.5v.8h1.5zm1.6 1.9c0 .2-.2.4-.4.4s-.4-.2-.4-.4v-3c0-.2.2-.4.4-.4s.4.2.4.4v3zm4-.2c0 .3-.2.6-.5.6-.1 0-.3-.1-.4-.2l-1.6-2.2v2c0 .2-.2.4-.4.4s-.4-.2-.4-.4v-2.9c0-.3.2-.5.5-.5.2 0 .3.1.4.2l1.6 2.1v-2c0-.2.2-.4.4-.4s.4.2.4.4v2.9zm2.4.6c-1.1 0-2-.8-2-1.9 0-1.2.9-1.9 2-1.9.6 0 1 .2 1.3.5.1.1.1.2.1.2 0 .2-.2.4-.4.4-.1 0-.2 0-.3-.1-.2-.2-.5-.3-.8-.3-.7 0-1.2.5-1.2 1.2s.5 1.2 1.2 1.2c.3 0 .6-.1.8-.3v-.4h-.7c-.2 0-.3-.1-.3-.3s.1-.3.3-.3h1c.2 0 .4.2.4.4v.6c.2.6-.6 1-1.4 1z"/><path class="st0" d="M-137 389.3h-.8v1h.8c.3 0 .6-.2.6-.5s-.2-.5-.6-.5z"/></svg>