<svg id="Layer_1" xmlns="http://www.w3.org/2000/svg" viewBox="0 0 800 345.5"><style>.st0{fill:#fff}</style><g id="pioneerlogo"><g id="Group" transform="translate(1 34)"><path id="Shape" class="st0" d="M1.9 266.3v-16.9l10.6-1.1c2.1-.5 2.6-1.1 2.6-3.2v-76.3c0-2.6-.5-3.2-2.6-3.2l-10.6-1.1v-16.9H66c30.7 0 44 16.4 44 35.5 0 29.1-18 41.3-48.2 41.3h-7.4v21.2c0 2.6 0 3.2 2.6 3.2l23.3 1.1v16.9l-78.4-.5zm54.6-66.2c5.3 0 13.2-1.1 13.2-15.4 0-13.2-7.9-13.8-11.7-13.8h-2.6V200h1.1v.1z"/><path id="Shape_1_" class="st0" d="M114.2 266.3v-16.9l12.2-1.1c2.1 0 2.6-1.1 2.6-3.2v-75.7c0-2.6-.5-3.7-2.6-3.7l-12.2-1.1v-16.9h70.4v16.9l-12.7 1.1c-2.6.5-2.6.5-2.6 3.2v76.3c0 2.6 0 3.2 2.6 3.2l12.7 1.1v16.9h-70.4v-.1z"/><path id="Shape_2_" class="st0" d="M188.9 208c0-35.5 17.5-62.5 62-62.5s59.3 27.5 59.3 60.4c0 38.7-16.9 63-61.4 63-45.6-.5-59.9-25.9-59.9-60.9zm80-1c0-25.4-4.8-34.4-18.5-34.4-14.3 0-20.7 9-20.7 34.4 0 26.5 5.8 33.9 20.1 33.9 13.2 0 19.1-7.4 19.1-33.9z"/><path id="Shape_3_" class="st0" d="M399.1 266.3l-41.3-72v50.3c0 2.6 0 3.2 2.6 3.2l11.1 1.1v16.9h-55.1v-16.4l10.6-1.1c2.1-.5 2.6-1.1 2.6-3.2v-76.3c0-2.6-.5-3.2-2.6-3.2l-10.6-1.1v-16.9h54l41.3 73.6v-51.4c0-2.6-.5-3.2-2.6-3.2l-11.1-2.1V147h55.6v17.5l-11.1 1.1c-2.6.5-2.6.5-2.6 3.2v97.5h-40.8z"/><path id="Shape_4_" class="st0" d="M459.5 266.3v-16.9l10.6-1.1c2.1-.5 2.6-1.1 2.6-3.2v-76.3c0-2.6-.5-3.2-2.6-3.2l-10.6-1.1v-16.9h95.9v39.2l-27.5-1.1-2.1-12.2c-.5-1.6-1.1-2.1-3.2-2.1H513v23.3h31.8v24.9H513V243h13.2c1.6 0 2.1 0 2.6-1.6l2.6-14.3h28.1v40.3h-100v-1.1z"/><path id="Shape_5_" class="st0" d="M567.6 266.3v-16.9l10.6-1.1c2.1-.5 2.6-1.1 2.6-3.2v-76.3c0-2.6-.5-3.2-2.6-3.2l-10.6-1.1v-16.9h95.9v39.2l-27.5-1.1-2.1-12.2c-.5-1.6-1.1-2.1-3.2-2.1h-10.1v23.3h31.8v24.9h-31.8V243h13.2c1.6 0 2.1 0 2.6-1.6l2.6-14.3h28.1v40.3h-99.6v-1.1h.1z"/><path id="Shape_6_" class="st0" d="M750.8 266.3L737 226c-1.6-4.2-3.2-6.4-6.9-6.4h-1.6V245c0 2.6 0 3.2 2.6 3.2l6.4 1.1v16.9h-62v-16.9l10.6-1.1c2.1-.5 2.6-1.1 2.6-3.2v-76.3c0-2.6-.5-3.2-2.6-3.2l-10.6-1.1v-16.9h67.3c30.2 0 41.3 14.8 41.3 31.8 0 17.5-12.2 26-22.8 30.2 8.5 2.1 12.2 7.4 15.4 16.4l7.4 18c1.1 2.6 2.1 3.7 5.8 4.2l7.4 1.6v16.9l-46.5-.3zm-20.1-68.9c7.4 0 12.7-2.6 12.7-13.2 0-9-3.7-12.7-11.7-12.7h-3.2v26h2.2v-.1z"/></g><path id="Shape_17_" class="st0" d="M473.2 340.5h320.9c3.2 0 5.8-2.6 5.8-5.8V313H473.2v27.5z"/><path id="Shape_18_" class="st0" d="M7.7 340.5h317.8V313H.8v21.2c0 3.2 3.2 6.3 6.9 6.3z"/><g id="Group_3_" transform="translate(63 59)"><path id="Shape_19_" class="st0" d="M278.3 259.3h-7.9v-6.4h22.8v6.4h-7.9v21.2h-6.9v-21.2h-.1z"/><path id="Shape_20_" class="st0" d="M296.4 253.5h20.1v5.8h-13.2v4.8H316v5.8h-12.7v4.8h13.2v5.8h-20.1v-27z"/><path id="Shape_21_" class="st0" d="M331.8 271.5l-6.4 9.5H317l9.5-14.3-9-13.2h8.5l5.3 8.5 5.3-8.5h8.5l-8.5 13.2 9.5 14.3h-8.5l-5.8-9.5z"/><path id="Shape_22_" class="st0" d="M365.7 276.8H354l-1.6 4.2h-7.9l10.6-27.5h9l10.6 27.5h-7.9l-1.1-4.2zm-10-5.8h7.9l-3.7-11.1-4.2 11.1z"/><path id="Shape_23_" class="st0" d="M377.9 271.5c2.1 2.1 5.3 3.7 9 3.7 2.6 0 3.7-1.1 3.7-2.1 0-1.6-1.6-2.1-4.8-2.6-4.8-1.1-11.1-2.1-11.1-8.5 0-4.8 3.7-8.5 11.1-8.5 4.2 0 8.5 1.6 11.1 3.7l-3.7 5.3c-2.1-2.1-5.3-2.6-7.9-2.6-2.1 0-3.2 1.1-3.2 2.1 0 1.6 1.6 2.1 4.8 2.6 4.8 1.1 11.1 2.1 11.1 8.5 0 5.3-4.2 9-11.7 9-5.8 0-9.5-1.6-12.2-4.2l3.8-6.4z"/></g></g><path class="st0" d="M502.9 131.3c-3.7 0-5.8 2.6-5.8 6.4 0 3.7 2.1 6.4 5.8 6.4 3.7 0 5.8-2.6 5.8-6.4.5-3.7-2.1-6.4-5.8-6.4zm22.2 0c-3.7 0-5.8 2.6-5.8 6.4 0 3.7 2.1 6.4 5.8 6.4s5.8-2.6 5.8-6.4c.1-3.7-2.1-6.4-5.8-6.4z"/><path class="st0" d="M795.8 157.8L406.5 1.6c-4.8-2.1-10.1-2.1-14.8 0L3.5 157.8c-5.8 2.1-3.7 10.6 2.1 10.6h788.1c6.3 0 7.9-8.5 2.1-10.6zm-398.3-7.9H353v-44.5h44.5v44.5zm0-49.8H353v-4.8c0-24.9 19.6-45 44.5-45v49.8zm49.2 49.8h-44.5v-44.5h44.5v44.5zm0-49.3h-44.5V50.3c24.9 0 44.5 20.1 44.5 45.5v4.8zm39.8 39.2l2.6 4.8v1.1c0 1.1-1.1 2.1-2.1 2.1-.5 0-1.6-.5-1.6-1.1l-3.2-5.8H479v5.3c0 1.1-1.1 2.1-2.1 2.1-1.1 0-2.1-1.1-2.1-2.1v-15.4c0-1.1 1.1-2.1 2.1-2.1h6.9c4.2 0 6.4 2.6 6.4 6.4 1 2.6-1.6 4.2-3.7 4.7zm16.4 8c-5.8 0-10.1-4.2-10.1-10.1s4.2-10.1 10.1-10.1c5.8 0 10.1 4.2 10.1 10.1s-3.8 10.1-10.1 10.1zm22.2 0c-5.8 0-10.1-4.2-10.1-10.1s4.2-10.1 10.1-10.1c5.8 0 10.1 4.2 10.1 10.1s-4.2 10.1-10.1 10.1zm24.9-12.2c1.1 0 1.6 1.1 1.6 1.6 0 1.1-1.1 1.6-1.6 1.6h-7.9v6.9c0 1.1-1.1 2.1-2.1 2.1-1.1 0-2.1-1.1-2.1-2.1v-15.4c0-1.1 1.1-2.1 2.1-2.1h10c1.1 0 1.6 1.1 1.6 1.6.5 1.1-.5 1.6-1.6 1.6h-7.9v4.2h7.9zm8.5 10c0 1.1-1.1 2.1-2.1 2.1s-2.1-1.1-2.1-2.1v-15.9c0-1.1 1.1-2.1 2.1-2.1s2.1 1.1 2.1 2.1v15.9zm21.2-1c0 1.6-1.1 3.2-2.6 3.2-.5 0-1.6-.5-2.1-1.1l-8.5-11.7v10.6c0 1.1-1.1 2.1-2.1 2.1s-2.1-1.1-2.1-2.1v-15.4c0-1.6 1.1-2.6 2.6-2.6 1.1 0 1.6.5 2.1 1.1l8.5 11.1v-10.6c0-1.1 1.1-2.1 2.1-2.1s2.1 1.1 2.1 2.1v15.4zm12.7 3.2c-5.8 0-10.6-4.2-10.6-10.1 0-6.4 4.8-10.1 10.6-10.1 3.2 0 5.3 1.1 6.9 2.6.5.5.5 1.1.5 1.1 0 1.1-1.1 2.1-2.1 2.1-.5 0-1.1 0-1.6-.5-1.1-1.1-2.6-1.6-4.2-1.6-3.7 0-6.4 2.6-6.4 6.4 0 3.7 2.6 6.4 6.4 6.4 1.6 0 3.2-.5 4.2-1.6v-2.1h-3.7c-1.1 0-1.6-.5-1.6-1.6s.5-1.6 1.6-1.6h5.3c1.1 0 2.1 1.1 2.1 2.1v3.2c1.1 3.1-3.2 5.3-7.4 5.3z"/><path class="st0" d="M483.8 131.3h-4.2v5.3h4.2c1.6 0 3.2-1.1 3.2-2.6 0-1.6-1.1-2.7-3.2-2.7z"/></svg>