<svg id="Layer_1" xmlns="http://www.w3.org/2000/svg" viewBox="-149 85.7 300 131.3"><style>.st0{fill:#fff}</style><path class="st0" d="M-141.3 197.6v-6.1l3.8-.4c.8-.1 1-.3 1-1.2v-27.4c0-.9-.1-1.1-1-1.2l-3.8-.4v-6.2h23.1c11.1 0 15.8 5.9 15.8 12.7 0 10.4-6.6 14.8-17.3 14.8h-2.6v7.6c0 .9.1 1.1 1 1.2l8.3.5v6.1h-28.3zm19.5-23.8c1.9 0 4.8-.4 4.8-5.4 0-4.9-2.9-5-4.2-5h-1v10.4h.4zm20.9 23.8v-6.1l4.4-.4c.8-.1 1-.3 1-1.2v-27.2c0-.9-.1-1.2-1-1.3l-4.4-.5v-6.2h25.3v6.2l-4.6.5c-.9.1-1 .2-1 1.1v27.4c0 .9.1 1.1 1 1.2l4.6.5v6.1l-25.3-.1zm26.8-21c0-12.7 6.3-22.6 22.4-22.6s21.3 9.8 21.3 21.7c0 13.9-6.1 22.6-22.1 22.6-16.4.1-21.6-9-21.6-21.7zm28.9-.3c0-9.1-1.7-12.3-6.6-12.3-5.2 0-7.5 3.3-7.5 12.3 0 9.5 2 12.1 7.2 12.1 4.8 0 6.9-2.5 6.9-12.1zm46.8 21.3l-14.8-25.8v18.1c0 .9.1 1.1 1 1.2l4.1.5v6.1h-20v-6.1l3.8-.4c.8-.1 1-.3 1-1.2v-27.5c0-.9-.1-1.1-1-1.2l-3.8-.4v-6.2h19.4L6 181.2v-18.6c0-.9-.1-1.1-1-1.2l-3.8-.4v-6.3h20.1v6.3l-4.1.5c-.9.1-1 .2-1 1.1v35H1.6zm21.8 0v-6.1l3.8-.4c.8-.1 1-.3 1-1.2v-27.4c0-.9-.1-1.1-1-1.2l-3.8-.4v-6.2h34.4v14.2l-10-.4-.8-4.4c-.1-.6-.4-.8-1-.8h-3.5v8.4H54v9H42.5v8.4h4.8c.6 0 .8-.1 1-.7l.9-5.2h10.1v14.4H23.4zm38.9 0v-6.1l3.8-.4c.8-.1 1-.3 1-1.2v-27.4c0-.9-.1-1.1-1-1.2l-3.8-.4v-6.2h34.4v14.2l-10-.4-.8-4.4c-.1-.6-.4-.8-1-.8h-3.5v8.4h11.5v9H81.4v8.4h4.8c.6 0 .8-.1 1-.7l.9-5.2h10.1v14.4H62.3zm65.9 0l-5-14.4c-.6-1.5-1.1-2.4-2.5-2.4h-.6v9.1c0 .9.1 1.1 1 1.2l2.4.5v6.1h-22.4v-6.1l3.8-.4c.8-.1 1-.3 1-1.2v-27.5c0-.9-.1-1.1-1-1.2l-3.8-.4v-6.2h24.2c10.9 0 14.9 5.3 14.9 11.5 0 6.3-4.4 9.4-8.2 10.8 3 .8 4.4 2.6 5.6 5.9l2.7 6.5c.3 1 .8 1.4 2.1 1.6l2.7.5v6.1h-16.9zm-7.3-24.8c2.6 0 4.5-.9 4.5-4.9 0-3.2-1.3-4.5-4.1-4.5h-1.2v9.4h.8zM27.2 212h113.7c2.2 0 4-1.8 4-4v-2c0-2.2-1.8-4-4-4H27.2v10zm-166 0h114.7c.1 0 .1 0 .1-.1v-9.8c0-.1 0-.1-.1-.1h-114.7c-2.2 0-4 1.8-4 4v2c0 2.2 1.8 4 4 4zm119.6-7.5h-2.7v-2.6h8.3v2.6h-2.7v7.3h-3l.1-7.3zm6.6-2.6h7.5v2.5h-4.5v1.2h4.4v2.5h-4.4v1.3h4.5v2.5h-7.5v-10zm13 6.9l-1.8 3h-3.5l3.3-5.1-3.1-4.8h3.5l1.6 2.8 1.6-2.8h3.6l-3.1 4.8 3.3 5.1H2.3l-1.9-3z"/><path class="st0" d="M12.6 210.6H8.8l-.4 1.3H5.1l3.7-9.9h3.8l3.7 9.9H13l-.4-1.3zm-3.1-2.5h2.3l-1.1-3.5-1.2 3.5zm7.9.1c.7.7 1.9 1.3 3.2 1.3.6 0 1.1-.2 1.1-.6 0-.4-.4-.6-1.4-.8-1.6-.3-4.1-.7-4.1-3.2 0-1.7 1.4-3.2 4.1-3.2 1.6 0 3.1.5 4.2 1.4l-1.6 2.1c-.9-.7-2-1-2.8-1-.7 0-.9.3-.9.5 0 .4.4.5 1.5.7 1.6.3 4.1.8 4.1 3.1 0 2.2-1.6 3.5-4.3 3.5-2.1 0-3.6-.6-4.6-1.6l1.5-2.2zm29.5-70.6c-1.3 0-2.1 1-2.1 2.3 0 1.3.8 2.3 2.1 2.3s2.1-1 2.1-2.3c0-1.3-.8-2.3-2.1-2.3zm-14.9.1h-1.6v1.9H32c.6 0 1.1-.4 1.1-.9 0-.7-.5-1-1.1-1z"/><path class="st0" d="M143.6 146.3L3.5 90c-1.7-.7-3.6-.8-5.3-.1l-139.8 56.4c-2 .8-1.4 3.9.8 3.9h283.5c2.3 0 2.9-3.1.9-3.9zM.1 143.4h-16v-16h16v16zm0-17.8h-16v-1.8c0-9 7.1-16.3 16-16.3v18.1zm17.8 17.8h-16v-16h16v16zm0-17.8h-16v-18.1c8.9 0 16 7.3 16 16.3v1.8zM34 142.4c.1.1.1.2.1.4 0 .4-.3.7-.7.7-.3 0-.5-.1-.6-.4l-1.2-2.2h-1.1v1.8c0 .4-.3.7-.8.7-.4 0-.7-.3-.7-.7v-5.5c0-.5.4-.8.8-.8h2.4c1.5 0 2.4 1 2.4 2.3 0 1.2-.8 1.9-1.5 2.1l.9 1.6zm4.9 1.1c-2.1 0-3.7-1.5-3.7-3.6s1.5-3.6 3.7-3.6c2.1 0 3.7 1.5 3.7 3.6s-1.5 3.6-3.7 3.6zm8 0c-2.1 0-3.7-1.5-3.7-3.6s1.5-3.6 3.7-3.6c2.1 0 3.7 1.5 3.7 3.6s-1.6 3.6-3.7 3.6zm8.9-4.2c.3-.1.6.2.6.6 0 .4-.3.7-.6.7H53v2.1c0 .4-.3.7-.8.7-.4 0-.7-.3-.7-.7v-5.5c0-.5.4-.8.8-.8h3.6c.3 0 .6.3.6.7 0 .4-.3.7-.6.7H53v1.5h2.8zm3.1 3.4c0 .4-.3.7-.8.7-.4 0-.7-.3-.7-.7V137c0-.4.3-.7.8-.7.4 0 .7.3.7.7v5.7zm7.7-.1h-.1c0 .5-.4.9-.9.9-.3 0-.6-.1-.7-.4l-3.1-4.3v3.9c0 .4-.3.7-.8.7-.4 0-.7-.3-.7-.7v-5.5c0-.5.4-1 1-1 .3 0 .6.1.8.4l3 4.1V137c0-.4.3-.7.8-.7.4 0 .7.3.7.7v5.6zm4.6.9c-2.1 0-3.7-1.4-3.7-3.6s1.7-3.6 3.7-3.6c1.1 0 1.9.4 2.5 1 .1.1.2.3.2.5 0 .4-.3.7-.7.7-.2 0-.4-.1-.5-.2-.4-.4-.9-.6-1.5-.6-1.3 0-2.2 1-2.2 2.3s.9 2.3 2.2 2.3c.6 0 1.2-.3 1.5-.5v-.8h-1.3c-.4 0-.6-.3-.6-.7 0-.4.3-.6.6-.6h1.9c.5 0 .8.4.8.8v1h.1c0 1.3-1.6 2-3 2z"/><path class="st0" d="M38.9 137.6c-1.3 0-2.1 1-2.1 2.3 0 1.3.8 2.3 2.1 2.3s2.1-1 2.1-2.3c.1-1.3-.8-2.3-2.1-2.3z"/></svg>