<svg width="288" height="123" viewBox="0 0 288 123" xmlns="http://www.w3.org/2000/svg"><title>new logo svg</title><g fill="#FFF"><path d="M2.9 107.9v-6l3.7-.4c.8-.1 1-.3 1-1.2V73c0-.9-.1-1.1-1-1.2l-3.7-.4v-6.1h22.9c11 0 15.7 5.8 15.7 12.6 0 10.3-6.5 14.7-17.1 14.7h-2.6v7.6c0 .9.1 1.1 1 1.2l8.2.5v6H2.9zm19.4-23.7c1.9 0 4.7-.4 4.7-5.4 0-4.8-2.9-4.9-4.2-4.9h-1v10.3h.5zM43 107.9v-6l4.4-.4c.8-.1 1-.3 1-1.2v-27c0-.9-.1-1.2-1-1.3l-4.4-.6v-6.1h25.1v6.1l-4.6.5c-.9.1-1 .2-1 1.1v27.1c0 .9.1 1.1 1 1.2l4.6.5v6H43v.1zm26.5-21c0-12.6 6.2-22.4 22.2-22.4 15.9 0 21.1 9.8 21.1 21.6 0 13.7-6 22.4-22 22.4-16.2.1-21.3-8.9-21.3-21.6zm28.7-.3c0-9-1.7-12.2-6.6-12.2-5.1 0-7.4 3.3-7.4 12.2 0 9.4 2 12 7.1 12 4.8.1 6.9-2.4 6.9-12zm46.4 21.3l-14.7-25.6v17.9c0 .9.1 1.1 1 1.2l4 .5v6h-19.8v-6l3.7-.4c.8-.1 1-.3 1-1.2V73c0-.9-.1-1.1-1-1.2l-3.7-.4v-6.1h19.2L149 91.5V73.1c0-.9-.1-1.1-1-1.2l-3.7-.4v-6.2h19.9v6.2l-4 .5c-.9.1-1 .2-1 1.1v34.7l-14.6.1zm21.6 0v-6l3.7-.4c.8-.1 1-.3 1-1.2V73c0-.9-.1-1.1-1-1.2l-3.7-.4v-6.1h34.2v14l-9.9-.4-.8-4.4c-.1-.6-.4-.8-1-.8h-3.5V82h11.4v8.9h-11.4v8.3h4.8c.6 0 .8-.1 1-.6l.9-5.2h10v14.3h-35.7v.2zm38.6 0v-6l3.7-.4c.8-.1 1-.3 1-1.2V73c0-.9-.1-1.1-1-1.2l-3.7-.4v-6.1H239v14l-10-.3-.8-4.4c-.1-.6-.4-.8-1-.8h-3.5v8.3h11.4V91h-11.4v8.3h4.8c.6 0 .8-.1 1-.6l.9-5.2h10v14.3l-35.6.1zm65.3 0l-4.9-14.3c-.6-1.5-1.1-2.3-2.5-2.3h-.6v9c0 .9.1 1.1 1 1.2l2.4.5v6h-22.2v-6l3.7-.4c.8-.1 1-.3 1-1.2V73c0-.9-.1-1.1-1-1.2l-3.7-.4v-6.1h24c10.8 0 14.8 5.3 14.8 11.4 0 6.3-4.4 9.3-8.1 10.7 3 .8 4.4 2.6 5.5 5.8l2.7 6.4c.3 1 .8 1.4 2.1 1.6l2.7.5v6h-16.9v.2zm-7.2-24.7c2.6 0 4.5-.9 4.5-4.8 0-3.2-1.3-4.5-4.1-4.5h-1.2v9.3h.8zM2.7 122.1h282.5c1.2 0 2.2-1 2.2-2.2v-5.5c0-1.2-1-2.2-2.2-2.2H2.7c-1.2 0-2.2 1-2.2 2.2v5.5c0 1.2 1 2.2 2.2 2.2zm182.4-75.4c-.7 0-1.4.3-1.9.8-.5.6-.8 1.2-.8 2s.3 1.5.8 2 1.1.8 1.9.8c.7 0 1.4-.3 1.9-.8s.8-1.2.8-2-.3-1.5-.8-2-1.1-.8-1.9-.8zm10.5 0c-.7 0-1.4.3-1.9.8-.5.6-.8 1.2-.8 2s.3 1.5.8 2 1.1.8 1.9.8c.7 0 1.4-.3 1.9-.8s.8-1.2.8-2-.3-1.5-.8-2-1.1-.8-1.9-.8zm-19 .5c-.3-.2-.7-.3-1.3-.3h-1.5v2.6h1.5c.7 0 1.1-.1 1.4-.3.2-.2.4-.6.4-1.1 0-.5-.3-.7-.5-.9z"/><path d="M284.4 55.3l-135-53.8c-3.4-1.3-7.5-1.3-10.8 0L3.6 55.3C-.2 56.8 1.2 61 5.5 61h277c4.3 0 5.7-4.2 1.9-5.7zm-141.5-1.2H127V39.2h15.9v14.9zm0-17H127v-.8c0-8.9 7.4-16.1 15.9-16.1v16.9zm18.1 17h-15.9V39.2H161v14.9zm0-17h-15.9v-17c8.5 0 15.9 7.2 15.9 16.1v.9zm16.1 17l-2-2.8h-1.4v2.8h-2v-8.9h3.4c1.4 0 2.4.2 3 .7.6.5.9 1.2.9 2.3 0 1.4-.6 2.3-1.7 2.8l2.3 3.2-2.5-.1zm11.3-1.2c-.9.9-2 1.3-3.3 1.3-1.3 0-2.4-.4-3.3-1.3-.9-.9-1.4-2-1.4-3.3 0-1.3.5-2.4 1.4-3.3.9-.9 2-1.3 3.3-1.3 1.3 0 2.4.4 3.3 1.3.9.9 1.4 2 1.4 3.3 0 1.3-.5 2.4-1.4 3.3zm10.6 0c-.9.9-2 1.3-3.3 1.3-1.3 0-2.4-.4-3.3-1.3-.9-.9-1.4-2-1.4-3.3 0-1.3.5-2.4 1.4-3.3.9-.9 2-1.3 3.3-1.3 1.3 0 2.4.4 3.3 1.3.9.9 1.4 2 1.4 3.3 0 1.3-.5 2.4-1.4 3.3zm9.1-6H204v1.9h3.9v1.7H204V54h-2v-8.9h6.1v1.8zm3.7 7.2h-2v-8.9h2v8.9zm10.4 0h-2l-4.2-5.6v5.6h-2v-8.9h1.9l4.4 5.7v-5.7h2l-.1 8.9zm10-1.4c-.9 1-2.1 1.5-3.7 1.5-1.3 0-2.4-.4-3.3-1.3-.9-.9-1.3-2-1.3-3.3 0-1.3.5-2.4 1.4-3.3.9-.9 2-1.3 3.3-1.3 1.3 0 2.4.4 3.3 1.3l-1 1.5c-.4-.3-.8-.6-1.1-.7-.3-.1-.7-.2-1.1-.2-.8 0-1.4.3-1.9.8s-.8 1.2-.8 2 .2 1.5.7 2c.5.5 1.1.8 1.8.8s1.3-.1 1.7-.4v-2.4h2v3z"/></g></svg>