<svg width="401" height="267" viewBox="0 0 401 267" xmlns="http://www.w3.org/2000/svg"><title>Group 2</title><g fill="none" fill-rule="evenodd"><path d="M329.4 192c-16.8 0-30.5 13.6-30.5 30.5v39.9h60.9v-39.9c.1-16.8-13.5-30.5-30.4-30.5z" fill="#FFB74D"/><circle fill="#FFCC80" cx="366.5" cy="237.3" r="21.3"/><circle fill="#FFCC80" cx="24.4" cy="244.4" r="14.2"/><circle fill="#FFB74D" cx="55.7" cy="229.3" r="29.2"/><path d="M.2 250.7h399.9V267H.2v-16.3z" fill="#757575"/><path d="M67.3 83.9h265.9v166.9H67.3V83.9z" fill="#FFCC80"/><path d="M333.9 240.7h-25.4v10.1h28.3v-7.2c0-1.6-1.3-2.9-2.9-2.9z" fill="#E3F2FD"/><path d="M233.8 130.1h74.7v120.7h-74.7V130.1z" fill="#EF6C00"/><path d="M238.3 134.5h65.8v111.8h-65.8V134.5z" fill="#FFB74D"/><path d="M304.1 162.2v6.8l-34.5-34.5h6.8l27.7 27.7zm0 67.4v6.8l-65.8-65.8v-6.9l65.8 65.9zm0-56.9v13.7l-51.9-51.9h13.7l38.2 38.2z" fill="#FB8C00"/><path d="M238.3 134.5h65.8v2.4h-65.8v-2.4z" opacity=".2" fill="#616161"/><path d="M233.8 223.9v26.8h26.9l-26.9-26.8z" opacity=".4" fill="#616161"/><circle fill="#E3F2FD" cx="246.2" cy="182.6" r="2.8"/><circle fill="#E3F2FD" cx="246.2" cy="202.9" r="2.8"/><path d="M246.2 180.3c-.9 0-1.6.7-1.6 1.6v21.5c0 .9.7 1.6 1.6 1.6.9 0 1.6-.7 1.6-1.6V182c.1-.9-.7-1.7-1.6-1.7zm-12.4 60.4h-168c-1.2 0-2.2 1-2.2 2.2v7.9h170.2v-10.1z" fill="#E3F2FD"/><path d="M66.9 73.3h266.5v4.9H66.9v-4.9z" fill="#757575"/><path d="M66.9 63.5h266.5v4.9H66.9v-4.9z" fill="#FFCC80"/><path d="M70.2 68.4h260v4.9h-260v-4.9z" fill="#FFB74D"/><path d="M70.2 68.4h260v2.4h-260v-2.4z" fill="#EF6C00"/><path d="M285.1 120.1H300v5.8h-14.9v-5.8zm18.8 0h14.9v5.8h-14.9v-5.8zm-9.3-9.6h14.9v5.8h-14.9v-5.8zm16.8 91h14.9v5.8h-14.9v-5.8zm9.5-9.6h8.6v5.8h-8.6v-5.8zm-229-71.8h14.9v5.8H91.9v-5.8zm18.8 0h14.9v5.8h-14.9v-5.8zm-9.4-9.6h14.9v5.8h-14.9v-5.8zm18.9 0h14.9v5.8h-14.9v-5.8zm16.9 119.7H152v5.8h-14.9v-5.8zm55.7-9.6h14.9v5.8h-14.9v-5.8zm-74.5 9.6h14.9v5.8h-14.9v-5.8zm9.4-9.6h14.9v5.8h-14.9v-5.8zm-18.9 0h14.9v5.8h-14.9v-5.8zm-40.9-50.2h10.8v5.8H67.9v-5.8zm6.8-9.7h10.8v5.8H74.7v-5.8z" fill="#FFBB58"/><path d="M308.5 147.1c-.6 0-1.1.5-1.1 1.1v8.5c0 .6.5 1.1 1.1 1.1.6 0 1.1-.5 1.1-1.1v-8.5c0-.6-.5-1.1-1.1-1.1zm0 75.9c-.6 0-1.1.5-1.1 1.1v8.5c0 .6.5 1.1 1.1 1.1.6 0 1.1-.5 1.1-1.1v-8.5c0-.6-.5-1.1-1.1-1.1z" fill="#F5F5F5"/><path d="M189.4 120.1h7.5v5.8h-7.5v-5.8zm8.5-9.6h7.5v5.8h-7.5v-5.8zm-20 0h14.9v5.8h-14.9v-5.8zM77.5 220.2H85v5.8h-7.5v-5.8zm-6.1-9.6h8.3v5.8h-8.3v-5.8zm242.4-47.2h10.8v5.8h-10.8v-5.8zm-99.1-18.2h7.5v5.8h-7.5v-5.8zm3.8 8.4h7.5v5.8h-7.5v-5.8z" fill="#FFBB58"/><path d="M91.3 99.2c0 8.6 7 15.6 15.6 15.6s15.6-7 15.6-15.6v-9.7H91.4v9.7h-.1zm62.2 0c0 8.6 7 15.6 15.6 15.6s15.6-7 15.6-15.6v-9.7h-31.1v9.7h-.1zm62.2 0c0 8.6 7 15.6 15.6 15.6s15.6-7 15.6-15.6v-9.7h-31.1v9.7h-.1zm62.2-9.7v9.7c0 8.6 7 15.6 15.6 15.6s15.6-7 15.6-15.6v-9.7h-31.2z" fill="#FFF3E0"/><path d="M91.3 89.5h31.1l3.8-11.3H96.5l-5.2 11.3zm62.2 0h31.1l.8-11.3h-29.6l-2.3 11.3zM215 78.2l.7 11.3h31.1l-2.2-11.3H215zm88.8 0h-29.6l3.7 11.3H309l-5.2-11.3z" fill="#FFE0B2"/><path d="M60.2 99.2c0 8.6 7 15.6 15.6 15.6s15.6-7 15.6-15.6v-9.7H60.3l-.1 9.7zm62.2 0c0 8.6 7 15.6 15.6 15.6s15.6-7 15.6-15.6v-9.7h-31.1v9.7h-.1zm62.2 0c0 8.6 7 15.6 15.6 15.6s15.6-7 15.6-15.6v-9.7h-31.1l-.1 9.7zm62.2 0c0 8.6 7 15.6 15.6 15.6s15.6-7 15.6-15.6v-9.7h-31.1v9.7h-.1zm62.2-9.7v9.7c0 8.6 7 15.6 15.6 15.6s15.6-7 15.6-15.6v-9.7H309z" fill="#FB8C00"/><path d="M60.2 89.5h31.1l5.2-11.3H66.9l-6.7 11.3zm62.2 0h31.1l2.3-11.3h-29.6l-3.8 11.3zm63-11.3l-.8 11.3h31.1l-.7-11.3h-29.6zm59.2 0l2.2 11.3h31.1l-3.7-11.3h-29.6zm88.9 0h-29.7l5.2 11.3h31.2l-6.7-11.3z" fill="#F57C00"/><path d="M70.2 130.1h7.9v5.8h-7.9v-5.8z" fill="#FFBB58"/><path d="M88.2 131.3h126.5v76.8H88.2v-76.8z" fill="#EF6C00"/><path d="M92.6 135.7h117.7v67.9H92.6v-67.9z" fill="#FFB74D"/><path d="M210.3 155.8v10.5l-30.5-30.6h10.5l20 20.1zm0 13.4v5.2l-38.7-38.7h5.3l33.4 33.5zm0 23.9v10.5h-10.5l-67.9-67.9h21l57.4 57.4z" fill="#FB8C00"/><path d="M92.6 135.7h117.7v2.4H92.6v-2.4z" opacity=".2" fill="#616161"/><path d="M81.6 208.1h139.7v14.4H81.6v-14.4z" fill="#E3F2FD"/><path d="M212.7 199.6H90.3c-3.2 0-5.9 2.6-5.9 5.9v2.6h134.1v-2.6c0-3.3-2.6-5.9-5.8-5.9z" fill="#FFB74D"/><path d="M81.6 208.1h139.7v3.1H81.6v-3.1z" opacity=".5" fill="#BBDEFB"/><path d="M218.5 205.2H84.4v2.9h134.1v-2.9z" opacity=".2" fill="#616161"/><path d="M234.1 221.4v30.2h-124l-28.2-28.2h139.7v-14.5l12.5 12.5z" opacity=".4" fill="#616161"/><path d="M337.5.8H62.9c-4.3 0-7.8 3.5-7.8 7.8V51c0 4.3 3.5 7.8 7.8 7.8h274.7c4.3 0 7.8-3.5 7.8-7.8V8.6c-.1-4.3-3.6-7.8-7.9-7.8z" fill="#EF6C00"/><path d="M335.8 5.4H64.6c-2.8 0-5 2.2-5 5v38.8c0 2.8 2.2 5 5 5h271.2c2.8 0 5-2.2 5-5V10.4c0-2.8-2.2-5-5-5z" fill="#FFA726"/><path d="M340.8 10.4v.6H59.6v-.6c0-2.8 2.2-5 5-5h271.2c2.8 0 5 2.2 5 5z" opacity=".2" fill="#FFB74D"/><path d="M81.5 36.7h-1.4v4.6h-5.4V24.1h7.2c4.9 0 7.7 2.5 7.7 6.2-.1 4.2-2.9 6.4-8.1 6.4zm-.1-8.4h-1.5v4.5h1.4c1.9 0 2.8-.8 2.8-2.3 0-1.5-.9-2.2-2.7-2.2zm14.5 13.1V24.2h5.4v17.2h-5.4zm21.1.4c-5.1 0-9.2-3-9.2-9 0-5.6 4.1-9.1 9.2-9.1s9.2 2.9 9.2 8.9c.1 5.7-4 9.2-9.2 9.2zm0-13.8c-2.5 0-3.7 1.9-3.7 4.7 0 2.8 1.3 4.8 3.8 4.8s3.7-2 3.7-4.7c0-2.8-1.3-4.8-3.8-4.8zm27.8-3.8h5v17.4H144l-6.2-9.9v9.7h-5V24.2h5.8l6.1 9.8.1-9.8zM157 41.4V24.2h13.4v4.2h-8.1v2.3h6.4v4.2h-6.4v2.3h8.1v4.2H157zm20.2 0V24.2h13.4v4.2h-8.1v2.3h6.4v4.2h-6.4v2.3h8.1v4.2h-13.4zm25.5 0h-5.4V24.2h7.8c4.8 0 7.3 2.2 7.3 5.6 0 2.2-1.1 4-3.4 5l4.3 6.6h-6l-3.1-5.2-1.5.1v5.1zm1.8-9c1.7-.2 2.3-.8 2.3-2.2 0-1.3-.7-1.9-2.7-1.9h-1.5v4.1h1.9zm33.5-3.8v12.8h-5.4V28.6h-5.2v-4.4h15.8v4.4H238zm11.5 12.8V24.2h13.4v4.2h-8.1v2.3h6.4v4.2h-6.4v2.3h8.1v4.2h-13.4zm24.7 0h-5.9l5.8-8.6-5.6-8.6h6l2.9 5 3-5h5.9l-5.7 8.4 5.9 8.8h-6l-3.1-5.3-3.2 5.3zm35.3 0h-5.4l-1.1-3.2h-5.8l-1 3.2h-5.3l5.9-17.2h6.9l5.8 17.2zM300.2 28l-1.9 6h3.7l-1.8-6zm23.2 8.4c0-.8-1.2-1.1-3.2-1.7-2.5-.7-5.7-1.9-5.7-5.4 0-3.4 2.3-5.6 7-5.6 3.1 0 5.3.7 6.9 1.5l-.9 4.4c-1.9-.9-4.3-1.6-6.1-1.6-1 0-1.7.2-1.7.9 0 .8 1.7 1.2 3.4 1.7 2.7.8 5.6 2 5.6 5.3 0 3.4-2.6 5.8-7.6 5.8-2.8 0-5.5-.7-7.1-1.5l.8-4.4c1.8.9 4.2 1.6 6.3 1.6 1.5 0 2.3-.3 2.3-1z" fill="#FFF3E0"/><path d="M86.2 58.8h4.6v4.7h-4.6v-4.7zm223.3 0h4.6v4.7h-4.6v-4.7z" fill="#FFCC80"/></g></svg>