<svg id="airplane_1_" xmlns="http://www.w3.org/2000/svg" viewBox="0 0 250 250"><style>.st0{display:none}.st1{fill:none}.st1,.st2,.st3{display:inline;stroke:#000;stroke-miterlimit:10}.st2{fill:url(#SVGID_1_)}.st3{fill:url(#SVGID_2_)}.st4{fill:#ffe2c3}.st4,.st5,.st6,.st7,.st8{fill-rule:evenodd;clip-rule:evenodd}.st5{fill:#ffc651}.st6{fill:#ffcc80}.st7{fill:#ffa726}.st8{fill:#f7dfc7}</style><g id="grid" class="st0"><path class="st1" d="M-.3 25h249.9M-.3 224.9h249.9"/><linearGradient id="SVGID_1_" gradientUnits="userSpaceOnUse" x1="24.724" y1="124.953" x2="24.724" y2="124.953"><stop offset="0" stop-color="#FFF"/><stop offset="1"/></linearGradient><path class="st2" d="M24.7 0v249.9"/><linearGradient id="SVGID_2_" gradientUnits="userSpaceOnUse" x1="224.649" y1="124.953" x2="224.649" y2="124.953"><stop offset="0" stop-color="#FFF"/><stop offset="1"/></linearGradient><path class="st3" d="M224.6 0v249.9"/></g><path class="st4" d="M125.5 224c55.5 0 100.8-44.7 100.8-99.5S181 25 125.5 25 24.7 69.7 24.7 124.5 70 224 125.5 224z"/><path class="st5" d="M143.6 105.6l52.4-27 25.2 38.1.6 1.4c.2 2.6.3 5.2.4 7.8l-47.6 23.4-31-43.7z"/><path class="st6" d="M94.4 142.7l-.7-.5c-5.5 8.3 1.1 19.2 9.8 16.1-6.5 7.8-1.1 18.8 7 17.7-5.1 8.2 1.8 18.7 10.6 14.3l40.2-19.8c11.3-5.6 24.3-19.5 28.9-27.7 13.6-24.3-3.6-48-15.1-50.2-9-1.7-15.1-4.2-21.2-1.3L87.2 123c-12.6 5.1-3.2 23.2 7.2 19.7z"/><path class="st7" d="M205.7 64.2l-33.6 16.7 31.3 61.9 22.7-11.3c.2-2.3.3-4.7.3-7-.1-22.7-7.8-43.6-20.7-60.3z"/><path class="st4" d="M130.1 116.7l-43-40-34.7 30-1 1.1c-.9 2.5-1.8 4.9-2.6 7.4l39.5 35.2 41.8-33.7z"/><path class="st7" d="M167.2 165.6l.8-.3c3 9.5-6.3 18.2-13.8 12.9 4.1 9.2-4 18.4-11.6 15.2 2.7 9.2-6.8 17.5-14.1 11l-33.3-29.8c-9.3-8.4-18.1-25.3-20.2-34.4-6.4-27 16.5-45.3 28.3-44.3 9.2.7 15.7 0 20.8 4.4l55.6 48.3c10.6 8.2-3.4 23.1-12.5 17z"/><path class="st8" d="M154.4 179.6v-1c.2.5.4 1 .5 1.5l-.5-.5zm0-1.3c1 .7 2.1 1.1 3.2 1.4-1-.8-2.1-1.6-3.2-2.4v1zm0-23.7v-.5c3.9 3.1 10.4 8.4 13.7 11.3l.1.3c.2.8.4 1.7.5 2.5-4.4-4.1-10.6-10-14.3-13.6zm-23.7 29s6.5 6.1 12.3 11.4c-.1-.5-.2-1.1-.3-1.6.7.3 1.3.5 2 .6-6.4-4.8-14-10.4-14-10.4zm23.7-29.5v.5c-1.9-1.9-3.2-3.1-3.2-3.1s1.3 1 3.2 2.6zm0 23.1v1.1l-.2-.1.2.4v1c-6.4-5.8-13.9-12.7-13.9-12.7s7.6 5.6 13.9 10.3z"/><path class="st6" d="M63.2 47l46.2 42.6-47 51.3-37.7-31.6c1-7.6 3.7-21.2 12.6-35.6C46.1 59.6 56.8 51.2 63.2 47zm61.7 126.9c2.7 3.2 2.5 8.2-.9 10.7l-11.3 8.2c-3.4 2.5-8.1 2.3-10.8-.8-2.7-3.2-2.3-8 .9-10.7l11.3-8.2c3.4-2.5 8.1-2.3 10.8.8zm-10-11.5c2.7 3.2 2.5 8.2-.9 10.7l-11.3 8.2c-3.4 2.5-8.1 2.3-10.8-.9-2.7-3.2-2.3-8 .9-10.7l11.3-8.2c3.4-2.4 8.1-2.3 10.8.9z"/><path class="st6" d="M105 150.9c2.7 3.2 2.5 8.2-.9 10.7l-11.3 8.2c-3.4 2.5-8.1 2.3-10.8-.8-2.7-3.2-2.3-8 .9-10.7l11.3-8.2c3.4-2.6 8-2.4 10.8.8zm-10-11.6c2.7 3.2 2.5 8.2-.9 10.7l-11.3 8.2c-3.4 2.5-8.1 2.3-10.8-.8-2.7-3.2-2.3-8 .9-10.7l11.3-8.2c3.4-2.5 8.1-2.4 10.8.8zm19.5-43.4c3.1-1.8 10.2-3.6 17.7-4.8 7.5-1.2 18.8-2.2 27.5-1.1 5.4.7 13.1 5.1 12.6 11.3-.5 6.2-17.9 11.1-23.5 11.2-4.4 0-19.4-4.6-29.4-.4-11.5 4.8-20.8-1-20.4-6.3-.1-1.2 4.8-3.8 15.5-9.9z"/></svg>