<svg width="250" height="170" viewBox="0 0 250 170" xmlns="http://www.w3.org/2000/svg"><title>roofing_white_icon</title><g id="Page-1" fill="none" fill-rule="evenodd"><g id="roofing_white_icon"><g id="Group"><g id="Shape" fill="#212121"><path d="M12.3,1.7 C6.4,-1.5 1.5,3.4 1.5,12.5 C1.5,21.6 6.4,31.6 12.3,34.8 C18.2,38 23.1,33.1 23.1,24 C23.1,14.9 18.3,4.9 12.3,1.7 L12.3,1.7 Z M12.3,33.2 C7,30.3 2.6,21.3 2.6,13.1 C2.6,4.9 7,0.5 12.3,3.4 C17.6,6.2 22,15.3 22,23.5 C22.1,31.7 17.7,36.1 12.3,33.2 L12.3,33.2 Z" transform="translate(53 84)"/><path d="M6,3.3 C3.1,4.3 1.1,8.1 1.1,13.6 C1.1,21.8 5.5,30.9 10.8,33.7 C12.6,34.6 14.2,34.8 15.7,34.3 L17.3,33.7 C15.9,34.2 14.2,34.1 12.4,33.1 C7.1,30.2 2.7,21.2 2.7,13 C2.7,7.5 4.7,3.7 7.6,2.7 L6,3.3 L6,3.3 Z" transform="translate(53 84)"/><path d="M0.4,0.6 L0.4,1.9 L9.7,6.8 L9.7,5.6 L0.4,0.6 Z" transform="translate(54 96)"/><path d="M1.3,0.3 L10.7,5.3 L9.7,5.6 L0.4,0.6 L1.3,0.3 Z" transform="translate(54 96)"/><path d="M9.7,6.8 L9.7,5.6 L10.7,5.3 L10.7,6.5 L9.7,6.8 Z" transform="translate(54 96)"/><path d="M1.7,0.2 L2.5,0.7 L1.5,1 L0.7,0.6 L1.7,0.2 Z" transform="translate(63 87)"/><path d="M0.7,0.6 L0.7,30.4 L1.5,30.9 L1.5,1 L0.7,0.6 Z" transform="translate(63 87)"/><path d="M1.5,30.9 L1.5,1 L2.5,0.7 L2.5,30.5 L1.5,30.9 Z" transform="translate(63 87)"/><g><path d="M0.5,1 L0.5,2.3 L9.8,7.2 L9.8,6 L0.5,1 Z" transform="translate(64 101)"/><path d="M1.5,0.7 L10.8,5.7 L9.8,6 L0.5,1 L1.5,0.7 Z" transform="translate(64 101)"/><path d="M9.8,7.2 L9.8,6 L10.8,5.7 L10.8,6.9 L9.8,7.2 Z" transform="translate(64 101)"/></g><path d="M10.8,2.3 C4.9,-0.9 0,4 0,13.1 C0,22.2 4.9,32.2 10.8,35.4 C16.7,38.6 21.6,33.7 21.6,24.6 C21.6,15.5 16.7,5.5 10.8,2.3 L10.8,2.3 Z M10.8,33.8 C5.5,30.9 1.1,21.9 1.1,13.7 C1.1,5.5 5.5,1.1 10.8,4 C16.1,6.8 20.5,15.9 20.5,24.1 C20.5,32.2 16.1,36.6 10.8,33.8 L10.8,33.8 Z" transform="translate(53 84)"/><path d="M16.1,36 C19.3,34.9 21.5,30.7 21.5,24.5 C21.5,15.4 16.6,5.4 10.7,2.2 C8.8,1.2 7,1 5.5,1.5 L6.9,1 C8.5,0.4 10.3,0.6 12.3,1.6 C18.2,4.8 23.1,14.8 23.1,23.9 C23.1,30 20.9,34.2 17.7,35.4 L16.1,36 L16.1,36 Z" transform="translate(53 84)"/></g><path d="M59.2,52 L111.2,159.5 L7.3,104 L59.2,52 L59.2,52 Z M59.2,87.9 C53.3,84.7 48.4,89.6 48.4,98.7 C48.4,107.8 53.3,117.8 59.2,121 C65.1,124.2 70,119.3 70,110.2 C70,101.1 65.2,91.1 59.2,87.9 L59.2,87.9 Z" id="Shape" fill="#212121"/><path d="M249.3,123.5 L249.3,123.4 L116.5,169.6 L117.5,168.1 L249.2,122 L249.2,123.5 L249.3,123.5 L249.3,123.4 L249.3,123.5 L249.4,123.5 L249.4,121.8 L249.4,121.7 L117.4,167.9 L115.9,170 L249.4,123.6 L249.4,123.5 L249.3,123.5 Z" id="Shape" fill="#212121"/><path d="M116,169.8 L59.2,52 L2.2,109 L0.5,105.6 L59.2,47.6 L117.4,167.9 L116,169.8 Z" id="Shape" fill="#EEE"/><path d="M194.8,26.5 L167.4,36.2 L167.4,39.3 L194.8,29.5 L194.8,26.5 Z" id="Shape" fill="#212121"/><path d="M167.4,36.2 L156.2,30.3 L156.2,33.3 L167.4,39.3 L167.4,36.2 Z" id="Shape" fill="#212121"/><path d="M59.2,47.6 L190.2,0.5 L249.5,121.8 L117.5,168 L59.2,47.6 L59.2,47.6 Z M194.8,26.5 L183.7,20.6 L156.3,30.3 L159.5,32 L159.5,49.7 L168.8,68.8 L191.6,60.7 L191.6,27.6 L194.8,26.5 L194.8,26.5 Z" id="Shape" fill="#212121"/></g></g></g></svg>