<svg width="256" height="256" viewBox="0 0 256 256" xmlns="http://www.w3.org/2000/svg"><title>shop</title><g id="Page-1" fill="none" fill-rule="evenodd"><g id="shop"><path d="M251.4,88.3 L228.5,56.6 C227.6,55.4 226.4,54.3 226.4,53.2 L226.4,15.3 C226.4,6.5 217.7,0.7 208.9,0.7 L49.1,0.7 C40.3,0.7 32.5,6.5 32.5,15.3 L32.5,53.2 C32.5,54.2 30.5,55.3 29.6,56.5 L5.5,88.3 C2.4,92.4 0.5,97.5 0.5,102.6 L0.5,110.5 C0.5,123.6 12.5,134.3 25.5,134.3 L25.5,134.3 L25.5,237.5 C25.5,246.3 32.3,255.7 41.1,255.7 L217,255.7 C225.8,255.7 233.5,246.2 233.5,237.5 L233.5,134.3 L233.5,134.3 C233.5,134.3 255.5,123.6 255.5,110.5 L255.5,102.6 C255.5,97.5 254.5,92.4 251.4,88.3 L251.4,88.3 Z" id="Shape" fill="#212121"/><path d="M209.5,16.7 L209.5,50.7 L47.5,50.7 L47.5,50.7 L47.5,16.7 L209.5,16.7 Z" id="Shape" fill="#757575"/><path d="M84.6,119.7 L50.6,119.7 L83,65.7 L100.8,65.7 L84.6,119.7 Z" id="Shape" fill="#757575"/><path d="M107.9,65.7 L126.5,65.7 L126.5,119.7 L91.9,119.7 L107.9,65.7 Z" id="Shape" fill="#BDBDBD"/><path d="M134.5,65.7 L152.1,65.7 L168.1,119.7 L134.5,119.7 L134.5,65.7 Z" id="Shape" fill="#757575"/><path d="M160.4,65.7 L177.9,65.7 L209.9,119.7 L176.4,119.7 L160.4,65.7 Z" id="Shape" fill="#BDBDBD"/><path d="M17.6,110.5 C17.5,108.6 17.7,107.3 17.7,107 C17.8,106.6 18,105 18.8,103.1 C19.2,102.3 19.5,101.6 19.8,101.1 L44,68.9 C45.5,66.9 47.8,65.7 50.4,65.7 L73.6,65.7 L41.1,119.7 L26.1,119.7 C25.8,119.7 21.8,120.3 19.2,117.1 C17.9,115.5 17.8,113.7 17.6,110.5 L17.6,110.5 Z" id="Shape" fill="#BDBDBD"/><path id="Rectangle-path" fill="#757575" d="M103.5 169.7H165.5V249.7H103.5z"/><circle id="Oval" fill="#BDBDBD" cx="152.5" cy="218.9" r="3.9"/><path id="Rectangle-path" fill="#BDBDBD" d="M47.5 50.7H209.9V57H47.5z"/><path d="M21.8,119.1 L41.3,119.1 L41.3,128.2 L21.8,128.2 C21.8,128 21.7,127.8 21.7,127.5 C21.3,124.6 21.4,121.7 21.8,119.1 L21.8,119.1 Z" id="Shape" fill="#757575"/><path id="Rectangle-path" fill="#BDBDBD" d="M50.6 119.7H84.4V128.8H50.6z"/><path id="Rectangle-path" fill="#757575" d="M91.9 119.7H126.5V128.8H91.9z"/><path id="Rectangle-path" fill="#BDBDBD" d="M134.5 119.7H168.1V128.8H134.5z"/><path d="M240.3,114.2 C240,116.5 239.8,117.7 239.1,118.7 C238.4,119.8 237.5,120.6 236.5,120.7 C236.2,120.7 235.2,120.8 233.9,119.8 L219.1,119.8 L187.1,65.8 L210,65.8 C212.5,65.8 214.9,67.1 216.4,69.1 L239.2,100.9 C239.4,101.6 239.6,102.4 239.8,103.2 C240,103.9 240,104.4 240.1,104.9 C240.4,107.4 240.6,108.7 240.6,109 C240.7,111 240.5,112.6 240.3,114.2 L240.3,114.2 Z" id="Shape" fill="#757575"/><path id="Rectangle-path" fill="#757575" d="M176.5 119.7H209.9V128.8H176.5z"/><path d="M219.1,119.7 L238.3,119.7 C238.5,122.2 238.5,124.8 238.1,127.5 C238.1,127.7 238.1,127.8 238,128 C231.7,128.1 225.4,128.1 219,128.2 L219,119.7 L219.1,119.7 Z" id="Shape" fill="#BDBDBD"/></g></g></svg>