<svg width="152" height="24" viewBox="0 0 152 24" xmlns="http://www.w3.org/2000/svg"><title>TT_lockup_horizontal_ttOrange Copy</title><path d="M100.79 11.679c-.373-.446-.91-.672-1.597-.672-1.471 0-3.198 1.313-3.653 3.823-.289 1.588-.136 2.793.441 3.484.37.444.906.67 1.59.67 1.11 0 3.063-.519 3.68-3.99.265-1.493.106-2.64-.46-3.315zm2.344-1.791c.978 1.163 1.284 3.137.861 5.558-.625 3.584-3.208 6.087-6.28 6.087-1.224 0-2.221-.454-2.964-1.349l-.125-.151-.14.792c-.045.247-.234.413-.47.413h-1.993a.31.31 0 0 1-.3-.364l.142-.806-.187.147c-.768.602-1.95 1.321-3.225 1.321-.869 0-1.498-.23-1.87-.684-.707-.863-.408-2.358-.19-3.45.034-.17.066-.33.091-.473.097-.554.188-1.058.27-1.517.475-2.646.672-3.741.304-4.181-.126-.15-.312-.22-.586-.22-1.853 0-4.186 4.966-5.533 9.872-.063.229-.24.355-.5.355h-1.834a.307.307 0 0 1-.298-.368l.335-1.918c.11-.62.223-1.227.333-1.811.54-2.894.967-5.18.376-5.892a.652.652 0 0 0-.525-.238c-1.393 0-3.67 4.066-5.538 9.887a.493.493 0 0 1-.48.34H70.95a.307.307 0 0 1-.229-.114.275.275 0 0 1-.065-.225l.139-.815-.183.137c-1.198.897-2.21 1.315-3.185 1.315-.869 0-1.497-.225-1.868-.667-.425-.506-.535-1.306-.335-2.443l.212-1.202-.168-.063c-1.133 1.878-2.94 4.375-5.528 4.375-1.109 0-1.96-.53-2.335-1.453l-.044-.11-.095.072c-1.273.967-2.241 1.491-3.711 1.491-.853 0-1.472-.223-1.84-.663-.677-.809-.426-2.2-.244-3.217l.053-.298c.177-1.039.408-2.345.617-3.525l.174-.987c.11-.619.17-1.239-.118-1.582-.14-.167-.35-.252-.625-.252-1.22 0-4.335 3.782-6.635 9.942a.469.469 0 0 1-.434.284h-1.569a.292.292 0 0 1-.231-.104.31.31 0 0 1-.07-.245c.054-.32 1.838-10.428 2.695-15.285l.485-2.748c.034-.19.225-.395.456-.395h2.245c.089 0 .17.038.228.108a.32.32 0 0 1 .071.256l-1.86 10.459.17.058c.025-.047 2.528-4.704 5.652-4.704 1.028 0 1.773.266 2.214.792.67.8.55 2.07.371 3.086-.196 1.115-.396 2.229-.572 3.217-.14.79-.268 1.498-.367 2.066-.122.688-.078 1.127.137 1.384.162.194.416.284.799.284.492 0 1.073-.251 1.727-.746l.038-.03-.002-.047a8.684 8.684 0 0 1 .143-1.895l1.274-7.289a.482.482 0 0 1 .47-.404h2.216c.104 0 .19.037.248.106a.32.32 0 0 1 .07.249l-1.283 7.273-.04.214c-.113.587-.267 1.392.085 1.818.15.181.377.273.675.273 1.511 0 4.633-3.413 6.32-9.585.005-.014.1-.349.468-.349h1.715a.31.31 0 0 1 .313.36L68.29 17.95c-.109.646-.064 1.058.14 1.3.145.17.368.253.683.253.614 0 1.391-.453 1.914-.876l.026-.022.006-.033c.394-2.207.943-5.308 1.31-7.383l.305-1.727c.042-.24.23-.4.468-.4l2.233-.004c.093 0 .183.04.24.108a.297.297 0 0 1 .06.25l-.615 3.527.17.059c.06-.114.128-.247.203-.394.7-1.378 2.004-3.943 4.36-3.943 1.669 0 2.534.9 2.574 2.675.026 1.154-.143 1.932-.144 1.94l.172.054c.02-.047 1.943-4.67 5.264-4.67 1.05 0 1.728.23 2.137.724.6.722.67 2.082.232 4.408a255.25 255.25 0 0 0-.48 2.72l-.23 1.32c-.122.69-.078 1.132.138 1.39.16.19.405.277.772.277.732 0 1.423-.53 1.88-.929l.024-.02.005-.033c.317-1.798 2.415-13.7 2.762-15.655a.473.473 0 0 1 .467-.4h2.227c.099 0 .184.038.241.105.058.07.08.162.062.264l-.097.557c-.233 1.344-.565 3.25-.993 5.645-.069.381-.167.905-.167.905l-.054.284.207-.202a4.81 4.81 0 0 1 3.336-1.369c1.306 0 2.318.416 3.006 1.235zm18.589 1.83c-.392-.47-.963-.708-1.699-.708-1.802 0-3.153 1.43-3.612 3.824-.172.901-.346 2.553.433 3.496.359.434.873.655 1.53.655 1.834 0 3.36-1.615 3.798-4.02.265-1.453.11-2.577-.45-3.247zM152 8.815v1.698c0 .11-.052.18-.095.22a.338.338 0 0 1-.228.084.38.38 0 0 1-.096-.012 3.074 3.074 0 0 0-.784-.1c-1.911 0-4.262 2.129-4.36 2.22l-.054.048.034.062s3.895 7.128 4.233 7.754a.297.297 0 0 1-.006.3.297.297 0 0 1-.251.15h-2.365c-.493 0-.524-.06-.733-.441l-.14-.255c-.799-1.464-2.165-3.964-3.021-5.54l-.055-.099-.582.504c-.244.211-.385.333-.6.526l-.023.021s-.34 1.942-.477 2.734c-.184 1.057-.323 1.858-.378 2.156a.478.478 0 0 1-.467.393h-2.239a.302.302 0 0 1-.23-.11.304.304 0 0 1-.07-.247l.42-2.355-.186.14c-2.332 1.77-4.295 2.867-6.87 2.867-2.166 0-3.836-.718-4.581-1.97l-.063-.105-.083.091c-.018.02-1.83 1.987-4.037 1.987-1.07 0-2.1-.208-2.386-1.713l-.033-.174-.122.128c-1.128 1.182-2.391 1.756-3.864 1.756-1.496 0-2.706-.739-3.236-1.975l-.05-.118-.095.087c-1 .916-2.565 2.009-4.344 2.009-1.258 0-2.178-.337-2.736-1.002-.539-.642-.728-1.604-.532-2.71l1.086-6.158c.055-.316.1-.547.1-.547l.022-.109h-1.935a.294.294 0 0 1-.214-.107.309.309 0 0 1-.069-.256c.063-.374.214-1.232.214-1.232.037-.215.266-.359.457-.359h1.884l.787-4.456a.476.476 0 0 1 .46-.393h2.24c.088 0 .173.041.233.113a.293.293 0 0 1 .069.235c-.091.508-.773 4.395-.773 4.395l-.019.106h3.09c.092 0 .176.04.235.11a.296.296 0 0 1 .07.236c-.039.214-.206 1.193-.206 1.193a.489.489 0 0 1-.492.415h-3.038l-1.183 6.68c-.107.608-.024 1.08.247 1.404.218.259.558.407.934.407 1.455 0 2.45-.692 3.07-1.212l.04-.034-.009-.05c-.129-.792-.235-1.589-.114-2.623.392-3.344 2.346-6.92 6.658-6.92 1.974 0 2.678 1.23 2.8 1.477l.12.248.176-.955a.482.482 0 0 1 .448-.378h2.002a.31.31 0 0 1 .3.359l-1.481 8.42c-.134.76-.104 1.189.1 1.432.135.162.342.236.652.236 1.124 0 1.948-1.133 1.982-1.18l.025-.036-.011-.042c-.232-.836-.269-2.208-.086-3.263.676-3.896 3.227-6.317 6.657-6.317 1.654 0 2.943.505 3.726 1.462.807.985.914 2.24.745 3.085-.057.284-.33.514-.608.514h-2.02a.308.308 0 0 1-.235-.106.296.296 0 0 1-.075-.228l.071-.547c.07-.533-.042-.987-.326-1.311-.3-.341-.767-.522-1.352-.522-1.717 0-3.183 1.594-3.647 3.966-.249 1.274-.088 2.27.48 2.96.576.699 1.562 1.053 2.93 1.053 2.608 0 4.408-.946 6.307-2.367l.029-.021 2.42-13.72c.048-.258.237-.42.492-.42l2.214.001a.303.303 0 0 1 .298.368l-.553 3.13c-.371 2.095-.83 4.684-1.256 7.117l-.051.295.206-.216c.832-.868 2.356-2.459 4.153-3.803 1.393-1.043 2.513-1.262 3.208-1.262.7 0 1.101.264 1.101.724zM43.927 4.733c.107-.607.259-1.46.316-1.77a.297.297 0 0 0-.068-.24.305.305 0 0 0-.234-.111h-8.732c-3.753 0-5.463 2.35-5.463 4.532 0 .213.018.738.183 1.015a.467.467 0 0 0 .54.23c.207-.05.548-.138.906-.229l.41-.104c.058-.015.247-.078.247-.27 0-1.21.57-2.653 3.28-2.653h1.423L33.932 21.03a.302.302 0 0 0 .07.245.3.3 0 0 0 .23.112h2.238c.197 0 .42-.136.467-.394l2.794-15.859h3.736c.226 0 .42-.169.46-.4zM16.017.183a.606.606 0 0 0-.866-.001c-.153.154-.2.205-.299.304-1.218 1.22-1.087 2.742-.094 3.735.5.502.342 1.117-.062 1.435-.584.459-2.73 2.124-3.627 2.82a6.125 6.125 0 0 0-7.293.109.712.712 0 0 0-.075 1.072l10.64 10.64a.712.712 0 0 0 1.072-.075 6.126 6.126 0 0 0 .109-7.293c.696-.898 2.362-3.044 2.82-3.627a.937.937 0 0 1 1.433-.062c.995.993 2.517 1.124 3.736-.095.1-.099.15-.145.304-.3a.606.606 0 0 0 0-.866L16.017.183zm-9.26 14.6l2.453 2.454s-3.46 2.652-7.58 5.899c-.58.456-1.345 1.041-1.578.808-.232-.232.358-.964.816-1.56 2.708-3.518 5.889-7.601 5.889-7.601z" fill="#F27802" fill-rule="evenodd"/></svg>