<svg id="Layer_1" xmlns="http://www.w3.org/2000/svg" viewBox="0 0 106.1 180"><style>.st0{fill:#ff9800}</style><path class="st0" d="M79.8 165.1H58.9v-39.4h2.5v-7.9H57V85.7c20.4-2 36.4-19.2 36.4-40.1 0-22.2-18.1-40.3-40.3-40.3s-40.4 18-40.4 40.2c0 20.9 16 38.2 36.4 40.1v32.3h-4.4v7.9h2.5v39.4H26.3c-2.7 0-4.9 2.2-4.9 4.9v4.9h63.2v-4.9c0-2.8-2.1-5-4.8-5zM36.1 50.9h-.7l8.5-2.8c.2.6.5 1.2.9 1.8l-1.5 1h-7.2zm4.4 1.9L21.8 66c-1.9-2.9-3.4-6-4.4-9.3L32 52c1.2.5 2.6.9 4.1.9h4.4zm13.1 20.1c2.2-1.3 4.5-3.1 6-5.5l4.3 14c-3.3 1-6.8 1.5-10.4 1.6V72.9zm-5.8-11.4l2.6-7.5c.7.2 1.5.3 2.2.4v16.7c-1.8 1.1-3.6 1.8-4.8 2.2V61.5zm11.6-36.9l-3.6 10.7c-.7-.2-1.4-.3-2.2-.4V18.6c2.2-1.4 4.5-2.4 5.8-2.9v8.9zm1.5 20.1c0 4.3-3.5 7.9-7.9 7.9s-7.9-3.5-7.9-7.9 3.5-7.9 7.9-7.9 7.9 3.5 7.9 7.9zm9.8-5.3c3.4.2 6 2.5 7.9 5.1l-15.7-.2c0-.8-.2-1.5-.4-2.2l8.2-2.7zm-7.9 5.8l16.4.2c1.3 2.1 2.2 4.2 2.6 5.4H74l-11.5-3.7c.2-.6.3-1.2.3-1.9zM52.6 34.9c-.7 0-1.3.1-1.9.3l-2.8-8.9c.5-2.9 2.4-5.2 4.7-6.9v15.5zm-2.9.6c-.7.2-1.3.6-1.9.9v-7.2l1.9 6.3zM44 41.1l-5.5-1.8h6.4c-.4.6-.7 1.2-.9 1.8zm5.4 12.6l-1.6 4.8v-5.6c.5.3 1.1.6 1.6.8zm4.2.7c.7 0 1.3-.1 2-.3l3.3 10.5c-1 2.5-3 4.5-5.2 5.9V54.4zm6.7 11.8c.6-1.4 1.1-2.9 1.1-4.6v-4.8l13.8 19c-3.2 2.2-6.6 4-10.3 5.2l-4.6-14.8zm-.9-4.6c0 .5 0 .9-.1 1.4l-2.8-9.1c.7-.3 1.4-.6 2-1l.9 1.2v7.5zm-.2-9.4l.1-.1v.3l-.1-.2zm1.4-1.4c0 .1 0 0 0 0zm.6-.7c.4-.6.7-1.3 1-2l8.7 2.8h-8.6l-1.1-.8zm15.7 2.7l11.9 3.9c-1.2 3.7-2.9 7.1-5.1 10.2L64.9 52.8h12zm3.1 0h3.2c.3 0 .6-.1.8-.4.2-.2.2-.6.2-.8-.1-.3-.9-3.1-2.6-6.1l8.9.1c0 3.5-.5 6.9-1.4 10.2l-9.1-3zm1-8.3c-1.6-2.5-3.8-5-6.8-6.3l14.3-4.6c1.2 3.5 1.9 7.2 2 11l-9.5-.1zm-8.4-6.8c-.8-.2-1.6-.3-2.5-.3h-5.9l19.3-13.6c2 2.7 3.5 5.7 4.7 8.9l-15.6 5zm-4.9 1.6l-5.5 1.8c-.2-.6-.5-1.2-.9-1.7l.1-.1h6.3zm-8.3-2.1l-.2-.2.2-.3v.5zm-1-.8c-.5-.4-1.1-.6-1.7-.9l2.7-8V35l-1 1.4zm2.9-14.5l4-11.7c3.2 1.1 6.2 2.6 8.9 4.5L61.3 32.4V21.9zm0-3v-4.4c0-.3-.1-.6-.4-.8-.2-.2-.6-.2-.8-.2-.3.1-3.3.9-6.5 2.8V8.1c3.8 0 7.4.6 10.8 1.7l-3.1 9.1zm-8.7-2c-2.3 1.5-4.4 3.5-5.7 6.1L42.8 9.6c3.1-.9 6.4-1.4 9.8-1.5v8.8zm-6.3 7.6c-.3 1-.5 2-.5 3.1v6.3L32 14.7c3-2.1 6.3-3.7 9.9-4.8l4.4 14.6zM32.5 37.4L18 32.7c1.3-3.5 3.1-6.8 5.3-9.7l19.3 14.4H32.5zm-3.2 0h-6.4c-.3 0-.6.1-.8.4-.1.2-.2.5-.1.8.1.2.7 2.5 2 5.1l-8.3-.1c.2-3.5.8-6.8 1.9-10l11.7 3.8zm-5 1.9h11l8.4 2.7c-.2.6-.3 1.3-.3 1.9l-17.1-.2c-1-1.7-1.6-3.3-2-4.4zm19 5.6c0 .8.1 1.5.3 2.2l-10.2 3.3c-2.9-.9-5-3.3-6.6-5.8l16.5.3zm2 5.7c.1.1.1.2.2.3H45l.3-.3zm.6 13.6l-5.6 16.4c-3.3-1.2-6.4-2.9-9.2-4.9l14.8-20.4v8.9zm0 3v7.5c0 .3.1.6.4.8.2.1.4.2.6.2h.3c.2-.1 2.7-.8 5.5-2.2V83c-4-.1-7.8-.7-11.4-1.9l4.6-13.9zm30 7.9l-14.6-20v-2.3h2l19.9 14.9c-2.1 2.8-4.6 5.3-7.3 7.4zM82.8 23L62.4 37.4h-1.1V34L75 15.3c3 2.1 5.6 4.7 7.8 7.7zm-51.6-7.7l14.7 20.2v1.9h-1.6L23.9 22.1c2.1-2.6 4.6-4.9 7.3-6.8zM15.7 44.5l8.8.1c1.4 2.5 3.4 5.1 6.1 6.7L17 55.7c-.9-3.2-1.4-6.7-1.4-10.2.1-.3.1-.6.1-1zm6.6 22.3l19.9-14h3.6v.8L30.3 75.1c-3.1-2.3-5.8-5.1-8-8.3zm29.8 19h2v32.1h-1.9l-.1-32.1zm-1.9 39.9H56v39.4h-5.8v-39.4zm-25.8 46.2V170c0-1.1.9-1.9 1.9-1.9h53.5c1.1 0 1.9.9 1.9 1.9v1.9H24.4z"/></svg>