<svg width="382" height="274" viewBox="0 0 382 274" xmlns="http://www.w3.org/2000/svg"><title>white_airplane</title><g id="Page-1" fill="none" fill-rule="evenodd"><g id="white_airplane"><g id="airplane"><path d="M377.3,12.9 C370.1,12.9 342.7,16.1 337.9,16.7 C320.8,19 303.8,21.3 286.7,23.5 C246,28.9 205.3,34.4 164.6,39.8 C127.8,44.7 90.9,49.6 54.1,54.6 L22.9,58.8 L7.3,60.9 C5.7,61.1 2.3,61.5 0.7,62 C-0.4,62.4 1.1,64.1 2.2,65.1 C2.9,65.7 3.5,66.5 4.2,67.2 L9.3,72.6 C13.9,77.5 18.5,82.4 23.2,87.3 C33.8,98.5 44.3,109.8 54.9,121 C60.3,126.7 65.6,132.4 71,138.1 C72.3,148.9 73.6,159.8 74.9,170.6 C76.7,185.4 78.4,200.3 80.2,215.1 C80.6,218.2 80.9,221.3 81.3,224.5 C81.5,226.6 82.3,235.3 84.3,234.2 C87.3,232.5 92.5,229.4 94.9,227.8 C100,224.3 105.1,220.9 110.2,217.4 C117.2,212.7 124.1,208 131.1,203.3 C136.4,209.5 141.8,215.8 147.1,222.1 C156.9,233.6 166.8,245.2 176.6,256.7 C179.7,260.4 182.9,264.1 186,267.7 L189.3,271.6 C189.7,272 190.2,273 190.7,273.2 C194.3,275.2 195.5,270.9 197.1,268.8 C199.7,265.1 202.4,261.4 205,257.7 C210.3,250.3 215.6,242.9 220.8,235.6 C241.7,206.4 262.6,177.2 283.5,147.9 C304.7,118.2 325.9,88.6 347.1,58.9 C353.1,50.6 359,42.3 364.9,33.9 C367.3,30.5 381.6,12.9 377.3,12.9 L377.3,12.9 L377.3,12.9 Z" id="Shape" opacity=".1" fill="#757575"/><path d="M93.9,151.3 C94.9,147.5 95.3,144.2 97.1,141.6 C98,140.3 99.3,139.1 101.2,138.1 C117.5,129.5 134.3,121.9 150.8,113.8 C173.7,102.6 196.6,91.4 219.5,80.1 C243.3,68.4 267.1,56.8 290.9,45.1 C309,36.2 327.1,27.4 345.2,18.5 C351.1,15.6 357.1,11.9 363.2,9.7 L75.1,116.1 L82,195.5 C84.3,186.8 86.7,178.1 89,169.5 C90.6,163.4 92.3,157.3 93.9,151.3 L93.9,151.3 Z" id="Shape" fill="#FFB74D"/><path d="M10.3,40.5 L73.5,112.1 L363,5 L10.3,40.5 L10.3,40.5 Z" id="Shape" fill="#FFE0B2"/><path d="M83.7,205.8 L125.9,179.2 L99.7,146.4 L83.7,205.8 L83.7,205.8 Z" id="Shape" fill="#FFCC80"/><path d="M187.5,249.5 L370.4,10.5 L102.1,142.4 L187.5,249.5 L187.5,249.5 Z" id="Shape" fill="#FFE0B2"/><path d="M341.4,2.8 C324.3,4.5 307.2,6.2 290,8 C249.2,12.1 208.3,16.2 167.5,20.3 C130.5,24 93.5,27.7 56.6,31.5 C38.7,33.3 20.8,35.1 2.8,36.9 L2.3,36.9 L1.5,37 L70.7,115.5 C71.6,126.4 72.6,137.2 73.5,148.1 L77.4,192.8 C77.7,195.9 77.9,199.1 78.2,202.2 C78.4,204.3 78.8,213 80.9,212 C83.9,210.4 89.2,207.5 91.7,205.9 L107.3,196 C114.4,191.5 121.5,187 128.6,182.6 L187.2,256.1 L187.5,256.5 C197.4,243.6 207.2,230.7 217.1,217.8 C238.9,189.3 260.8,160.7 282.6,132.2 C304.8,103.2 326.9,74.3 349.1,45.3 C355.3,37.2 361.5,29.1 367.8,20.9 C370.4,17.5 385.2,0.4 380.9,0.2 C373.8,0.1 346.2,2.3 341.4,2.8 L341.4,2.8 L341.4,2.8 Z M10.3,40.5 L363,5 L73.5,112.1 L10.3,40.5 L10.3,40.5 Z M82,195.5 L75.1,116.1 L363.4,9.6 C357.2,11.9 351.3,15.5 345.4,18.4 C327.3,27.3 309.2,36.1 291.1,45 C267.3,56.7 243.5,68.3 219.7,80 C196.8,91.2 173.9,102.4 151,113.7 C134.5,121.8 117.6,129.4 101.4,138 C99.5,139 98.2,140.2 97.3,141.5 C95.5,144.1 95.1,147.4 94.1,151.2 C92.5,157.3 90.8,163.4 89.2,169.4 C86.7,178.2 84.3,186.9 82,195.5 L82,195.5 L82,195.5 Z M83.7,205.8 L99.8,146.4 L126,179.2 L83.7,205.8 L83.7,205.8 Z M187.5,249.5 L102.1,142.5 L370.3,10.6 L187.5,249.5 L187.5,249.5 L187.5,249.5 Z" id="Shape" fill="#FFF3E0"/></g></g></g></svg>