<svg id="airplane_1_" xmlns="http://www.w3.org/2000/svg" viewBox="0 0 300 300"><style>.st0{display:none}.st1{display:inline;fill:none;stroke:#000;stroke-miterlimit:10}.st2{fill:#ffa726}</style><path class="st0 st1" d="M25.5 50h250M25.5 250h250M50.5 25v250M250.5 25v250" id="grid"/><path id="i-1249" class="st2" d="M126.4 180.2l-50.3 15.7h-.9c-7.7 0-8.9-16.1-8.9-25.7 0-.3.3-28.3 10.4-28.3h.9l1.1.4c5.6 2.2 10.7 4.3 15.5 6.2 11.4 4.5 21.2 8.4 32.7 13.2 6.1 2.5 5.8 7.5 5.7 9.9-.3 4.2-2.6 7.5-6.2 8.6zm18.3 13.8c-1.1-.4-2.2-.6-3.4-.6-3.7 0-6.3 2.1-6.8 2.5l-.5.6c-.2.2-16.6 20-33.4 41.1-1 1.3-1.4 3-1 4.7 1.7 6.8 20.9 15 21.1 15.1 5.4 2.3 15.6 4.4 21.4 4.4 6.9 0 7.7-3.8 7.8-5.4.8-33 .8-53.3.8-53.4.2-4.1-2.2-7.5-6-9zm30.7-29.8l16.5-4c12.7-3.2 18.5-4.6 36.3-9.5 1.9-.5 3.4-1.9 4.2-3.8 2.4-6.3-6-20-9.7-25.6-4.3-6.5-12.5-17.5-18.7-17.5-1.9 0-3.7.9-4.9 2.4C177 136 168 148.5 168 148.5c-2.4 3-2.4 7.2-.1 10.9 2 3.1 4.7 4.8 7.5 4.8zm58.1 40.2c-.5-1.8-1.8-3.2-3.5-3.9-18-6.5-25-8.8-37.3-13.1l-11.9-4.1c-3-1-7.4.6-9.7 3.2-3.1 3.6-3.5 7.9-1.1 11.7 0 0 12.4 20 27.7 44.5 1 1.5 2.7 2.5 4.5 2.5 6 0 18.4-14.5 19.8-16.2.2-.2 13.5-17.3 11.5-24.6zM145.7 44.9c-.1-2-1.3-6.6-9.8-6.6-8.1 0-21.2 3.7-23.7 4.4-7.1 2-25.4 9.9-27.3 15.2l-.9 2.5 1.3 2c10.3 16.1 26.1 41.6 45.8 73.8 2.8 4.7 6 9.2 10.9 9.2 1 0 2-.2 3-.6 6.9-2.6 6.4-11.9 6.3-15.1 0-.3-2.6-36.6-5.6-84.8z"/></svg>