<svg id="airplane_1_" xmlns="http://www.w3.org/2000/svg" viewBox="0 0 250 250"><style>.st0{display:none}.st1{display:inline;fill:none;stroke:#000;stroke-miterlimit:10}.st2{fill:url(#SVGID_1_)}.st2,.st3{display:inline;stroke:#000;stroke-miterlimit:10}.st3{fill:url(#SVGID_2_)}.st4{fill:#ffe2c3}.st4,.st5{fill-rule:evenodd;clip-rule:evenodd}.st5{fill:#ffb74d}.st6{fill:#ffcc80}.st6,.st7{fill-rule:evenodd;clip-rule:evenodd}.st7{fill:#f7dfc7}.st8{fill:#ff9800}</style><g id="grid" class="st0"><path class="st1" d="M-.3 25h249.9M-.3 224.9h249.9"/><linearGradient id="SVGID_1_" gradientUnits="userSpaceOnUse" x1="24.724" y1="124.953" x2="24.724" y2="124.953"><stop offset="0" stop-color="#FFF"/><stop offset="1"/></linearGradient><path class="st2" d="M24.7 0v249.9"/><linearGradient id="SVGID_2_" gradientUnits="userSpaceOnUse" x1="224.649" y1="124.953" x2="224.649" y2="124.953"><stop offset="0" stop-color="#FFF"/><stop offset="1"/></linearGradient><path class="st3" d="M224.6 0v249.9"/></g><ellipse class="st4" cx="125.1" cy="125.9" rx="100.3" ry="99.1"/><path class="st5" d="M124.6 84.5c7.9 0 5.9 25.2 23.9 45.6 30.3 34.3 40.7 83.1-23.9 83.1-64.5 0-48.6-54.1-24.8-79.7 18.6-20 16.9-49 24.8-49z"/><path class="st4" d="M147.8 74.7l50.5-1 4.6 38.7-.1 1.3c-.9 2.1-1.8 4.1-2.7 6.2h-45.5l-6.8-45.2z"/><path class="st6" d="M132.2 55.8l28.3 9.3c4.8 1.6 17.7 14.6 14.6 19-3.1 4.4-18.5.7-22.8-1.6l-23.1-13.2c-10.5-6-16.3-11.2-12.9-15.9.6-.8 6.4-.7 15.9 2.4z"/><path class="st7" d="M125 67.1l14.8.3-17.6-2.4c.4.4 1.2 1.1 2.8 2.1z"/><path class="st5" d="M104.4 68.3c-7.5-9.3-12.1-22 .5-19.9 12.6 2.1 6.6-8.9 17.4-8.9 10.8 0 5.8 11.6 15.6 8.5 9.8-3.1 10.8 7-.1 20.5-10.9 13.6-19.6 12.1-33.4-.2z"/><path class="st6" d="M95.8 84.6l-.3-.6c-7.4 4.3-6.6 15.1 1.3 16-8 3.5-8.1 14-1.5 16.2-7.1 4.3-5.8 15 2.6 15h38.4c10.8 0 26.1-5.8 32.8-10.3 19.8-13.5 15.8-38.1 7.8-44.2-6.2-4.7-10-8.9-15.7-9l-63.3-.8c-11.6-.9-11.4 16.5-2.1 17.7z"/><path class="st6" d="M108.6 116.7s-7.7.2-14.4.3c.4-.3.7-.6 1.1-.8-.6-.2-1.1-.5-1.6-.8 6.7.6 14.9 1.3 14.9 1.3zM95.3 84.1c-.6.4-1.2.8-1.8 1.3 7.6-.1 20.7-.7 20.7-.7s-13.1-.7-18.7-.8l-.2.2zM93.8 99c.8.5 1.8.8 3 1-.5.2-1 .5-1.5.8 7.5-.1 16.8-.2 16.8-.2s-11.2-1.1-18.3-1.6z"/><path class="st5" d="M205.3 65.9c-10.1.2-20.2.4-30.3.7v59.2l50.1.1c.1-7.7-.7-19.5-5.4-32.9-4.1-12.2-9.9-21.2-14.4-27.1z"/><path class="st8" d="M120 172.5c0 3.2-.3 6-.9 8.4-.6 2.4-1.4 4.3-2.5 5.9-1.1 1.5-2.3 2.7-3.7 3.5-1.4.8-3 1.1-4.7 1.1-1.7 0-3.2-.4-4.7-1.1s-2.7-1.9-3.7-3.5c-1-1.5-1.9-3.5-2.4-5.9-.6-2.4-.9-5.1-.9-8.4s.3-6 .9-8.4c.6-2.4 1.4-4.3 2.4-5.9 1-1.5 2.3-2.7 3.7-3.4s3-1.1 4.7-1.1c1.7 0 3.2.4 4.7 1.1 1.4.7 2.7 1.9 3.7 3.4 1.1 1.5 1.9 3.5 2.5 5.9.7 2.4.9 5.2.9 8.4zm-6.9 0c0-2.5-.1-4.6-.4-6.3-.3-1.6-.6-2.9-1.1-3.8s-1-1.6-1.6-1.9c-.6-.3-1.2-.5-1.8-.5-.6 0-1.2.2-1.8.5-.6.3-1.1 1-1.5 1.9-.4.9-.8 2.2-1.1 3.8-.3 1.6-.4 3.7-.4 6.3 0 2.6.1 4.6.4 6.3.3 1.6.6 2.9 1.1 3.8.4.9 1 1.6 1.5 1.9.6.3 1.2.5 1.8.5.6 0 1.2-.2 1.8-.5.6-.3 1.1-1 1.6-1.9s.8-2.2 1.1-3.8.4-3.8.4-6.3zM137.2 163c0 1.3-.2 2.6-.6 3.7-.4 1.1-1 2.1-1.7 2.9-.7.8-1.5 1.4-2.4 1.9-.9.4-1.9.7-2.9.7-1.1 0-2.1-.2-3-.7-.9-.4-1.7-1.1-2.4-1.9-.7-.8-1.2-1.8-1.6-2.9s-.6-2.3-.6-3.7c0-1.4.2-2.7.6-3.8.4-1.1.9-2.1 1.6-2.9.7-.8 1.5-1.4 2.4-1.9.9-.4 1.9-.7 3-.7s2.1.2 3.1.7c.9.4 1.7 1.1 2.4 1.9.7.8 1.2 1.8 1.6 2.9.3 1.2.5 2.4.5 3.8zm10-7.7c.2-.3.5-.6.8-.8.3-.2.8-.4 1.3-.4h4.9l-23.9 35.7c-.2.3-.5.6-.8.8s-.7.3-1.2.3h-5l23.9-35.6zM132 163c0-.9-.1-1.6-.2-2.1-.1-.6-.3-1-.5-1.4-.2-.3-.5-.6-.8-.7-.3-.1-.6-.2-1-.2s-.7.1-1 .2c-.3.1-.5.4-.7.7-.2.3-.4.8-.5 1.4-.1.6-.2 1.3-.2 2.1s.1 1.5.2 2 .3 1 .5 1.3c.2.3.4.5.7.7.3.1.6.2 1 .2s.7-.1 1-.2c.3-.1.6-.4.8-.7.2-.3.4-.7.5-1.3s.2-1.2.2-2zm23.4 19.3c0 1.3-.2 2.6-.6 3.7-.4 1.1-1 2.1-1.7 2.9-.7.8-1.5 1.4-2.4 1.9-.9.4-1.9.7-2.9.7-1.1 0-2.1-.2-3-.7s-1.7-1.1-2.4-1.9c-.7-.8-1.2-1.8-1.6-2.9-.4-1.1-.6-2.4-.6-3.7 0-1.4.2-2.7.6-3.8.4-1.1.9-2.1 1.6-2.9.7-.8 1.5-1.4 2.4-1.9.9-.4 1.9-.7 3-.7s2.1.2 3.1.7c.9.4 1.7 1.1 2.4 1.9.7.8 1.2 1.8 1.6 2.9.3 1.1.5 2.4.5 3.8zm-5.1 0c0-.8-.1-1.5-.2-2.1-.1-.6-.3-1-.5-1.4-.2-.3-.5-.6-.8-.7s-.6-.2-1-.2c-.3 0-.7.1-1 .2s-.5.4-.7.7-.4.8-.5 1.4c-.1.6-.2 1.3-.2 2.1s.1 1.5.2 2 .3 1 .5 1.3c.2.3.4.5.7.7s.6.2 1 .2c.3 0 .7-.1 1-.2s.6-.4.8-.7c.2-.3.4-.7.5-1.3s.2-1.2.2-2z"/></svg>