<svg width="11" height="14" viewBox="0 0 11 14" xmlns="http://www.w3.org/2000/svg"><title>Slice 1</title><g id="Page-1" fill="none" fill-rule="evenodd"><g id="blog"><path d="M15.6,10.79 C16.57,10.12 17.25,9.02 17.25,8 C17.25,5.74 15.5,4 13.25,4 L7,4 L7,18 L14.04,18 C16.13,18 17.75,16.3 17.75,14.21 C17.75,12.69 16.89,11.39 15.6,10.79 L15.6,10.79 Z M10,6.5 L13,6.5 C13.83,6.5 14.5,7.17 14.5,8 C14.5,8.83 13.83,9.5 13,9.5 L10,9.5 L10,6.5 L10,6.5 Z M13.5,15.5 L10,15.5 L10,12.5 L13.5,12.5 C14.33,12.5 15,13.17 15,14 C15,14.83 14.33,15.5 13.5,15.5 L13.5,15.5 Z" id="Shape" fill="currentColor" transform="translate(-7 -4)"/><path d="M0,0 L24,0 L24,24 L0,24 L0,0 Z" id="Shape" transform="translate(-7 -4)"/></g></g></svg>