<svg width="241" height="231" viewBox="0 0 241 231" xmlns="http://www.w3.org/2000/svg"><title>commercial_roofing</title><g id="Page-1" fill="none" fill-rule="evenodd"><g id="commercial_roofing"><g id="Group"><g id="Shape"><path d="M1.2,31.6 L46.1,5.6 L91,31.4 L91.3,30.9 L46.1,5 L0.9,31.1 L1.2,31.6 Z" fill="#212121" transform="translate(61 59)"/><path d="M1.1,5.3 L1.1,0.4" transform="translate(106 59)"/><path d="M1.4,5.3 L1.4,0.4 L0.9,0.4 L0.9,5.3" fill="#212121" transform="translate(106 59)"/></g><g fill="#212121"><path d="M0.9,77.3 L134.9,0.5 L240.9,61.6 L107.3,138.7 L0.9,77.3 L0.9,77.3 Z M134.8,5.3 L9.1,77.3 L13.4,79.8 L134.9,10.2 L134.9,10.2 L134.8,5.3 L134.8,5.3 L134.8,5.3 Z M226.8,63.1 L134.8,10.1 L13.4,79.8 L107.2,133.9 L226.8,63.1 L226.8,63.1 Z M231,60.7 L134.8,5.3 L134.8,10.2 L226.8,63.2 L231,60.7 L231,60.7 Z" id="Shape"/><path d="M107.1,54.7 L164.6,87.7 L107,121 L49.5,88 L107.1,54.7 L107.1,54.7 Z M152.2,90.1 L107.2,64.3 L62.1,90.3 L107.1,116.1 L152.2,90.1 L152.2,90.1 Z M107.1,59.4 L107.1,64.3 L152.1,90.1 L156.4,87.6 L107.1,59.4 L107.1,59.4 Z M57.8,87.9 L62.1,90.4 L107.2,64.4 L107.2,59.5 L57.8,87.9 L57.8,87.9 Z" id="Shape"/><path d="M53.3,118.3 L52.8,118 L52.8,138.7 L98.9,165.3 L98.9,164.7 L53.3,138.4 L53.3,118.3 Z" id="Shape"/><g id="Shape"><path d="M0.7,0.9 L0.7,20.9 L1.7,21.5 L1.7,1.5 L0.7,0.9 Z" transform="translate(64 124)"/><path d="M13,8 L13,28.1 L14,28.6 L14,8.6 L13,8 Z" transform="translate(64 124)"/><path d="M25.4,15.2 L25.4,35.2 L26.4,35.8 L26.4,15.7 L25.4,15.2 Z" transform="translate(64 124)"/></g><g id="Shape"><path d="M25.9,0.7 L25.9,20.8 L24.9,21.3 L24.9,1.3 L25.9,0.7 Z" transform="translate(124 124)"/><path d="M13.5,7.9 L13.5,27.9 L12.5,28.5 L12.5,8.4 L13.5,7.9 Z" transform="translate(124 124)"/><path d="M1.2,15 L1.2,35 L0.2,35.6 L0.2,15.6 L1.2,15 Z" transform="translate(124 124)"/></g><path id="Rectangle-path" transform="rotate(-29.993 352.49 5.695)" d="M-3.897 17.003H62.604000000000006V17.303H-3.897z"/><path d="M6.9,37.3 L58,7.7 L64.6,4.3 L13.4,33.9 L6.9,37.3 Z" id="Shape" transform="translate(49 160)"/><path d="M13.3,41 L58,15.1 L71,7.9 L26.2,33.9 L13.3,41 Z" id="Shape" transform="translate(49 160)"/><path d="M19.7,44.7 L58,22.5 L77.3,11.6 L39,33.8 L19.7,44.7 Z" id="Shape" transform="translate(49 160)"/><path d="M26.1,48.4 L58,29.8 L83.7,15.2 L51.8,33.8 L26.1,48.4 Z" id="Shape" transform="translate(49 160)"/><path d="M32.5,52.1 L58,37.2 L90.1,18.8 L64.6,33.8 L32.5,52.1 Z" id="Shape" transform="translate(49 160)"/><path d="M38.9,55.8 L58,44.6 L96.5,22.5 L77.4,33.8 L38.9,55.8 Z" id="Shape" transform="translate(49 160)"/><path d="M45.3,59.5 L58,51.9 L102.8,26.1 L90.2,33.7 L45.3,59.5 Z" id="Shape" transform="translate(49 160)"/><path d="M51.7,63.2 L58,59.3 L109.2,29.8 L103,33.7 L51.7,63.2 Z" id="Shape" transform="translate(49 160)"/><path id="Rectangle-path" transform="rotate(-29.993 409.99 38.69)" d="M53.602 49.999H120.10300000000001V50.299H53.602z"/><path id="Rectangle-path" transform="rotate(-29.993 352.59 5.783)" d="M-3.797 17.09H62.70400000000001V17.39H-3.797z"/><path d="M7,37.5 L58.2,7.9 L64.8,4.5 L13.6,34.1 L7,37.5 Z" id="Shape" transform="translate(49 160)"/><path d="M13.4,41.2 L58.2,15.3 L71.1,8.1 L26.4,34 L13.4,41.2 Z" id="Shape" transform="translate(49 160)"/><path d="M19.8,44.9 L58.2,22.6 L77.5,11.7 L39.2,34 L19.8,44.9 Z" id="Shape" transform="translate(49 160)"/><path d="M26.3,48.6 L58.2,30 L83.9,15.4 L51.9,34 L26.3,48.6 Z" id="Shape" transform="translate(49 160)"/><path d="M32.7,52.3 L58.2,37.4 L90.2,19 L64.7,34 L32.7,52.3 Z" id="Shape" transform="translate(49 160)"/><path d="M39.1,56 L58.2,44.7 L96.6,22.6 L77.5,33.9 L39.1,56 Z" id="Shape" transform="translate(49 160)"/><path d="M45.5,59.7 L58.2,52.1 L103,26.3 L90.3,33.9 L45.5,59.7 Z" id="Shape" transform="translate(49 160)"/><path d="M51.9,63.4 L58.1,59.5 L109.4,29.9 L103.1,33.9 L51.9,63.4 Z" id="Shape" transform="translate(49 160)"/><path id="Rectangle-path" transform="rotate(-29.993 410.19 38.898)" d="M53.802 50.206H120.303V50.506H53.802z"/><g><path id="Rectangle-path" transform="rotate(-60 250.13 54.704)" d="M86.914 -16.11H87.214V50.388999999999996H86.914z"/><path d="M58.1,8 L51.9,4.1 L103.1,33.6 L109.4,37.6 L58.1,8 Z" id="Shape" transform="translate(49 160)"/><path d="M58.2,15.4 L45.5,7.8 L90.3,33.6 L103,41.2 L58.2,15.4 Z" id="Shape" transform="translate(49 160)"/><path d="M58.2,22.8 L39.1,11.5 L77.5,33.6 L96.6,44.8 L58.2,22.8 Z" id="Shape" transform="translate(49 160)"/><path d="M58.2,30.1 L32.7,15.2 L64.7,33.5 L90.2,48.5 L58.2,30.1 Z" id="Shape" transform="translate(49 160)"/><path d="M58.2,37.5 L26.3,18.9 L51.9,33.5 L83.9,52.1 L58.2,37.5 Z" id="Shape" transform="translate(49 160)"/><path d="M58.2,44.8 L19.8,22.6 L39.2,33.5 L77.5,55.7 L58.2,44.8 Z" id="Shape" transform="translate(49 160)"/><path d="M58.2,52.2 L13.4,26.3 L26.4,33.4 L71.1,59.4 L58.2,52.2 Z" id="Shape" transform="translate(49 160)"/><path d="M58.2,59.6 L7,30 L13.6,33.4 L64.8,63 L58.2,59.6 Z" id="Shape" transform="translate(49 160)"/><path id="Rectangle-path" transform="rotate(-60 192.55 87.835)" d="M29.334 17.021H29.634V83.52H29.334z"/></g><g><path id="Rectangle-path" transform="rotate(-60 249.894 54.94)" d="M86.678 -15.874H86.978V50.62499999999999H86.678z"/><path d="M58,8.2 L51.7,4.2 L103,33.8 L109.2,37.7 L58,8.2 Z" id="Shape" transform="translate(49 160)"/><path d="M58,15.6 L45.3,7.9 L90.2,33.7 L102.8,41.4 L58,15.6 Z" id="Shape" transform="translate(49 160)"/><path d="M58,22.9 L38.9,11.6 L77.4,33.7 L96.5,45 L58,22.9 Z" id="Shape" transform="translate(49 160)"/><path d="M58,30.3 L32.5,15.3 L64.6,33.7 L90.1,48.6 L58,30.3 Z" id="Shape" transform="translate(49 160)"/><path d="M58,37.6 L26.1,19 L51.8,33.7 L83.7,52.3 L58,37.6 Z" id="Shape" transform="translate(49 160)"/><path d="M58,45 L19.7,22.7 L39,33.6 L77.3,55.9 L58,45 Z" id="Shape" transform="translate(49 160)"/><path d="M58,52.4 L13.3,26.4 L26.2,33.6 L71,59.5 L58,52.4 Z" id="Shape" transform="translate(49 160)"/><path d="M58,59.7 L6.9,30.1 L13.4,33.6 L64.6,63.2 L58,59.7 Z" id="Shape" transform="translate(49 160)"/><path id="Rectangle-path" transform="rotate(-60 192.427 87.92)" d="M29.211 17.107H29.511V83.606H29.211z"/></g><path id="Rectangle-path" transform="rotate(-30.006 135.85 210.26)" d="M102.598 210.011H169.1V210.511H102.598z"/><path id="Rectangle-path" transform="rotate(-60 78.407 210.186)" d="M78.157 177.086H78.657V243.28500000000003H78.157z"/><path d="M103.8,187.9 L107.1,189.8 L107.1,222.5 L103.8,220.6 L103.8,187.9 Z" id="Shape"/><path d="M110.4,187.9 L107.1,189.8 L107.1,222.5 L110.4,220.6 L110.4,187.9 Z" id="Shape"/><path d="M73,170.2 L52.8,181.8 L52.7,181.9 L52.9,182.3 L73.5,170.5 L73,170.2" id="Shape"/><path d="M141.1,170.2 L140.7,170.5 L161.2,182.3 L161.3,182.1 L161.3,182.1 L161.4,181.9 L161.3,181.8 L141.1,170.2" id="Shape"/><path d="M164.7,156.6 L107.1,189.9 L107.1,226.8 L164.7,193.6 L164.7,156.6" id="Shape"/><path d="M5.5,150.6 L5.2,150.4 L5.2,167.3 L10.6,170.4 L10.6,170 L5.5,167.1 L5.5,150.6 Z" id="Shape"/><path id="Shape" d="M10.6,153.5 L10.5,153.4 L10.6,153.5 L10.6,153.5 Z"/><path d="M6.5,161.5 L5.8,161.2 L5.8,158.7 L6.5,159 L6.5,161.5 Z" id="Shape"/><path d="M141.8,34.2 L134.1,29.7 L134.1,22.9 L141.8,27.4 L141.8,34.2 Z" id="Shape"/><path d="M141.8,34.2 L149.6,29.7 L149.6,22.9 L141.8,27.4 L141.8,34.2 Z" id="Shape"/><path d="M153.3,40.8 L145.5,36.3 L145.5,29.5 L153.3,33.9 L153.3,40.8 Z" id="Shape"/><path d="M153.3,40.8 L161.1,36.3 L161.1,29.5 L153.3,33.9 L153.3,40.8 Z" id="Shape"/><path d="M226.9,62.9 L134.8,9.9 L13.3,79.6 L13.5,80 L134.8,10.5 L226.7,63.4 L226.9,62.9 Z" id="Shape"/><path d="M240.8,61.6 L239.2,152.5 L107.2,230.6 L0.9,169.3 L0.9,77.3 L49.6,105.4 L49.6,87.7 L107.2,120.9 L164.8,87.7 L164.8,105.5 L240.8,61.6 L240.8,61.6 Z M98.9,164.7 L98.9,144.7 L53.3,118.4 L53.3,138.4 L98.9,164.7 Z M52.8,118 L49.5,116.1 L49.5,140.3 L52.8,138.7 L52.8,118 L52.8,118 Z M52.8,138.7 L49.5,140.3 L98.9,168.8 L98.9,165.3 L52.8,138.7 L52.8,138.7 Z M115.3,144.6 L115.3,164.6 L160.9,138.3 L160.9,118.3 L115.3,144.6 L115.3,144.6 Z M161.4,138.7 L164.7,140.3 L164.7,116.1 L161.4,118 L161.4,138.7 L161.4,138.7 Z M115.3,165.3 L115.3,168.8 L164.7,140.3 L161.4,138.7 L115.3,165.3 L115.3,165.3 Z M170.8,112.4 L170.8,132.4 L216.4,106.1 L216.4,86.1 L170.8,112.4 L170.8,112.4 Z M217,106.5 L220.3,108.1 L220.3,83.9 L217,85.8 L217,106.5 L217,106.5 Z M170.8,133.1 L170.8,136.6 L220.2,108.1 L216.9,106.5 L170.8,133.1 L170.8,133.1 Z M170.8,153 L170.8,173 L216.4,146.7 L216.4,126.7 L170.8,153 L170.8,153 Z M217,147 L220.3,148.6 L220.3,124.4 L217,126.3 L217,147 L217,147 Z M170.8,173.7 L170.8,177.2 L220.2,148.7 L217,147 L170.8,173.7 L170.8,173.7 Z M107.1,189.9 L81.8,175.3 L49.8,193.8 L107.1,226.9 L107.1,226.9 L164.7,193.6 L132.6,175.2 L107.1,189.9 L107.1,189.9 Z M52.8,158.5 L52.8,178 L69.6,168.3 L52.8,158.5 L52.8,158.5 Z M70.2,168.6 L52.8,178.6 L52.8,181.9 L73,170.2 L70.2,168.6 L70.2,168.6 Z M161.3,158.6 L144.5,168.3 L161.3,178 L161.3,158.6 L161.3,158.6 Z M144,168.6 L161.3,178.6 L161.3,181.9 L141.1,170.3 L144,168.6 L144,168.6 Z M5.5,150.6 L5.5,167.1 L10.6,170 L10.6,153.5 L5.5,150.6 L5.5,150.6 Z M5.2,150.4 L4.4,149.9 L4.4,167.8 L5.2,167.3 L5.2,150.4 L5.2,150.4 Z M5.2,167.3 L4.4,167.8 L10.6,171.4 L10.6,170.4 L5.2,167.3 L5.2,167.3 Z M107.2,149.3 L107.2,149.3 L239.2,73 L239.1,72.9 L107.2,149.3 L0.9,88.3 L0.8,88.4 L107.2,149.3 L107.2,149.3 L107.2,149.3 Z M107.2,138.6 L107.2,138.6 L164.5,105.7 L164.4,105.6 L107.2,138.6 L49.7,105.4 L49.6,105.5 L107.2,138.6 L107.2,138.6 L107.2,138.6 Z M107.2,173.8 L0.9,112.9 L0.8,113 L107.1,174 L107.2,173.8 L107.2,174 L239.2,97.7 L239.1,97.6 L107.2,173.8 L107.2,173.8 Z M107.2,189.6 L0.9,128.7 L0.8,128.8 L107.1,189.7 L107.2,189.6 L107.2,189.8 L239.2,113.5 L239.1,113.4 L107.2,189.6 L107.2,189.6 Z M164.6,181.2 L239.2,138.1 L239.1,138 L164.7,181 L164.6,181.2 Z M4.3,155.3 L0.8,153.3 L0.8,153.5 L4.3,155.5 L4.3,155.3 L4.3,155.3 Z M50.2,181.5 L10.6,158.8 L10.6,159 L50.2,181.7 L50.2,181.5 L50.2,181.5 Z" id="Shape"/></g></g></g></g></svg>