<svg width="468" height="188" viewBox="0 0 468 188" xmlns="http://www.w3.org/2000/svg"><title>footerheronobg</title><defs><linearGradient x1="-5.858%" y1="43.311%" x2="104.146%" y2="53.893%" id="linearGradient-1"><stop offset="0%"/><stop stop-color="#484848" offset="100%"/></linearGradient><linearGradient x1="63.711%" y1="27.72%" x2="36.115%" y2="69.052%" id="linearGradient-2"><stop stop-color="#FFDFB2" offset="0%"/><stop stop-color="#FBBB6C" offset="100%"/></linearGradient><linearGradient x1="-6.509%" y1="43.846%" x2="105.052%" y2="54.67%" id="linearGradient-3"><stop offset="0%"/><stop stop-color="#484848" offset="100%"/></linearGradient><linearGradient x1="52.325%" y1="45.527%" x2="35.762%" y2="75.838%" id="linearGradient-4"><stop stop-color="#FFDFB2" offset="0%"/><stop stop-color="#FBBB6C" offset="100%"/></linearGradient><linearGradient x1="76.632%" y1="9.529%" x2="31.216%" y2="79.971%" id="linearGradient-5"><stop stop-color="#7E3D1B" offset="0%"/><stop stop-color="#3F160A" offset="100%"/></linearGradient><linearGradient x1="-21.241%" y1="284.284%" x2="36.608%" y2="96.453%" id="linearGradient-6"><stop offset="0%"/><stop stop-color="#484848" offset="100%"/></linearGradient><linearGradient x1="54.737%" y1="-17.34%" x2="48.395%" y2="73.423%" id="linearGradient-7"><stop stop-color="#6BC9F2" offset="0%"/><stop stop-color="#327EC0" offset="100%"/></linearGradient><linearGradient x1="14.342%" y1="152.214%" x2="73.943%" y2="-.512%" id="linearGradient-8"><stop stop-color="#515050" offset="0%"/><stop stop-color="#99999A" offset="100%"/></linearGradient><linearGradient x1="36.017%" y1="97.34%" x2="95.589%" y2="-55.313%" id="linearGradient-9"><stop stop-color="#515050" offset="0%"/><stop stop-color="#99999A" offset="100%"/></linearGradient><linearGradient x1="13.876%" y1="152.376%" x2="73.478%" y2="-.351%" id="linearGradient-10"><stop stop-color="#515050" offset="0%"/><stop stop-color="#99999A" offset="100%"/></linearGradient><linearGradient x1="91.682%" y1="-46.093%" x2="22.09%" y2="103.951%" id="linearGradient-11"><stop stop-color="#515050" offset="0%"/><stop stop-color="#99999A" offset="100%"/></linearGradient><linearGradient x1="12.285%" y1="152.381%" x2="71.886%" y2="-.345%" id="linearGradient-12"><stop stop-color="#515050" offset="0%"/><stop stop-color="#99999A" offset="100%"/></linearGradient><linearGradient x1="33.937%" y1="97.507%" x2="93.509%" y2="-55.146%" id="linearGradient-13"><stop stop-color="#515050" offset="0%"/><stop stop-color="#99999A" offset="100%"/></linearGradient><linearGradient x1="16.338%" y1="152.553%" x2="75.438%" y2="-.174%" id="linearGradient-14"><stop stop-color="#515050" offset="0%"/><stop stop-color="#99999A" offset="100%"/></linearGradient><linearGradient x1="94.831%" y1="-45.918%" x2="25.239%" y2="104.126%" id="linearGradient-15"><stop stop-color="#515050" offset="0%"/><stop stop-color="#99999A" offset="100%"/></linearGradient><linearGradient x1="59.683%" y1=".634%" x2="37.992%" y2="177.07%" id="linearGradient-16"><stop stop-color="#515050" offset="0%"/><stop stop-color="#99999A" offset="100%"/></linearGradient><linearGradient x1="51.061%" y1="44.902%" x2="5.382%" y2="210.167%" id="linearGradient-17"><stop offset="0%"/><stop stop-color="#484848" offset="100%"/></linearGradient><linearGradient x1="61.483%" y1="-28.278%" x2="40.737%" y2="109.265%" id="linearGradient-18"><stop offset="0%"/><stop stop-color="#484848" offset="100%"/></linearGradient><linearGradient x1="41%" y1="177.994%" x2="32.506%" y2="324.984%" id="linearGradient-19"><stop offset="0%"/><stop stop-color="#484848" offset="100%"/></linearGradient><linearGradient x1="36.658%" y1="114.614%" x2="6.094%" y2="261.524%" id="linearGradient-20"><stop offset="0%"/><stop stop-color="#484848" offset="100%"/></linearGradient><linearGradient x1="42.44%" y1="148.547%" x2="33.703%" y2="241.874%" id="linearGradient-21"><stop offset="0%"/><stop stop-color="#484848" offset="100%"/></linearGradient><linearGradient x1="37.644%" y1="115.514%" x2="7.081%" y2="262.423%" id="linearGradient-22"><stop offset="0%"/><stop stop-color="#484848" offset="100%"/></linearGradient><linearGradient x1="13.176%" y1="197.658%" x2="-20.2%" y2="336.696%" id="linearGradient-23"><stop offset="0%"/><stop stop-color="#484848" offset="100%"/></linearGradient><linearGradient x1="78.698%" y1="-19.063%" x2="3.319%" y2="157.452%" id="linearGradient-24"><stop offset="0%"/><stop stop-color="#484848" offset="100%"/></linearGradient><linearGradient x1="68.788%" y1="-36.004%" x2="33.134%" y2="135.372%" id="linearGradient-25"><stop offset="0%"/><stop stop-color="#484848" offset="100%"/></linearGradient><linearGradient x1="1.513%" y1="173.756%" x2="48.922%" y2="44.111%" id="linearGradient-26"><stop offset="0%"/><stop stop-color="#484848" offset="100%"/></linearGradient><linearGradient x1="11.247%" y1="156.121%" x2="77.774%" y2="-31.161%" id="linearGradient-27"><stop offset="0%"/><stop stop-color="#484848" offset="100%"/></linearGradient><linearGradient x1="4.088%" y1="174.977%" x2="50.141%" y2="45.332%" id="linearGradient-28"><stop offset="0%"/><stop stop-color="#484848" offset="100%"/></linearGradient><linearGradient x1="13.182%" y1="115.49%" x2="-69.514%" y2="265.53%" id="linearGradient-29"><stop offset="0%"/><stop stop-color="#484848" offset="100%"/></linearGradient><linearGradient x1="41.496%" y1="71.064%" x2="55.068%" y2="34.136%" id="linearGradient-30"><stop stop-color="#FFF" offset="0%"/><stop stop-color="#D3D3D3" offset="100%"/></linearGradient><linearGradient x1="47.995%" y1="90.166%" x2="56.141%" y2="-78.252%" id="linearGradient-31"><stop offset="0%"/><stop stop-color="#484848" offset="100%"/></linearGradient><linearGradient x1="3.682%" y1="33.21%" x2="160.803%" y2="91.565%" id="linearGradient-32"><stop offset="0%"/><stop stop-color="#484848" offset="100%"/></linearGradient><linearGradient x1="-4744.889%" y1="1706.953%" x2="-4932.363%" y2="1771.395%" id="linearGradient-33"><stop offset="0%"/><stop stop-color="#484848" offset="100%"/></linearGradient><linearGradient x1="64.482%" y1="25.247%" x2="32.429%" y2="103.371%" id="linearGradient-34"><stop offset="0%"/><stop stop-color="#484848" offset="100%"/></linearGradient><linearGradient x1="10.551%" y1="-20.913%" x2="91.017%" y2="121.949%" id="linearGradient-35"><stop offset="0%"/><stop stop-color="#484848" offset="100%"/></linearGradient><linearGradient x1="33.764%" y1="91.76%" x2="49.179%" y2="53.604%" id="linearGradient-36"><stop stop-color="#FFDFB2" offset="0%"/><stop stop-color="#EFA05E" offset="100%"/></linearGradient><linearGradient x1="70.801%" y1="16.581%" x2="36.778%" y2="79.172%" id="linearGradient-37"><stop stop-color="#FFF" offset="0%"/><stop stop-color="#EFE9DA" offset="100%"/></linearGradient><linearGradient x1="68.5%" y1="14.795%" x2="34.457%" y2="77.423%" id="linearGradient-38"><stop stop-color="#FFF" offset="0%"/><stop stop-color="#EFE9DA" offset="100%"/></linearGradient><linearGradient x1="66.989%" y1="16.18%" x2="32.948%" y2="78.805%" id="linearGradient-39"><stop stop-color="#FFF" offset="0%"/><stop stop-color="#EFE9DA" offset="100%"/></linearGradient><linearGradient x1="36.809%" y1="71.601%" x2="22.21%" y2="92.129%" id="linearGradient-40"><stop stop-color="#FFDFB2" offset="0%"/><stop stop-color="#FBC38F" offset="100%"/></linearGradient><linearGradient x1="44.479%" y1="41.219%" x2="62.531%" y2="97.352%" id="linearGradient-41"><stop stop-color="#FFDFB2" offset="0%"/><stop stop-color="#FBC38F" offset="100%"/></linearGradient><linearGradient x1="83.115%" y1="78.953%" x2="50.416%" y2="51.319%" id="linearGradient-42"><stop stop-color="#E5B274" offset="0%"/><stop stop-color="#FBC38F" offset="100%"/></linearGradient><linearGradient x1="72.565%" y1="7.733%" x2="6.471%" y2="126.614%" id="linearGradient-43"><stop stop-color="#7E3D1B" offset="0%"/><stop stop-color="#3F160A" offset="100%"/></linearGradient><linearGradient x1="50.378%" y1="-4.557%" x2="49.753%" y2="98.076%" id="linearGradient-44"><stop stop-color="#8B4920" offset="0%"/><stop stop-color="#5C270C" offset="100%"/></linearGradient><linearGradient x1="98.304%" y1="23.027%" x2="21.921%" y2="103.068%" id="linearGradient-45"><stop stop-color="#8B4920" offset="0%"/><stop stop-color="#602B0E" offset="100%"/></linearGradient><linearGradient x1="59.457%" y1="21.553%" x2="18.241%" y2="98.753%" id="linearGradient-46"><stop stop-color="#F7A58C" offset="0%"/><stop stop-color="#F0857A" offset="100%"/></linearGradient><linearGradient x1="51.864%" y1="36.716%" x2="25.917%" y2="102.695%" id="linearGradient-47"><stop stop-color="#B41F2D" offset="0%"/><stop stop-color="#EC404B" offset="100%"/></linearGradient><linearGradient x1="20.878%" y1="85.518%" x2="77.45%" y2="16.549%" id="linearGradient-48"><stop stop-color="#FFDFB2" offset="0%"/><stop stop-color="#7E1416" offset="100%"/></linearGradient><linearGradient x1="76.218%" y1="20.06%" x2="18.621%" y2="90.278%" id="linearGradient-49"><stop stop-color="#5A2C0E" offset="0%"/><stop stop-color="#2E160C" offset="100%"/></linearGradient><linearGradient x1="78.834%" y1="13.673%" x2="17.494%" y2="88.454%" id="linearGradient-50"><stop stop-color="#955924" offset="0%"/><stop stop-color="#5C2C0F" offset="100%"/></linearGradient><linearGradient x1="20.744%" y1="84.893%" x2="77.315%" y2="15.926%" id="linearGradient-51"><stop stop-color="#FFDFB2" offset="0%"/><stop stop-color="#7E1416" offset="100%"/></linearGradient><linearGradient x1="75.839%" y1="18.431%" x2="18.217%" y2="88.68%" id="linearGradient-52"><stop stop-color="#5A2C0E" offset="0%"/><stop stop-color="#2E160C" offset="100%"/></linearGradient><linearGradient x1="78.88%" y1="14.247%" x2="17.534%" y2="89.036%" id="linearGradient-53"><stop stop-color="#955924" offset="0%"/><stop stop-color="#5C2C0F" offset="100%"/></linearGradient></defs><g id="Page-1" fill="none" fill-rule="evenodd"><g id="footerheronobg"><g id="Layer_1"><path d="M466.2,182.4 C448.4,184.3 448.3,182 430.5,182 C412.6,182 412.6,182.3 394.8,182.3 C376.9,182.3 376.9,182.1 359.1,182.1 C341.2,182.1 341.2,181.9 323.4,181.9 C305.5,181.9 305.5,182.3 287.7,182.3 C269.8,182.3 269.8,182.1 252,182.1 C234.1,182.1 234.1,182.7 216.3,182.7 C198.4,182.7 198.4,182.6 180.6,182.6 C162.7,182.6 162.7,181.9 144.9,181.9 C127,181.9 127,182.7 109.2,182.7 C91.3,182.7 91.3,182.5 73.5,182.5 C55.6,182.5 55.6,181.8 37.8,181.8 C20,181.8 19.8,184.2 2.1,182.3 C0.2,182.1 0.2,178.9 2.1,178.6 C19.9,176.7 19.9,178.3 37.8,178.3 C55.7,178.3 55.7,178.6 73.5,178.6 C91.4,178.6 91.4,178.3 109.2,178.3 C127.1,178.3 127.1,178.5 144.9,178.5 C162.8,178.5 162.8,178.2 180.6,178.2 C198.5,178.2 198.5,178.8 216.3,178.8 C234.2,178.8 234.2,178.5 252,178.5 C269.9,178.5 269.9,178.3 287.7,178.3 C305.6,178.3 305.6,178.6 323.4,178.6 L359.1,178.6 C377,178.6 377,178.4 394.8,178.4 C412.7,178.4 412.7,178.2 430.5,178.2 C448.4,178.2 448.5,176.3 466.3,178.1 C468.5,178.5 468.1,182.2 466.2,182.4 L466.2,182.4 Z" id="Shape" fill="#2A87DD"/><circle id="Oval" fill="#3182C4" cx="269.4" cy="176.2" r="2.7"/><path d="M272.1,175.5 L270.9,175.5 C270.9,176.5 270.7,176.6 270.5,176.9 C270.2,177.2 269.9,177.5 269.4,177.5 C269,177.5 268.6,177.4 268.3,177.1 C268,176.8 267.9,176.5 267.9,176.1 C267.9,175.7 268.1,175.3 268.3,175.1 C268.6,174.8 268.9,174.7 269.4,174.7 C269.8,174.7 270.2,174.5 270.5,174.8 C270.8,175.1 270.9,175.5 270.9,175.5 L272.1,175.5 L273.3,175.5 C273.3,173.5 271.6,172 269.5,172 C267.4,172 265.7,173.9 265.7,176 C265.7,178.1 267.4,179.6 269.5,179.6 C271.6,179.6 273.3,177.5 273.3,175.5 L272.1,175.5 L272.1,175.5 Z" id="Shape" fill="#2C74A4"/><circle id="Oval" fill="#3182C4" cx="437.1" cy="176.2" r="2.7"/><path d="M439.8,175.5 L438.6,175.5 C438.6,176.5 438.4,176.6 438.2,176.9 C437.9,177.2 437.6,177.5 437.1,177.5 C436.7,177.5 436.3,177.4 436,177.1 C435.7,176.8 435.6,176.5 435.6,176.1 C435.6,175.7 435.8,175.3 436,175.1 C436.3,174.8 436.6,174.7 437.1,174.7 C437.5,174.7 437.9,174.5 438.2,174.8 C438.5,175.1 438.6,175.5 438.6,175.5 L439.8,175.5 L441,175.5 C441,173.5 439.3,172 437.2,172 C435.1,172 433.4,173.9 433.4,176 C433.4,178.1 435.1,179.6 437.2,179.6 C439.3,179.6 441,177.5 441,175.5 L439.8,175.5 L439.8,175.5 Z" id="Shape" fill="#2C74A4"/><path d="M262.7,121.5 L262.7,175.5 L445.7,175.5 L445.7,121.5 L262.7,121.5 L262.7,121.5 Z M267.7,129.5 L314.7,129.5 L314.7,147.5 L267.7,147.5 L267.7,129.5 L267.7,129.5 Z M314.7,170.5 L267.7,170.5 L267.7,151.5 L314.7,151.5 L314.7,170.5 L314.7,170.5 Z M318.7,129.5 L388.7,129.5 L388.7,147.5 L318.7,147.5 L318.7,129.5 L318.7,129.5 Z M388.7,170.5 L319.7,170.5 L319.7,151.5 L388.7,151.5 L388.7,170.5 L388.7,170.5 Z M393.7,129.5 L440.7,129.5 L440.7,147.5 L393.7,147.5 L393.7,129.5 L393.7,129.5 Z M440.7,170.5 L393.7,170.5 L393.7,151.5 L440.7,151.5 L440.7,170.5 L440.7,170.5 Z" id="Shape" fill="#3182C4"/><path d="M262.7,121.5 L261.7,121.5 L261.7,176.5 L446.7,176.5 L446.7,120.5 L261.7,120.5 L261.7,121.5 L262.7,121.5 L262.7,122.5 L445.7,122.5 L445.7,175.5 L262.7,175.5 L262.7,121.5 L262.7,121.5 L262.7,123.3 L262.7,121.5 L262.7,121.5 Z M267.7,129.5 L267.7,131.5 L313.7,131.5 L313.7,146.5 L268.7,146.5 L268.7,129.5 L267.7,129.5 L267.7,131.3 L267.7,129.5 L265.7,129.5 L265.7,148.5 L315.7,148.5 L315.7,128.5 L265.7,128.5 L265.7,129.5 L267.7,129.5 L267.7,129.5 Z M314.7,170.5 L314.7,169.5 L268.7,169.5 L268.7,152.5 L313.7,152.5 L313.7,170.5 L314.7,170.5 L314.7,169.1 L314.7,170.5 L315.7,170.5 L315.7,150.5 L265.7,150.5 L265.7,171.5 L315.7,171.5 L315.7,170.5 L314.7,170.5 L314.7,170.5 Z M318.7,129.5 L318.7,131.5 L387.7,131.5 L387.7,146.5 L320.7,146.5 L320.7,129.5 L318.7,129.5 L318.7,131.3 L318.7,129.5 L317.7,129.5 L317.7,148.5 L389.7,148.5 L389.7,128.5 L317.7,128.5 L317.7,129.5 L318.7,129.5 L318.7,129.5 Z M388.7,170.5 L388.7,169.5 L320.7,169.5 L320.7,152.5 L387.7,152.5 L387.7,170.5 L388.7,170.5 L388.7,169.1 L388.7,170.5 L389.7,170.5 L389.7,150.5 L317.7,150.5 L317.7,171.5 L389.7,171.5 L389.7,170.5 L388.7,170.5 L388.7,170.5 Z M393.7,129.5 L393.7,131.5 L439.7,131.5 L439.7,146.5 L394.7,146.5 L394.7,129.5 L393.7,129.5 L393.7,131.3 L393.7,129.5 L392.7,129.5 L392.7,148.5 L442.7,148.5 L442.7,128.5 L392.7,128.5 L392.7,129.5 L393.7,129.5 L393.7,129.5 Z M440.7,170.5 L440.7,169.5 L394.7,169.5 L394.7,152.5 L439.7,152.5 L439.7,170.5 L440.7,170.5 L440.7,169.1 L440.7,170.5 L442.7,170.5 L442.7,150.5 L392.7,150.5 L392.7,171.5 L442.7,171.5 L442.7,170.5 L440.7,170.5 L440.7,170.5 Z" id="Shape" fill="#2C74A4"/><path id="Rectangle-path" fill="#3182C4" d="M329.7 120.5H373.7V121.5H329.7z"/><path d="M373.7,121.5 L373.7,120.5 L330.9,120.5 L330.9,120.5 L329.7,120.5 L329.7,121.5 L371.5,121.5 L371.5,121.5 L373.7,121.5 L373.7,120.7 L373.7,121.5 L374.7,121.5 L374.7,119.5 L328.7,119.5 L328.7,122.5 L374.7,122.5 L374.7,121.5 L373.7,121.5 Z" id="Shape" fill="#2C74A4"/><path id="Rectangle-path" fill="#3182C4" d="M343.7 106.5H360.7V120.5H343.7z"/><path d="M360.7,120.5 L360.7,119.5 L344.7,119.5 L344.7,107.5 L359.7,107.5 L359.7,120.5 L360.7,120.5 L360.7,119.5 L360.7,120.5 L361.7,120.5 L361.7,105.5 L342.7,105.5 L342.7,121.5 L361.7,121.5 L361.7,120.5 L360.7,120.5 Z" id="Shape" fill="#2C74A4"/><path id="Rectangle-path" fill="#3182C4" d="M300.7 51.5H405.7V105.5H300.7z"/><path d="M405.7,105.5 L405.7,104.5 L301.7,104.5 L301.7,52.5 L404.7,52.5 L404.7,105.5 L405.7,105.5 L405.7,104.2 L405.7,105.5 L406.7,105.5 L406.7,49.5 L299.7,49.5 L299.7,106.5 L406.7,106.5 L406.7,105.5 L405.7,105.5 Z" id="Shape" fill="#2C74A4"/><path id="Rectangle-path" fill="#3182C4" d="M326.7 139.5H381.7V147.5H326.7z"/><path d="M381.7,147.5 L381.7,146.5 L327.7,146.5 L327.7,140.5 L380.7,140.5 L380.7,147.5 L381.7,147.5 L381.7,147.1 L381.7,147.5 L381.7,147.5 L381.7,138.5 L325.7,138.5 L325.7,148.5 L381.7,148.5 L381.7,147.5 L381.7,147.5 Z" id="Shape" fill="#2C74A4"/><path d="M277.4,120.5 L270.7,120.5 L268.6,120.5 L268.6,107.1 C268.6,106.4 269.9,105.5 270.7,105.5 L277.4,105.5 C278.1,105.5 278.7,106.4 278.7,107.1 L278.7,120.5 L277.4,120.5 L277.4,120.5 Z" id="Shape" fill="#3182C4"/><path d="M276.7,121 L276.7,119.5 L270.8,119.5 L268.7,119.5 L268.7,120.5 L270.7,120.5 L270.7,107.5 L270.8,107.5 L277.5,107.5 L277.8,107.5 L277.8,120.5 L278.8,120.5 L278.8,119.5 L276.8,119.5 L276.8,121 L276.8,121.5 L278.9,121.5 L279.8,121.5 L279.8,107.1 C279.8,105.7 278.9,104.5 277.5,104.5 L270.8,104.5 C269.4,104.5 268.7,105.7 268.7,107.1 L268.7,121.5 L269.4,121.5 L270.7,121.5 L276.6,121.5 L276.6,121 L276.7,121 Z" id="Shape" fill="#2C74A4"/><path d="M273.7,105.8 C273.7,103.7 274.4,102 275.3,102" id="Shape" fill="#3182C4"/><path d="M274.7,105.6 C274.7,104.7 275,104 275.2,103.5 C275.3,103.3 275.5,103.1 275.5,103.1 L275.5,103.1 L275.4,102.9 L275.5,103.1 L275.6,103.1 L275.5,102.9 L275.2,103.1 L274.7,102.7 L274.7,103.1 L274.8,103.1 L274.7,102.7 L274.7,103.1 L274.7,100.8 C274.7,100.8 274.5,100.9 274.2,101 C273.8,101.2 273.6,101.5 273.4,101.8 C273,102.3 272.9,102.7 272.7,103.4 C272.5,104.1 272.5,105.4 272.5,105.4 L274.6,105.4 L274.6,105.6 L274.7,105.6 Z" id="Shape" fill="#2C74A4"/><path d="M287.2,120.5 L281.9,120.5 L280.6,120.5 L280.6,111.8 C280.6,111.3 281.3,110.5 281.9,110.5 L287.2,110.5 C287.8,110.5 288.7,111.3 288.7,111.8 L288.7,120.5 L287.2,120.5 L287.2,120.5 Z" id="Shape" fill="#3182C4"/><path d="M287.7,121 L287.7,119.5 L282,119.5 L280.7,119.5 L280.7,120.5 L281.7,120.5 L281.7,111.5 L281.7,111.5 L282.1,111.7 L282.1,111.5 L281.7,111.5 L282.1,111.8 L281.9,111.8 L282,112 C282,112 282,112 282.1,111.9 L281.9,111.8 L282,112 L282,112 L282,112 L282,112 L282,112 L282,111.7 L282,111.4 L287.3,111.4 L287.3,111.7 L287.3,111.7 L287.2,111.9 L287.3,112 L287.3,111.9 L287.2,111.8 L287.5,111.4 L287.1,111.4 C287.1,111.4 287.1,111.6 287.2,111.6 L287.5,111.4 L286.7,111.4 L286.7,120.4 L288.7,120.4 L288.7,119.4 L287.7,119.4 L287.7,121 L287.7,121.5 L288.3,121.5 L289.7,121.5 L289.7,111.8 C289.7,111.2 289.3,110 288.8,109.6 C288.4,109.3 287.7,108.4 287.2,108.4 L281.9,108.4 C281.3,108.4 280.8,109.2 280.4,109.6 C280,109.9 279.7,111.1 279.7,111.8 L279.7,121.5 L280.9,121.5 L282,121.5 L287.7,121.5 L287.7,121 L287.7,121 Z" id="Shape" fill="#2C74A4"/><path d="M284.3,110.9 C284.3,109.5 284.9,108.4 285.6,108.4" id="Shape" fill="#3182C4"/><path d="M285.7,111.1 C285.7,110.6 285.7,110 285.8,109.8 L285.8,109.6 L285.8,109.5 L285.8,109.5 L285.6,109.2 L285.6,109.5 L285.8,109.4 L285.6,109.1 L285.6,109.4 L285.6,107.1 C284.6,107.1 284.6,107.3 284.3,107.6 C283.8,108 283.5,108.3 283.3,108.8 C283.1,109.3 283,110.4 283,110.4 L285.6,110.4 L285.6,111.1 L285.7,111.1 Z" id="Shape" fill="#2C74A4"/><path d="M302.8,146.5 L274.2,146.5 C273.9,146.5 273.7,146.9 273.7,146.7 L273.7,145.7 C273.7,145.4 274,144.5 274.2,140.5 L302.8,140.5 C303.1,144.5 303.7,145.5 303.7,145.7 L303.7,146.7 C303.7,146.9 303.1,146.5 302.8,146.5 L302.8,146.5 Z" id="Shape" fill="#3182C4"/><path d="M303.7,147.2 L303.7,145.5 L273.7,145.5 L273.7,146.5 L274.9,146.5 C274.9,145.5 274.7,146 273.7,146 L273.7,146.5 L274.7,146.5 L274.7,145.5 L274.3,145.5 L274.9,145.6 L274.9,145.5 L274.3,145.5 L274.9,145.7 L274.5,145.7 L274.8,145.8 L274.8,145.8 L274.4,145.8 L274.7,145.9 C274.7,145.9 274.7,145.8 274.8,145.6 C274.9,145.1 274.8,144 275,141.3 L273.6,141.2 L273.6,142.5 L303.6,142.5 L303.6,141.2 L302,141.3 C302.1,143.4 302,144.5 302.1,145.1 L302.1,145.8 L302.1,145.9 L302.2,145.8 L301.6,145.8 L301.6,145.8 L302.2,145.7 L302,145.6 L302.8,145.4 L302.2,145.4 L302.2,145.5 L302.8,145.4 L301.7,145.4 L301.7,146.4 L303.7,146.4 L303.7,146 C301.7,146 302.1,145.5 302.1,146.5 L303.7,146.5 L303.7,146 L303.7,147.2 L303.7,148.4 L303.7,146.8 L303.7,145.8 C303.7,145.7 304.1,145.6 304.1,145.5 C304.1,145.4 304.3,145.3 304.2,145.2 C304.1,144.8 304.1,143.6 303.9,140.9 L303.9,139.6 L273.1,139.6 L273,140.9 C272.9,142.9 272.8,144.1 272.7,144.6 C272.7,144.9 272.6,145.1 272.6,145.2 C272.6,145.3 272.1,145.3 272.1,145.4 C272.1,145.5 271.6,145.6 271.6,145.7 L271.6,146.7 C271.6,147.6 273.2,147.5 274.1,147.5 L303.6,147.5 L303.6,147.2 L303.7,147.2 Z" id="Shape" fill="#2C74A4"/><path d="M414.8,140.5 C414.8,145.5 411.7,147.4 407.9,147.4 C404.1,147.4 401,145.5 401,140.5 L414.8,140.5 L414.8,140.5 Z" id="Shape" fill="#3182C4"/><path d="M414.7,140.5 L413.7,140.5 C413.7,142.5 413.1,143.8 412,144.8 C411,145.8 409.5,146.6 407.9,146.6 C406.3,146.6 404.9,145.8 403.8,144.7 C402.8,143.7 402.1,142.4 402.1,140.4 L400.6,140.4 L400.6,142.4 L414.6,142.4 L414.6,140.5 L413.6,140.5 L414.7,140.5 L414.7,139.5 L399.7,139.5 L399.7,141 C399.7,145.5 403.7,149.1 408.2,149.1 C412.7,149.1 416.7,145.5 416.7,141 L416.7,139.5 L414.7,139.5 L414.7,140.5 L414.7,140.5 Z" id="Shape" fill="#2C74A4"/><path d="M429.9,142.5 C429.9,145.5 427.5,147.9 424.5,147.9 C421.5,147.9 419.1,145.5 419.1,142.5 L429.9,142.5 L429.9,142.5 Z" id="Shape" fill="#3182C4"/><path d="M429.7,142.5 L428.8,142.5 C428.8,143.5 428.3,144.7 427.6,145.5 C426.8,146.3 425.8,146.7 424.6,146.7 C423.4,146.7 422.4,146.2 421.6,145.4 C420.8,144.6 420.4,143.4 420.4,142.4 L418.7,142.4 L418.7,143.4 L429.7,143.4 L429.7,142.5 L428.8,142.5 L429.7,142.5 L429.7,140.5 L417.7,140.5 L417.7,142.6 C417.7,146.2 421.1,149.1 424.7,149.1 C428.3,149.1 431.7,146.2 431.7,142.6 L431.7,140.5 L429.7,140.5 L429.7,142.5 L429.7,142.5 Z" id="Shape" fill="#2C74A4"/><path d="M291.4,156.5 L287,156.5 C286.5,156.5 286.1,156 286.1,155.5 C286.1,155 286.5,154.5 287,154.5 L291.4,154.5 C291.9,154.5 292.3,155 292.3,155.5 C292.3,156 291.9,156.5 291.4,156.5 L291.4,156.5 Z" id="Shape" fill="#3182C4"/><path d="M291.7,156.5 L291.7,155.5 L286.7,155.5 L286.7,155.5 L287.4,155.5 C287.4,155.5 287.8,155.3 286.8,155.3 L286.8,155.5 L287.4,155.5 L286.8,155.5 L286.8,155.9 C287.8,155.9 287.4,155.5 287.4,155.5 L286.7,155.5 L286.7,155.5 L291.5,155.5 L291.5,155.5 L291.1,155.5 L291.7,155.9 L291.7,155.5 L291.1,155.5 L291.7,155.5 L291.7,155.3 C291.7,155.3 291.2,155.5 291.1,155.5 L291.7,155.5 L291.7,155.3 L291.7,156.5 L291.7,157.7 C292.7,157.7 293.6,156.7 293.6,155.6 C293.6,154.5 292.6,153.5 291.4,153.5 L287,153.5 C285.9,153.5 285,154.4 285,155.5 C285,156.6 285.9,157.5 287,157.5 L291.7,157.5 L291.7,156.5 L291.7,156.5 Z" id="Shape" fill="#2C74A4"/><path d="M356.5,157.5 L352.1,157.5 C351.6,157.5 351.2,157 351.2,156.5 C351.2,156 351.6,155.5 352.1,155.5 L356.5,155.5 C357,155.5 357.4,156 357.4,156.5 C357.3,157 357,157.5 356.5,157.5 L356.5,157.5 Z" id="Shape" fill="#3182C4"/><path d="M355.7,157.6 L355.7,156.5 L352.2,156.5 L352.2,156.5 L352.4,156.5 L352.7,156.5 L352.7,156.5 L352.4,156.5 L352.7,156.5 L352.7,157 L352.4,156.5 L352.2,156.5 L352.2,156.5 L356.1,156.5 L356.1,156.5 L356.2,156.5 L355.7,157 L355.7,156.5 L356.2,156.5 L355.7,156.5 L355.7,156.5 L356.2,156.5 L355.7,156.5 L355.7,156.5 L355.7,157.6 L355.7,158.8 C357.7,158.8 358.1,157.8 358.1,156.7 C358.1,155.6 357.6,154.6 356.5,154.6 L352.1,154.6 C351,154.6 350.1,155.5 350.1,156.6 C350.1,157.7 351,158.6 352.1,158.6 L355.7,158.6 L355.7,157.6 L355.7,157.6 Z" id="Shape" fill="#2C74A4"/><path d="M419.4,157.5 L415,157.5 C414.5,157.5 414.1,157 414.1,156.5 C414.1,156 414.5,155.5 415,155.5 L419.4,155.5 C419.9,155.5 420.3,156 420.3,156.5 C420.2,157 419.9,157.5 419.4,157.5 L419.4,157.5 Z" id="Shape" fill="#3182C4"/><path d="M418.7,157.6 L418.7,156.5 L415,156.5 L415,156.5 L415.2,156.5 L414.6,156.5 L414.6,156.5 L415.2,156.5 L414.6,156.5 L414.6,157 L415.2,156.5 L415,156.5 L415,156.5 L418.9,156.5 L418.9,156.5 L419.1,156.5 L418.7,157 L418.7,156.5 L419.1,156.5 L418.7,156.5 L418.7,156.5 L419.1,156.5 L418.7,156.5 L418.7,156.5 L418.7,157.6 L418.7,158.8 C420.7,158.8 421.1,157.8 421.1,156.7 C421.1,155.6 420.5,154.6 419.4,154.6 L415,154.6 C413.9,154.6 413,155.5 413,156.6 C413,157.7 413.9,158.6 415,158.6 L418.7,158.6 L418.7,157.6 L418.7,157.6 Z" id="Shape" fill="#2C74A4"/><path d="M414.7,92.5 L414.7,120.5 L434.7,120.5 L434.7,92.5 L414.7,92.5 L414.7,92.5 Z M432.7,117.5 L416.7,117.5 L416.7,95.5 L432.7,95.5 L432.7,117.5 L432.7,117.5 Z" id="Shape" fill="#2C74A4"/><path d="M414.7,93.1 L414.7,93.1 L414.7,120.5 L434.7,120.5 L434.7,92.5 L414.7,92.5 L414.7,92.5 L414.7,92.5 L414.7,93.5 L433.7,93.5 L433.7,119.5 L414.7,119.5 L414.7,93.1 L414.7,93.1 L414.7,93.8 L414.7,93.1 L414.7,93.1 Z M432.7,117.5 L432.7,117.5 L416.7,117.5 L416.7,95.5 L431.7,95.5 L431.7,117.5 L432.7,117.5 L432.7,118.3 L432.7,118.2 L432.7,118.2 L432.7,94.5 L416.7,94.5 L416.7,119.5 L432.7,119.5 L432.7,117.5 L432.7,117.5 L432.7,117.5 Z" id="Shape" fill="#2C74A4"/><path id="Rectangle-path" fill="#3182C4" d="M346.7 106.5H347.7V120.5H346.7z"/><path d="M347.7,120.5 L347.7,119.2 L347.7,119.2 L347.7,107.6 L347.7,107.6 L347.7,106.5 L346.7,106.5 L346.7,120.5 L347.7,120.5 L347.7,119.5 L347.7,120.5 L348.7,120.5 L348.7,105.5 L344.7,105.5 L344.7,121.5 L348.7,121.5 L348.7,120.5 L347.7,120.5 Z" id="Shape" fill="#2C74A4"/><path d="M338.2,139.2 L329.7,147.5 L335.6,147.5 L344.2,139.1 L338.2,139.2 Z" id="Shape" fill="#3182C4"/><path d="M338.2,139.5 L337.4,138.3 L326.8,148.5 L336.1,148.5 L347,138 L337.7,138.1 L337.4,138.6 L338.2,139.4 L338.2,140.6 L341.3,140.5 L335.2,146.5 L332.5,146.5 L339,140.1 L338.2,139.4 L338.2,140.6 L338.2,139.5 Z" id="Shape" fill="#2C74A4"/><path id="Rectangle-path" fill="#3182C4" d="M122.7 2.5H127.7V178.5H122.7z"/><path d="M122.7,178.5 L122.7,180.5 L127.7,180.5 L127.7,0.5 L121.7,0.5 L121.7,180.5 L122.7,180.5 L122.7,178.5 L122.7,178.5 L122.7,3.5 L125.7,3.5 L125.7,177.5 L122.7,177.5 L122.7,178.5 L123.7,178.5 L122.7,178.5 Z" id="Shape" fill="#2C74A4"/><path id="Rectangle-path" fill="#3182C4" d="M5.7 40.5H142.7V42.5H5.7z"/><path d="M143.7,42.5 L143.7,41.5 L7.7,41.5 L7.7,40.5 L5.7,40.5 L5.7,41.5 L142.7,41.5 L142.7,42.5 L143.7,42.5 L143.7,41.8 L143.7,42.5 L144.7,42.5 L144.7,39.5 L5.7,39.5 L5.7,44.5 L144.7,44.5 L144.7,42.5 L143.7,42.5 Z" id="Shape" fill="#2C74A4"/><path id="Rectangle-path" fill="#3182C4" d="M5.7 81.5H142.7V83.5H5.7z"/><path d="M143.7,83.5 L143.7,82.5 L7.7,82.5 L7.7,81.5 L5.7,81.5 L5.7,82.5 L142.7,82.5 L142.7,83.5 L143.7,83.5 L143.7,83 L143.7,83.5 L144.7,83.5 L144.7,81.5 L5.7,81.5 L5.7,84.5 L144.7,84.5 L144.7,83.5 L143.7,83.5 Z" id="Shape" fill="#2C74A4"/><path id="Rectangle-path" fill="#3182C4" d="M5.7 128.5H142.7V130.5H5.7z"/><path d="M143.7,130.5 L143.7,129.5 L7.7,129.5 L7.7,128.5 L5.7,128.5 L5.7,129.5 L142.7,129.5 L142.7,130.5 L143.7,130.5 L143.7,129.4 L143.7,130.5 L144.7,130.5 L144.7,126.5 L5.7,126.5 L5.7,131.5 L144.7,131.5 L144.7,130.5 L143.7,130.5 Z" id="Shape" fill="#2C74A4"/><path d="M56.7,108.5 L56.7,127.5 L69.7,127.5 L69.7,108.5 L56.7,108.5 L56.7,108.5 Z M67.7,126.5 L57.7,126.5 L57.7,110.5 L67.7,110.5 L67.7,126.5 L67.7,126.5 Z" id="Shape" fill="#3182C4"/><path d="M56.7,108.5 L55.7,108.5 L55.7,128.5 L70.7,128.5 L70.7,108.5 L55.7,108.5 L55.7,108.5 L56.7,108.5 L56.7,110.5 L67.7,110.5 L67.7,126.5 L57.7,126.5 L57.7,108.5 L56.7,108.5 L56.7,110.7 L56.7,108.5 L56.7,108.5 Z M67.7,126.5 L67.7,125.5 L59.7,125.5 L59.7,111.5 L66.7,111.5 L66.7,126.5 L67.7,126.5 L67.7,125.3 L67.7,126.5 L69.7,126.5 L69.7,108.5 L56.7,108.5 L56.7,127.5 L69.7,127.5 L69.7,126.5 L67.7,126.5 L67.7,126.5 Z" id="Shape" fill="#2C74A4"/><path id="Rectangle-path" fill="#3182C4" d="M57.7 110.5H67.7V126.5H57.7z"/><path d="M57.7,126.5 L57.7,127.5 L69.7,127.5 L69.7,108.5 L56.7,108.5 L56.7,127.5 L57.7,127.5 L57.7,126.5 L59.7,126.5 L59.7,111.5 L66.7,111.5 L66.7,125.5 L57.7,125.5 L57.7,126.5 L59.1,126.5 L57.7,126.5 Z" id="Shape" fill="#2C74A4"/><path d="M71.7,102.5 L71.7,128.5 L90.7,128.5 L90.7,102.5 L71.7,102.5 L71.7,102.5 Z M88.7,126.5 L73.7,126.5 L73.7,104.5 L88.7,104.5 L88.7,126.5 L88.7,126.5 Z" id="Shape" fill="#3182C4"/><path d="M71.7,102.5 L70.7,102.5 L70.7,129.5 L90.7,129.5 L90.7,101.5 L70.7,101.5 L70.7,102.5 L71.7,102.5 L71.7,103.5 L89.7,103.5 L89.7,126.5 L72.7,126.5 L72.7,102.5 L71.7,102.5 L71.7,103.7 L71.7,102.5 L71.7,102.5 Z M88.7,126.5 L88.7,124.5 L74.7,124.5 L74.7,105.5 L87.7,105.5 L87.7,126.5 L88.7,126.5 L88.7,125.1 L88.7,126.5 L89.7,126.5 L89.7,103.5 L72.7,103.5 L72.7,127.5 L89.7,127.5 L89.7,126.5 L88.7,126.5 L88.7,126.5 Z" id="Shape" fill="#2C74A4"/><path id="Rectangle-path" fill="#3182C4" d="M73.7 104.5H88.7V126.5H73.7z"/><path d="M73.7,126.5 L73.7,127.5 L89.7,127.5 L89.7,103.5 L72.7,103.5 L72.7,127.5 L73.7,127.5 L73.7,126.5 L74.7,126.5 L74.7,105.5 L87.7,105.5 L87.7,124.5 L73.7,124.5 L73.7,126.5 L75.1,126.5 L73.7,126.5 Z" id="Shape" fill="#2C74A4"/><path d="M70.7,39.8 C70.7,40.2 70.4,40.5 70,40.5 L65.4,40.5 C65,40.5 64.7,40.2 64.7,39.8 L64.7,10.2 C64.7,9.8 65,9.5 65.4,9.5 L70,9.5 C70.4,9.5 70.7,9.8 70.7,10.2 L70.7,39.8 L70.7,39.8 Z" id="Shape" fill="#3182C4"/><path d="M69.7,40.9 L69.7,39.5 L65.2,39.5 L65.2,39.5 L65.6,39.5 L64.7,39.7 L64.7,39.7 L64.7,39.7 L64.7,10.7 L64.7,10.7 L64.7,10.9 L65.6,10.5 L65.2,10.5 L65.2,10.5 L70,10.5 L70,10.5 L69.4,10.5 L69.7,10.9 L69.7,10.5 L69.7,10.5 L69.7,39.5 L69.7,39.5 L69.7,39.7 L69.4,39.5 L69.7,39.5 L69.7,39.7 L69.7,40.9 L69.7,42.1 C70.7,42.1 71.7,41.3 71.7,40.2 L71.7,10.5 C71.7,9.5 70.9,8.5 69.9,8.5 L65.2,8.5 C64.2,8.5 63.7,9.4 63.7,10.5 L63.7,40.2 C63.7,41.2 64.1,41.5 65.2,41.5 L69.7,41.5 L69.7,40.9 L69.7,40.9 Z" id="Shape" fill="#2C74A4"/><path d="M73.7,40.9 C73.7,41.2 73.4,41.5 73.1,41.5 L72.2,41.5 C71.9,41.5 71.6,41.2 71.6,40.9 L71.6,9.1 C71.6,8.8 71.9,8.5 72.2,8.5 L73.1,8.5 C73.4,8.5 73.7,8.8 73.7,9.1 L73.7,40.9 L73.7,40.9 Z" id="Shape" fill="#2C74A4"/><path d="M118.9,39.8 L117.7,40.7 C117.5,40.8 117.3,40.8 117.2,40.6 L98.9,14.4 C98.8,14.2 98.8,14 99,13.9 L100.2,13 C100.4,12.9 100.6,12.9 100.7,13.1 L119,39.3 C119.1,39.4 119.1,39.6 118.9,39.8 L118.9,39.8 Z" id="Shape" fill="#2C74A4"/><path d="M81.7,40.8 C81.7,41.2 81.4,41.5 81,41.5 L76.4,41.5 C76,41.5 75.7,41.2 75.7,40.8 L75.7,17.2 C75.7,16.8 76,16.5 76.4,16.5 L81,16.5 C81.4,16.5 81.7,16.8 81.7,17.2 L81.7,40.8 L81.7,40.8 Z" id="Shape" fill="#3182C4"/><path d="M80.7,40.9 L80.7,39.5 L76.8,39.5 L76.8,39.5 L77.5,39.5 L76.7,39.7 L76.7,39.5 L77.7,39.5 L77.7,16.5 L76.7,16.5 L76.7,17.3 C76.7,17.3 77.5,17.5 77.5,16.5 L76.7,16.5 L76.7,17.5 L80.7,17.5 L80.7,16.5 L80.6,16.5 C80.6,17.5 80.7,17.3 80.7,17.3 L80.7,16.5 L80.7,16.5 L80.7,39.7 L80.7,39.7 L80.7,39.7 L80.6,39.5 L80.7,39.5 L80.7,39.7 L80.7,40.9 L80.7,42.1 C81.7,42.1 82.7,41.3 82.7,40.2 L82.7,16.9 C82.7,15.9 82,14.5 81,14.5 L77,14.5 C76,14.5 74.7,15.9 74.7,16.9 L74.7,40.2 C74.7,41.2 76,41.5 77,41.5 L80.7,41.5 L80.7,40.9 L80.7,40.9 Z" id="Shape" fill="#2C74A4"/><path d="M87.7,39.8 C87.7,40.2 87.4,40.5 87,40.5 L84.4,40.5 C84,40.5 83.7,40.2 83.7,39.8 L83.7,13.2 C83.7,12.8 84,12.5 84.4,12.5 L87,12.5 C87.4,12.5 87.7,12.8 87.7,13.2 L87.7,39.8 L87.7,39.8 Z" id="Shape" fill="#3182C4"/><path d="M86.7,40.9 L86.7,39.5 L84.5,39.5 L84.5,39.5 L84.5,39.5 L84.7,39.7 L84.7,39.7 L84.7,39.7 L84.7,13.6 L84.7,13.6 L84.7,14 L84.5,13.5 L84.5,13.5 L84.5,13.5 L86.4,13.5 L86.4,13.5 L86,13.5 L86.7,14 L86.7,13.6 L86.7,13.6 L86.7,39.7 L86.7,39.7 L86.7,39.7 L86,39.5 L86.7,39.5 L86.7,39.7 L86.7,40.9 L86.7,42.1 C87.7,42.1 88.7,41.3 88.7,40.2 L88.7,13.5 C88.7,12.5 87.5,11.5 86.4,11.5 L84,11.5 C83,11.5 82.6,12.5 82.6,13.5 L82.6,40.2 C82.6,41.2 82.9,41.5 84,41.5 L86.6,41.5 L86.6,40.9 L86.7,40.9 Z" id="Shape" fill="#2C74A4"/><path d="M91.7,40.2 C91.7,40.4 91.6,40.5 91.4,40.5 L91,40.5 C90.8,40.5 90.7,40.4 90.7,40.2 L90.7,14.8 C90.7,14.6 90.8,14.5 91,14.5 L91.4,14.5 C91.6,14.5 91.7,14.6 91.7,14.8 L91.7,40.2 L91.7,40.2 Z" id="Shape" fill="#3182C4"/><path d="M90.7,40.9 L90.7,39.7 L90.7,39.7 L90.7,40.5 L92,40.5 C92,39.5 90.7,39.7 90.7,39.7 L90.7,40.5 L92.7,40.5 L92.7,15.5 L90.7,15.5 L90.7,16 L92,15.5 L90.7,15.5 L90.7,16.5 L90.7,16.5 L90.7,15.5 L90.8,15.5 L90.7,16 L90.7,15.5 L90.7,15.5 L90.7,40.6 L90.7,40.6 L90.7,39.7 C90.7,39.7 90.8,39.5 90.8,40.5 L90.7,40.5 L90.7,39.7 L90.7,40.9 L90.7,42.1 C92.7,42.1 93.7,41.4 93.7,40.6 L93.7,15.1 C93.7,14.3 92.5,13.5 91.7,13.5 L91.1,13.5 C90.3,13.5 89.7,14.3 89.7,15.1 L89.7,40.6 C89.7,41.4 90.3,41.5 91.1,41.5 L90.7,41.5 L90.7,40.9 L90.7,40.9 Z" id="Shape" fill="#2C74A4"/><path d="M98.7,39.8 C98.7,40.2 98.4,40.5 98,40.5 L96.3,40.5 C95.9,40.5 95.6,40.2 95.6,39.8 L95.6,13.2 C95.6,12.8 95.9,12.5 96.3,12.5 L98,12.5 C98.4,12.5 98.7,12.8 98.7,13.2 L98.7,39.8 L98.7,39.8 Z" id="Shape" fill="#3182C4"/><path d="M98.7,40.9 L98.7,39.5 L96.7,39.5 L96.7,40.5 L97.2,40.5 C97.2,39.5 96.7,39.7 96.7,39.7 L96.7,40.6 L96.7,40.6 L96.7,13.6 L96.7,13.6 L96.7,14 L97.2,13.5 L97.1,13.5 L97.1,13.5 L98.1,13.5 L98.1,13.5 L97.5,13.5 L98.7,14 L98.7,13.5 L96.7,13.5 L96.7,40.5 L98.7,40.5 L98.7,39.7 C98.7,39.7 97.5,39.5 97.5,40.5 L98.7,40.5 L98.7,39.7 L98.7,40.9 L98.7,42.1 C98.7,42.1 99.7,41.3 99.7,40.3 L99.7,13.5 C99.7,12.5 99,11.5 98,11.5 L96.7,11.5 C95.7,11.5 95.7,12.4 95.7,13.5 L95.7,40.3 C95.7,41.3 95.6,41.6 96.7,41.6 L98.7,41.6 L98.7,40.9 L98.7,40.9 Z" id="Shape" fill="#2C74A4"/><path d="M29.7,139.5 L29.7,178.5 L69.7,178.5 L69.7,139.5 L29.7,139.5 L29.7,139.5 Z M52.5,147.5 L47.2,147.5 C45.6,147.5 44.3,146.6 44.3,145 C44.3,143.4 45.6,142.5 47.2,142.5 L52.5,142.5 C54.1,142.5 55.4,143.4 55.4,145 C55.3,146.6 54,147.5 52.5,147.5 L52.5,147.5 Z" id="Shape" fill="#3182C4"/><path d="M29.7,139.5 L28.7,139.5 L28.7,180.5 L70.7,180.5 L70.7,137.5 L28.7,137.5 L28.7,139.5 L29.7,139.5 L29.7,139.5 L69.7,139.5 L69.7,177.5 L31.7,177.5 L31.7,139.5 L29.7,139.5 L29.7,140.6 L29.7,139.5 L29.7,139.5 Z M52.7,147.8 L52.7,146.5 L47.2,146.5 C46.7,146.5 46.3,146.4 46,146.1 C45.7,145.8 45.5,145.4 45.5,144.9 C45.5,144.4 45.7,143.7 46,143.3 C46.3,143 46.7,142.4 47.2,142.4 L52.5,142.4 C53,142.4 53.4,143 53.7,143.3 C54,143.6 54.2,144.2 54.2,144.7 C54.2,145.2 54.1,145.7 53.8,146 C53.5,146.3 52.7,146.6 52.7,146.6 L52.7,147.8 L52.7,149 C54.7,149 56.6,147 56.6,144.8 C56.6,142.6 54.7,140.6 52.5,140.6 L47.2,140.6 C45,140.6 43.2,142.4 43.2,144.6 C43.2,146.8 45,148.6 47.2,148.6 L52.7,148.6 L52.7,147.8 L52.7,147.8 Z" id="Shape" fill="#2C74A4"/><path d="M73.7,139.5 L73.7,178.5 L113.7,178.5 L113.7,139.5 L73.7,139.5 L73.7,139.5 Z M96.3,147.5 L91,147.5 C89.4,147.5 88.1,146.6 88.1,145 C88.1,143.4 89.4,142.5 91,142.5 L96.3,142.5 C97.9,142.5 99.2,143.4 99.2,145 C99.2,146.6 97.9,147.5 96.3,147.5 L96.3,147.5 Z" id="Shape" fill="#3182C4"/><path d="M73.7,139.5 L72.7,139.5 L72.7,180.5 L114.7,180.5 L114.7,137.5 L72.7,137.5 L72.7,139.5 L73.7,139.5 L73.7,139.5 L112.7,139.5 L112.7,177.5 L74.7,177.5 L74.7,139.5 L73.7,139.5 L73.7,140.6 L73.7,139.5 L73.7,139.5 Z M95.7,147.8 L95.7,146.5 L91,146.5 C90.5,146.5 90.1,146.4 89.8,146.1 C89.5,145.8 89.3,145.4 89.3,144.9 C89.3,144.4 89.5,143.7 89.8,143.3 C90.1,143 90.5,142.4 91,142.4 L96.3,142.4 C96.8,142.4 97.2,143 97.5,143.3 C97.8,143.6 98,144.2 98,144.7 C98,145.2 97.5,145.7 97.2,146 C96.9,146.3 96.7,146.6 95.7,146.6 L95.7,147.8 L95.7,149 C98.7,149 100,147 100,144.8 C100,142.6 98.5,140.6 96.3,140.6 L91,140.6 C88.8,140.6 87,142.4 87,144.6 C87,146.8 88.8,148.6 91,148.6 L95.7,148.6 L95.7,147.8 L95.7,147.8 Z" id="Shape" fill="#2C74A4"/><path d="M94.9,68 C91.1,68 88.1,68.3 88.1,68.7 L91,82 C91,82 92.2,82.6 95,82.6 C98.3,82.6 99.4,82 99.4,82 L101.8,68.7 C101.7,68.3 98.7,68 94.9,68 L94.9,68 Z" id="Shape" fill="#3182C4"/><path d="M95.7,68 L95.7,66.8 C93.7,66.8 91.6,66.9 90.3,67 C89.6,67.1 88.9,67.1 88.5,67.2 C88.3,67.3 88,67.3 87.8,67.4 C87.7,67.5 87.5,67.5 87.3,67.7 C87.2,67.8 87,67.9 86.9,68 C86.8,68.2 86.6,68.4 86.6,68.6 L86.6,68.7 L89.7,82.7 L90.2,83 C90.4,83.1 91.8,83.8 94.7,83.8 C98.2,83.8 99.5,83.1 99.7,83 L100.1,82.7 L102.5,68.7 L102.5,68.6 L102.5,68 C102.3,67.7 102.2,67.6 102.1,67.5 C101.9,67.3 101.7,67.3 101.5,67.2 C101.2,67.1 101.2,67 100.8,67 C99.5,66.8 96.6,66.7 95.6,66.7 L95.6,68 L95.6,69.2 C96.6,69.2 98.7,69.3 99.9,69.4 C100.5,69.5 100.8,69.5 101,69.6 L101,69.6 L101,69.6 L101,69.6 L101.2,69 L100.8,69.5 C100.9,69.6 101,69.6 101,69.6 L101.3,69 L100.9,69.5 L101.6,68.7 L100.7,69.2 C100.8,69.3 100.9,69.4 100.9,69.5 L101.6,68.7 L100.7,69.1 L101.6,68.5 L100.5,68.5 C100.5,68.5 100.6,68.9 100.7,69.1 L101.6,68.5 L100.5,68.5 L101.7,68.5 L100.6,68.4 L98.2,81.8 L99.3,82 L98.7,81 L99.1,81.7 L98.7,81 L98.7,81 L99.1,81.7 L98.7,81 L98.8,81.2 L98.7,81 L98.7,81 L98.8,81.2 L98.7,81 C98.7,81 98.6,81 98.5,81.1 C98.1,81.2 97,81.5 94.8,81.5 C93.5,81.5 92.6,81.4 92.1,81.2 C91.8,81.1 91.6,81.1 91.5,81 L91.4,81 L91.4,81 L91.1,81.6 L91.4,81 L91.4,81 L91.1,81.6 L91.4,81 L90.9,82 L92,81.8 L89.1,68.4 L88,68.6 L89.2,68.6 L88.1,68.6 L89.1,69.1 C89.2,69 89.2,68.6 89.2,68.6 L88.1,68.6 L89.1,69.2 L88.2,68.8 L88.7,69.6 C88.8,69.6 88.9,69.5 89,69.2 L88.1,68.8 L88.6,69.6 L88.3,69.2 L88.5,69.7 L88.6,69.7 L88.3,69.3 L88.5,69.8 C88.5,69.8 88.6,69.8 88.7,69.7 C88.9,69.7 89.6,69.6 90,69.6 C91.2,69.5 93.5,69.4 95.5,69.4 L95.5,68 L95.7,68 Z" id="Shape" fill="#2C74A4"/><ellipse id="Oval" fill="#3182C4" cx="94.9" cy="68.7" rx="6.4" ry=".6"/><path d="M101.2,68.5 L102.4,68.5 C102.4,68.5 102.3,68.2 102.3,68 C102.1,67.7 102,67.6 101.8,67.6 C101.6,67.4 101.4,67.4 101.2,67.4 C100.9,67.3 100.5,67.3 100.1,67.2 C98.9,67 97,66.9 94.8,66.9 C93,66.9 91.4,67 90.2,67.1 C89.6,67.2 89.1,67.2 88.7,67.3 C88.5,67.4 88.3,67.4 88.1,67.5 C88,67.6 87.9,67.6 87.7,67.8 L87.4,68.1 C87.3,68.2 87.3,68.5 87.3,68.7 C87.3,68.9 87.4,69.1 87.4,69.3 C87.6,69.6 87.7,69.7 87.9,69.8 C88.1,70 88.3,70 88.5,70.1 C88.8,70.2 89.2,70.2 89.6,70.3 C90.8,70.5 92.7,70.6 94.9,70.6 C96.7,70.6 98.3,70.5 99.5,70.4 C100.1,70.3 100.6,70.3 101,70.2 C101.2,70.1 101.4,70.1 101.6,70 C101.7,69.9 101.8,69.9 102,69.7 C102.1,69.6 102.2,69.4 102.3,69.3 C102.4,69.2 102.4,68.6 102.4,68.6 L101.2,68.6 L100,68.6 L101.2,68.6 L100.2,68.1 C100.1,68.2 100.1,68.6 100.1,68.6 L101.2,68.6 L100.2,68.2 L101.1,68.7 L100.6,67.9 C100.5,67.9 100.4,68 100.3,68.3 L101.2,68.8 L100.7,68 L101,68.5 L100.8,68 C100.8,68 100.8,68 100.7,68.1 L101,68.6 L100.8,68.1 L100.8,68.1 C100.7,68.1 100.5,68.2 100.1,68.2 C99.1,68.4 97.2,68.5 95,68.5 C93.3,68.5 91.7,68.4 90.6,68.3 C90.1,68.2 89.6,68.2 89.4,68.1 L89.3,68.1 L89.3,68.1 L89.3,68.1 L89,68.7 L89.4,68.2 C89.3,68.1 89.2,68.1 89.2,68.1 L88.9,68.7 L89.3,68.2 L88.6,69 L89.5,68.5 C89.4,68.4 89.3,68.3 89.3,68.2 L88.6,69 L89.5,68.4 L88.6,68.9 L89.7,68.9 C89.7,68.9 89.6,68.5 89.5,68.3 L88.6,68.9 L89.7,68.9 L88.6,68.9 L89.6,69.4 C89.7,69.3 89.7,68.9 89.7,68.9 L88.6,68.9 L89.6,69.5 L88.7,69.1 L89.2,70 C89.3,70 89.4,69.9 89.5,69.6 L88.6,69.2 L89.1,70 L88.8,69.6 L89,70.1 C89,70.1 89,70.1 89.1,70 L88.8,69.5 L89,70 L89,70 C89.1,70 89.3,69.9 89.7,69.9 C90.7,69.7 92.6,69.6 94.8,69.6 C96.5,69.6 98.1,69.7 99.2,69.8 C99.7,69.9 100.2,69.9 100.4,70 L100.5,70 L100.5,70 L100.5,70 L100.8,69.4 L100.4,69.9 C100.5,70 100.6,70 100.6,70 L100.9,69.4 L100.5,69.9 L101.2,69.1 L100.3,69.6 C100.4,69.7 100.5,69.8 100.5,69.9 L101.2,69.1 L100.3,69.5 L101.2,68.5 L100,68.5 C100,68.5 100.1,68.9 100.2,69.1 L101.2,68.5 L100,68.5 L101.2,68.5 L101.2,68.5 Z" id="Shape" fill="#2C74A4"/><path d="M94.9,69.3 L94.3,69.3 C93.8,66.8 93.2,59.2 95.8,55.6 C99,51 106.2,48.3 106.1,49.3 C106,50.3 96.3,58 95.6,61.2 C95,64.4 94.9,69.3 94.9,69.3 L94.9,69.3 Z" id="Shape" fill="#3182C4"/><path d="M94.9,69.3 L94.9,68.1 L94.3,68.1 L94.3,69.3 L95.4,69.1 C95.2,68.2 95,66.3 95,64.2 C95,62.8 95.1,61.2 95.4,59.8 C95.7,58.4 96.1,57.1 96.7,56.3 C97.9,54.5 100,53 101.8,51.9 C102.7,51.4 103.6,50.9 104.3,50.7 C104.7,50.6 104.9,50.5 105.2,50.4 C105.4,50.3 105.6,50.3 105.6,50.3 L105.6,50.2 L105.7,49.5 L105.6,49.5 L105.6,50.2 L105.6,50.3 L105.7,49.6 L105.3,50.2 C105.5,50.3 105.6,50.3 105.7,50.3 L105.8,49.6 L105.4,50.2 L106,49.4 L105.1,49.9 C105.2,50.1 105.3,50.2 105.4,50.3 L106,49.5 L105.1,50.1 L106,49.7 L105,49.7 C105,49.7 105,50 105.1,50.2 L106,49.7 L105,49.7 L105.9,49.7 L105,49.6 L105,49.7 L105.9,49.7 L105,49.5 L106.2,49.5 L105,49.4 L105.8,49.5 L105.1,49.1 C105.1,49.1 105,49.2 105,49.4 L105.8,49.5 L105.1,49.1 L105.3,49.2 L105.1,49.1 L105.1,49.1 L105.3,49.2 L105.1,49.1 C105.1,49.1 105,49.2 105,49.3 C104.8,49.5 104.5,49.8 104.2,50.2 C102.9,51.5 100.7,53.5 98.8,55.5 C97.8,56.5 96.9,57.5 96.2,58.4 C95.8,58.9 95.5,59.3 95.3,59.8 C95,60.3 94.8,60.7 94.7,61.2 C94.3,62.9 94.1,65 94,66.6 C93.9,68.3 93.9,69.5 93.9,69.5 L94.9,69.3 L94.9,68.1 L94.9,69.3 L96.1,69.3 L96.1,69.1 C96.1,68.6 96.2,67.3 96.3,65.9 C96.4,64.4 96.6,62.7 96.9,61.4 C96.9,61.2 97.1,60.8 97.4,60.4 C97.9,59.6 98.8,58.6 99.8,57.5 C101.3,55.9 103.1,54.2 104.5,52.8 C105.2,52.1 105.9,51.5 106.3,51 C106.5,50.7 106.7,50.5 106.9,50.3 C107,50.2 107.1,50.1 107.1,49.9 C107.2,49.8 107.4,49.6 107.5,49.3 L107.7,49.3 L107.7,49.3 L107.5,49.2 C107.5,49 107.3,48.7 107.2,48.5 C107.1,48.3 106.9,48.2 106.8,48.1 C106.6,48 106.4,47.9 106.3,47.9 L105.9,47.9 C105.6,47.9 105.2,48 104.9,48.1 C104.3,48.3 103.5,48.5 102.7,48.9 C101.5,49.5 100.1,50.3 98.7,51.3 C97.3,52.3 96,53.5 95,54.9 C94.1,56.2 93.6,57.7 93.3,59.3 C93,60.9 92.9,62.6 92.9,64.2 C92.9,66.4 93.1,68.4 93.3,69.6 L93.5,70.5 L96.2,70.5 L96.2,69.3 L94.9,69.3 L94.9,69.3 Z" id="Shape" fill="#2C74A4"/><path d="M94.4,69.2 L94.7,69.2 C94.9,68.1 95.2,64.6 94,63 C92.5,60.9 89.1,59.7 89.1,60.1 C89.1,60.6 93.7,65.3 94,66.7 C94.3,68.2 94.4,69.2 94.4,69.2 L94.4,69.2 Z" id="Shape" fill="#3182C4"/><path d="M94.4,69.2 L94.4,70.4 L94.7,70.4 L95.6,70.4 L95.8,69.5 C95.9,68.9 96,68 96,66.9 C96,66.2 95.9,65.4 95.8,64.6 C95.6,63.8 95.4,63 94.9,62.3 C94.1,61.2 93,60.4 91.9,59.8 C91.4,59.5 90.9,59.3 90.5,59.1 C90.3,59 90.1,59 89.9,58.9 C89.7,58.9 89.5,58.8 89.3,58.8 C89.1,58.8 89,58.8 88.7,58.9 C88.6,59 88.4,59.1 88.2,59.3 C88.1,59.5 88,59.8 88,60 L88,60.1 L89.2,60 L88,60.1 C88,60.3 88.1,60.4 88.1,60.5 C88.2,60.7 88.2,60.8 88.3,60.9 C88.4,61.1 88.6,61.3 88.8,61.5 C89.4,62.3 90.5,63.4 91.4,64.6 C91.8,65.2 92.3,65.7 92.6,66.1 C92.7,66.3 92.9,66.5 93,66.7 C93,66.8 93.1,66.8 93.1,66.9 L93.1,66.9 L93.1,66.9 L93.6,66.9 L93.9,66.9 L93.9,66.9 L93.6,66.9 L93.3,66.9 C93.5,67.6 93.4,68.2 93.5,68.6 L93.5,69.1 C93.5,69.2 93.7,69.2 93.7,69.2 L93.9,69.2 L93.9,69.2 L94.2,69.2 L93.9,69.2 L93.9,69.2 L94,69.2 L93.6,69.2 L93.6,70.3 L94.7,70.3 L94.4,69.2 L95.6,69.1 C95.6,69.1 95.5,68 95.2,66.4 C95.1,66 94.9,65.7 94.8,65.4 C94.5,64.8 94,64.2 93.5,63.6 C92.8,62.7 91.9,61.7 91.2,60.9 C90.9,60.5 90.6,60.2 90.4,59.9 C90.3,59.8 90.2,59.7 90.2,59.6 L90.2,59.6 L89.8,59.8 L90.2,59.6 L90.2,59.6 L89.8,59.8 L90.2,59.6 L89.3,60 L90.3,59.9 C90.3,59.7 90.2,59.6 90.2,59.6 L89.3,60 L90.5,59.9 L90.7,59.9 L90.7,59.9 L89.2,59.4 L90.3,59.4 L90.3,59.3 L89.2,59.4 L90.3,59.4 L89.2,59.4 L90.1,60 C90.2,59.8 90.3,59.4 90.3,59.4 L89.2,59.4 L90.1,60.3 L89.2,59.8 L89.8,60.8 C89.9,60.7 90,60.7 90.1,60.5 L89.2,59.9 L89.8,60.8 L89.3,60 L89.5,61 C89.6,61 89.7,61 89.8,60.9 L89.3,60.1 L89.7,61.1 L89.8,60.4 L89.8,61.2 L89.9,61.2 L89.8,60.5 L89.8,61.3 L89.8,60.9 L89.3,60.5 L89.8,60.5 L89.8,60.9 L89.3,60.5 L89.3,60.5 C89.4,60.5 89.6,60.9 89.9,61.1 C90.4,61.3 91,61.8 91.6,62.2 C92.2,62.6 92.7,63.2 93.1,63.6 C93.3,63.9 93.5,64.4 93.6,65 C93.7,65.6 93.8,66.3 93.8,66.9 C93.8,67.8 93.7,68.6 93.6,69 L94.7,69.2 L94.7,68 L94.4,68 L94.4,69.2 L95.6,69.1 L94.4,69.2 L94.4,69.2 Z" id="Shape" fill="#2C74A4"/><path d="M94.3,62 L94.6,62.1 C95.4,60.9 97.2,56.9 96.5,54.4 C95.6,51.3 92.1,48.3 92,48.9 C91.9,49.5 95.2,57 95,58.9 C94.7,60.7 94.3,62 94.3,62 L94.3,62 Z" id="Shape" fill="#3182C4"/><path d="M94.3,62 L93.9,63.1 L94.2,63.2 L95.1,63.5 L95.6,62.7 C95.8,62.4 96,62 96.2,61.5 C96.6,60.8 96.9,59.8 97.2,58.8 C97.5,57.8 97.7,56.7 97.7,55.7 C97.7,55.2 97.6,54.6 97.5,54.1 C97,52.4 96,50.9 94.9,49.8 C94.4,49.2 93.9,48.8 93.5,48.4 C93.3,48.2 93.1,48.1 92.8,48 C92.7,47.9 92.6,47.9 92.4,47.8 C92.3,47.8 92.1,47.7 91.9,47.7 C91.7,47.7 91.5,47.7 91.2,47.9 C91.1,48 90.9,48.1 90.9,48.2 C90.8,48.3 90.8,48.5 90.7,48.6 L90.7,48.6 L90.7,48.9 C90.7,49.1 90.7,49.2 90.8,49.4 C90.9,49.7 90.9,49.9 91.1,50.2 C91.5,51.3 92.2,53.1 92.7,54.8 C93,55.6 93.3,56.5 93.4,57.2 C93.5,57.5 93.6,57.9 93.6,58.1 L93.6,58.7 L93.6,58.8 L93.6,58.8 C93.6,59.7 93.4,60.4 93.3,60.9 C93.2,61.2 93.2,61.4 93.2,61.5 C93.2,61.6 92.9,61.6 92.9,61.6 L92.7,61.6 L92.7,61.6 L93.1,61.6 L93.2,61.5 L93.2,61.5 L93.3,61.6 L93.2,61.6 L92.9,62.7 L93.9,63.1 L94.3,62 L95.2,62.3 C95.2,62.3 95.7,60.9 95.7,59 L95.7,59 C95.7,58.9 95.9,58.8 95.9,58.7 C95.9,58.3 95.9,57.9 95.8,57.5 C95.6,56.7 95.4,55.9 95.1,55 C94.7,53.6 94.1,52.2 93.7,51 C93.5,50.4 93.3,49.9 93.2,49.5 C93.1,49.3 93.4,49.2 93.4,49 L93.7,48.9 L93.7,48.9 L92.6,49.5 L93.2,49.5 L93.2,49.4 L92.7,49.5 L93.3,49.5 L92.3,49.5 L93.3,49.7 L93.3,49.5 L92.3,49.5 L93.9,49.2 L93.9,49.2 L93.6,49.2 L92.4,48.9 L93.2,49.5 C93.3,49.4 93.3,49.3 93.3,49.2 L92.2,48.9 L93.1,49.5 L92.2,48.9 L92.6,49.9 C92.8,49.8 93,49.7 93.1,49.5 L92.2,48.9 L93,49.9 L92.9,49 L92.9,50 C92.9,50 93.1,50 93.3,49.9 L92.9,49 L92.9,50 L92.9,49.2 L92.6,49.9 L92.9,49.9 L92.9,49.1 L92.3,49.8 L92.2,49.6 L92,49.8 L92,49.8 L92.1,49.3 L92,49.3 L92,49.3 C92,49.3 92.1,49.6 92.2,49.7 L93,50.5 C93.5,51 94,51.7 94.5,52.3 C95,53 95.3,53.8 95.5,54.5 C95.6,54.8 95.6,55.1 95.6,55.5 C95.6,56.5 95.3,57.7 94.9,58.8 C94.7,59.3 94.5,59.9 94.3,60.3 C94.1,60.7 93.9,61.1 93.8,61.3 L94.8,61.9 L95,61 L94.7,60.9 L94.3,62 L95.4,62.3 L94.3,62 L94.3,62 Z" id="Shape" fill="#2C74A4"/><path d="M95.8,58.4 L96.1,58.6 C97.1,57.7 99.9,54.6 100,52.2 C100.1,49.1 97.8,45.5 97.5,45.9 C97.2,46.4 98.1,54.2 97.3,55.8 C96.5,57.4 95.8,58.4 95.8,58.4 L95.8,58.4 Z" id="Shape" fill="#3182C4"/><path d="M95.8,58.4 L95.1,59.3 L95.4,59.5 L96.2,60.1 L96.9,59.5 C97.2,59.2 97.6,58.8 98,58.4 C98.7,57.7 99.2,56.7 99.8,55.7 C100.4,54.7 100.7,53.5 100.7,52.2 L100.7,52.2 C100.7,52.1 100.9,52.1 100.9,52 C100.9,50.3 100.4,48.6 99.8,47.3 C99.5,46.7 99.2,46.1 98.9,45.7 C98.7,45.5 98.6,45.3 98.4,45.1 C98.3,45 98.2,44.9 98.1,44.8 C98,44.8 97.9,44.7 97.8,44.7 C97.7,44.7 97.5,44.6 97.4,44.6 C97.2,44.6 97,44.6 96.8,44.8 C96.6,44.9 96.4,45.1 96.4,45.2 L97.4,45.8 L96.4,45.2 C96.3,45.3 96.3,45.4 96.3,45.5 C96.3,45.6 96.2,45.7 96.2,45.8 L96.2,46.5 C96.2,47.2 96.3,48.2 96.3,49.3 C96.3,50.4 96.4,51.6 96.4,52.7 C96.4,53.4 96.4,53.9 96.3,54.4 C96.3,54.6 96.3,54.8 96.2,55 C96.2,55.1 96.1,55.2 96.1,55.2 C95.7,56 95.4,56.6 95.2,57 C95.1,57.2 95,57.4 94.9,57.5 C94.9,57.6 94.8,57.6 94.8,57.6 L94.8,57.6 L94.8,57.6 L94.9,57.7 L94.8,57.6 L94.8,57.6 L94.9,57.7 L94.8,57.6 L94.2,58.5 L95.1,59.2 L95.8,58.4 L96.8,59.1 C96.8,59.1 97.6,58 98.3,56.3 C98.4,56 98.5,55.8 98.5,55.5 C98.6,55.1 98.6,54.7 98.6,54.2 L98.6,52.7 C98.6,51.6 98.6,50.3 98.5,49.2 C98.5,48.1 98.4,47.1 98.4,46.5 C98.4,46.3 98.5,46.2 98.5,46.1 L98.6,46.1 L98.6,46.1 L98,46 L98.4,46.1 L98.4,46 L97.9,45.9 L98.4,46 L97.5,45.7 L98.3,46.2 C98.4,46.1 98.4,46 98.4,46 L97.5,45.7 L98.3,46.2 L98.3,46.2 L98.3,46.2 L97.4,45.6 L97.9,46.5 C98.1,46.4 98.2,46.2 98.3,46.1 L97.4,45.5 L97.6,46.4 L96.7,45.5 L96.7,46.6 C98.7,46.6 97.1,46.6 97.2,46.5 L96.7,45.6 L96.7,46.7 L96.7,45.7 L96.4,46.7 C96.5,46.7 96.7,46.8 96.7,46.8 L96.7,45.8 L96.7,46.8 L97.1,46.1 L96.7,46.7 C96.7,46.7 96.8,46.8 97,46.8 L97.3,46.1 L96.8,46.7 L97,46.5 L96.8,46.7 L96.8,46.7 L97,46.5 L96.8,46.7 L96.8,46.7 L96.8,46.7 L96.8,46.7 L96.8,46.7 L96.8,46.7 L97,46.9 C97.1,47.1 97.3,47.4 97.5,47.8 C97.8,48.4 98.1,49 98.3,49.8 C98.5,50.5 98.6,51.3 98.6,52 L98.6,52.1 L98.6,52.1 C98.6,52.5 98.5,53 98.2,53.6 C97.8,54.4 97.2,55.3 96.6,56.1 C96,56.8 95.4,57.5 95.1,57.7 L95.9,58.6 L96.6,57.7 L96.3,57.5 L95.8,58.4 L96.8,59.1 L95.8,58.4 L95.8,58.4 Z" id="Shape" fill="#2C74A4"/><path d="M94.4,64.5 L94.7,64.5 C94.9,63.5 95.2,60.2 94,58.6 C92.5,56.5 89.1,55.4 89.1,55.9 C89.1,56.4 93.7,60.9 94,62.3 C94.3,63.7 94.4,64.5 94.4,64.5 L94.4,64.5 Z" id="Shape" fill="#3182C4"/><path d="M94.4,64.7 L94.4,65.5 L94.7,65.5 L95.7,65.9 L95.9,65.2 C96,64.6 96.1,63.8 96.1,62.7 C96.1,62 96,61.2 95.9,60.4 C95.7,59.6 95.5,58.9 95,58.2 C94.2,57.1 93.1,56.3 92,55.7 C91.5,55.4 91,55.2 90.6,55 C90.4,54.9 90.2,54.9 90,54.8 C89.8,54.8 89.6,54.7 89.4,54.7 C89.2,54.7 89.1,54.7 88.8,54.8 C88.7,54.9 88.5,55 88.3,55.2 C88.2,55.4 88.1,55.7 88.1,55.9 L88.1,56.1 L89.3,55.9 L88.1,56 C88.1,56.2 88.2,56.3 88.2,56.4 C88.3,56.6 88.3,56.7 88.4,56.8 C88.5,57 88.7,57.2 88.9,57.4 C89.5,58.2 90.6,59.4 91.5,60.5 C91.9,61.1 92.4,61.6 92.7,62 C92.8,62.2 93,62.4 93.1,62.6 C93.1,62.7 93.2,62.7 93.2,62.8 L93.2,62.8 L93.2,62.8 L93.7,62.8 L94,62.8 L94,62.8 L93.7,62.8 L93.4,62.8 C93.6,63.5 93.5,64.1 93.6,64.5 L93.6,65 C93.6,65.1 93.8,65.1 93.8,65.1 L94,65.1 L94,65.1 L94.4,65.1 L94,65.1 L94,65.1 L94.1,65.1 L93.6,65.1 L93.6,66.2 L94.7,66.2 L94.7,65 L95.9,64.9 C95.9,64.9 95.8,63.8 95.5,62.2 C95.4,61.8 95.2,61.5 95.1,61.2 C94.8,60.6 94.3,60 93.8,59.4 C93.1,58.5 92.2,57.5 91.5,56.7 C91.2,56.3 90.9,56 90.7,55.7 C90.6,55.6 90.5,55.5 90.5,55.4 L90.5,55.4 L90.1,55.6 L90.5,55.4 L90.5,55.4 L90.1,55.6 L90.5,55.4 L89.6,55.8 L90.6,55.7 C90.6,55.5 90.5,55.4 90.5,55.4 L89.6,55.8 L90.6,55.7 L90.6,55.7 L90.6,55.4 L89.5,55.3 L90.6,55.3 L90.6,55.1 L89.5,55.3 L90.6,55.3 L89.5,55.3 L90.4,55.9 C90.5,55.7 90.6,55.3 90.6,55.3 L89.5,55.3 L90.4,56.2 L89.5,55.7 L90.1,56.7 C90.2,56.6 90.3,56.6 90.4,56.4 L89.5,55.8 L90.1,56.7 L89.6,55.9 L89.8,56.9 C89.9,56.9 90,56.9 90.1,56.8 L89.6,56 L90,57 L90.1,56.3 L90.1,57.1 L90.2,57.1 L90.1,56.4 L90.1,57.2 L90.1,56.8 L89.6,56.6 L90.1,56.6 L90.1,56.8 L89.6,56.6 L89.6,56.6 C89.7,56.6 89.9,57 90.2,57.1 C90.7,57.3 91.3,57.7 91.9,58.1 C92.5,58.5 93,59 93.4,59.5 C93.6,59.8 93.8,60.3 93.9,60.9 C94,61.5 94.1,62.2 94.1,62.8 C94.1,63.7 94,64.5 93.9,64.9 L95,64.9 L95,63.5 L94.7,63.5 L94.7,64.9 L95.9,64.7 L94.4,64.7 L94.4,64.7 Z" id="Shape" fill="#2C74A4"/><path d="M95.4,169.8 C95.4,170 95.2,170.2 95,170.2 C94.8,170.2 94.6,170 94.6,169.8 C94.6,169.6 94.8,169.4 95,169.4 C95.2,169.4 95.4,169.6 95.4,169.8" id="Shape" fill="#3182C4"/><path d="M103,169.8 C103,170 102.8,170.2 102.6,170.2 C102.4,170.2 102.2,170 102.2,169.8 C102.2,169.6 102.4,169.4 102.6,169.4 C102.9,169.4 103,169.6 103,169.8" id="Shape" fill="#3182C4"/><path d="M104.1,171.7 C104.2,171.6 104.4,171.5 104.6,171.6 C105.6,171.9 109.2,173.1 110.2,174.3 C111.4,175.7 109.5,176.7 108.4,175.8 C108.1,175.6 105.5,173.9 104.1,173.1 C103.7,172.8 103.6,172.3 103.9,171.9 L104.1,171.7 L104.1,171.7 Z" id="Shape" fill="#3182C4"/><g id="Group" transform="translate(164 67)"><path d="M68.8,62.9 C67.7,62.4 65.6,61.4 66.2,57.9 C66.8,54.4 68.6,54 70,56 C71.4,58 71.2,63.9 68.8,62.9 L68.8,62.9 Z" id="Shape" fill="url(#linearGradient-1)"/><path d="M83.3,64.7 C78.7,62.3 72.3,59.4 69.9,55.9 C69.1,56.9 68.5,60.9 68.8,62.8 C71.6,63.8 79.2,69.9 82.1,71.8 C81.4,76.3 86.7,79.9 87.2,76.8 C87.9,72.7 88.5,71.2 88.4,69.6 C88.3,68 85.9,66.1 83.3,64.7 L83.3,64.7 Z" id="Shape" fill="url(#linearGradient-2)"/><path d="M67.8,69 C66.7,68.6 64.6,67.5 65.2,64 C65.8,60.5 67.6,60.4 69,62.1 C70.5,64 69.8,69.7 67.8,69 L67.8,69 Z" id="Shape" fill="url(#linearGradient-3)"/><path d="M82.3,70.8 C77.7,68.4 71.3,65.5 68.9,62 C68.1,63 67.5,67 67.8,68.9 C70.6,69.9 78.2,76 81.1,77.9 C81.5,79.8 86.5,81.1 87,78 C87.1,77.5 87.3,76.4 87.4,75.7 C87.7,74.1 84.9,72.2 82.3,70.8 L82.3,70.8 Z" id="Shape" fill="url(#linearGradient-4)"/><path d="M157.8,4.9 C141.1,-4.8 122.8,2 112.7,19.2 C107,28.9 105.9,35.8 106.7,41.6 C108,50.8 139.5,71 150.4,66.6 C161.5,62.1 189.4,23.2 157.8,4.9 L157.8,4.9 Z" id="Shape" fill="url(#linearGradient-5)"/><path d="M128.1,74.3 C126.4,73.9 125.1,74.8 124.6,76.2 C124.4,76.8 121.2,86.2 121.2,86.2 C120.9,87.1 119.8,87.8 118.9,87.6 L114.3,86.7 L113.8,88.3 L118.3,89.2 L123.4,90.3 C125.2,90.7 127.2,89.5 127.8,87.7 L131.2,77.7 C131.7,76.3 130.2,74.7 128.1,74.3 L128.1,74.3 Z" id="Shape" fill="#8A8A8A"/><path d="M127.8,87.6 C127.8,87.6 130.9,78.3 131.2,77.6 C131.4,76.9 131.5,75 128,74.3 C129.4,74.8 130.1,75.8 129.6,77.3 C129.4,77.9 126.2,87.3 126.2,87.3 C125.9,88.2 124.8,88.9 123.9,88.7 L114.2,86.7 L113.7,88.3 L123.4,90.3 C125.2,90.6 127.2,89.4 127.8,87.6 L127.8,87.6 Z" id="Shape" fill="url(#linearGradient-6)"/><path d="M136.8,56.8 C126,54.4 118,58.7 110.2,74.9 C107.9,79.6 113.2,81.9 123.6,84 L123.6,84 L123.6,84 C134,86.2 138.6,86 140.9,81.2 C149.2,64 147.8,58.9 136.8,56.8 L136.8,56.8 Z" id="Shape" fill="#B3B1B2"/><path d="M132.7,86.5 C132.5,87.4 131.7,87.9 130.8,87.7 L98.2,80.9 C97.3,80.7 96.8,79.9 97,79 L97.5,76.8 C97.7,75.9 98.5,75.4 99.4,75.6 L132,82.4 C132.9,82.6 133.4,83.4 133.2,84.3 L132.7,86.5 L132.7,86.5 Z" id="Shape" fill="url(#linearGradient-7)"/><path d="M118.1,97 C118,97.7 117.8,99 118.1,99 C118.4,99 118.6,99.1 118.8,99.1 C119.2,99.2 119.8,98.4 120,97.3 C120.2,96.2 120,95.3 119.6,95.2 C119.4,95.2 119.2,95.1 118.9,95.1 C118.7,95.1 118.2,96.4 118.1,97 L118.1,97 Z" id="Shape" fill="url(#linearGradient-8)"/><path d="M117.4,96.8 C117.3,97.5 117.1,98.8 117.4,98.8 C117.7,98.8 117.9,98.9 118.1,98.9 C118.5,99 119.1,98.2 119.3,97.1 C119.5,96 119.3,95.1 118.9,95 C118.7,95 118.5,94.9 118.2,94.9 C118,94.9 117.5,96.3 117.4,96.8 L117.4,96.8 Z" id="Shape" fill="url(#linearGradient-9)"/><path d="M116.7,96.7 C116.6,97.4 116.4,98.7 116.7,98.7 C117,98.8 117.2,98.8 117.4,98.8 C117.8,98.9 118.4,98.1 118.6,97 C118.8,95.9 118.6,95 118.2,94.9 C118,94.9 117.8,94.8 117.5,94.8 C117.3,94.8 116.8,96.1 116.7,96.7 L116.7,96.7 Z" id="Shape" fill="url(#linearGradient-10)"/><path d="M116.4,96.6 C116.2,97.7 116.4,98.6 116.8,98.7 C117.2,98.8 117.8,98 118,96.9 C118.2,95.8 118,94.9 117.6,94.8 C117.2,94.7 116.6,95.5 116.4,96.6 L116.4,96.6 Z" id="Shape" fill="url(#linearGradient-11)"/><path d="M105.2,94.3 C105.1,95 104.9,96.3 105.2,96.3 C105.5,96.4 105.7,96.4 105.9,96.4 C106.3,96.5 106.9,95.7 107.1,94.6 C107.3,93.5 107.1,92.6 106.7,92.5 C106.5,92.5 106.3,92.4 106,92.4 C105.8,92.4 105.3,93.7 105.2,94.3 L105.2,94.3 Z" id="Shape" fill="url(#linearGradient-12)"/><path d="M104.5,94.1 C104.4,94.8 104.2,96.1 104.5,96.1 C104.8,96.2 105,96.2 105.2,96.2 C105.6,96.3 106.2,95.5 106.4,94.4 C106.6,93.3 106.4,92.4 106,92.3 C105.8,92.3 105.6,92.2 105.3,92.2 C105,92.2 104.6,93.6 104.5,94.1 L104.5,94.1 Z" id="Shape" fill="url(#linearGradient-13)"/><path d="M103.7,94 C103.6,94.7 103.4,96 103.7,96 C104,96.1 104.2,96.1 104.4,96.1 C104.8,96.2 105.4,95.4 105.6,94.3 C105.8,93.2 105.7,92.3 105.2,92.2 C105,92.2 104.8,92.1 104.5,92.1 C104.2,92.1 103.9,93.4 103.7,94 L103.7,94 Z" id="Shape" fill="url(#linearGradient-14)"/><path d="M103.4,93.9 C103.2,95 103.4,95.9 103.8,96 C104.2,96.1 104.8,95.3 105,94.2 C105.2,93.1 105,92.2 104.6,92.1 C104.2,92 103.6,92.8 103.4,93.9 L103.4,93.9 Z" id="Shape" fill="url(#linearGradient-15)"/><path d="M118.4,95 L112.1,95.3 L112.9,91.4 L118.7,93.8 L118.4,95 Z" id="Shape" fill="url(#linearGradient-16)"/><path d="M114.8,93 L109.5,91.9 L111.2,83.7 L116.5,84.8 L114.8,93 Z" id="Shape" fill="url(#linearGradient-17)"/><path d="M116.5,89.3 L109.4,87.8 L110.3,83.5 L117.4,85 L116.5,89.3 Z" id="Shape" fill="url(#linearGradient-18)"/><path d="M98.4,91.8 L112.1,94.7 L112.8,91.3 L98.6,90.7 L98.4,91.8 Z" id="Shape" fill="url(#linearGradient-19)"/><circle id="Oval" fill="url(#linearGradient-20)" cx="98" cy="93.8" r="2"/><path d="M125.9,97.6 L112.1,94.7 L112.8,91.3 L126.1,96.4 L125.9,97.6 Z" id="Shape" fill="url(#linearGradient-21)"/><circle id="Oval" fill="url(#linearGradient-22)" cx="125.4" cy="99.5" r="2"/><path d="M109.9,94.9 L111,95.2 L111.2,94 L110.1,93.7 L109.9,94.9 Z" id="Shape" fill="url(#linearGradient-23)"/><path d="M111,95.2 L112.1,95.4 L112.9,91.5 L111.2,94 L111,95.2 Z" id="Shape" fill="url(#linearGradient-24)"/><path d="M110.1,93.7 L111.2,94 L112.9,91.5 L111.8,91.2 L110.1,93.7 Z" id="Shape" fill="url(#linearGradient-25)"/><path d="M109.9,97 C109.8,97.6 109.5,98.9 109.1,98.9 C108.7,98.8 108.2,98.7 108,98.7 C107.7,98.6 107.6,97.7 107.8,96.6 C108,95.5 108.5,94.7 108.8,94.8 C109,94.8 109.6,95 109.9,95 C110.2,95 109.9,96.5 109.9,97 L109.9,97 Z" id="Shape" fill="url(#linearGradient-26)"/><path d="M110.9,97.2 C110.8,97.8 110.5,99.1 110.1,99.1 C109.7,99 109.2,98.9 109,98.9 C108.7,98.8 108.6,97.9 108.8,96.8 C109,95.7 109.5,94.9 109.8,95 C110,95 110.6,95.2 110.9,95.2 C111.3,95.2 111,96.8 110.9,97.2 L110.9,97.2 Z" id="Shape" fill="url(#linearGradient-27)"/><path d="M112,97.4 C111.9,98 111.6,99.3 111.2,99.3 C110.8,99.2 110.3,99.1 110.1,99.1 C109.8,99 109.7,98.1 109.9,97 C110.1,95.9 110.6,95.1 110.9,95.2 C111.1,95.2 111.7,95.4 112,95.4 C112.4,95.5 112.1,97 112,97.4 L112,97.4 Z" id="Shape" fill="url(#linearGradient-28)"/><path d="M112.2,97.5 C112,98.6 111.5,99.4 111.2,99.3 C110.9,99.2 110.8,98.3 111,97.2 C111.2,96.1 111.7,95.3 112,95.4 C112.4,95.5 112.5,96.4 112.2,97.5 L112.2,97.5 Z" id="Shape" fill="url(#linearGradient-29)"/><path d="M113.8,48.3 C111.9,50.9 105.5,66.4 111.5,69.9 C117.5,73.4 127.8,60.5 130.7,57.8 C133.7,55.1 115.8,45.6 113.8,48.3 L113.8,48.3 Z" id="Shape" fill="url(#linearGradient-30)"/><path d="M120.8,75.4 C120.8,75.4 123,83.9 117.2,82.7 C111.4,81.5 94.9,78.1 90.9,77.2 C86.9,76.4 87.9,68.5 93.2,69.6 C98.4,70.7 120.8,75.4 120.8,75.4 L120.8,75.4 Z" id="Shape" fill="url(#linearGradient-31)"/><path d="M103,71.7 L93.7,69.8 L93.7,69.8 L87.6,66.5 C82.3,65.4 80.7,75.6 84.7,76.4 L102.1,79.6 C106,80.4 108.3,72.8 103,71.7 L103,71.7 Z" id="Shape" fill="url(#linearGradient-32)"/><path d="M153,65.1 C152.1,68.6 145.8,65.7 134.6,60 C130.8,58.1 127.3,62.5 130.2,64.7 C147.6,78 165.5,80.4 162.5,55.1 C159.4,59.6 155.9,63.1 153,65.1 L153,65.1 Z" id="Shape" fill="url(#linearGradient-33)"/><path d="M114.8,49.4 C108.6,43.5 106.7,40.1 106.5,37.7 C106.6,33.8 107.6,29.3 110.2,23.9 C92.4,25.2 94.2,41 112,53.4 C114.9,55.5 117.8,52.3 114.8,49.4 L114.8,49.4 Z" id="Shape" fill="url(#linearGradient-34)"/><path d="M113.9,51.9 C113.3,53.3 109.5,64.6 110.2,66.7 C114.7,64.4 129.8,56.8 130.6,56.4 C131.5,56 133.7,59 134.5,60 C135.3,61 124.2,70.5 123.2,73.9 C122.3,77.1 122.5,81.6 122.5,81.6 L102.7,71.1 C102.7,71.1 106.1,65.6 106.6,64.3 C105.5,63.3 104.6,59.6 105.3,57.5 C106.2,55 109.7,52.8 112.4,50.8 C114.4,49.6 114.9,49.6 113.9,51.9 L113.9,51.9 Z" id="Shape" fill="url(#linearGradient-35)"/><path d="M123.1,50.6 C123.1,50.6 120.4,49.2 117.5,47.5 C114.3,53.3 115.4,56.4 115.4,56.4 C115.4,56.4 125.6,59.4 128.8,53.6 C125.7,52.1 123.1,50.6 123.1,50.6 L123.1,50.6 Z" id="Shape" fill="url(#linearGradient-36)"/><circle id="Oval" fill="#F3B175" transform="rotate(-61.48 115.96 54.49)" cx="115.961" cy="54.489" r="1.1"/><circle id="Oval" fill="#F3B175" transform="rotate(-61.472 117.873 56.187)" cx="117.873" cy="56.187" r="1.1"/><circle id="Oval" fill="url(#linearGradient-37)" cx="115.7" cy="53.8" r="1.1"/><circle id="Oval" fill="url(#linearGradient-38)" cx="117.7" cy="55.6" r="1.1"/><circle id="Oval" fill="url(#linearGradient-39)" cx="120.3" cy="56.7" r="1.1"/><path d="M115.5,56.5 C117.7,57.7 127.2,55.4 130,52.8 C130.9,53.1 132.3,56.4 132.4,56.8 C132.5,57.2 127.4,63.6 126.6,66 C126.4,63.4 124.7,57.7 124.1,57.4 C123.5,57.1 115.8,58.9 114.4,57.9 C113,56.9 113,51.5 112.3,51.1 C111.7,50.7 107,52.6 105.8,52.8 C107,51.8 115.2,46.7 116.3,47.4 C117.4,48.1 118.2,48.1 118.2,48.1 C118.2,48.1 114.2,55.8 115.5,56.5 L115.5,56.5 Z" id="Shape" fill="#FFF"/><path d="M157.2,46.1 C161.8,39.8 164.7,33.9 160.5,25.4 C153.6,11.5 142.4,4.9 134.4,6.5 C126.7,8 122.7,11.6 118.2,17.9 C113.3,24.8 110.9,30.3 110.8,33.8 C110.6,39.5 112.9,47.8 119,52 C129.2,58.5 133.5,57.6 141.3,57 C147.3,56.5 152.2,52.9 157.2,46.1 L157.2,46.1 Z" id="Shape" fill="url(#linearGradient-40)"/><path d="M154.2,44.4 C143.8,44.9 156.7,25.1 151.4,20.7 C146,23.5 135.3,25.2 126.3,20.7 C131.8,22.2 140.3,21.3 143,18.9 C137.8,19.1 124.5,19.5 119.8,15.8 C130.6,1.3 143.4,-4.3 161.2,11.6 C178.9,27.4 165.4,41 160.2,46.3 C159.5,45.4 158.6,44.2 154.2,44.4 L154.2,44.4 Z" id="Shape" fill="#EEB87D"/><path d="M141.5,23.8 C144,24.2 147.4,26.6 148.7,28.2 C147.7,25.7 144.2,22.8 141.5,23.8 L141.5,23.8 Z" id="Shape" fill="#7E1416"/><path d="M134.2,19.3 C133.5,16.9 130.6,13.8 128.9,12.8 C131.4,13.4 134.7,16.5 134.2,19.3 L134.2,19.3 Z" id="Shape" fill="#7E1416"/><path d="M156.8,43.2 L148,54 C150.3,56.5 155.2,59.5 159.4,54.3 C163.7,49.2 160.1,44.8 156.8,43.2 L156.8,43.2 Z" id="Shape" fill="url(#linearGradient-41)"/><path d="M155.7,45.7 L150.2,52.5 C151.7,54.1 154.7,56 157.4,52.7 C160.1,49.4 157.8,46.6 155.7,45.7 L155.7,45.7 Z" id="Shape" fill="url(#linearGradient-42)"/><path d="M154.2,44.4 C146.8,44.9 157.8,23.5 152.5,19.1 C147.1,21.9 135.9,23.8 126.9,19.4 C132.4,20.9 140.9,20 143.6,17.6 C138.4,17.8 123.8,17.2 119.1,13.6 C131.2,0.4 144,-4.1 160.9,8.6 C179.9,22.8 168,40.7 160.5,46.5 C159.7,45.5 158.6,44.1 154.2,44.4 L154.2,44.4 Z" id="Shape" fill="url(#linearGradient-43)"/><path d="M172.4,28.8 C172.1,29.1 171.7,29.3 171.3,29.5 C171,29.6 170.7,29.7 170.3,29.7 C166.2,30.2 157.8,27.3 153.9,25 C153.6,30 151.6,36.5 151.5,40.6 C153.9,42.7 158.3,44.2 161.8,44.6 L162.2,44.6 C164.2,44.8 166.7,44.6 168.9,44.2 C171,39.3 172.3,34 172.4,28.8 L172.4,28.8 Z" id="Shape" fill="url(#linearGradient-44)"/><path d="M143,0.4 C134.5,0.1 126.4,3.5 119.8,10 C120.1,11.4 121.5,13.9 123,15.5 C128.5,17.2 136.9,17.7 141.6,17.7 C138.8,13.3 140,4 143,0.4 L143,0.4 Z" id="Shape" fill="url(#linearGradient-45)"/><path d="M121.2,38.9 C120.9,38.6 123.4,38.3 124.3,38.7 C125.2,39.1 125.1,39.8 125.1,39.8 C125.1,39.8 126,39.5 126.7,39.8 C127.6,40.3 131.4,43.7 132.9,44.9 C131.3,47.2 127,53.3 121.2,50.1 C117.2,47.8 121.2,39 121.2,38.9 L121.2,38.9 Z" id="Shape" fill="url(#linearGradient-46)"/><path d="M121.2,38.9 C123.1,39.8 130.2,43.9 132.9,44.8 C130.8,45.6 127,49.8 122.4,47.4 C119,45.8 120.8,39.9 121.2,38.9 L121.2,38.9 Z" id="Shape" fill="url(#linearGradient-47)"/><path d="M124.4,42.6 C126.4,43.6 129.2,44.8 131.8,44.4 C129.3,43.3 125,41.1 122.5,39.6 L122.5,39.6 C122.4,40.7 122.6,41.6 124.4,42.6 L124.4,42.6 Z" id="Shape" fill="#FFF"/><path d="M123.7,48.4 C122.7,48.2 122.3,48 122.3,48.1 C122.3,48.2 122.6,48.5 123.6,48.7 C124.6,48.9 125.3,49 125.3,48.8 C125.3,48.8 124.7,48.7 123.7,48.4 L123.7,48.4 Z" id="Shape" fill="#FCDBD0"/><ellipse id="Oval" fill="#FDD3AA" transform="rotate(-54.196 141.802 46.475)" cx="141.802" cy="46.475" rx="2.8" ry="4.1"/><ellipse id="Oval" fill="#FDD3AA" transform="rotate(-54.204 115.41 28.362)" cx="115.41" cy="28.362" rx="2" ry="2.1"/><path d="M143.2,37.6 C143.8,38.2 144.2,38.5 144.7,38.7 C144,38.9 143.1,38.7 142.7,38.2 C142.2,37.8 142.7,37.2 143.2,37.6 L143.2,37.6 Z" id="Shape" fill="#7E1416"/><circle id="Oval" fill="url(#linearGradient-48)" cx="138.8" cy="35.9" r="4.7"/><circle id="Oval" fill="#FFF" transform="rotate(-50.64 138.77 35.893)" cx="138.771" cy="35.893" r="4.2"/><circle id="Oval" fill="url(#linearGradient-49)" cx="139.8" cy="35.7" r="2.5"/><circle id="Oval" fill="url(#linearGradient-50)" cx="139.9" cy="35.8" r="1.8"/><circle id="Oval" fill="#FFF" transform="rotate(-50.64 140.31 34.197)" cx="140.31" cy="34.197" r=".5"/><path d="M121.1,21.3 C120.4,20.8 120.1,20.5 119.7,20.1 C119.6,20.9 120,21.7 120.6,22 C121.1,22.2 121.6,21.7 121.1,21.3 L121.1,21.3 Z" id="Shape" fill="#7E1416"/><circle id="Oval" fill="url(#linearGradient-51)" cx="123.7" cy="25.3" r="4.7"/><circle id="Oval" fill="#FFF" transform="rotate(-50.64 123.718 25.258)" cx="123.718" cy="25.258" r="4.2"/><circle id="Oval" fill="url(#linearGradient-52)" cx="124.7" cy="25.2" r="2.5"/><circle id="Oval" fill="url(#linearGradient-53)" cx="124.8" cy="25.2" r="1.8"/><circle id="Oval" fill="#FFF" transform="rotate(-50.64 125.197 23.585)" cx="125.197" cy="23.585" r=".5"/><path d="M128.4,33.7 C126.5,31.7 124.1,31.2 122.6,32.4 C121.1,33.6 122.6,35.5 124.3,37.1 C121.6,33.5 126.2,31.7 128.4,33.7 L128.4,33.7 Z" id="Shape" fill="#FCC680"/><path d="M124.3,37 L128.5,33.7 C126.2,31.7 121.6,33.5 124.3,37 L124.3,37 Z" id="Shape" fill="#FFDDAE"/><path d="M57.5,68 C57.5,68.4 57.2,68.5 56.7,68.5 L50.8,68.5 C50.4,68.5 50,68.4 50,68 C50,67.6 50.3,67.5 50.8,67.5 L56.7,67.5 C57.2,67.5 57.5,67.6 57.5,68 L57.5,68 Z" id="Shape" fill="#80807F"/><path d="M18.7,36.5 L57.5,36.5 L59.7,60.5 L20.9,60.5 L18.7,36.5 Z" id="Shape" fill="#B3B1B2"/><path d="M57.5,36.7 L58.1,36.1 L60.3,59.9 L59.7,60.6 L57.5,36.7 Z" id="Shape" fill="#BBBDBF"/><path d="M18.7,36.5 L19.8,35.5 L58.1,35.5 L57.5,36.5 L18.7,36.5 Z" id="Shape" fill="#D0D2D3"/><path d="M42.9,49.5 L33.4,49.5 L29.5,68.5 L39.1,68.5 L42.9,49.5 Z" id="Shape" fill="#5A5C5C"/><path d="M42.9,50 L43.1,50.3 L39.7,66.5 L39.4,66.5 L42.9,50 Z" id="Shape" fill="#808184"/><path d="M24.3,66.5 L44.8,66.5 L44.3,69.5 L23.8,69.5 L24.3,66.5 Z" id="Shape" fill="#80807F"/><path d="M44.8,66.8 L47.8,69.2 L44.3,69.2 L44.8,66.8 Z" id="Shape" fill="#929497"/><path id="Rectangle-path" fill="#E69627" d="M5.7 68.5H140.7V120.5H5.7z"/><path d="M145.7,70.6 C145.7,69.5 144.8,68.5 143.6,68.5 L2.7,68.5 C1.6,68.5 0.6,69.4 0.6,70.6 L0.6,71.5 C0.6,72.6 1.5,73.6 2.7,73.6 L143.6,73.6 C144.7,73.6 145.7,72.7 145.7,71.5 L145.7,70.6 L145.7,70.6 Z" id="Shape" fill="#C57F2A"/></g></g></g></g></svg>