<svg id="Layer_1" xmlns="http://www.w3.org/2000/svg" viewBox="0 0 468.3 247.6"><path fill="#2A87DD" d="M466.2,242.4c-17.8,1.9-17.9-0.4-35.7-0.4c-17.9,0-17.9,0.3-35.7,0.3c-17.9,0-17.9-0.2-35.7-0.2 c-17.9,0-17.9-0.2-35.7-0.2c-17.9,0-17.9,0.4-35.7,0.4c-17.9,0-17.9-0.2-35.7-0.2c-17.9,0-17.9,0.6-35.7,0.6 c-17.9,0-17.9-0.1-35.7-0.1c-17.9,0-17.9-0.7-35.7-0.7c-17.9,0-17.9,0.8-35.7,0.8c-17.9,0-17.9-0.2-35.7-0.2 c-17.9,0-17.9-0.7-35.7-0.7s-18,2.4-35.7,0.5c-1.9-0.2-1.9-3.4,0-3.7c17.8-1.9,17.8-0.3,35.7-0.3c17.9,0,17.9,0.3,35.7,0.3 c17.9,0,17.9-0.3,35.7-0.3c17.9,0,17.9,0.2,35.7,0.2c17.9,0,17.9-0.3,35.7-0.3c17.9,0,17.9,0.6,35.7,0.6c17.9,0,17.9-0.3,35.7-0.3 c17.9,0,17.9-0.2,35.7-0.2c17.9,0,17.9,0.3,35.7,0.3c17.9,0,17.9,0,35.7,0c17.9,0,17.9-0.2,35.7-0.2c17.9,0,17.9-0.2,35.7-0.2 c17.9,0,18-1.9,35.8-0.1C468.5,238.5,468.1,242.2,466.2,242.4z"/><circle fill="#3182C4" cx="269.4" cy="236.2" r="2.7"/><path fill="#2C74A4" d="M272.1,235.5h-1.2c0,1-0.2,1.1-0.4,1.4c-0.3,0.3-0.6,0.6-1.1,0.6c-0.4,0-0.8-0.1-1.1-0.4 c-0.3-0.3-0.4-0.6-0.4-1c0-0.4,0.2-0.8,0.4-1c0.3-0.3,0.6-0.4,1.1-0.4c0.4,0,0.8-0.2,1.1,0.1c0.3,0.3,0.4,0.7,0.4,0.7H272.1h1.2 c0-2-1.7-3.5-3.8-3.5c-2.1,0-3.8,1.9-3.8,4c0,2.1,1.7,3.6,3.8,3.6c2.1,0,3.8-2.1,3.8-4.1H272.1z"/><circle fill="#3182C4" cx="437.1" cy="236.2" r="2.7"/><path fill="#2C74A4" d="M439.8,235.5h-1.2c0,1-0.2,1.1-0.4,1.4c-0.3,0.3-0.6,0.6-1.1,0.6c-0.4,0-0.8-0.1-1.1-0.4 c-0.3-0.3-0.4-0.6-0.4-1c0-0.4,0.2-0.8,0.4-1c0.3-0.3,0.6-0.4,1.1-0.4c0.4,0,0.8-0.2,1.1,0.1c0.3,0.3,0.4,0.7,0.4,0.7H439.8h1.2 c0-2-1.7-3.5-3.8-3.5c-2.1,0-3.8,1.9-3.8,4c0,2.1,1.7,3.6,3.8,3.6c2.1,0,3.8-2.1,3.8-4.1H439.8z"/><path fill="#3182C4" d="M262.7,181.5v54h183v-54H262.7z M267.7,189.5h47v18h-47V189.5z M314.7,230.5h-47v-19h47V230.5z M318.7,189.5h70 v18h-70V189.5z M388.7,230.5h-69v-19h69V230.5z M393.7,189.5h47v18h-47V189.5z M440.7,230.5h-47v-19h47V230.5z"/><path fill="#2C74A4" d="M262.7,181.5h-1v55h185v-56h-185v1H262.7v1h183v53h-183V181.5L262.7,181.5v1.8V181.5z M267.7,189.5v2h46v15h-45 v-17H267.7v1.8V189.5h-2v19h50v-20h-50v1H267.7z M314.7,230.5v-1h-46v-17h45v18H314.7v-1.4V230.5h1v-20h-50v21h50v-1H314.7z M318.7,189.5v2h69v15h-67v-17H318.7v1.8V189.5h-1v19h72v-20h-72v1H318.7z M388.7,230.5v-1h-68v-17h67v18H388.7v-1.4V230.5h1v-20 h-72v21h72v-1H388.7z M393.7,189.5v2h46v15h-45v-17H393.7v1.8V189.5h-1v19h50v-20h-50v1H393.7z M440.7,230.5v-1h-46v-17h45v18H440.7 v-1.4V230.5h2v-20h-50v21h50v-1H440.7z"/><path fill="#3182C4" d="M329.7 180.5H373.7V181.5H329.7z"/><path fill="#2C74A4" d="M373.7 181.5L373.7 180.5 330.9 180.5 330.9 180.5 329.7 180.5 329.7 181.5 371.5 181.5 371.5 181.5 373.7 181.5 373.7 180.7 373.7 181.5 374.7 181.5 374.7 179.5 328.7 179.5 328.7 182.5 374.7 182.5 374.7 181.5z"/><path fill="#3182C4" d="M343.7 166.5H360.7V180.5H343.7z"/><path fill="#2C74A4" d="M360.7 180.5L360.7 179.5 344.7 179.5 344.7 167.5 359.7 167.5 359.7 180.5 360.7 180.5 360.7 179.5 360.7 180.5 361.7 180.5 361.7 165.5 342.7 165.5 342.7 181.5 361.7 181.5 361.7 180.5z"/><path fill="#3182C4" d="M300.7 111.5H405.7V165.5H300.7z"/><path fill="#2C74A4" d="M405.7 165.5L405.7 164.5 301.7 164.5 301.7 112.5 404.7 112.5 404.7 165.5 405.7 165.5 405.7 164.2 405.7 165.5 406.7 165.5 406.7 109.5 299.7 109.5 299.7 166.5 406.7 166.5 406.7 165.5z"/><path fill="#3182C4" d="M326.7 199.5H381.7V207.5H326.7z"/><path fill="#2C74A4" d="M381.7 207.5L381.7 206.5 327.7 206.5 327.7 200.5 380.7 200.5 380.7 207.5 381.7 207.5 381.7 207.1 381.7 207.5 381.7 207.5 381.7 198.5 325.7 198.5 325.7 208.5 381.7 208.5 381.7 207.5z"/><path fill="#3182C4" d="M277.4,180.5h-6.7c-0.7,0-2.1,0-2.1,0v-13.4c0-0.7,1.3-1.6,2.1-1.6h6.7c0.7,0,1.3,0.9,1.3,1.6v13.4 C278.7,180.5,278.1,180.5,277.4,180.5z"/><path fill="#2C74A4" d="M276.7,181v-1.5h-5.9c-0.7,0-2.1,0-2.1,0v1h2v-13c0,0,0,0,0.1,0h6.7c0.1,0,0.3,0,0.3,0v13h1v-1c0,0-1,0-2,0V181 v0.5c1,0,2.1,0,2.1,0h0.9v-14.4c0-1.4-0.9-2.6-2.3-2.6h-6.7c-1.4,0-2.1,1.2-2.1,2.6v14.4h0.7c0,0,0.6,0,1.3,0h5.9V181z"/><path fill="#3182C4" d="M273.7,165.8c0-2.1,0.7-3.8,1.6-3.8"/><path fill="#2C74A4" d="M274.7,165.6c0-0.9,0.3-1.6,0.5-2.1c0.1-0.2,0.3-0.4,0.3-0.4l0,0l-0.1-0.2l0.1,0.2l0.1,0l-0.1-0.2l-0.3,0.2 l-0.5-0.4v0.4l0.1,0l-0.1-0.4v0.4v-2.3c0,0-0.2,0.1-0.5,0.2c-0.4,0.2-0.6,0.5-0.8,0.8c-0.4,0.5-0.5,0.9-0.7,1.6 c-0.2,0.7-0.2,2-0.2,2h2.1V165.6z"/><path fill="#3182C4" d="M287.2,180.5h-5.3c-0.6,0-1.3,0-1.3,0v-8.7c0-0.5,0.7-1.3,1.3-1.3h5.3c0.6,0,1.5,0.8,1.5,1.3v8.7 C288.7,180.5,287.8,180.5,287.2,180.5z"/><path fill="#2C74A4" d="M287.7,181v-1.5h-5.7c-0.6,0-1.3,0-1.3,0v1h1v-9h0l0.4,0.2c0,0,0-0.2,0-0.2h-0.4l0.4,0.3l-0.2,0l0.1,0.2 c0,0,0,0,0.1-0.1l-0.2-0.1l0.1,0.2l0,0l0,0l0,0l0,0l0-0.3l0-0.3h5.3l0,0.3l0,0l-0.1,0.2l0.1,0.1l0-0.1l-0.1-0.1l0.3-0.4h-0.4 c0,0,0,0.2,0.1,0.2l0.3-0.2h-0.8v9h2v-1h-1V181v0.5h0.6h1.4v-9.7c0-0.6-0.4-1.8-0.9-2.2c-0.4-0.3-1.1-1.2-1.6-1.2h-5.3 c-0.6,0-1.1,0.8-1.5,1.2c-0.4,0.3-0.7,1.5-0.7,2.2v9.7h1.2c0,0,0.5,0,1.1,0h5.7V181z"/><path fill="#3182C4" d="M284.3,170.9c0-1.4,0.6-2.5,1.3-2.5"/><path fill="#2C74A4" d="M285.7,171.1c0-0.5,0-1.1,0.1-1.3c0-0.1,0-0.1,0-0.2l0-0.1l0,0l-0.2-0.3v0.3c0,0,0.2-0.1,0.2-0.1l-0.2-0.3v0.3 v-2.3c-1,0-1,0.2-1.3,0.5c-0.5,0.4-0.8,0.7-1,1.2c-0.2,0.5-0.3,1.6-0.3,1.6h2.6V171.1z"/><path fill="#3182C4" d="M302.8,206.5h-28.6c-0.3,0-0.5,0.4-0.5,0.2v-1c0-0.3,0.3-1.2,0.5-5.2h28.6c0.3,4,0.9,5,0.9,5.2v1 C303.7,206.9,303.1,206.5,302.8,206.5z"/><path fill="#2C74A4" d="M303.7,207.2v-1.7h-30v1h1.2c0-1-0.2-0.5-1.2-0.5v0.5h1v-1h-0.4l0.6,0.1l0-0.1h-0.6l0.6,0.2l-0.4,0l0.3,0.1l0,0 l-0.4,0l0.3,0.1c0,0,0-0.1,0.1-0.3c0.1-0.5,0-1.6,0.2-4.3l-1.4-0.1v1.3h30v-1.3l-1.6,0.1c0.1,2.1,0,3.2,0.1,3.8c0,0.3,0,0.5,0,0.7 c0,0.1,0,0.1,0,0.1l0.1-0.1l-0.6,0v0l0.6-0.1l-0.2-0.1l0.8-0.2h-0.6l0,0.1l0.6-0.1h-1.1v1h2V206c-2,0-1.6-0.5-1.6,0.5h1.6V206V207.2 v1.2c0,0,0-0.7,0-1.6v-1c0-0.1,0.4-0.2,0.4-0.3c0-0.1,0.2-0.2,0.1-0.3c-0.1-0.4-0.1-1.6-0.3-4.3l0-1.3h-30.8l-0.1,1.3 c-0.1,2-0.2,3.2-0.3,3.7c0,0.3-0.1,0.5-0.1,0.6c0,0.1-0.5,0.1-0.5,0.2c0,0.1-0.5,0.2-0.5,0.3v1c0,0.9,1.6,0.8,2.5,0.8h29.5V207.2z"/><path fill="#3182C4" d="M414.8,200.5c0,5-3.1,6.9-6.9,6.9c-3.8,0-6.9-1.9-6.9-6.9H414.8z"/><path fill="#2C74A4" d="M414.7,200.5h-1c0,2-0.6,3.3-1.7,4.3c-1,1-2.5,1.8-4.1,1.8c-1.6,0-3-0.8-4.1-1.9c-1-1-1.7-2.3-1.7-4.3h-1.5v2 h14V200.5h-1H414.7v-1h-15v1.5c0,4.5,4,8.1,8.5,8.1c4.5,0,8.5-3.6,8.5-8.1v-1.5h-2V200.5z"/><path fill="#3182C4" d="M429.9,202.5c0,3-2.4,5.4-5.4,5.4s-5.4-2.4-5.4-5.4H429.9z"/><path fill="#2C74A4" d="M429.7,202.5h-0.9c0,1-0.5,2.2-1.2,3c-0.8,0.8-1.8,1.2-3,1.2c-1.2,0-2.2-0.5-3-1.3c-0.8-0.8-1.2-2-1.2-3h-1.7v1 h11V202.5h-0.9H429.7v-2h-12v2.1c0,3.6,3.4,6.5,7,6.5c3.6,0,7-2.9,7-6.5v-2.1h-2V202.5z"/><path fill="#3182C4" d="M291.4,216.5H287c-0.5,0-0.9-0.5-0.9-1c0-0.5,0.4-1,0.9-1h4.4c0.5,0,0.9,0.5,0.9,1 C292.3,216,291.9,216.5,291.4,216.5z"/><path fill="#2C74A4" d="M291.7,216.5v-1h-5l0,0h0.7c0,0,0.4-0.2-0.6-0.2v0.2h0.6h-0.6v0.4c1,0,0.6-0.4,0.6-0.4h-0.7l0,0h4.8l0,0h-0.4 c0,0,0.6,0.4,0.6,0.4v-0.4h-0.6h0.6v-0.2c0,0-0.5,0.2-0.6,0.2h0.6v-0.2V216.5v1.2c1,0,1.9-1,1.9-2.1c0-1.1-1-2.1-2.2-2.1H287 c-1.1,0-2,0.9-2,2c0,1.1,0.9,2,2,2h4.7V216.5z"/><path fill="#3182C4" d="M356.5,217.5h-4.4c-0.5,0-0.9-0.5-0.9-1c0-0.5,0.4-1,0.9-1h4.4c0.5,0,0.9,0.5,0.9,1 C357.3,217,357,217.5,356.5,217.5z"/><path fill="#2C74A4" d="M355.7,217.6v-1.1h-3.5l0,0h0.2c0,0,0.3,0,0.3,0v0h-0.3h0.3v0.5c0,0-0.3-0.5-0.3-0.5h-0.2l0,0h3.9l0,0h0.1 c0,0-0.5,0.5-0.5,0.5v-0.5h0.5h-0.5v0c0,0,0.5,0,0.5,0h-0.5v0V217.6v1.2c2,0,2.4-1,2.4-2.1c0-1.1-0.5-2.1-1.6-2.1h-4.4 c-1.1,0-2,0.9-2,2c0,1.1,0.9,2,2,2h3.6V217.6z"/><path fill="#3182C4" d="M419.4,217.5H415c-0.5,0-0.9-0.5-0.9-1c0-0.5,0.4-1,0.9-1h4.4c0.5,0,0.9,0.5,0.9,1 C420.2,217,419.9,217.5,419.4,217.5z"/><path fill="#2C74A4" d="M418.7,217.6v-1.1H415l0,0h0.2c0,0-0.6,0-0.6,0v0h0.6h-0.6v0.5c0,0,0.6-0.5,0.6-0.5H415l0,0h3.9l0,0h0.2 c0,0-0.4,0.5-0.4,0.5v-0.5h0.4h-0.4v0c0,0,0.4,0,0.4,0h-0.4v0V217.6v1.2c2,0,2.4-1,2.4-2.1c0-1.1-0.6-2.1-1.7-2.1H415 c-1.1,0-2,0.9-2,2c0,1.1,0.9,2,2,2h3.7V217.6z"/><path fill="#2C74A4" d="M414.7,152.5v28h20v-28H414.7z M432.7,177.5h-16v-22h16V177.5z"/><path fill="#2C74A4" d="M414.7,153.1L414.7,153.1v27.4h20v-28h-20l0,0l0,0v1h19v26h-19V153.1L414.7,153.1v0.7V153.1z M432.7,177.5 L432.7,177.5h-16v-22h15v22H432.7v0.8v-0.1l0,0v-23.7h-16v25h16V177.5L432.7,177.5z"/><path fill="#3182C4" d="M346.7 166.5H347.7V180.5H346.7z"/><path fill="#2C74A4" d="M347.7 180.5L347.7 179.2 347.7 179.2 347.7 167.6 347.7 167.6 347.7 166.5 346.7 166.5 346.7 180.5 347.7 180.5 347.7 179.5 347.7 180.5 348.7 180.5 348.7 165.5 344.7 165.5 344.7 181.5 348.7 181.5 348.7 180.5z"/><path fill="#3182C4" d="M338.2 199.2L329.7 207.5 335.6 207.5 344.2 199.1z"/><path fill="#2C74A4" d="M338.2 199.5L337.4 198.3 326.8 208.5 336.1 208.5 347 198 337.7 198.1 337.4 198.6 338.2 199.4 338.2 200.6 341.3 200.5 335.2 206.5 332.5 206.5 339 200.1 338.2 199.4 338.2 200.6z"/><path fill="#3182C4" d="M122.7 62.5H127.7V238.5H122.7z"/><path fill="#2C74A4" d="M122.7 238.5L122.7 240.5 127.7 240.5 127.7 60.5 121.7 60.5 121.7 240.5 122.7 240.5 122.7 238.5 122.7 238.5 122.7 63.5 125.7 63.5 125.7 237.5 122.7 237.5 122.7 238.5 123.7 238.5z"/><path fill="#3182C4" d="M5.7 100.5H142.7V102.5H5.7z"/><path fill="#2C74A4" d="M143.7 102.5L143.7 101.5 7.7 101.5 7.7 100.5 5.7 100.5 5.7 101.5 142.7 101.5 142.7 102.5 143.7 102.5 143.7 101.8 143.7 102.5 144.7 102.5 144.7 99.5 5.7 99.5 5.7 104.5 144.7 104.5 144.7 102.5z"/><path fill="#3182C4" d="M5.7 141.5H142.7V143.5H5.7z"/><path fill="#2C74A4" d="M143.7 143.5L143.7 142.5 7.7 142.5 7.7 141.5 5.7 141.5 5.7 142.5 142.7 142.5 142.7 143.5 143.7 143.5 143.7 143 143.7 143.5 144.7 143.5 144.7 141.5 5.7 141.5 5.7 144.5 144.7 144.5 144.7 143.5z"/><path fill="#3182C4" d="M5.7 188.5H142.7V190.5H5.7z"/><path fill="#2C74A4" d="M143.7 190.5L143.7 189.5 7.7 189.5 7.7 188.5 5.7 188.5 5.7 189.5 142.7 189.5 142.7 190.5 143.7 190.5 143.7 189.4 143.7 190.5 144.7 190.5 144.7 186.5 5.7 186.5 5.7 191.5 144.7 191.5 144.7 190.5z"/><path fill="#3182C4" d="M56.7,168.5v19h13v-19H56.7z M67.7,186.5h-10v-16h10V186.5z"/><path fill="#2C74A4" d="M56.7,168.5h-1v20h15v-20h-15l0,0H56.7v2h11v16h-10v-18H56.7v2.2V168.5z M67.7,186.5v-1h-8v-14h7v15H67.7v-1.2 V186.5h2v-18h-13v19h13v-1H67.7z"/><path fill="#3182C4" d="M57.7 170.5H67.7V186.5H57.7z"/><path fill="#2C74A4" d="M57.7 186.5L57.7 187.5 69.7 187.5 69.7 168.5 56.7 168.5 56.7 187.5 57.7 187.5 57.7 186.5 59.7 186.5 59.7 171.5 66.7 171.5 66.7 185.5 57.7 185.5 57.7 186.5 59.1 186.5z"/><path fill="#3182C4" d="M71.7,162.5v26h19v-26H71.7z M88.7,186.5h-15v-22h15V186.5z"/><path fill="#2C74A4" d="M71.7,162.5h-1v27h20v-28h-20v1H71.7v1h18v23h-17v-24H71.7v1.2V162.5z M88.7,186.5v-2h-14v-19h13v21H88.7v-1.4 V186.5h1v-23h-17v24h17v-1H88.7z"/><path fill="#3182C4" d="M73.7 164.5H88.7V186.5H73.7z"/><path fill="#2C74A4" d="M73.7 186.5L73.7 187.5 89.7 187.5 89.7 163.5 72.7 163.5 72.7 187.5 73.7 187.5 73.7 186.5 74.7 186.5 74.7 165.5 87.7 165.5 87.7 184.5 73.7 184.5 73.7 186.5 75.1 186.5z"/><path fill="#3182C4" d="M70.7,99.8c0,0.4-0.3,0.7-0.7,0.7h-4.6c-0.4,0-0.7-0.3-0.7-0.7V70.2c0-0.4,0.3-0.7,0.7-0.7H70 c0.4,0,0.7,0.3,0.7,0.7V99.8z"/><path fill="#2C74A4" d="M69.7,100.9v-1.4h-4.5l0,0h0.4c0,0-0.9,0.2-0.9,0.2v0l0,0v-29l0,0v0.2c0,0,0.9-0.4,0.9-0.4h-0.4l0,0H70l0,0 h-0.6c0,0,0.3,0.4,0.3,0.4v-0.4l0,0v29l0,0v0.2c0,0-0.3-0.2-0.3-0.2h0.3v0.2V100.9v1.2c1,0,2-0.8,2-1.9V70.5c0-1-0.8-2-1.8-2h-4.7 c-1,0-1.5,0.9-1.5,2v29.7c0,1,0.4,1.3,1.5,1.3h4.5V100.9z"/><path fill="#2C74A4" d="M73.7,100.9c0,0.3-0.3,0.6-0.6,0.6h-0.9c-0.3,0-0.6-0.3-0.6-0.6V69.1c0-0.3,0.3-0.6,0.6-0.6h0.9 c0.3,0,0.6,0.3,0.6,0.6V100.9z"/><path fill="#2C74A4" d="M118.9,99.8l-1.2,0.9c-0.2,0.1-0.4,0.1-0.5-0.1L98.9,74.4c-0.1-0.2-0.1-0.4,0.1-0.5l1.2-0.9 c0.2-0.1,0.4-0.1,0.5,0.1L119,99.3C119.1,99.4,119.1,99.6,118.9,99.8z"/><path fill="#3182C4" d="M81.7,100.8c0,0.4-0.3,0.7-0.7,0.7h-4.6c-0.4,0-0.7-0.3-0.7-0.7V77.2c0-0.4,0.3-0.7,0.7-0.7H81 c0.4,0,0.7,0.3,0.7,0.7V100.8z"/><path fill="#2C74A4" d="M80.7,100.9v-1.4h-3.9l0,0h0.7c0,0-0.8,0.2-0.8,0.2v-0.2h1v-23h-1v0.8c0,0,0.8,0.2,0.8-0.8h-0.8v1h4v-1h-0.1 c0,1,0.1,0.8,0.1,0.8v-0.8l0,0v23.2l0,0v0c0,0-0.1-0.2-0.1-0.2h0.1v0.2V100.9v1.2c1,0,2-0.8,2-1.9V76.9c0-1-0.7-2.4-1.7-2.4h-4 c-1,0-2.3,1.4-2.3,2.4v23.3c0,1,1.3,1.3,2.3,1.3h3.7V100.9z"/><path fill="#3182C4" d="M87.7,99.8c0,0.4-0.3,0.7-0.7,0.7h-2.6c-0.4,0-0.7-0.3-0.7-0.7V73.2c0-0.4,0.3-0.7,0.7-0.7H87 c0.4,0,0.7,0.3,0.7,0.7V99.8z"/><path fill="#2C74A4" d="M86.7,100.9v-1.4h-2.2l0,0h0c0,0,0.2,0.2,0.2,0.2v0l0,0V73.6l0,0V74c0,0-0.2-0.5-0.2-0.5h0l0,0h1.9l0,0H86 c0,0,0.7,0.5,0.7,0.5v-0.4l0,0v26.1l0,0v0c0,0-0.7-0.2-0.7-0.2h0.7v0.2V100.9v1.2c1,0,2-0.8,2-1.9V73.5c0-1-1.2-2-2.3-2H84 c-1,0-1.4,1-1.4,2v26.7c0,1,0.3,1.3,1.4,1.3h2.6V100.9z"/><path fill="#3182C4" d="M91.7,100.2c0,0.2-0.1,0.3-0.3,0.3H91c-0.2,0-0.3-0.1-0.3-0.3V74.8c0-0.2,0.1-0.3,0.3-0.3h0.4 c0.2,0,0.3,0.1,0.3,0.3V100.2z"/><path fill="#2C74A4" d="M90.7,100.9v-1.2l0,0v0.8h1.3c0-1-1.3-0.8-1.3-0.8v0.8h2v-25h-2V76c0,0,1.3-0.5,1.3-0.5h-1.3v1l0,0v-1h0.1 c0,0-0.1,0.5-0.1,0.5v-0.5l0,0v25.1l0,0v-0.9c0,0,0.1-0.2,0.1,0.8h-0.1v-0.8V100.9v1.2c2,0,3-0.7,3-1.5V75.1c0-0.8-1.2-1.6-2-1.6 h-0.6c-0.8,0-1.4,0.8-1.4,1.6v25.5c0,0.8,0.6,0.9,1.4,0.9h-0.4V100.9z"/><path fill="#3182C4" d="M98.7,99.8c0,0.4-0.3,0.7-0.7,0.7h-1.7c-0.4,0-0.7-0.3-0.7-0.7V73.2c0-0.4,0.3-0.7,0.7-0.7H98 c0.4,0,0.7,0.3,0.7,0.7V99.8z"/><path fill="#2C74A4" d="M98.7,100.9v-1.4h-2v1h0.5c0-1-0.5-0.8-0.5-0.8v0.9l0,0V73.6l0,0V74c0,0,0.5-0.5,0.5-0.5h-0.1l0,0h1l0,0h-0.6 c0,0,1.2,0.5,1.2,0.5v-0.5h-2v27h2v-0.8c0,0-1.2-0.2-1.2,0.8h1.2v-0.8V100.9v1.2c0,0,1-0.8,1-1.8V73.5c0-1-0.7-2-1.7-2h-1.3 c-1,0-1,0.9-1,2v26.8c0,1-0.1,1.3,1,1.3h2V100.9z"/><path fill="#3182C4" d="M29.7,199.5v39h40v-39H29.7z M52.5,207.5h-5.3c-1.6,0-2.9-0.9-2.9-2.5c0-1.6,1.3-2.5,2.9-2.5h5.3 c1.6,0,2.9,0.9,2.9,2.5C55.3,206.6,54,207.5,52.5,207.5z"/><path fill="#2C74A4" d="M29.7,199.5h-1v41h42v-43h-42v2H29.7L29.7,199.5h40v38h-38v-38H29.7v1.1V199.5z M52.7,207.8v-1.3h-5.5 c-0.5,0-0.9-0.1-1.2-0.4c-0.3-0.3-0.5-0.7-0.5-1.2c0-0.5,0.2-1.2,0.5-1.6c0.3-0.3,0.7-0.9,1.2-0.9h5.3c0.5,0,0.9,0.6,1.2,0.9 c0.3,0.3,0.5,0.9,0.5,1.4c0,0.5-0.1,1-0.4,1.3c-0.3,0.3-1.1,0.6-1.1,0.6V207.8v1.2c2,0,3.9-2,3.9-4.2c0-2.2-1.9-4.2-4.1-4.2h-5.3 c-2.2,0-4,1.8-4,4c0,2.2,1.8,4,4,4h5.5V207.8z"/><path fill="#3182C4" d="M73.7,199.5v39h40v-39H73.7z M96.3,207.5H91c-1.6,0-2.9-0.9-2.9-2.5c0-1.6,1.3-2.5,2.9-2.5h5.3 c1.6,0,2.9,0.9,2.9,2.5C99.2,206.6,97.9,207.5,96.3,207.5z"/><path fill="#2C74A4" d="M73.7,199.5h-1v41h42v-43h-42v2H73.7L73.7,199.5h39v38h-38v-38H73.7v1.1V199.5z M95.7,207.8v-1.3H91 c-0.5,0-0.9-0.1-1.2-0.4c-0.3-0.3-0.5-0.7-0.5-1.2c0-0.5,0.2-1.2,0.5-1.6c0.3-0.3,0.7-0.9,1.2-0.9h5.3c0.5,0,0.9,0.6,1.2,0.9 c0.3,0.3,0.5,0.9,0.5,1.4c0,0.5-0.5,1-0.8,1.3c-0.3,0.3-0.5,0.6-1.5,0.6V207.8v1.2c3,0,4.3-2,4.3-4.2c0-2.2-1.5-4.2-3.7-4.2H91 c-2.2,0-4,1.8-4,4c0,2.2,1.8,4,4,4h4.7V207.8z"/><path fill="#3182C4" d="M94.9,128c-3.8,0-6.8,0.3-6.8,0.7l2.9,13.3c0,0,1.2,0.6,4,0.6c3.3,0,4.4-0.6,4.4-0.6l2.4-13.3 C101.7,128.3,98.7,128,94.9,128z"/><path fill="#2C74A4" d="M95.7,128v-1.2c-2,0-4.1,0.1-5.4,0.2c-0.7,0.1-1.4,0.1-1.8,0.2c-0.2,0.1-0.5,0.1-0.7,0.2 c-0.1,0.1-0.3,0.1-0.5,0.3c-0.1,0.1-0.3,0.2-0.4,0.3c-0.1,0.2-0.3,0.4-0.3,0.6v0.1l3.1,14l0.5,0.3c0.2,0.1,1.6,0.8,4.5,0.8 c3.5,0,4.8-0.7,5-0.8l0.4-0.3l2.4-14v-0.1c0-0.2,0-0.4,0-0.6c-0.2-0.3-0.3-0.4-0.4-0.5c-0.2-0.2-0.4-0.2-0.6-0.3 c-0.3-0.1-0.3-0.2-0.7-0.2c-1.3-0.2-4.2-0.3-5.2-0.3V128v1.2c1,0,3.1,0.1,4.3,0.2c0.6,0.1,0.9,0.1,1.1,0.2c0.1,0,0,0,0,0l0,0l0,0 l0.2-0.6l-0.4,0.5c0.1,0.1,0.2,0.1,0.2,0.1l0.3-0.6l-0.4,0.5l0.7-0.8l-0.9,0.5c0.1,0.1,0.2,0.2,0.2,0.3l0.7-0.8l-0.9,0.4l0.9-0.6 h-1.1c0,0,0.1,0.4,0.2,0.6l0.9-0.6h-1.1h1.2l-1.1-0.1l-2.4,13.4l1.1,0.2l-0.6-1l0.4,0.7l-0.4-0.7l0,0l0.4,0.7l-0.4-0.7l0.1,0.2 l-0.1-0.2l0,0l0.1,0.2l-0.1-0.2c0,0-0.1,0-0.2,0.1c-0.4,0.1-1.5,0.4-3.7,0.4c-1.3,0-2.2-0.1-2.7-0.3c-0.3-0.1-0.5-0.1-0.6-0.2 c-0.1,0-0.1,0-0.1,0l0,0l-0.3,0.6l0.3-0.6l0,0l-0.3,0.6l0.3-0.6l-0.5,1l1.1-0.2l-2.9-13.4l-1.1,0.2h1.2h-1.1l1,0.5 c0.1-0.1,0.1-0.5,0.1-0.5h-1.1l1,0.6l-0.9-0.4l0.5,0.8c0.1,0,0.2-0.1,0.3-0.4l-0.9-0.4l0.5,0.8l-0.3-0.4l0.2,0.5c0,0,0,0,0.1,0 l-0.3-0.4l0.2,0.5c0,0,0.1,0,0.2-0.1c0.2,0,0.9-0.1,1.3-0.1c1.2-0.1,3.5-0.2,5.5-0.2V128z"/><ellipse fill="#3182C4" cx="94.9" cy="128.7" rx="6.4" ry=".6"/><path fill="#2C74A4" d="M101.2,128.5h1.2c0,0-0.1-0.3-0.1-0.5c-0.2-0.3-0.3-0.4-0.5-0.4c-0.2-0.2-0.4-0.2-0.6-0.2 c-0.3-0.1-0.7-0.1-1.1-0.2c-1.2-0.2-3.1-0.3-5.3-0.3c-1.8,0-3.4,0.1-4.6,0.2c-0.6,0.1-1.1,0.1-1.5,0.2c-0.2,0.1-0.4,0.1-0.6,0.2 c-0.1,0.1-0.2,0.1-0.4,0.3c-0.1,0.1-0.2,0.2-0.3,0.3c-0.1,0.1-0.1,0.4-0.1,0.6c0,0.2,0.1,0.4,0.1,0.6c0.2,0.3,0.3,0.4,0.5,0.5 c0.2,0.2,0.4,0.2,0.6,0.3c0.3,0.1,0.7,0.1,1.1,0.2c1.2,0.2,3.1,0.3,5.3,0.3c1.8,0,3.4-0.1,4.6-0.2c0.6-0.1,1.1-0.1,1.5-0.2 c0.2-0.1,0.4-0.1,0.6-0.2c0.1-0.1,0.2-0.1,0.4-0.3c0.1-0.1,0.2-0.3,0.3-0.4c0.1-0.1,0.1-0.7,0.1-0.7H101.2h-1.2H101.2l-1-0.5 c-0.1,0.1-0.1,0.5-0.1,0.5H101.2l-1-0.4l0.9,0.5l-0.5-0.8c-0.1,0-0.2,0.1-0.3,0.4l0.9,0.5l-0.5-0.8l0.3,0.5l-0.2-0.5 c0,0,0,0-0.1,0.1l0.3,0.5l-0.2-0.5l0,0c-0.1,0-0.3,0.1-0.7,0.1c-1,0.2-2.9,0.3-5.1,0.3c-1.7,0-3.3-0.1-4.4-0.2 c-0.5-0.1-1-0.1-1.2-0.2c-0.1,0-0.1,0-0.1,0l0,0h0l-0.3,0.6l0.4-0.5c-0.1-0.1-0.2-0.1-0.2-0.1l-0.3,0.6l0.4-0.5l-0.7,0.8l0.9-0.5 c-0.1-0.1-0.2-0.2-0.2-0.3l-0.7,0.8l0.9-0.6l-0.9,0.5h1.1c0,0-0.1-0.4-0.2-0.6l-0.9,0.6h1.1h-1.1l1,0.5c0.1-0.1,0.1-0.5,0.1-0.5 h-1.1l1,0.6l-0.9-0.4l0.5,0.9c0.1,0,0.2-0.1,0.3-0.4l-0.9-0.4l0.5,0.8l-0.3-0.4l0.2,0.5c0,0,0,0,0.1-0.1l-0.3-0.5l0.2,0.5l0,0 c0.1,0,0.3-0.1,0.7-0.1c1-0.2,2.9-0.3,5.1-0.3c1.7,0,3.3,0.1,4.4,0.2c0.5,0.1,1,0.1,1.2,0.2c0.1,0,0.1,0,0.1,0l0,0h0l0.3-0.6 l-0.4,0.5c0.1,0.1,0.2,0.1,0.2,0.1l0.3-0.6l-0.4,0.5l0.7-0.8l-0.9,0.5c0.1,0.1,0.2,0.2,0.2,0.3l0.7-0.8l-0.9,0.4L101.2,128.5h-1.2 c0,0,0.1,0.4,0.2,0.6L101.2,128.5h-1.2H101.2z"/><path fill="#3182C4" d="M94.9,129.3l-0.6,0c-0.5-2.5-1.1-10.1,1.5-13.7c3.2-4.6,10.4-7.3,10.3-6.3c-0.1,1-9.8,8.7-10.5,11.9 C95,124.4,94.9,129.3,94.9,129.3z"/><path fill="#2C74A4" d="M94.9,129.3l0-1.2l-0.6,0l0,1.2l1.1-0.2c-0.2-0.9-0.4-2.8-0.4-4.9c0-1.4,0.1-3,0.4-4.4c0.3-1.4,0.7-2.7,1.3-3.5 c1.2-1.8,3.3-3.3,5.1-4.4c0.9-0.5,1.8-1,2.5-1.2c0.4-0.1,0.6-0.2,0.9-0.3c0.2-0.1,0.4-0.1,0.4-0.1v-0.1l0.1-0.7h-0.1v0.7v0.1 l0.1-0.7l-0.4,0.6c0.2,0.1,0.3,0.1,0.4,0.1l0.1-0.7l-0.4,0.6l0.6-0.8l-0.9,0.5c0.1,0.2,0.2,0.3,0.3,0.4l0.6-0.8l-0.9,0.6l0.9-0.4h-1 c0,0,0,0.3,0.1,0.5l0.9-0.5h-1h0.9l-0.9-0.1l0,0.1h0.9l-0.9-0.2l1.2,0l-1.2-0.1l0.8,0.1l-0.7-0.4c0,0-0.1,0.1-0.1,0.3l0.8,0.1 l-0.7-0.4l0.2,0.1l-0.2-0.1l0,0l0.2,0.1l-0.2-0.1c0,0-0.1,0.1-0.1,0.2c-0.2,0.2-0.5,0.5-0.8,0.9c-1.3,1.3-3.5,3.3-5.4,5.3 c-1,1-1.9,2-2.6,2.9c-0.4,0.5-0.7,0.9-0.9,1.4c-0.3,0.5-0.5,0.9-0.6,1.4c-0.4,1.7-0.6,3.8-0.7,5.4c-0.1,1.7-0.1,2.9-0.1,2.9 L94.9,129.3l0-1.2L94.9,129.3l1.2,0c0,0,0-0.1,0-0.2c0-0.5,0.1-1.8,0.2-3.2c0.1-1.5,0.3-3.2,0.6-4.5c0-0.2,0.2-0.6,0.5-1 c0.5-0.8,1.4-1.8,2.4-2.9c1.5-1.6,3.3-3.3,4.7-4.7c0.7-0.7,1.4-1.3,1.8-1.8c0.2-0.3,0.4-0.5,0.6-0.7c0.1-0.1,0.2-0.2,0.2-0.4 c0.1-0.1,0.3-0.3,0.4-0.6l0.2,0v0l-0.2-0.1c0-0.2-0.2-0.5-0.3-0.7c-0.1-0.2-0.3-0.3-0.4-0.4c-0.2-0.1-0.4-0.2-0.5-0.2 c-0.2,0-0.3,0-0.4,0c-0.3,0-0.7,0.1-1,0.2c-0.6,0.2-1.4,0.4-2.2,0.8c-1.2,0.6-2.6,1.4-4,2.4c-1.4,1-2.7,2.2-3.7,3.6 c-0.9,1.3-1.4,2.8-1.7,4.4c-0.3,1.6-0.4,3.3-0.4,4.9c0,2.2,0.2,4.2,0.4,5.4l0.2,0.9l2.7,0l0-1.2L94.9,129.3z"/><path fill="#3182C4" d="M94.4,129.2l0.3,0c0.2-1.1,0.5-4.6-0.7-6.2c-1.5-2.1-4.9-3.3-4.9-2.9c0,0.5,4.6,5.2,4.9,6.6 C94.3,128.2,94.4,129.2,94.4,129.2z"/><path fill="#2C74A4" d="M94.4,129.2l0,1.2l0.3,0l0.9,0l0.2-0.9c0.1-0.6,0.2-1.5,0.2-2.6c0-0.7-0.1-1.5-0.2-2.3 c-0.2-0.8-0.4-1.6-0.9-2.3c-0.8-1.1-1.9-1.9-3-2.5c-0.5-0.3-1-0.5-1.4-0.7c-0.2-0.1-0.4-0.1-0.6-0.2c-0.2,0-0.4-0.1-0.6-0.1 c-0.2,0-0.3,0-0.6,0.1c-0.1,0.1-0.3,0.2-0.5,0.4c-0.1,0.2-0.2,0.5-0.2,0.7c0,0.1,0,0.1,0,0.1l1.2-0.1l-1.2,0.1 c0,0.2,0.1,0.3,0.1,0.4c0.1,0.2,0.1,0.3,0.2,0.4c0.1,0.2,0.3,0.4,0.5,0.6c0.6,0.8,1.7,1.9,2.6,3.1c0.4,0.6,0.9,1.1,1.2,1.5 c0.1,0.2,0.3,0.4,0.4,0.6c0,0.1,0.1,0.1,0.1,0.2l0,0l0,0l0.5,0l0.3,0v0l-0.3,0l-0.3,0c0.2,0.7,0.1,1.3,0.2,1.7c0,0.2,0,0.4,0,0.5 c0,0.1,0.2,0.1,0.2,0.1l0.2,0v0l0.3,0l-0.3,0v0l0.1,0l-0.4,0l0,1.1l1.1,0L94.4,129.2l1.2-0.1c0,0-0.1-1.1-0.4-2.7 c-0.1-0.4-0.3-0.7-0.4-1c-0.3-0.6-0.8-1.2-1.3-1.8c-0.7-0.9-1.6-1.9-2.3-2.7c-0.3-0.4-0.6-0.7-0.8-1c-0.1-0.1-0.2-0.2-0.2-0.3l0,0 l-0.4,0.2l0.4-0.2l0,0l-0.4,0.2l0.4-0.2l-0.9,0.4l1-0.1c0-0.2-0.1-0.3-0.1-0.3l-0.9,0.4l1.2-0.1l0.2,0v0l-1.5-0.5h1.1 c0,0,0-0.1,0-0.1l-1.1,0.1h1.1h-1.1l0.9,0.6c0.1-0.2,0.2-0.6,0.2-0.6h-1.1l0.9,0.9l-0.9-0.5l0.6,1c0.1-0.1,0.2-0.1,0.3-0.3l-0.9-0.6 l0.6,0.9l-0.5-0.8l0.2,1c0.1,0,0.2,0,0.3-0.1l-0.5-0.8l0.4,1l0.1-0.7v0.8c0,0,0.1,0,0.1,0l-0.1-0.7v0.8v-0.4l-0.5-0.4h0.5v0.4 l-0.5-0.4h0c0.1,0,0.3,0.4,0.6,0.6c0.5,0.2,1.1,0.7,1.7,1.1c0.6,0.4,1.1,1,1.5,1.4c0.2,0.3,0.4,0.8,0.5,1.4c0.1,0.6,0.2,1.3,0.2,1.9 c0,0.9-0.1,1.7-0.2,2.1l1.1,0.2l0-1.2l-0.3,0L94.4,129.2l1.2-0.1L94.4,129.2z"/><path fill="#3182C4" d="M94.3,122l0.3,0.1c0.8-1.2,2.6-5.2,1.9-7.7c-0.9-3.1-4.4-6.1-4.5-5.5c-0.1,0.6,3.2,8.1,3,10 C94.7,120.7,94.3,122,94.3,122z"/><path fill="#2C74A4" d="M94.3,122l-0.4,1.1l0.3,0.1l0.9,0.3l0.5-0.8c0.2-0.3,0.4-0.7,0.6-1.2c0.4-0.7,0.7-1.7,1-2.7 c0.3-1,0.5-2.1,0.5-3.1c0-0.5-0.1-1.1-0.2-1.6c-0.5-1.7-1.5-3.2-2.6-4.3c-0.5-0.6-1-1-1.4-1.4c-0.2-0.2-0.4-0.3-0.7-0.4 c-0.1-0.1-0.2-0.1-0.4-0.2c-0.1,0-0.3-0.1-0.5-0.1c-0.2,0-0.4,0-0.7,0.2c-0.1,0.1-0.3,0.2-0.3,0.3c-0.1,0.1-0.1,0.3-0.2,0.4l0,0 c0,0.1,0,0.2,0,0.3c0,0.2,0,0.3,0.1,0.5c0.1,0.3,0.1,0.5,0.3,0.8c0.4,1.1,1.1,2.9,1.6,4.6c0.3,0.8,0.6,1.7,0.7,2.4 c0.1,0.3,0.2,0.7,0.2,0.9c0,0.3,0,0.5,0,0.6l0,0.1v0c0,0.9-0.2,1.6-0.3,2.1c-0.1,0.3-0.1,0.5-0.1,0.6c0,0.1-0.3,0.1-0.3,0.1l-0.2,0 v0l0.4,0l0.1-0.1h0l0.1,0.1l-0.1,0l-0.3,1.1l1,0.4L94.3,122l0.9,0.3c0,0,0.5-1.4,0.5-3.3v0c0-0.1,0.2-0.2,0.2-0.3 c0-0.4,0-0.8-0.1-1.2c-0.2-0.8-0.4-1.6-0.7-2.5c-0.4-1.4-1-2.8-1.4-4c-0.2-0.6-0.4-1.1-0.5-1.5c-0.1-0.2,0.2-0.3,0.2-0.5l0.3-0.1v0 l-1.1,0.6h0.6c0-1,0-0.1,0-0.1l-0.5,0.1h0.6h-1l1,0.2c0-0.1,0-0.2,0-0.2h-1l1.6-0.3v0l-0.3,0l-1.2-0.3l0.8,0.6 c0.1-0.1,0.1-0.2,0.1-0.3l-1.1-0.3l0.9,0.6l-0.9-0.6l0.4,1c0.2-0.1,0.4-0.2,0.5-0.4l-0.9-0.6l0.8,1l-0.1-0.9v1c0,0,0.2,0,0.4-0.1 l-0.4-0.9v1v-0.8l-0.3,0.7c0,0,0.3,0,0.3,0v-0.8l-0.6,0.7l-0.1-0.2l-0.2,0.2l0,0l0.1-0.5h-0.1h0c0,0,0.1,0.3,0.2,0.4 c0.2,0.2,0.5,0.5,0.8,0.8c0.5,0.5,1,1.2,1.5,1.8c0.5,0.7,0.8,1.5,1,2.2c0.1,0.3,0.1,0.6,0.1,1c0,1-0.3,2.2-0.7,3.3 c-0.2,0.5-0.4,1.1-0.6,1.5c-0.2,0.4-0.4,0.8-0.5,1l1,0.6L95,121l-0.3-0.1L94.3,122l1.1,0.3L94.3,122z"/><path fill="#3182C4" d="M95.8,118.4l0.3,0.2c1-0.9,3.8-4,3.9-6.4c0.1-3.1-2.2-6.7-2.5-6.3c-0.3,0.5,0.6,8.3-0.2,9.9 C96.5,117.4,95.8,118.4,95.8,118.4z"/><path fill="#2C74A4" d="M95.8,118.4l-0.7,0.9l0.3,0.2l0.8,0.6l0.7-0.6c0.3-0.3,0.7-0.7,1.1-1.1c0.7-0.7,1.2-1.7,1.8-2.7 c0.6-1,0.9-2.2,0.9-3.5v0c0-0.1,0.2-0.1,0.2-0.2c0-1.7-0.5-3.4-1.1-4.7c-0.3-0.6-0.6-1.2-0.9-1.6c-0.2-0.2-0.3-0.4-0.5-0.6 c-0.1-0.1-0.2-0.2-0.3-0.3c-0.1,0-0.2-0.1-0.3-0.1c-0.1,0-0.3-0.1-0.4-0.1c-0.2,0-0.4,0-0.6,0.2c-0.2,0.1-0.4,0.3-0.4,0.4l1,0.6 l-1-0.6c-0.1,0.1-0.1,0.2-0.1,0.3c0,0.1-0.1,0.2-0.1,0.3c0,0.2,0,0.5,0,0.7c0,0.7,0.1,1.7,0.1,2.8c0,1.1,0.1,2.3,0.1,3.4 c0,0.7,0,1.2-0.1,1.7c0,0.2,0,0.4-0.1,0.6c0,0.1-0.1,0.2-0.1,0.2c-0.4,0.8-0.7,1.4-0.9,1.8c-0.1,0.2-0.2,0.4-0.3,0.5 c0,0.1-0.1,0.1-0.1,0.1l0,0l0,0l0.1,0.1l-0.1-0.1l0,0l0.1,0.1l-0.1-0.1l-0.6,0.9l0.9,0.7L95.8,118.4l1,0.7c0,0,0.8-1.1,1.5-2.8 c0.1-0.3,0.2-0.5,0.2-0.8c0.1-0.4,0.1-0.8,0.1-1.3c0-0.5,0-1,0-1.5c0-1.1,0-2.4-0.1-3.5c0-1.1-0.1-2.1-0.1-2.7 c0-0.2,0.1-0.3,0.1-0.4l0.1,0v0l-0.6-0.1l0.4,0.1l0-0.1l-0.5-0.1l0.5,0.1l-0.9-0.3l0.8,0.5c0.1-0.1,0.1-0.2,0.1-0.2l-0.9-0.3 l0.8,0.5l0,0l0,0l-0.9-0.6l0.5,0.9c0.2-0.1,0.3-0.3,0.4-0.4l-0.9-0.6l0.2,0.9l-0.9-0.9v1.1c2,0,0.4,0,0.5-0.1l-0.5-0.9v1.1v-1 l-0.3,1c0.1,0,0.3,0.1,0.3,0.1v-1l0,1l0.4-0.7l-0.4,0.6c0,0,0.1,0.1,0.3,0.1l0.3-0.7l-0.5,0.6l0.2-0.2l-0.2,0.2l0,0l0.2-0.2 l-0.2,0.2l0,0l0,0h0l0,0l0,0c0,0,0.1,0.1,0.2,0.2c0.1,0.2,0.3,0.5,0.5,0.9c0.3,0.6,0.6,1.2,0.8,2c0.2,0.7,0.3,1.5,0.3,2.2l0,0.1v0 c0,0.4-0.1,0.9-0.4,1.5c-0.4,0.8-1,1.7-1.6,2.5c-0.6,0.7-1.2,1.4-1.5,1.6l0.8,0.9l0.7-0.9l-0.3-0.2L95.8,118.4l1,0.7L95.8,118.4z"/><path fill="#3182C4" d="M94.4,124.5h0.3c0.2-1,0.5-4.3-0.7-5.9c-1.5-2.1-4.9-3.2-4.9-2.7c0,0.5,4.6,5,4.9,6.4 C94.3,123.7,94.4,124.5,94.4,124.5z"/><path fill="#2C74A4" d="M94.4,124.7l0,0.8h0.3l1,0.4l0.2-0.7c0.1-0.6,0.2-1.4,0.2-2.5c0-0.7-0.1-1.5-0.2-2.3c-0.2-0.8-0.4-1.5-0.9-2.2 c-0.8-1.1-1.9-1.9-3-2.5c-0.5-0.3-1-0.5-1.4-0.7c-0.2-0.1-0.4-0.1-0.6-0.2c-0.2,0-0.4-0.1-0.6-0.1c-0.2,0-0.3,0-0.6,0.1 c-0.1,0.1-0.3,0.2-0.5,0.4c-0.1,0.2-0.2,0.5-0.2,0.7c0,0.1,0,0.1,0,0.2l1.2-0.2l-1.2,0.1c0,0.2,0.1,0.3,0.1,0.4 c0.1,0.2,0.1,0.3,0.2,0.4c0.1,0.2,0.3,0.4,0.5,0.6c0.6,0.8,1.7,2,2.6,3.1c0.4,0.6,0.9,1.1,1.2,1.5c0.1,0.2,0.3,0.4,0.4,0.6 c0,0.1,0.1,0.1,0.1,0.2l0,0l0,0l0.5,0l0.3,0v0l-0.3,0l-0.3,0c0.2,0.7,0.1,1.3,0.2,1.7c0,0.2,0,0.4,0,0.5c0,0.1,0.2,0.1,0.2,0.1 l0.2,0v0l0.4,0l-0.4,0v0l0.1,0l-0.5,0l0,1.1l1.1,0l0-1.2l1.2-0.1c0,0-0.1-1.1-0.4-2.7c-0.1-0.4-0.3-0.7-0.4-1 c-0.3-0.6-0.8-1.2-1.3-1.8c-0.7-0.9-1.6-1.9-2.3-2.7c-0.3-0.4-0.6-0.7-0.8-1c-0.1-0.1-0.2-0.2-0.2-0.3l0,0l-0.4,0.2l0.4-0.2l0,0 l-0.4,0.2l0.4-0.2l-0.9,0.4l1-0.1c0-0.2-0.1-0.3-0.1-0.3l-0.9,0.4l1-0.1l0,0l0-0.3l-1.1-0.1h1.1l0-0.2l-1.1,0.2h1.1h-1.1l0.9,0.6 c0.1-0.2,0.2-0.6,0.2-0.6h-1.1l0.9,0.9l-0.9-0.5l0.6,1c0.1-0.1,0.2-0.1,0.3-0.3l-0.9-0.6l0.6,0.9l-0.5-0.8l0.2,1 c0.1,0,0.2,0,0.3-0.1l-0.5-0.8l0.4,1l0.1-0.7v0.8c0,0,0.1,0,0.1,0l-0.1-0.7v0.8v-0.4l-0.5-0.2h0.5v0.2l-0.5-0.2h0 c0.1,0,0.3,0.4,0.6,0.5c0.5,0.2,1.1,0.6,1.7,1c0.6,0.4,1.1,0.9,1.5,1.4c0.2,0.3,0.4,0.8,0.5,1.4c0.1,0.6,0.2,1.3,0.2,1.9 c0,0.9-0.1,1.7-0.2,2.1l1.1,0l0-1.4h-0.3l0,1.4l1.2-0.2L94.4,124.7z"/><path fill="#3182C4" d="M95.4,229.8c0,0.2-0.2,0.4-0.4,0.4c-0.2,0-0.4-0.2-0.4-0.4s0.2-0.4,0.4-0.4C95.2,229.4,95.4,229.6,95.4,229.8"/><path fill="#3182C4" d="M103,229.8c0,0.2-0.2,0.4-0.4,0.4c-0.2,0-0.4-0.2-0.4-0.4s0.2-0.4,0.4-0.4C102.9,229.4,103,229.6,103,229.8"/><path fill="#3182C4" d="M104.1,231.7c0.1-0.1,0.3-0.2,0.5-0.1c1,0.3,4.6,1.5,5.6,2.7c1.2,1.4-0.7,2.4-1.8,1.5c-0.3-0.2-2.9-1.9-4.3-2.7 c-0.4-0.3-0.5-0.8-0.2-1.2L104.1,231.7z"/><linearGradient id="SVGID_1_" gradientUnits="userSpaceOnUse" x1="-117.19" y1="-241.247" x2="-116.983" y2="-241.247" gradientTransform="rotate(9.39 -40257.898 16724.574) scale(25.695)"><stop offset="0"/><stop offset="1" stop-color="#484848"/></linearGradient><path fill="url(#SVGID_1_)" d="M232.8,189.9c-1.1-0.5-3.2-1.5-2.6-5c0.6-3.5,2.4-3.9,3.8-1.9C235.4,185,235.2,190.9,232.8,189.9z"/><linearGradient id="SVGID_2_" gradientUnits="userSpaceOnUse" x1="-172.509" y1="-223.702" x2="-172.302" y2="-223.702" gradientTransform="scale(51.1793) rotate(120.79 -21.354 164.068)"><stop offset="0" stop-color="#ffdfb2"/><stop offset="1" stop-color="#fbbb6c"/></linearGradient><path fill="url(#SVGID_2_)" d="M247.3,191.7c-4.6-2.4-11-5.3-13.4-8.8c-0.8,1-1.4,5-1.1,6.9c2.8,1,10.4,7.1,13.3,9c-0.7,4.5,4.6,8.1,5.1,5 c0.7-4.1,1.3-5.6,1.2-7.2C252.3,195,249.9,193.1,247.3,191.7z"/><linearGradient id="SVGID_3_" gradientUnits="userSpaceOnUse" x1="-117.189" y1="-242.18" x2="-116.982" y2="-242.18" gradientTransform="rotate(9.39 -40441.355 16709.17) scale(25.6945)"><stop offset="0"/><stop offset="1" stop-color="#484848"/></linearGradient><path fill="url(#SVGID_3_)" d="M231.8,196c-1.1-0.4-3.2-1.5-2.6-5c0.6-3.5,2.4-3.6,3.8-1.9C234.5,191,233.8,196.7,231.8,196z"/><linearGradient id="SVGID_4_" gradientUnits="userSpaceOnUse" x1="-177.981" y1="-208.468" x2="-177.774" y2="-208.468" gradientTransform="scale(30.4927) rotate(121.08 -27.97 159.975)"><stop offset="0" stop-color="#ffdfb2"/><stop offset="1" stop-color="#fbbb6c"/></linearGradient><path fill="url(#SVGID_4_)" d="M246.3,197.8c-4.6-2.4-11-5.3-13.4-8.8c-0.8,1-1.4,5-1.1,6.9c2.8,1,10.4,7.1,13.3,9c0.4,1.9,5.4,3.2,5.9,0.1 c0.1-0.5,0.3-1.6,0.4-2.3C251.7,201.1,248.9,199.2,246.3,197.8z"/><linearGradient id="SVGID_5_" gradientUnits="userSpaceOnUse" x1="-166.387" y1="-242.683" x2="-166.179" y2="-242.683" gradientTransform="scale(268.816) rotate(122.483 -16.14 167.575)"><stop offset="0" stop-color="#7e3d1b"/><stop offset="1" stop-color="#3f160a"/></linearGradient><path fill="url(#SVGID_5_)" d="M321.8,131.9c-16.7-9.7-35-2.9-45.1,14.3c-5.7,9.7-6.8,16.6-6,22.4c1.3,9.2,32.8,29.4,43.7,25 C325.5,189.1,353.4,150.2,321.8,131.9z"/><path fill="#8A8A8A" d="M292.1,201.3c-1.7-0.4-3,0.5-3.5,1.9c-0.2,0.6-3.4,10-3.4,10c-0.3,0.9-1.4,1.6-2.3,1.4l-4.6-0.9l-0.5,1.6 l4.5,0.9l5.1,1.1c1.8,0.4,3.8-0.8,4.4-2.6l3.4-10C295.7,203.3,294.2,201.7,292.1,201.3z"/><linearGradient id="SVGID_6_" gradientUnits="userSpaceOnUse" x1="-165.578" y1="-253.327" x2="-165.371" y2="-253.327" gradientTransform="matrix(49.059 -145.3895 -149.1408 -31.0277 -29384.38 -31686.547)"><stop offset="0"/><stop offset="1" stop-color="#484848"/></linearGradient><path fill="url(#SVGID_6_)" d="M291.8,214.6c0,0,3.1-9.3,3.4-10c0.2-0.7,0.3-2.6-3.2-3.3c1.4,0.5,2.1,1.5,1.6,3c-0.2,0.6-3.4,10-3.4,10 c-0.3,0.9-1.4,1.6-2.3,1.4l-9.7-2l-0.5,1.6l9.7,2C289.2,217.6,291.2,216.4,291.8,214.6z"/><path fill="#B3B1B2" d="M300.8,183.8c-10.8-2.4-18.8,1.9-26.6,18.1c-2.3,4.7,3,7,13.4,9.1l0,0l0,0c10.4,2.2,15,2,17.3-2.8 C313.2,191,311.8,185.9,300.8,183.8z"/><linearGradient id="SVGID_7_" gradientUnits="userSpaceOnUse" x1="-165.108" y1="-226.964" x2="-164.9" y2="-226.964" gradientTransform="scale(54.4776) rotate(101.752 10.83 184.565)"><stop offset="0" stop-color="#6bc9f2"/><stop offset="1" stop-color="#327ec0"/></linearGradient><path fill="url(#SVGID_7_)" d="M296.7,213.5c-0.2,0.9-1,1.4-1.9,1.2l-32.6-6.8c-0.9-0.2-1.4-1-1.2-1.9l0.5-2.2c0.2-0.9,1-1.4,1.9-1.2 l32.6,6.8c0.9,0.2,1.4,1,1.2,1.9L296.7,213.5z"/><linearGradient id="SVGID_8_" gradientUnits="userSpaceOnUse" x1="-165.104" y1="-280.908" x2="-164.897" y2="-280.908" gradientTransform="scale(30.1496) rotate(-78.248 -245.9 36.99)"><stop offset="0" stop-color="#515050"/><stop offset="1" stop-color="#99999a"/></linearGradient><path fill="url(#SVGID_8_)" d="M282.1,224c-0.1,0.7-0.3,2,0,2s0.5,0.1,0.7,0.1c0.4,0.1,1-0.7,1.2-1.8c0.2-1.1,0-2-0.4-2.1 c-0.2,0-0.4-0.1-0.7-0.1C282.7,222.1,282.2,223.4,282.1,224z"/><linearGradient id="SVGID_9_" gradientUnits="userSpaceOnUse" x1="-165.395" y1="-280.999" x2="-165.188" y2="-280.999" gradientTransform="scale(30.1496) rotate(-78.248 -246.154 36.82)"><stop offset="0" stop-color="#515050"/><stop offset="1" stop-color="#99999a"/></linearGradient><path fill="url(#SVGID_9_)" d="M281.4,223.8c-0.1,0.7-0.3,2,0,2s0.5,0.1,0.7,0.1c0.4,0.1,1-0.7,1.2-1.8c0.2-1.1,0-2-0.4-2.1 c-0.2,0-0.4-0.1-0.7-0.1C282,221.9,281.5,223.3,281.4,223.8z"/><linearGradient id="SVGID_10_" gradientUnits="userSpaceOnUse" x1="-165.104" y1="-281.09" x2="-164.897" y2="-281.09" gradientTransform="scale(30.1496) rotate(-78.248 -246.04 37.105)"><stop offset="0" stop-color="#515050"/><stop offset="1" stop-color="#99999a"/></linearGradient><path fill="url(#SVGID_10_)" d="M280.7,223.7c-0.1,0.7-0.3,2,0,2c0.3,0.1,0.5,0.1,0.7,0.1c0.4,0.1,1-0.7,1.2-1.8c0.2-1.1,0-2-0.4-2.1 c-0.2,0-0.4-0.1-0.7-0.1C281.3,221.8,280.8,223.1,280.7,223.7z"/><linearGradient id="SVGID_11_" gradientUnits="userSpaceOnUse" x1="-166.535" y1="-282.584" x2="-166.328" y2="-282.584" gradientTransform="scale(28.9575) rotate(101.752 -196.412 -65.807)"><stop offset="0" stop-color="#515050"/><stop offset="1" stop-color="#99999a"/></linearGradient><path fill="url(#SVGID_11_)" d="M280.4,223.6c-0.2,1.1,0,2,0.4,2.1c0.4,0.1,1-0.7,1.2-1.8c0.2-1.1,0-2-0.4-2.1S280.6,222.5,280.4,223.6z"/><linearGradient id="SVGID_12_" gradientUnits="userSpaceOnUse" x1="-165.104" y1="-282.584" x2="-164.897" y2="-282.584" gradientTransform="scale(30.1496) rotate(-78.248 -247.2 38.047)"><stop offset="0" stop-color="#515050"/><stop offset="1" stop-color="#99999a"/></linearGradient><path fill="url(#SVGID_12_)" d="M269.2,221.3c-0.1,0.7-0.3,2,0,2c0.3,0.1,0.5,0.1,0.7,0.1c0.4,0.1,1-0.7,1.2-1.8c0.2-1.1,0-2-0.4-2.1 c-0.2,0-0.4-0.1-0.7-0.1C269.8,219.4,269.3,220.7,269.2,221.3z"/><linearGradient id="SVGID_13_" gradientUnits="userSpaceOnUse" x1="-165.395" y1="-282.675" x2="-165.188" y2="-282.675" gradientTransform="scale(30.1496) rotate(-78.248 -247.454 37.878)"><stop offset="0" stop-color="#515050"/><stop offset="1" stop-color="#99999a"/></linearGradient><path fill="url(#SVGID_13_)" d="M268.5,221.1c-0.1,0.7-0.3,2,0,2c0.3,0.1,0.5,0.1,0.7,0.1c0.4,0.1,1-0.7,1.2-1.8c0.2-1.1,0-2-0.4-2.1 c-0.2,0-0.4-0.1-0.7-0.1C269,219.2,268.6,220.6,268.5,221.1z"/><linearGradient id="SVGID_14_" gradientUnits="userSpaceOnUse" x1="-165.104" y1="-282.766" x2="-164.897" y2="-282.766" gradientTransform="scale(30.1496) rotate(-78.248 -247.34 38.162)"><stop offset="0" stop-color="#515050"/><stop offset="1" stop-color="#99999a"/></linearGradient><path fill="url(#SVGID_14_)" d="M267.7,221c-0.1,0.7-0.3,2,0,2c0.3,0.1,0.5,0.1,0.7,0.1c0.4,0.1,1-0.7,1.2-1.8c0.2-1.1,0.1-2-0.4-2.1 c-0.2,0-0.4-0.1-0.7-0.1S267.9,220.4,267.7,221z"/><linearGradient id="SVGID_15_" gradientUnits="userSpaceOnUse" x1="-166.535" y1="-284.329" x2="-166.328" y2="-284.329" gradientTransform="scale(28.9575) rotate(101.752 -197.307 -66.908)"><stop offset="0" stop-color="#515050"/><stop offset="1" stop-color="#99999a"/></linearGradient><path fill="url(#SVGID_15_)" d="M267.4,220.9c-0.2,1.1,0,2,0.4,2.1c0.4,0.1,1-0.7,1.2-1.8c0.2-1.1,0-2-0.4-2.1 C268.2,219,267.6,219.8,267.4,220.9z"/><linearGradient id="SVGID_16_" gradientUnits="userSpaceOnUse" x1="-166.373" y1="-277.565" x2="-166.166" y2="-277.565" gradientTransform="scale(33.904) rotate(101.752 -194.558 -64.54)"><stop offset="0" stop-color="#515050"/><stop offset="1" stop-color="#99999a"/></linearGradient><path fill="url(#SVGID_16_)" d="M282.4 222L276.1 222.3 276.9 218.4 282.7 220.8z"/><linearGradient id="SVGID_17_" gradientUnits="userSpaceOnUse" x1="-166.2" y1="-232.409" x2="-165.993" y2="-232.409" gradientTransform="scale(75.7298) rotate(101.752 12.093 186.702)"><stop offset="0"/><stop offset="1" stop-color="#484848"/></linearGradient><path fill="url(#SVGID_17_)" d="M278.8 220L273.5 218.9 275.2 210.7 280.5 211.8z"/><linearGradient id="SVGID_18_" gradientUnits="userSpaceOnUse" x1="-165.492" y1="-219.339" x2="-165.284" y2="-219.339" gradientTransform="scale(39.288) rotate(101.752 7.836 182.51)"><stop offset="0"/><stop offset="1" stop-color="#484848"/></linearGradient><path fill="url(#SVGID_18_)" d="M280.5 216.3L273.4 214.8 274.3 210.5 281.4 212z"/><linearGradient id="SVGID_19_" gradientUnits="userSpaceOnUse" x1="-167.525" y1="-208.784" x2="-167.317" y2="-208.784" gradientTransform="scale(28.956) rotate(101.752 2.622 180.172)"><stop offset="0"/><stop offset="1" stop-color="#484848"/></linearGradient><path fill="url(#SVGID_19_)" d="M262.4 218.8L276.1 221.7 276.8 218.3 262.6 217.7z"/><linearGradient id="SVGID_20_" gradientUnits="userSpaceOnUse" x1="-167.525" y1="-207.855" x2="-167.317" y2="-207.855" gradientTransform="scale(28.9542) rotate(101.752 2.147 179.587)"><stop offset="0"/><stop offset="1" stop-color="#484848"/></linearGradient><circle fill="url(#SVGID_20_)" cx="262" cy="220.8" r="2"/><linearGradient id="SVGID_21_" gradientUnits="userSpaceOnUse" x1="-167.525" y1="-282.365" x2="-167.317" y2="-282.365" gradientTransform="rotate(101.752 -5702.134 -1886.797) scale(28.956)"><stop offset="0"/><stop offset="1" stop-color="#484848"/></linearGradient><path fill="url(#SVGID_21_)" d="M289.9 224.6L276.1 221.7 276.8 218.3 290.1 223.4z"/><linearGradient id="SVGID_22_" gradientUnits="userSpaceOnUse" x1="-167.525" y1="-281.442" x2="-167.317" y2="-281.442" gradientTransform="rotate(101.752 -5688.036 -1869.775) scale(28.9542)"><stop offset="0"/><stop offset="1" stop-color="#484848"/></linearGradient><circle fill="url(#SVGID_22_)" cx="289.4" cy="226.5" r="2"/><linearGradient id="SVGID_23_" gradientUnits="userSpaceOnUse" x1="-168.857" y1="-142.183" x2="-168.649" y2="-142.183" gradientTransform="scale(10.271) rotate(101.752 -22.12 161.503)"><stop offset="0"/><stop offset="1" stop-color="#484848"/></linearGradient><path fill="url(#SVGID_23_)" d="M273.9 221.9L275 222.2 275.2 221 274.1 220.7z"/><linearGradient id="SVGID_24_" gradientUnits="userSpaceOnUse" x1="-166.383" y1="-215.026" x2="-166.175" y2="-215.026" gradientTransform="scale(33.903) rotate(101.752 5.722 181.706)"><stop offset="0"/><stop offset="1" stop-color="#484848"/></linearGradient><path fill="url(#SVGID_24_)" d="M275 222.2L276.1 222.4 276.9 218.5 275.2 221z"/><linearGradient id="SVGID_25_" gradientUnits="userSpaceOnUse" x1="-166.333" y1="-201.255" x2="-166.125" y2="-201.255" gradientTransform="scale(23.632) rotate(101.752 .783 177.618)"><stop offset="0"/><stop offset="1" stop-color="#484848"/></linearGradient><path fill="url(#SVGID_25_)" d="M274.1 220.7L275.2 221 276.9 218.5 275.8 218.2z"/><linearGradient id="SVGID_26_" gradientUnits="userSpaceOnUse" x1="-164.508" y1="-287.503" x2="-164.3" y2="-287.503" gradientTransform="scale(26.2443) rotate(-78.248 -248.45 40.62)"><stop offset="0"/><stop offset="1" stop-color="#484848"/></linearGradient><path fill="url(#SVGID_26_)" d="M273.9,224c-0.1,0.6-0.4,1.9-0.8,1.9c-0.4-0.1-0.9-0.2-1.1-0.2c-0.3-0.1-0.4-1-0.2-2.1c0.2-1.1,0.7-1.9,1-1.8 c0.2,0,0.8,0.2,1.1,0.2C274.2,222,273.9,223.5,273.9,224z"/><linearGradient id="SVGID_27_" gradientUnits="userSpaceOnUse" x1="-165.143" y1="-274.786" x2="-164.936" y2="-274.786" gradientTransform="scale(37.8937) rotate(-78.248 -244.183 34.46)"><stop offset="0"/><stop offset="1" stop-color="#484848"/></linearGradient><path fill="url(#SVGID_27_)" d="M274.9,224.2c-0.1,0.6-0.4,1.9-0.8,1.9c-0.4-0.1-0.9-0.2-1.1-0.2c-0.3-0.1-0.4-1-0.2-2.1 c0.2-1.1,0.7-1.9,1-1.8c0.2,0,0.8,0.2,1.1,0.2C275.3,222.2,275,223.8,274.9,224.2z"/><linearGradient id="SVGID_28_" gradientUnits="userSpaceOnUse" x1="-164.508" y1="-287.181" x2="-164.3" y2="-287.181" gradientTransform="scale(26.2443) rotate(-78.248 -248.2 40.418)"><stop offset="0"/><stop offset="1" stop-color="#484848"/></linearGradient><path fill="url(#SVGID_28_)" d="M276,224.4c-0.1,0.6-0.4,1.9-0.8,1.9c-0.4-0.1-0.9-0.2-1.1-0.2c-0.3-0.1-0.4-1-0.2-2.1c0.2-1.1,0.7-1.9,1-1.8 c0.2,0,0.8,0.2,1.1,0.2C276.4,222.5,276.1,224,276,224.4z"/><linearGradient id="SVGID_29_" gradientUnits="userSpaceOnUse" x1="-167.616" y1="-209.717" x2="-167.409" y2="-209.717" gradientTransform="scale(28.9567) rotate(101.752 3.044 180.807)"><stop offset="0"/><stop offset="1" stop-color="#484848"/></linearGradient><path fill="url(#SVGID_29_)" d="M276.2,224.5c-0.2,1.1-0.7,1.9-1,1.8c-0.3-0.1-0.4-1-0.2-2.1c0.2-1.1,0.7-1.9,1-1.8 C276.4,222.5,276.5,223.4,276.2,224.5z"/><linearGradient id="SVGID_30_" gradientUnits="userSpaceOnUse" x1="-161.371" y1="-272.123" x2="-161.163" y2="-272.123" gradientTransform="matrix(14.427 -40.3743 -37.1575 -20.2043 -7501.186 -11822.35)"><stop offset="0" stop-color="#FFF"/><stop offset="1" stop-color="#d3d3d3"/></linearGradient><path fill="url(#SVGID_30_)" d="M277.8,175.3c-1.9,2.6-8.3,18.1-2.3,21.6c6,3.5,16.3-9.4,19.2-12.1C297.7,182.1,279.8,172.6,277.8,175.3z"/><linearGradient id="SVGID_31_" gradientUnits="userSpaceOnUse" x1="-167.439" y1="-256.588" x2="-167.232" y2="-256.588" gradientTransform="scale(108.934) rotate(-83.217 -225.868 33.598)"><stop offset="0"/><stop offset="1" stop-color="#484848"/></linearGradient><path fill="url(#SVGID_31_)" d="M284.8,202.4c0,0,2.2,8.5-3.6,7.3c-5.8-1.2-22.3-4.6-26.3-5.5c-4-0.8-3-8.7,2.3-7.6 C262.4,197.7,284.8,202.4,284.8,202.4z"/><linearGradient id="SVGID_32_" gradientUnits="userSpaceOnUse" x1="-159.807" y1="-246.773" x2="-159.599" y2="-246.773" gradientTransform="scale(182.9185) rotate(11.752 1114.38 906.862)"><stop offset="0"/><stop offset="1" stop-color="#484848"/></linearGradient><path fill="url(#SVGID_32_)" d="M267,198.7l-9.3-1.9l0,0l-6.1-3.3c-5.3-1.1-6.9,9.1-2.9,9.9l17.4,3.2C270,207.4,272.3,199.8,267,198.7z"/><linearGradient id="SVGID_33_" gradientUnits="userSpaceOnUse" x1="-189.303" y1="-248.047" x2="-189.096" y2="-248.047" gradientTransform="scale(310.5536) rotate(168.806 -108.99 -114.128)"><stop offset="0"/><stop offset="1" stop-color="#484848"/></linearGradient><path fill="url(#SVGID_33_)" d="M317,192.1c-0.9,3.5-7.2,0.6-18.4-5.1c-3.8-1.9-7.3,2.5-4.4,4.7c17.4,13.3,35.3,15.7,32.3-9.6 C323.4,186.6,319.9,190.1,317,192.1z"/><linearGradient id="SVGID_34_" gradientUnits="userSpaceOnUse" x1="-164.845" y1="-236.839" x2="-164.638" y2="-236.839" gradientTransform="scale(117.154) rotate(104.01 10.72 184.393)"><stop offset="0"/><stop offset="1" stop-color="#484848"/></linearGradient><path fill="url(#SVGID_34_)" d="M278.8,176.4c-6.2-5.9-8.1-9.3-8.3-11.7c0.1-3.9,1.1-8.4,3.7-13.8c-17.8,1.3-16,17.1,1.8,29.5 C278.9,182.5,281.8,179.3,278.8,176.4z"/><linearGradient id="SVGID_35_" gradientUnits="userSpaceOnUse" x1="-163.265" y1="-249.089" x2="-163.058" y2="-249.089" gradientTransform="matrix(123.5357 217.6367 -267.337 103.799 -46151.54 61558.094)"><stop offset="0"/><stop offset="1" stop-color="#484848"/></linearGradient><path fill="url(#SVGID_35_)" d="M277.9,178.9c-0.6,1.4-4.4,12.7-3.7,14.8c4.5-2.3,19.6-9.9,20.4-10.3c0.9-0.4,3.1,2.6,3.9,3.6 c0.8,1-10.3,10.5-11.3,13.9c-0.9,3.2-0.7,7.7-0.7,7.7l-19.8-10.5c0,0,3.4-5.5,3.9-6.8c-1.1-1-2-4.7-1.3-6.8 c0.9-2.5,4.4-4.7,7.1-6.7C278.4,176.6,278.9,176.6,277.9,178.9z"/><linearGradient id="SVGID_36_" gradientUnits="userSpaceOnUse" x1="-156.544" y1="-298.067" x2="-156.336" y2="-298.067" gradientTransform="scale(20.474) rotate(-60.44 -319.513 7.236)"><stop offset="0" stop-color="#ffdfb2"/><stop offset="1" stop-color="#efa05e"/></linearGradient><path fill="url(#SVGID_36_)" d="M287.1,177.6c0,0-2.7-1.4-5.6-3.1c-3.2,5.8-2.1,8.9-2.1,8.9s10.2,3,13.4-2.8 C289.7,179.1,287.1,177.6,287.1,177.6z"/><ellipse transform="rotate(-61.48 279.904 181.452)" fill="#F3B175" cx="279.9" cy="181.5" rx="1.1" ry="1.1"/><ellipse transform="rotate(-61.47 281.875 183.216)" fill="#F3B175" cx="281.9" cy="183.2" rx="1.1" ry="1.1"/><linearGradient id="SVGID_37_" gradientUnits="userSpaceOnUse" x1="-189.685" y1="-103.978" x2="-189.478" y2="-103.978" gradientTransform="scale(7.5604) rotate(118.527 -52.482 131.31)"><stop offset="0" stop-color="#FFF"/><stop offset="1" stop-color="#efe9da"/></linearGradient><circle fill="url(#SVGID_37_)" cx="279.7" cy="180.8" r="1.1"/><linearGradient id="SVGID_38_" gradientUnits="userSpaceOnUse" x1="-189.992" y1="-105.289" x2="-189.784" y2="-105.289" gradientTransform="matrix(-3.611 6.6433 6.6433 3.611 295.493 1824.206)"><stop offset="0" stop-color="#FFF"/><stop offset="1" stop-color="#efe9da"/></linearGradient><circle fill="url(#SVGID_38_)" cx="281.7" cy="182.6" r="1.1"/><linearGradient id="SVGID_39_" gradientUnits="userSpaceOnUse" x1="-189.877" y1="-106.699" x2="-189.669" y2="-106.699" gradientTransform="matrix(-3.611 6.643 6.643 3.611 307.85 1829.59)"><stop offset="0" stop-color="#FFF"/><stop offset="1" stop-color="#efe9da"/></linearGradient><circle fill="url(#SVGID_39_)" cx="284.3" cy="183.7" r="1.1"/><path fill="#FFF" d="M279.5,183.5c2.2,1.2,11.7-1.1,14.5-3.7c0.9,0.3,2.3,3.6,2.4,4c0.1,0.4-5,6.8-5.8,9.2 c-0.2-2.6-1.9-8.3-2.5-8.6c-0.6-0.3-8.3,1.5-9.7,0.5c-1.4-1-1.4-6.4-2.1-6.8c-0.6-0.4-5.3,1.5-6.5,1.7c1.2-1,9.4-6.1,10.5-5.4 c1.1,0.7,1.9,0.7,1.9,0.7S278.2,182.8,279.5,183.5z"/><linearGradient id="SVGID_40_" gradientUnits="userSpaceOnUse" x1="-170.299" y1="-230.04" x2="-170.092" y2="-230.04" gradientTransform="scale(62.3992) rotate(125.73 -24.547 161.226)"><stop offset="0" stop-color="#ffdfb2"/><stop offset="1" stop-color="#fbc38f"/></linearGradient><path fill="url(#SVGID_40_)" d="M321.2,173.1c4.6-6.3,7.5-12.2,3.3-20.7c-6.9-13.9-18.1-20.5-26.1-18.9c-7.7,1.5-11.7,5.1-16.2,11.4 c-4.9,6.9-7.3,12.4-7.4,15.9c-0.2,5.7,2.1,14,8.2,18.2c10.2,6.5,14.5,5.6,22.3,5C311.3,183.5,316.2,179.9,321.2,173.1z"/><path fill="#EEB87D" d="M318.2,171.4c-10.4,0.5,2.5-19.3-2.8-23.7c-5.4,2.8-16.1,4.5-25.1,0c5.5,1.5,14,0.6,16.7-1.8 c-5.2,0.2-18.5,0.6-23.2-3.1c10.8-14.5,23.6-20.1,41.4-4.2c17.7,15.8,4.2,29.4-1,34.7C323.5,172.4,322.6,171.2,318.2,171.4z"/><path fill="#7E1416" d="M305.5,150.8c2.5,0.4,5.9,2.8,7.2,4.4C311.7,152.7,308.2,149.8,305.5,150.8z"/><path fill="#7E1416" d="M298.2,146.3c-0.7-2.4-3.6-5.5-5.3-6.5C295.4,140.4,298.7,143.5,298.2,146.3z"/><linearGradient id="SVGID_41_" gradientUnits="userSpaceOnUse" x1="-150.662" y1="-227.87" x2="-150.454" y2="-227.87" gradientTransform="scale(39.5558) rotate(72.88 79.984 223.627)"><stop offset="0" stop-color="#ffdfb2"/><stop offset="1" stop-color="#fbc38f"/></linearGradient><path fill="url(#SVGID_41_)" d="M320.8,170.2L312,181c2.3,2.5,7.2,5.5,11.4,0.3C327.7,176.2,324.1,171.8,320.8,170.2z"/><linearGradient id="SVGID_42_" gradientUnits="userSpaceOnUse" x1="-216.705" y1="-263.896" x2="-216.498" y2="-263.896" gradientTransform="scale(17.7422) rotate(-138.518 -147.35 92.552)"><stop offset="0" stop-color="#e5b274"/><stop offset="1" stop-color="#fbc38f"/></linearGradient><path fill="url(#SVGID_42_)" d="M319.7,172.7l-5.5,6.8c1.5,1.6,4.5,3.5,7.2,0.2C324.1,176.4,321.8,173.6,319.7,172.7z"/><linearGradient id="SVGID_43_" gradientUnits="userSpaceOnUse" x1="-166.356" y1="-243.162" x2="-166.148" y2="-243.162" gradientTransform="scale(308.868) rotate(122.483 -16.05 167.728)"><stop offset="0" stop-color="#7e3d1b"/><stop offset="1" stop-color="#3f160a"/></linearGradient><path fill="url(#SVGID_43_)" d="M318.2,171.4c-7.4,0.5,3.6-20.9-1.7-25.3c-5.4,2.8-16.6,4.7-25.6,0.3c5.5,1.5,14,0.6,16.7-1.8 c-5.2,0.2-19.8-0.4-24.5-4c12.1-13.2,24.9-17.7,41.8-5c19,14.2,7.1,32.1-0.4,37.9C323.7,172.5,322.6,171.1,318.2,171.4z"/><linearGradient id="SVGID_44_" gradientUnits="userSpaceOnUse" x1="-161.551" y1="-237.681" x2="-161.344" y2="-237.681" gradientTransform="scale(97.3822) rotate(90.37 38.202 201.534)"><stop offset="0" stop-color="#8b4920"/><stop offset="1" stop-color="#5c270c"/></linearGradient><path fill="url(#SVGID_44_)" d="M336.4,155.8c-0.3,0.3-0.7,0.5-1.1,0.7c-0.3,0.1-0.6,0.2-1,0.2c-4.1,0.5-12.5-2.4-16.4-4.7 c-0.3,5-2.3,11.5-2.4,15.6c2.4,2.1,6.8,3.6,10.3,4c0.1,0,0.3,0,0.4,0c2,0.2,4.5,0,6.7-0.4C335,166.3,336.3,161,336.4,155.8z"/><linearGradient id="SVGID_45_" gradientUnits="userSpaceOnUse" x1="-169.975" y1="-237.257" x2="-169.767" y2="-237.257" gradientTransform="scale(108.478) rotate(141.966 -42.897 149.012)"><stop offset="0" stop-color="#8b4920"/><stop offset="1" stop-color="#602b0e"/></linearGradient><path fill="url(#SVGID_45_)" d="M307,127.4c-8.5-0.3-16.6,3.1-23.2,9.6c0.3,1.4,1.7,3.9,3.2,5.5c5.5,1.7,13.9,2.2,18.6,2.2 C302.8,140.3,304,131,307,127.4z"/><linearGradient id="SVGID_46_" gradientUnits="userSpaceOnUse" x1="-168.965" y1="-226.802" x2="-168.757" y2="-226.802" gradientTransform="scale(53.718) rotate(119.923 -17.102 165.386)"><stop offset="0" stop-color="#f7a58c"/><stop offset="1" stop-color="#f0857a"/></linearGradient><path fill="url(#SVGID_46_)" d="M285.2,165.9c-0.3-0.3,2.2-0.6,3.1-0.2c0.9,0.4,0.8,1.1,0.8,1.1s0.9-0.3,1.6,0c0.9,0.5,4.7,3.9,6.2,5.1 c-1.6,2.3-5.9,8.4-11.7,5.2C281.2,174.8,285.2,166,285.2,165.9z"/><linearGradient id="SVGID_47_" gradientUnits="userSpaceOnUse" x1="-169.362" y1="-219.711" x2="-169.155" y2="-219.711" gradientTransform="matrix(-15.6804 29.37 35.181 18.2875 5364.868 9161.427)"><stop offset="0" stop-color="#b41f2d"/><stop offset="1" stop-color="#ec404b"/></linearGradient><path fill="url(#SVGID_47_)" d="M285.2,165.9c1.9,0.9,9,5,11.7,5.9c-2.1,0.8-5.9,5-10.5,2.6C283,172.8,284.8,166.9,285.2,165.9z"/><path fill="#FFF" d="M288.4,169.6c2,1,4.8,2.2,7.4,1.8c-2.5-1.1-6.8-3.3-9.3-4.8h0C286.4,167.7,286.6,168.6,288.4,169.6z"/><path fill="#FCDBD0" d="M287.7,175.4c-1-0.2-1.4-0.4-1.4-0.3c0,0.1,0.3,0.4,1.3,0.6c1,0.2,1.7,0.3,1.7,0.1 C289.3,175.8,288.7,175.7,287.7,175.4z"/><ellipse transform="rotate(-54.2 305.776 173.486)" fill="#FDD3AA" cx="305.8" cy="173.5" rx="2.8" ry="4.1"/><ellipse transform="rotate(-54.204 279.368 155.37)" fill="#FDD3AA" cx="279.4" cy="155.4" rx="2" ry="2.1"/><path fill="#7E1416" d="M307.2,164.6c0.6,0.6,1,0.9,1.5,1.1c-0.7,0.2-1.6,0-2-0.5C306.2,164.8,306.7,164.2,307.2,164.6z"/><linearGradient id="SVGID_48_" gradientUnits="userSpaceOnUse" x1="-159.227" y1="-221.782" x2="-159.02" y2="-221.782" gradientTransform="scale(40.4483) rotate(-50.64 162.822 -284.95)"><stop offset="0" stop-color="#ffdfb2"/><stop offset="1" stop-color="#7e1416"/></linearGradient><circle fill="url(#SVGID_48_)" cx="302.8" cy="162.9" r="4.7"/><ellipse transform="rotate(-50.64 302.778 162.928)" fill="#FFF" cx="302.8" cy="162.9" rx="4.2" ry="4.2"/><linearGradient id="SVGID_49_" gradientUnits="userSpaceOnUse" x1="-178.183" y1="-292.021" x2="-177.975" y2="-292.021" gradientTransform="scale(21.905) rotate(129.36 -152.948 -96.885)"><stop offset="0" stop-color="#5a2c0e"/><stop offset="1" stop-color="#2e160c"/></linearGradient><circle fill="url(#SVGID_49_)" cx="303.8" cy="162.7" r="2.5"/><linearGradient id="SVGID_50_" gradientUnits="userSpaceOnUse" x1="-181.863" y1="-305.854" x2="-181.656" y2="-305.854" gradientTransform="scale(16.7965) rotate(129.36 -156.482 -100.803)"><stop offset="0" stop-color="#955924"/><stop offset="1" stop-color="#5c2c0f"/></linearGradient><circle fill="url(#SVGID_50_)" cx="303.9" cy="162.8" r="1.8"/><ellipse transform="rotate(-50.64 304.302 161.188)" fill="#FFF" cx="304.3" cy="161.2" rx=".5" ry=".5"/><path fill="#7E1416" d="M285.1,148.3c-0.7-0.5-1-0.8-1.4-1.2c-0.1,0.8,0.3,1.6,0.9,1.9C285.1,149.2,285.6,148.7,285.1,148.3z"/><linearGradient id="SVGID_51_" gradientUnits="userSpaceOnUse" x1="-159.101" y1="-272.962" x2="-158.894" y2="-272.962" gradientTransform="scale(40.448) rotate(-50.64 -360.432 -37.18)"><stop offset="0" stop-color="#ffdfb2"/><stop offset="1" stop-color="#7e1416"/></linearGradient><circle fill="url(#SVGID_51_)" cx="287.7" cy="152.3" r="4.7"/><ellipse transform="rotate(-50.64 287.665 152.26)" fill="#FFF" cx="287.7" cy="152.3" rx="4.2" ry="4.2"/><linearGradient id="SVGID_52_" gradientUnits="userSpaceOnUse" x1="-178.424" y1="-295.231" x2="-178.216" y2="-295.231" gradientTransform="scale(21.904) rotate(129.36 -154.06 -98.837)"><stop offset="0" stop-color="#5a2c0e"/><stop offset="1" stop-color="#2e160c"/></linearGradient><circle fill="url(#SVGID_52_)" cx="288.7" cy="152.2" r="2.5"/><linearGradient id="SVGID_53_" gradientUnits="userSpaceOnUse" x1="-182.176" y1="-310.031" x2="-181.968" y2="-310.031" gradientTransform="scale(16.7984) rotate(129.36 -157.927 -103.347)"><stop offset="0" stop-color="#955924"/><stop offset="1" stop-color="#5c2c0f"/></linearGradient><circle fill="url(#SVGID_53_)" cx="288.8" cy="152.2" r="1.8"/><ellipse transform="rotate(-50.64 289.183 150.595)" fill="#FFF" cx="289.2" cy="150.6" rx=".5" ry=".5"/><path fill="#FCC680" d="M292.4,160.7c-1.9-2-4.3-2.5-5.8-1.3c-1.5,1.2,0,3.1,1.7,4.7C285.6,160.5,290.2,158.7,292.4,160.7z"/><path fill="#FFDDAE" d="M288.3,164l4.2-3.3C290.2,158.7,285.6,160.5,288.3,164z"/><path fill="#80807F" d="M221.5,195c0,0.4-0.3,0.5-0.8,0.5h-5.9c-0.4,0-0.8-0.1-0.8-0.5s0.3-0.5,0.8-0.5h5.9 C221.2,194.5,221.5,194.6,221.5,195z"/><path fill="#B3B1B2" d="M182.7 163.5L221.5 163.5 223.7 187.5 184.9 187.5z"/><path fill="#BBBDBF" d="M221.5 163.7L222.1 163.1 224.3 186.9 223.7 187.6z"/><path fill="#D0D2D3" d="M182.7 163.5L183.8 162.5 222.1 162.5 221.5 163.5z"/><path fill="#5A5C5C" d="M206.9 176.5L197.4 176.5 193.5 195.5 203.1 195.5z"/><path fill="#808184" d="M206.9 177L207.1 177.3 203.7 193.5 203.4 193.5z"/><path fill="#80807F" d="M188.3 193.5L208.8 193.5 208.3 196.5 187.8 196.5z"/><path fill="#929497" d="M208.8 193.8L211.8 196.2 208.3 196.2z"/><path fill="#E69627" d="M169.7 195.5H304.7V247.5H169.7z"/><path fill="#C57F2A" d="M309.7,197.6c0-1.1-0.9-2.1-2.1-2.1H166.7c-1.1,0-2.1,0.9-2.1,2.1v0.9c0,1.1,0.9,2.1,2.1,2.1h140.9 c1.1,0,2.1-0.9,2.1-2.1V197.6z"/></svg>