<svg width="252" height="247" viewBox="0 0 252 247" xmlns="http://www.w3.org/2000/svg"><title>shield_icon</title><g id="Page-1" fill="none" fill-rule="evenodd"><g id="shield_icon" fill="#2196F3"><path d="M251.2,233.8 L113,245.4 C82.8,249.5 60.7,240.8 49.1,210 L1.5,66 C1.5,66 -13,17.8 87.5,2.7 C164.1,-8.4 174,23 174,23 L195.5,94.4 C195.5,94.4 203.6,95 223.4,95.6 C227.4,107.8 251.2,233.8 251.2,233.8 L251.2,233.8 Z M94.4,106 C107.2,106.6 125.2,104.3 145.5,99.6 C142.6,90.3 136.8,71.7 133.9,62.4 L132.7,58.9 L135.6,57.7 C154.8,50.1 167.5,34.5 164.6,23.4 C162.3,14.7 150.1,8.3 130.3,5.4 C118.7,3.7 104.2,4.2 89.1,6.6 C56.6,11.2 21.7,24.6 12.4,43.8 C7.2,54.8 7.8,64.7 14.1,74 C28.2,92.7 66,104.3 94.4,106 L94.4,106 Z M140.9,62.5 L153.1,97.9 C153.1,97.9 186.8,96.7 189.1,93.3 C190.3,89.8 171.7,32.3 171.7,32.3 C171.7,32.3 168.8,43.9 157.2,52.6 C150.2,57.8 140.9,62.5 140.9,62.5 L140.9,62.5 Z M11.4,77 L45.7,183.3 C45.7,183.9 56.2,211.8 56.7,212.9 C59,217.5 62.5,229.2 75.9,236.1 C90.4,244.2 115.4,240.2 115.4,240.2 L244.3,230.3 L219.9,100.8 L200.7,100.8 C197.2,100.8 168.2,102 142.6,106.6 C115.9,111.8 84.5,113 57.2,104.9 C51.4,103.2 46.7,102 42.1,100.3 C16,88 11.4,77 11.4,77 L11.4,77 Z" id="Shape"/><path id="Rectangle-path" transform="rotate(-61.113 93.837 207.734)" d="M76.986 206.284H110.68700000000001V209.184H76.986z"/><path d="M98.5,199.6 L97.9,197.8 L106.6,196.7 L106.6,197.8 L98.5,199.6 Z" id="Shape"/><path d="M99.6,199 L98.5,199.6 L95,191.4 L96.7,190.8 L99.6,199 Z" id="Shape"/><path d="M88.6,216.4 L87.4,217 L90.9,225.1 L92.1,224.5 L88.6,216.4 Z" id="Shape"/><path d="M89.2,218.1 L88.6,216.4 L80.5,218.1 L81.1,219.3 L89.2,218.1 Z" id="Shape"/><path id="Rectangle-path" transform="rotate(-61.105 93.53 207.67)" d="M92.381 187.32H94.681V228.01999999999998H92.381z"/><path d="M83.4,201.9 L82.2,202.5 L78.7,194.3 L79.9,194.3 L83.4,201.9 Z" id="Shape"/><path d="M82.8,200.7 L83.4,201.9 L74.7,203.6 L74.1,202.5 L82.8,200.7 Z" id="Shape"/><path d="M104.3,213.5 L104.9,215.2 L113,213.5 L112.4,212.3 L104.3,213.5 Z" id="Shape"/><path d="M105.5,213.5 L104.3,213.5 L107.2,221.6 L108.9,221.6 L105.5,213.5 Z" id="Shape"/><path d="M100.8,223.4 L99.1,224 L86.3,192 L88.6,192 L100.8,223.4 Z" id="Shape"/><path d="M110.1,203.6 L110.7,205.4 L77,211.8 L76.4,210 L110.1,203.6 Z" id="Shape"/><path id="Rectangle-path" transform="rotate(-61.118 182.718 196.027)" d="M163.568 194.277H201.86700000000002V197.777H163.568z"/><path d="M187.9,186.2 L187.4,185 L197.2,183.3 L197.8,184.5 L187.9,186.2 Z" id="Shape"/><path d="M189.7,186.2 L187.9,186.2 L184.5,176.9 L185.6,176.9 L189.7,186.2 Z" id="Shape"/><path d="M177.5,205.9 L175.7,205.9 L179.8,215.2 L181,215.2 L177.5,205.9 Z" id="Shape"/><path d="M178.1,207.1 L177.5,205.9 L167.6,207.7 L168.2,208.8 L178.1,207.1 Z" id="Shape"/><path id="Rectangle-path" transform="rotate(-61.113 182.823 195.834)" d="M181.373 171.433H184.273V220.23399999999998H181.373z"/><path d="M170.5,189.1 L168.8,189.7 L164.7,180.4 L166.4,179.8 L170.5,189.1 Z" id="Shape"/><path d="M169.9,187.9 L170.5,189.1 L160.6,190.8 L160.1,189.1 L169.9,187.9 Z" id="Shape"/><path d="M195.5,203 L196.1,204.2 L205.9,203 L205.4,201.3 L195.5,203 Z" id="Shape"/><path d="M196.6,202.5 L195.5,203 L199,212.3 L200.7,211.8 L196.6,202.5 Z" id="Shape"/><path d="M191.4,214.1 L189.7,214.7 L174,178.1 L176.3,177.5 L191.4,214.1 Z" id="Shape"/><path d="M201.9,192 L203,193.7 L163.5,200.1 L162.4,198.4 L201.9,192 Z" id="Shape"/><path id="Rectangle-path" transform="rotate(-61.113 111.888 143.175)" d="M96.487 142.025H127.288V144.32500000000002H96.487z"/><path d="M116.5,135.7 L115.9,134.5 L123.5,132.8 L124,133.9 L116.5,135.7 Z" id="Shape"/><path d="M117.7,135.1 L116.5,135.7 L113.6,128.1 L114.7,128.1 L117.7,135.1 Z" id="Shape"/><path d="M107.8,151.3 L106.6,151.3 L108.9,158.9 L110.1,158.3 L107.8,151.3 Z" id="Shape"/><path d="M107.8,152.5 L107.8,151.3 L100.2,153.1 L100.8,154.2 L107.8,152.5 Z" id="Shape"/><path id="Rectangle-path" transform="rotate(-61.113 112.02 143.47)" d="M110.87 125.77H113.17V161.171H110.87z"/><path d="M103.1,138.6 L102,138.6 L99.1,131.6 L100.2,131 L103.1,138.6 Z" id="Shape"/><path d="M102.5,137.4 L103.1,138.6 L95.6,139.7 L95,138.6 L102.5,137.4 Z" id="Shape"/><path d="M121.1,148.4 L121.7,149.6 L129.3,147.9 L128.7,146.7 L121.1,148.4 Z" id="Shape"/><path d="M122.3,148.4 L121.1,148.4 L124,155.4 L125.2,155.4 L122.3,148.4 Z" id="Shape"/><path d="M118.2,157.2 L116.5,157.7 L106,129.3 L107.8,128.7 L118.2,157.2 Z" id="Shape"/><path d="M126.4,139.7 L126.9,140.9 L97.3,147.3 L96.7,145.5 L126.4,139.7 Z" id="Shape"/><path id="Rectangle-path" transform="rotate(-61.118 181.072 130.902)" d="M172.672 130.302H189.472V131.50199999999998H172.672z"/><path d="M183.3,126.9 L183.3,126.4 L187.4,125.2 L187.4,125.8 L183.3,126.9 Z" id="Shape"/><path d="M183.9,126.9 L183.3,126.9 L182.1,122.9 L182.7,122.9 L183.9,126.9 Z" id="Shape"/><path d="M178.6,135.1 L178.1,135.7 L179.8,139.1 L180.4,139.1 L178.6,135.1 Z" id="Shape"/><path d="M179.2,136.2 L178.6,135.1 L174.6,136.2 L174.6,136.8 L179.2,136.2 Z" id="Shape"/><path id="Rectangle-path" transform="rotate(-61.118 181.136 131.243)" d="M180.536 121.093H181.736V141.393H180.536z"/><path d="M175.7,128.1 L175.2,128.1 L174,124.6 L174.6,124 L175.7,128.1 Z" id="Shape"/><path d="M175.7,127.5 L175.7,128.1 L171.7,129.3 L171.7,128.7 L175.7,127.5 Z" id="Shape"/><path d="M186.2,133.9 L186.8,134.5 L190.8,133.9 L190.3,133.3 L186.2,133.9 Z" id="Shape"/><path d="M186.8,133.9 L186.2,133.9 L187.9,138 L188.5,138 L186.8,133.9 Z" id="Shape"/><path d="M184.5,138.6 L183.9,139.1 L177.5,123.5 L178.6,123.5 L184.5,138.6 Z" id="Shape"/><path d="M189.1,129.3 L189.7,129.9 L172.8,133.3 L172.8,132.2 L189.1,129.3 Z" id="Shape"/><path id="Rectangle-path" transform="rotate(-61.118 40.475 121.88)" d="M32.075 121.281H48.875V122.48100000000001H32.075z"/><path d="M43.3,117.7 L42.7,117.1 L46.8,116.5 L47.4,117.1 L43.3,117.7 Z" id="Shape"/><path d="M43.9,117.7 L43.3,117.7 L41.6,113.6 L42.1,113.6 L43.9,117.7 Z" id="Shape"/><path d="M38.7,126.4 L37.5,126.4 L39.2,130.4 L39.8,130.4 L38.7,126.4 Z" id="Shape"/><path d="M38.7,126.9 L38.7,126.4 L34,126.9 L34.6,127.5 L38.7,126.9 Z" id="Shape"/><path id="Rectangle-path" transform="rotate(-61.118 40.802 121.8)" d="M40.202 111.65H41.402V131.95000000000002H40.202z"/><path d="M35.8,119.4 L35.2,119.4 L33.4,115.3 L34,115.3 L35.8,119.4 Z" id="Shape"/><path d="M35.2,118.8 L35.8,119.4 L31.7,120 L31.1,119.4 L35.2,118.8 Z" id="Shape"/><path d="M46.2,124.6 L46.2,125.2 L50.3,124.6 L50.3,124 L46.2,124.6 Z" id="Shape"/><path d="M46.8,124.6 L46.2,124.6 L47.4,128.7 L47.9,128.7 L46.8,124.6 Z" id="Shape"/><path d="M44.5,129.9 L43.3,129.9 L37.5,114.2 L38.1,114.2 L44.5,129.9 Z" id="Shape"/><path d="M49.1,120 L49.1,121.1 L32.8,124 L32.3,122.9 L49.1,120 Z" id="Shape"/></g></g></svg>