<svg id="Layer_1" xmlns="http://www.w3.org/2000/svg" viewBox="0 0 260 251"><g fill="#1976D2"><path d="M50.6,148.3c-14.7-2.4-29.3-5.5-43.9-9.2c3.5-3.9,7-7.8,10.4-11.8c-1.4-5.4-2.8-10.8-4.1-16.2 c13.8,3.5,27.7,6.5,41.6,8.7C53.3,129.3,51.9,138.8,50.6,148.3z"/><path d="M209.4,148.3c14.7-2.4,29.3-5.5,43.9-9.2c-3.5-3.9-7-7.8-10.4-11.8c1.4-5.4,2.8-10.8,4.1-16.2 c-13.8,3.5-27.7,6.5-41.6,8.7C206.7,129.3,208.1,138.8,209.4,148.3z"/><path d="M27.7 121.3L39 115.7 39 127.4z"/><path d="M232.2 121.3L220.9 115.7 220.9 127.4z"/></g><path fill="#1E88E5" d="M128.4,247.7c-58.2-23.1-80.9-67.3-89.6-100.3c-9.5-35.6-5.3-85.2-5.1-86.5l0.6-3.9l3.8-0.1 c41-0.7,89.2-45.6,89.7-45.9l2.3-1.4l2.3,1.4c0.5,0.3,48.8,45.2,89.7,45.9l3.8,0.1l0.6,3.9c0.2,1.2,4.3,50.9-5.1,86.5 c-8.8,33-31.5,77.3-89.6,100.3l-1.6,0.6L128.4,247.7z"/><path fill="#42A5F5" d="M130,243.3C239.2,200,221.9,61.6,221.9,61.6C179.3,60.9,130,15,130,15l0,0c0,0-49.3,45.8-91.9,46.6 C38.1,61.6,20.8,200,130,243.3z"/><path fill="#FFF" d="M130,240.5c-43.9-17.7-72.3-49.7-84.4-95c-7.6-28.7-6-73.8-5.2-81.2C79.2,62.6,121.8,23,130,18.1 c8.2,4.9,50.8,44.5,89.6,46.1c0.7,7.5,2.4,52.6-5.3,81.4C202.2,190.9,173.9,222.8,130,240.5z"/><path fill="#2196F3" d="M217.2,66.8c-37.1-2.3-76.7-39.4-87.2-45.6c-0.3,0.2-0.5,0.3-0.8,0.5v215.5c0.3,0.1,0.5,0.2,0.8,0.4 c42.5-17.4,70.1-48.6,81.9-92.7C218.8,119,218,76,217.2,66.8z"/><path fill="#FFF" d="M238.7,152c-71.4,17.1-145.9,17.1-217.3,0c2.4-9.9,4.7-19.7,7.1-29.6c66.8,16,136.3,16,203.1,0 C233.9,132.2,236.3,142.1,238.7,152z"/><path fill="#1976D2" d="M21.1,152.8l-0.9-0.2l0.2-0.9c2.4-9.9,4.7-19.7,7.1-29.6l0,0l0.2-0.9l0.9,0.2c33.3,8,67.3,12,101.3,12l0,0 c34,0,68-4,101.3-12l0,0l0.9-0.2l0.2,0.9c2.4,9.9,4.7,19.7,7.1,29.6l0,0l-0.9,0.2l0.9-0.2l0.2,0.9l-0.9,0.2 c-35.8,8.6-72.3,12.9-108.9,12.9l0,0C93.5,165.7,56.9,161.4,21.1,152.8L21.1,152.8z M130,163.9c36.1,0,72.2-4.2,107.6-12.6l0,0 c-2.2-9.3-4.5-18.6-6.7-27.9l0,0c-33.2,7.9-67,11.8-100.9,11.8l0,0c-33.9,0-67.7-3.9-100.9-11.8l0,0c-2.2,9.3-4.5,18.6-6.7,27.9 l0,0C57.8,159.7,93.9,163.9,130,163.9L130,163.9z"/><path fill="#2196F3" d="M98.8 185.2L100 189 104 189 100.8 191.3 102 195.1 98.8 192.8 95.6 195.1 96.8 191.3 93.6 189 97.6 189z"/><path fill="#2196F3" d="M119.6 185.2L120.8 189 124.8 189 121.6 191.3 122.8 195.1 119.6 192.8 116.4 195.1 117.6 191.3 114.4 189 118.4 189z"/><path fill="#FFF" d="M140.4 185.2L141.6 189 145.6 189 142.4 191.3 143.6 195.1 140.4 192.8 137.2 195.1 138.4 191.3 135.2 189 139.2 189z"/><path fill="#FFF" d="M161.2 185.2L162.4 189 166.4 189 163.2 191.3 164.4 195.1 161.2 192.8 158 195.1 159.2 191.3 156 189 160 189z"/><g><g fill="#1976D2"><path d="M91.3,87.5c0-0.4-0.1-0.9-0.2-1c-0.4-0.4-1.5-0.4-2-0.4v-0.7c1.8-0.2,3.3-0.4,4.8-1.1h0.5v10.3 c0,0.4,0,1.4,0.4,1.8s1.4,0.4,1.9,0.4v0.7c-1.3,0-2.6-0.1-4-0.1c-1.2,0-2.4,0.1-3.5,0.1v-0.7c0.5,0,1.5,0,1.8-0.3 c0.4-0.4,0.4-1.3,0.4-1.7L91.3,87.5L91.3,87.5z"/><path d="M100,91c0-2.5,1.4-6.7,5.2-6.7c3.9,0,5.2,4.2,5.2,6.7s-1.4,6.6-5.2,6.6C101.4,97.7,100,93.5,100,91z M105.2,85c-1.9,0-1.8,4.4-1.8,5.9c0,1.7-0.2,5.9,1.8,5.9s1.8-4.1,1.8-5.9C107,89.4,107.1,85,105.2,85z"/><path d="M112.3,91c0-2.5,1.4-6.7,5.2-6.7c3.9,0,5.2,4.2,5.2,6.7s-1.4,6.6-5.2,6.6C113.8,97.7,112.3,93.5,112.3,91z M117.6,85c-1.9,0-1.8,4.4-1.8,5.9c0,1.7-0.2,5.9,1.8,5.9s1.8-4.1,1.8-5.9C119.4,89.4,119.5,85,117.6,85z"/></g></g><g><g fill="#FFF"><path d="M138.8,93.5c0,0.5,0,1.7,0.1,2.1c0.2,0.6,0.8,0.5,1.3,0.5v0.4c-0.7,0-1.4,0-2.1-0.1c-0.7,0-1.3,0-2,0.1v-0.4 c0.4,0,1,0,1.1-0.5c0.1-0.4,0.1-1.6,0.1-2.1v-4.4c0-0.5,0-1.7-0.1-2.1c-0.2-0.6-0.7-0.5-1.1-0.5v-0.4c0.7,0,1.4,0,2,0.1 c0.6,0,1.3,0,1.9-0.1c1.4,0.1,3.1,0.7,3.1,2.7c0,2.3-1.9,2.8-3.5,2.8c-0.2,0-0.8,0-0.9,0L138.8,93.5L138.8,93.5z M138.8,91.1 c0.3,0,0.5,0.1,0.8,0.1c1.4,0,2.1-0.7,2.1-2.4c0-1.5-0.6-2.3-1.9-2.3c-0.2,0-0.7,0-0.8,0.1s-0.1,0.2-0.1,0.6 C138.8,87.2,138.8,91.1,138.8,91.1z"/><path d="M145.2,89.1c0-0.5,0-1.7-0.1-2.1c-0.2-0.5-0.7-0.5-1.1-0.5v-0.4h6.6v2.4h-0.3c-0.3-1.8-0.9-1.9-2.4-1.9h-1 c-0.2,0-0.3,0-0.3,0.1s0,0.2,0,0.6V91c1.8,0.1,2.1-0.8,2.2-1.9h0.3c0,0.7,0,1.4-0.1,2.1c0,0.6,0,1.3,0.1,1.9h-0.3 c-0.2-1.6-0.9-1.7-2.2-1.7V94c0,0.5,0,1.2,0.2,1.6c0.3,0.5,1.2,0.6,1.7,0.6c1.4,0,2.3-0.2,2.5-2.1h0.3l-0.1,2.5h-7.3v-0.4 c0.4,0,1,0,1.1-0.5c0.1-0.4,0.1-1.6,0.1-2.1C145.2,93.4,145.2,89.1,145.2,89.1z"/><path d="M159.7,95.2c0.4,0.6,0.6,0.8,1.3,0.9v0.4c-0.4,0-0.8,0-1.2-0.1c-0.3,0-0.7,0-1,0.1l-0.6-0.9l-2.2-3.2 c-0.4-0.6-0.4-0.7-1.1-0.7v1.9c0,0.5,0,1.7,0.1,2.1c0.2,0.6,0.7,0.5,1.1,0.5v0.4c-0.6,0-1.2,0-1.9-0.1c-0.7,0-1.3,0-2,0.1v-0.4 c0.4,0,1,0,1.1-0.5c0.1-0.4,0.1-1.6,0.1-2.1V89c0-0.5,0-1.7-0.1-2.1c-0.1-0.6-0.7-0.5-1.1-0.5V86c0.8,0,1.5,0,2.3,0.1 c0.6,0,1.1,0,1.7-0.1c1.5,0,3.1,0.4,3.1,2.6c0,1.7-1.1,2.6-2.4,2.7L159.7,95.2z M154.8,91.2c1.7,0,2.9,0,2.9-2.3 c0-1.4-0.7-2.4-1.9-2.4c-0.2,0-0.7,0-0.9,0c-0.2,0.1-0.1,0.4-0.1,0.6V91.2L154.8,91.2z"/><path d="M168.6,86.1h0.2l0.1,3.1h-0.3c-0.2-1.7-1.3-3-2.8-3c-2.4,0-3.1,2.8-3.1,5.1c0,2.4,0.8,4.9,3.1,4.9 c1.9,0,2.6-1.6,3-3.5h0.2v3.4h-0.2l-0.3-0.8c-0.9,0.8-1.8,1.2-3,1.2c-2.7,0-4.6-2.1-4.6-5.3c0-3.2,2-5.5,4.7-5.5 c1.1,0,1.8,0.3,2.7,1L168.6,86.1z"/><path d="M171.1,89.1c0-0.5,0-1.7-0.1-2.1c-0.2-0.5-0.7-0.5-1.1-0.5v-0.4h6.6v2.4h-0.3c-0.3-1.8-0.9-1.9-2.4-1.9h-1 c-0.2,0-0.3,0-0.3,0.1s0,0.2,0,0.6V91c1.8,0.1,2.1-0.8,2.2-1.9h0.3c0,0.7,0,1.4-0.1,2.1c0,0.6,0,1.3,0.1,1.9h-0.3 c-0.2-1.6-0.9-1.7-2.2-1.7V94c0,0.5,0,1.2,0.2,1.6c0.3,0.5,1.2,0.6,1.7,0.6c1.4,0,2.3-0.2,2.5-2.1h0.3l-0.1,2.5h-7.3v-0.4 c0.4,0,1,0,1.1-0.5c0.1-0.4,0.1-1.6,0.1-2.1L171.1,89.1L171.1,89.1z"/><path d="M179.5,87.4c-0.4-0.7-0.7-0.9-1.5-0.9v-0.4c0.4,0,0.8,0,1.3,0.1c0.3,0,0.7,0,1.1-0.1l5.6,8.1l0,0v-4.4 c0-0.7,0-1.8-0.1-2.4c-0.2-0.9-0.5-0.8-1.2-0.9v-0.4c0.5,0,1,0,1.5,0.1c0.5,0,0.9,0,1.4-0.1v0.4c-0.5,0.1-0.8,0-1,0.7 c-0.1,0.5-0.2,2.1-0.2,2.7v6.8H186c-0.3-0.4-0.6-0.9-0.9-1.3l-5.2-7.4l0,0v5.3c0,0.6,0,1.8,0.2,2.3c0.2,0.6,0.7,0.6,1.2,0.6v0.4 c-0.5,0-1,0-1.5-0.1c-0.5,0-1,0-1.5,0.1v-0.4c0.5-0.1,1-0.1,1.1-0.8c0.1-0.6,0.1-1.6,0.1-2.2L179.5,87.4L179.5,87.4z"/><path d="M196.6,88.5h-0.4c-0.1-1.5-0.6-1.9-1.8-1.9c-0.5,0-1.3-0.1-1.3,0.4v7.4c0,1.2,0.2,1.6,1.5,1.7v0.4 c-0.7,0-1.5,0-2.2-0.1c-0.7,0-1.4,0-2.1,0.1v-0.4c1.3-0.1,1.5-0.5,1.5-1.7V87c0-0.5-0.6-0.4-1.1-0.4c-1.3,0-2,0.1-2,1.9h-0.3 v-2.4h8.2L196.6,88.5z"/></g></g><text transform="matrix(.819 -.071 .0863 .9963 131.982 155.615)" fill="#1976D2" font-family="AdellePE-Bold" font-size="16.859">WARRANTY</text><text transform="matrix(.8193 .0667 -.0812 .9967 56.913 149.893)" fill="#1976D2" font-family="AdellePE-Bold" font-size="16.858">LIFETIME</text></svg>