<svg id="Layer_1" xmlns="http://www.w3.org/2000/svg" viewBox="0 0 44.5 38"><path fill="#FAFAFA" d="M32.7,14c0,0.6-0.4,1-1,1h-19c-0.6,0-1-0.4-1-1l0,0c0-0.6,0.4-1,1-1h19C32.2,13,32.7,13.4,32.7,14L32.7,14z"/><path fill="#FAFAFA" d="M32.7,20c0,0.6-0.4,1-1,1h-19c-0.6,0-1-0.4-1-1l0,0c0-0.6,0.4-1,1-1h19C32.2,19,32.7,19.4,32.7,20L32.7,20z"/><path fill="#FAFAFA" d="M32.7,26c0,0.6-0.4,1-1,1h-19c-0.6,0-1-0.4-1-1l0,0c0-0.6,0.4-1,1-1h19C32.2,25,32.7,25.4,32.7,26L32.7,26z"/><text transform="translate(14.373 9.378)" fill="#FAFAFA" font-family="FreightSansProBook-Regular" font-size="7.051">Menu</text><path fill="#FAFAFA" d="M39.5,0H9.3C7.9,0,6.7,0.6,6.7,2v28h0.1c0,0,0.4,0.8,0.8,0.8S8.4,30,8.4,30H7.7V2c0-0.5,1.2,0,1.7,0h25.9 c0.5,0,0.4-0.4,0.4,0v32.8c0,0.5,0.1,1.2-0.4,1.2h-3.4c-0.3,0-1.6-0.9-1.6-1.8c0-1.1,1.6-1.8,1.6-1.8c0.4-0.1,0.6-0.5,0.5-0.9 S32,31,31.6,31h-24c-1.8,0-3.3,1.7-3.3,3.5S5.8,38,7.6,38h23.1l0,0h4.5c1.4,0,2.4-1.8,2.4-3.2V2.4c0-1.2,1.6-0.4,1.8-0.4l0,0 c0.7,0,1.3,0.2,1.3,0.9s-0.6,0.9-1.3,0.9c-0.5,0-0.8,0.4-0.8,0.9s0.4,0.9,0.8,0.9c1.6,0,3-1.2,3-2.9C42.4,1.1,41.1,0,39.5,0 L39.5,0z M29.2,36H7.7C6.8,36,6,35.4,6,34.5S6.8,33,7.7,33h21.5c-0.3,0-0.5,0.9-0.5,1.5C28.6,35.2,28.8,36,29.2,36L29.2,36z"/></svg>