<svg width="250" height="200" viewBox="0 0 250 200" xmlns="http://www.w3.org/2000/svg"><title>Group</title><g id="Page-1" fill="none" fill-rule="evenodd"><g id="siding_white_icon"><g id="Group"><path d="M129.1,0.7 L0.5,116.4 L0.5,116.7 L0.9,116.7 L129.4,0.9 L129.4,0.7 L129.1,0.7 Z" id="Shape" fill="#EEE"/><path d="M181.4,38.7 L84.6,177 L84.6,177.2 L84.9,177.1 L181.6,38.9 L181.6,38.7 L181.4,38.7 Z" id="Shape" fill="#EEE"/><path d="M148.4,14.8 L31.9,138.9 L31.9,139.1 L32.1,139.1 L148.6,15 L148.6,14.7 L148.4,14.8 Z" id="Shape" fill="#EEE"/><path d="M182.5,39.6 L86.5,178.3 L86.5,178.5 L86.8,178.5 L182.8,39.8 L182.8,39.5 L182.5,39.6 Z" id="Shape" fill="#EEE"/><path d="M149.7,15.8 L33.9,140.3 L33.9,140.5 L34.1,140.5 L149.9,16 L149.9,15.8 L149.7,15.8 Z" id="Shape" fill="#EEE"/><path d="M165.1,26.8 L58,157.7 L58,157.9 L58.2,157.9 L165.3,27 L165.3,26.8 L165.1,26.8 Z" id="Shape" fill="#EEE"/><path d="M166.4,27.9 L60,159.2 L60,159.4 L60.2,159.3 L166.7,28.1 L166.6,27.8 L166.4,27.9 Z" id="Shape" fill="#EEE"/><path d="M110.8,195.8 L111.2,191.9 L90.9,177.2 L86.6,178.5 L84.6,177.1 L84.9,173 L64.5,158.3 L60,159.4 L58.2,158.1 L58.5,153.9 L38.2,139.2 L34,140.5 L31.9,139 L32.2,135 L12.3,120.7 L8.3,122.2 L0.6,116.7 L129.3,0.8 L133.8,4.2 L136.5,3.4 L148.9,12.3 L148.7,14.8 L150,15.8 L152.6,15 L165.3,24.2 L165.2,26.8 L166.5,27.7 L169.2,27 L181.8,36.1 L181.7,38.7 L182.9,39.6 L185.7,38.9 L198.3,48 L198.1,50.6 L201.4,53 L116.3,200 L110.8,195.8 L110.8,195.8 Z M32.1,134.9 L31.8,138.9 L34.1,140.5 L38.2,139.3 L152.8,15 L149.9,15.8 L148.6,14.8 L148.9,12.5 L32.1,134.9 L32.1,134.9 Z M58.6,154 L58.3,157.9 L60.1,159.4 L64.5,158.2 L169.2,27.1 L166.6,27.9 L165.3,26.9 L165.6,24.3 L58.6,154 L58.6,154 Z M84.8,172.9 L84.6,177 L86.8,178.5 L90.8,177.2 L185.7,38.9 L182.8,39.6 L181.6,38.8 L181.8,36.1 L84.8,172.9 L84.8,172.9 Z M111.2,191.9 L110.8,195.9 L198,50.6 L198.4,47.9 L197.8,47.7 L111.2,191.9 L111.2,191.9 Z M9.5,121.6 L12.5,120.7 L136.7,3.2 L134.6,3.8 L9.5,121.6 L9.5,121.6 Z M0.9,116.7 L2,117.2 L129.9,1.4 L129.4,0.8 L0.5,116.4 L0.9,116.7 Z M74.9,164.3 L175.4,31.2 L74.9,164.3 Z M75,164.4 L175.5,31.3 L175.3,31.1 L74.7,164.2 L75,164.4 Z M82.9,170.1 L178.7,35.4 L82.9,170.1 Z M83,170.2 L178.8,35.5 L178.6,35.3 L82.8,170 L83,170.2 Z M66.8,158.5 L170.7,27.9 L66.8,158.5 Z M66.9,158.6 L170.9,28 L170.7,27.8 L66.7,158.4 L66.9,158.6 Z M79,167.3 L177.5,32.7 L79,167.3 Z M79.1,167.4 L177.6,32.8 L177.4,32.6 L78.9,167.2 L79.1,167.4 Z M71.1,161.6 L173.1,29.5 L71.1,161.6 Z M71.2,161.7 L173.2,29.6 L173,29.4 L71,161.5 L71.2,161.7 Z M48.7,145.4 L158.6,19 L48.7,145.4 Z M48.9,145.5 L158.7,19.1 L158.5,18.9 L48.6,145.3 L48.9,145.5 Z M40.7,139.6 L154.3,16 L40.7,139.6 Z M40.8,139.7 L154.4,16.1 L154.2,15.9 L40.6,139.5 L40.8,139.7 Z M56.8,151.3 L163.2,22.4 L56.8,151.3 Z M56.9,151.4 L163.3,22.5 L163.1,22.3 L56.7,151.2 L56.9,151.4 Z M44.6,142.5 L156.6,17.6 L44.6,142.5 Z M44.7,142.6 L156.7,17.7 L156.5,17.5 L44.5,142.4 L44.7,142.6 Z M52.5,148.1 L160.9,20.7 L52.5,148.1 Z M52.6,148.2 L161,20.8 L160.8,20.6 L52.4,148.1 L52.6,148.2 Z M82.1,167.2 L177.3,35.1 L82.1,167.2 Z M82.2,167.3 L177.4,35.2 L177.2,35 L82,167.1 L82.2,167.3 Z M78.2,164.4 L174.7,34.1 L78.2,164.4 Z M78.3,164.5 L174.8,34.2 L174.6,34 L78,164.3 L78.3,164.5 Z M74,161.4 L172.9,32 L74,161.4 Z M74.1,161.5 L173,32.1 L172.8,31.9 L73.9,161.3 L74.1,161.5 Z M70.1,158.6 L170.5,30.2 L70.1,158.6 Z M70.2,158.7 L170.6,30.3 L170.4,30.1 L70,158.5 L70.2,158.7 Z M44,139.7 L154,18.3 L44,139.7 Z M44.1,139.8 L154,18.4 L153.8,18.2 L43.8,139.6 L44.1,139.8 Z M47.9,142.5 L155.7,20.3 L47.9,142.5 Z M46.3,144.6 L155.8,20.4 L155.6,20.2 L46.1,144.4 L46.3,144.6 Z M52,145.5 L158.2,21.5 L52,145.5 Z M52.1,145.6 L158.3,21.6 L158.1,21.4 L51.9,145.4 L52.1,145.6 Z M56,148.4 L160.8,23.2 L56,148.4 Z M56.1,148.5 L160.9,23.3 L160.7,23.1 L55.9,148.3 L56.1,148.5 Z" id="Shape" fill="#212121"/><path d="M38.9,49.4 L44.4,46.6 L44.2,43.7 L64.1,31.8 L66.9,32.8 L68.7,31.9 L68.4,29.2 L88,17.5 L91.2,18.4 L92.6,17.6 L92.5,14.8 L112.1,3.1 L115.2,4.3 L119,2 L249.4,124.2 L243.3,127.9 L238.9,126.3 L209.3,143.9 L209.3,148.3 L207.3,149.5 L202.7,147.8 L172.8,165.6 L172.7,169.9 L170.7,171.1 L166.3,169.7 L136.2,187.6 L136.4,191.7 L129.7,195.7 L128.9,195.6 L128.7,196.2 L127.8,196.5 L39,49.7 L38.9,49.4 L38.9,49.4 Z M136.6,191.8 L136.3,187.7 L44.1,43.6 L44.1,45.9 L136.6,191.8 L136.6,191.8 Z M238.9,126.4 L243.3,127.9 L115.1,4.2 L112.1,3.1 L238.9,126.4 L238.9,126.4 Z M118.1,2.6 L248.4,124.9 L248.5,124.7 L118.3,2.5 L118.1,2.6 Z" id="Shape" fill="#212121"/><path d="M68.4,29.1 L68.6,32 L66.9,32.8 L64.1,31.7 L166.3,169.7 L170.9,171.1 L172.8,169.9 L173.1,165.7 L68.4,29.1 Z" id="Shape" stroke="#77C044" stroke-width=".1" fill="#E0E4EB"/><path d="M92.5,14.9 L92.3,17.7 L91.2,18.4 L88.1,17.4 L202.7,148 L207.4,149.5 L209.5,148.3 L209.5,144.1 L92.5,14.9 Z" id="Shape" stroke="#77C044" stroke-width=".1" fill="#E0E4EB"/><path d="M66.8,33 L170.6,171.3 L170.9,171.3 L170.9,171.1 L67.1,32.8 L66.9,32.8 L66.8,33 Z" id="Shape" fill="#EEE"/><path d="M91,18.7 L207.2,149.5 L207.4,149.5 L207.4,149.3 L91.3,18.5 L91,18.5 L91,18.7 Z" id="Shape" fill="#EEE"/><path d="M92.3,17.9 L209.2,148.3 L209.5,148.3 L209.5,148.1 L92.6,17.7 L92.3,17.7 L92.3,17.9 Z" id="Shape" fill="#EEE"/><path d="M68.3,32.1 L172.8,169.9 L173.1,170 L173.1,169.8 L68.6,32 L68.4,31.9 L68.3,32.1 Z" id="Shape" fill="#EEE"/></g></g></g></svg>