<svg id="Layer_1" xmlns="http://www.w3.org/2000/svg" viewBox="0 0 43.8 43.3"><style>.st0{fill:#3083c5}</style><path class="st0" d="M43.4,40.7l-23.8,2c-5.2,0.7-9-0.8-11-6.1L0.4,11.8c0,0-2.5-8.3,14.8-10.9c13.2-1.9,14.9,3.5,14.9,3.5 l3.7,12.3c0,0,1.4,0.1,4.8,0.2C39.3,19,43.4,40.7,43.4,40.7z M16.4,18.7c2.2,0.1,5.3-0.3,8.8-1.1c-0.5-1.6-1.5-4.8-2-6.4l-0.2-0.6 l0.5-0.2c3.3-1.3,5.5-4,5-5.9c-0.4-1.5-2.5-2.6-5.9-3.1c-2-0.3-4.5-0.2-7.1,0.2C9.9,2.4,3.9,4.7,2.3,8c-0.9,1.9-0.8,3.6,0.3,5.2 C5,16.4,11.5,18.4,16.4,18.7z M24.4,11.2l2.1,6.1c0,0,5.8-0.2,6.2-0.8C32.9,15.9,29.7,6,29.7,6s-0.5,2-2.5,3.5 C26,10.4,24.4,11.2,24.4,11.2z M2.1,13.7L8,32c0,0.1,1.8,4.9,1.9,5.1c0.4,0.8,1,2.8,3.3,4c2.5,1.4,6.8,0.7,6.8,0.7l22.2-1.7 L38,17.8c0,0-2.3,0-3.3,0c-0.6,0-5.6,0.2-10,1c-4.6,0.9-10,1.1-14.7-0.3c-1-0.3-1.8-0.5-2.6-0.8C2.9,15.6,2.1,13.7,2.1,13.7z"/><path class="st0" d="M43.4,40.7l0-0.3l-23.8,2l0,0c-0.8,0.1-1.5,0.2-2.3,0.2c-2,0-3.7-0.4-5-1.4c-1.4-1-2.5-2.5-3.3-4.7l-0.3,0.1 l0.3-0.1L0.8,11.7l-0.3,0.1l0.3-0.1l0,0c0,0-0.1-0.4-0.1-1C0.6,9.5,1,7.3,3,5.5c2-1.8,5.7-3.1,12.3-5.1h0c2,0,3.7,0,5.2,0 c4.2,0,6.5,1.2,7.8,2.1c0.6,0.5,1,1,1.3,1.4c0.1,0.2,0.2,0.4,0.2,0.5c0,0,0,0.1,0,0.1l0,0l0,0l0.7,0l0.5,0v0l0.1,0l-0.1,0v0 L34.2,17l0.1,0c0,0,1.8,0.1,4.8,0.2v-0.3L38.6,17c0.1,0.2,0.1,0.8,0.3,1.6c0.6,2.8,1.6,8.3,2.6,13.2c0.5,2.4,0.9,4.7,1.2,6.3 c0.2,0.8,0.3,1.5,0.4,2c0.1,0.5,0.1,0.7,0.1,0.7L43.4,40.7l0-0.3L43.4,40.7l0.3-0.1c0,0-1-5.4-2.1-11.1c-0.6-2.8-1.1-5.8-1.6-8.1 c-0.2-1.2-0.4-2.2-0.6-3c-0.2-0.8-0.3-1.4-0.4-1.6l-0.1-0.2l-0.2,0c-1.7-0.1-2.9-0.1-3.7-0.2c-0.8,0-1.1-0.1-1.1-0.1l0,0.3l0.6-0.1 L31.1,4.2v0c0,0-0.6-1.1-2.1-2.1c-1.4-1-4.1-2.1-8.4-2.1c-1.5,0-3.4,0.3-5.4,0.3h0c-6.8,2-10.6,3-12.7,5C0.4,7.3,0,9.4,0,10.6 c0,0.7,0.1,1.2,0.1,1.2l0,0l8.2,24.9l0,0c0.9,2.3,2.1,3.9,3.6,5c1.5,1.1,3.3,1.5,5.4,1.5c0.7,0,1.5-0.1,2.3-0.2l0-0.3l0,0.3 L43.8,41l-0.1-0.3L43.4,40.7z M16.4,18.7l0,0.3c0.3,0,0.5,0,0.8,0c2.2,0,5-0.4,8.1-1.1l0.3-0.1l-0.1-0.3c-0.5-1.6-1.5-4.8-2-6.4 l-0.1-0.3l0.3-0.1c1.5-0.6,2.8-1.5,3.8-2.5c0.9-1,1.5-2.1,1.5-3.1c0-0.2,0-0.4-0.1-0.6c-0.1-0.4-0.3-0.8-0.7-1.2 c-0.5-0.5-1.2-1-2.2-1.3c-0.9-0.4-2.1-0.6-3.4-0.8c-0.9-0.1-1.8-0.2-2.8-0.2c-1.4,0-2.9,0.1-4.4,0.3c-2.8,0.4-5.8,1.2-8.2,2.3 C4.8,4.7,2.9,6.1,2,7.9c-0.4,0.9-0.6,1.7-0.6,2.6c0,1,0.3,2,1,2.9c1.2,1.7,3.5,3,6.1,4c2.6,0.9,5.4,1.5,7.9,1.6L16.4,18.7l0-0.3 c-2.4-0.1-5.2-0.7-7.7-1.6C6.2,15.8,4,14.5,2.9,13c-0.6-0.8-0.9-1.7-0.9-2.6c0-0.7,0.2-1.5,0.6-2.3c0.7-1.5,2.5-2.9,4.9-4 c2.4-1.1,5.3-1.8,8.1-2.2c1.5-0.2,3-0.3,4.3-0.3c1,0,1.9,0.1,2.7,0.2c1.7,0.2,3.1,0.6,4,1.1c0.5,0.3,0.9,0.5,1.1,0.8 c0.3,0.3,0.4,0.6,0.5,0.9c0,0.2,0.1,0.3,0.1,0.5c0,0.8-0.5,1.8-1.3,2.7c-0.9,0.9-2.1,1.8-3.5,2.3l-0.8,0.3l0.2,0.8 c0.5,1.6,1.5,4.8,2,6.4l0.3-0.1l-0.1-0.3c-3.1,0.7-5.8,1.1-8,1.1c-0.3,0-0.5,0-0.8,0L16.4,18.7z M24.4,11.2l-0.3,0.1l2.1,6.4l0.2,0 c0,0,1.5,0,3-0.2c0.8-0.1,1.5-0.1,2.1-0.3c0.3-0.1,0.6-0.1,0.8-0.2c0.1,0,0.2-0.1,0.3-0.1c0.1-0.1,0.2-0.1,0.2-0.2 c0.1-0.1,0.1-0.2,0.1-0.3c0-0.2-0.1-0.6-0.1-0.9c-0.3-1.4-1-3.8-1.6-5.8c-0.6-2-1.2-3.7-1.2-3.7l0-1l0.1,1v0c0,0.1-0.9,2-2.7,3.3 c-0.6,0.5-1.5,0.9-2,1.2c-0.3,0.2-0.6,0.3-0.8,0.4c-0.1,0-0.2,0.1-0.2,0.1c0,0-0.1,0-0.1,0L24,11.1l0.1,0.3L24.4,11.2l0.1,0.3 c0,0,1.6-0.8,2.9-1.8c2-1.6,2.6-3.6,2.6-3.7L29.7,6l-0.3,0.1c0,0,0.2,0.6,0.5,1.4c0.4,1.3,1,3.2,1.5,5c0.3,0.9,0.5,1.7,0.6,2.4 c0.1,0.3,0.1,0.6,0.2,0.9c0,0.2,0.1,0.4,0.1,0.6l0,0.1l0,0l0.1,0l-0.1-0.1l0,0l0.1,0l-0.1-0.1l0.1,0.1l-0.1-0.1l0,0l0.1,0.1 l-0.1-0.1l0,0l0,0l0,0l0,0l0,0c0,0-0.1,0.1-0.3,0.1c-0.3,0.1-0.9,0.2-1.5,0.3c-0.9,0.1-1.9,0.2-2.7,0.2c-0.4,0-0.8,0-1,0 c-0.2,0-0.4,0-0.4,0l0,0.3l0.3-0.1l-2.1-6.1L24.4,11.2l0.1,0.3L24.4,11.2z M2.1,13.7l-0.3,0.1l5.9,18.4L8,32.3H7.7c0,0,0-0.1,0-0.1 c0,0.1,0.1,0.1,0.1,0.3c0.2,0.6,0.6,1.7,1,2.7c0.2,0.5,0.4,1,0.5,1.3c0.1,0.2,0.1,0.3,0.2,0.4c0,0.1,0,0.1,0.1,0.1l0,0.1 c0.2,0.4,0.4,1.1,1,1.9c0.5,0.8,1.3,1.6,2.5,2.3c1.3,0.7,3.1,0.9,4.5,0.9c1.4,0,2.5-0.2,2.5-0.2l0-0.3l0,0.3l22.6-1.7l-4.4-22.9 l-0.3,0c0,0-0.6,0-1.3,0c-0.7,0-1.5,0-2,0c0,0-0.1,0-0.1,0c-1,0-5.8,0.2-10,1c-2.2,0.4-4.6,0.7-7.1,0.7c-2.5,0-5.1-0.3-7.5-1 c-1-0.3-1.8-0.5-2.6-0.8c-2.2-0.9-3.4-1.9-4.2-2.6c-0.4-0.3-0.6-0.6-0.7-0.8c-0.1-0.1-0.1-0.2-0.1-0.2l0-0.1l0,0l0,0L2.1,13.7 l0-0.1v0L2.1,13.7l0.2-0.1l-0.6,0.2L2.1,13.7l-0.3,0.1c0,0.1,1,2,5.4,4c0.8,0.4,1.7,0.6,2.7,0.9c2.5,0.7,5.1,1,7.7,1 c2.5,0,4.9-0.3,7.2-0.7c4.1-0.8,8.9-1,9.8-1c0,0,0.1,0,0.1,0c1,0,3.3,0,3.3,0l0-0.3l-0.3,0.1l4.2,21.9L20,41.4l0,0l0,0 c-0.2,0-1.2,0.2-2.4,0.2c-1.4,0-3-0.2-4.2-0.8c-1.1-0.6-1.8-1.4-2.3-2.1c-0.5-0.7-0.7-1.4-0.9-1.8l0,0l0,0l0,0l0,0l0,0 c0,0,0-0.1-0.1-0.3c-0.2-0.5-0.6-1.7-1-2.7c-0.2-0.5-0.4-1-0.5-1.4c-0.1-0.2-0.1-0.3-0.2-0.5c0-0.1,0-0.1,0-0.1l0,0.2l-0.2,0.2h0.2 c0,0,0,0,0,0l-0.2,0h0v-0.4L2.2,13.6L2.1,13.7l-0.3,0.1L2.1,13.7z"/><path transform="rotate(-61.113 16.27 36.232)" class="st0" d="M13.4 36H19.2V36.5H13.4z"/><path class="st0" d="M17.1 34.8L17 34.5 18.5 34.3 18.5 34.5z"/><path class="st0" d="M17.3 34.7L17.1 34.8 16.5 33.4 16.8 33.3z"/><path class="st0" d="M15.4 37.7L15.2 37.8 15.8 39.2 16 39.1z"/><path class="st0" d="M15.5 38L15.4 37.7 14 38 14.1 38.2z"/><path transform="rotate(-61.105 16.273 36.235)" class="st0" d="M16.1 32.7H16.5V39.7H16.1z"/><path class="st0" d="M14.5 35.2L14.3 35.3 13.7 33.9 13.9 33.9z"/><path class="st0" d="M14.4 35L14.5 35.2 13 35.5 12.9 35.3z"/><path class="st0" d="M18.1 37.2L18.2 37.5 19.6 37.2 19.5 37z"/><path class="st0" d="M18.3 37.2L18.1 37.2 18.6 38.6 18.9 38.6z"/><path class="st0" d="M17.5 38.9L17.2 39 15 33.5 15.4 33.5z"/><path class="st0" d="M19.1 35.5L19.2 35.8 13.4 36.9 13.3 36.6z"/><path transform="rotate(-61.118 31.604 34.196)" class="st0" d="M28.3 33.9H34.9V34.5H28.3z"/><path class="st0" d="M32.5 32.5L32.4 32.3 34.1 32 34.2 32.2z"/><path class="st0" d="M32.8 32.5L32.5 32.5 31.9 30.9 32.1 30.9z"/><path class="st0" d="M30.7 35.9L30.4 35.9 31.1 37.5 31.3 37.5z"/><path class="st0" d="M30.8 36.1L30.7 35.9 29 36.2 29.1 36.4z"/><path transform="rotate(-61.113 31.603 34.194)" class="st0" d="M31.4 30H31.9V38.4H31.4z"/><path class="st0" d="M29.5 33L29.2 33.1 28.5 31.5 28.8 31.4z"/><path class="st0" d="M29.4 32.8L29.5 33 27.8 33.3 27.7 33z"/><path class="st0" d="M33.8 35.4L33.9 35.6 35.6 35.4 35.5 35.1z"/><path class="st0" d="M34 35.3L33.8 35.4 34.4 37 34.7 36.9z"/><path class="st0" d="M33.1 37.3L32.8 37.4 30.1 31.1 30.5 31z"/><path class="st0" d="M34.9 33.5L35.1 33.8 28.3 34.9 28.1 34.6z"/><path transform="rotate(-61.113 19.423 25.125)" class="st0" d="M16.8 24.9H22.1V25.299999999999997H16.8z"/><path class="st0" d="M20.2 23.8L20.1 23.6 21.4 23.3 21.5 23.5z"/><path class="st0" d="M20.4 23.7L20.2 23.8 19.7 22.5 19.9 22.5z"/><path class="st0" d="M18.7 26.5L18.5 26.5 18.9 27.8 19.1 27.7z"/><path class="st0" d="M18.7 26.7L18.7 26.5 17.4 26.8 17.5 27z"/><path transform="rotate(-61.113 19.423 25.125)" class="st0" d="M19.2 22.1H19.599999999999998V28.200000000000003H19.2z"/><path class="st0" d="M17.9 24.3L17.7 24.3 17.2 23.1 17.4 23z"/><path class="st0" d="M17.8 24.1L17.9 24.3 16.6 24.5 16.5 24.3z"/><path class="st0" d="M21 26L21.1 26.2 22.4 25.9 22.3 25.7z"/><path class="st0" d="M21.2 26L21 26 21.5 27.2 21.7 27.2z"/><path class="st0" d="M20.5 27.5L20.2 27.6 18.4 22.7 18.7 22.6z"/><path class="st0" d="M21.9 24.5L22 24.7 16.9 25.8 16.8 25.5z"/><path transform="rotate(-61.118 31.323 23.013)" class="st0" d="M29.9 22.9H32.8V23.099999999999998H29.9z"/><path class="st0" d="M31.7 22.3L31.7 22.2 32.4 22 32.4 22.1z"/><path class="st0" d="M31.8 22.3L31.7 22.3 31.5 21.6 31.6 21.6z"/><path class="st0" d="M30.9 23.7L30.8 23.8 31.1 24.4 31.2 24.4z"/><path class="st0" d="M31 23.9L30.9 23.7 30.2 23.9 30.2 24z"/><path transform="rotate(-61.118 31.32 23.012)" class="st0" d="M31.2 21.3H31.4V24.8H31.2z"/><path class="st0" d="M30.4 22.5L30.3 22.5 30.1 21.9 30.2 21.8z"/><path class="st0" d="M30.4 22.4L30.4 22.5 29.7 22.7 29.7 22.6z"/><path class="st0" d="M32.2 23.5L32.3 23.6 33 23.5 32.9 23.4z"/><path class="st0" d="M32.3 23.5L32.2 23.5 32.5 24.2 32.6 24.2z"/><path class="st0" d="M31.9 24.3L31.8 24.4 30.7 21.7 30.9 21.7z"/><path class="st0" d="M32.7 22.7L32.8 22.8 29.9 23.4 29.9 23.2z"/><path transform="rotate(-61.118 7.163 21.446)" class="st0" d="M5.7 21.3H8.6V21.5H5.7z"/><path class="st0" d="M7.6 20.7L7.5 20.6 8.2 20.5 8.3 20.6z"/><path class="st0" d="M7.7 20.7L7.6 20.7 7.3 20 7.4 20z"/><path class="st0" d="M6.8 22.2L6.6 22.2 6.9 22.9 7 22.9z"/><path class="st0" d="M6.8 22.3L6.8 22.2 6 22.3 6.1 22.4z"/><path transform="rotate(-61.118 7.163 21.445)" class="st0" d="M7.1 19.7H7.3V23.2H7.1z"/><path class="st0" d="M6.3 21L6.2 21 5.9 20.3 6 20.3z"/><path class="st0" d="M6.2 20.9L6.3 21 5.6 21.1 5.5 21z"/><path class="st0" d="M8.1 21.9L8.1 22 8.8 21.9 8.8 21.8z"/><path class="st0" d="M8.2 21.9L8.1 21.9 8.3 22.6 8.4 22.6z"/><path class="st0" d="M7.8 22.8L7.6 22.8 6.6 20.1 6.7 20.1z"/><path class="st0" d="M8.6 21.1L8.6 21.3 5.8 21.8 5.7 21.6z"/></svg>