<svg id="Layer_1" xmlns="http://www.w3.org/2000/svg" viewBox="0 0 37.6 50.8"><style>.st0{fill:#77c044}</style><path class="st0" d="M33.7,13.4l-2.9-1.1L30,10.1l1.5-3c0.2-0.4,0.1-0.8-0.2-1l-2.7-2.8c-0.3-0.3-0.7-0.3-1-0.2l-3,1.4l-2.1-0.9 l-1.1-3.2C21.3,0.3,21,0,20.6,0h-3.9c-0.4,0-0.7,0.3-0.9,0.7l-1.1,3.1l-2.1,0.9l-3-1.4c-0.4-0.2-0.8-0.1-1,0.2L5.9,6.2 c-0.3,0.3-0.3,0.7-0.2,1l1.4,3l-0.9,2.1l-2.9,1.1c-0.4,0.1-0.4,0.5-0.4,0.9v3.9c0,0.4,0.1,0.7,0.4,0.9l3,1.1l0.8,2.1l-1.5,3 c-0.2,0.4-0.1,0.8,0.2,1l2.7,2.8c0.3,0.3,0.7,0.3,1,0.2l3-1.4l2.1,0.9l1.1,3c0.1,0.4,0.5,0.5,0.9,0.5h3.9c0.4,0,0.7-0.1,0.9-0.5 l1.1-3l2.1-0.8l3,1.4c0.4,0.2,0.8,0.1,1-0.2l2.8-2.8c0.3-0.3,0.3-0.7,0.2-1l-1.4-3l0.9-2.1l2.7-1.1c0.4-0.1,0.2-0.5,0.2-0.9v-3.9 C33.9,13.8,34,13.5,33.7,13.4z M33,17l-2.9,1.3c-0.3,0.1-0.5,0.4-0.6,0.6l-1.2,2.9c-0.1,0.3-0.1,0.5,0,0.7l1.3,2.8l-1.9,1.9 L25,25.9c-0.2-0.1-0.5-0.1-0.7,0l-2.8,1.2c-0.3,0.1-0.4,0.5-0.5,0.8l-1,3.1h-2.6l-1-3.1c-0.1-0.3-0.3-0.6-0.5-0.7l-2.8-1.2 c-0.3-0.1-0.5-0.1-0.7,0l-2.8,1.3l-1.9-1.9l1.3-2.8c0.1-0.2,0.1-0.5,0-0.7l-1.2-2.8c-0.1-0.3,0-0.4-0.2-0.5l-2.6-1.1v-2.6l2.6-1 c0.3-0.1,0.3-0.3,0.4-0.5L9,10.5C9.1,10.2,9,10,8.9,9.7L7.6,7l1.9-1.9l2.8,1.3c0.2,0.1,0.5,0.1,0.7,0l2.8-1.2 c0.3-0.1,0.4-0.2,0.5-0.5l1-2.8h2.6l1,2.8c0.1,0.3,0.3,0.4,0.5,0.5l2.8,1.2c0.3,0.1,0.5,0.1,0.7,0l2.8-1.3L29.7,7l-1.3,2.8 c-0.1,0.2-0.1,0.5,0,0.7l1.2,2.8c0.1,0.3,0.3,0.4,0.5,0.5l2.9,1V17H33z"/><path class="st0" d="M24.9,19.2l-3.2-2.5c-0.1-0.3-0.3-0.6-0.5-0.8l0.8-0.8c0.2,0,0.4,0.1,0.6,0.1c1.1,0,2.1-0.6,2.7-1.6 c0.6-1,0.5-2.4-0.1-3.3c-0.1-0.1-0.3-0.2-0.4-0.2c-0.1,0-0.3,0.3-0.4,0.4L23.8,12h-0.9l-0.4-1l0.7-1.3c0.1-0.1,0.1-0.3,0-0.5 C23.2,9.1,23,9,22.9,9c-1.2-0.1-2.4,0.5-3,1.5c-0.4,0.7-0.5,1.5-0.4,2.2l-1.5,1.4L14.9,11v-0.7c0-0.2,0-0.3-0.2-0.4L12.9,9 c-0.2-0.1-0.4,0-0.5,0.1l-0.9,0.9c-0.1,0.1-0.2,0.4-0.1,0.5l0.9,2.1c0.1,0.1,0.2,0.5,0.4,0.5h0.7l3.1,2.9l-1.4,1.3 c-0.5-0.1-1-0.2-1.5,0c-0.8,0.2-1.5,0.7-1.9,1.4c-0.6,1-0.5,2.3,0.1,3.3c0.1,0.1,0.3,0.2,0.4,0.2c0.1,0,0.3-0.1,0.4-0.2l0.7-1.2 l0.9-0.1l0.4,0.8L14,22.5c-0.1,0.1-0.1,0.7,0,0.8c0.1,0.1,0.2,0.7,0.4,0.7c0.1,0,0.2,0,0.3,0c1.1,0,2.1-1,2.7-2 c0.4-0.7,0.5-1.7,0.4-2.4l0.8-0.9c0.2,0.3,0.5,0.4,0.8,0.4l2.5,3.2c0.4,0.5,1.1,0.8,1.8,0.8c1.3,0,2.3-1,2.3-2.3 C25.8,20.3,25.4,19.7,24.9,19.2z M20.7,10.9c0.3-0.5,0.8-0.9,1.3-1l-0.4,0.7c-0.1,0.1-0.1,0.3,0,0.4l0.6,1.3 c0.1,0.2,0.3,0.3,0.4,0.3l1.4-0.1c0.1,0,0.3-0.1,0.4-0.2l0.4-0.7c0.1,0.6,0.1,1.1-0.2,1.7c-0.6,1.1-2,1.4-3,0.8 C20.4,13.4,20.1,12,20.7,10.9z M19.9,13.6c0.3,0.5,0.6,0.9,1.1,1.1l0,0l-1,1l-0.1,0.1l-1.1-1.1L19.9,13.6z M16.5,21.2 c-0.3,0.5-0.8,0.9-1.3,1l0.4-0.7c0.1-0.1,0.1-0.3,0-0.4L15,20.1c-0.1-0.1-0.2-0.1-0.4-0.1h0l-1.4-0.1c-0.1,0-0.3,0-0.4,0.1 l-0.4,0.6c-0.1-0.6-0.1-1.2,0.2-1.7c0.3-0.5,0.8-0.9,1.4-1s1.2-0.1,1.7,0.2C16.8,18.8,17.1,20.2,16.5,21.2z M18.3,17.5l-1,1 c-0.3-0.5-0.6-0.9-1.1-1.1l0,0l1.1-1.1l1.1,1.1L18.3,17.5z M14,11.9c-0.1-0.1-0.2,0.1-0.3,0.1h-0.6l-0.6-1.4l0.3-0.5l1.1,0.5v0.6 c0,0.1,0.2,0.2,0.3,0.3l5.1,5L19,16.9L14,11.9z M19.1,18l1.5-1.5c0.1,0,0.2,0.1,0.3,0.3l-1.5,1.5C19.2,18.2,19.1,18.2,19.1,18z M23.5,22.3c-0.4,0-0.8-0.2-1.1-0.5l-2.4-3l1.2-1.2l3,2.4c0.3,0.3,0.5,0.6,0.5,1.1C24.9,21.7,24.3,22.3,23.5,22.3z"/><g><path class="st0" d="M36.5,43.1l0.7-0.5L29,31.2l-0.7,0.5l0.7-0.5c-0.1-0.1-0.2-0.3-0.3-0.4c-0.2-0.1-0.4,0-0.5,0 c-0.2,0-0.3,0.2-0.5,0.2h-0.1l-0.1,0c-0.3,0.1-0.7,0-1.1,0c-0.2,0-0.4,0-0.7,0c-0.2,0-0.4-0.2-0.6-0.1c-0.2,0.1-0.4,0.1-0.6,0.3 l0,0l0,0c-1.4,1.6-3.4,2.6-5.6,2.6c-2.2,0-4.3-1-5.6-2.6l0,0l0,0c-0.1-0.1-0.2-0.2-0.4-0.3c-0.2-0.1-0.4-0.2-0.7-0.2 c-0.1,0-0.3,0-0.4,0.1l0.3,0.8V31c0,0-0.4,0-0.7,0c-0.4,0-0.8-0.2-1.1-0.2l-0.1,0.8l0.2-0.9c-0.1,0-0.2-0.1-0.4-0.1 c-0.3,0-0.6,0.1-0.8,0.2c-0.2,0.1-0.4,0.3-0.5,0.5l0.7,0.5l-0.7-0.5L0.3,42.6L1,43.1l-0.7-0.6c-0.2,0.3-0.4,0.6-0.3,1 c0,0.4,0.2,0.8,0.4,1.1c0.1,0.1,0.5,0.3,0.6,0.4C1.3,45,1.9,45,1.9,45v-0.9l-0.2,1.2L6.4,46h0.5v-1l-0.1,0.3c0,0,0.1,0,0.1,0V45 l-0.3,0.3l0-0.2l-0.2,0.2l0,0l0.1-0.2l-0.1,0.2l0-0.1l0,0l0,0l0-0.1l0,0c0,0,0,0,0.1,0.1l0.7-0.5l-0.8,0.3L8,49.7l0,0 c0.1,0.3,0.3,0.5,0.6,0.7c0.3,0.2,0.6,0.2,0.8,0.2c0.5,0,0.9-0.2,1.3-0.6l0,0L19,38.7l-0.7-0.5l0.7,0.6l-0.2-0.1l0.1,0.2l0.1-0.1 l-0.2-0.1l0.1,0.2l-0.1-0.1v0.2l0.1,0l-0.1-0.1v0.2v-0.2l-0.1,0.1l0.1,0v-0.2l-0.1,0.1l0.1-0.2l-0.2,0.1l0.1,0.1l0.1-0.2l-0.2,0.1 l0.7-0.6l-0.7,0.5l8.2,11.5l0,0c0.3,0.4,0.8,0.6,1.3,0.6c0.3,0,0.6-0.1,0.8-0.2c0.3-0.2,0.5-0.4,0.6-0.7l0,0l1.8-4.6l0-0.1L31,45 l0.3,0.2c0,0,0.1-0.1,0.1-0.1L31,45l0.3,0.2l-0.2-0.2l0.1,0.3c0,0,0.1,0,0.1-0.1l-0.2-0.2l0.5,0.3l0.3-0.1v0.1l0,0l0-0.1V46h-0.6 l5-0.6l0-0.2c0.4-0.1,0.8-0.4,1-0.6c0.2-0.3,0.4-0.7,0.4-1.1c0-0.3-0.1-0.7-0.4-1L36.5,43.1l0.7-0.5L36.5,43.1l-0.7,0.3L36,43 h-0.2c0,0,0,0.1,0.1,0.1L36,43h-0.2H36l-0.1-0.1c0,0,0,0.1,0,0.1H36l-0.1,0.2l0.2,0.3l0-0.2c-0.1,0-0.1,0.1-0.2,0.1l0.2,0.2l0-0.2 l0.1,0.9L36,43.3l-4.6,0.3l0.4,0.9v-0.9c0,0-0.9,0.1-1.2,0.2c-0.1,0.1-0.4,0.2-0.6,0.3c-0.1,0.1-0.3,0.3-0.3,0.5l0.8,0.2l-0.9-0.3 L28,49.2l0.8,0.3L28,49.1l0.2,0.1L28.1,49c0,0-0.1,0.1-0.1,0.1l0.2,0.1l0.2-0.2l0.5,0.2V49c0,0-0.1,0-0.1,0l0.1,0.2V49v0.1L29,49 c0,0-0.1,0-0.1,0v0.1L28.6,49l-0.9,0.6l0.6-0.5l-8.3-11.4l0,0c-0.2-0.2-0.4-0.4-0.6-0.5c-0.2-0.1-0.5-0.1-0.7-0.1 c-0.2,0-0.5,0-0.7,0.1c-0.2,0.1-0.4,0.3-0.6,0.5l0,0L9.3,49l0.7,0.5L9.5,49l0.3,0.1v-0.1c0,0-0.1,0-0.1,0l0.1,0.1v-0.1v0.2L10,49 c0,0-0.1,0-0.1,0v0.2L9.8,49l-0.2,0.2l0.1-0.1c0,0-0.1-0.1-0.1-0.1l-0.1,0.2l0.2-0.1l-0.8,0.4l0.8-0.3l-1.8-4.7l-0.1-0.1 c-0.1-0.2-0.3-0.3-0.5-0.5c-0.1-0.1,0-0.2-0.2-0.2c-0.2-0.1-0.3-0.1-0.3-0.1v0.9l-0.2-1L1.6,43h0.3v0.6L2,43.3c0,0-0.1,0-0.1,0 v0.3l0-0.3l-0.2,0.2l0.1-0.1c0,0-0.1-0.1-0.1-0.1l-0.1,0.2l0.2-0.4L1.6,43h0.2c0,0,0-0.1,0-0.1L1.6,43h0.2H1.5l0.2,0.2 c0,0,0.1-0.2,0.1-0.2H1.5h0.2h0L10,32h0h0l-0.2,0l0.1,0.2c0,0,0.1,0,0.1,0l-0.2-0.1l0.1,0.2l-0.2-0.3v0.4c0,0,0.1,0,0.2,0 l-0.2-0.3v0.4V32l-0.1,0.3l0.1,0V32l-0.1,0.3l0,0l0-0.2c0.5,0.1,1-0.1,1.4-0.1c0.3,0,0.5,0,0.7,0h0.1l0.1,0.2l-0.3-0.3v0.5 c0,0,0.1,0,0.2,0l-0.2-0.5v0.5V32l-0.2,0.3c0,0,0.2,0,0.2,0V32l-0.1,0.3l0.1-0.1l0,0.1l0,0l0.1-0.3L11.8,32h0l0,0.2l0.6-0.5 l-0.7,0.6c1.7,2,4.3,3.3,7,3.3c2.7,0,5.3-1.2,7-3.3l-0.7-0.6l0.6,0.6l-0.1-0.1l0.1,0.2c0,0,0,0,0.1-0.1l-0.1-0.1l0.1,0.2l0,0l0,0 l0,0l0-0.2l0-0.2h0c0.3,0,0.5,0,0.7,0c0.4,0,1,0.2,1.5,0.1l0-0.7v0.9l-0.1,0l-0.1,0l0-0.2l-0.1,0.1l0,0l0-0.2l-0.1,0.1l0.2-0.3 l-0.3,0.2c0,0,0.1,0.1,0.1,0.1l0.2-0.3l-0.3,0.2l0,0l8.3,11.4l0,0L36.5,43.1z"/></g></svg>