<svg id="Layer_1" xmlns="http://www.w3.org/2000/svg" viewBox="0 0 44.3 48"><style>.st0{fill:#cd4828}</style><path class="st0" d="M25.3,14.5c8.6-1,14.8-5.3,14.3-9.2c-0.5-3.9-7.3-5.8-15.9-4.8c-8.6,1-15.2,5-14.7,8.8 C9.5,13.2,16.8,15.5,25.3,14.5z M11,9.1c-0.4-3.4,5.4-6.8,12.9-7.7C31.4,0.5,37.6,2.2,38,5.6c0.4,3.4-5.6,6.7-13.1,7.6 C17.4,14.1,11.4,12.5,11,9.1z"/><path class="st0" d="M25.3,14.5l0,0.2c4.2-0.5,7.8-1.8,10.4-3.4c1.3-0.8,2.3-1.7,3.1-2.7c0.7-1,1.1-2,1.1-3c0-0.1,0-0.3,0-0.4 c-0.1-0.8-0.5-1.6-1.1-2.3c-0.9-1-2.4-1.7-4.2-2.2c-1.8-0.5-4-0.8-6.4-0.8c-1.4,0-2.9,0.1-4.4,0.3C19.6,0.8,15.8,2,13.2,3.5 c-1.3,0.8-2.4,1.6-3.2,2.6C9.2,7,8.8,8,8.8,9c0,0.1,0,0.3,0,0.4c0.1,0.9,0.5,1.7,1.2,2.3c1,1,2.6,1.8,4.5,2.4 c1.9,0.6,4.3,0.9,6.8,0.9c1.3,0,2.6-0.1,4-0.2L25.3,14.5l0-0.2c-1.4,0.2-2.7,0.2-4,0.2c-3.3,0-6.3-0.5-8.4-1.5 c-1.1-0.5-1.9-1-2.6-1.6c-0.6-0.6-1-1.3-1.1-2.1c0-0.1,0-0.2,0-0.4c0-0.9,0.4-1.7,1.1-2.6c1.1-1.3,2.9-2.5,5.2-3.5 c2.3-1,5.1-1.7,8.2-2.1c1.5-0.2,3-0.3,4.4-0.3c3.2,0,6,0.5,8,1.3c1,0.4,1.8,0.9,2.4,1.5c0.6,0.6,0.9,1.3,1,2c0,0.1,0,0.2,0,0.4 c0,0.9-0.4,1.8-1,2.7c-2,2.7-7,5.2-13.1,5.9L25.3,14.5z M11,9.1l0.2,0c0-0.1,0-0.2,0-0.3c0-0.7,0.3-1.5,0.9-2.3 c0.9-1.1,2.5-2.2,4.6-3.1c2-0.9,4.5-1.5,7.2-1.8c1.3-0.2,2.6-0.2,3.8-0.2c2.8,0,5.3,0.4,7.1,1.2c0.9,0.4,1.6,0.8,2.1,1.4 c0.5,0.5,0.8,1.1,0.9,1.7c0,0.1,0,0.2,0,0.3c0,0.7-0.3,1.5-1,2.2c-1,1.1-2.6,2.1-4.6,3c-2.1,0.8-4.6,1.5-7.3,1.8 c-1.4,0.2-2.7,0.2-4,0.2c-2.8,0-5.1-0.4-6.8-1.1c-0.9-0.4-1.5-0.8-2-1.3c-0.5-0.5-0.8-1.1-0.8-1.7L11,9.1l-0.2,0 c0.1,0.7,0.4,1.4,1,2c0.8,0.8,2.1,1.5,3.6,1.9c1.6,0.4,3.5,0.6,5.6,0.6c1.3,0,2.6-0.1,4-0.2c3.7-0.4,7-1.4,9.4-2.8 c1.2-0.7,2.2-1.4,2.9-2.2c0.7-0.8,1.1-1.7,1.1-2.5c0-0.1,0-0.2,0-0.4c-0.1-0.8-0.4-1.4-1-2c-0.8-0.9-2.2-1.5-3.8-2 c-1.6-0.4-3.6-0.7-5.7-0.7c-1.2,0-2.5,0.1-3.8,0.2c-3.7,0.4-6.9,1.5-9.3,2.8c-1.2,0.7-2.1,1.4-2.8,2.2c-0.7,0.8-1.1,1.7-1.1,2.6 c0,0.1,0,0.2,0,0.4L11,9.1z"/><path class="st0" d="M32.4,6.3c-0.1-1.9-4.1-2.9-8.7-2.4c-4.6,0.5-8.1,2.5-7.9,4.4c0.2,1.9,3.4,2.7,8.5,2.3 C29.8,10.1,32.5,8,32.4,6.3z M17.6,8.3c-0.3-1.6,3.2-3,7.2-3.2c3.3-0.2,5.8,0.3,6,1.4c0.2,1-2.4,2.4-5.9,2.8 C20.8,9.8,17.8,9.7,17.6,8.3z"/><path class="st0" d="M32.4,6.3l0.2,0c0-0.5-0.3-0.9-0.6-1.2c-0.5-0.5-1.4-0.9-2.4-1.1c-1-0.3-2.2-0.4-3.6-0.4 c-0.8,0-1.6,0-2.4,0.1C21.5,4,19.5,4.6,18,5.4c-0.7,0.4-1.3,0.8-1.7,1.3c-0.4,0.5-0.7,1-0.7,1.5c0,0.1,0,0.1,0,0.2 c0.1,0.4,0.3,0.8,0.6,1.2c0.5,0.5,1.2,0.8,2.2,1.1c1,0.2,2.1,0.4,3.5,0.4c0.8,0,1.6,0,2.5-0.1c2.7-0.2,4.7-0.9,6.1-1.7 c0.7-0.4,1.2-0.8,1.6-1.3c0.4-0.5,0.6-0.9,0.6-1.4l0-0.1L32.4,6.3l-0.2,0l0,0.1c0,0.3-0.1,0.7-0.5,1.1c-1,1.2-3.5,2.5-7.4,2.8 c-0.9,0.1-1.7,0.1-2.5,0.1c-1.8,0-3.2-0.2-4.2-0.6c-0.5-0.2-0.9-0.4-1.1-0.7c-0.3-0.3-0.4-0.6-0.4-0.9c0,0,0-0.1,0-0.1 c0-0.4,0.2-0.8,0.5-1.2c0.6-0.6,1.5-1.2,2.8-1.7c1.2-0.5,2.7-0.9,4.4-1.1c0.8-0.1,1.6-0.1,2.4-0.1c1.7,0,3.3,0.2,4.4,0.7 c0.5,0.2,1,0.5,1.3,0.7C32,5.8,32.2,6,32.2,6.4L32.4,6.3z M17.6,8.3l0.2,0c0,0,0-0.1,0-0.1c0-0.3,0.2-0.6,0.5-0.9 c0.5-0.5,1.4-0.9,2.6-1.2c1.1-0.3,2.5-0.6,4-0.7c0.5,0,1-0.1,1.5-0.1c1.3,0,2.3,0.1,3.1,0.4C29.7,5.7,30,5.9,30.2,6 c0.2,0.2,0.3,0.3,0.3,0.5l0,0.1c0,0.2-0.1,0.4-0.4,0.6c-0.4,0.4-1.1,0.8-2,1.1c-0.9,0.3-2.1,0.6-3.3,0.8c-1.3,0.2-2.6,0.3-3.6,0.3 c-1,0-1.9-0.1-2.5-0.3c-0.3-0.1-0.5-0.2-0.7-0.3c-0.2-0.1-0.2-0.3-0.3-0.4L17.6,8.3l-0.2,0c0,0.3,0.2,0.5,0.4,0.7 c0.3,0.3,0.8,0.5,1.4,0.6c0.6,0.1,1.3,0.2,2.1,0.2c1.1,0,2.3-0.1,3.7-0.3c1.7-0.2,3.2-0.6,4.3-1.2c0.5-0.3,1-0.5,1.3-0.8 C30.8,7.3,31,7,31,6.6c0,0,0-0.1,0-0.1c0-0.3-0.2-0.6-0.5-0.8c-0.4-0.3-1-0.5-1.7-0.7c-0.7-0.1-1.6-0.2-2.5-0.2 c-0.5,0-1,0-1.5,0.1c-2,0.1-3.8,0.5-5.2,1.1c-0.7,0.3-1.2,0.6-1.7,1c-0.4,0.4-0.7,0.8-0.7,1.3c0,0.1,0,0.1,0,0.2L17.6,8.3z"/><path class="st0" d="M32,14.5c-0.7,0.5-0.4,0.6,0,2.9c0.4,2.4,2.1,12.8,2.9,17.6c0.5,3.1,0.7,3.2,2,2.9c1.5-0.4,7-3.7,7.2-7.1 c0.1-1.8-3.3-22.9-3.3-22.9C40.2,11.1,32.7,13.9,32,14.5z M42.4,28.6c0.2,2.1,0.6,2.5-0.6,4.1c-1.1,1.6-2.4,2.4-3.3,3 c-1.1,0.8-1.8,0.8-1.8,0.8c-0.1-0.1-0.4-1.7-0.5-2.6c-0.1-0.9-1.3-7.5-1.9-11.6c-0.6-4.1-1-6.1-1.1-7c-0.1-0.4,1.8-0.8,3.6-1.8 c1.4-0.8,3.2-2,3.2-2C39.9,11.3,42.3,27.3,42.4,28.6z"/><path class="st0" d="M32,14.5l-0.1-0.2c-0.2,0.1-0.3,0.2-0.4,0.4c-0.1,0.1-0.1,0.3-0.1,0.5c0,0.2,0,0.5,0.1,0.8 c0.1,0.4,0.2,0.8,0.3,1.5c0.4,2.4,2.1,12.8,2.9,17.6c0.2,1.2,0.4,2,0.5,2.4c0.1,0.2,0.2,0.4,0.4,0.6c0.2,0.1,0.4,0.2,0.6,0.2 c0.2,0,0.5-0.1,0.8-0.1c0.4-0.1,1-0.4,1.8-0.8c1.1-0.6,2.5-1.6,3.6-2.7c1.1-1.1,2-2.4,2.1-3.8c0,0,0-0.1,0-0.1 c0-0.3-0.1-0.9-0.1-1.7C43.6,23.4,41,7.8,41,7.8l-0.2-1.4l-0.2,1.4c-0.1,0.7-0.7,1.5-1.5,2.2c-1.2,1.1-2.9,2-4.3,2.8 c-0.7,0.4-1.4,0.7-1.9,0.9c-0.3,0.1-0.5,0.2-0.7,0.3c-0.2,0.1-0.3,0.2-0.4,0.2L32,14.5l0.1,0.2c0,0,0.1-0.1,0.2-0.1 c0.3-0.2,1-0.5,1.9-0.9c1.3-0.6,2.8-1.4,4.2-2.4c1.3-1,2.5-2.1,2.7-3.3l-0.2,0l-0.2,0c0,0,0.1,0.3,0.1,0.9c0.3,2,1.1,6.9,1.8,11.6 c0.4,2.4,0.7,4.7,0.9,6.5c0.2,1.8,0.4,3.2,0.4,3.8c0,0,0,0.1,0,0.1c-0.1,0.8-0.4,1.6-1,2.4c-0.8,1.2-2.1,2.2-3.3,3 c-0.6,0.4-1.2,0.7-1.7,1c-0.5,0.3-0.9,0.4-1.1,0.5c-0.3,0.1-0.5,0.1-0.7,0.1c-0.1,0-0.2,0-0.3-0.1c-0.1-0.1-0.2-0.3-0.4-0.8 c-0.1-0.4-0.2-1.1-0.4-2c-0.8-4.8-2.5-15.2-2.9-17.6c-0.1-0.7-0.2-1.1-0.3-1.5c-0.1-0.4-0.1-0.6-0.1-0.7c0-0.1,0-0.2,0.1-0.2 c0-0.1,0.1-0.1,0.3-0.3L32,14.5z M42.4,28.6l-0.2,0c0.1,1,0.2,1.6,0.2,2c0,0.3,0,0.6-0.2,0.9c-0.1,0.3-0.3,0.6-0.6,1.1 c-1.1,1.5-2.3,2.3-3.3,2.9c-0.5,0.4-1,0.5-1.3,0.6c-0.1,0-0.3,0.1-0.3,0.1l0.3,0l0.4,0v0v0v0v0v0l-0.4,0.2l0-0.2l-0.2,0.1l0.1-0.1 l0,0l-0.1,0.1l0.1-0.1l-0.1,0l0,0l0,0l0,0l0.1,0c0,0,0,0,0-0.1c-0.1-0.2-0.1-0.6-0.2-1.1c-0.1-0.4-0.1-0.9-0.2-1.3 c-0.1-0.5-0.4-2.3-0.7-4.6c-0.4-2.3-0.8-4.9-1.1-7c-0.6-4.1-1-6.2-1.1-7.1l-0.1-0.1h0.1l0,0l-0.1,0h0.1h-0.1l0.1,0l0,0h-0.1 l0.1,0.1l0.5,0l0.5,0v0l-0.5,0l-0.3,0c0,0,0-0.1,0.2-0.2c0.6-0.3,1.8-0.7,3.1-1.4c1.4-0.8,3.4-2.1,3.4-2.1l0.1-0.2v0.2v-0.2 l-0.1,0.2c0,0,0.1,0,0.1,0v-0.2L40,11.7l0-0.2l-0.3,0.1c0,0,0,0,0,0.1l0.1-0.2l-0.2,0.1l0.2-0.1l-0.2,0.1l0,0l0.2-0.1l-0.2,0.1 l0.1,0l-0.1,0l0,0l0.1,0l-0.1,0c0,0,0,0.1,0,0.2c0.2,1,0.8,4.9,1.3,8.7c0.3,1.9,0.6,3.8,0.8,5.3c0.2,1.5,0.4,2.6,0.4,2.8 L42.4,28.6l0.2,0c0-0.3-0.2-1.6-0.4-3.2c-0.4-2.5-0.9-6-1.3-8.8c-0.2-1.4-0.4-2.7-0.5-3.6c-0.1-0.5-0.1-0.8-0.2-1.1 c0-0.1,0-0.2,0-0.3l0-0.1l0,0l0,0l0,0l0-0.1c0,0-0.1-0.1-0.2-0.1h-0.1l-0.1,0.1c0,0-0.1,0.1-0.3,0.2c-0.6,0.4-1.8,1.3-2.9,1.8 c-0.9,0.5-1.8,0.8-2.4,1.1c-0.3,0.1-0.6,0.3-0.8,0.4c-0.1,0.1-0.2,0.1-0.3,0.2c0,0-0.1,0.1-0.1,0.1c0,0.1-0.1,0.1-0.1,0.2l0,0.1 c0.1,0.9,0.5,2.9,1.1,7c0.3,2,0.8,4.7,1.1,7c0.4,2.3,0.7,4.1,0.7,4.6c0.1,0.5,0.1,1.1,0.2,1.6c0,0.3,0.1,0.5,0.1,0.7 c0,0.1,0,0.2,0.1,0.2l0,0.1c0,0,0,0.1,0.1,0.1l0.1,0.1l0.1,0c0,0,0.8,0,1.9-0.8c0.9-0.6,2.2-1.4,3.4-3c0.3-0.5,0.6-0.8,0.7-1.2 c0.1-0.4,0.2-0.7,0.2-1c0-0.6-0.1-1.2-0.2-2.1L42.4,28.6z"/><path class="st0" d="M33.2,36.5c-0.5-2-4-21.1-4-21.1s-2.9,0.5-5,0.7c-4.2,0.3-6.4,0-6.4,0s4.1,19.3,4.5,21.2 c0.5,2.4,0.6,3.6,2.3,3.8c1.8,0.2,5.3,0,7.5-1.3C32.9,39.4,33.7,38.5,33.2,36.5z M30.9,39.1c-1,0.5-1.9,0.8-3,0.9 c-1.4,0.1-3.3,0.1-3.7-0.5c-0.3-0.4-0.4-0.9-0.6-1.8c-1-4.8-4.2-20.5-4.2-20.5s2.5,0.1,4.8,0c1.3-0.1,4.1-0.5,4.1-0.5 c-0.1,0,2.7,14.8,2.8,15.6c0.4,2.3,0.8,4,0.9,4.8C32.2,38.5,31.7,38.7,30.9,39.1z"/><path class="st0" d="M33.2,36.5l0.2-0.1c-0.2-1-1.2-6.3-2.2-11.3c-0.5-2.5-0.9-5-1.3-6.8c-0.2-0.9-0.3-1.7-0.4-2.2 c-0.1-0.5-0.2-0.8-0.2-0.8l0-0.2l-0.2,0c0,0-0.2,0-0.5,0.1c-0.9,0.2-2.9,0.5-4.5,0.6C22.7,16,21.5,16,20.5,16c-0.9,0-1.6,0-2-0.1 c-0.2,0-0.4,0-0.5,0c-0.1,0-0.2,0-0.2,0l-0.3,0l0.1,0.3c0,0,4.1,19.3,4.5,21.2c0.3,1.2,0.4,2.1,0.7,2.8c0.2,0.3,0.4,0.6,0.7,0.8 c0.3,0.2,0.7,0.3,1.1,0.4c0.4,0.1,0.9,0.1,1.5,0.1c1.9,0,4.4-0.4,6.2-1.5c0.3-0.2,0.6-0.4,0.9-0.8c0.2-0.4,0.4-0.9,0.4-1.5 c0-0.3,0-0.7-0.1-1.2L33.2,36.5L33,36.6c0.1,0.4,0.1,0.8,0.1,1.1c0,0.6-0.1,1-0.3,1.3c-0.2,0.3-0.5,0.5-0.7,0.7 c-1.7,1-4.1,1.4-6,1.4c-0.5,0-1,0-1.4-0.1c-0.4-0.1-0.7-0.2-0.9-0.3c-0.3-0.2-0.5-0.6-0.7-1.1c-0.2-0.5-0.3-1.3-0.5-2.2 c-0.2-1-1.3-6.3-2.4-11.3c-0.5-2.5-1.1-5-1.5-6.9c-0.2-0.9-0.4-1.7-0.5-2.2c-0.1-0.5-0.2-0.8-0.2-0.8l-0.2,0l0,0.2 c0,0,0.9,0.1,2.8,0.1c1,0,2.2,0,3.7-0.1c2.2-0.2,5-0.7,5-0.7l0-0.2l-0.2,0c0,0,0.9,4.8,1.8,9.8c0.9,5,1.9,10.3,2.2,11.3L33.2,36.5 z M30.9,39.1l-0.1-0.2c-0.9,0.5-1.8,0.8-2.9,0.8c-0.4,0-0.9,0.1-1.3,0.1c-0.5,0-1,0-1.4-0.1c-0.2,0-0.4-0.1-0.5-0.2 c-0.1-0.1-0.2-0.1-0.3-0.2c-0.1-0.2-0.2-0.4-0.3-0.7c-0.1-0.3-0.2-0.6-0.2-1.1c-1-4.8-4.2-20.5-4.2-20.5l-0.2,0l0,0.2 c0,0,1,0.1,2.4,0.1c0.8,0,1.6,0,2.4-0.1c1.3-0.1,4.1-0.5,4.1-0.5l-0.1-0.5c-0.1,0-0.1,0-0.1,0.1c-0.1,0-0.1,0.1-0.1,0.1 c0,0.1,0,0.1,0,0.1c0,0,0,0.1,0,0.1c0,0.3,0.2,1.4,0.5,2.9c0.8,4.4,2.2,12.1,2.3,12.7c0.4,2.3,0.8,4,0.9,4.8c0,0.2,0,0.4,0,0.5 c0,0.4-0.1,0.6-0.2,0.7c-0.2,0.2-0.4,0.3-0.8,0.5L30.9,39.1l0.1,0.2c0.3-0.2,0.6-0.3,0.9-0.6c0.2-0.3,0.4-0.6,0.4-1.1 c0-0.2,0-0.4-0.1-0.6c-0.1-0.9-0.6-2.6-0.9-4.8c-0.1-0.4-0.8-4.2-1.5-7.9c-0.3-1.9-0.7-3.7-0.9-5.2c-0.1-0.7-0.2-1.3-0.3-1.7 c0-0.2-0.1-0.4-0.1-0.5c0-0.1,0-0.1,0-0.2l0,0v-0.1l0,0.6h0v-0.5l0,0.5h0h-0.2l0.2,0l0,0h-0.2l0.2-0.2l-0.2-0.2l0.2,0.1l0-0.1 l-0.2-0.1l0.2,0.1l-0.2-0.1l0.2,0.2l0.1-0.1l-0.2-0.1l0.2,0.2l-0.2-0.2l0,0.2c0.1,0,0.1,0,0.1-0.1l-0.2-0.2l0,0.2l0-0.2l0-0.2 c0,0-0.7,0.1-1.5,0.2c-0.9,0.1-1.9,0.2-2.5,0.3c-0.8,0-1.7,0.1-2.4,0.1c-0.7,0-1.3,0-1.7,0c-0.4,0-0.7,0-0.7,0L19,17l0.1,0.3 c0,0,0.2,1,0.5,2.5c1,4.6,3,14.4,3.7,17.9c0.1,0.5,0.2,0.8,0.3,1.1c0.1,0.3,0.2,0.6,0.4,0.8c0.1,0.2,0.3,0.3,0.4,0.3 c0.5,0.2,1.3,0.3,2.1,0.3c0.5,0,0.9,0,1.4-0.1c1.1-0.1,2.1-0.4,3.1-0.9L30.9,39.1z"/><path class="st0" d="M15.5,15.8c0,0-1.8-0.3-3.9-1.4c-1.4-0.8-2.2-1.8-2.2-1.8s4.6,21.2,5,23.5c0.5,2.6,1.2,3.2,2.8,4 c1.2,0.6,4,1.4,3.9,0.8C21,40.2,15.5,15.8,15.5,15.8z M17.3,38.6c-1-0.6-1.6-2-1.9-3.7C15.1,33.4,11,15.1,11,15.1s0.5,0.4,1.5,0.8 c0.9,0.4,2.1,0.8,2.1,0.8s5.3,23,5.1,23C19.1,39.6,18,39,17.3,38.6z"/><path class="st0" d="M15.5,15.8l0-0.2c0,0,0,0-0.1,0c-0.4-0.1-1.9-0.4-3.7-1.4c-0.7-0.4-1.2-0.8-1.6-1.1c-0.2-0.2-0.3-0.3-0.4-0.4 c0-0.1-0.1-0.1-0.1-0.1l0,0l0,0L9,11.6l0.2,1c0,0,0.1,0.3,0.2,0.9c0.9,4.1,4.4,20.6,4.8,22.6c0.2,1.3,0.6,2.2,1,2.8 c0.5,0.6,1.1,1,1.9,1.4c0.5,0.2,1.2,0.5,1.8,0.7c0.7,0.2,1.3,0.4,1.8,0.4c0.1,0,0.3,0,0.4-0.1c0.1,0,0.1-0.1,0.2-0.1 c0.1-0.1,0.1-0.1,0.1-0.2l0-0.1v0c0-0.3-1.5-6.6-2.9-12.8c-0.7-3.1-1.4-6.2-1.9-8.5c-0.3-1.2-0.5-2.1-0.6-2.8s-0.2-1.1-0.2-1.1 l0-0.2l-0.2,0L15.5,15.8L15,15.8c0,0,5.4,24.4,5.4,25.1v0l0.5,0.3h0.5v-0.4l-0.5,0.4h0H21l-0.1-0.1l0,0.1H21L20.9,41l0,0l0-0.1 l0,0l0,0l0-0.1c0,0-0.1,0-0.2,0c-0.3,0-1-0.1-1.6-0.3c-0.7-0.2-1.3-0.5-1.8-0.7c-0.8-0.4-1.3-0.7-1.7-1.3 c-0.4-0.5-0.7-1.3-0.9-2.6c-0.4-2.3-5-23.5-5-23.5l-0.2,0l-0.2,0.1c0,0,0.8,1.1,2.3,1.8c2.1,1.2,3.9,1.5,4,1.5L15.5,15.8l-0.2,0.1 L15.5,15.8z M17.3,38.6l0.1-0.2c-0.4-0.2-0.8-0.7-1.1-1.3c-0.3-0.6-0.5-1.4-0.7-2.2c-0.1-0.8-1.2-5.7-2.3-10.5 c-1.1-4.8-2.1-9.3-2.1-9.3L11,15.1l-0.1,0.2c0,0,0.6,0.4,1.5,0.8c1,0.4,2.1,0.8,2.1,0.8l0.1-0.2l-0.2,0.1c0,0,0.1,0.3,0.2,1 c0.5,2.1,1.7,7.5,2.8,12.3c0.5,2.4,1.1,4.8,1.4,6.5c0.2,0.9,0.3,1.6,0.5,2.2c0.1,0.3,0.1,0.5,0.1,0.6c0,0.1,0,0.1,0,0.2l0,0.1l0,0 v-0.4h0.1l-0.2,0l0,0h0.2l-0.2,0.2l0.2,0.2l-0.2-0.1l0,0.1l0.2,0.1l0.2-0.1l0.6,0.1v-0.2c-1,0-0.2,0.1-0.2,0.1l0.2,0.1v-0.2v0.2 l-0.4-0.2c-0.2,0-0.8-0.2-1.2-0.4c-0.4-0.2-1-0.4-1.4-0.6L17.3,38.6l-0.1,0.2c0.4,0.2,0.8,0.5,1.3,0.7c0.4,0.2,0.8,0,1.1,0.1 l0-0.3h0c0.1,0,0.2,0.1,0.2,0.1c0-0.1,0-0.1,0-0.1h0c0,0,0,0.1,0,0c-0.1-0.5-0.4-2.1-0.9-4.3c-1.5-6.7-4.2-18.3-4.2-18.3l0-0.1 l-0.1,0c0,0-0.1,0-0.2-0.1c-0.4-0.1-1.2-0.4-1.8-0.7c-0.5-0.2-0.8-0.4-1.1-0.5c-0.1-0.1-0.2-0.1-0.3-0.2l-0.1,0l0,0l-0.5-0.3 l0.1,0.6c0,0,0.1,0.3,0.2,0.8c0.4,1.8,1.4,6.2,2.3,10.3c0.9,4.1,1.8,8,1.9,8.7c0.2,0.9,0.4,1.7,0.7,2.3c0.3,0.7,0.7,1.2,1.3,1.5 L17.3,38.6z"/><path class="st0" d="M10.1,42.3c1.2-1.5,3-4.1,3-4.1L7.6,12c0,0-2.2,4.8-3.1,6.1c-1.8,2.4-4.2,4.4-4.2,4.4L6,47.4 C6,47.4,9,43.6,10.1,42.3z M4.7,20c1.2-1.4,2.4-4.1,2.4-4.1C7.9,19.1,11.7,38,11.7,38s-2,2.7-2.4,3.2c-0.4,0.5-2.5,3.4-2.5,3.4 L2,23C2,23,3.8,21.1,4.7,20z"/><path class="st0" d="M10.1,42.3l0.2,0.1c1.2-1.5,3-4.1,3-4.1l0.1-0.1l-5.7-27L7.4,12c0,0-0.1,0.3-0.4,0.8 c-0.3,0.7-0.8,1.8-1.4,2.8c-0.5,1-1,2-1.4,2.5c-0.9,1.2-1.9,2.3-2.7,3.1c-0.4,0.4-0.8,0.7-1,0.9c-0.1,0.1-0.2,0.2-0.3,0.3 c-0.1,0.1-0.1,0.1-0.1,0.1L0,22.5L5.9,48l0.3-0.4c0,0,0.2-0.2,0.5-0.6c0.9-1.1,2.8-3.5,3.6-4.5L10.1,42.3l-0.2-0.2 c-1.1,1.3-4.1,5.1-4.1,5.1L6,47.4l0.2-0.1L0.5,22.5l-0.2,0.1l0.1,0.2c0,0,2.4-2,4.2-4.4c0.3-0.3,0.6-0.9,0.9-1.5 c1-1.9,2.2-4.6,2.2-4.6L7.6,12l-0.2,0l5.6,26.2l0.2,0l-0.2-0.1c0,0-0.1,0.2-0.3,0.4c-0.6,0.8-1.8,2.5-2.7,3.6L10.1,42.3z M4.7,20 l0.2,0.2c0.6-0.7,1.2-1.7,1.7-2.6C7,16.7,7.3,16,7.3,16l-0.2-0.1L6.9,16c0.4,1.6,1.5,7.1,2.6,12.3c0.5,2.6,1,5,1.4,6.8 c0.2,0.9,0.3,1.7,0.4,2.2c0.1,0.5,0.2,0.8,0.2,0.8l0.2,0l-0.2-0.1c0,0-0.5,0.7-1,1.4c-0.5,0.7-1.2,1.5-1.3,1.8 c-0.1,0.1-0.3,0.4-0.6,0.7c-0.8,1-1.9,2.6-1.9,2.6l0.2,0.1L7,44.5L2.2,22.9L2,23l0.2,0.2c0,0,1.8-1.9,2.7-3L4.7,20l-0.2-0.2 c-0.5,0.5-1.1,1.3-1.7,1.9c-0.6,0.6-1,1.1-1,1.1l-0.1,0.1l4.9,22.2L7,44.7c0,0,0.5-0.7,1.1-1.5c0.3-0.4,0.6-0.8,0.8-1.1 c0.3-0.3,0.5-0.6,0.6-0.7c0.2-0.3,0.8-1.1,1.4-1.8c0.5-0.7,1-1.4,1-1.4l0.1-0.1l0-0.1c0,0-0.9-4.7-2-9.8c-1-5.1-2.2-10.6-2.6-12.3 l-0.2-0.6l-0.3,0.6c0,0-0.1,0.2-0.2,0.4c-0.4,0.8-1.3,2.6-2.2,3.6L4.7,20z"/></svg>