<?xml version="1.0" encoding="utf-8"?>
<!-- Generator: Adobe Illustrator 19.2.1, SVG Export Plug-In . SVG Version: 6.00 Build 0)  -->
<svg version="1.1" id="Layer_1" xmlns="http://www.w3.org/2000/svg" xmlns:xlink="http://www.w3.org/1999/xlink" x="0px" y="0px"
	 viewBox="0 0 39.6 39.6" style="enable-background:new 0 0 39.6 39.6;" xml:space="preserve">
<style type="text/css">
	.st0{fill:#E6962A;}
</style>
<g>
	<path class="st0" d="M19.8,39.6C8.9,39.6,0,30.7,0,19.8S8.9,0,19.8,0s19.8,8.9,19.8,19.8S30.7,39.6,19.8,39.6z M19.8,1.7
		c-10,0-18.2,8.2-18.2,18.2S9.8,38,19.8,38S38,29.8,38,19.8S29.8,1.7,19.8,1.7z"/>
	<g>
		<g>
			<path class="st0" d="M16.4,17.6l-0.3-0.4c-0.2-0.2-4.5-5.4-3.4-9.2c0.5-1.6,1.7-2.6,3.8-3.3c4.5-1.3,7.3-1.2,8.3,0.6
				c0.7,1.1,0.6,2.6-0.3,4.4c-1.7,3.5-3,5.9-3,5.9l-0.2,0.2L16.4,17.6z M21.4,5.4c-1.2,0-2.6,0.2-4.5,0.8c-1.5,0.4-2.3,1.2-2.6,2.1
				c-0.7,2.2,1.5,5.6,2.7,7.2l3.3-1.2c0.4-0.7,1.5-2.7,2.8-5.5c0.6-1.3,0.7-2.3,0.4-2.8C23.1,5.5,22.1,5.4,21.4,5.4z"/>
			<path class="st0" d="M19.6,35.8c-2.9,0-4.6-0.7-5.4-2c-0.6-1.2-0.3-2.7,1-4.5c2.2-3.2,4-5.3,4-5.4l0.2-0.2l5.2-0.8l0.2,0.5
				c0.2,0.2,3.5,6.1,1.7,9.7c-0.7,1.5-2.2,2.3-4.3,2.6C21.4,35.7,20.5,35.8,19.6,35.8z M20.3,25.3c-0.5,0.7-2,2.5-3.7,5
				c-0.8,1.2-1.2,2.2-0.8,2.8c0.2,0.4,1,1.1,3.9,1.1c0.7,0,1.7-0.1,2.6-0.2c1.6-0.2,2.6-0.7,3.1-1.7c1.1-2.1-0.5-5.9-1.4-7.6
				L20.3,25.3z"/>
		</g>
		<g>
			<path class="st0" d="M32.8,24.8c-0.8,0-1.7-0.2-2.7-0.7c-3.5-1.7-5.9-3-5.9-3l-0.2-0.2l-1.8-5l0.4-0.3c0.2-0.2,4.2-3.5,7.8-3.5
				c1.6,0,3.7,0.7,4.7,4c1.1,3.9,1.2,6.4,0.1,7.8C34.5,24.4,33.8,24.8,32.8,24.8z M25.2,19.7c0.7,0.4,2.7,1.5,5.5,2.8
				c0.8,0.4,1.6,0.6,2.1,0.6c0.6,0,0.8-0.2,1-0.4c0.4-0.5,0.8-2-0.3-6.3c-0.7-2.5-2.1-2.8-3.1-2.8c-2.4,0-5.2,2-6.3,2.8L25.2,19.7z"
				/>
			<path class="st0" d="M9,26.7c-2.9,0-4.7-1.7-5-4.9c-0.4-3.8-0.1-6.3,1.1-7.4c1.2-1.2,3.1-1.2,5.3,0.4c3.2,2.3,5.3,4,5.3,4
				l0.2,0.2l0.8,5.2l-0.5,0.2C16,24.6,12.3,26.7,9,26.7z M7,15.2c-0.3,0-0.6,0.1-0.7,0.3c-0.4,0.5-1.1,1.9-0.7,6.2
				C5.9,24,6.9,25.1,9,25.1c2.2,0,4.8-1.2,5.9-1.7L14.4,20c-0.7-0.5-2.5-1.9-5-3.7C8.2,15.4,7.4,15.2,7,15.2z"/>
		</g>
		<path class="st0" d="M19.8,23.3c-1.7,0-3.1-1.4-3.1-3.1s1.4-3.1,3.1-3.1c1.7,0,3.1,1.4,3.1,3.1S21.5,23.3,19.8,23.3z M19.8,18.7
			c-0.8,0-1.5,0.7-1.5,1.5s0.7,1.5,1.5,1.5s1.5-0.7,1.5-1.5S20.6,18.7,19.8,18.7z"/>
	</g>
</g>
</svg>
