<?xml version="1.0" encoding="UTF-8" standalone="no"?>
<svg width="469px" height="186px" viewBox="0 0 469 186" version="1.1" xmlns="http://www.w3.org/2000/svg" xmlns:xlink="http://www.w3.org/1999/xlink">
    <!-- Generator: Sketch 3.6.1 (26313) - http://www.bohemiancoding.com/sketch -->
    <title>footerheronobg</title>
    <desc>Created with Sketch.</desc>
    <defs>
        <linearGradient x1="-6.07676204%" y1="43.9740306%" x2="103.926961%" y2="54.5559476%" id="linearGradient-1">
            <stop stop-color="#000000" offset="0%"></stop>
            <stop stop-color="#484848" offset="100%"></stop>
        </linearGradient>
        <linearGradient x1="63.495245%" y1="27.5931988%" x2="35.8992459%" y2="68.9258075%" id="linearGradient-2">
            <stop stop-color="#FFDFB2" offset="0%"></stop>
            <stop stop-color="#FBBB6C" offset="100%"></stop>
        </linearGradient>
        <linearGradient x1="-6.5577408%" y1="43.9951398%" x2="105.002466%" y2="54.8190205%" id="linearGradient-3">
            <stop stop-color="#000000" offset="0%"></stop>
            <stop stop-color="#484848" offset="100%"></stop>
        </linearGradient>
        <linearGradient x1="52.0855688%" y1="45.3790481%" x2="35.5301975%" y2="75.6757362%" id="linearGradient-4">
            <stop stop-color="#FFDFB2" offset="0%"></stop>
            <stop stop-color="#FBBB6C" offset="100%"></stop>
        </linearGradient>
        <linearGradient x1="76.6262336%" y1="9.58162599%" x2="31.2098706%" y2="80.0229845%" id="linearGradient-5">
            <stop stop-color="#7E3D1B" offset="0%"></stop>
            <stop stop-color="#3F160A" offset="100%"></stop>
        </linearGradient>
        <linearGradient x1="-21.2795848%" y1="284.291741%" x2="36.5685201%" y2="96.4608159%" id="linearGradient-6">
            <stop stop-color="#000000" offset="0%"></stop>
            <stop stop-color="#484848" offset="100%"></stop>
        </linearGradient>
        <linearGradient x1="54.7018237%" y1="-17.3722401%" x2="48.3598933%" y2="73.390909%" id="linearGradient-7">
            <stop stop-color="#6BC9F2" offset="0%"></stop>
            <stop stop-color="#327EC0" offset="100%"></stop>
        </linearGradient>
        <linearGradient x1="12.5382697%" y1="151.974472%" x2="72.1394946%" y2="-0.752062302%" id="linearGradient-8">
            <stop stop-color="#515050" offset="0%"></stop>
            <stop stop-color="#99999A" offset="100%"></stop>
        </linearGradient>
        <linearGradient x1="34.0333222%" y1="97.0828396%" x2="93.6058098%" y2="-55.570056%" id="linearGradient-9">
            <stop stop-color="#515050" offset="0%"></stop>
            <stop stop-color="#99999A" offset="100%"></stop>
        </linearGradient>
        <linearGradient x1="12.4874373%" y1="152.179747%" x2="72.0886623%" y2="-0.546786891%" id="linearGradient-10">
            <stop stop-color="#515050" offset="0%"></stop>
            <stop stop-color="#99999A" offset="100%"></stop>
        </linearGradient>
        <linearGradient x1="94.4371672%" y1="-45.8526043%" x2="24.8452233%" y2="104.191847%" id="linearGradient-11">
            <stop stop-color="#515050" offset="0%"></stop>
            <stop stop-color="#99999A" offset="100%"></stop>
        </linearGradient>
        <linearGradient x1="12.3453516%" y1="152.355866%" x2="71.9465765%" y2="-0.370668715%" id="linearGradient-12">
            <stop stop-color="#515050" offset="0%"></stop>
            <stop stop-color="#99999A" offset="100%"></stop>
        </linearGradient>
        <linearGradient x1="33.9293177%" y1="97.4642331%" x2="93.5018052%" y2="-55.1886625%" id="linearGradient-13">
            <stop stop-color="#515050" offset="0%"></stop>
            <stop stop-color="#99999A" offset="100%"></stop>
        </linearGradient>
        <linearGradient x1="12.4484251%" y1="152.093356%" x2="71.5486845%" y2="-0.633178373%" id="linearGradient-14">
            <stop stop-color="#515050" offset="0%"></stop>
            <stop stop-color="#99999A" offset="100%"></stop>
        </linearGradient>
        <linearGradient x1="94.4102252%" y1="-45.9711239%" x2="24.8182813%" y2="104.073327%" id="linearGradient-15">
            <stop stop-color="#515050" offset="0%"></stop>
            <stop stop-color="#99999A" offset="100%"></stop>
        </linearGradient>
        <linearGradient x1="59.7546889%" y1="0.715081026%" x2="38.064513%" y2="177.150769%" id="linearGradient-16">
            <stop stop-color="#515050" offset="0%"></stop>
            <stop stop-color="#99999A" offset="100%"></stop>
        </linearGradient>
        <linearGradient x1="51.4176749%" y1="44.9371825%" x2="5.73823143%" y2="210.202761%" id="linearGradient-17">
            <stop stop-color="#000000" offset="0%"></stop>
            <stop stop-color="#484848" offset="100%"></stop>
        </linearGradient>
        <linearGradient x1="61.8113789%" y1="-28.1415867%" x2="41.0654161%" y2="109.401802%" id="linearGradient-18">
            <stop stop-color="#000000" offset="0%"></stop>
            <stop stop-color="#484848" offset="100%"></stop>
        </linearGradient>
        <linearGradient x1="40.8719428%" y1="177.925252%" x2="32.3774725%" y2="324.915335%" id="linearGradient-19">
            <stop stop-color="#000000" offset="0%"></stop>
            <stop stop-color="#484848" offset="100%"></stop>
        </linearGradient>
        <linearGradient x1="36.544901%" y1="114.615883%" x2="5.98110725%" y2="261.525247%" id="linearGradient-20">
            <stop stop-color="#000000" offset="0%"></stop>
            <stop stop-color="#484848" offset="100%"></stop>
        </linearGradient>
        <linearGradient x1="42.5456756%" y1="148.624756%" x2="33.8085061%" y2="241.951793%" id="linearGradient-21">
            <stop stop-color="#000000" offset="0%"></stop>
            <stop stop-color="#484848" offset="100%"></stop>
        </linearGradient>
        <linearGradient x1="36.445917%" y1="115.301871%" x2="5.88212325%" y2="262.211235%" id="linearGradient-22">
            <stop stop-color="#000000" offset="0%"></stop>
            <stop stop-color="#484848" offset="100%"></stop>
        </linearGradient>
        <linearGradient x1="14.4818769%" y1="197.917281%" x2="-18.8935692%" y2="336.955476%" id="linearGradient-23">
            <stop stop-color="#000000" offset="0%"></stop>
            <stop stop-color="#484848" offset="100%"></stop>
        </linearGradient>
        <linearGradient x1="77.5656211%" y1="-19.2495836%" x2="2.18663684%" y2="157.265897%" id="linearGradient-24">
            <stop stop-color="#000000" offset="0%"></stop>
            <stop stop-color="#484848" offset="100%"></stop>
        </linearGradient>
        <linearGradient x1="67.888715%" y1="-36.1480864%" x2="32.2351736%" y2="135.228015%" id="linearGradient-25">
            <stop stop-color="#000000" offset="0%"></stop>
            <stop stop-color="#484848" offset="100%"></stop>
        </linearGradient>
        <linearGradient x1="3.6478158%" y1="174.063105%" x2="51.0793095%" y2="44.3555416%" id="linearGradient-26">
            <stop stop-color="#000000" offset="0%"></stop>
            <stop stop-color="#484848" offset="100%"></stop>
        </linearGradient>
        <linearGradient x1="10.0956781%" y1="155.985302%" x2="76.6226448%" y2="-31.2973738%" id="linearGradient-27">
            <stop stop-color="#000000" offset="0%"></stop>
            <stop stop-color="#484848" offset="100%"></stop>
        </linearGradient>
        <linearGradient x1="3.28273046%" y1="174.944611%" x2="49.3576304%" y2="45.2370479%" id="linearGradient-28">
            <stop stop-color="#000000" offset="0%"></stop>
            <stop stop-color="#484848" offset="100%"></stop>
        </linearGradient>
        <linearGradient x1="11.8379184%" y1="115.398247%" x2="-70.8585767%" y2="265.438464%" id="linearGradient-29">
            <stop stop-color="#000000" offset="0%"></stop>
            <stop stop-color="#484848" offset="100%"></stop>
        </linearGradient>
        <linearGradient x1="41.3820291%" y1="70.9877983%" x2="54.9536511%" y2="34.0598568%" id="linearGradient-30">
            <stop stop-color="#FFFFFF" offset="0%"></stop>
            <stop stop-color="#D3D3D3" offset="100%"></stop>
        </linearGradient>
        <linearGradient x1="48.1273678%" y1="90.1361624%" x2="56.2692728%" y2="-78.2002013%" id="linearGradient-31">
            <stop stop-color="#000000" offset="0%"></stop>
            <stop stop-color="#484848" offset="100%"></stop>
        </linearGradient>
        <linearGradient x1="33.9977189%" y1="91.9310926%" x2="49.413454%" y2="53.7752007%" id="linearGradient-32">
            <stop stop-color="#FFDFB2" offset="0%"></stop>
            <stop stop-color="#EFA05E" offset="100%"></stop>
        </linearGradient>
        <linearGradient x1="68.7717786%" y1="15.4659077%" x2="34.7491373%" y2="78.0563736%" id="linearGradient-33">
            <stop stop-color="#FFFFFF" offset="0%"></stop>
            <stop stop-color="#EFE9DA" offset="100%"></stop>
        </linearGradient>
        <linearGradient x1="68.9908723%" y1="15.0254241%" x2="34.9480477%" y2="77.653625%" id="linearGradient-34">
            <stop stop-color="#FFFFFF" offset="0%"></stop>
            <stop stop-color="#EFE9DA" offset="100%"></stop>
        </linearGradient>
        <linearGradient x1="68.0754759%" y1="16.7732045%" x2="34.0345368%" y2="79.3985773%" id="linearGradient-35">
            <stop stop-color="#FFFFFF" offset="0%"></stop>
            <stop stop-color="#EFE9DA" offset="100%"></stop>
        </linearGradient>
        <linearGradient x1="36.8445384%" y1="71.6348674%" x2="22.2462521%" y2="92.1633501%" id="linearGradient-36">
            <stop stop-color="#FFDFB2" offset="0%"></stop>
            <stop stop-color="#FBC38F" offset="100%"></stop>
        </linearGradient>
        <linearGradient x1="44.4465208%" y1="41.2243399%" x2="62.4981931%" y2="97.3568917%" id="linearGradient-37">
            <stop stop-color="#FFDFB2" offset="0%"></stop>
            <stop stop-color="#FBC38F" offset="100%"></stop>
        </linearGradient>
        <linearGradient x1="82.8242652%" y1="79.2722555%" x2="50.1254233%" y2="51.6386049%" id="linearGradient-38">
            <stop stop-color="#E5B274" offset="0%"></stop>
            <stop stop-color="#FBC38F" offset="100%"></stop>
        </linearGradient>
        <linearGradient x1="72.6911988%" y1="7.87034897%" x2="6.59764397%" y2="126.75097%" id="linearGradient-39">
            <stop stop-color="#7E3D1B" offset="0%"></stop>
            <stop stop-color="#3F160A" offset="100%"></stop>
        </linearGradient>
        <linearGradient x1="50.3097838%" y1="-4.59628947%" x2="49.684706%" y2="98.0370085%" id="linearGradient-40">
            <stop stop-color="#8B4920" offset="0%"></stop>
            <stop stop-color="#5C270C" offset="100%"></stop>
        </linearGradient>
        <linearGradient x1="98.3052151%" y1="23.0628994%" x2="21.9223876%" y2="103.103882%" id="linearGradient-41">
            <stop stop-color="#8B4920" offset="0%"></stop>
            <stop stop-color="#602B0E" offset="100%"></stop>
        </linearGradient>
        <linearGradient x1="59.3705049%" y1="21.5131717%" x2="18.1548386%" y2="98.7136217%" id="linearGradient-42">
            <stop stop-color="#F7A58C" offset="0%"></stop>
            <stop stop-color="#F0857A" offset="100%"></stop>
        </linearGradient>
        <linearGradient x1="51.5296362%" y1="36.4990333%" x2="25.5822812%" y2="102.478101%" id="linearGradient-43">
            <stop stop-color="#B41F2D" offset="0%"></stop>
            <stop stop-color="#EC404B" offset="100%"></stop>
        </linearGradient>
        <linearGradient x1="20.889139%" y1="85.524773%" x2="77.4604269%" y2="16.5567246%" id="linearGradient-44">
            <stop stop-color="#FFDFB2" offset="0%"></stop>
            <stop stop-color="#7E1416" offset="100%"></stop>
        </linearGradient>
        <linearGradient x1="75.1945092%" y1="19.2492646%" x2="17.5978626%" y2="89.467579%" id="linearGradient-45">
            <stop stop-color="#5A2C0E" offset="0%"></stop>
            <stop stop-color="#2E160C" offset="100%"></stop>
        </linearGradient>
        <linearGradient x1="79.4226675%" y1="14.1036108%" x2="18.0831733%" y2="88.8847825%" id="linearGradient-46">
            <stop stop-color="#955924" offset="0%"></stop>
            <stop stop-color="#5C2C0F" offset="100%"></stop>
        </linearGradient>
        <linearGradient x1="21.1311267%" y1="85.1863874%" x2="77.701753%" y2="16.2190006%" id="linearGradient-47">
            <stop stop-color="#FFDFB2" offset="0%"></stop>
            <stop stop-color="#7E1416" offset="100%"></stop>
        </linearGradient>
        <linearGradient x1="75.8731034%" y1="18.422201%" x2="18.2511614%" y2="88.6710698%" id="linearGradient-48">
            <stop stop-color="#5A2C0E" offset="0%"></stop>
            <stop stop-color="#2E160C" offset="100%"></stop>
        </linearGradient>
        <linearGradient x1="79.1636833%" y1="14.4792903%" x2="17.8172792%" y2="89.2685236%" id="linearGradient-49">
            <stop stop-color="#955924" offset="0%"></stop>
            <stop stop-color="#5C2C0F" offset="100%"></stop>
        </linearGradient>
    </defs>
    <g id="Page-1" stroke="none" stroke-width="1" fill="none" fill-rule="evenodd">
        <g id="footerheronobg">
            <path d="M466.2,180.4 C448.4,182.3 448.3,180 430.5,180 C412.6,180 412.6,180.3 394.8,180.3 C376.9,180.3 376.9,180.1 359.1,180.1 C341.2,180.1 341.2,179.9 323.4,179.9 C305.5,179.9 305.5,180.3 287.7,180.3 C269.8,180.3 269.8,180.1 252,180.1 C234.1,180.1 234.1,180.7 216.3,180.7 C198.4,180.7 198.4,180.6 180.6,180.6 C162.7,180.6 162.7,179.9 144.9,179.9 C127,179.9 127,180.7 109.2,180.7 C91.3,180.7 91.3,180.5 73.5,180.5 C55.6,180.5 55.6,179.8 37.8,179.8 C20,179.8 19.8,182.2 2.1,180.3 C0.2,180.1 0.2,176.9 2.1,176.6 C19.9,174.7 19.9,176.3 37.8,176.3 C55.7,176.3 55.7,176.6 73.5,176.6 C91.4,176.6 91.4,176.3 109.2,176.3 C127.1,176.3 127.1,176.5 144.9,176.5 C162.8,176.5 162.8,176.2 180.6,176.2 C198.5,176.2 198.5,176.8 216.3,176.8 C234.2,176.8 234.2,176.5 252,176.5 C269.9,176.5 269.9,176.3 287.7,176.3 C305.6,176.3 305.6,176.6 323.4,176.6 L359.1,176.6 C377,176.6 377,176.4 394.8,176.4 C412.7,176.4 412.7,176.2 430.5,176.2 C448.4,176.2 448.5,174.3 466.3,176.1 C468.5,176.5 468.1,180.2 466.2,180.4 L466.2,180.4 Z" id="Shape" stroke="#1976D2" fill="#2A87DD"></path>
            <circle id="Oval" stroke="#1976D2" fill="#2196F3" cx="269.4" cy="174.2" r="2.7"></circle>
            <path d="M272.1,173.5 L270.9,173.5 C270.9,174.5 270.7,174.6 270.5,174.9 C270.2,175.2 269.9,175.5 269.4,175.5 C269,175.5 268.6,175.4 268.3,175.1 C268,174.8 267.9,174.5 267.9,174.1 C267.9,173.7 268.1,173.3 268.3,173.1 C268.6,172.8 268.9,172.7 269.4,172.7 C269.8,172.7 270.2,172.5 270.5,172.8 C270.8,173.1 270.9,173.5 270.9,173.5 L272.1,173.5 L273.3,173.5 C273.3,171.5 271.6,170 269.5,170 C267.4,170 265.7,171.9 265.7,174 C265.7,176.1 267.4,177.6 269.5,177.6 C271.6,177.6 273.3,175.5 273.3,173.5 L272.1,173.5 L272.1,173.5 L272.1,173.5 Z" id="Shape" stroke="#1976D2" fill="#2196F3"></path>
            <circle id="Oval" stroke="#1976D2" fill="#2196F3" cx="437.1" cy="174.2" r="2.7"></circle>
            <path d="M439.8,173.5 L438.6,173.5 C438.6,174.5 438.4,174.6 438.2,174.9 C437.9,175.2 437.6,175.5 437.1,175.5 C436.7,175.5 436.3,175.4 436,175.1 C435.7,174.8 435.6,174.5 435.6,174.1 C435.6,173.7 435.8,173.3 436,173.1 C436.3,172.8 436.6,172.7 437.1,172.7 C437.5,172.7 437.9,172.5 438.2,172.8 C438.5,173.1 438.6,173.5 438.6,173.5 L439.8,173.5 L441,173.5 C441,171.5 439.3,170 437.2,170 C435.1,170 433.4,171.9 433.4,174 C433.4,176.1 435.1,177.6 437.2,177.6 C439.3,177.6 441,175.5 441,173.5 L439.8,173.5 L439.8,173.5 L439.8,173.5 Z" id="Shape" stroke="#1976D2" fill="#2196F3"></path>
            <path d="M262.7,119.5 L262.7,173.5 L445.7,173.5 L445.7,119.5 L262.7,119.5 L262.7,119.5 Z M267.7,127.5 L314.7,127.5 L314.7,145.5 L267.7,145.5 L267.7,127.5 L267.7,127.5 Z M314.7,168.5 L267.7,168.5 L267.7,149.5 L314.7,149.5 L314.7,168.5 L314.7,168.5 Z M318.7,127.5 L388.7,127.5 L388.7,145.5 L318.7,145.5 L318.7,127.5 L318.7,127.5 Z M388.7,168.5 L319.7,168.5 L319.7,149.5 L388.7,149.5 L388.7,168.5 L388.7,168.5 Z M393.7,127.5 L440.7,127.5 L440.7,145.5 L393.7,145.5 L393.7,127.5 L393.7,127.5 Z M440.7,168.5 L393.7,168.5 L393.7,149.5 L440.7,149.5 L440.7,168.5 L440.7,168.5 Z" id="Shape" stroke="#1976D2" fill="#2196F3"></path>
            <path d="M262.7,119.5 L261.7,119.5 L261.7,174.5 L446.7,174.5 L446.7,118.5 L261.7,118.5 L261.7,119.5 L262.7,119.5 L262.7,120.5 L445.7,120.5 L445.7,173.5 L262.7,173.5 L262.7,119.5 L262.7,119.5 L262.7,121.3 L262.7,119.5 L262.7,119.5 Z M267.7,127.5 L267.7,129.5 L313.7,129.5 L313.7,144.5 L268.7,144.5 L268.7,127.5 L267.7,127.5 L267.7,129.3 L267.7,127.5 L265.7,127.5 L265.7,146.5 L315.7,146.5 L315.7,126.5 L265.7,126.5 L265.7,127.5 L267.7,127.5 L267.7,127.5 Z M314.7,168.5 L314.7,167.5 L268.7,167.5 L268.7,150.5 L313.7,150.5 L313.7,168.5 L314.7,168.5 L314.7,167.1 L314.7,168.5 L315.7,168.5 L315.7,148.5 L265.7,148.5 L265.7,169.5 L315.7,169.5 L315.7,168.5 L314.7,168.5 L314.7,168.5 Z M318.7,127.5 L318.7,129.5 L387.7,129.5 L387.7,144.5 L320.7,144.5 L320.7,127.5 L318.7,127.5 L318.7,129.3 L318.7,127.5 L317.7,127.5 L317.7,146.5 L389.7,146.5 L389.7,126.5 L317.7,126.5 L317.7,127.5 L318.7,127.5 L318.7,127.5 Z M388.7,168.5 L388.7,167.5 L320.7,167.5 L320.7,150.5 L387.7,150.5 L387.7,168.5 L388.7,168.5 L388.7,167.1 L388.7,168.5 L389.7,168.5 L389.7,148.5 L317.7,148.5 L317.7,169.5 L389.7,169.5 L389.7,168.5 L388.7,168.5 L388.7,168.5 Z M393.7,127.5 L393.7,129.5 L439.7,129.5 L439.7,144.5 L394.7,144.5 L394.7,127.5 L393.7,127.5 L393.7,129.3 L393.7,127.5 L392.7,127.5 L392.7,146.5 L442.7,146.5 L442.7,126.5 L392.7,126.5 L392.7,127.5 L393.7,127.5 L393.7,127.5 Z M440.7,168.5 L440.7,167.5 L394.7,167.5 L394.7,150.5 L439.7,150.5 L439.7,168.5 L440.7,168.5 L440.7,167.1 L440.7,168.5 L442.7,168.5 L442.7,148.5 L392.7,148.5 L392.7,169.5 L442.7,169.5 L442.7,168.5 L440.7,168.5 L440.7,168.5 Z" id="Shape" stroke="#1976D2" fill="#2196F3"></path>
            <rect id="Rectangle-path" stroke="#1976D2" fill="#2196F3" x="329.7" y="118.5" width="44" height="1"></rect>
            <path d="M373.7,119.5 L373.7,118.5 L330.9,118.5 L330.9,118.5 L329.7,118.5 L329.7,119.5 L371.5,119.5 L371.5,119.5 L373.7,119.5 L373.7,118.7 L373.7,119.5 L374.7,119.5 L374.7,117.5 L328.7,117.5 L328.7,120.5 L374.7,120.5 L374.7,119.5 L373.7,119.5 Z" id="Shape" stroke="#1976D2" fill="#2196F3"></path>
            <rect id="Rectangle-path" stroke="#1976D2" fill="#2196F3" x="343.7" y="104.5" width="17" height="14"></rect>
            <path d="M360.7,118.5 L360.7,117.5 L344.7,117.5 L344.7,105.5 L359.7,105.5 L359.7,118.5 L360.7,118.5 L360.7,117.5 L360.7,118.5 L361.7,118.5 L361.7,103.5 L342.7,103.5 L342.7,119.5 L361.7,119.5 L361.7,118.5 L360.7,118.5 Z" id="Shape" stroke="#1976D2" fill="#2196F3"></path>
            <rect id="Rectangle-path" stroke="#2196F3" fill="#2196F3" x="300.7" y="49.5" width="105" height="54"></rect>
            <path d="M405.7,103.5 L405.7,102.5 L301.7,102.5 L301.7,50.5 L404.7,50.5 L404.7,103.5 L405.7,103.5 L405.7,102.2 L405.7,103.5 L406.7,103.5 L406.7,47.5 L299.7,47.5 L299.7,104.5 L406.7,104.5 L406.7,103.5 L405.7,103.5 Z" id="Shape" stroke="#1976D2" fill="#2196F3"></path>
            <rect id="Rectangle-path" stroke="#1976D2" fill="#2196F3" x="326.7" y="137.5" width="55" height="8"></rect>
            <path d="M381.7,145.5 L381.7,144.5 L327.7,144.5 L327.7,138.5 L380.7,138.5 L380.7,145.5 L381.7,145.5 L381.7,145.1 L381.7,145.5 L381.7,145.5 L381.7,136.5 L325.7,136.5 L325.7,146.5 L381.7,146.5 L381.7,145.5 Z" id="Shape" stroke="#1976D2" fill="#2196F3"></path>
            <path d="M277.4,118.5 L270.7,118.5 L268.6,118.5 L268.6,105.1 C268.6,104.4 269.9,103.5 270.7,103.5 L277.4,103.5 C278.1,103.5 278.7,104.4 278.7,105.1 L278.7,118.5 L277.4,118.5 L277.4,118.5 Z" id="Shape" stroke="#1976D2" fill="#2196F3"></path>
            <path d="M276.7,119 L276.7,117.5 L270.8,117.5 L268.7,117.5 L268.7,118.5 L270.7,118.5 L270.7,105.5 L270.8,105.5 L277.5,105.5 L277.8,105.5 L277.8,118.5 L278.8,118.5 L278.8,117.5 L276.8,117.5 L276.8,119 L276.8,119.5 L278.9,119.5 L279.8,119.5 L279.8,105.1 C279.8,103.7 278.9,102.5 277.5,102.5 L270.8,102.5 C269.4,102.5 268.7,103.7 268.7,105.1 L268.7,119.5 L269.4,119.5 L270.7,119.5 L276.6,119.5 L276.6,119 L276.7,119 L276.7,119 Z" id="Shape" stroke="#1976D2" fill="#2196F3"></path>
            <path d="M273.7,103.8 C273.7,101.7 274.4,100 275.3,100" id="Shape" stroke="#1976D2" fill="#2196F3"></path>
            <path d="M274.7,103.6 C274.7,102.7 275,102 275.2,101.5 C275.3,101.3 275.5,101.1 275.5,101.1 L275.5,101.1 L275.4,100.9 L275.5,101.1 L275.6,101.1 L275.5,100.9 L275.2,101.1 L274.7,100.7 L274.7,101.1 L274.8,101.1 L274.7,100.7 L274.7,101.1 L274.7,98.8 C274.7,98.8 274.5,98.9 274.2,99 C273.8,99.2 273.6,99.5 273.4,99.8 C273,100.3 272.9,100.7 272.7,101.4 C272.5,102.1 272.5,103.4 272.5,103.4 L274.6,103.4 L274.6,103.6 L274.7,103.6 L274.7,103.6 Z" id="Shape" stroke="#1976D2" fill="#2196F3"></path>
            <path d="M287.2,118.5 L281.9,118.5 L280.6,118.5 L280.6,109.8 C280.6,109.3 281.3,108.5 281.9,108.5 L287.2,108.5 C287.8,108.5 288.7,109.3 288.7,109.8 L288.7,118.5 L287.2,118.5 L287.2,118.5 Z" id="Shape" stroke="#1976D2" fill="#2196F3"></path>
            <path d="M287.7,119 L287.7,117.5 L282,117.5 L280.7,117.5 L280.7,118.5 L281.7,118.5 L281.7,109.5 L281.7,109.5 L282.1,109.7 L282.1,109.5 L281.7,109.5 L282.1,109.8 L281.9,109.8 L282,110 C282,110 282,110 282.1,109.9 L281.9,109.8 L282,110 L282,110 L282,110 L282,110 L282,110 L282,109.7 L282,109.4 L287.3,109.4 L287.3,109.7 L287.3,109.7 L287.2,109.9 L287.3,110 L287.3,109.9 L287.2,109.8 L287.5,109.4 L287.1,109.4 C287.1,109.4 287.1,109.6 287.2,109.6 L287.5,109.4 L286.7,109.4 L286.7,118.4 L288.7,118.4 L288.7,117.4 L287.7,117.4 L287.7,119 L287.7,119.5 L288.3,119.5 L289.7,119.5 L289.7,109.8 C289.7,109.2 289.3,108 288.8,107.6 C288.4,107.3 287.7,106.4 287.2,106.4 L281.9,106.4 C281.3,106.4 280.8,107.2 280.4,107.6 C280,107.9 279.7,109.1 279.7,109.8 L279.7,119.5 L280.9,119.5 L282,119.5 L287.7,119.5 L287.7,119 L287.7,119 L287.7,119 Z" id="Shape" stroke="#1976D2" fill="#2196F3"></path>
            <path d="M284.3,108.9 C284.3,107.5 284.9,106.4 285.6,106.4" id="Shape" stroke="#1976D2" fill="#2196F3"></path>
            <path d="M285.7,109.1 C285.7,108.6 285.7,108 285.8,107.8 L285.8,107.6 L285.8,107.5 L285.8,107.5 L285.6,107.2 L285.6,107.5 L285.8,107.4 L285.6,107.1 L285.6,107.4 L285.6,105.1 C284.6,105.1 284.6,105.3 284.3,105.6 C283.8,106 283.5,106.3 283.3,106.8 C283.1,107.3 283,108.4 283,108.4 L285.6,108.4 L285.7,109.1 L285.7,109.1 L285.7,109.1 Z" id="Shape" stroke="#1976D2" fill="#2196F3"></path>
            <path d="M302.8,144.5 L274.2,144.5 C273.9,144.5 273.7,144.9 273.7,144.7 L273.7,143.7 C273.7,143.4 274,142.5 274.2,138.5 L302.8,138.5 C303.1,142.5 303.7,143.5 303.7,143.7 L303.7,144.7 C303.7,144.9 303.1,144.5 302.8,144.5 L302.8,144.5 Z" id="Shape" stroke="#1976D2" fill="#2196F3"></path>
            <path d="M303.7,145.2 L303.7,143.5 L273.7,143.5 L273.7,144.5 L274.9,144.5 C274.9,143.5 274.7,144 273.7,144 L273.7,144.5 L274.7,144.5 L274.7,143.5 L274.3,143.5 L274.9,143.6 L274.9,143.5 L274.3,143.5 L274.9,143.7 L274.5,143.7 L274.8,143.8 L274.8,143.8 L274.4,143.8 L274.7,143.9 C274.7,143.9 274.7,143.8 274.8,143.6 C274.9,143.1 274.8,142 275,139.3 L273.6,139.2 L273.6,140.5 L303.6,140.5 L303.6,139.2 L302,139.3 C302.1,141.4 302,142.5 302.1,143.1 L302.1,143.8 L302.1,143.9 L302.2,143.8 L301.6,143.8 L301.6,143.8 L302.2,143.7 L302,143.6 L302.8,143.4 L302.2,143.4 L302.2,143.5 L302.8,143.4 L301.7,143.4 L301.7,144.4 L303.7,144.4 L303.7,144 C301.7,144 302.1,143.5 302.1,144.5 L303.7,144.5 L303.7,144 L303.7,145.2 L303.7,146.4 L303.7,144.8 L303.7,143.8 C303.7,143.7 304.1,143.6 304.1,143.5 C304.1,143.4 304.3,143.3 304.2,143.2 C304.1,142.8 304.1,141.6 303.9,138.9 L303.9,137.6 L273.1,137.6 L273,138.9 C272.9,140.9 272.8,142.1 272.7,142.6 C272.7,142.9 272.6,143.1 272.6,143.2 C272.6,143.3 272.1,143.3 272.1,143.4 C272.1,143.5 271.6,143.6 271.6,143.7 L271.6,144.7 C271.6,145.6 273.2,145.5 274.1,145.5 L303.6,145.5 L303.7,145.2 L303.7,145.2 L303.7,145.2 Z" id="Shape" stroke="#1976D2" fill="#2196F3"></path>
            <path d="M428.3,138.5 C428.3,143.5 423.1,145.4 416.7,145.4 C410.3,145.4 405.1,143.5 405.1,138.5 L428.3,138.5 L428.3,138.5 Z" id="Shape" stroke="#1976D2" fill="#2196F3"></path>
            <path d="M291.4,154.5 L287,154.5 C286.5,154.5 286.1,154 286.1,153.5 C286.1,153 286.5,152.5 287,152.5 L291.4,152.5 C291.9,152.5 292.3,153 292.3,153.5 C292.3,154 291.9,154.5 291.4,154.5 L291.4,154.5 Z" id="Shape" stroke="#1976D2" fill="#2196F3"></path>
            <path d="M291.7,154.5 L291.7,153.5 L286.7,153.5 L286.7,153.5 L287.4,153.5 C287.4,153.5 287.8,153.3 286.8,153.3 L286.8,153.5 L287.4,153.5 L286.8,153.5 L286.8,153.9 C287.8,153.9 287.4,153.5 287.4,153.5 L286.7,153.5 L286.7,153.5 L291.5,153.5 L291.5,153.5 L291.1,153.5 L291.7,153.9 L291.7,153.5 L291.1,153.5 L291.7,153.5 L291.7,153.3 C291.7,153.3 291.2,153.5 291.1,153.5 L291.7,153.5 L291.7,153.3 L291.7,154.5 L291.7,155.7 C292.7,155.7 293.6,154.7 293.6,153.6 C293.6,152.5 292.6,151.5 291.4,151.5 L287,151.5 C285.9,151.5 285,152.4 285,153.5 C285,154.6 285.9,155.5 287,155.5 L291.7,155.5 L291.7,154.5 L291.7,154.5 Z" id="Shape" stroke="#1976D2" fill="#2196F3"></path>
            <path d="M356.5,155.5 L352.1,155.5 C351.6,155.5 351.2,155 351.2,154.5 C351.2,154 351.6,153.5 352.1,153.5 L356.5,153.5 C357,153.5 357.4,154 357.4,154.5 C357.3,155 357,155.5 356.5,155.5 L356.5,155.5 Z" id="Shape" stroke="#1976D2" fill="#2196F3"></path>
            <path d="M419.4,155.5 L415,155.5 C414.5,155.5 414.1,155 414.1,154.5 C414.1,154 414.5,153.5 415,153.5 L419.4,153.5 C419.9,153.5 420.3,154 420.3,154.5 C420.2,155 419.9,155.5 419.4,155.5 L419.4,155.5 Z" id="Shape" stroke="#1976D2" fill="#2196F3"></path>
            <path d="M414.7,90.5 L414.7,118.5 L434.7,118.5 L434.7,90.5 L414.7,90.5 L414.7,90.5 Z M432.7,115.5 L416.7,115.5 L416.7,93.5 L432.7,93.5 L432.7,115.5 L432.7,115.5 Z" id="Shape" stroke="#1976D2" fill="#2196F3"></path>
            <path d="M414.7,91.1 L414.7,91.1 L414.7,118.5 L434.7,118.5 L434.7,90.5 L414.7,90.5 L414.7,90.5 L414.7,90.5 L414.7,91.5 L433.7,91.5 L433.7,117.5 L414.7,117.5 L414.7,91.1 L414.7,91.1 L414.7,91.8 L414.7,91.1 L414.7,91.1 Z M432.7,115.5 L432.7,115.5 L416.7,115.5 L416.7,93.5 L431.7,93.5 L431.7,115.5 L432.7,115.5 L432.7,116.3 L432.7,116.2 L432.7,116.2 L432.7,92.5 L416.7,92.5 L416.7,117.5 L432.7,117.5 L432.7,115.5 L432.7,115.5 L432.7,115.5 Z" id="Shape" stroke="#1976D2" fill="#2196F3"></path>
            <rect id="Rectangle-path" stroke="#1976D2" fill="#2196F3" x="346.7" y="104.5" width="1" height="14"></rect>
            <path d="M347.7,118.5 L347.7,117.2 L347.7,117.2 L347.7,105.6 L347.7,105.6 L347.7,104.5 L346.7,104.5 L346.7,118.5 L347.7,118.5 L347.7,117.5 L347.7,118.5 L348.7,118.5 L348.7,103.5 L344.7,103.5 L344.7,119.5 L348.7,119.5 L348.7,118.5 L347.7,118.5 Z" id="Shape" stroke="#1976D2" fill="#2196F3"></path>
            <path d="M338.2,137.2 L329.7,145.5 L335.6,145.5 L344.2,137.1 L338.2,137.2 Z" id="Shape" stroke="#1976D2" fill="#2196F3"></path>
            <path d="M338.2,137.5 L337.4,136.3 L326.8,146.5 L336.1,146.5 L347,136 L337.7,136.1 L337.4,136.6 L338.2,137.4 L338.2,138.6 L341.3,138.5 L335.2,144.5 L332.5,144.5 L339,138.1 L338.2,137.4 L338.2,138.6 L338.2,137.5 Z" id="Shape" stroke="#1976D2" fill="#2196F3"></path>
            <rect id="Rectangle-path" stroke="#1976D2" fill="#2196F3" x="122.7" y="0.5" width="5" height="176"></rect>
            <rect id="Rectangle-path" stroke="#1976D2" fill="#2196F3" x="5.7" y="38.5" width="137" height="2"></rect>
            <rect id="Rectangle-path" stroke="#1976D2" fill="#2196F3" x="5.7" y="79.5" width="137" height="2"></rect>
            <path d="M143.7,81.5 L143.7,80.5 L7.7,80.5 L7.7,79.5 L5.7,79.5 L5.7,80.5 L142.7,80.5 L142.7,81.5 L143.7,81.5 L143.7,81 L143.7,81.5 L144.7,81.5 L144.7,79.5 L5.7,79.5 L5.7,82.5 L144.7,82.5 L144.7,81.5 L143.7,81.5 Z" id="Shape" stroke="#1976D2" fill="#2196F3"></path>
            <rect id="Rectangle-path" stroke="#1976D2" fill="#2196F3" x="5.7" y="126.5" width="137" height="2"></rect>
            <path d="M143.7,128.5 L143.7,127.5 L7.7,127.5 L7.7,126.5 L5.7,126.5 L5.7,127.5 L142.7,127.5 L142.7,128.5 L143.7,128.5 L143.7,127.4 L143.7,128.5 L144.7,128.5 L144.7,124.5 L5.7,124.5 L5.7,129.5 L144.7,129.5 L144.7,128.5 L143.7,128.5 Z" id="Shape" stroke="#1976D2" fill="#2196F3"></path>
            <path d="M56.7,106.5 L56.7,125.5 L69.7,125.5 L69.7,106.5 L56.7,106.5 L56.7,106.5 Z" id="Shape" stroke="#1976D2" fill="#2196F3"></path>
            <rect id="Rectangle-path" stroke="#1976D2" fill="#2196F3" x="57.7" y="108.5" width="10" height="16"></rect>
            <path d="M71.7,100.5 L71.7,126.5 L90.7,126.5 L90.7,100.5 L71.7,100.5 L71.7,100.5 Z M88.7,124.5 L73.7,124.5 L73.7,102.5 L88.7,102.5 L88.7,124.5 L88.7,124.5 Z" id="Shape" stroke="#1976D2" fill="#2196F3"></path>
            <rect id="Rectangle-path" stroke="#1976D2" fill="#2196F3" x="73.7" y="102.5" width="15" height="22"></rect>
            <path d="M70.7,37.8 C70.7,38.2 70.4,38.5 70,38.5 L65.4,38.5 C65,38.5 64.7,38.2 64.7,37.8 L64.7,8.2 C64.7,7.8 65,7.5 65.4,7.5 L70,7.5 C70.4,7.5 70.7,7.8 70.7,8.2 L70.7,37.8 L70.7,37.8 Z" id="Shape" stroke="#1976D2" fill="#2196F3"></path>
            <path d="M73.7,38.9 C73.7,39.2 73.4,39.5 73.1,39.5 L72.2,39.5 C71.9,39.5 71.6,39.2 71.6,38.9 L71.6,7.1 C71.6,6.8 71.9,6.5 72.2,6.5 L73.1,6.5 C73.4,6.5 73.7,6.8 73.7,7.1 L73.7,38.9 L73.7,38.9 Z" id="Shape" stroke="#1976D2" fill="#2196F3"></path>
            <path d="M118.9,37.8 L117.7,38.7 C117.5,38.8 117.3,38.8 117.2,38.6 L98.9,12.4 C98.8,12.2 98.8,12 99,11.9 L100.2,11 C100.4,10.9 100.6,10.9 100.7,11.1 L119,37.3 C119.1,37.4 119.1,37.6 118.9,37.8 L118.9,37.8 Z" id="Shape" stroke="#1976D2" fill="#2196F3"></path>
            <path d="M81.7,38.8 C81.7,39.2 81.4,39.5 81,39.5 L76.4,39.5 C76,39.5 75.7,39.2 75.7,38.8 L75.7,15.2 C75.7,14.8 76,14.5 76.4,14.5 L81,14.5 C81.4,14.5 81.7,14.8 81.7,15.2 L81.7,38.8 L81.7,38.8 Z" id="Shape" stroke="#1976D2" fill="#2196F3"></path>
            <path d="M87.7,37.8 C87.7,38.2 87.4,38.5 87,38.5 L84.4,38.5 C84,38.5 83.7,38.2 83.7,37.8 L83.7,11.2 C83.7,10.8 84,10.5 84.4,10.5 L87,10.5 C87.4,10.5 87.7,10.8 87.7,11.2 L87.7,37.8 L87.7,37.8 Z" id="Shape" stroke="#1976D2" fill="#2196F3"></path>
            <path d="M91.7,38.2 C91.7,38.4 91.6,38.5 91.4,38.5 L91,38.5 C90.8,38.5 90.7,38.4 90.7,38.2 L90.7,12.8 C90.7,12.6 90.8,12.5 91,12.5 L91.4,12.5 C91.6,12.5 91.7,12.6 91.7,12.8 L91.7,38.2 L91.7,38.2 Z" id="Shape" stroke="#1976D2" fill="#2196F3"></path>
            <path d="M98.7,37.8 C98.7,38.2 98.4,38.5 98,38.5 L96.3,38.5 C95.9,38.5 95.6,38.2 95.6,37.8 L95.6,11.2 C95.6,10.8 95.9,10.5 96.3,10.5 L98,10.5 C98.4,10.5 98.7,10.8 98.7,11.2 L98.7,37.8 L98.7,37.8 Z" id="Shape" stroke="#1976D2" fill="#2196F3"></path>
            <path d="M29.7,137.5 L29.7,176.5 L69.7,176.5 L69.7,137.5 L29.7,137.5 L29.7,137.5 Z M52.5,145.5 L47.2,145.5 C45.6,145.5 44.3,144.6 44.3,143 C44.3,141.4 45.6,140.5 47.2,140.5 L52.5,140.5 C54.1,140.5 55.4,141.4 55.4,143 C55.3,144.6 54,145.5 52.5,145.5 L52.5,145.5 Z" id="Shape" stroke="#1976D2" fill="#2196F3"></path>
            <path d="M73.5,137 L73.5,176 L113.5,176 L113.5,137 L73.5,137 L73.5,137 Z M96.1,145 L90.8,145 C89.2,145 87.9,144.1 87.9,142.5 C87.9,140.9 89.2,140 90.8,140 L96.1,140 C97.7,140 99,140.9 99,142.5 C99,144.1 97.7,145 96.1,145 L96.1,145 Z" id="Shape" stroke="#1976D2" fill="#2196F3"></path>
            <path d="M94.9,66 C91.1,66 88.1,66.3 88.1,66.7 L91,80 C91,80 92.2,80.6 95,80.6 C98.3,80.6 99.4,80 99.4,80 L101.8,66.7 C101.7,66.3 98.7,66 94.9,66 L94.9,66 Z" id="Shape" stroke="#1976D2" fill="#2196F3"></path>
            <ellipse id="Oval" stroke="#1976D2" fill="#2196F3" cx="94.9" cy="66.7" rx="6.4" ry="0.6"></ellipse>
            <path d="M94.9,67.3 L94.3,67.3 C93.8,64.8 93.2,57.2 95.8,53.6 C99,49 106.2,46.3 106.1,47.3 C106,48.3 96.3,56 95.6,59.2 C95,62.4 94.9,67.3 94.9,67.3 L94.9,67.3 Z" id="Shape" stroke="#1976D2" fill="#2196F3"></path>
            <path d="M94.4,67.2 L94.7,67.2 C94.9,66.1 95.2,62.6 94,61 C92.5,58.9 89.1,57.7 89.1,58.1 C89.1,58.6 93.7,63.3 94,64.7 C94.3,66.2 94.4,67.2 94.4,67.2 L94.4,67.2 Z" id="Shape" stroke="#1976D2" fill="#2196F3"></path>
            <path d="M94.3,60 L94.6,60.1 C95.4,58.9 97.2,54.9 96.5,52.4 C95.6,49.3 92.1,46.3 92,46.9 C91.9,47.5 95.2,55 95,56.9 C94.7,58.7 94.3,60 94.3,60 L94.3,60 Z" id="Shape" stroke="#1976D2" fill="#2196F3"></path>
            <path d="M95.8,56.4 L96.1,56.6 C97.1,55.7 99.9,52.6 100,50.2 C100.1,47.1 97.8,43.5 97.5,43.9 C97.2,44.4 98.1,52.2 97.3,53.8 C96.5,55.4 95.8,56.4 95.8,56.4 L95.8,56.4 Z" id="Shape" stroke="#1976D2" fill="#2196F3"></path>
            <path d="M94.4,62.5 L94.7,62.5 C94.9,61.5 95.2,58.2 94,56.6 C92.5,54.5 89.1,53.4 89.1,53.9 C89.1,54.4 93.7,58.9 94,60.3 C94.3,61.7 94.4,62.5 94.4,62.5 L94.4,62.5 Z" id="Shape" stroke="#1976D2" fill="#2196F3"></path>
            <g id="Group" transform="translate(164.000000, 65.000000)">
                <path d="M68.8,62.9 C67.7,62.4 65.6,61.4 66.2,57.9 C66.8,54.4 68.6,54 70,56 C71.4,58 71.2,63.9 68.8,62.9 L68.8,62.9 Z" id="Shape" fill="url(#linearGradient-1)"></path>
                <path d="M83.3,64.7 C78.7,62.3 72.3,59.4 69.9,55.9 C69.1,56.9 68.5,60.9 68.8,62.8 C71.6,63.8 79.2,69.9 82.1,71.8 C81.4,76.3 86.7,79.9 87.2,76.8 C87.9,72.7 88.5,71.2 88.4,69.6 C88.3,68 85.9,66.1 83.3,64.7 L83.3,64.7 Z" id="Shape" fill="url(#linearGradient-2)"></path>
                <path d="M67.8,69 C66.7,68.6 64.6,67.5 65.2,64 C65.8,60.5 67.6,60.4 69,62.1 C70.5,64 69.8,69.7 67.8,69 L67.8,69 Z" id="Shape" fill="url(#linearGradient-3)"></path>
                <path d="M82.3,70.8 C77.7,68.4 71.3,65.5 68.9,62 C68.1,63 67.5,67 67.8,68.9 C70.6,69.9 78.2,76 81.1,77.9 C81.5,79.8 86.5,81.1 87,78 C87.1,77.5 87.3,76.4 87.4,75.7 C87.7,74.1 84.9,72.2 82.3,70.8 L82.3,70.8 Z" id="Shape" fill="url(#linearGradient-4)"></path>
                <path d="M157.8,4.9 C141.1,-4.8 122.8,2 112.7,19.2 C107,28.9 105.9,35.8 106.7,41.6 C108,50.8 139.5,71 150.4,66.6 C161.5,62.1 189.4,23.2 157.8,4.9 L157.8,4.9 Z" id="Shape" fill="url(#linearGradient-5)"></path>
                <path d="M128.1,74.3 C126.4,73.9 125.1,74.8 124.6,76.2 C124.4,76.8 121.2,86.2 121.2,86.2 C120.9,87.1 119.8,87.8 118.9,87.6 L114.3,86.7 L113.8,88.3 L118.3,89.2 L123.4,90.3 C125.2,90.7 127.2,89.5 127.8,87.7 L131.2,77.7 C131.7,76.3 130.2,74.7 128.1,74.3 L128.1,74.3 Z" id="Shape" fill="#8A8A8A"></path>
                <path d="M127.8,87.6 C127.8,87.6 130.9,78.3 131.2,77.6 C131.4,76.9 131.5,75 128,74.3 C129.4,74.8 130.1,75.8 129.6,77.3 C129.4,77.9 126.2,87.3 126.2,87.3 C125.9,88.2 124.8,88.9 123.9,88.7 L114.2,86.7 L113.7,88.3 L123.4,90.3 C125.2,90.6 127.2,89.4 127.8,87.6 L127.8,87.6 Z" id="Shape" fill="url(#linearGradient-6)"></path>
                <path d="M136.8,56.8 C126,54.4 118,58.7 110.2,74.9 C107.9,79.6 113.2,81.9 123.6,84 L123.6,84 L123.6,84 C134,86.2 138.6,86 140.9,81.2 C149.2,64 147.8,58.9 136.8,56.8 L136.8,56.8 Z" id="Shape" fill="#B3B1B2"></path>
                <path d="M132.7,86.5 C132.5,87.4 131.7,87.9 130.8,87.7 L98.2,80.9 C97.3,80.7 96.8,79.9 97,79 L97.5,76.8 C97.7,75.9 98.5,75.4 99.4,75.6 L132,82.4 C132.9,82.6 133.4,83.4 133.2,84.3 L132.7,86.5 L132.7,86.5 Z" id="Shape" fill="url(#linearGradient-7)"></path>
                <path d="M118.1,97 C118,97.7 117.8,99 118.1,99 C118.4,99 118.6,99.1 118.8,99.1 C119.2,99.2 119.8,98.4 120,97.3 C120.2,96.2 120,95.3 119.6,95.2 C119.4,95.2 119.2,95.1 118.9,95.1 C118.7,95.1 118.2,96.4 118.1,97 L118.1,97 Z" id="Shape" fill="url(#linearGradient-8)"></path>
                <path d="M117.4,96.8 C117.3,97.5 117.1,98.8 117.4,98.8 C117.7,98.8 117.9,98.9 118.1,98.9 C118.5,99 119.1,98.2 119.3,97.1 C119.5,96 119.3,95.1 118.9,95 C118.7,95 118.5,94.9 118.2,94.9 C118,94.9 117.5,96.3 117.4,96.8 L117.4,96.8 Z" id="Shape" fill="url(#linearGradient-9)"></path>
                <path d="M116.7,96.7 C116.6,97.4 116.4,98.7 116.7,98.7 C117,98.8 117.2,98.8 117.4,98.8 C117.8,98.9 118.4,98.1 118.6,97 C118.8,95.9 118.6,95 118.2,94.9 C118,94.9 117.8,94.8 117.5,94.8 C117.3,94.8 116.8,96.1 116.7,96.7 L116.7,96.7 Z" id="Shape" fill="url(#linearGradient-10)"></path>
                <path d="M116.4,96.6 C116.2,97.7 116.4,98.6 116.8,98.7 C117.2,98.8 117.8,98 118,96.9 C118.2,95.8 118,94.9 117.6,94.8 C117.2,94.7 116.6,95.5 116.4,96.6 L116.4,96.6 Z" id="Shape" fill="url(#linearGradient-11)"></path>
                <path d="M105.2,94.3 C105.1,95 104.9,96.3 105.2,96.3 C105.5,96.4 105.7,96.4 105.9,96.4 C106.3,96.5 106.9,95.7 107.1,94.6 C107.3,93.5 107.1,92.6 106.7,92.5 C106.5,92.5 106.3,92.4 106,92.4 C105.8,92.4 105.3,93.7 105.2,94.3 L105.2,94.3 Z" id="Shape" fill="url(#linearGradient-12)"></path>
                <path d="M104.5,94.1 C104.4,94.8 104.2,96.1 104.5,96.1 C104.8,96.2 105,96.2 105.2,96.2 C105.6,96.3 106.2,95.5 106.4,94.4 C106.6,93.3 106.4,92.4 106,92.3 C105.8,92.3 105.6,92.2 105.3,92.2 C105,92.2 104.6,93.6 104.5,94.1 L104.5,94.1 Z" id="Shape" fill="url(#linearGradient-13)"></path>
                <path d="M103.7,94 C103.6,94.7 103.4,96 103.7,96 C104,96.1 104.2,96.1 104.4,96.1 C104.8,96.2 105.4,95.4 105.6,94.3 C105.8,93.2 105.7,92.3 105.2,92.2 C105,92.2 104.8,92.1 104.5,92.1 C104.2,92.1 103.9,93.4 103.7,94 L103.7,94 Z" id="Shape" fill="url(#linearGradient-14)"></path>
                <path d="M103.4,93.9 C103.2,95 103.4,95.9 103.8,96 C104.2,96.1 104.8,95.3 105,94.2 C105.2,93.1 105,92.2 104.6,92.1 C104.2,92 103.6,92.8 103.4,93.9 L103.4,93.9 Z" id="Shape" fill="url(#linearGradient-15)"></path>
                <path d="M118.4,95 L112.1,95.3 L112.9,91.4 L118.7,93.8 L118.4,95 Z" id="Shape" fill="url(#linearGradient-16)"></path>
                <path d="M114.8,93 L109.5,91.9 L111.2,83.7 L116.5,84.8 L114.8,93 Z" id="Shape" fill="url(#linearGradient-17)"></path>
                <path d="M116.5,89.3 L109.4,87.8 L110.3,83.5 L117.4,85 L116.5,89.3 Z" id="Shape" fill="url(#linearGradient-18)"></path>
                <path d="M98.4,91.8 L112.1,94.7 L112.8,91.3 L98.6,90.7 L98.4,91.8 Z" id="Shape" fill="url(#linearGradient-19)"></path>
                <circle id="Oval" fill="url(#linearGradient-20)" cx="98" cy="93.8" r="2"></circle>
                <path d="M125.9,97.6 L112.1,94.7 L112.8,91.3 L126.1,96.4 L125.9,97.6 Z" id="Shape" fill="url(#linearGradient-21)"></path>
                <circle id="Oval" fill="url(#linearGradient-22)" cx="125.4" cy="99.5" r="2"></circle>
                <path d="M109.9,94.9 L111,95.2 L111.2,94 L110.1,93.7 L109.9,94.9 Z" id="Shape" fill="url(#linearGradient-23)"></path>
                <path d="M111,95.2 L112.1,95.4 L112.9,91.5 L111.2,94 L111,95.2 Z" id="Shape" fill="url(#linearGradient-24)"></path>
                <path d="M110.1,93.7 L111.2,94 L112.9,91.5 L111.8,91.2 L110.1,93.7 Z" id="Shape" fill="url(#linearGradient-25)"></path>
                <path d="M109.9,97 C109.8,97.6 109.5,98.9 109.1,98.9 C108.7,98.8 108.2,98.7 108,98.7 C107.7,98.6 107.6,97.7 107.8,96.6 C108,95.5 108.5,94.7 108.8,94.8 C109,94.8 109.6,95 109.9,95 C110.2,95 109.9,96.5 109.9,97 L109.9,97 Z" id="Shape" fill="url(#linearGradient-26)"></path>
                <path d="M110.9,97.2 C110.8,97.8 110.5,99.1 110.1,99.1 C109.7,99 109.2,98.9 109,98.9 C108.7,98.8 108.6,97.9 108.8,96.8 C109,95.7 109.5,94.9 109.8,95 C110,95 110.6,95.2 110.9,95.2 C111.3,95.2 111,96.8 110.9,97.2 L110.9,97.2 Z" id="Shape" fill="url(#linearGradient-27)"></path>
                <path d="M112,97.4 C111.9,98 111.6,99.3 111.2,99.3 C110.8,99.2 110.3,99.1 110.1,99.1 C109.8,99 109.7,98.1 109.9,97 C110.1,95.9 110.6,95.1 110.9,95.2 C111.1,95.2 111.7,95.4 112,95.4 C112.4,95.5 112.1,97 112,97.4 L112,97.4 Z" id="Shape" fill="url(#linearGradient-28)"></path>
                <path d="M112.2,97.5 C112,98.6 111.5,99.4 111.2,99.3 C110.9,99.2 110.8,98.3 111,97.2 C111.2,96.1 111.7,95.3 112,95.4 C112.4,95.5 112.5,96.4 112.2,97.5 L112.2,97.5 Z" id="Shape" fill="url(#linearGradient-29)"></path>
                <path d="M113.8,48.3 C111.9,50.9 105.5,66.4 111.5,69.9 C117.5,73.4 127.8,60.5 130.7,57.8 C133.7,55.1 115.8,45.6 113.8,48.3 L113.8,48.3 Z" id="Shape" fill="url(#linearGradient-30)"></path>
                <path d="M120.8,75.4 C120.8,75.4 123,83.9 117.2,82.7 C111.4,81.5 94.9,78.1 90.9,77.2 C86.9,76.4 87.9,68.5 93.2,69.6 C98.4,70.7 120.8,75.4 120.8,75.4 L120.8,75.4 Z" id="Shape" fill="url(#linearGradient-31)"></path>
                <path d="M103,71.7 L93.7,69.8 L93.7,69.8 L87.6,66.5 C82.3,65.4 80.7,75.6 84.7,76.4 L102.1,79.6 C106,80.4 108.3,72.8 103,71.7 L103,71.7 Z" id="Shape" fill="#0D47A1"></path>
                <path d="M153,65.1 C152.1,68.6 145.8,65.7 134.6,60 C130.8,58.1 127.3,62.5 130.2,64.7 C147.6,78 165.5,80.4 162.5,55.1 C159.4,59.6 155.9,63.1 153,65.1 L153,65.1 Z" id="Shape" fill="#0D47A1"></path>
                <path d="M114.8,49.4 C108.6,43.5 106.7,40.1 106.5,37.7 C106.6,33.8 107.6,29.3 110.2,23.9 C92.4,25.2 94.2,41 112,53.4 C114.9,55.5 117.8,52.3 114.8,49.4 L114.8,49.4 Z" id="Shape" fill="#0D47A1"></path>
                <path d="M113.9,51.9 C113.3,53.3 109.5,64.6 110.2,66.7 C114.7,64.4 129.8,56.8 130.6,56.4 C131.5,56 133.7,59 134.5,60 C135.3,61 124.2,70.5 123.2,73.9 C122.3,77.1 122.5,81.6 122.5,81.6 L102.7,71.1 C102.7,71.1 106.1,65.6 106.6,64.3 C105.5,63.3 104.6,59.6 105.3,57.5 C106.2,55 109.7,52.8 112.4,50.8 C114.4,49.6 114.9,49.6 113.9,51.9 L113.9,51.9 Z" id="Shape" fill="#0D47A1"></path>
                <path d="M123.1,50.6 C123.1,50.6 120.4,49.2 117.5,47.5 C114.3,53.3 115.4,56.4 115.4,56.4 C115.4,56.4 125.6,59.4 128.8,53.6 C125.7,52.1 123.1,50.6 123.1,50.6 L123.1,50.6 Z" id="Shape" fill="url(#linearGradient-32)"></path>
                <circle id="Oval" fill="#F3B175" transform="translate(116.004900, 54.482750) rotate(-61.476881) translate(-116.004900, -54.482750) " cx="116.0049" cy="54.48275" r="1.09996932"></circle>
                <circle id="Oval" fill="#F3B175" transform="translate(117.937460, 56.181780) rotate(-61.471847) translate(-117.937460, -56.181780) " cx="117.93746" cy="56.18178" r="1.10002185"></circle>
                <circle id="Oval" fill="url(#linearGradient-33)" cx="115.7" cy="53.8" r="1.1"></circle>
                <circle id="Oval" fill="url(#linearGradient-34)" cx="117.7" cy="55.6" r="1.1"></circle>
                <circle id="Oval" fill="url(#linearGradient-35)" cx="120.3" cy="56.7" r="1.1"></circle>
                <path d="M115.5,56.5 C117.7,57.7 127.2,55.4 130,52.8 C130.9,53.1 132.3,56.4 132.4,56.8 C132.5,57.2 127.4,63.6 126.6,66 C126.4,63.4 124.7,57.7 124.1,57.4 C123.5,57.1 115.8,58.9 114.4,57.9 C113,56.9 113,51.5 112.3,51.1 C111.7,50.7 107,52.6 105.8,52.8 C107,51.8 115.2,46.7 116.3,47.4 C117.4,48.1 118.2,48.1 118.2,48.1 C118.2,48.1 114.2,55.8 115.5,56.5 L115.5,56.5 Z" id="Shape" fill="#FFFFFF"></path>
                <path d="M157.2,46.1 C161.8,39.8 164.7,33.9 160.5,25.4 C153.6,11.5 142.4,4.9 134.4,6.5 C126.7,8 122.7,11.6 118.2,17.9 C113.3,24.8 110.9,30.3 110.8,33.8 C110.6,39.5 112.9,47.8 119,52 C129.2,58.5 133.5,57.6 141.3,57 C147.3,56.5 152.2,52.9 157.2,46.1 L157.2,46.1 Z" id="Shape" fill="url(#linearGradient-36)"></path>
                <path d="M154.2,44.4 C143.8,44.9 156.7,25.1 151.4,20.7 C146,23.5 135.3,25.2 126.3,20.7 C131.8,22.2 140.3,21.3 143,18.9 C137.8,19.1 124.5,19.5 119.8,15.8 C130.6,1.3 143.4,-4.3 161.2,11.6 C178.9,27.4 165.4,41 160.2,46.3 C159.5,45.4 158.6,44.2 154.2,44.4 L154.2,44.4 Z" id="Shape" fill="#EEB87D"></path>
                <path d="M141.5,23.8 C144,24.2 147.4,26.6 148.7,28.2 C147.7,25.7 144.2,22.8 141.5,23.8 L141.5,23.8 Z" id="Shape" fill="#7E1416"></path>
                <path d="M134.2,19.3 C133.5,16.9 130.6,13.8 128.9,12.8 C131.4,13.4 134.7,16.5 134.2,19.3 L134.2,19.3 Z" id="Shape" fill="#7E1416"></path>
                <path d="M156.8,43.2 L148,54 C150.3,56.5 155.2,59.5 159.4,54.3 C163.7,49.2 160.1,44.8 156.8,43.2 L156.8,43.2 Z" id="Shape" fill="url(#linearGradient-37)"></path>
                <path d="M155.7,45.7 L150.2,52.5 C151.7,54.1 154.7,56 157.4,52.7 C160.1,49.4 157.8,46.6 155.7,45.7 L155.7,45.7 Z" id="Shape" fill="url(#linearGradient-38)"></path>
                <path d="M154.2,44.4 C146.8,44.9 157.8,23.5 152.5,19.1 C147.1,21.9 135.9,23.8 126.9,19.4 C132.4,20.9 140.9,20 143.6,17.6 C138.4,17.8 123.8,17.2 119.1,13.6 C131.2,0.4 144,-4.1 160.9,8.6 C179.9,22.8 168,40.7 160.5,46.5 C159.7,45.5 158.6,44.1 154.2,44.4 L154.2,44.4 Z" id="Shape" fill="url(#linearGradient-39)"></path>
                <path d="M172.4,28.8 C172.1,29.1 171.7,29.3 171.3,29.5 C171,29.6 170.7,29.7 170.3,29.7 C166.2,30.2 157.8,27.3 153.9,25 C153.6,30 151.6,36.5 151.5,40.6 C153.9,42.7 158.3,44.2 161.8,44.6 L162.2,44.6 C164.2,44.8 166.7,44.6 168.9,44.2 C171,39.3 172.3,34 172.4,28.8 L172.4,28.8 Z" id="Shape" fill="url(#linearGradient-40)"></path>
                <path d="M143,0.4 C134.5,0.1 126.4,3.5 119.8,10 C120.1,11.4 121.5,13.9 123,15.5 C128.5,17.2 136.9,17.7 141.6,17.7 C138.8,13.3 140,4 143,0.4 L143,0.4 Z" id="Shape" fill="url(#linearGradient-41)"></path>
                <path d="M121.2,38.9 C120.9,38.6 123.4,38.3 124.3,38.7 C125.2,39.1 125.1,39.8 125.1,39.8 C125.1,39.8 126,39.5 126.7,39.8 C127.6,40.3 131.4,43.7 132.9,44.9 C131.3,47.2 127,53.3 121.2,50.1 C117.2,47.8 121.2,39 121.2,38.9 L121.2,38.9 Z" id="Shape" fill="url(#linearGradient-42)"></path>
                <path d="M121.2,38.9 C123.1,39.8 130.2,43.9 132.9,44.8 C130.8,45.6 127,49.8 122.4,47.4 C119,45.8 120.8,39.9 121.2,38.9 L121.2,38.9 Z" id="Shape" fill="url(#linearGradient-43)"></path>
                <path d="M124.4,42.6 C126.4,43.6 129.2,44.8 131.8,44.4 C129.3,43.3 125,41.1 122.5,39.6 L122.5,39.6 C122.4,40.7 122.6,41.6 124.4,42.6 L124.4,42.6 Z" id="Shape" fill="#FFFFFF"></path>
                <path d="M123.7,48.4 C122.7,48.2 122.3,48 122.3,48.1 C122.3,48.2 122.6,48.5 123.6,48.7 C124.6,48.9 125.3,49 125.3,48.8 C125.3,48.8 124.7,48.7 123.7,48.4 L123.7,48.4 Z" id="Shape" fill="#FCDBD0"></path>
                <ellipse id="Oval" fill="#FDD3AA" transform="translate(141.800600, 46.512000) rotate(-54.195894) translate(-141.800600, -46.512000) " cx="141.8006" cy="46.512" rx="2.7999244" ry="4.0998893"></ellipse>
                <ellipse id="Oval" fill="#FDD3AA" transform="translate(115.418300, 28.425320) rotate(-54.203893) translate(-115.418300, -28.425320) " cx="115.4183" cy="28.42532" rx="1.99999122" ry="2.09999078"></ellipse>
                <path d="M143.2,37.6 C143.8,38.2 144.2,38.5 144.7,38.7 C144,38.9 143.1,38.7 142.7,38.2 C142.2,37.8 142.7,37.2 143.2,37.6 L143.2,37.6 Z" id="Shape" fill="#7E1416"></path>
                <circle id="Oval" fill="url(#linearGradient-44)" cx="138.8" cy="35.9" r="4.7"></circle>
                <circle id="Oval" fill="#FFFFFF" transform="translate(138.830040, 35.888120) rotate(-50.640450) translate(-138.830040, -35.888120) " cx="138.83004" cy="35.88812" r="4.20010055"></circle>
                <circle id="Oval" fill="url(#linearGradient-45)" cx="139.8" cy="35.7" r="2.5"></circle>
                <circle id="Oval" fill="url(#linearGradient-46)" cx="139.9" cy="35.8" r="1.8"></circle>
                <circle id="Oval" fill="#FFFFFF" transform="translate(140.309400, 34.208580) rotate(-50.640450) translate(-140.309400, -34.208580) " cx="140.3094" cy="34.20858" r="0.50001197"></circle>
                <path d="M121.1,21.3 C120.4,20.8 120.1,20.5 119.7,20.1 C119.6,20.9 120,21.7 120.6,22 C121.1,22.2 121.6,21.7 121.1,21.3 L121.1,21.3 Z" id="Shape" fill="#7E1416"></path>
                <circle id="Oval" fill="url(#linearGradient-47)" cx="123.7" cy="25.3" r="4.7"></circle>
                <circle id="Oval" fill="#FFFFFF" transform="translate(123.727600, 25.330920) rotate(-50.640450) translate(-123.727600, -25.330920) " cx="123.7276" cy="25.33092" r="4.20010055"></circle>
                <circle id="Oval" fill="url(#linearGradient-48)" cx="124.7" cy="25.2" r="2.5"></circle>
                <circle id="Oval" fill="url(#linearGradient-49)" cx="124.8" cy="25.2" r="1.8"></circle>
                <circle id="Oval" fill="#FFFFFF" transform="translate(125.221860, 23.606780) rotate(-50.640450) translate(-125.221860, -23.606780) " cx="125.22186" cy="23.60678" r="0.50001197"></circle>
                <path d="M128.4,33.7 C126.5,31.7 124.1,31.2 122.6,32.4 C121.1,33.6 122.6,35.5 124.3,37.1 C121.6,33.5 126.2,31.7 128.4,33.7 L128.4,33.7 Z" id="Shape" fill="#FCC680"></path>
                <path d="M124.3,37 L128.5,33.7 C126.2,31.7 121.6,33.5 124.3,37 L124.3,37 Z" id="Shape" fill="#FFDDAE"></path>
                <path d="M57.5,68 C57.5,68.4 57.2,68.5 56.7,68.5 L50.8,68.5 C50.4,68.5 50,68.4 50,68 C50,67.6 50.3,67.5 50.8,67.5 L56.7,67.5 C57.2,67.5 57.5,67.6 57.5,68 L57.5,68 Z" id="Shape" fill="#80807F"></path>
                <path d="M18.7,36.5 L57.5,36.5 L59.7,60.5 L20.9,60.5 L18.7,36.5 Z" id="Shape" fill="#9E9E9E"></path>
                <path d="M57.5,36.7 L58.1,36.1 L60.3,59.9 L59.7,60.6 L57.5,36.7 Z" id="Shape" fill="#BBBDBF"></path>
                <path d="M18.7,36.5 L19.8,35.5 L58.1,35.5 L57.5,36.5 L18.7,36.5 Z" id="Shape" fill="#D0D2D3"></path>
                <path d="M42.9,49.5 L33.4,49.5 L29.5,68.5 L39.1,68.5 L42.9,49.5 Z" id="Shape" fill="#FF9800"></path>
                <path d="M42.9,50 L43.1,50.3 L39.7,66.5 L39.4,66.5 L42.9,50 Z" id="Shape" fill="#808184"></path>
                <path d="M24.3,66.5 L44.8,66.5 L44.3,69.5 L23.8,69.5 L24.3,66.5 Z" id="Shape" fill="#80807F"></path>
                <path d="M44.8,66.8 L47.8,69.2 L44.3,69.2 L44.8,66.8 Z" id="Shape" fill="#929497"></path>
                <rect id="Rectangle-path" fill="#FF9800" x="5.7" y="68.5" width="135" height="52"></rect>
                <path d="M145.7,70.6 C145.7,69.5 144.8,68.5 143.6,68.5 L2.7,68.5 C1.6,68.5 0.6,69.4 0.6,70.6 L0.6,71.5 C0.6,72.6 1.5,73.6 2.7,73.6 L143.6,73.6 C144.7,73.6 145.7,72.7 145.7,71.5 L145.7,70.6 L145.7,70.6 L145.7,70.6 Z" id="Shape" fill="#F57C00"></path>
            </g>
        </g>
    </g>
</svg>