<?xml version="1.0" encoding="utf-8"?>
<!-- Generator: Adobe Illustrator 19.2.1, SVG Export Plug-In . SVG Version: 6.00 Build 0)  -->
<svg version="1.1" id="Layer_1" xmlns="http://www.w3.org/2000/svg" xmlns:xlink="http://www.w3.org/1999/xlink" x="0px" y="0px"
	 viewBox="0 0 468.3 247.6" style="enable-background:new 0 0 468.3 247.6;" xml:space="preserve">
<g>
	<path fill="#2A87DD" d="M466.2,242.4c-17.8,1.9-17.9-0.4-35.7-0.4c-17.9,0-17.9,0.3-35.7,0.3c-17.9,0-17.9-0.2-35.7-0.2
		c-17.9,0-17.9-0.2-35.7-0.2c-17.9,0-17.9,0.4-35.7,0.4c-17.9,0-17.9-0.2-35.7-0.2c-17.9,0-17.9,0.6-35.7,0.6
		c-17.9,0-17.9-0.1-35.7-0.1c-17.9,0-17.9-0.7-35.7-0.7c-17.9,0-17.9,0.8-35.7,0.8c-17.9,0-17.9-0.2-35.7-0.2
		c-17.9,0-17.9-0.7-35.7-0.7s-18,2.4-35.7,0.5c-1.9-0.2-1.9-3.4,0-3.7c17.8-1.9,17.8-0.3,35.7-0.3c17.9,0,17.9,0.3,35.7,0.3
		c17.9,0,17.9-0.3,35.7-0.3c17.9,0,17.9,0.2,35.7,0.2c17.9,0,17.9-0.3,35.7-0.3c17.9,0,17.9,0.6,35.7,0.6c17.9,0,17.9-0.3,35.7-0.3
		c17.9,0,17.9-0.2,35.7-0.2c17.9,0,17.9,0.3,35.7,0.3c17.9,0,17.9,0,35.7,0c17.9,0,17.9-0.2,35.7-0.2c17.9,0,17.9-0.2,35.7-0.2
		c17.9,0,18-1.9,35.8-0.1C468.5,238.5,468.1,242.2,466.2,242.4z"/>
</g>
<circle fill="#3182C4" cx="269.4" cy="236.2" r="2.7"/>
<path fill="#2C74A4" d="M272.1,235.5h-1.2c0,1-0.2,1.1-0.4,1.4c-0.3,0.3-0.6,0.6-1.1,0.6c-0.4,0-0.8-0.1-1.1-0.4
	c-0.3-0.3-0.4-0.6-0.4-1c0-0.4,0.2-0.8,0.4-1c0.3-0.3,0.6-0.4,1.1-0.4c0.4,0,0.8-0.2,1.1,0.1c0.3,0.3,0.4,0.7,0.4,0.7H272.1h1.2
	c0-2-1.7-3.5-3.8-3.5c-2.1,0-3.8,1.9-3.8,4c0,2.1,1.7,3.6,3.8,3.6c2.1,0,3.8-2.1,3.8-4.1H272.1z"/>
<circle fill="#3182C4" cx="437.1" cy="236.2" r="2.7"/>
<path fill="#2C74A4" d="M439.8,235.5h-1.2c0,1-0.2,1.1-0.4,1.4c-0.3,0.3-0.6,0.6-1.1,0.6c-0.4,0-0.8-0.1-1.1-0.4
	c-0.3-0.3-0.4-0.6-0.4-1c0-0.4,0.2-0.8,0.4-1c0.3-0.3,0.6-0.4,1.1-0.4c0.4,0,0.8-0.2,1.1,0.1c0.3,0.3,0.4,0.7,0.4,0.7H439.8h1.2
	c0-2-1.7-3.5-3.8-3.5c-2.1,0-3.8,1.9-3.8,4c0,2.1,1.7,3.6,3.8,3.6c2.1,0,3.8-2.1,3.8-4.1H439.8z"/>
<path fill="#3182C4" d="M262.7,181.5v54h183v-54H262.7z M267.7,189.5h47v18h-47V189.5z M314.7,230.5h-47v-19h47V230.5z M318.7,189.5h70
	v18h-70V189.5z M388.7,230.5h-69v-19h69V230.5z M393.7,189.5h47v18h-47V189.5z M440.7,230.5h-47v-19h47V230.5z"/>
<path fill="#2C74A4" d="M262.7,181.5h-1v55h185v-56h-185v1H262.7v1h183v53h-183V181.5L262.7,181.5v1.8V181.5z M267.7,189.5v2h46v15h-45
	v-17H267.7v1.8V189.5h-2v19h50v-20h-50v1H267.7z M314.7,230.5v-1h-46v-17h45v18H314.7v-1.4V230.5h1v-20h-50v21h50v-1H314.7z
	 M318.7,189.5v2h69v15h-67v-17H318.7v1.8V189.5h-1v19h72v-20h-72v1H318.7z M388.7,230.5v-1h-68v-17h67v18H388.7v-1.4V230.5h1v-20
	h-72v21h72v-1H388.7z M393.7,189.5v2h46v15h-45v-17H393.7v1.8V189.5h-1v19h50v-20h-50v1H393.7z M440.7,230.5v-1h-46v-17h45v18H440.7
	v-1.4V230.5h2v-20h-50v21h50v-1H440.7z"/>
<rect x="329.7" y="180.5" fill="#3182C4" width="44" height="1"/>
<polygon fill="#2C74A4" points="373.7,181.5 373.7,180.5 330.9,180.5 330.9,180.5 329.7,180.5 329.7,181.5 371.5,181.5 371.5,181.5 
	373.7,181.5 373.7,180.7 373.7,181.5 374.7,181.5 374.7,179.5 328.7,179.5 328.7,182.5 374.7,182.5 374.7,181.5 "/>
<rect x="343.7" y="166.5" fill="#3182C4" width="17" height="14"/>
<polygon fill="#2C74A4" points="360.7,180.5 360.7,179.5 344.7,179.5 344.7,167.5 359.7,167.5 359.7,180.5 360.7,180.5 360.7,179.5 
	360.7,180.5 361.7,180.5 361.7,165.5 342.7,165.5 342.7,181.5 361.7,181.5 361.7,180.5 "/>
<rect x="300.7" y="111.5" fill="#3182C4" width="105" height="54"/>
<polygon fill="#2C74A4" points="405.7,165.5 405.7,164.5 301.7,164.5 301.7,112.5 404.7,112.5 404.7,165.5 405.7,165.5 405.7,164.2 
	405.7,165.5 406.7,165.5 406.7,109.5 299.7,109.5 299.7,166.5 406.7,166.5 406.7,165.5 "/>
<rect x="326.7" y="199.5" fill="#3182C4" width="55" height="8"/>
<polygon fill="#2C74A4" points="381.7,207.5 381.7,206.5 327.7,206.5 327.7,200.5 380.7,200.5 380.7,207.5 381.7,207.5 381.7,207.1 
	381.7,207.5 381.7,207.5 381.7,198.5 325.7,198.5 325.7,208.5 381.7,208.5 381.7,207.5 "/>
<path fill="#3182C4" d="M277.4,180.5h-6.7c-0.7,0-2.1,0-2.1,0v-13.4c0-0.7,1.3-1.6,2.1-1.6h6.7c0.7,0,1.3,0.9,1.3,1.6v13.4
	C278.7,180.5,278.1,180.5,277.4,180.5z"/>
<path fill="#2C74A4" d="M276.7,181v-1.5h-5.9c-0.7,0-2.1,0-2.1,0v1h2v-13c0,0,0,0,0.1,0h6.7c0.1,0,0.3,0,0.3,0v13h1v-1c0,0-1,0-2,0V181
	v0.5c1,0,2.1,0,2.1,0h0.9v-14.4c0-1.4-0.9-2.6-2.3-2.6h-6.7c-1.4,0-2.1,1.2-2.1,2.6v14.4h0.7c0,0,0.6,0,1.3,0h5.9V181z"/>
<path fill="#3182C4" d="M273.7,165.8c0-2.1,0.7-3.8,1.6-3.8"/>
<path fill="#2C74A4" d="M274.7,165.6c0-0.9,0.3-1.6,0.5-2.1c0.1-0.2,0.3-0.4,0.3-0.4l0,0l-0.1-0.2l0.1,0.2l0.1,0l-0.1-0.2l-0.3,0.2
	l-0.5-0.4v0.4l0.1,0l-0.1-0.4v0.4v-2.3c0,0-0.2,0.1-0.5,0.2c-0.4,0.2-0.6,0.5-0.8,0.8c-0.4,0.5-0.5,0.9-0.7,1.6
	c-0.2,0.7-0.2,2-0.2,2h2.1V165.6z"/>
<path fill="#3182C4" d="M287.2,180.5h-5.3c-0.6,0-1.3,0-1.3,0v-8.7c0-0.5,0.7-1.3,1.3-1.3h5.3c0.6,0,1.5,0.8,1.5,1.3v8.7
	C288.7,180.5,287.8,180.5,287.2,180.5z"/>
<path fill="#2C74A4" d="M287.7,181v-1.5h-5.7c-0.6,0-1.3,0-1.3,0v1h1v-9h0l0.4,0.2c0,0,0-0.2,0-0.2h-0.4l0.4,0.3l-0.2,0l0.1,0.2
	c0,0,0,0,0.1-0.1l-0.2-0.1l0.1,0.2l0,0l0,0l0,0l0,0l0-0.3l0-0.3h5.3l0,0.3l0,0l-0.1,0.2l0.1,0.1l0-0.1l-0.1-0.1l0.3-0.4h-0.4
	c0,0,0,0.2,0.1,0.2l0.3-0.2h-0.8v9h2v-1h-1V181v0.5h0.6h1.4v-9.7c0-0.6-0.4-1.8-0.9-2.2c-0.4-0.3-1.1-1.2-1.6-1.2h-5.3
	c-0.6,0-1.1,0.8-1.5,1.2c-0.4,0.3-0.7,1.5-0.7,2.2v9.7h1.2c0,0,0.5,0,1.1,0h5.7V181z"/>
<path fill="#3182C4" d="M284.3,170.9c0-1.4,0.6-2.5,1.3-2.5"/>
<path fill="#2C74A4" d="M285.7,171.1c0-0.5,0-1.1,0.1-1.3c0-0.1,0-0.1,0-0.2l0-0.1l0,0l-0.2-0.3v0.3c0,0,0.2-0.1,0.2-0.1l-0.2-0.3v0.3
	v-2.3c-1,0-1,0.2-1.3,0.5c-0.5,0.4-0.8,0.7-1,1.2c-0.2,0.5-0.3,1.6-0.3,1.6h2.6V171.1z"/>
<path fill="#3182C4" d="M302.8,206.5h-28.6c-0.3,0-0.5,0.4-0.5,0.2v-1c0-0.3,0.3-1.2,0.5-5.2h28.6c0.3,4,0.9,5,0.9,5.2v1
	C303.7,206.9,303.1,206.5,302.8,206.5z"/>
<path fill="#2C74A4" d="M303.7,207.2v-1.7h-30v1h1.2c0-1-0.2-0.5-1.2-0.5v0.5h1v-1h-0.4l0.6,0.1l0-0.1h-0.6l0.6,0.2l-0.4,0l0.3,0.1l0,0
	l-0.4,0l0.3,0.1c0,0,0-0.1,0.1-0.3c0.1-0.5,0-1.6,0.2-4.3l-1.4-0.1v1.3h30v-1.3l-1.6,0.1c0.1,2.1,0,3.2,0.1,3.8c0,0.3,0,0.5,0,0.7
	c0,0.1,0,0.1,0,0.1l0.1-0.1l-0.6,0v0l0.6-0.1l-0.2-0.1l0.8-0.2h-0.6l0,0.1l0.6-0.1h-1.1v1h2V206c-2,0-1.6-0.5-1.6,0.5h1.6V206V207.2
	v1.2c0,0,0-0.7,0-1.6v-1c0-0.1,0.4-0.2,0.4-0.3c0-0.1,0.2-0.2,0.1-0.3c-0.1-0.4-0.1-1.6-0.3-4.3l0-1.3h-30.8l-0.1,1.3
	c-0.1,2-0.2,3.2-0.3,3.7c0,0.3-0.1,0.5-0.1,0.6c0,0.1-0.5,0.1-0.5,0.2c0,0.1-0.5,0.2-0.5,0.3v1c0,0.9,1.6,0.8,2.5,0.8h29.5V207.2z"
	/>
<path fill="#3182C4" d="M414.8,200.5c0,5-3.1,6.9-6.9,6.9c-3.8,0-6.9-1.9-6.9-6.9H414.8z"/>
<path fill="#2C74A4" d="M414.7,200.5h-1c0,2-0.6,3.3-1.7,4.3c-1,1-2.5,1.8-4.1,1.8c-1.6,0-3-0.8-4.1-1.9c-1-1-1.7-2.3-1.7-4.3h-1.5v2
	h14V200.5h-1H414.7v-1h-15v1.5c0,4.5,4,8.1,8.5,8.1c4.5,0,8.5-3.6,8.5-8.1v-1.5h-2V200.5z"/>
<path fill="#3182C4" d="M429.9,202.5c0,3-2.4,5.4-5.4,5.4s-5.4-2.4-5.4-5.4H429.9z"/>
<path fill="#2C74A4" d="M429.7,202.5h-0.9c0,1-0.5,2.2-1.2,3c-0.8,0.8-1.8,1.2-3,1.2c-1.2,0-2.2-0.5-3-1.3c-0.8-0.8-1.2-2-1.2-3h-1.7v1
	h11V202.5h-0.9H429.7v-2h-12v2.1c0,3.6,3.4,6.5,7,6.5c3.6,0,7-2.9,7-6.5v-2.1h-2V202.5z"/>
<path fill="#3182C4" d="M291.4,216.5H287c-0.5,0-0.9-0.5-0.9-1c0-0.5,0.4-1,0.9-1h4.4c0.5,0,0.9,0.5,0.9,1
	C292.3,216,291.9,216.5,291.4,216.5z"/>
<path fill="#2C74A4" d="M291.7,216.5v-1h-5l0,0h0.7c0,0,0.4-0.2-0.6-0.2v0.2h0.6h-0.6v0.4c1,0,0.6-0.4,0.6-0.4h-0.7l0,0h4.8l0,0h-0.4
	c0,0,0.6,0.4,0.6,0.4v-0.4h-0.6h0.6v-0.2c0,0-0.5,0.2-0.6,0.2h0.6v-0.2V216.5v1.2c1,0,1.9-1,1.9-2.1c0-1.1-1-2.1-2.2-2.1H287
	c-1.1,0-2,0.9-2,2c0,1.1,0.9,2,2,2h4.7V216.5z"/>
<path fill="#3182C4" d="M356.5,217.5h-4.4c-0.5,0-0.9-0.5-0.9-1c0-0.5,0.4-1,0.9-1h4.4c0.5,0,0.9,0.5,0.9,1
	C357.3,217,357,217.5,356.5,217.5z"/>
<path fill="#2C74A4" d="M355.7,217.6v-1.1h-3.5l0,0h0.2c0,0,0.3,0,0.3,0v0h-0.3h0.3v0.5c0,0-0.3-0.5-0.3-0.5h-0.2l0,0h3.9l0,0h0.1
	c0,0-0.5,0.5-0.5,0.5v-0.5h0.5h-0.5v0c0,0,0.5,0,0.5,0h-0.5v0V217.6v1.2c2,0,2.4-1,2.4-2.1c0-1.1-0.5-2.1-1.6-2.1h-4.4
	c-1.1,0-2,0.9-2,2c0,1.1,0.9,2,2,2h3.6V217.6z"/>
<path fill="#3182C4" d="M419.4,217.5H415c-0.5,0-0.9-0.5-0.9-1c0-0.5,0.4-1,0.9-1h4.4c0.5,0,0.9,0.5,0.9,1
	C420.2,217,419.9,217.5,419.4,217.5z"/>
<path fill="#2C74A4" d="M418.7,217.6v-1.1H415l0,0h0.2c0,0-0.6,0-0.6,0v0h0.6h-0.6v0.5c0,0,0.6-0.5,0.6-0.5H415l0,0h3.9l0,0h0.2
	c0,0-0.4,0.5-0.4,0.5v-0.5h0.4h-0.4v0c0,0,0.4,0,0.4,0h-0.4v0V217.6v1.2c2,0,2.4-1,2.4-2.1c0-1.1-0.6-2.1-1.7-2.1H415
	c-1.1,0-2,0.9-2,2c0,1.1,0.9,2,2,2h3.7V217.6z"/>
<path fill="#2C74A4" d="M414.7,152.5v28h20v-28H414.7z M432.7,177.5h-16v-22h16V177.5z"/>
<path fill="#2C74A4" d="M414.7,153.1L414.7,153.1v27.4h20v-28h-20l0,0l0,0v1h19v26h-19V153.1L414.7,153.1v0.7V153.1z M432.7,177.5
	L432.7,177.5h-16v-22h15v22H432.7v0.8v-0.1l0,0v-23.7h-16v25h16V177.5L432.7,177.5z"/>
<rect x="346.7" y="166.5" fill="#3182C4" width="1" height="14"/>
<polygon fill="#2C74A4" points="347.7,180.5 347.7,179.2 347.7,179.2 347.7,167.6 347.7,167.6 347.7,166.5 346.7,166.5 346.7,180.5 
	347.7,180.5 347.7,179.5 347.7,180.5 348.7,180.5 348.7,165.5 344.7,165.5 344.7,181.5 348.7,181.5 348.7,180.5 "/>
<polygon fill="#3182C4" points="338.2,199.2 329.7,207.5 335.6,207.5 344.2,199.1 "/>
<polygon fill="#2C74A4" points="338.2,199.5 337.4,198.3 326.8,208.5 336.1,208.5 347,198 337.7,198.1 337.4,198.6 338.2,199.4 
	338.2,200.6 341.3,200.5 335.2,206.5 332.5,206.5 339,200.1 338.2,199.4 338.2,200.6 "/>
<rect x="122.7" y="62.5" fill="#3182C4" width="5" height="176"/>
<polygon fill="#2C74A4" points="122.7,238.5 122.7,240.5 127.7,240.5 127.7,60.5 121.7,60.5 121.7,240.5 122.7,240.5 122.7,238.5 
	122.7,238.5 122.7,63.5 125.7,63.5 125.7,237.5 122.7,237.5 122.7,238.5 123.7,238.5 "/>
<rect x="5.7" y="100.5" fill="#3182C4" width="137" height="2"/>
<polygon fill="#2C74A4" points="143.7,102.5 143.7,101.5 7.7,101.5 7.7,100.5 5.7,100.5 5.7,101.5 142.7,101.5 142.7,102.5 
	143.7,102.5 143.7,101.8 143.7,102.5 144.7,102.5 144.7,99.5 5.7,99.5 5.7,104.5 144.7,104.5 144.7,102.5 "/>
<rect x="5.7" y="141.5" fill="#3182C4" width="137" height="2"/>
<polygon fill="#2C74A4" points="143.7,143.5 143.7,142.5 7.7,142.5 7.7,141.5 5.7,141.5 5.7,142.5 142.7,142.5 142.7,143.5 
	143.7,143.5 143.7,143 143.7,143.5 144.7,143.5 144.7,141.5 5.7,141.5 5.7,144.5 144.7,144.5 144.7,143.5 "/>
<rect x="5.7" y="188.5" fill="#3182C4" width="137" height="2"/>
<polygon fill="#2C74A4" points="143.7,190.5 143.7,189.5 7.7,189.5 7.7,188.5 5.7,188.5 5.7,189.5 142.7,189.5 142.7,190.5 
	143.7,190.5 143.7,189.4 143.7,190.5 144.7,190.5 144.7,186.5 5.7,186.5 5.7,191.5 144.7,191.5 144.7,190.5 "/>
<path fill="#3182C4" d="M56.7,168.5v19h13v-19H56.7z M67.7,186.5h-10v-16h10V186.5z"/>
<path fill="#2C74A4" d="M56.7,168.5h-1v20h15v-20h-15l0,0H56.7v2h11v16h-10v-18H56.7v2.2V168.5z M67.7,186.5v-1h-8v-14h7v15H67.7v-1.2
	V186.5h2v-18h-13v19h13v-1H67.7z"/>
<rect x="57.7" y="170.5" fill="#3182C4" width="10" height="16"/>
<polygon fill="#2C74A4" points="57.7,186.5 57.7,187.5 69.7,187.5 69.7,168.5 56.7,168.5 56.7,187.5 57.7,187.5 57.7,186.5 59.7,186.5 
	59.7,171.5 66.7,171.5 66.7,185.5 57.7,185.5 57.7,186.5 59.1,186.5 "/>
<path fill="#3182C4" d="M71.7,162.5v26h19v-26H71.7z M88.7,186.5h-15v-22h15V186.5z"/>
<path fill="#2C74A4" d="M71.7,162.5h-1v27h20v-28h-20v1H71.7v1h18v23h-17v-24H71.7v1.2V162.5z M88.7,186.5v-2h-14v-19h13v21H88.7v-1.4
	V186.5h1v-23h-17v24h17v-1H88.7z"/>
<rect x="73.7" y="164.5" fill="#3182C4" width="15" height="22"/>
<polygon fill="#2C74A4" points="73.7,186.5 73.7,187.5 89.7,187.5 89.7,163.5 72.7,163.5 72.7,187.5 73.7,187.5 73.7,186.5 74.7,186.5 
	74.7,165.5 87.7,165.5 87.7,184.5 73.7,184.5 73.7,186.5 75.1,186.5 "/>
<path fill="#3182C4" d="M70.7,99.8c0,0.4-0.3,0.7-0.7,0.7h-4.6c-0.4,0-0.7-0.3-0.7-0.7V70.2c0-0.4,0.3-0.7,0.7-0.7H70
	c0.4,0,0.7,0.3,0.7,0.7V99.8z"/>
<path fill="#2C74A4" d="M69.7,100.9v-1.4h-4.5l0,0h0.4c0,0-0.9,0.2-0.9,0.2v0l0,0v-29l0,0v0.2c0,0,0.9-0.4,0.9-0.4h-0.4l0,0H70l0,0
	h-0.6c0,0,0.3,0.4,0.3,0.4v-0.4l0,0v29l0,0v0.2c0,0-0.3-0.2-0.3-0.2h0.3v0.2V100.9v1.2c1,0,2-0.8,2-1.9V70.5c0-1-0.8-2-1.8-2h-4.7
	c-1,0-1.5,0.9-1.5,2v29.7c0,1,0.4,1.3,1.5,1.3h4.5V100.9z"/>
<path fill="#2C74A4" d="M73.7,100.9c0,0.3-0.3,0.6-0.6,0.6h-0.9c-0.3,0-0.6-0.3-0.6-0.6V69.1c0-0.3,0.3-0.6,0.6-0.6h0.9
	c0.3,0,0.6,0.3,0.6,0.6V100.9z"/>
<path fill="#2C74A4" d="M118.9,99.8l-1.2,0.9c-0.2,0.1-0.4,0.1-0.5-0.1L98.9,74.4c-0.1-0.2-0.1-0.4,0.1-0.5l1.2-0.9
	c0.2-0.1,0.4-0.1,0.5,0.1L119,99.3C119.1,99.4,119.1,99.6,118.9,99.8z"/>
<path fill="#3182C4" d="M81.7,100.8c0,0.4-0.3,0.7-0.7,0.7h-4.6c-0.4,0-0.7-0.3-0.7-0.7V77.2c0-0.4,0.3-0.7,0.7-0.7H81
	c0.4,0,0.7,0.3,0.7,0.7V100.8z"/>
<path fill="#2C74A4" d="M80.7,100.9v-1.4h-3.9l0,0h0.7c0,0-0.8,0.2-0.8,0.2v-0.2h1v-23h-1v0.8c0,0,0.8,0.2,0.8-0.8h-0.8v1h4v-1h-0.1
	c0,1,0.1,0.8,0.1,0.8v-0.8l0,0v23.2l0,0v0c0,0-0.1-0.2-0.1-0.2h0.1v0.2V100.9v1.2c1,0,2-0.8,2-1.9V76.9c0-1-0.7-2.4-1.7-2.4h-4
	c-1,0-2.3,1.4-2.3,2.4v23.3c0,1,1.3,1.3,2.3,1.3h3.7V100.9z"/>
<path fill="#3182C4" d="M87.7,99.8c0,0.4-0.3,0.7-0.7,0.7h-2.6c-0.4,0-0.7-0.3-0.7-0.7V73.2c0-0.4,0.3-0.7,0.7-0.7H87
	c0.4,0,0.7,0.3,0.7,0.7V99.8z"/>
<path fill="#2C74A4" d="M86.7,100.9v-1.4h-2.2l0,0h0c0,0,0.2,0.2,0.2,0.2v0l0,0V73.6l0,0V74c0,0-0.2-0.5-0.2-0.5h0l0,0h1.9l0,0H86
	c0,0,0.7,0.5,0.7,0.5v-0.4l0,0v26.1l0,0v0c0,0-0.7-0.2-0.7-0.2h0.7v0.2V100.9v1.2c1,0,2-0.8,2-1.9V73.5c0-1-1.2-2-2.3-2H84
	c-1,0-1.4,1-1.4,2v26.7c0,1,0.3,1.3,1.4,1.3h2.6V100.9z"/>
<path fill="#3182C4" d="M91.7,100.2c0,0.2-0.1,0.3-0.3,0.3H91c-0.2,0-0.3-0.1-0.3-0.3V74.8c0-0.2,0.1-0.3,0.3-0.3h0.4
	c0.2,0,0.3,0.1,0.3,0.3V100.2z"/>
<path fill="#2C74A4" d="M90.7,100.9v-1.2l0,0v0.8h1.3c0-1-1.3-0.8-1.3-0.8v0.8h2v-25h-2V76c0,0,1.3-0.5,1.3-0.5h-1.3v1l0,0v-1h0.1
	c0,0-0.1,0.5-0.1,0.5v-0.5l0,0v25.1l0,0v-0.9c0,0,0.1-0.2,0.1,0.8h-0.1v-0.8V100.9v1.2c2,0,3-0.7,3-1.5V75.1c0-0.8-1.2-1.6-2-1.6
	h-0.6c-0.8,0-1.4,0.8-1.4,1.6v25.5c0,0.8,0.6,0.9,1.4,0.9h-0.4V100.9z"/>
<path fill="#3182C4" d="M98.7,99.8c0,0.4-0.3,0.7-0.7,0.7h-1.7c-0.4,0-0.7-0.3-0.7-0.7V73.2c0-0.4,0.3-0.7,0.7-0.7H98
	c0.4,0,0.7,0.3,0.7,0.7V99.8z"/>
<path fill="#2C74A4" d="M98.7,100.9v-1.4h-2v1h0.5c0-1-0.5-0.8-0.5-0.8v0.9l0,0V73.6l0,0V74c0,0,0.5-0.5,0.5-0.5h-0.1l0,0h1l0,0h-0.6
	c0,0,1.2,0.5,1.2,0.5v-0.5h-2v27h2v-0.8c0,0-1.2-0.2-1.2,0.8h1.2v-0.8V100.9v1.2c0,0,1-0.8,1-1.8V73.5c0-1-0.7-2-1.7-2h-1.3
	c-1,0-1,0.9-1,2v26.8c0,1-0.1,1.3,1,1.3h2V100.9z"/>
<path fill="#3182C4" d="M29.7,199.5v39h40v-39H29.7z M52.5,207.5h-5.3c-1.6,0-2.9-0.9-2.9-2.5c0-1.6,1.3-2.5,2.9-2.5h5.3
	c1.6,0,2.9,0.9,2.9,2.5C55.3,206.6,54,207.5,52.5,207.5z"/>
<path fill="#2C74A4" d="M29.7,199.5h-1v41h42v-43h-42v2H29.7L29.7,199.5h40v38h-38v-38H29.7v1.1V199.5z M52.7,207.8v-1.3h-5.5
	c-0.5,0-0.9-0.1-1.2-0.4c-0.3-0.3-0.5-0.7-0.5-1.2c0-0.5,0.2-1.2,0.5-1.6c0.3-0.3,0.7-0.9,1.2-0.9h5.3c0.5,0,0.9,0.6,1.2,0.9
	c0.3,0.3,0.5,0.9,0.5,1.4c0,0.5-0.1,1-0.4,1.3c-0.3,0.3-1.1,0.6-1.1,0.6V207.8v1.2c2,0,3.9-2,3.9-4.2c0-2.2-1.9-4.2-4.1-4.2h-5.3
	c-2.2,0-4,1.8-4,4c0,2.2,1.8,4,4,4h5.5V207.8z"/>
<path fill="#3182C4" d="M73.7,199.5v39h40v-39H73.7z M96.3,207.5H91c-1.6,0-2.9-0.9-2.9-2.5c0-1.6,1.3-2.5,2.9-2.5h5.3
	c1.6,0,2.9,0.9,2.9,2.5C99.2,206.6,97.9,207.5,96.3,207.5z"/>
<path fill="#2C74A4" d="M73.7,199.5h-1v41h42v-43h-42v2H73.7L73.7,199.5h39v38h-38v-38H73.7v1.1V199.5z M95.7,207.8v-1.3H91
	c-0.5,0-0.9-0.1-1.2-0.4c-0.3-0.3-0.5-0.7-0.5-1.2c0-0.5,0.2-1.2,0.5-1.6c0.3-0.3,0.7-0.9,1.2-0.9h5.3c0.5,0,0.9,0.6,1.2,0.9
	c0.3,0.3,0.5,0.9,0.5,1.4c0,0.5-0.5,1-0.8,1.3c-0.3,0.3-0.5,0.6-1.5,0.6V207.8v1.2c3,0,4.3-2,4.3-4.2c0-2.2-1.5-4.2-3.7-4.2H91
	c-2.2,0-4,1.8-4,4c0,2.2,1.8,4,4,4h4.7V207.8z"/>
<path fill="#3182C4" d="M94.9,128c-3.8,0-6.8,0.3-6.8,0.7l2.9,13.3c0,0,1.2,0.6,4,0.6c3.3,0,4.4-0.6,4.4-0.6l2.4-13.3
	C101.7,128.3,98.7,128,94.9,128z"/>
<path fill="#2C74A4" d="M95.7,128v-1.2c-2,0-4.1,0.1-5.4,0.2c-0.7,0.1-1.4,0.1-1.8,0.2c-0.2,0.1-0.5,0.1-0.7,0.2
	c-0.1,0.1-0.3,0.1-0.5,0.3c-0.1,0.1-0.3,0.2-0.4,0.3c-0.1,0.2-0.3,0.4-0.3,0.6v0.1l3.1,14l0.5,0.3c0.2,0.1,1.6,0.8,4.5,0.8
	c3.5,0,4.8-0.7,5-0.8l0.4-0.3l2.4-14v-0.1c0-0.2,0-0.4,0-0.6c-0.2-0.3-0.3-0.4-0.4-0.5c-0.2-0.2-0.4-0.2-0.6-0.3
	c-0.3-0.1-0.3-0.2-0.7-0.2c-1.3-0.2-4.2-0.3-5.2-0.3V128v1.2c1,0,3.1,0.1,4.3,0.2c0.6,0.1,0.9,0.1,1.1,0.2c0.1,0,0,0,0,0l0,0l0,0
	l0.2-0.6l-0.4,0.5c0.1,0.1,0.2,0.1,0.2,0.1l0.3-0.6l-0.4,0.5l0.7-0.8l-0.9,0.5c0.1,0.1,0.2,0.2,0.2,0.3l0.7-0.8l-0.9,0.4l0.9-0.6
	h-1.1c0,0,0.1,0.4,0.2,0.6l0.9-0.6h-1.1h1.2l-1.1-0.1l-2.4,13.4l1.1,0.2l-0.6-1l0.4,0.7l-0.4-0.7l0,0l0.4,0.7l-0.4-0.7l0.1,0.2
	l-0.1-0.2l0,0l0.1,0.2l-0.1-0.2c0,0-0.1,0-0.2,0.1c-0.4,0.1-1.5,0.4-3.7,0.4c-1.3,0-2.2-0.1-2.7-0.3c-0.3-0.1-0.5-0.1-0.6-0.2
	c-0.1,0-0.1,0-0.1,0l0,0l-0.3,0.6l0.3-0.6l0,0l-0.3,0.6l0.3-0.6l-0.5,1l1.1-0.2l-2.9-13.4l-1.1,0.2h1.2h-1.1l1,0.5
	c0.1-0.1,0.1-0.5,0.1-0.5h-1.1l1,0.6l-0.9-0.4l0.5,0.8c0.1,0,0.2-0.1,0.3-0.4l-0.9-0.4l0.5,0.8l-0.3-0.4l0.2,0.5c0,0,0,0,0.1,0
	l-0.3-0.4l0.2,0.5c0,0,0.1,0,0.2-0.1c0.2,0,0.9-0.1,1.3-0.1c1.2-0.1,3.5-0.2,5.5-0.2V128z"/>
<ellipse fill="#3182C4" cx="94.9" cy="128.7" rx="6.4" ry="0.6"/>
<path fill="#2C74A4" d="M101.2,128.5h1.2c0,0-0.1-0.3-0.1-0.5c-0.2-0.3-0.3-0.4-0.5-0.4c-0.2-0.2-0.4-0.2-0.6-0.2
	c-0.3-0.1-0.7-0.1-1.1-0.2c-1.2-0.2-3.1-0.3-5.3-0.3c-1.8,0-3.4,0.1-4.6,0.2c-0.6,0.1-1.1,0.1-1.5,0.2c-0.2,0.1-0.4,0.1-0.6,0.2
	c-0.1,0.1-0.2,0.1-0.4,0.3c-0.1,0.1-0.2,0.2-0.3,0.3c-0.1,0.1-0.1,0.4-0.1,0.6c0,0.2,0.1,0.4,0.1,0.6c0.2,0.3,0.3,0.4,0.5,0.5
	c0.2,0.2,0.4,0.2,0.6,0.3c0.3,0.1,0.7,0.1,1.1,0.2c1.2,0.2,3.1,0.3,5.3,0.3c1.8,0,3.4-0.1,4.6-0.2c0.6-0.1,1.1-0.1,1.5-0.2
	c0.2-0.1,0.4-0.1,0.6-0.2c0.1-0.1,0.2-0.1,0.4-0.3c0.1-0.1,0.2-0.3,0.3-0.4c0.1-0.1,0.1-0.7,0.1-0.7H101.2h-1.2H101.2l-1-0.5
	c-0.1,0.1-0.1,0.5-0.1,0.5H101.2l-1-0.4l0.9,0.5l-0.5-0.8c-0.1,0-0.2,0.1-0.3,0.4l0.9,0.5l-0.5-0.8l0.3,0.5l-0.2-0.5
	c0,0,0,0-0.1,0.1l0.3,0.5l-0.2-0.5l0,0c-0.1,0-0.3,0.1-0.7,0.1c-1,0.2-2.9,0.3-5.1,0.3c-1.7,0-3.3-0.1-4.4-0.2
	c-0.5-0.1-1-0.1-1.2-0.2c-0.1,0-0.1,0-0.1,0l0,0h0l-0.3,0.6l0.4-0.5c-0.1-0.1-0.2-0.1-0.2-0.1l-0.3,0.6l0.4-0.5l-0.7,0.8l0.9-0.5
	c-0.1-0.1-0.2-0.2-0.2-0.3l-0.7,0.8l0.9-0.6l-0.9,0.5h1.1c0,0-0.1-0.4-0.2-0.6l-0.9,0.6h1.1h-1.1l1,0.5c0.1-0.1,0.1-0.5,0.1-0.5
	h-1.1l1,0.6l-0.9-0.4l0.5,0.9c0.1,0,0.2-0.1,0.3-0.4l-0.9-0.4l0.5,0.8l-0.3-0.4l0.2,0.5c0,0,0,0,0.1-0.1l-0.3-0.5l0.2,0.5l0,0
	c0.1,0,0.3-0.1,0.7-0.1c1-0.2,2.9-0.3,5.1-0.3c1.7,0,3.3,0.1,4.4,0.2c0.5,0.1,1,0.1,1.2,0.2c0.1,0,0.1,0,0.1,0l0,0h0l0.3-0.6
	l-0.4,0.5c0.1,0.1,0.2,0.1,0.2,0.1l0.3-0.6l-0.4,0.5l0.7-0.8l-0.9,0.5c0.1,0.1,0.2,0.2,0.2,0.3l0.7-0.8l-0.9,0.4L101.2,128.5h-1.2
	c0,0,0.1,0.4,0.2,0.6L101.2,128.5h-1.2H101.2z"/>
<path fill="#3182C4" d="M94.9,129.3l-0.6,0c-0.5-2.5-1.1-10.1,1.5-13.7c3.2-4.6,10.4-7.3,10.3-6.3c-0.1,1-9.8,8.7-10.5,11.9
	C95,124.4,94.9,129.3,94.9,129.3z"/>
<path fill="#2C74A4" d="M94.9,129.3l0-1.2l-0.6,0l0,1.2l1.1-0.2c-0.2-0.9-0.4-2.8-0.4-4.9c0-1.4,0.1-3,0.4-4.4c0.3-1.4,0.7-2.7,1.3-3.5
	c1.2-1.8,3.3-3.3,5.1-4.4c0.9-0.5,1.8-1,2.5-1.2c0.4-0.1,0.6-0.2,0.9-0.3c0.2-0.1,0.4-0.1,0.4-0.1v-0.1l0.1-0.7h-0.1v0.7v0.1
	l0.1-0.7l-0.4,0.6c0.2,0.1,0.3,0.1,0.4,0.1l0.1-0.7l-0.4,0.6l0.6-0.8l-0.9,0.5c0.1,0.2,0.2,0.3,0.3,0.4l0.6-0.8l-0.9,0.6l0.9-0.4h-1
	c0,0,0,0.3,0.1,0.5l0.9-0.5h-1h0.9l-0.9-0.1l0,0.1h0.9l-0.9-0.2l1.2,0l-1.2-0.1l0.8,0.1l-0.7-0.4c0,0-0.1,0.1-0.1,0.3l0.8,0.1
	l-0.7-0.4l0.2,0.1l-0.2-0.1l0,0l0.2,0.1l-0.2-0.1c0,0-0.1,0.1-0.1,0.2c-0.2,0.2-0.5,0.5-0.8,0.9c-1.3,1.3-3.5,3.3-5.4,5.3
	c-1,1-1.9,2-2.6,2.9c-0.4,0.5-0.7,0.9-0.9,1.4c-0.3,0.5-0.5,0.9-0.6,1.4c-0.4,1.7-0.6,3.8-0.7,5.4c-0.1,1.7-0.1,2.9-0.1,2.9
	L94.9,129.3l0-1.2L94.9,129.3l1.2,0c0,0,0-0.1,0-0.2c0-0.5,0.1-1.8,0.2-3.2c0.1-1.5,0.3-3.2,0.6-4.5c0-0.2,0.2-0.6,0.5-1
	c0.5-0.8,1.4-1.8,2.4-2.9c1.5-1.6,3.3-3.3,4.7-4.7c0.7-0.7,1.4-1.3,1.8-1.8c0.2-0.3,0.4-0.5,0.6-0.7c0.1-0.1,0.2-0.2,0.2-0.4
	c0.1-0.1,0.3-0.3,0.4-0.6l0.2,0v0l-0.2-0.1c0-0.2-0.2-0.5-0.3-0.7c-0.1-0.2-0.3-0.3-0.4-0.4c-0.2-0.1-0.4-0.2-0.5-0.2
	c-0.2,0-0.3,0-0.4,0c-0.3,0-0.7,0.1-1,0.2c-0.6,0.2-1.4,0.4-2.2,0.8c-1.2,0.6-2.6,1.4-4,2.4c-1.4,1-2.7,2.2-3.7,3.6
	c-0.9,1.3-1.4,2.8-1.7,4.4c-0.3,1.6-0.4,3.3-0.4,4.9c0,2.2,0.2,4.2,0.4,5.4l0.2,0.9l2.7,0l0-1.2L94.9,129.3z"/>
<path fill="#3182C4" d="M94.4,129.2l0.3,0c0.2-1.1,0.5-4.6-0.7-6.2c-1.5-2.1-4.9-3.3-4.9-2.9c0,0.5,4.6,5.2,4.9,6.6
	C94.3,128.2,94.4,129.2,94.4,129.2z"/>
<path fill="#2C74A4" d="M94.4,129.2l0,1.2l0.3,0l0.9,0l0.2-0.9c0.1-0.6,0.2-1.5,0.2-2.6c0-0.7-0.1-1.5-0.2-2.3
	c-0.2-0.8-0.4-1.6-0.9-2.3c-0.8-1.1-1.9-1.9-3-2.5c-0.5-0.3-1-0.5-1.4-0.7c-0.2-0.1-0.4-0.1-0.6-0.2c-0.2,0-0.4-0.1-0.6-0.1
	c-0.2,0-0.3,0-0.6,0.1c-0.1,0.1-0.3,0.2-0.5,0.4c-0.1,0.2-0.2,0.5-0.2,0.7c0,0.1,0,0.1,0,0.1l1.2-0.1l-1.2,0.1
	c0,0.2,0.1,0.3,0.1,0.4c0.1,0.2,0.1,0.3,0.2,0.4c0.1,0.2,0.3,0.4,0.5,0.6c0.6,0.8,1.7,1.9,2.6,3.1c0.4,0.6,0.9,1.1,1.2,1.5
	c0.1,0.2,0.3,0.4,0.4,0.6c0,0.1,0.1,0.1,0.1,0.2l0,0l0,0l0.5,0l0.3,0v0l-0.3,0l-0.3,0c0.2,0.7,0.1,1.3,0.2,1.7c0,0.2,0,0.4,0,0.5
	c0,0.1,0.2,0.1,0.2,0.1l0.2,0v0l0.3,0l-0.3,0v0l0.1,0l-0.4,0l0,1.1l1.1,0L94.4,129.2l1.2-0.1c0,0-0.1-1.1-0.4-2.7
	c-0.1-0.4-0.3-0.7-0.4-1c-0.3-0.6-0.8-1.2-1.3-1.8c-0.7-0.9-1.6-1.9-2.3-2.7c-0.3-0.4-0.6-0.7-0.8-1c-0.1-0.1-0.2-0.2-0.2-0.3l0,0
	l-0.4,0.2l0.4-0.2l0,0l-0.4,0.2l0.4-0.2l-0.9,0.4l1-0.1c0-0.2-0.1-0.3-0.1-0.3l-0.9,0.4l1.2-0.1l0.2,0v0l-1.5-0.5h1.1
	c0,0,0-0.1,0-0.1l-1.1,0.1h1.1h-1.1l0.9,0.6c0.1-0.2,0.2-0.6,0.2-0.6h-1.1l0.9,0.9l-0.9-0.5l0.6,1c0.1-0.1,0.2-0.1,0.3-0.3l-0.9-0.6
	l0.6,0.9l-0.5-0.8l0.2,1c0.1,0,0.2,0,0.3-0.1l-0.5-0.8l0.4,1l0.1-0.7v0.8c0,0,0.1,0,0.1,0l-0.1-0.7v0.8v-0.4l-0.5-0.4h0.5v0.4
	l-0.5-0.4h0c0.1,0,0.3,0.4,0.6,0.6c0.5,0.2,1.1,0.7,1.7,1.1c0.6,0.4,1.1,1,1.5,1.4c0.2,0.3,0.4,0.8,0.5,1.4c0.1,0.6,0.2,1.3,0.2,1.9
	c0,0.9-0.1,1.7-0.2,2.1l1.1,0.2l0-1.2l-0.3,0L94.4,129.2l1.2-0.1L94.4,129.2z"/>
<path fill="#3182C4" d="M94.3,122l0.3,0.1c0.8-1.2,2.6-5.2,1.9-7.7c-0.9-3.1-4.4-6.1-4.5-5.5c-0.1,0.6,3.2,8.1,3,10
	C94.7,120.7,94.3,122,94.3,122z"/>
<path fill="#2C74A4" d="M94.3,122l-0.4,1.1l0.3,0.1l0.9,0.3l0.5-0.8c0.2-0.3,0.4-0.7,0.6-1.2c0.4-0.7,0.7-1.7,1-2.7
	c0.3-1,0.5-2.1,0.5-3.1c0-0.5-0.1-1.1-0.2-1.6c-0.5-1.7-1.5-3.2-2.6-4.3c-0.5-0.6-1-1-1.4-1.4c-0.2-0.2-0.4-0.3-0.7-0.4
	c-0.1-0.1-0.2-0.1-0.4-0.2c-0.1,0-0.3-0.1-0.5-0.1c-0.2,0-0.4,0-0.7,0.2c-0.1,0.1-0.3,0.2-0.3,0.3c-0.1,0.1-0.1,0.3-0.2,0.4l0,0
	c0,0.1,0,0.2,0,0.3c0,0.2,0,0.3,0.1,0.5c0.1,0.3,0.1,0.5,0.3,0.8c0.4,1.1,1.1,2.9,1.6,4.6c0.3,0.8,0.6,1.7,0.7,2.4
	c0.1,0.3,0.2,0.7,0.2,0.9c0,0.3,0,0.5,0,0.6l0,0.1v0c0,0.9-0.2,1.6-0.3,2.1c-0.1,0.3-0.1,0.5-0.1,0.6c0,0.1-0.3,0.1-0.3,0.1l-0.2,0
	v0l0.4,0l0.1-0.1h0l0.1,0.1l-0.1,0l-0.3,1.1l1,0.4L94.3,122l0.9,0.3c0,0,0.5-1.4,0.5-3.3v0c0-0.1,0.2-0.2,0.2-0.3
	c0-0.4,0-0.8-0.1-1.2c-0.2-0.8-0.4-1.6-0.7-2.5c-0.4-1.4-1-2.8-1.4-4c-0.2-0.6-0.4-1.1-0.5-1.5c-0.1-0.2,0.2-0.3,0.2-0.5l0.3-0.1v0
	l-1.1,0.6h0.6c0-1,0-0.1,0-0.1l-0.5,0.1h0.6h-1l1,0.2c0-0.1,0-0.2,0-0.2h-1l1.6-0.3v0l-0.3,0l-1.2-0.3l0.8,0.6
	c0.1-0.1,0.1-0.2,0.1-0.3l-1.1-0.3l0.9,0.6l-0.9-0.6l0.4,1c0.2-0.1,0.4-0.2,0.5-0.4l-0.9-0.6l0.8,1l-0.1-0.9v1c0,0,0.2,0,0.4-0.1
	l-0.4-0.9v1v-0.8l-0.3,0.7c0,0,0.3,0,0.3,0v-0.8l-0.6,0.7l-0.1-0.2l-0.2,0.2l0,0l0.1-0.5h-0.1h0c0,0,0.1,0.3,0.2,0.4
	c0.2,0.2,0.5,0.5,0.8,0.8c0.5,0.5,1,1.2,1.5,1.8c0.5,0.7,0.8,1.5,1,2.2c0.1,0.3,0.1,0.6,0.1,1c0,1-0.3,2.2-0.7,3.3
	c-0.2,0.5-0.4,1.1-0.6,1.5c-0.2,0.4-0.4,0.8-0.5,1l1,0.6L95,121l-0.3-0.1L94.3,122l1.1,0.3L94.3,122z"/>
<path fill="#3182C4" d="M95.8,118.4l0.3,0.2c1-0.9,3.8-4,3.9-6.4c0.1-3.1-2.2-6.7-2.5-6.3c-0.3,0.5,0.6,8.3-0.2,9.9
	C96.5,117.4,95.8,118.4,95.8,118.4z"/>
<path fill="#2C74A4" d="M95.8,118.4l-0.7,0.9l0.3,0.2l0.8,0.6l0.7-0.6c0.3-0.3,0.7-0.7,1.1-1.1c0.7-0.7,1.2-1.7,1.8-2.7
	c0.6-1,0.9-2.2,0.9-3.5v0c0-0.1,0.2-0.1,0.2-0.2c0-1.7-0.5-3.4-1.1-4.7c-0.3-0.6-0.6-1.2-0.9-1.6c-0.2-0.2-0.3-0.4-0.5-0.6
	c-0.1-0.1-0.2-0.2-0.3-0.3c-0.1,0-0.2-0.1-0.3-0.1c-0.1,0-0.3-0.1-0.4-0.1c-0.2,0-0.4,0-0.6,0.2c-0.2,0.1-0.4,0.3-0.4,0.4l1,0.6
	l-1-0.6c-0.1,0.1-0.1,0.2-0.1,0.3c0,0.1-0.1,0.2-0.1,0.3c0,0.2,0,0.5,0,0.7c0,0.7,0.1,1.7,0.1,2.8c0,1.1,0.1,2.3,0.1,3.4
	c0,0.7,0,1.2-0.1,1.7c0,0.2,0,0.4-0.1,0.6c0,0.1-0.1,0.2-0.1,0.2c-0.4,0.8-0.7,1.4-0.9,1.8c-0.1,0.2-0.2,0.4-0.3,0.5
	c0,0.1-0.1,0.1-0.1,0.1l0,0l0,0l0.1,0.1l-0.1-0.1l0,0l0.1,0.1l-0.1-0.1l-0.6,0.9l0.9,0.7L95.8,118.4l1,0.7c0,0,0.8-1.1,1.5-2.8
	c0.1-0.3,0.2-0.5,0.2-0.8c0.1-0.4,0.1-0.8,0.1-1.3c0-0.5,0-1,0-1.5c0-1.1,0-2.4-0.1-3.5c0-1.1-0.1-2.1-0.1-2.7
	c0-0.2,0.1-0.3,0.1-0.4l0.1,0v0l-0.6-0.1l0.4,0.1l0-0.1l-0.5-0.1l0.5,0.1l-0.9-0.3l0.8,0.5c0.1-0.1,0.1-0.2,0.1-0.2l-0.9-0.3
	l0.8,0.5l0,0l0,0l-0.9-0.6l0.5,0.9c0.2-0.1,0.3-0.3,0.4-0.4l-0.9-0.6l0.2,0.9l-0.9-0.9v1.1c2,0,0.4,0,0.5-0.1l-0.5-0.9v1.1v-1
	l-0.3,1c0.1,0,0.3,0.1,0.3,0.1v-1l0,1l0.4-0.7l-0.4,0.6c0,0,0.1,0.1,0.3,0.1l0.3-0.7l-0.5,0.6l0.2-0.2l-0.2,0.2l0,0l0.2-0.2
	l-0.2,0.2l0,0l0,0h0l0,0l0,0c0,0,0.1,0.1,0.2,0.2c0.1,0.2,0.3,0.5,0.5,0.9c0.3,0.6,0.6,1.2,0.8,2c0.2,0.7,0.3,1.5,0.3,2.2l0,0.1v0
	c0,0.4-0.1,0.9-0.4,1.5c-0.4,0.8-1,1.7-1.6,2.5c-0.6,0.7-1.2,1.4-1.5,1.6l0.8,0.9l0.7-0.9l-0.3-0.2L95.8,118.4l1,0.7L95.8,118.4z"/>
<path fill="#3182C4" d="M94.4,124.5h0.3c0.2-1,0.5-4.3-0.7-5.9c-1.5-2.1-4.9-3.2-4.9-2.7c0,0.5,4.6,5,4.9,6.4
	C94.3,123.7,94.4,124.5,94.4,124.5z"/>
<path fill="#2C74A4" d="M94.4,124.7l0,0.8h0.3l1,0.4l0.2-0.7c0.1-0.6,0.2-1.4,0.2-2.5c0-0.7-0.1-1.5-0.2-2.3c-0.2-0.8-0.4-1.5-0.9-2.2
	c-0.8-1.1-1.9-1.9-3-2.5c-0.5-0.3-1-0.5-1.4-0.7c-0.2-0.1-0.4-0.1-0.6-0.2c-0.2,0-0.4-0.1-0.6-0.1c-0.2,0-0.3,0-0.6,0.1
	c-0.1,0.1-0.3,0.2-0.5,0.4c-0.1,0.2-0.2,0.5-0.2,0.7c0,0.1,0,0.1,0,0.2l1.2-0.2l-1.2,0.1c0,0.2,0.1,0.3,0.1,0.4
	c0.1,0.2,0.1,0.3,0.2,0.4c0.1,0.2,0.3,0.4,0.5,0.6c0.6,0.8,1.7,2,2.6,3.1c0.4,0.6,0.9,1.1,1.2,1.5c0.1,0.2,0.3,0.4,0.4,0.6
	c0,0.1,0.1,0.1,0.1,0.2l0,0l0,0l0.5,0l0.3,0v0l-0.3,0l-0.3,0c0.2,0.7,0.1,1.3,0.2,1.7c0,0.2,0,0.4,0,0.5c0,0.1,0.2,0.1,0.2,0.1
	l0.2,0v0l0.4,0l-0.4,0v0l0.1,0l-0.5,0l0,1.1l1.1,0l0-1.2l1.2-0.1c0,0-0.1-1.1-0.4-2.7c-0.1-0.4-0.3-0.7-0.4-1
	c-0.3-0.6-0.8-1.2-1.3-1.8c-0.7-0.9-1.6-1.9-2.3-2.7c-0.3-0.4-0.6-0.7-0.8-1c-0.1-0.1-0.2-0.2-0.2-0.3l0,0l-0.4,0.2l0.4-0.2l0,0
	l-0.4,0.2l0.4-0.2l-0.9,0.4l1-0.1c0-0.2-0.1-0.3-0.1-0.3l-0.9,0.4l1-0.1l0,0l0-0.3l-1.1-0.1h1.1l0-0.2l-1.1,0.2h1.1h-1.1l0.9,0.6
	c0.1-0.2,0.2-0.6,0.2-0.6h-1.1l0.9,0.9l-0.9-0.5l0.6,1c0.1-0.1,0.2-0.1,0.3-0.3l-0.9-0.6l0.6,0.9l-0.5-0.8l0.2,1
	c0.1,0,0.2,0,0.3-0.1l-0.5-0.8l0.4,1l0.1-0.7v0.8c0,0,0.1,0,0.1,0l-0.1-0.7v0.8v-0.4l-0.5-0.2h0.5v0.2l-0.5-0.2h0
	c0.1,0,0.3,0.4,0.6,0.5c0.5,0.2,1.1,0.6,1.7,1c0.6,0.4,1.1,0.9,1.5,1.4c0.2,0.3,0.4,0.8,0.5,1.4c0.1,0.6,0.2,1.3,0.2,1.9
	c0,0.9-0.1,1.7-0.2,2.1l1.1,0l0-1.4h-0.3l0,1.4l1.2-0.2L94.4,124.7z"/>
<path fill="#3182C4" d="M95.4,229.8c0,0.2-0.2,0.4-0.4,0.4c-0.2,0-0.4-0.2-0.4-0.4s0.2-0.4,0.4-0.4C95.2,229.4,95.4,229.6,95.4,229.8"
	/>
<path fill="#3182C4" d="M103,229.8c0,0.2-0.2,0.4-0.4,0.4c-0.2,0-0.4-0.2-0.4-0.4s0.2-0.4,0.4-0.4C102.9,229.4,103,229.6,103,229.8"/>
<path fill="#3182C4" d="M104.1,231.7c0.1-0.1,0.3-0.2,0.5-0.1c1,0.3,4.6,1.5,5.6,2.7c1.2,1.4-0.7,2.4-1.8,1.5c-0.3-0.2-2.9-1.9-4.3-2.7
	c-0.4-0.3-0.5-0.8-0.2-1.2L104.1,231.7z"/>
<g>
	
		<linearGradient id="SVGID_1_" gradientUnits="userSpaceOnUse" x1="-117.19" y1="-241.2469" x2="-116.9826" y2="-241.2469" gradientTransform="matrix(25.3507 4.1923 -4.1923 25.3507 2189.2834 6792.4287)">
		<stop  offset="0" style="stop-color:#000000"/>
		<stop  offset="1" style="stop-color:#484848"/>
	</linearGradient>
	<path fill="url(#SVGID_1_)" d="M232.8,189.9c-1.1-0.5-3.2-1.5-2.6-5c0.6-3.5,2.4-3.9,3.8-1.9C235.4,185,235.2,190.9,232.8,189.9z"/>
	
		<linearGradient id="SVGID_2_" gradientUnits="userSpaceOnUse" x1="-172.5089" y1="-223.7016" x2="-172.3015" y2="-223.7016" gradientTransform="matrix(-26.1983 43.9656 43.9656 26.1983 5561.001 13634.0742)">
		<stop  offset="0" style="stop-color:#FFDFB2"/>
		<stop  offset="1" style="stop-color:#FBBB6C"/>
	</linearGradient>
	<path fill="url(#SVGID_2_)" d="M247.3,191.7c-4.6-2.4-11-5.3-13.4-8.8c-0.8,1-1.4,5-1.1,6.9c2.8,1,10.4,7.1,13.3,9c-0.7,4.5,4.6,8.1,5.1,5
		c0.7-4.1,1.3-5.6,1.2-7.2C252.3,195,249.9,193.1,247.3,191.7z"/>
	
		<linearGradient id="SVGID_3_" gradientUnits="userSpaceOnUse" x1="-117.1891" y1="-242.1796" x2="-116.9817" y2="-242.1796" gradientTransform="matrix(25.3502 4.1922 -4.1922 25.3502 2184.2893 6822.1299)">
		<stop  offset="0" style="stop-color:#000000"/>
		<stop  offset="1" style="stop-color:#484848"/>
	</linearGradient>
	<path fill="url(#SVGID_3_)" d="M231.8,196c-1.1-0.4-3.2-1.5-2.6-5c0.6-3.5,2.4-3.6,3.8-1.9C234.5,191,233.8,196.7,231.8,196z"/>
	
		<linearGradient id="SVGID_4_" gradientUnits="userSpaceOnUse" x1="-177.9808" y1="-208.4677" x2="-177.7735" y2="-208.4677" gradientTransform="matrix(-15.741 26.1156 26.1156 15.741 2884.6931 8126.6968)">
		<stop  offset="0" style="stop-color:#FFDFB2"/>
		<stop  offset="1" style="stop-color:#FBBB6C"/>
	</linearGradient>
	<path fill="url(#SVGID_4_)" d="M246.3,197.8c-4.6-2.4-11-5.3-13.4-8.8c-0.8,1-1.4,5-1.1,6.9c2.8,1,10.4,7.1,13.3,9c0.4,1.9,5.4,3.2,5.9,0.1
		c0.1-0.5,0.3-1.6,0.4-2.3C251.7,201.1,248.9,199.2,246.3,197.8z"/>
	
		<linearGradient id="SVGID_5_" gradientUnits="userSpaceOnUse" x1="-166.3868" y1="-242.6832" x2="-166.1794" y2="-242.6832" gradientTransform="matrix(-144.3692 226.759 226.759 144.3692 31330.4609 72899.5)">
		<stop  offset="0" style="stop-color:#7E3D1B"/>
		<stop  offset="1" style="stop-color:#3F160A"/>
	</linearGradient>
	<path fill="url(#SVGID_5_)" d="M321.8,131.9c-16.7-9.7-35-2.9-45.1,14.3c-5.7,9.7-6.8,16.6-6,22.4c1.3,9.2,32.8,29.4,43.7,25
		C325.5,189.1,353.4,150.2,321.8,131.9z"/>
	<path fill="#8A8A8A" d="M292.1,201.3c-1.7-0.4-3,0.5-3.5,1.9c-0.2,0.6-3.4,10-3.4,10c-0.3,0.9-1.4,1.6-2.3,1.4l-4.6-0.9l-0.5,1.6
		l4.5,0.9l5.1,1.1c1.8,0.4,3.8-0.8,4.4-2.6l3.4-10C295.7,203.3,294.2,201.7,292.1,201.3z"/>
	
		<linearGradient id="SVGID_6_" gradientUnits="userSpaceOnUse" x1="-165.578" y1="-253.3272" x2="-165.3707" y2="-253.3272" gradientTransform="matrix(49.0589 -145.3895 -149.1408 -31.0277 -29384.3809 -31686.5469)">
		<stop  offset="0" style="stop-color:#000000"/>
		<stop  offset="1" style="stop-color:#484848"/>
	</linearGradient>
	<path fill="url(#SVGID_6_)" d="M291.8,214.6c0,0,3.1-9.3,3.4-10c0.2-0.7,0.3-2.6-3.2-3.3c1.4,0.5,2.1,1.5,1.6,3c-0.2,0.6-3.4,10-3.4,10
		c-0.3,0.9-1.4,1.6-2.3,1.4l-9.7-2l-0.5,1.6l9.7,2C289.2,217.6,291.2,216.4,291.8,214.6z"/>
	<path fill="#B3B1B2" d="M300.8,183.8c-10.8-2.4-18.8,1.9-26.6,18.1c-2.3,4.7,3,7,13.4,9.1l0,0l0,0c10.4,2.2,15,2,17.3-2.8
		C313.2,191,311.8,185.9,300.8,183.8z"/>
	
		<linearGradient id="SVGID_7_" gradientUnits="userSpaceOnUse" x1="-165.1078" y1="-226.9638" x2="-164.9004" y2="-226.9638" gradientTransform="matrix(-11.0961 53.3356 53.3356 11.0961 10554.0166 11524.9795)">
		<stop  offset="0" style="stop-color:#6BC9F2"/>
		<stop  offset="1" style="stop-color:#327EC0"/>
	</linearGradient>
	<path fill="url(#SVGID_7_)" d="M296.7,213.5c-0.2,0.9-1,1.4-1.9,1.2l-32.6-6.8c-0.9-0.2-1.4-1-1.2-1.9l0.5-2.2c0.2-0.9,1-1.4,1.9-1.2
		l32.6,6.8c0.9,0.2,1.4,1,1.2,1.9L296.7,213.5z"/>
	
		<linearGradient id="SVGID_8_" gradientUnits="userSpaceOnUse" x1="-165.104" y1="-280.9076" x2="-164.8966" y2="-280.9076" gradientTransform="matrix(6.1409 -29.5176 -29.5176 -6.1409 -6995.583 -6370.2979)">
		<stop  offset="0" style="stop-color:#515050"/>
		<stop  offset="1" style="stop-color:#99999A"/>
	</linearGradient>
	<path fill="url(#SVGID_8_)" d="M282.1,224c-0.1,0.7-0.3,2,0,2s0.5,0.1,0.7,0.1c0.4,0.1,1-0.7,1.2-1.8c0.2-1.1,0-2-0.4-2.1
		c-0.2,0-0.4-0.1-0.7-0.1C282.7,222.1,282.2,223.4,282.1,224z"/>
	
		<linearGradient id="SVGID_9_" gradientUnits="userSpaceOnUse" x1="-165.3955" y1="-280.9987" x2="-165.1882" y2="-280.9987" gradientTransform="matrix(6.1409 -29.5176 -29.5176 -6.1409 -6996.7188 -6381.8613)">
		<stop  offset="0" style="stop-color:#515050"/>
		<stop  offset="1" style="stop-color:#99999A"/>
	</linearGradient>
	<path fill="url(#SVGID_9_)" d="M281.4,223.8c-0.1,0.7-0.3,2,0,2s0.5,0.1,0.7,0.1c0.4,0.1,1-0.7,1.2-1.8c0.2-1.1,0-2-0.4-2.1
		c-0.2,0-0.4-0.1-0.7-0.1C282,221.9,281.5,223.3,281.4,223.8z"/>
	
		<linearGradient id="SVGID_10_" gradientUnits="userSpaceOnUse" x1="-165.104" y1="-281.0899" x2="-164.8966" y2="-281.0899" gradientTransform="matrix(6.1409 -29.5176 -29.5176 -6.1409 -7002.374 -6371.7109)">
		<stop  offset="0" style="stop-color:#515050"/>
		<stop  offset="1" style="stop-color:#99999A"/>
	</linearGradient>
	<path fill="url(#SVGID_10_)" d="M280.7,223.7c-0.1,0.7-0.3,2,0,2c0.3,0.1,0.5,0.1,0.7,0.1c0.4,0.1,1-0.7,1.2-1.8c0.2-1.1,0-2-0.4-2.1
		c-0.2,0-0.4-0.1-0.7-0.1C281.3,221.8,280.8,223.1,280.7,223.7z"/>
	
		<linearGradient id="SVGID_11_" gradientUnits="userSpaceOnUse" x1="-166.5353" y1="-282.5842" x2="-166.328" y2="-282.5842" gradientTransform="matrix(-5.8981 28.3505 -28.3505 -5.8981 -8711.7129 3274.6353)">
		<stop  offset="0" style="stop-color:#515050"/>
		<stop  offset="1" style="stop-color:#99999A"/>
	</linearGradient>
	<path fill="url(#SVGID_11_)" d="M280.4,223.6c-0.2,1.1,0,2,0.4,2.1c0.4,0.1,1-0.7,1.2-1.8c0.2-1.1,0-2-0.4-2.1S280.6,222.5,280.4,223.6z"/>
	
		<linearGradient id="SVGID_12_" gradientUnits="userSpaceOnUse" x1="-165.104" y1="-282.5839" x2="-164.8966" y2="-282.5839" gradientTransform="matrix(6.1409 -29.5176 -29.5176 -6.1409 -7058.0073 -6383.2852)">
		<stop  offset="0" style="stop-color:#515050"/>
		<stop  offset="1" style="stop-color:#99999A"/>
	</linearGradient>
	<path fill="url(#SVGID_12_)" d="M269.2,221.3c-0.1,0.7-0.3,2,0,2c0.3,0.1,0.5,0.1,0.7,0.1c0.4,0.1,1-0.7,1.2-1.8c0.2-1.1,0-2-0.4-2.1
		c-0.2,0-0.4-0.1-0.7-0.1C269.8,219.4,269.3,220.7,269.2,221.3z"/>
	
		<linearGradient id="SVGID_13_" gradientUnits="userSpaceOnUse" x1="-165.3955" y1="-282.675" x2="-165.1882" y2="-282.675" gradientTransform="matrix(6.1409 -29.5176 -29.5176 -6.1409 -7059.1436 -6394.8486)">
		<stop  offset="0" style="stop-color:#515050"/>
		<stop  offset="1" style="stop-color:#99999A"/>
	</linearGradient>
	<path fill="url(#SVGID_13_)" d="M268.5,221.1c-0.1,0.7-0.3,2,0,2c0.3,0.1,0.5,0.1,0.7,0.1c0.4,0.1,1-0.7,1.2-1.8c0.2-1.1,0-2-0.4-2.1
		c-0.2,0-0.4-0.1-0.7-0.1C269,219.2,268.6,220.6,268.5,221.1z"/>
	
		<linearGradient id="SVGID_14_" gradientUnits="userSpaceOnUse" x1="-165.104" y1="-282.7662" x2="-164.8966" y2="-282.7662" gradientTransform="matrix(6.1409 -29.5176 -29.5176 -6.1409 -7064.7988 -6384.6978)">
		<stop  offset="0" style="stop-color:#515050"/>
		<stop  offset="1" style="stop-color:#99999A"/>
	</linearGradient>
	<path fill="url(#SVGID_14_)" d="M267.7,221c-0.1,0.7-0.3,2,0,2c0.3,0.1,0.5,0.1,0.7,0.1c0.4,0.1,1-0.7,1.2-1.8c0.2-1.1,0.1-2-0.4-2.1
		c-0.2,0-0.4-0.1-0.7-0.1S267.9,220.4,267.7,221z"/>
	
		<linearGradient id="SVGID_15_" gradientUnits="userSpaceOnUse" x1="-166.5353" y1="-284.3295" x2="-166.328" y2="-284.3295" gradientTransform="matrix(-5.8981 28.3505 -28.3505 -5.8981 -8774.1377 3261.6482)">
		<stop  offset="0" style="stop-color:#515050"/>
		<stop  offset="1" style="stop-color:#99999A"/>
	</linearGradient>
	<path fill="url(#SVGID_15_)" d="M267.4,220.9c-0.2,1.1,0,2,0.4,2.1c0.4,0.1,1-0.7,1.2-1.8c0.2-1.1,0-2-0.4-2.1
		C268.2,219,267.6,219.8,267.4,220.9z"/>
	
		<linearGradient id="SVGID_16_" gradientUnits="userSpaceOnUse" x1="-166.3731" y1="-277.5653" x2="-166.1658" y2="-277.5653" gradientTransform="matrix(-6.9057 33.1934 -33.1934 -6.9057 -10082.2197 3824.1309)">
		<stop  offset="0" style="stop-color:#515050"/>
		<stop  offset="1" style="stop-color:#99999A"/>
	</linearGradient>
	<polygon fill="url(#SVGID_16_)" points="282.4,222 276.1,222.3 276.9,218.4 282.7,220.8 	"/>
	
		<linearGradient id="SVGID_17_" gradientUnits="userSpaceOnUse" x1="-166.1999" y1="-232.4091" x2="-165.9926" y2="-232.4091" gradientTransform="matrix(-15.4248 74.1423 74.1423 15.4248 14944.8193 16122.1826)">
		<stop  offset="0" style="stop-color:#000000"/>
		<stop  offset="1" style="stop-color:#484848"/>
	</linearGradient>
	<polygon fill="url(#SVGID_17_)" points="278.8,220 273.5,218.9 275.2,210.7 280.5,211.8 	"/>
	
		<linearGradient id="SVGID_18_" gradientUnits="userSpaceOnUse" x1="-165.4915" y1="-219.3391" x2="-165.2841" y2="-219.3391" gradientTransform="matrix(-8.0023 38.4644 38.4644 8.0023 7390.7529 8329.6084)">
		<stop  offset="0" style="stop-color:#000000"/>
		<stop  offset="1" style="stop-color:#484848"/>
	</linearGradient>
	<polygon fill="url(#SVGID_18_)" points="280.5,216.3 273.4,214.8 274.3,210.5 281.4,212 	"/>
	
		<linearGradient id="SVGID_19_" gradientUnits="userSpaceOnUse" x1="-167.5248" y1="-208.7835" x2="-167.3174" y2="-208.7835" gradientTransform="matrix(-5.8978 28.3491 28.3491 5.8978 5199.1006 6205.3604)">
		<stop  offset="0" style="stop-color:#000000"/>
		<stop  offset="1" style="stop-color:#484848"/>
	</linearGradient>
	<polygon fill="url(#SVGID_19_)" points="262.4,218.8 276.1,221.7 276.8,218.3 262.6,217.7 	"/>
	
		<linearGradient id="SVGID_20_" gradientUnits="userSpaceOnUse" x1="-167.5248" y1="-207.8554" x2="-167.3175" y2="-207.8554" gradientTransform="matrix(-5.8975 28.3472 28.3472 5.8975 5165.6074 6198.0708)">
		<stop  offset="0" style="stop-color:#000000"/>
		<stop  offset="1" style="stop-color:#484848"/>
	</linearGradient>
	<circle fill="url(#SVGID_20_)" cx="262" cy="220.8" r="2"/>
	
		<linearGradient id="SVGID_21_" gradientUnits="userSpaceOnUse" x1="-167.5248" y1="-282.3655" x2="-167.3174" y2="-282.3655" gradientTransform="matrix(-5.8978 28.3491 -28.3491 -5.8978 -8710.7939 3311.5005)">
		<stop  offset="0" style="stop-color:#000000"/>
		<stop  offset="1" style="stop-color:#484848"/>
	</linearGradient>
	<polygon fill="url(#SVGID_21_)" points="289.9,224.6 276.1,221.7 276.8,218.3 290.1,223.4 	"/>
	
		<linearGradient id="SVGID_22_" gradientUnits="userSpaceOnUse" x1="-167.5248" y1="-281.4423" x2="-167.3175" y2="-281.4423" gradientTransform="matrix(-5.8975 28.3472 -28.3472 -5.8975 -8677.1729 3318.1736)">
		<stop  offset="0" style="stop-color:#000000"/>
		<stop  offset="1" style="stop-color:#484848"/>
	</linearGradient>
	<circle fill="url(#SVGID_22_)" cx="289.4" cy="226.5" r="2"/>
	
		<linearGradient id="SVGID_23_" gradientUnits="userSpaceOnUse" x1="-168.8565" y1="-142.183" x2="-168.6491" y2="-142.183" gradientTransform="matrix(-2.092 10.0558 10.0558 2.092 1350.5873 2219.0989)">
		<stop  offset="0" style="stop-color:#000000"/>
		<stop  offset="1" style="stop-color:#484848"/>
	</linearGradient>
	<polygon fill="url(#SVGID_23_)" points="273.9,221.9 275,222.2 275.2,221 274.1,220.7 	"/>
	
		<linearGradient id="SVGID_24_" gradientUnits="userSpaceOnUse" x1="-166.3828" y1="-215.0263" x2="-166.1754" y2="-215.0263" gradientTransform="matrix(-6.9055 33.1924 33.1924 6.9055 6264.7778 7225.2651)">
		<stop  offset="0" style="stop-color:#000000"/>
		<stop  offset="1" style="stop-color:#484848"/>
	</linearGradient>
	<polygon fill="url(#SVGID_24_)" points="275,222.2 276.1,222.4 276.9,218.5 275.2,221 	"/>
	
		<linearGradient id="SVGID_25_" gradientUnits="userSpaceOnUse" x1="-166.3329" y1="-201.2549" x2="-166.1255" y2="-201.2549" gradientTransform="matrix(-4.8134 23.1366 23.1366 4.8134 4131.7534 5034.29)">
		<stop  offset="0" style="stop-color:#000000"/>
		<stop  offset="1" style="stop-color:#484848"/>
	</linearGradient>
	<polygon fill="url(#SVGID_25_)" points="274.1,220.7 275.2,221 276.9,218.5 275.8,218.2 	"/>
	
		<linearGradient id="SVGID_26_" gradientUnits="userSpaceOnUse" x1="-164.5078" y1="-287.5029" x2="-164.3005" y2="-287.5029" gradientTransform="matrix(5.3455 -25.6941 -25.6941 -5.3455 -6236.0205 -5534.7964)">
		<stop  offset="0" style="stop-color:#000000"/>
		<stop  offset="1" style="stop-color:#484848"/>
	</linearGradient>
	<path fill="url(#SVGID_26_)" d="M273.9,224c-0.1,0.6-0.4,1.9-0.8,1.9c-0.4-0.1-0.9-0.2-1.1-0.2c-0.3-0.1-0.4-1-0.2-2.1c0.2-1.1,0.7-1.9,1-1.8
		c0.2,0,0.8,0.2,1.1,0.2C274.2,222,273.9,223.5,273.9,224z"/>
	
		<linearGradient id="SVGID_27_" gradientUnits="userSpaceOnUse" x1="-165.1435" y1="-274.7861" x2="-164.9361" y2="-274.7861" gradientTransform="matrix(7.7183 -37.0993 -37.0993 -7.7183 -8646.7783 -8019.1841)">
		<stop  offset="0" style="stop-color:#000000"/>
		<stop  offset="1" style="stop-color:#484848"/>
	</linearGradient>
	<path fill="url(#SVGID_27_)" d="M274.9,224.2c-0.1,0.6-0.4,1.9-0.8,1.9c-0.4-0.1-0.9-0.2-1.1-0.2c-0.3-0.1-0.4-1-0.2-2.1
		c0.2-1.1,0.7-1.9,1-1.8c0.2,0,0.8,0.2,1.1,0.2C275.3,222.2,275,223.8,274.9,224.2z"/>
	
		<linearGradient id="SVGID_28_" gradientUnits="userSpaceOnUse" x1="-164.5078" y1="-287.1809" x2="-164.3005" y2="-287.1809" gradientTransform="matrix(5.3455 -25.6941 -25.6941 -5.3455 -6225.584 -5532.625)">
		<stop  offset="0" style="stop-color:#000000"/>
		<stop  offset="1" style="stop-color:#484848"/>
	</linearGradient>
	<path fill="url(#SVGID_28_)" d="M276,224.4c-0.1,0.6-0.4,1.9-0.8,1.9c-0.4-0.1-0.9-0.2-1.1-0.2c-0.3-0.1-0.4-1-0.2-2.1c0.2-1.1,0.7-1.9,1-1.8
		c0.2,0,0.8,0.2,1.1,0.2C276.4,222.5,276.1,224,276,224.4z"/>
	
		<linearGradient id="SVGID_29_" gradientUnits="userSpaceOnUse" x1="-167.6159" y1="-209.717" x2="-167.4086" y2="-209.717" gradientTransform="matrix(-5.898 28.3497 28.3497 5.898 5231.9063 6215.6865)">
		<stop  offset="0" style="stop-color:#000000"/>
		<stop  offset="1" style="stop-color:#484848"/>
	</linearGradient>
	<path fill="url(#SVGID_29_)" d="M276.2,224.5c-0.2,1.1-0.7,1.9-1,1.8c-0.3-0.1-0.4-1-0.2-2.1c0.2-1.1,0.7-1.9,1-1.8
		C276.4,222.5,276.5,223.4,276.2,224.5z"/>
	
		<linearGradient id="SVGID_30_" gradientUnits="userSpaceOnUse" x1="-161.3708" y1="-272.1229" x2="-161.1634" y2="-272.1229" gradientTransform="matrix(14.4269 -40.3743 -37.1575 -20.2043 -7501.1865 -11822.3496)">
		<stop  offset="0" style="stop-color:#FFFFFF"/>
		<stop  offset="1" style="stop-color:#D3D3D3"/>
	</linearGradient>
	<path fill="url(#SVGID_30_)" d="M277.8,175.3c-1.9,2.6-8.3,18.1-2.3,21.6c6,3.5,16.3-9.4,19.2-12.1C297.7,182.1,279.8,172.6,277.8,175.3z"/>
	
		<linearGradient id="SVGID_31_" gradientUnits="userSpaceOnUse" x1="-167.4391" y1="-256.5876" x2="-167.2317" y2="-256.5876" gradientTransform="matrix(12.8653 -108.1715 -108.1715 -12.8653 -25333.1367 -21204.709)">
		<stop  offset="0" style="stop-color:#000000"/>
		<stop  offset="1" style="stop-color:#484848"/>
	</linearGradient>
	<path fill="url(#SVGID_31_)" d="M284.8,202.4c0,0,2.2,8.5-3.6,7.3c-5.8-1.2-22.3-4.6-26.3-5.5c-4-0.8-3-8.7,2.3-7.6
		C262.4,197.7,284.8,202.4,284.8,202.4z"/>
	
		<linearGradient id="SVGID_32_" gradientUnits="userSpaceOnUse" x1="-159.8067" y1="-246.7727" x2="-159.5993" y2="-246.7727" gradientTransform="matrix(179.084 37.2572 37.2572 -179.084 38060.2148 -38041.2773)">
		<stop  offset="0" style="stop-color:#000000"/>
		<stop  offset="1" style="stop-color:#484848"/>
	</linearGradient>
	<path fill="url(#SVGID_32_)" d="M267,198.7l-9.3-1.9l0,0l-6.1-3.3c-5.3-1.1-6.9,9.1-2.9,9.9l17.4,3.2C270,207.4,272.3,199.8,267,198.7z"/>
	
		<linearGradient id="SVGID_33_" gradientUnits="userSpaceOnUse" x1="-189.303" y1="-248.0466" x2="-189.0956" y2="-248.0466" gradientTransform="matrix(-304.6458 60.2864 -60.2864 -304.6458 -73930.2266 -63640.6641)">
		<stop  offset="0" style="stop-color:#000000"/>
		<stop  offset="1" style="stop-color:#484848"/>
	</linearGradient>
	<path fill="url(#SVGID_33_)" d="M317,192.1c-0.9,3.5-7.2,0.6-18.4-5.1c-3.8-1.9-7.3,2.5-4.4,4.7c17.4,13.3,35.3,15.7,32.3-9.6
		C323.4,186.6,319.9,190.1,317,192.1z"/>
	
		<linearGradient id="SVGID_34_" gradientUnits="userSpaceOnUse" x1="-164.8452" y1="-236.8392" x2="-164.6378" y2="-236.8392" gradientTransform="matrix(-28.3603 113.6695 113.6695 28.3603 22519.8828 25613.2207)">
		<stop  offset="0" style="stop-color:#000000"/>
		<stop  offset="1" style="stop-color:#484848"/>
	</linearGradient>
	<path fill="url(#SVGID_34_)" d="M278.8,176.4c-6.2-5.9-8.1-9.3-8.3-11.7c0.1-3.9,1.1-8.4,3.7-13.8c-17.8,1.3-16,17.1,1.8,29.5
		C278.9,182.5,281.8,179.3,278.8,176.4z"/>
	
		<linearGradient id="SVGID_35_" gradientUnits="userSpaceOnUse" x1="-163.2654" y1="-249.0889" x2="-163.058" y2="-249.0889" gradientTransform="matrix(123.5357 217.6367 -267.3371 103.7989 -46151.5391 61558.0938)">
		<stop  offset="0" style="stop-color:#000000"/>
		<stop  offset="1" style="stop-color:#484848"/>
	</linearGradient>
	<path fill="url(#SVGID_35_)" d="M277.9,178.9c-0.6,1.4-4.4,12.7-3.7,14.8c4.5-2.3,19.6-9.9,20.4-10.3c0.9-0.4,3.1,2.6,3.9,3.6
		c0.8,1-10.3,10.5-11.3,13.9c-0.9,3.2-0.7,7.7-0.7,7.7l-19.8-10.5c0,0,3.4-5.5,3.9-6.8c-1.1-1-2-4.7-1.3-6.8
		c0.9-2.5,4.4-4.7,7.1-6.7C278.4,176.6,278.9,176.6,277.9,178.9z"/>
	
		<linearGradient id="SVGID_36_" gradientUnits="userSpaceOnUse" x1="-156.5436" y1="-298.0667" x2="-156.3363" y2="-298.0667" gradientTransform="matrix(10.1006 -17.8091 -17.8091 -10.1006 -3443.312 -5615.1748)">
		<stop  offset="0" style="stop-color:#FFDFB2"/>
		<stop  offset="1" style="stop-color:#EFA05E"/>
	</linearGradient>
	<path fill="url(#SVGID_36_)" d="M287.1,177.6c0,0-2.7-1.4-5.6-3.1c-3.2,5.8-2.1,8.9-2.1,8.9s10.2,3,13.4-2.8
		C289.7,179.1,287.1,177.6,287.1,177.6z"/>
	
		<ellipse transform="matrix(0.4775 -0.8787 0.8787 0.4775 -13.1757 340.7711)" fill="#F3B175" cx="279.9" cy="181.5" rx="1.1" ry="1.1"/>
	
		<ellipse transform="matrix(0.4776 -0.8786 0.8786 0.4776 -13.7223 343.3679)" fill="#F3B175" cx="281.9" cy="183.2" rx="1.1" ry="1.1"/>
	
		<linearGradient id="SVGID_37_" gradientUnits="userSpaceOnUse" x1="-189.6853" y1="-103.9779" x2="-189.478" y2="-103.9779" gradientTransform="matrix(-3.6107 6.6425 6.6425 3.6107 285.9341 1815.4824)">
		<stop  offset="0" style="stop-color:#FFFFFF"/>
		<stop  offset="1" style="stop-color:#EFE9DA"/>
	</linearGradient>
	<circle fill="url(#SVGID_37_)" cx="279.7" cy="180.8" r="1.1"/>
	
		<linearGradient id="SVGID_38_" gradientUnits="userSpaceOnUse" x1="-189.9918" y1="-105.2888" x2="-189.7844" y2="-105.2888" gradientTransform="matrix(-3.6111 6.6433 6.6433 3.6111 295.4927 1824.2064)">
		<stop  offset="0" style="stop-color:#FFFFFF"/>
		<stop  offset="1" style="stop-color:#EFE9DA"/>
	</linearGradient>
	<circle fill="url(#SVGID_38_)" cx="281.7" cy="182.6" r="1.1"/>
	
		<linearGradient id="SVGID_39_" gradientUnits="userSpaceOnUse" x1="-189.8769" y1="-106.6993" x2="-189.6695" y2="-106.6993" gradientTransform="matrix(-3.6109 6.643 6.643 3.6109 307.8507 1829.5887)">
		<stop  offset="0" style="stop-color:#FFFFFF"/>
		<stop  offset="1" style="stop-color:#EFE9DA"/>
	</linearGradient>
	<circle fill="url(#SVGID_39_)" cx="284.3" cy="183.7" r="1.1"/>
	<path fill="#FFFFFF" d="M279.5,183.5c2.2,1.2,11.7-1.1,14.5-3.7c0.9,0.3,2.3,3.6,2.4,4c0.1,0.4-5,6.8-5.8,9.2
		c-0.2-2.6-1.9-8.3-2.5-8.6c-0.6-0.3-8.3,1.5-9.7,0.5c-1.4-1-1.4-6.4-2.1-6.8c-0.6-0.4-5.3,1.5-6.5,1.7c1.2-1,9.4-6.1,10.5-5.4
		c1.1,0.7,1.9,0.7,1.9,0.7S278.2,182.8,279.5,183.5z"/>
	
		<linearGradient id="SVGID_40_" gradientUnits="userSpaceOnUse" x1="-170.2992" y1="-230.04" x2="-170.0919" y2="-230.04" gradientTransform="matrix(-36.44 50.6536 50.6536 36.44 5740.4863 17178.8145)">
		<stop  offset="0" style="stop-color:#FFDFB2"/>
		<stop  offset="1" style="stop-color:#FBC38F"/>
	</linearGradient>
	<path fill="url(#SVGID_40_)" d="M321.2,173.1c4.6-6.3,7.5-12.2,3.3-20.7c-6.9-13.9-18.1-20.5-26.1-18.9c-7.7,1.5-11.7,5.1-16.2,11.4
		c-4.9,6.9-7.3,12.4-7.4,15.9c-0.2,5.7,2.1,14,8.2,18.2c10.2,6.5,14.5,5.6,22.3,5C311.3,183.5,316.2,179.9,321.2,173.1z"/>
	<path fill="#EEB87D" d="M318.2,171.4c-10.4,0.5,2.5-19.3-2.8-23.7c-5.4,2.8-16.1,4.5-25.1,0c5.5,1.5,14,0.6,16.7-1.8
		c-5.2,0.2-18.5,0.6-23.2-3.1c10.8-14.5,23.6-20.1,41.4-4.2c17.7,15.8,4.2,29.4-1,34.7C323.5,172.4,322.6,171.2,318.2,171.4z"/>
	<path fill="#7E1416" d="M305.5,150.8c2.5,0.4,5.9,2.8,7.2,4.4C311.7,152.7,308.2,149.8,305.5,150.8z"/>
	<path fill="#7E1416" d="M298.2,146.3c-0.7-2.4-3.6-5.5-5.3-6.5C295.4,140.4,298.7,143.5,298.2,146.3z"/>
	
		<linearGradient id="SVGID_41_" gradientUnits="userSpaceOnUse" x1="-150.6618" y1="-227.8703" x2="-150.4545" y2="-227.8703" gradientTransform="matrix(11.6433 37.8034 37.8034 -11.6433 10686.4199 3218.3206)">
		<stop  offset="0" style="stop-color:#FFDFB2"/>
		<stop  offset="1" style="stop-color:#FBC38F"/>
	</linearGradient>
	<path fill="url(#SVGID_41_)" d="M320.8,170.2L312,181c2.3,2.5,7.2,5.5,11.4,0.3C327.7,176.2,324.1,171.8,320.8,170.2z"/>
	
		<linearGradient id="SVGID_42_" gradientUnits="userSpaceOnUse" x1="-216.7048" y1="-263.8962" x2="-216.4975" y2="-263.8962" gradientTransform="matrix(-13.2919 -11.7521 -11.7521 13.2919 -5660.5493 1140.606)">
		<stop  offset="0" style="stop-color:#E5B274"/>
		<stop  offset="1" style="stop-color:#FBC38F"/>
	</linearGradient>
	<path fill="url(#SVGID_42_)" d="M319.7,172.7l-5.5,6.8c1.5,1.6,4.5,3.5,7.2,0.2C324.1,176.4,321.8,173.6,319.7,172.7z"/>
	
		<linearGradient id="SVGID_43_" gradientUnits="userSpaceOnUse" x1="-166.3557" y1="-243.162" x2="-166.1484" y2="-243.162" gradientTransform="matrix(-165.8793 260.5447 260.5447 165.8793 36080.457 83810.2188)">
		<stop  offset="0" style="stop-color:#7E3D1B"/>
		<stop  offset="1" style="stop-color:#3F160A"/>
	</linearGradient>
	<path fill="url(#SVGID_43_)" d="M318.2,171.4c-7.4,0.5,3.6-20.9-1.7-25.3c-5.4,2.8-16.6,4.7-25.6,0.3c5.5,1.5,14,0.6,16.7-1.8
		c-5.2,0.2-19.8-0.4-24.5-4c12.1-13.2,24.9-17.7,41.8-5c19,14.2,7.1,32.1-0.4,37.9C323.7,172.5,322.6,171.1,318.2,171.4z"/>
	
		<linearGradient id="SVGID_44_" gradientUnits="userSpaceOnUse" x1="-161.5509" y1="-237.6815" x2="-161.3435" y2="-237.6815" gradientTransform="matrix(-0.6299 97.3802 97.3802 0.6299 23369.7402 16032.6777)">
		<stop  offset="0" style="stop-color:#8B4920"/>
		<stop  offset="1" style="stop-color:#5C270C"/>
	</linearGradient>
	<path fill="url(#SVGID_44_)" d="M336.4,155.8c-0.3,0.3-0.7,0.5-1.1,0.7c-0.3,0.1-0.6,0.2-1,0.2c-4.1,0.5-12.5-2.4-16.4-4.7
		c-0.3,5-2.3,11.5-2.4,15.6c2.4,2.1,6.8,3.6,10.3,4c0.1,0,0.3,0,0.4,0c2,0.2,4.5,0,6.7-0.4C335,166.3,336.3,161,336.4,155.8z"/>
	
		<linearGradient id="SVGID_45_" gradientUnits="userSpaceOnUse" x1="-169.9746" y1="-237.2572" x2="-169.7672" y2="-237.2572" gradientTransform="matrix(-85.4427 66.8357 66.8357 85.4427 1640.7687 31763.6367)">
		<stop  offset="0" style="stop-color:#8B4920"/>
		<stop  offset="1" style="stop-color:#602B0E"/>
	</linearGradient>
	<path fill="url(#SVGID_45_)" d="M307,127.4c-8.5-0.3-16.6,3.1-23.2,9.6c0.3,1.4,1.7,3.9,3.2,5.5c5.5,1.7,13.9,2.2,18.6,2.2
		C302.8,140.3,304,131,307,127.4z"/>
	
		<linearGradient id="SVGID_46_" gradientUnits="userSpaceOnUse" x1="-168.9646" y1="-226.8018" x2="-168.7573" y2="-226.8018" gradientTransform="matrix(-26.7967 46.5571 46.5571 26.7967 6322.9761 14112.2432)">
		<stop  offset="0" style="stop-color:#F7A58C"/>
		<stop  offset="1" style="stop-color:#F0857A"/>
	</linearGradient>
	<path fill="url(#SVGID_46_)" d="M285.2,165.9c-0.3-0.3,2.2-0.6,3.1-0.2c0.9,0.4,0.8,1.1,0.8,1.1s0.9-0.3,1.6,0c0.9,0.5,4.7,3.9,6.2,5.1
		c-1.6,2.3-5.9,8.4-11.7,5.2C281.2,174.8,285.2,166,285.2,165.9z"/>
	
		<linearGradient id="SVGID_47_" gradientUnits="userSpaceOnUse" x1="-169.3621" y1="-219.7114" x2="-169.1547" y2="-219.7114" gradientTransform="matrix(-15.6804 29.37 35.181 18.2875 5364.8682 9161.4268)">
		<stop  offset="0" style="stop-color:#B41F2D"/>
		<stop  offset="1" style="stop-color:#EC404B"/>
	</linearGradient>
	<path fill="url(#SVGID_47_)" d="M285.2,165.9c1.9,0.9,9,5,11.7,5.9c-2.1,0.8-5.9,5-10.5,2.6C283,172.8,284.8,166.9,285.2,165.9z"/>
	<path fill="#FFFFFF" d="M288.4,169.6c2,1,4.8,2.2,7.4,1.8c-2.5-1.1-6.8-3.3-9.3-4.8h0C286.4,167.7,286.6,168.6,288.4,169.6z"/>
	<path fill="#FCDBD0" d="M287.7,175.4c-1-0.2-1.4-0.4-1.4-0.3c0,0.1,0.3,0.4,1.3,0.6c1,0.2,1.7,0.3,1.7,0.1
		C289.3,175.8,288.7,175.7,287.7,175.4z"/>
	<ellipse transform="matrix(0.585 -0.811 0.811 0.585 -13.7997 319.9812)" fill="#FDD3AA" cx="305.8" cy="173.5" rx="2.8" ry="4.1"/>
	
		<ellipse transform="matrix(0.5849 -0.8111 0.8111 0.5849 -10.0556 291.0897)" fill="#FDD3AA" cx="279.4" cy="155.4" rx="2" ry="2.1"/>
	<path fill="#7E1416" d="M307.2,164.6c0.6,0.6,1,0.9,1.5,1.1c-0.7,0.2-1.6,0-2-0.5C306.2,164.8,306.7,164.2,307.2,164.6z"/>
	
		<linearGradient id="SVGID_48_" gradientUnits="userSpaceOnUse" x1="-159.2274" y1="-221.7825" x2="-159.0201" y2="-221.7825" gradientTransform="matrix(25.6522 -31.2735 31.2735 25.6522 11320.5107 875.8496)">
		<stop  offset="0" style="stop-color:#FFDFB2"/>
		<stop  offset="1" style="stop-color:#7E1416"/>
	</linearGradient>
	<circle fill="url(#SVGID_48_)" cx="302.8" cy="162.9" r="4.7"/>
	
		<ellipse transform="matrix(0.6342 -0.7732 0.7732 0.6342 -15.2192 293.7072)" fill="#FFFFFF" cx="302.8" cy="162.9" rx="4.2" ry="4.2"/>
	
		<linearGradient id="SVGID_49_" gradientUnits="userSpaceOnUse" x1="-178.1826" y1="-292.0207" x2="-177.9753" y2="-292.0207" gradientTransform="matrix(-13.8921 16.9364 -16.9364 -13.8921 -7115.999 -877.806)">
		<stop  offset="0" style="stop-color:#5A2C0E"/>
		<stop  offset="1" style="stop-color:#2E160C"/>
	</linearGradient>
	<circle fill="url(#SVGID_49_)" cx="303.8" cy="162.7" r="2.5"/>
	
		<linearGradient id="SVGID_50_" gradientUnits="userSpaceOnUse" x1="-181.8635" y1="-305.8543" x2="-181.6562" y2="-305.8543" gradientTransform="matrix(-10.6523 12.9866 -12.9866 -10.6523 -5604.334 -734.771)">
		<stop  offset="0" style="stop-color:#955924"/>
		<stop  offset="1" style="stop-color:#5C2C0F"/>
	</linearGradient>
	<circle fill="url(#SVGID_50_)" cx="303.9" cy="162.8" r="1.8"/>
	
		<ellipse transform="matrix(0.6342 -0.7732 0.7732 0.6342 -13.3164 294.2491)" fill="#FFFFFF" cx="304.3" cy="161.2" rx="0.5" ry="0.5"/>
	<path fill="#7E1416" d="M285.1,148.3c-0.7-0.5-1-0.8-1.4-1.2c-0.1,0.8,0.3,1.6,0.9,1.9C285.1,149.2,285.6,148.7,285.1,148.3z"/>
	
		<linearGradient id="SVGID_51_" gradientUnits="userSpaceOnUse" x1="-159.1009" y1="-272.9616" x2="-158.8936" y2="-272.9616" gradientTransform="matrix(25.6519 -31.2732 -31.2732 -25.6519 -4170.1924 -11821.998)">
		<stop  offset="0" style="stop-color:#FFDFB2"/>
		<stop  offset="1" style="stop-color:#7E1416"/>
	</linearGradient>
	<circle fill="url(#SVGID_51_)" cx="287.7" cy="152.3" r="4.7"/>
	
		<ellipse transform="matrix(0.6342 -0.7732 0.7732 0.6342 -12.4999 278.1192)" fill="#FFFFFF" cx="287.7" cy="152.3" rx="4.2" ry="4.2"/>
	
		<linearGradient id="SVGID_52_" gradientUnits="userSpaceOnUse" x1="-178.4239" y1="-295.2307" x2="-178.2165" y2="-295.2307" gradientTransform="matrix(-13.8915 16.9356 -16.9356 -13.8915 -7188.4927 -928.8599)">
		<stop  offset="0" style="stop-color:#5A2C0E"/>
		<stop  offset="1" style="stop-color:#2E160C"/>
	</linearGradient>
	<circle fill="url(#SVGID_52_)" cx="288.7" cy="152.2" r="2.5"/>
	
		<linearGradient id="SVGID_53_" gradientUnits="userSpaceOnUse" x1="-182.1756" y1="-310.0309" x2="-181.9683" y2="-310.0309" gradientTransform="matrix(-10.6535 12.988 -12.988 -10.6535 -5677.6494 -785.9046)">
		<stop  offset="0" style="stop-color:#955924"/>
		<stop  offset="1" style="stop-color:#5C2C0F"/>
	</linearGradient>
	<circle fill="url(#SVGID_53_)" cx="288.8" cy="152.2" r="1.8"/>
	
		<ellipse transform="matrix(0.6342 -0.7732 0.7732 0.6342 -10.6571 278.684)" fill="#FFFFFF" cx="289.2" cy="150.6" rx="0.5" ry="0.5"/>
	<path fill="#FCC680" d="M292.4,160.7c-1.9-2-4.3-2.5-5.8-1.3c-1.5,1.2,0,3.1,1.7,4.7C285.6,160.5,290.2,158.7,292.4,160.7z"/>
	<path fill="#FFDDAE" d="M288.3,164l4.2-3.3C290.2,158.7,285.6,160.5,288.3,164z"/>
	<path fill="#80807F" d="M221.5,195c0,0.4-0.3,0.5-0.8,0.5h-5.9c-0.4,0-0.8-0.1-0.8-0.5s0.3-0.5,0.8-0.5h5.9
		C221.2,194.5,221.5,194.6,221.5,195z"/>
	<polygon fill="#B3B1B2" points="182.7,163.5 221.5,163.5 223.7,187.5 184.9,187.5 	"/>
	<polygon fill="#BBBDBF" points="221.5,163.7 222.1,163.1 224.3,186.9 223.7,187.6 	"/>
	<polygon fill="#D0D2D3" points="182.7,163.5 183.8,162.5 222.1,162.5 221.5,163.5 	"/>
	<polygon fill="#5A5C5C" points="206.9,176.5 197.4,176.5 193.5,195.5 203.1,195.5 	"/>
	<polygon fill="#808184" points="206.9,177 207.1,177.3 203.7,193.5 203.4,193.5 	"/>
	<polygon fill="#80807F" points="188.3,193.5 208.8,193.5 208.3,196.5 187.8,196.5 	"/>
	<polygon fill="#929497" points="208.8,193.8 211.8,196.2 208.3,196.2 	"/>
	<rect x="169.7" y="195.5" fill="#E69627" width="135" height="52"/>
	<path fill="#C57F2A" d="M309.7,197.6c0-1.1-0.9-2.1-2.1-2.1H166.7c-1.1,0-2.1,0.9-2.1,2.1v0.9c0,1.1,0.9,2.1,2.1,2.1h140.9
		c1.1,0,2.1-0.9,2.1-2.1V197.6z"/>
</g>
</svg>
