<?xml version="1.0" encoding="UTF-8" standalone="no"?>
<svg width="228px" height="228px" viewBox="0 0 228 228" version="1.1" xmlns="http://www.w3.org/2000/svg" xmlns:xlink="http://www.w3.org/1999/xlink">
    <!-- Generator: Sketch 3.6.1 (26313) - http://www.bohemiancoding.com/sketch -->
    <title>Group</title>
    <desc>Created with Sketch.</desc>
    <defs></defs>
    <g id="Page-1" stroke="none" stroke-width="1" fill="none" fill-rule="evenodd">
        <g id="gutter_icon" transform="translate(-1094.000000, -317.000000)" fill="#212121">
            <g id="Group" transform="translate(1094.000000, 317.000000)">
                <g id="Shape">
                    <path d="M185,138.3 C185,137.7 185.4,136.8 184.6,136.3 C178.6,132.4 171.9,130.1 165.5,127 C162.3,125.4 157.4,123.4 154.5,121.1 L154.6,121.1 C157.8,119.5 160.9,117.9 164.1,116.3 C164.7,115.7 166,116.3 166.1,115 C165.7,114.1 165,114 164.2,114.1 C163,114.2 161.7,114.2 160.5,114.2 C158.7,114.5 157.2,115.5 155.5,116.2 C154,117 152.5,117.8 150.9,118.3 C150.8,118.3 150.7,118.4 150.5,118.5 L144.8,115.8 C142.1,114.4 139.4,113.1 136.6,111.8 C122.5,105.1 108.5,98.5 94.4,91.8 C87.5,88.5 80.7,85.1 73.7,82 C73.7,82 28.1,60.6 27.2,60.2 L8.3,74.5 L0,105.9 L2.4,109.6 L2.4,110.6 L2.1,111.8 L78.5,157.3 L78.6,157.5 C77.6,159.5 78.2,161.7 78.1,163.8 C78,164.8 78.3,166 76.9,166.3 C76.6,166.5 76.3,166.7 76.3,167.1 C77.6,169.3 79.2,171 81.9,171.6 C87,172.6 90.2,175.9 92,180.8 C92.8,182.9 93.3,185.1 93.9,187.3 C95.5,193.9 96.1,200.8 99.1,207 C99.3,207.4 99.1,207.8 99.2,208.2 C99.2,208.5 99.3,208.7 99.4,208.9 C103.2,212.6 107.5,215.2 112.9,215.3 C114.1,215.3 115.3,215.5 115.6,217 C116,219.4 116.9,221.7 116.6,224.2 C116.6,224.6 117,225.6 117.2,225.9 C119.4,227.7 121.6,227.3 124,225.8 C127.2,223.8 130.5,222.1 133.8,220.4 C142.3,216.1 150.6,211.3 159.1,207.1 C164.7,204.3 170.2,201.2 175.7,198.1 C178.6,196.5 181.7,195.3 184.4,193.2 C185.1,192.7 184.9,191.9 184.9,191.2 C185,173.5 185,155.9 185,138.3 L185,138.3 Z M108.1,142.3 L101.2,145.7 C103.4,144.4 105.6,143 108.1,142.3 L108.1,142.3 Z M99,146.7 L99.2,146.7 L94.4,149.1 C95.7,147.9 97.2,147.1 99,146.7 L99,146.7 Z M179.9,192.9 C177.7,193.9 175.6,195.2 173.5,196.3 C171.4,197.3 169.4,198.7 167.3,199.7 C165.4,200.7 163.5,201.7 161.7,202.7 C159.5,203.8 157.4,205.1 155.2,206.2 C153.3,207.2 151.5,208.2 149.6,209.1 C148.5,209.8 147.3,210.4 146.2,211 C145,211.8 143.8,212.4 142.5,213 C141.6,213.5 140.6,214 139.6,214.5 C138,215.6 136.2,216.3 134.5,217.3 C134.2,217.5 133.8,217.8 133.4,218 C133,218.2 132.7,218.4 132.3,218.6 C131.1,219.2 129.8,219.7 128.6,220.5 C127.2,221.3 125.8,222.1 124.3,222.8 C123,223.4 121.9,224.5 120.2,224.1 C119.2,222.4 119.5,220.4 118.9,218.5 C118.6,217.8 118.6,217.1 118.4,216.4 C117.5,213 117,212.5 113.5,212.4 C109.2,212.2 105.4,211 102.7,207.1 C101.2,204.9 100.1,202.5 99.5,199.9 C98.5,195.7 97.9,191.3 96.9,187.1 C96.9,186.8 96.8,186.6 96.8,186.4 C96.6,185.8 96.4,185.2 96.3,184.7 C95.4,182.1 94.6,179.5 93.5,177 C92,174.2 89.8,172.1 87.2,170.4 C87,170.3 86.8,170.2 86.6,170.1 C86.1,170 85.6,169.7 85,169.5 C84.6,169.4 84.1,169.1 83.7,169 C81.9,168.8 81.3,167.8 81.4,165.9 C81.6,163.3 81.7,160.8 81.3,158.2 C81.2,158 81.2,157.8 81.1,157.7 L109.3,143.9 C109.4,143.9 109.4,143.9 109.5,143.8 C109.7,143.7 109.9,143.6 110.1,143.5 C110.3,143.4 110.4,143.3 110.6,143.2 L135.2,131.1 L135.2,131.3 C136.1,132.2 151.5,123.1 152.6,123.7 C159.3,126.8 170.6,132.5 177.4,135.2 C181.2,136.7 182.4,139 182.3,143.2 C182.1,158.1 182,172.9 182.3,187.8 L182.3,189 C182.7,191 181.7,192.1 179.9,192.9 L179.9,192.9 Z M83.5,154.5 L0,105.9 L8.3,74.5 L17.6,67.4 L136.5,128.4 L83.5,154.5 L83.5,154.5 Z"></path>
                    <path d="M225.3,44.6 L191.8,31.7 L104.9,0.1 L100,3.8 L217.5,46.3 L164.7,114.3 L162.6,116.7 C162.6,116.7 169.1,120.4 173,120.9 C176.9,121.4 220,66.6 220,66.6 L219.9,66.5 L226.7,55.2 C226.8,55.2 230.1,47.4 225.3,44.6 L225.3,44.6 Z"></path>
                    <path d="M193,79.3 L195,75.5 L135,51.5 L162.1,24.8 L158.1,23 L130.8,49.8 L71.2,26 L67.6,28.8 L80.4,34 L52,57.8 L37.9,51.6 L34.9,54.1 L172.6,114.2 L173.9,111 L56,59.5 L84.5,35.6 L193,79.3 Z"></path>
                    <path d="M154.7,59.3 C155.4,59.4 156.2,59.3 156.5,58.9 C158,56.8 160,55 161.8,53.1 C162.3,52.6 162.6,51.6 162.2,50.9 C161.8,50.1 160.9,50.7 160.2,50.7 C158.7,50.7 157,51.1 155.8,50.8 C154,50.3 152.1,51.4 150.4,50.3 C150.4,50 150.3,49.8 150.3,49.6 C150.4,49.1 151,48.8 151.3,48.4 C151.7,47.8 152.3,46.9 151.8,46.6 C150,45.4 151.3,44.2 151.6,43 C152,42.5 152.5,41.8 151.4,41.7 C149.6,41.5 150.3,40.7 150.7,39.9 C151,39.2 151.8,38.2 151.3,37.9 C149.3,36.4 151.2,35.1 151.5,33.8 C151.6,33.1 150.9,32.5 151.1,31.7 C151.1,31.4 151,31.1 150.8,30.8 C150.3,30 150.6,29 150.2,28.1 C149.7,27.4 149,27.6 148.3,27.8 C147.1,28.3 146.5,29.4 145.5,30.1 C145.1,30.4 144.4,30.5 144.4,31.2 C142.6,32.5 140.7,33.4 138.5,34 L138.5,34 C137.5,34 137,34.7 136.4,35.3 C135.9,35.7 135.7,36.7 134.9,36.6 C133.4,36.5 133.1,37.3 132.9,38.4 L132.9,38.4 L132.9,38.4 C132.7,38.8 132.4,39.2 132.2,39.7 C131.4,40.4 131.3,41.4 131.3,42.3 L131.3,42.3 C131.1,42.9 130.9,43.5 130.7,44.2 L130.7,44.2 C129.4,43 128.2,41.7 126.9,40.5 C126.4,40.1 125.7,39.3 125.1,39.9 C123.7,41.2 123,40.1 122.2,39.3 C121.7,38.8 121.4,38 120.4,37.9 C120.4,39.1 118.3,39 118.5,40.3 C119,42.7 118.3,45 117.8,47.3 C117.5,49 116.5,50.6 117.8,52.3 C118.5,53.1 118.8,54.1 119.4,55 C119.9,55.7 119.5,56.1 118.9,56.5 C118.5,56.6 118.2,56.6 117.8,56.7 L117.8,56.7 L117.8,56.7 C116.9,56.5 115.5,55.7 115.2,56.4 C114.6,57.6 113.4,59.2 115.5,60.3 C116.5,61.4 117.4,62.6 118.6,63.5 C121.9,66 125.6,67.9 130.1,66.2 L130.1,66.2 L130.8,66.2 L130.8,66.2 L130.8,66.2 C131.7,67.4 130.3,68.3 130.5,69.5 C130.3,70.1 130.1,70.8 129.8,71.4 L129.8,71.4 L129.8,71.4 C129.8,72.7 128.9,73.6 128.6,74.8 C128.5,75.3 128.5,75.8 129,75.9 C129.6,76.1 129.8,75.6 129.9,75.1 C130.2,73.8 130.5,72.6 130.7,71.3 L130.7,71.3 C130.9,70.6 131,70 131.2,69.3 L131.2,69.3 C131.5,68.6 131.8,67.8 132.2,67.1 C132.6,67.4 133,67.6 133.4,67.8 C133.6,68 133.8,68.1 134,68.2 L134,68.2 C136.3,70.3 139.6,70.4 142.2,72 C143.3,72.7 145.1,72.6 146.6,72.8 C147.3,72.9 148.1,73.1 148,72 C149.1,71.1 150.5,71.7 151.7,71.2 C153.1,71.4 153.1,69.8 154.2,69.6 L154.3,69.6 C155.1,69.6 155.9,69.8 156.6,69.3 L156.6,69.3 C158.5,68.3 158.6,66.1 160,64.7 C158.1,64.2 157.4,61.9 155.2,61.7 C154.4,61.3 153.2,62.1 152.6,61 C153.2,60.3 153.6,59.5 154.7,59.3 L154.7,59.3 Z M151.7,69.7 L151.9,69.7 L151.8,69.8 C151.7,69.8 151.7,69.8 151.7,69.7 L151.7,69.7 Z"></path>
                    <path d="M78.8,163.3 L80.5,167.5 L78.8,166.3 L78.8,163.3 L78.8,163.3 Z"></path>
                    <path d="M183.1,175.7 C183.1,163.2 183.1,150.7 183.2,138.3 C183.2,137 182.5,136.7 181.6,136.3 C172.5,132.1 163.5,127.8 154.4,123.6 C153.3,123.2 152.4,123.4 151.3,123.9 C141.4,128.8 131.4,133.5 121.6,138.4 L119.6,138.1 L92.6,150.8 L85.4,154.8 L78.8,155.4 L78.8,153.7 C78.2,152.1 11,114.4 9.2,116 L2.2,111.8 L1.9,121.2 L1.9,121.2 L0.4,146 L118,225.4 L118.9,224 L119.9,224.8 L124.4,223.9 L183.2,191.6 L183.5,176 L183.1,175.7 L183.1,175.7 Z M180.8,193.3 C178.4,194.3 176.1,195.7 173.7,197 C171.7,198.1 169.6,199.2 167.6,200.3 L167.6,200.3 L167.6,200.3 C165.7,201.3 163.7,202.3 161.8,203.3 C159.7,204.6 157.7,205.8 155.4,206.8 L155.4,206.8 L155.4,206.8 C153.6,208 151.7,208.9 149.7,209.7 C148.8,210.8 147.5,211 146.3,211.6 C145.1,212.4 143.9,213.2 142.5,213.6 C141.6,214.3 140.7,214.8 139.7,215.1 L139.7,215.1 L139.7,215.1 C138.2,216.5 136.3,217.2 134.4,218 L134.4,218 L134.4,218 C134.2,218.4 133.9,218.5 133.5,218.5 L133.5,218.5 L133.5,218.5 C133.3,218.8 133,219 132.5,219 L132.5,219 L132.5,219 C131.4,219.9 130.1,220.4 128.8,221 C126.6,222.7 124,223.7 121.6,224.9 C121.1,225.2 120.4,225.5 119.8,224.9 C118.4,223.1 118.7,220.8 118.3,218.7 L118.3,218.7 C117.8,218.1 117.9,217.3 117.8,216.5 L117.8,216.5 L117.8,216.5 C117.4,214 116.2,213 113.6,213.1 C106.6,213.2 101.9,209.5 99.6,202.7 C97.8,197.5 97,192.1 96.2,186.6 C96.1,186.5 96.1,186.4 96.1,186.2 L96.1,186.2 C95.6,185.8 95.7,185.2 95.7,184.6 C94.7,182 93.8,179.4 92.8,176.8 L92.8,176.8 L92.8,176.8 C91.1,174.3 89.1,172.1 86.6,170.4 C86.5,170.4 86.3,170.4 86.2,170.3 C85.6,170.5 85.2,170.1 84.8,169.8 C84.6,169.5 84.4,169.2 84.2,168.9 C83.7,168.8 83.2,168.8 82.8,168.8 C83.2,168.9 83.6,169.1 83.8,169.5 C81.3,169.2 80.5,169.1 80.4,167.7 C80,167.2 80,166.7 80.4,166.3 L80.4,165.4 C80.5,162.9 80,160.4 80.7,158 C81.1,157.9 81.4,157.8 81.8,157.6 C82,156.4 82.5,155.5 83.9,154.8 L83.9,154.7 C85,154.1 86.5,154.2 87.5,153.6 C88,153.6 88.5,153.7 89,153.7 L89,153.8 C90.4,153.4 91.7,152.8 92.9,151.9 C93.2,151.9 93.5,151.9 93.7,151.8 C94.2,150.7 95.4,150.9 96.1,150.3 L96.1,150.3 C96.8,149.2 97.8,148.9 98.9,148.9 L98.9,148.9 L98.9,148.9 C99.2,148.8 99.5,148.7 99.9,148.6 L99.9,148.6 C100.4,148.1 101,147.9 101.7,148 L101.7,148 L101.7,148 C102.6,147.2 103.6,146.7 104.7,146.6 C104.4,146.1 104.2,145.6 104.5,145 C105.4,143.4 107,143 108.4,142.4 C109,142.2 109.5,142.1 110.1,142 C110.8,142.6 110.9,143.4 110.7,144.1 C111.8,145.1 112.6,146.4 113.5,147.6 L113.5,147.6 C114.3,148.5 115.1,149.4 115.9,150.3 L115.9,150.3 L115.9,150.3 L118.6,153 C119,153.3 119.3,153.5 119.7,153.8 C123.7,155.8 127.9,157.1 132.2,158.1 C138.4,159.7 143.4,163 147.8,167.6 C155,175 163.3,180.3 173.4,182.3 C177.2,183.1 180,185.5 182.8,188 L182.8,189 L182.8,189 L182.8,189 C183.5,191.2 182.8,192.5 180.8,193.3 L180.8,193.3 Z M117.1,168.1 C117,168.1 117,168.1 117.1,168.1 C117,168 117.1,168 117.1,168.1 L117.1,168.1 L117.1,168.1 L117.1,168.1 Z M125.5,210.8 L125.5,211.2 L125.5,211.2 L125.5,211.2 L125.2,210.9 C125.3,210.8 125.4,210.8 125.5,210.8 L125.5,210.8 Z M108.1,152.3 L108.1,152.3 C108.1,152.2 108.1,152.2 108.1,152.3 C108.1,152.2 108.1,152.3 108.1,152.3 L108.1,152.3 Z"></path>
                    <path d="M83.5,154.5 L0,105.9 L2.6,109.2 L83.1,157.4 L136.5,131 L136.5,128.4 L83.5,154.5 Z"></path>
                </g>
                <g transform="translate(7.000000, 69.000000)" id="Shape">
                    <path d="M8.6,39.5 L8.6,39.5 C8.9,39.8 9.5,39.8 9.9,39.6 L10.9,39.1 C11.9,38.6 12,37.7 11.1,37 L11.1,37 C10.8,36.7 10.2,36.7 9.8,36.9 L8.8,37.4 C7.9,37.9 7.8,38.8 8.6,39.5 L8.6,39.5 Z"></path>
                    <path d="M17.5,35 L17.5,35 C17.8,35.3 18.4,35.3 18.8,35.1 L19.8,34.6 C20.8,34.1 20.9,33.2 20,32.5 L20,32.5 C19.7,32.2 19.1,32.2 18.7,32.4 L17.7,32.9 C16.8,33.4 16.7,34.3 17.5,35 L17.5,35 Z"></path>
                    <path d="M1.4,35 L1.4,35 C1.7,35.3 2.3,35.3 2.7,35.1 L3.7,34.6 C4.7,34.1 4.8,33.2 3.9,32.5 L3.9,32.5 C3.6,32.2 3,32.2 2.6,32.4 L1.6,32.9 C0.7,33.4 0.6,34.3 1.4,35 L1.4,35 Z"></path>
                    <path d="M10.4,30.5 L10.4,30.5 C10.7,30.8 11.3,30.8 11.7,30.6 L12.7,30.1 C13.7,29.6 13.8,28.7 12.9,28 L12.9,28 C12.6,27.7 12,27.7 11.6,27.9 L10.6,28.4 C9.6,28.9 9.5,29.9 10.4,30.5 L10.4,30.5 Z"></path>
                    <path d="M19.3,26 L19.3,26 C19.6,26.3 20.2,26.3 20.6,26.1 L21.6,25.6 C22.6,25.1 22.7,24.2 21.8,23.5 L21.8,23.5 C21.5,23.2 20.9,23.2 20.5,23.4 L19.5,23.9 C18.6,24.4 18.5,25.4 19.3,26 L19.3,26 Z"></path>
                    <path d="M28.2,21.6 L28.2,21.6 C28.5,21.9 29.1,21.9 29.5,21.7 L30.5,21.2 C31.5,20.7 31.6,19.8 30.7,19.1 L30.7,19.1 C30.4,18.8 29.8,18.8 29.4,19 L28.4,19.5 C27.5,20 27.4,20.9 28.2,21.6 L28.2,21.6 Z"></path>
                    <path d="M36.3,17.1 L36.3,17.1 C36.6,17.4 37.2,17.4 37.6,17.2 L38.6,16.7 C39.6,16.2 39.7,15.3 38.8,14.6 L38.8,14.6 C38.5,14.3 37.9,14.3 37.5,14.5 L36.5,15 C35.5,15.5 35.4,16.4 36.3,17.1 L36.3,17.1 Z"></path>
                    <path d="M4.1,26 L4.1,26 C4.4,26.3 5,26.3 5.4,26.1 L6.4,25.6 C7.4,25.1 7.5,24.2 6.6,23.5 L6.6,23.5 C6.3,23.2 5.7,23.2 5.3,23.4 L4.3,23.9 C3.4,24.4 3.3,25.4 4.1,26 L4.1,26 Z"></path>
                    <path d="M12.2,21.6 L12.2,21.6 C12.5,21.9 13.1,21.9 13.5,21.7 L14.5,21.2 C15.5,20.7 15.6,19.8 14.7,19.1 L14.7,19.1 C14.4,18.8 13.8,18.8 13.4,19 L12.4,19.5 C11.4,20 11.3,20.9 12.2,21.6 L12.2,21.6 Z"></path>
                    <path d="M20.2,17.1 L20.2,17.1 C20.5,17.4 21.1,17.4 21.5,17.2 L22.5,16.7 C23.5,16.2 23.6,15.3 22.7,14.6 L22.7,14.6 C22.4,14.3 21.8,14.3 21.4,14.5 L20.4,15 C19.5,15.5 19.4,16.4 20.2,17.1 L20.2,17.1 Z"></path>
                    <path d="M27.4,12.6 L27.4,12.6 C27.7,12.9 28.3,12.9 28.7,12.7 L29.7,12.2 C30.7,11.7 30.8,10.8 29.9,10.1 L29.9,10.1 C29.6,9.8 29,9.8 28.6,10 L27.6,10.5 C26.6,11 26.5,11.9 27.4,12.6 L27.4,12.6 Z"></path>
                    <path d="M4.1,17.1 L4.1,17.1 C4.4,17.4 5,17.4 5.4,17.2 L6.4,16.7 C7.4,16.2 7.5,15.3 6.6,14.6 L6.6,14.6 C6.3,14.3 5.7,14.3 5.3,14.5 L4.3,15 C3.4,15.5 3.3,16.4 4.1,17.1 L4.1,17.1 Z"></path>
                    <path d="M12.2,12.6 L12.2,12.6 C12.5,12.9 13.1,12.9 13.5,12.7 L14.5,12.2 C15.5,11.7 15.6,10.8 14.7,10.1 L14.7,10.1 C14.4,9.8 13.8,9.8 13.4,10 L12.4,10.5 C11.4,11 11.3,11.9 12.2,12.6 L12.2,12.6 Z"></path>
                    <path d="M19.3,8.1 L19.3,8.1 C19.6,8.4 20.2,8.4 20.6,8.2 L21.6,7.7 C22.6,7.2 22.7,6.3 21.8,5.6 L21.8,5.6 C21.5,5.3 20.9,5.3 20.5,5.5 L19.5,6 C18.6,6.5 18.5,7.4 19.3,8.1 L19.3,8.1 Z"></path>
                    <g transform="translate(4.000000, 0.000000)">
                        <path d="M50.1,65.2 L50.1,65.2 C50.4,65.5 51,65.5 51.4,65.3 L52.4,64.8 C53.4,64.3 53.5,63.4 52.6,62.7 L52.6,62.7 C52.3,62.4 51.7,62.4 51.3,62.6 L50.3,63.1 C49.4,63.6 49.3,64.6 50.1,65.2 L50.1,65.2 Z"></path>
                        <path d="M59.1,60.8 L59.1,60.8 C59.4,61.1 60,61.1 60.4,60.9 L61.4,60.4 C62.4,59.9 62.5,59 61.6,58.3 L61.6,58.3 C61.3,58 60.7,58 60.3,58.2 L59.3,58.7 C58.3,59.2 58.2,60.1 59.1,60.8 L59.1,60.8 Z"></path>
                        <path d="M68,56.3 L68,56.3 C68.3,56.6 68.9,56.6 69.3,56.4 L70.3,55.9 C71.3,55.4 71.4,54.5 70.5,53.8 L70.5,53.8 C70.2,53.5 69.6,53.5 69.2,53.7 L68.2,54.2 C67.3,54.7 67.2,55.6 68,56.3 L68,56.3 Z"></path>
                        <path d="M76.9,51.8 L76.9,51.8 C77.2,52.1 77.8,52.1 78.2,51.9 L79.2,51.4 C80.2,50.9 80.3,50 79.4,49.3 L79.4,49.3 C79.1,49 78.5,49 78.1,49.2 L77.1,49.7 C76.2,50.2 76.1,51.1 76.9,51.8 L76.9,51.8 Z"></path>
                        <path d="M85,47.3 L85,47.3 C85.3,47.6 85.9,47.6 86.3,47.4 L87.3,46.9 C88.3,46.4 88.4,45.5 87.5,44.8 L87.5,44.8 C87.2,44.5 86.6,44.5 86.2,44.7 L85.2,45.2 C84.2,45.7 84.1,46.6 85,47.3 L85,47.3 Z"></path>
                        <path d="M40.3,59.9 L40.3,59.9 C40.6,60.2 41.2,60.2 41.6,60 L42.6,59.5 C43.6,59 43.7,58.1 42.8,57.4 L42.8,57.4 C42.5,57.1 41.9,57.1 41.5,57.3 L40.5,57.8 C39.6,58.3 39.5,59.2 40.3,59.9 L40.3,59.9 Z"></path>
                        <path d="M49.2,55.4 L49.2,55.4 C49.5,55.7 50.1,55.7 50.5,55.5 L51.5,55 C52.5,54.5 52.6,53.6 51.7,52.9 L51.7,52.9 C51.4,52.6 50.8,52.6 50.4,52.8 L49.4,53.3 C48.5,53.8 48.4,54.7 49.2,55.4 L49.2,55.4 Z"></path>
                        <path d="M58.2,50.9 L58.2,50.9 C58.5,51.2 59.1,51.2 59.5,51 L60.5,50.5 C61.5,50 61.6,49.1 60.7,48.4 L60.7,48.4 C60.4,48.1 59.8,48.1 59.4,48.3 L58.4,48.8 C57.4,49.3 57.3,50.2 58.2,50.9 L58.2,50.9 Z"></path>
                        <path d="M67.1,46.4 L67.1,46.4 C67.4,46.7 68,46.7 68.4,46.5 L69.4,46 C70.4,45.5 70.5,44.6 69.6,43.9 L69.6,43.9 C69.3,43.6 68.7,43.6 68.3,43.8 L67.3,44.3 C66.4,44.8 66.3,45.7 67.1,46.4 L67.1,46.4 Z"></path>
                        <path d="M75.1,41.9 L75.1,41.9 C75.4,42.2 76,42.2 76.4,42 L77.4,41.5 C78.4,41 78.5,40.1 77.6,39.4 L77.6,39.4 C77.3,39.1 76.7,39.1 76.3,39.3 L75.3,39.8 C74.4,40.3 74.3,41.3 75.1,41.9 L75.1,41.9 Z"></path>
                        <path d="M31.4,54.5 L31.4,54.5 C31.7,54.8 32.3,54.8 32.7,54.6 L33.7,54.1 C34.7,53.6 34.8,52.7 33.9,52 L33.9,52 C33.6,51.7 33,51.7 32.6,51.9 L31.6,52.4 C30.6,52.9 30.5,53.8 31.4,54.5 L31.4,54.5 Z"></path>
                        <path d="M40.3,50 L40.3,50 C40.6,50.3 41.2,50.3 41.6,50.1 L42.6,49.6 C43.6,49.1 43.7,48.2 42.8,47.5 L42.8,47.5 C42.5,47.2 41.9,47.2 41.5,47.4 L40.5,47.9 C39.6,48.4 39.5,49.3 40.3,50 L40.3,50 Z"></path>
                        <path d="M49.2,45.5 L49.2,45.5 C49.5,45.8 50.1,45.8 50.5,45.6 L51.5,45.1 C52.5,44.6 52.6,43.7 51.7,43 L51.7,43 C51.4,42.7 50.8,42.7 50.4,42.9 L49.4,43.4 C48.5,43.9 48.4,44.9 49.2,45.5 L49.2,45.5 Z"></path>
                        <path d="M58.2,41 L58.2,41 C58.5,41.3 59.1,41.3 59.5,41.1 L60.5,40.6 C61.5,40.1 61.6,39.2 60.7,38.5 L60.7,38.5 C60.4,38.2 59.8,38.2 59.4,38.4 L58.4,38.9 C57.4,39.4 57.3,40.4 58.2,41 L58.2,41 Z"></path>
                        <path d="M66.2,36.6 L66.2,36.6 C66.5,36.9 67.1,36.9 67.5,36.7 L68.5,36.2 C69.5,35.7 69.6,34.8 68.7,34.1 L68.7,34.1 C68.4,33.8 67.8,33.8 67.4,34 L66.4,34.5 C65.5,35 65.4,35.9 66.2,36.6 L66.2,36.6 Z"></path>
                        <path d="M22.5,50.2 L22.5,50.2 C22.8,50.5 23.4,50.5 23.8,50.3 L24.8,49.8 C25.8,49.3 25.9,48.4 25,47.7 L25,47.7 C24.7,47.4 24.1,47.4 23.7,47.6 L22.7,48.1 C21.7,48.6 21.6,49.6 22.5,50.2 L22.5,50.2 Z"></path>
                        <path d="M31.4,45.8 L31.4,45.8 C31.7,46.1 32.3,46.1 32.7,45.9 L33.7,45.4 C34.7,44.9 34.8,44 33.9,43.3 L33.9,43.3 C33.6,43 33,43 32.6,43.2 L31.6,43.7 C30.7,44.2 30.6,45.1 31.4,45.8 L31.4,45.8 Z"></path>
                        <path d="M40.3,41.3 L40.3,41.3 C40.6,41.6 41.2,41.6 41.6,41.4 L42.6,40.9 C43.6,40.4 43.7,39.5 42.8,38.8 L42.8,38.8 C42.5,38.5 41.9,38.5 41.5,38.7 L40.5,39.2 C39.6,39.7 39.5,40.6 40.3,41.3 L40.3,41.3 Z"></path>
                        <path d="M49.3,36.8 L49.3,36.8 C49.6,37.1 50.2,37.1 50.6,36.9 L51.6,36.4 C52.6,35.9 52.7,35 51.8,34.3 L51.8,34.3 C51.5,34 50.9,34 50.5,34.2 L49.5,34.7 C48.5,35.2 48.4,36.1 49.3,36.8 L49.3,36.8 Z"></path>
                        <path d="M57.3,32.3 L57.3,32.3 C57.6,32.6 58.2,32.6 58.6,32.4 L59.6,31.9 C60.6,31.4 60.7,30.5 59.8,29.8 L59.8,29.8 C59.5,29.5 58.9,29.5 58.5,29.7 L57.5,30.2 C56.6,30.7 56.5,31.6 57.3,32.3 L57.3,32.3 Z"></path>
                        <path d="M12.6,44.9 L12.6,44.9 C12.9,45.2 13.5,45.2 13.9,45 L14.9,44.5 C15.9,44 16,43.1 15.1,42.4 L15.1,42.4 C14.8,42.1 14.2,42.1 13.8,42.3 L12.8,42.8 C11.9,43.3 11.8,44.2 12.6,44.9 L12.6,44.9 Z"></path>
                        <path d="M21.6,40.4 L21.6,40.4 C21.9,40.7 22.5,40.7 22.9,40.5 L23.9,40 C24.9,39.5 25,38.6 24.1,37.9 L24.1,37.9 C23.8,37.6 23.2,37.6 22.8,37.8 L21.8,38.3 C20.8,38.8 20.7,39.7 21.6,40.4 L21.6,40.4 Z"></path>
                        <path d="M30.5,35.9 L30.5,35.9 C30.8,36.2 31.4,36.2 31.8,36 L32.8,35.5 C33.8,35 33.9,34.1 33,33.4 L33,33.4 C32.7,33.1 32.1,33.1 31.7,33.3 L30.7,33.8 C29.8,34.3 29.7,35.2 30.5,35.9 L30.5,35.9 Z"></path>
                        <path d="M39.4,31.4 L39.4,31.4 C39.7,31.7 40.3,31.7 40.7,31.5 L41.7,31 C42.7,30.5 42.8,29.6 41.9,28.9 L41.9,28.9 C41.6,28.6 41,28.6 40.6,28.8 L39.6,29.3 C38.7,29.8 38.6,30.7 39.4,31.4 L39.4,31.4 Z"></path>
                        <path d="M47.5,26.9 L47.5,26.9 C47.8,27.2 48.4,27.2 48.8,27 L49.8,26.5 C50.8,26 50.9,25.1 50,24.4 L50,24.4 C49.7,24.1 49.1,24.1 48.7,24.3 L47.7,24.8 C46.7,25.3 46.6,26.3 47.5,26.9 L47.5,26.9 Z"></path>
                        <path d="M22.5,30.5 L22.5,30.5 C22.8,30.8 23.4,30.8 23.8,30.6 L24.8,30.1 C25.8,29.6 25.9,28.7 25,28 L25,28 C24.7,27.7 24.1,27.7 23.7,27.9 L22.7,28.4 C21.7,28.9 21.6,29.9 22.5,30.5 L22.5,30.5 Z"></path>
                        <path d="M31.4,26 L31.4,26 C31.7,26.3 32.3,26.3 32.7,26.1 L33.7,25.6 C34.7,25.1 34.8,24.2 33.9,23.5 L33.9,23.5 C33.6,23.2 33,23.2 32.6,23.4 L31.6,23.9 C30.7,24.4 30.6,25.4 31.4,26 L31.4,26 Z"></path>
                        <path d="M39.4,21.6 L39.4,21.6 C39.7,21.9 40.3,21.9 40.7,21.7 L41.7,21.2 C42.7,20.7 42.8,19.8 41.9,19.1 L41.9,19.1 C41.6,18.8 41,18.8 40.6,19 L39.6,19.5 C38.7,20 38.6,20.9 39.4,21.6 L39.4,21.6 Z"></path>
                        <path d="M77.8,80.5 L77.8,80.5 C78.1,80.8 78.7,80.8 79.1,80.6 L80.1,80.1 C81.1,79.6 81.2,78.7 80.3,78 L80.3,78 C80,77.7 79.4,77.7 79,77.9 L78,78.4 C77.1,78.9 77,79.8 77.8,80.5 L77.8,80.5 Z"></path>
                        <path d="M86.7,76 L86.7,76 C87,76.3 87.6,76.3 88,76.1 L89,75.6 C90,75.1 90.1,74.2 89.2,73.5 L89.2,73.5 C88.9,73.2 88.3,73.2 87.9,73.4 L86.9,73.9 C86,74.4 85.9,75.3 86.7,76 L86.7,76 Z"></path>
                        <path d="M95.7,71.5 L95.7,71.5 C96,71.8 96.6,71.8 97,71.6 L98,71.1 C99,70.6 99.1,69.7 98.2,69 L98.2,69 C97.9,68.7 97.3,68.7 96.9,68.9 L95.9,69.4 C94.9,69.9 94.8,70.9 95.7,71.5 L95.7,71.5 Z"></path>
                        <path d="M104.6,67 L104.6,67 C104.9,67.3 105.5,67.3 105.9,67.1 L106.9,66.6 C107.9,66.1 108,65.2 107.1,64.5 L107.1,64.5 C106.8,64.2 106.2,64.2 105.8,64.4 L104.8,64.9 C103.9,65.4 103.8,66.4 104.6,67 L104.6,67 Z"></path>
                        <path d="M112.7,62.6 L112.7,62.6 C113,62.9 113.6,62.9 114,62.7 L115,62.2 C116,61.7 116.1,60.8 115.2,60.1 L115.2,60.1 C114.9,59.8 114.3,59.8 113.9,60 L112.9,60.5 C111.9,61 111.8,61.9 112.7,62.6 L112.7,62.6 Z"></path>
                        <path d="M68,75.1 L68,75.1 C68.3,75.4 68.9,75.4 69.3,75.2 L70.3,74.7 C71.3,74.2 71.4,73.3 70.5,72.6 L70.5,72.6 C70.2,72.3 69.6,72.3 69.2,72.5 L68.2,73 C67.3,73.5 67.2,74.4 68,75.1 L68,75.1 Z"></path>
                        <path d="M76.9,70.6 L76.9,70.6 C77.2,70.9 77.8,70.9 78.2,70.7 L79.2,70.2 C80.2,69.7 80.3,68.8 79.4,68.1 L79.4,68.1 C79.1,67.8 78.5,67.8 78.1,68 L77.1,68.5 C76.2,69 76.1,70 76.9,70.6 L76.9,70.6 Z"></path>
                        <path d="M85.9,66.1 L85.9,66.1 C86.2,66.4 86.8,66.4 87.2,66.2 L88.2,65.7 C89.2,65.2 89.3,64.3 88.4,63.6 L88.4,63.6 C88.1,63.3 87.5,63.3 87.1,63.5 L86.1,64 C85.1,64.5 85,65.5 85.9,66.1 L85.9,66.1 Z"></path>
                        <path d="M94.8,61.7 L94.8,61.7 C95.1,62 95.7,62 96.1,61.8 L97.1,61.3 C98.1,60.8 98.2,59.9 97.3,59.2 L97.3,59.2 C97,58.9 96.4,58.9 96,59.1 L95,59.6 C94.1,60.1 93.9,61 94.8,61.7 L94.8,61.7 Z"></path>
                        <path d="M102.8,57.2 L102.8,57.2 C103.1,57.5 103.7,57.5 104.1,57.3 L105.1,56.8 C106.1,56.3 106.2,55.4 105.3,54.7 L105.3,54.7 C105,54.4 104.4,54.4 104,54.6 L103,55.1 C102.1,55.6 102,56.5 102.8,57.2 L102.8,57.2 Z"></path>
                        <path d="M59.1,69.7 L59.1,69.7 C59.4,70 60,70 60.4,69.8 L61.4,69.3 C62.4,68.8 62.5,67.9 61.6,67.2 L61.6,67.2 C61.3,66.9 60.7,66.9 60.3,67.1 L59.3,67.6 C58.3,68.1 58.2,69.1 59.1,69.7 L59.1,69.7 Z"></path>
                        <path d="M68,65.2 L68,65.2 C68.3,65.5 68.9,65.5 69.3,65.3 L70.3,64.8 C71.3,64.3 71.4,63.4 70.5,62.7 L70.5,62.7 C70.2,62.4 69.6,62.4 69.2,62.6 L68.2,63.1 C67.3,63.6 67.2,64.6 68,65.2 L68,65.2 Z"></path>
                        <path d="M76.9,60.8 L76.9,60.8 C77.2,61.1 77.8,61.1 78.2,60.9 L79.2,60.4 C80.2,59.9 80.3,59 79.4,58.3 L79.4,58.3 C79.1,58 78.5,58 78.1,58.2 L77.1,58.7 C76.2,59.2 76.1,60.1 76.9,60.8 L76.9,60.8 Z"></path>
                        <path d="M85.9,56.3 L85.9,56.3 C86.2,56.6 86.8,56.6 87.2,56.4 L88.2,55.9 C89.2,55.4 89.3,54.5 88.4,53.8 L88.4,53.8 C88.1,53.5 87.5,53.5 87.1,53.7 L86.1,54.2 C85.1,54.7 85,55.6 85.9,56.3 L85.9,56.3 Z"></path>
                        <path d="M93.9,51.8 L93.9,51.8 C94.2,52.1 94.8,52.1 95.2,51.9 L96.2,51.4 C97.2,50.9 97.3,50 96.4,49.3 L96.4,49.3 C96.1,49 95.5,49 95.1,49.2 L94.1,49.7 C93.2,50.2 93.1,51.1 93.9,51.8 L93.9,51.8 Z"></path>
                        <path d="M1,8.1 L1,8.1 C1.3,8.4 1.9,8.4 2.3,8.2 L3.3,7.7 C4.3,7.2 4.4,6.3 3.5,5.6 L3.5,5.6 C3.2,5.3 2.6,5.3 2.2,5.5 L1.2,6 C0.3,6.5 0.2,7.4 1,8.1 L1,8.1 Z"></path>
                        <path d="M7.3,3.6 L7.3,3.6 C7.6,3.9 8.2,3.9 8.6,3.7 L9.6,3.2 C10.6,2.7 10.7,1.8 9.8,1.1 L9.8,1.1 C9.5,0.8 8.9,0.8 8.5,1 L7.5,1.5 C6.5,2 6.4,3 7.3,3.6 L7.3,3.6 Z"></path>
                    </g>
                </g>
            </g>
        </g>
    </g>
</svg>