<?xml version="1.0" encoding="UTF-8" standalone="no"?>
<svg width="244px" height="197px" viewBox="0 0 244 197" version="1.1" xmlns="http://www.w3.org/2000/svg" xmlns:xlink="http://www.w3.org/1999/xlink">
    <!-- Generator: Sketch 3.6.1 (26313) - http://www.bohemiancoding.com/sketch -->
    <title>Group</title>
    <desc>Created with Sketch.</desc>
    <defs></defs>
    <g id="Page-1" stroke="none" stroke-width="1" fill="none" fill-rule="evenodd">
        <g id="gutter_guard_icon" transform="translate(-1080.000000, -331.000000)">
            <g id="Group" transform="translate(1080.000000, 330.000000)">
                <path d="M242.5,68 C242.2,69 241.9,70 241.4,70.9 C242.2,70.9 242.5,72.6 242,74.7 C241.8,75.5 241.7,75.8 241.3,76.5 C242,76.6 242.2,78.1 241.7,80.2 C241.5,81 241.4,81.5 241,82.2 C241.8,82.5 242.1,83.4 241.6,85.5 C241.4,86.3 241.4,86.6 240.8,87.4 C241.7,87.4 241.7,88.9 241.2,91 C241,91.8 240.8,92.5 240.5,93.2 C241.5,93.4 241.4,94.4 240.9,96.5 C240.7,97.3 240.4,98.1 240,98.8 C240.7,99.1 240.8,101.2 240.2,103.4 C239.6,105.5 238.6,107 237.9,106.8 C237.6,108.3 237.1,109.9 236.2,110.5 C236,110.6 235.6,110.9 235.5,111 C235.4,112.7 234.8,114.4 233.8,115.2 C233.5,115.5 233.1,115.7 232.8,115.6 C232.7,117.3 232,119.1 231,120 C230.7,122.4 229.4,124.9 228.1,125.6 C227.7,125.8 227.4,125.8 227,125.6 C226.9,125.5 226.9,125.4 226.8,125.3 L1.4,63.3 L1.3,63.4 C0.4,61.9 0.2,59.3 1,57.7 C1.1,57.4 1.3,57.1 1.5,56.9 C0.7,55.5 0.3,53.6 0.9,52.1 C1,51.9 1.2,51.6 1.3,51.4 C0.5,50 0.4,48 1,46.5 C1.1,46.3 1.4,46.4 1.5,46.3 C0.7,44.9 0.5,42.5 1.1,41 C1.2,40.7 1.4,40.4 1.6,40.2 C0.8,38.8 0.7,36.9 1.4,35.4 C1.5,35.1 1.7,34.8 1.9,34.6 C1.1,33.2 0.9,31.3 1.5,29.9 C1.7,29.5 2.1,29.5 2.4,29.3 C1.3,28.2 1.3,25 2.6,22.2 C3.4,20.4 3.9,19.4 4.9,19 L5.3,19.1 L5,19 C4.9,17.4 5.8,15.4 6.9,14.7 C7.3,14.5 7.3,14.6 7.7,14.7 C7.6,13.1 8.5,11.1 9.6,10.4 C10,10.2 9.8,10.2 10.2,10.3 C10.1,8.7 11,6.7 12.1,6 C12.5,5.8 12.9,5.7 13.3,5.8 C13.2,3.9 13.8,2.1 15.1,1.3 C15.6,1 16.1,0.9 16.6,1.1 L16.6,1.1 L241.9,63.1 L241.9,63.1 C242,63.1 242.2,63.2 242.3,63.2 C243.3,63.3 243.2,65.4 242.5,68 L242.5,68 Z" id="Shape" fill="#212121"></path>
                <path d="M238.6,68.3 C238.2,68.2 238.3,68.1 238,68.4 C236.8,69.1 236,71.1 236.1,72.7 C235.7,72.6 235.7,72.5 235.3,72.7 C234.1,73.4 233.3,75.1 233.4,76.7 C233,76.6 233,76.8 232.6,77 C231.4,77.7 230.7,79.7 230.8,81.3 C229.7,81.7 229,82.7 228.3,84.4 C227.1,87.2 226.8,90.3 227.9,91.4 C227.6,91.6 227.4,91.8 227.3,92.1 C226.7,93.6 226.7,95.7 227.7,96.8 C227.5,97 227.3,97.3 227.2,97.6 C226.6,99.1 226.6,101 227.4,102.4 C227.2,102.6 227,102.9 226.9,103.2 C226.3,104.7 226.3,106.7 227.2,108.1 C227,108.3 226.9,108.5 226.8,108.8 C226.2,110.3 226.2,112.3 227.1,113.7 C226.9,113.9 226.8,114.1 226.7,114.4 C226.1,115.9 226.3,118.6 227.3,119.2 C227.1,119.4 226.9,119.7 226.8,120 C226.1,121.6 226.2,124.8 227.3,125.9 C227.6,126.1 228,126.1 228.4,125.9 C229.7,125.3 231.1,122.7 231.3,120.3 C232.3,119.4 233,117.6 233.1,115.9 C233.4,116 233.8,115.7 234.1,115.5 C235.1,114.7 235.7,113 235.8,111.3 C236,111.3 236.3,110.9 236.5,110.8 C237.3,110.1 237.9,108.5 238.2,107.1 C238.9,107.2 239.9,105.7 240.5,103.7 C241.1,101.5 241.1,99.4 240.3,99.1 C240.7,98.4 241,97.6 241.2,96.8 C241.7,94.7 241.8,93.7 240.8,93.5 C241.2,92.8 241.3,92.1 241.5,91.3 C242,89.2 241.9,87.7 241.1,87.7 C241.6,86.9 241.7,86.6 241.9,85.8 C242.4,83.7 242.1,82.8 241.3,82.5 C241.7,81.8 241.8,81.3 242,80.5 C242.5,78.4 242.4,76.9 241.6,76.8 C242,76.1 242.1,75.8 242.3,75 C242.8,72.9 242.5,71.2 241.7,71.2 C242.2,70.3 242.6,69.3 242.8,68.3 C243.5,65.6 243.6,63.6 242.5,63.6 C242,63.4 241.5,63.4 241,63.8 C239.7,64.4 238.5,66.3 238.6,68.3 L238.6,68.3 L238.6,68.3 Z" id="Shape" stroke="#E0E4EB" fill="#212121"></path>
                <path d="M13.2,6.3 L238.3,68.2 L238.4,67.6 L13.3,5.7 L13.2,6.3 Z" id="Shape" fill="#E0E4EB"></path>
                <path d="M10.4,10.9 L235.5,72.8 L235.6,72.2 L10.5,10.3 L10.4,10.9 Z" id="Shape" fill="#E0E4EB"></path>
                <path d="M7.6,14.9 L233.2,76.9 L233.3,76.4 L7.6,14.3 L7.6,14.9 Z" id="Shape" fill="#E0E4EB"></path>
                <path d="M2.4,29.7 L227.4,91.6 L227.5,91.1 L2.4,29.2 L2.4,29.7 Z" id="Shape" fill="#E0E4EB"></path>
                <path d="M2,35.2 L227.1,97.1 L227.1,96.6 L2.1,34.7 L2,35.2 Z" id="Shape" fill="#E0E4EB"></path>
                <path d="M1.8,40.8 L226.9,102.7 L227,102.1 L1.9,40.2 L1.8,40.8 Z" id="Shape" fill="#E0E4EB"></path>
                <path d="M1.7,46.3 L226.8,108.2 L226.8,107.7 L1.7,45.8 L1.7,46.3 Z" id="Shape" fill="#E0E4EB"></path>
                <path d="M1.4,52.1 L226.7,114.1 L226.8,113.5 L1.5,51.6 L1.4,52.1 Z" id="Shape" fill="#E0E4EB"></path>
                <path d="M1.1,57.6 L226.8,119.7 L226.8,119.1 L1.2,57.1 L1.1,57.6 Z" id="Shape" fill="#E0E4EB"></path>
                <path d="M4.4,19.1 C4.4,19.4 4.5,19.6 4.7,19.7 L230.6,81.8 C230.8,81.9 231,81.7 231,81.4 C231,81.1 230.9,80.9 230.7,80.8 L4.8,18.7 C4.6,18.6 4.5,18.8 4.4,19.1 L4.4,19.1 Z" id="Shape" fill="#E0E4EB"></path>
                <g transform="translate(226.000000, 69.000000)" id="Shape" fill="#E0E4EB">
                    <path d="M10.8,1.4 L15.6,2.6 L15.7,2 L10.9,0.8 L10.8,1.4 Z"></path>
                    <path d="M8.2,5.8 L14.8,7.5 L14.9,7 L8.2,5.3 L8.2,5.8 Z"></path>
                    <path d="M4.9,11.1 L14.5,13.6 L14.6,13 L5,10.6 L4.9,11.1 Z"></path>
                    <path d="M2.3,15.7 L14.4,18.9 L14.5,18.3 L2.4,15.2 L2.3,15.7 Z"></path>
                    <path d="M1.2,21 L14.2,24.4 L14.3,23.9 L1.2,20.5 L1.2,21 Z"></path>
                    <path d="M1,26.6 L13.9,29.9 L14,29.4 L1.1,26 L1,26.6 Z"></path>
                    <path d="M0.4,35.1 L11.5,38 L11.6,37.4 L0.5,34.5 L0.4,35.1 Z"></path>
                    <path d="M0.6,40.1 L9,42.3 L9.1,41.8 L0.7,39.6 L0.6,40.1 Z"></path>
                    <path d="M0.5,45.4 L6.6,47 L6.6,46.5 L0.6,44.9 L0.5,45.4 Z"></path>
                    <path d="M1,51.1 L4.3,52 L4.4,50.9 L1.1,50.1 L1,51.1 Z"></path>
                </g>
                <path d="M55.3,30 L56.5,34 L61.1,74.6 L61.2,74.6 C61.2,75 61.2,76.6 63.8,77.2 L64,77.2 L63.1,77.4 C63.1,77.4 62.2,98.8 63.4,101 C64.6,103.2 66.3,103.7 66.3,103.7 L66.3,103.7 C66.3,103.7 65.1,105.6 64.9,107.1 C64.7,108.6 66.8,115.7 67.7,117.5 C68.6,119.4 68.9,126.3 69.6,127.9 C70.3,129.6 72.2,129.6 72.9,128.7 L72.6,129.5 C72.6,129.5 76.1,141 78.5,144.3 C80.9,147.7 83.2,150.5 83.9,151.4 C84.6,152.2 87,153.8 87.9,152.9 C87.9,152.9 96.4,161.8 98.1,163.9 C99.8,165.9 102.6,169.6 104.3,170.1 C106,170.6 106.6,170.3 106.9,169.6 L107.2,168.9 L144.4,196.9 C144.4,196.9 149,198.2 151.9,196.4 C154.8,194.6 154.3,192.2 154.3,192.2 L154.4,191.8 C154.4,191.8 157,192.8 159.9,190.9 C162.8,189.1 164,186.4 164,186.4 L164.2,186.5 C164.2,186.5 166.8,187.5 169.7,185.6 C172.2,184.1 172.2,182.2 172.1,181.6 C172.1,181.6 174.7,182.7 177.4,181.1 C180.1,179.5 178.9,178.3 178.9,178.3 L178.8,177.5 C178.8,177.5 181.6,179.3 184.4,177.8 C187.1,176.2 186.5,174 186.5,174 L186.5,174 C186.5,174 189.2,175.1 192,173.6 C194.8,172.1 193.7,169.5 193.7,169.5 C194.2,169.6 195.7,169.6 196.1,167.8 C196.5,165.6 194.7,163.5 194.7,163.5 L195.7,163.8 C195.7,163.8 197.7,164.3 198.2,162.1 C198.7,159.9 197,157.9 197,157.9 L197,157.6 C197,157.6 199,158.1 199.5,155.9 C200,153.7 198.3,151.7 198.3,151.7 L198.3,151.4 C198.3,151.4 200.3,151.9 200.8,149.7 C201.3,147.5 199.6,145.5 199.6,145.5 L199.1,144.8 L161.3,116 L161.4,115.9 L161,115.7 L160.2,115.1 C160.3,115 160.7,114.5 160.5,113.8 C160.3,113 158.8,112.5 157.9,111.6 C157.1,110.8 152.1,107.9 151.3,107.5 C151.5,107 151.6,104.4 150.6,103 C149.4,101.3 143.3,97.4 142.1,94.4 C142.1,94.4 142.4,92.7 141.9,91.4 C141.4,90.1 140,89 138.8,88.2 C137.6,87.4 135.2,80.1 135.2,80.1 L134,80.3 C134,80.3 136.8,78.6 136.4,77.1 C136.1,75.6 135,71.2 134.8,69.4 C134.6,67.8 133.9,63.6 133.8,62.7 C133.9,62.5 134,62.3 134.1,62.1 L134.5,62 L134.4,60.9 L134.4,60.5 L134.3,60.5 L129.6,16.1 L129.2,13.9 C129.2,13.9 128.3,11.6 126.2,10.7 C124.1,9.9 123.4,11.7 123.4,11.7 L123.1,11.6 C123.1,11.6 122.2,9.3 120.1,8.4 C118,7.6 117.3,9.4 117.3,9.4 L117,9.3 C117,9.3 116.1,7 114,6.1 C111.9,5.3 111.2,7.1 111.2,7.1 L110.9,8.1 C110.9,8.1 110,5.6 107.9,4.7 C106.2,4 105.4,5.1 105.2,5.6 C105.2,5.6 103.6,3.4 100.8,4.7 C98,6 97.5,8.7 97.5,8.7 L97.5,8.7 C97.5,8.7 95.9,7.1 93.1,8.3 C90.3,9.5 90.4,12.7 90.4,12.7 L89.8,12.2 C89.8,12.2 89.4,10.6 86.6,11.8 C83.8,13 83.3,15.6 83.3,15.6 C82.8,15.3 81.2,14.3 78.6,15.3 C75.5,16.5 74.9,19 74.9,19 L74.9,19.2 C74.9,19.2 72,18.7 68.9,19.9 C65.8,21.1 65.2,23.6 65.2,23.6 L64.8,23.5 C64.8,23.5 63.1,21.9 59.9,23.1 C56.8,24.3 55.5,28.6 55.5,28.6 L55.5,28.6 L55.3,30 L55.3,30 Z" id="Shape" stroke="#FFFFFF" stroke-width="0.1"></path>
                <path d="M56.1,28.5 C56.1,28.5 57.4,24.3 60.5,23 C63.6,21.8 65.4,23.4 65.4,23.4 L65.8,23.5 C65.8,23.5 66.3,21 69.5,19.8 C72.6,18.6 75.5,19.1 75.5,19.1 L75.5,18.9 C75.5,18.9 76,16.4 79.2,15.2 C81.8,14.2 83.5,15.2 83.9,15.5 C83.9,15.5 84.4,13 87.2,11.7 C90,10.5 90.4,12.1 90.4,12.1 L91,12.6 C91,12.6 90.9,9.5 93.7,8.2 C96.5,7 98.1,8.6 98.1,8.6 L98.1,8.6 C98.1,8.6 98.6,5.9 101.4,4.6 C104.2,3.3 105.8,5.5 105.8,5.5 C106,5 106.8,3.9 108.5,4.6 C110.6,5.5 111.5,8 111.5,8 L111.8,7 C111.8,7 112.5,5.2 114.6,6 C116.7,6.8 117.6,9.2 117.6,9.2 L117.9,9.3 C117.9,9.3 118.6,7.5 120.7,8.3 C122.8,9.1 123.7,11.5 123.7,11.5 L124,11.6 C124,11.6 124.7,9.8 126.8,10.6 C128.9,11.4 129.8,13.8 129.8,13.8 L130.2,16 L134.9,60.4 L135,60.4 L135,60.8 L135.1,61.9 L134.7,62 C134.6,62.2 134.5,62.4 134.4,62.6 C134.6,63.5 135.3,67.7 135.4,69.3 C135.6,71.2 136.6,75.5 137,77 C137.3,78.5 134.6,80.2 134.6,80.2 L135.8,80 C135.8,80 138.2,87.2 139.4,88.1 C140.6,88.9 142,90 142.5,91.3 C143,92.6 142.7,94.3 142.7,94.3 C143.9,97.3 150,101.2 151.2,102.9 C152.2,104.2 152,106.8 151.9,107.4 C152.7,107.9 157.7,110.8 158.5,111.5 C159.4,112.3 160.9,112.8 161.1,113.7 C161.2,114.4 160.9,114.9 160.8,115 L161.6,115.6 C161.9,115.7 162,115.8 162,115.8 L161.9,115.9 L199.7,144.7 L200.2,145.4 C200.2,145.4 201.8,147.4 201.4,149.6 C200.9,151.8 198.9,151.3 198.9,151.3 L198.9,151.6 C198.9,151.6 200.5,153.6 200.1,155.8 C199.6,158 197.6,157.5 197.6,157.5 L197.6,157.8 C197.6,157.8 199.2,159.8 198.8,162 C198.3,164.2 196.3,163.7 196.3,163.7 L195.3,163.4 C195.3,163.4 197.1,165.5 196.7,167.7 C196.4,169.5 194.9,169.5 194.3,169.4 C194.3,169.4 195.4,171.9 192.6,173.5 C189.8,175 187.1,173.9 187.1,173.9 L187.1,173.9 C187.1,173.9 187.7,176.1 185,177.7 C182.3,179.3 179.4,177.4 179.4,177.4 L179.5,178.2 C179.5,178.2 180.8,179.5 178,181 C175.3,182.6 172.7,181.5 172.7,181.5 C172.8,182.1 172.7,183.9 170.3,185.5 C167.4,187.3 164.8,186.4 164.8,186.4 L164.6,186.3 C164.6,186.3 163.4,188.9 160.5,190.8 C157.6,192.6 155,191.7 155,191.7 L154.9,192.1 C154.9,192.1 155.4,194.4 152.5,196.3 C149.6,198.1 145,196.8 145,196.8 L107.8,168.8 C107.8,168.8 107.8,168.8 107.5,169.5 C107.2,170.2 106.6,170.5 104.9,170 C103.2,169.5 100.4,165.8 98.7,163.8 C97,161.8 88.5,152.8 88.5,152.8 C87.6,153.6 85.2,152.1 84.5,151.3 C83.8,150.5 81.5,147.6 79.1,144.2 C76.7,140.8 73.2,129.4 73.2,129.4 L73.5,128.6 C72.8,129.4 70.9,129.4 70.2,127.8 C69.5,126.1 69.2,119.2 68.3,117.4 C67.4,115.5 65.3,108.5 65.5,107 C65.7,105.5 66.9,103.6 66.9,103.6 L66.9,103.6 C66.9,103.6 65.2,103.1 64,100.9 C62.8,98.7 63.7,77.3 63.7,77.3 L64.6,77.1 L64.4,77.1 C61.8,76.5 61.7,74.9 61.8,74.5 L61.7,74.5 L56.7,30.9 L56.1,28.5 L56.1,28.5 Z" id="Shape" fill="#212121"></path>
                <path d="M199.5,145 C198.4,144.1 196.9,144.4 196,144.5 C195.4,144.6 194.4,144.8 193.3,145.6 C191.4,147 191.6,148.6 190.1,149.1 C189.2,149.4 189,148.8 187.6,148.9 C185.9,149 183.9,150 182.8,151.6 C181.9,152.9 181.9,154.4 181.2,154.4 C180.9,154.4 180.7,154 180.1,153.8 C179.6,153.6 179.1,153.7 178.7,153.8 C176.2,154.3 175,154.5 174.4,155.1 C173,156.3 173.5,157.7 172.1,158.5 C171.4,158.9 171.2,158.6 169.8,158.9 C169.3,159 166.4,159.6 165,161.8 C164.4,162.8 164.5,163.4 163.9,163.8 C163.2,164.2 162.6,163.8 161.5,163.7 C159.9,163.6 158.3,164.3 157.4,165 C156,166.2 156.5,167.1 154.7,168.9 C153.9,169.7 153.7,169.6 152.5,170.7 C151.3,171.9 150.6,172.5 150.3,173.4 C149.8,175 150.7,175.8 150.1,176.9 C149.6,177.8 148.9,177.5 148.4,178.3 C147.5,179.8 149.3,181.6 148.4,183.2 C148.2,183.6 148.1,183.4 147.5,184.1 C147.2,184.5 146,186.1 145.9,188.1 C145.9,189.1 146.1,190.4 146.1,190.4 L146.1,190.4 C143.9,191.6 143.2,192.7 143.2,192.7 C142.5,193.7 142.2,195.3 142.9,196.1 C143.1,196.3 143.2,196.4 144.4,196.8 C146.3,197.5 146.1,197.5 146.4,197.6 C148.4,198.2 150.2,197.3 150.8,197 C151.6,196.6 152.7,196.1 153.4,195 C154.4,193.5 154.1,191.9 154.9,191.7 C155.3,191.6 155.5,191.9 156,192.2 C157.8,192.9 160.1,191.1 160.9,190.4 C162.7,189 164.1,186.9 164.1,186.9 L164.1,186.9 C164.1,186.9 165.7,187.1 166.6,187.1 C168.7,187.1 170.9,185.8 171.6,184.4 C171.9,183.7 172.2,182.5 172.2,182.2 L172.2,181.9 C172.2,181.6 172.1,181.5 172.2,181.4 C172.3,181.3 173,182 173.9,182.2 C175,182.5 176.2,181.8 177.5,181 C178.1,180.6 178.4,180.5 178.6,180.2 C179.6,179 178.3,177.1 178.9,177.6 C180.1,178.6 183.4,178.4 185.1,177.4 C186.7,176.4 185.9,173.7 186.6,173.5 C187,173.4 187.2,174 188,174.4 C189.6,175.3 192.8,173.8 193.9,172 C194.1,171.7 194.5,171.2 194,170.1 C193.9,169.9 193.8,169.7 193.9,169.5 C194.1,169.3 194.7,169.8 195.3,169.6 C196.2,169.3 196.3,167.4 196.3,167 C196.3,167 196.4,165.7 195.9,164.4 C195.9,164.4 195.9,164.4 195.9,164.3 C195.6,163.6 195.4,163.4 195.4,163.3 C195.5,163.2 196.3,164 197.1,163.9 C198.1,163.7 199,162 198.8,160.5 C198.8,160.3 198.6,158.7 197.7,158.1 C197.6,158.1 197.5,158 197.5,157.9 C197.5,157.6 198.8,157.9 199.5,157.2 C200.1,156.6 200.1,155.7 200.1,155 C200.1,154.6 200.1,153.1 199,152 C198.7,151.7 198.4,151.5 198.5,151.4 C198.6,151.2 199.4,151.6 200.1,151.3 C200.9,151 201.5,149.9 201.6,149.1 C201.7,148.1 201.3,147.4 200.6,146.2 C200.1,145.7 199.9,145.3 199.5,145 L199.5,145 Z" id="Shape" fill="#212121"></path>
                <path d="M56.8,32.3 C57.8,33.3 59.3,33.1 59.5,33.1 C61,33 61.6,31.9 62.4,32.3 C63,32.5 65.1,34.4 65.6,35 C67.3,36.8 68.9,33.1 70.6,34.9 C70.9,35.2 70.8,35.3 71.3,35.8 C72,36.6 72.6,37.4 73.7,37.6 C75.1,37.9 76.5,37 76.8,36.5 C76.8,36.5 76.8,36.4 76.9,36.4 C77.3,36.3 77.7,38.2 78.8,38.9 C80.2,39.8 81.6,38.1 85.3,38.1 L86.7,38.1 C88.4,38.1 89.4,38 90.1,37.9 C92.9,37.2 93.2,33.7 95.5,33.7 C96.1,33.7 96,33.9 96.9,33.9 C98.7,34 100.1,33.1 100.3,33 C102.1,31.8 102,30.4 103.2,30.2 C104,30.1 104.1,30.7 105.2,30.9 C107.1,31.3 109.6,30.2 110.9,28.4 C111.7,27.2 111.6,26.3 112.6,25.8 C113.2,25.5 113.6,25.7 114.5,25.8 C114.7,25.8 118,26.1 120,24.2 C121.1,23.2 120.9,22.4 121.9,21.9 C123,21.4 123.7,21.8 124.8,21.8 C127.1,21.7 129.9,20.3 130.1,17.3 C130.4,13.8 127.2,10.4 125.3,10.8 C124.5,11 124.3,12.1 123.5,11.8 C122.7,11.6 122.5,9.8 121.5,9.1 C120.7,8.5 119.5,8.2 118.6,8.6 C117.9,8.9 117.8,9.5 117.5,9.4 C116.9,9.3 116.6,8.1 115.6,6.9 C114.4,5.6 113.2,5.6 112.3,6.4 C111.8,6.9 111.7,8.2 111.4,8.2 C111.1,8.2 110.6,6.7 109.9,5.9 C109.3,5.2 108.2,4.1 107.2,4.3 C106.3,4.6 106.2,5.4 105.5,5.5 C104.6,5.6 105.3,5.1 104.3,4.7 C102.9,4.2 100.5,4.5 99.5,6 C98.5,7.5 98.4,9.1 97.7,9.3 C97.2,9.5 96.9,8.6 95.7,8.1 C94.6,7.7 93.2,7.9 92.3,8.7 C91.5,9.4 91.2,10.5 91.2,10.8 C91,11.9 91.2,12.7 91,12.8 C90.8,12.9 90.6,12 89.9,11.6 C89.7,11.5 89.3,11.4 88.2,11.6 C86.7,11.9 85.6,12.2 84.9,13.1 C84.1,14.2 84.5,15.5 83.9,15.7 C83.4,15.9 83.8,15.4 82.9,15.1 C80.7,14.3 79,15.3 76.8,16.5 C75.1,17.4 75.9,19.8 74.9,20 C74.4,20.1 74.2,19.7 73.3,19.4 C71.5,18.9 69.5,19.9 68.3,20.9 C66.9,22.1 67,23.1 65.9,23.5 C64.8,23.8 64.4,23 62.8,22.9 C60.7,22.8 59,24 58.4,24.5 C57.8,25 56,26.4 55.7,28.5 C55.6,29.2 55.7,29.8 55.7,29.9 C55.8,30.4 56,31.5 56.8,32.3 L56.8,32.3 Z" id="Shape" fill="#212121"></path>
                <g transform="translate(146.000000, 146.000000)" id="Shape" fill="#E0E4EB">
                    <path d="M0.7,39.4 C0.6,39.6 0.6,39.8 0.8,39.9 L8.8,46.1 C9,46.2 9.2,46.2 9.3,46 C9.4,45.8 9.4,45.6 9.2,45.5 L1.2,39.3 C1.1,39.2 0.9,39.2 0.7,39.4 L0.7,39.4 Z"></path>
                    <path d="M5.3,30.5 C5.2,30.7 5.2,30.9 5.4,31 L18.2,41.1 C18.4,41.2 18.6,41.2 18.7,41 C18.8,40.8 18.8,40.6 18.6,40.5 L5.8,30.4 C5.7,30.3 5.4,30.3 5.3,30.5 L5.3,30.5 Z"></path>
                    <path d="M9.9,22.8 C9.8,23 9.8,23.2 10,23.3 L25.7,35.5 C25.9,35.6 26.1,35.6 26.2,35.4 C26.3,35.2 26.3,35 26.1,34.9 L10.4,22.7 C10.3,22.7 10.1,22.7 9.9,22.8 L9.9,22.8 Z"></path>
                    <path d="M15.5,17.7 C15.4,17.9 15.4,18.1 15.6,18.2 L32.3,31.5 C32.5,31.6 32.7,31.6 32.8,31.4 C32.9,31.2 32.9,31 32.7,30.9 L16,17.7 C15.8,17.5 15.6,17.5 15.5,17.7 L15.5,17.7 Z"></path>
                    <path d="M22.5,13.7 C22.4,13.9 22.4,14.1 22.6,14.2 L40.8,28.2 C41,28.3 41.2,28.3 41.3,28.1 C41.4,27.9 41.4,27.7 41.2,27.6 L23,13.6 C22.9,13.5 22.6,13.6 22.5,13.7 L22.5,13.7 Z"></path>
                    <path d="M29.1,8.7 C29,8.9 29,9.1 29.2,9.2 L47.6,23.5 C47.8,23.6 48,23.6 48.1,23.4 C48.2,23.2 48.2,23 48,22.9 L29.6,8.6 C29.5,8.5 29.3,8.5 29.1,8.7 L29.1,8.7 Z"></path>
                    <path d="M36,7.6 C35.9,7.8 35.9,8 36.1,8.1 L48.8,18.1 C49,18.2 49.2,18.2 49.3,18 C49.4,17.8 49.4,17.6 49.2,17.5 L36.5,7.5 C36.4,7.4 36.1,7.4 36,7.6 L36,7.6 Z"></path>
                    <path d="M39.8,3.1 C39.7,3.3 39.7,3.5 39.9,3.6 L51.2,12.1 C51.4,12.2 51.6,12.2 51.7,12 C51.8,11.8 51.8,11.6 51.6,11.5 L40.3,3 C40.2,2.9 39.9,2.9 39.8,3.1 L39.8,3.1 Z"></path>
                    <path d="M45.8,0.4 C45.7,0.6 45.7,0.8 45.9,0.9 L52.6,5.9 C52.8,6 53,6 53.1,5.8 C53.2,5.6 53.2,5.4 53,5.3 L46.3,0.3 C46.1,0.2 45.9,0.2 45.8,0.4 L45.8,0.4 Z"></path>
                </g>
                <path d="M109.3,161.8 C109.2,162 109.2,162.2 109.4,162.3 L145.4,191 C145.6,191.1 145.8,191.1 145.9,190.9 C146,190.7 146,190.5 145.8,190.4 L109.8,161.7 C109.6,161.6 109.4,161.6 109.3,161.8 L109.3,161.8 Z" id="Shape" fill="#E0E4EB"></path>
                <path d="M110.8,154 C110.7,154.2 110.7,154.4 110.9,154.5 L147.2,183.5 C147.4,183.6 147.6,183.6 147.7,183.5 C147.8,183.3 147.8,183.1 147.6,183 L111.3,154 C111.2,153.8 110.9,153.8 110.8,154 L110.8,154 Z" id="Shape" fill="#E0E4EB"></path>
                <path d="M112.8,147.9 C112.7,148.1 112.7,148.3 112.9,148.4 L149,176.7 C149.2,176.8 149.4,176.8 149.5,176.6 C149.6,176.4 149.6,176.2 149.4,176.1 L113.3,147.8 C113.1,147.7 112.9,147.8 112.8,147.9 L112.8,147.9 Z" id="Shape" fill="#E0E4EB"></path>
                <path d="M117.8,140.2 C117.7,140.4 117.7,140.6 117.9,140.7 L154.2,168 C154.4,168.1 154.6,168.1 154.7,167.9 C154.8,167.7 154.8,167.5 154.6,167.4 L118.3,140.1 C118.2,140 117.9,140 117.8,140.2 L117.8,140.2 Z" id="Shape" fill="#E0E4EB"></path>
                <path d="M129.9,137 C129.8,137.2 129.8,137.4 130,137.5 L162.9,162.7 C163.1,162.8 163.3,162.8 163.4,162.6 C163.5,162.4 163.5,162.2 163.3,162.1 L130.4,136.9 C130.3,136.8 130,136.8 129.9,137 L129.9,137 Z" id="Shape" fill="#E0E4EB"></path>
                <path d="M136.3,130.6 C136.2,130.8 136.2,131 136.4,131.1 L171.2,158.6 C171.4,158.7 171.6,158.7 171.7,158.5 C171.8,158.3 171.8,158.1 171.6,158 L136.8,130.5 C136.6,130.4 136.4,130.5 136.3,130.6 L136.3,130.6 Z" id="Shape" fill="#E0E4EB"></path>
                <path d="M145.4,126.7 C145.3,126.9 145.3,127.1 145.5,127.2 L180.5,154.4 C180.7,154.5 180.9,154.5 181,154.3 C181.1,154.1 181.1,153.9 180.9,153.8 L145.9,126.6 C145.8,126.5 145.5,126.5 145.4,126.7 L145.4,126.7 Z" id="Shape" fill="#E0E4EB"></path>
                <path d="M154,121.1 C153.9,121.3 153.9,121.5 154.1,121.6 L188.8,148.8 C189,148.9 189.2,148.9 189.3,148.7 C189.4,148.5 189.4,148.3 189.2,148.2 L154.5,121 C154.4,120.9 154.2,120.9 154,121.1 L154,121.1 Z" id="Shape" fill="#E0E4EB"></path>
                <path d="M62,32.3 C61.8,32.3 61.6,32.5 61.7,32.7 L67.2,75.7 C67.2,75.9 67.4,76 67.6,76 C67.8,76 68,75.8 67.9,75.6 L62.4,32.6 C62.4,32.4 62.2,32.3 62,32.3 L62,32.3 Z" id="Shape" fill="#E0E4EB"></path>
                <path d="M69.4,35 C69.2,35 69,35.2 69.1,35.4 L74.8,78.8 C74.8,79 75,79.1 75.2,79.1 C75.4,79.1 75.6,78.9 75.5,78.7 L69.8,35.3 C69.8,35.1 69.6,35 69.4,35 L69.4,35 Z" id="Shape" fill="#E0E4EB"></path>
                <path d="M76.2,37.3 C76,37.3 75.8,37.5 75.9,37.7 L81,80.5 C81,80.7 81.2,80.8 81.4,80.8 C81.6,80.8 81.8,80.6 81.7,80.4 L76.6,37.6 C76.6,37.4 76.4,37.3 76.2,37.3 L76.2,37.3 Z" id="Shape" fill="#E0E4EB"></path>
                <path d="M86.5,38 C86.3,38 86.1,38.2 86.2,38.4 L90.4,80.9 C90.4,81.1 90.6,81.2 90.8,81.2 C91,81.2 91.2,81 91.1,80.8 L86.9,38.3 C86.9,38.2 86.7,38 86.5,38 L86.5,38 Z" id="Shape" fill="#E0E4EB"></path>
                <path d="M95.7,34.3 C95.5,34.3 95.3,34.5 95.4,34.7 L99.6,73.4 C99.6,73.6 99.8,73.7 100,73.7 C100.2,73.7 100.4,73.5 100.3,73.3 L96.1,34.6 C96.1,34.4 95.9,34.3 95.7,34.3 L95.7,34.3 Z" id="Shape" fill="#E0E4EB"></path>
                <path d="M103.6,30.2 C103.4,30.2 103.2,30.4 103.3,30.6 L108.4,72 C108.4,72.2 108.6,72.3 108.8,72.3 C109,72.3 109.2,72.1 109.1,71.9 L104,30.5 C104,30.3 103.8,30.2 103.6,30.2 L103.6,30.2 Z" id="Shape" fill="#E0E4EB"></path>
                <path d="M112.2,25.4 C112,25.4 111.8,25.6 111.9,25.8 L116.7,67.2 C116.7,67.4 116.9,67.5 117.1,67.5 C117.3,67.5 117.5,67.3 117.4,67.1 L112.6,25.7 C112.6,25.5 112.4,25.3 112.2,25.4 L112.2,25.4 Z" id="Shape" fill="#E0E4EB"></path>
                <path d="M121.4,22 C121.2,22 121,22.2 121.1,22.4 L126.1,63.6 C126.1,63.8 126.3,63.9 126.5,63.9 C126.7,63.9 126.9,63.7 126.8,63.5 L121.8,22.3 C121.8,22.1 121.6,22 121.4,22 L121.4,22 Z" id="Shape" fill="#E0E4EB"></path>
                <path d="M69.2,79.9 C69,79.9 68.8,80.1 68.9,80.3 L70.6,99.7 C70.6,99.9 70.8,100.1 71,100 C71.2,100 71.4,99.8 71.3,99.6 L69.6,80.2 C69.6,80.1 69.4,79.9 69.2,79.9 L69.2,79.9 Z" id="Shape" fill="#E0E4EB"></path>
                <path d="M75.4,81.6 C75.2,81.6 75,81.8 75.1,82 L76.3,96.2 C76.3,96.4 76.5,96.6 76.7,96.5 C76.9,96.5 77.1,96.3 77,96.1 L75.8,81.9 C75.8,81.7 75.7,81.6 75.4,81.6 L75.4,81.6 Z" id="Shape" fill="#E0E4EB"></path>
                <path d="M80,81.4 C79.8,81.4 79.6,81.6 79.7,81.8 L81.4,98 C81.4,98.2 81.6,98.3 81.8,98.3 C82,98.3 82.2,98.1 82.1,97.9 L80.4,81.7 C80.3,81.6 80.2,81.4 80,81.4 L80,81.4 Z" id="Shape" fill="#E0E4EB"></path>
                <path d="M95,82 C94.8,82 94.7,82.2 94.7,82.4 L96.4,91.8 C96.4,92 96.6,92.1 96.8,92.1 C97,92.1 97.1,91.9 97.1,91.7 L95.4,82.3 C95.4,82.1 95.2,81.9 95,82 L95,82 Z" id="Shape" fill="#E0E4EB"></path>
                <path d="M103,78.4 C102.8,78.4 102.7,78.6 102.7,78.8 L105.3,89.2 C105.3,89.4 105.6,89.5 105.8,89.5 C106,89.5 106.1,89.3 106.1,89.1 L103.5,78.7 C103.4,78.5 103.2,78.4 103,78.4 L103,78.4 Z" id="Shape" fill="#E0E4EB"></path>
                <path d="M109.8,74.4 C109.6,74.4 109.5,74.6 109.5,74.8 L111.9,85.9 C111.9,86.1 112.1,86.2 112.3,86.2 C112.5,86.2 112.6,86 112.6,85.8 L110.2,74.7 C110.2,74.5 110,74.3 109.8,74.4 L109.8,74.4 Z" id="Shape" fill="#E0E4EB"></path>
                <path d="M116.8,70 C116.6,70.1 116.6,70.3 116.7,70.5 C117.1,71.1 118.3,78.4 119.1,82.8 C119.1,83 119.3,83.1 119.5,83.1 C119.7,83.1 119.8,82.9 119.8,82.7 C119.5,80.7 117.9,71 117.3,70.1 C117.2,70 116.9,69.9 116.8,70 L116.8,70 Z" id="Shape" fill="#E0E4EB"></path>
                <path d="M125.6,67.8 C125.4,67.8 125.3,68 125.3,68.2 L127,79 C127,79.2 127.2,79.3 127.4,79.3 C127.6,79.3 127.7,79.1 127.7,78.9 L126,68.1 C126,67.9 125.8,67.8 125.6,67.8 L125.6,67.8 Z" id="Shape" fill="#E0E4EB"></path>
                <path d="M87.4,87.3 C87.2,87.3 87,87.5 87.1,87.7 C87.5,90.8 88.1,95.6 88.1,96.1 C88.1,96.3 88.3,96.5 88.5,96.5 C88.7,96.5 88.9,96.3 88.9,96.1 C88.9,95.4 88,88.4 87.9,87.6 C87.8,87.5 87.6,87.3 87.4,87.3 L87.4,87.3 Z" id="Shape" fill="#E0E4EB"></path>
                <path d="M71.4,103.9 C71.2,103.9 71.1,104.1 71.1,104.3 L75.6,123.2 C75.6,123.4 75.9,123.5 76.1,123.5 C76.3,123.5 76.4,123.3 76.4,123.1 L71.9,104.2 C71.8,103.9 71.6,103.8 71.4,103.9 L71.4,103.9 Z" id="Shape" fill="#E0E4EB"></path>
                <path d="M76.9,102.7 C76.7,102.8 76.6,103 76.6,103.2 L81.6,119.7 C81.7,119.9 81.9,120 82.1,119.9 C82.3,119.8 82.4,119.6 82.4,119.4 L77.4,102.9 C77.3,102.7 77.1,102.6 76.9,102.7 L76.9,102.7 Z" id="Shape" fill="#E0E4EB"></path>
                <path d="M81.8,101.5 C81.6,101.6 81.5,101.8 81.6,102 L87.2,115.6 C87.3,115.8 87.5,115.9 87.7,115.8 C87.9,115.7 88,115.5 87.9,115.3 L82.3,101.7 C82.2,101.5 82,101.4 81.8,101.5 L81.8,101.5 Z" id="Shape" fill="#E0E4EB"></path>
                <path d="M96.2,97.1 C96,97.2 95.9,97.4 96,97.6 L99.8,107.7 C99.9,107.9 100.1,108 100.3,107.9 C100.5,107.8 100.6,107.6 100.5,107.4 L96.7,97.3 C96.6,97.2 96.4,97.1 96.2,97.1 L96.2,97.1 Z" id="Shape" fill="#E0E4EB"></path>
                <path d="M103.8,94.6 C103.6,94.7 103.5,94.9 103.6,95.1 L107.8,104.9 C107.9,105.1 108.1,105.2 108.3,105.1 C108.5,105 108.6,104.8 108.5,104.6 L104.3,94.8 C104.2,94.6 104,94.5 103.8,94.6 L103.8,94.6 Z" id="Shape" fill="#E0E4EB"></path>
                <path d="M110.9,91.2 C110.7,91.3 110.6,91.5 110.7,91.7 L115,101.3 C115.1,101.5 115.3,101.6 115.5,101.5 C115.7,101.4 115.8,101.2 115.7,101 L111.4,91.4 C111.3,91.3 111.1,91.2 110.9,91.2 L110.9,91.2 Z" id="Shape" fill="#E0E4EB"></path>
                <path d="M118.9,87 C118.7,87.1 118.6,87.3 118.7,87.5 L124.1,98.8 C124.2,99 124.4,99.1 124.6,99 C124.8,98.9 124.9,98.7 124.8,98.5 L119.4,87.2 C119.3,87 119.1,87 118.9,87 L118.9,87 Z" id="Shape" fill="#E0E4EB"></path>
                <path d="M127.3,83.2 C127.1,83.3 127.1,83.5 127.2,83.7 C129.6,87 133.6,92.5 133.7,93.2 C133.8,93.7 133.4,94.8 133,95.3 C132.9,95.5 133,95.7 133.1,95.8 C133.3,95.9 133.5,95.8 133.6,95.7 C133.7,95.5 134.5,94 134.3,93.1 C134.1,92.2 128.7,84.8 127.6,83.4 C127.7,83.1 127.5,83.1 127.3,83.2 L127.3,83.2 Z" id="Shape" fill="#E0E4EB"></path>
                <path d="M76,128.8 C75.8,128.9 75.7,129.1 75.8,129.3 C76.1,129.9 82.8,142.8 84.2,144.7 L85.3,146.2 C86,147.3 86.5,148.1 87.4,148.3 C87.6,148.4 87.8,148.3 87.9,148.1 C88,147.9 87.9,147.7 87.7,147.6 C87.1,147.4 86.7,146.8 86,145.8 L84.9,144.2 C83.5,142.4 76.7,129.1 76.6,128.9 C76.4,128.8 76.2,128.7 76,128.8 L76,128.8 Z" id="Shape" fill="#E0E4EB"></path>
                <path d="M79.6,126.3 C79.4,126.4 79.4,126.6 79.5,126.8 C79.6,126.9 86.4,138.1 87.5,140.1 C87.9,140.8 88,141.5 88.2,142.1 C88.4,143.1 88.7,144.1 90,144 C90.2,144 90.4,143.8 90.3,143.6 C90.3,143.4 90.1,143.3 89.9,143.3 C89.3,143.4 89.2,143.1 88.9,142 C88.8,141.4 88.6,140.6 88.2,139.8 C87.2,137.8 80.5,126.9 80.2,126.5 C80,126.3 79.8,126.2 79.6,126.3 L79.6,126.3 Z" id="Shape" fill="#E0E4EB"></path>
                <path d="M84.5,122.9 C84.3,123 84.2,123.2 84.3,123.4 L92.3,137.9 C92.4,138.1 92.6,138.1 92.8,138.1 C93,138 93.1,137.8 93,137.6 L85,123.1 C84.9,122.9 84.7,122.8 84.5,122.9 L84.5,122.9 Z" id="Shape" fill="#E0E4EB"></path>
                <path d="M89.2,120.7 C89,120.8 88.9,121 89,121.2 C89.2,121.6 93.7,130.7 94.4,131.7 C94.6,132 94.7,132.5 94.9,133 C95.1,133.8 95.3,134.6 95.9,134.9 C96.2,135 96.5,135 96.9,134.8 C97.1,134.7 97.2,134.5 97.1,134.3 C97,134.1 96.8,134 96.6,134.1 C96.5,134.1 96.4,134.2 96.3,134.2 C96,134.1 95.9,133.4 95.7,132.8 C95.6,132.2 95.4,131.6 95.1,131.2 C94.6,130.4 91.4,124.1 89.7,120.8 C89.6,120.7 89.4,120.6 89.2,120.7 L89.2,120.7 Z" id="Shape" fill="#E0E4EB"></path>
                <path d="M101.5,112.5 C101.3,112.6 101.3,112.8 101.4,113 L108.5,125 C108.6,125.2 108.8,125.2 109,125.1 C109.2,125 109.2,124.8 109.1,124.6 L102,112.6 C101.9,112.5 101.7,112.4 101.5,112.5 L101.5,112.5 Z" id="Shape" fill="#E0E4EB"></path>
                <path d="M110.5,109.6 C110.3,109.7 110.3,109.9 110.4,110.1 L116,119 C116.1,119.2 116.3,119.2 116.5,119.1 C116.7,119 116.7,118.8 116.6,118.6 L111,109.7 C110.9,109.6 110.7,109.5 110.5,109.6 L110.5,109.6 Z" id="Shape" fill="#E0E4EB"></path>
                <path d="M119.4,107.1 C119.2,107.2 119.2,107.4 119.3,107.6 C119.9,108.6 123.2,113.6 124.3,114.1 C125.1,114.5 125.1,115.1 125.1,115.1 C125.1,115.3 125.3,115.5 125.5,115.5 C125.7,115.5 125.9,115.3 125.9,115.1 C125.9,115.1 125.9,114 124.7,113.4 C124,113.1 121.4,109.4 120,107.1 C119.8,107.1 119.5,107 119.4,107.1 L119.4,107.1 Z" id="Shape" fill="#E0E4EB"></path>
                <path d="M127.5,103.1 C127.3,103.2 127.3,103.4 127.4,103.6 C129.3,106.3 132.4,110.7 132.6,111.1 C132.7,111.3 132.5,112 132.3,112.3 C132.2,112.5 132.3,112.7 132.5,112.8 C132.7,112.9 132.9,112.8 133,112.6 C133.1,112.4 133.6,111.4 133.4,110.8 C133.2,110.3 129.3,104.8 128.1,103.1 C127.9,103 127.7,103 127.5,103.1 L127.5,103.1 Z" id="Shape" fill="#E0E4EB"></path>
                <path d="M135.1,100.7 C134.9,100.8 134.9,101 135,101.2 L138.6,106.1 C138.7,106.3 139,106.3 139.1,106.2 C139.3,106.1 139.3,105.9 139.2,105.7 L135.6,100.8 C135.5,100.6 135.3,100.6 135.1,100.7 L135.1,100.7 Z" id="Shape" fill="#E0E4EB"></path>
                <path d="M141,109.4 C140.9,109.6 140.9,109.8 141,109.9 C141.1,110 148.6,116.1 149.3,116.8 C150,117.5 150.5,118 150.1,118.9 C150,119.1 150.1,119.3 150.3,119.4 C150.5,119.5 150.7,119.4 150.8,119.2 C151.4,117.8 150.6,116.9 149.9,116.3 C149.2,115.6 141.9,109.6 141.5,109.4 C141.3,109.2 141.1,109.2 141,109.4 L141,109.4 Z" id="Shape" fill="#E0E4EB"></path>
                <path d="M133.5,113.9 C133.4,114 133.4,114.3 133.5,114.4 C136,116.6 140.8,121 141.4,121.9 C142.1,122.9 141.7,124.3 141.7,124.3 C141.6,124.5 141.7,124.7 141.9,124.8 C142.1,124.9 142.3,124.8 142.4,124.6 C142.4,124.5 143,122.9 142,121.6 C141.1,120.4 134.3,114.2 134,114 C133.9,113.8 133.7,113.8 133.5,113.9 L133.5,113.9 Z" id="Shape" fill="#E0E4EB"></path>
                <path d="M118.4,121.5 C118.3,121.7 118.3,121.9 118.5,122 C121.6,124.3 124.8,127.1 125,127.7 C125,127.9 125.2,128 125.4,128 C125.6,128 125.7,127.8 125.7,127.6 C125.5,126.5 120.5,122.6 119,121.5 C118.8,121.3 118.5,121.4 118.4,121.5 L118.4,121.5 Z" id="Shape" fill="#E0E4EB"></path>
                <path d="M125.4,118.8 C125.3,118.9 125.2,119.2 125.4,119.3 C125.6,119.5 130.6,124.5 132,125.7 C133.1,126.7 133.1,126.9 132.9,127.6 L132.9,127.7 C132.9,127.9 133,128.1 133.2,128.1 C133.4,128.1 133.6,128 133.6,127.8 L133.6,127.7 C133.8,126.8 133.8,126.3 132.4,125.1 C131,123.9 125.9,118.8 125.8,118.7 C125.8,118.6 125.5,118.6 125.4,118.8 L125.4,118.8 Z" id="Shape" fill="#E0E4EB"></path>
                <path d="M110.1,127.1 C110,127.3 110,127.5 110.2,127.6 L116.8,132.8 C117,132.9 117.2,132.9 117.3,132.7 C117.4,132.5 117.4,132.3 117.2,132.2 L110.6,127 C110.4,126.9 110.2,126.9 110.1,127.1 L110.1,127.1 Z" id="Shape" fill="#E0E4EB"></path>
                <path d="M100.4,137.1 C100.2,137.2 100.2,137.5 100.4,137.6 C102.5,139.8 109.4,146.8 110.7,147 C112,147.2 112.7,147 112.8,147 C113,147 113.1,146.8 113.1,146.6 C113.1,146.4 112.8,146.3 112.6,146.3 C112.6,146.3 111.9,146.4 110.8,146.3 C110.1,146.1 105.2,141.5 101,137.1 C100.8,137 100.5,137 100.4,137.1 L100.4,137.1 Z" id="Shape" fill="#E0E4EB"></path>
                <path d="M96.6,143.7 C96.5,143.8 96.5,144.1 96.6,144.2 C96.9,144.5 104.3,151.5 105.7,152.2 C107.1,152.9 109.7,153.4 109.8,153.4 C110,153.4 110.2,153.3 110.2,153.1 C110.2,152.9 110.1,152.7 109.9,152.7 C109.9,152.7 107.3,152.2 106,151.6 C104.9,151.1 99.2,145.7 97.1,143.7 C96.9,143.6 96.7,143.6 96.6,143.7 L96.6,143.7 Z" id="Shape" fill="#E0E4EB"></path>
                <path d="M94.8,148.8 C94.7,148.9 94.7,149.2 94.8,149.3 L106.1,160.2 C106.2,160.3 106.5,160.3 106.6,160.2 C106.7,160.1 106.7,159.8 106.6,159.7 L95.3,148.8 C95.2,148.6 95,148.6 94.8,148.8 L94.8,148.8 Z" id="Shape" fill="#E0E4EB"></path>
                <path d="M92.8,152.5 C92.6,152.6 92.6,152.9 92.7,153 C94,154.6 100.5,162.5 101.7,163.1 L105.2,164.5 C105,164.4 104.9,164.2 105,164 C105.1,163.8 105.3,163.7 105.5,163.8 L102,162.5 C101.2,162.2 96.2,156.3 93.3,152.7 C93.2,152.4 92.9,152.3 92.8,152.5 L92.8,152.5 Z" id="Shape" fill="#E0E4EB"></path>
                <g transform="translate(65.000000, 7.000000)" id="Shape" fill="#E0E4EB">
                    <path d="M1.1,17.5 C0.9,17.5 0.7,17.7 0.8,17.9 L1.9,27.4 C1.9,27.6 2.1,27.7 2.3,27.7 C2.5,27.7 2.7,27.5 2.6,27.3 L1.5,17.8 C1.5,17.6 1.3,17.5 1.1,17.5 L1.1,17.5 Z"></path>
                    <path d="M10.4,13 C10.2,13 10,13.2 10.1,13.4 L12,28.7 C12,28.9 12.2,29 12.4,29 C12.6,29 12.8,28.8 12.7,28.6 L10.8,13.3 C10.8,13.2 10.6,13 10.4,13 L10.4,13 Z"></path>
                    <path d="M19.1,10.3 C18.9,10.3 18.7,10.5 18.8,10.7 L21,29.3 C21,29.5 21.2,29.6 21.4,29.6 C21.6,29.6 21.8,29.4 21.7,29.2 L19.5,10.6 C19.5,10.5 19.3,10.3 19.1,10.3 L19.1,10.3 Z"></path>
                    <path d="M26.1,7.5 C25.9,7.5 25.7,7.7 25.8,7.9 L28.4,27.9 C28.4,28.1 28.6,28.2 28.8,28.2 C29,28.2 29.2,28 29.1,27.8 L26.5,7.8 C26.5,7.6 26.3,7.5 26.1,7.5 L26.1,7.5 Z"></path>
                    <path d="M33.4,2.8 C33.2,2.8 33,3 33.1,3.2 L35.5,24.7 C35.5,24.9 35.7,25 35.9,25 C36.1,25 36.3,24.8 36.2,24.6 L33.8,3.1 C33.8,2.9 33.6,2.8 33.4,2.8 L33.4,2.8 Z"></path>
                    <path d="M41.2,0.2 C41,0.2 40.8,0.4 40.9,0.6 L43.5,22.4 C43.5,22.6 43.7,22.7 43.9,22.7 C44.1,22.7 44.3,22.5 44.2,22.3 L41.6,0.5 C41.5,0.3 41.4,0.1 41.2,0.2 L41.2,0.2 Z"></path>
                    <path d="M46.5,2.2 C46.3,2.2 46.1,2.4 46.2,2.6 L48,17.7 C48,17.9 48.2,18 48.4,18 C48.6,18 48.8,17.8 48.7,17.6 L46.9,2.5 C46.9,2.4 46.7,2.2 46.5,2.2 L46.5,2.2 Z"></path>
                    <path d="M52.9,3.6 C52.7,3.6 52.5,3.8 52.6,4 L53.9,17.2 C53.9,17.4 54.1,17.5 54.3,17.5 C54.5,17.5 54.7,17.3 54.6,17.1 L53.3,3.9 C53.3,3.7 53.1,3.6 52.9,3.6 L52.9,3.6 Z"></path>
                    <path d="M59,5.9 C58.8,5.9 58.6,6.1 58.7,6.3 L59.5,14.1 C59.5,14.3 59.7,14.4 59.9,14.4 C60.1,14.4 60.3,14.2 60.2,14 L59.4,6.2 C59.3,6 59.2,5.9 59,5.9 L59,5.9 Z"></path>
                </g>
                <g transform="translate(142.000000, 143.000000)" id="Shape" fill="#E0E4EB">
                    <path d="M51.2,1.5 C49,2.9 47.9,4.5 47.3,5.5 C46.8,5.3 44.8,4.5 41.9,6.4 C39.7,7.8 38.9,9.5 38.7,10.5 C37.4,10.1 35,9.8 32.6,11.3 C30.4,12.7 29.7,14.3 29.4,15.3 C28.4,15.3 26.2,15.6 24.5,16.6 C22.6,17.7 21.8,19.1 21.5,20.1 C21.4,20.1 21.2,20 21.2,20 C21.1,20 21,19.9 20.9,19.9 C19.4,19.8 17.3,20 15.4,21.1 C13,22.6 12.3,24.5 12.1,25.4 C11.4,25.6 10.2,26.3 8.4,28.3 C7.8,29 7.6,30 7.6,30.9 C7.6,31.8 7.8,32.6 7.9,33.1 C7.2,33.6 6,34.4 5.4,35.7 C5.2,36.1 5.2,36.5 5.2,37 C5.2,38 5.6,38.9 5.8,39.4 C5.2,40 4.4,41 3.7,42.8 C3.4,43.6 3.3,44.4 3.3,45 C3.3,45.9 3.5,46.6 3.8,47.2 C2.9,47.6 1.5,48.4 0.9,50 C0.6,50.7 0.5,51.3 0.5,51.8 C0.5,53.4 1.6,54.3 2.3,54.6 C2.7,54.7 3.1,54.6 3.3,54.2 C3.5,53.8 3.3,53.4 2.9,53.2 C2.7,53.1 1.5,52.5 2.3,50.5 C3,48.9 5.1,48.3 5.1,48.3 C5.3,48.2 5.5,48.1 5.6,47.8 C5.7,47.6 5.6,47.3 5.5,47.1 C5.5,47 4.3,45.6 5.2,43.3 C5.9,41.4 6.8,40.5 7.2,40.2 C7.7,39.8 7.5,39.3 7.3,38.9 C7,38.3 6.5,37.2 6.9,36.3 C7.3,35.4 8.2,34.7 8.8,34.3 L9.3,33.9 C9.6,33.7 9.6,33.5 9.5,33.2 C9.3,32.5 8.8,30.2 9.6,29.3 C11.8,26.9 12.8,26.7 12.9,26.7 C13.3,26.7 13.6,26.3 13.6,26 C13.6,25.9 13.7,23.9 16.2,22.3 C17.8,21.3 19.6,21.2 20.8,21.3 C21.3,21.5 21.8,21.7 22.2,21.5 C22.5,21.4 22.7,21.2 22.7,20.9 L22.7,20.9 L22.7,21 C22.8,20.9 22.8,20.8 22.8,20.7 L22.8,20.6 C23.1,19.8 23.7,18.7 25.3,17.7 C27.1,16.6 29.9,16.6 30,16.6 C30.4,16.6 30.7,16.3 30.8,16 C30.9,15.4 31.4,13.7 33.5,12.4 C35.9,10.9 38.4,11.7 38.9,11.9 C39,11.9 39.2,12 39.2,12 C39.4,12.1 39.6,12 39.8,11.9 C40,11.8 40,11.5 40.1,11.3 C40.1,11.1 40.3,9.1 42.9,7.5 C45.5,5.9 47,6.7 47.1,6.8 C47.2,6.9 47.6,7 47.6,7 C48,7.1 48.4,7 48.6,6.6 C48.8,6.2 49.7,4.2 52.3,2.6 C54.9,1 57.4,2.4 57.5,2.5 C57.9,2.7 58.3,2.6 58.5,2.3 C58.7,2 58.6,1.5 58.3,1.3 C57.9,1.3 54.6,-0.7 51.2,1.5 L51.2,1.5 Z"></path>
                    <path d="M21.3,20.6 L21.3,20.6 C21.3,20.6 21.2,20.6 21.3,20.6 C21.2,20.6 21.3,20.6 21.3,20.6 L21.3,20.6 Z"></path>
                </g>
                <g transform="translate(55.000000, 15.000000)" id="Shape" fill="#E0E4EB">
                    <path d="M74.4,1.2 C74.4,1.3 74.3,4 71.6,5.1 C68.9,6.2 66.6,5.8 66.2,5.7 C66,5.7 65.8,5.7 65.6,5.8 C65.4,5.9 65.3,6.1 65.3,6.3 L65.2,6.7 C65.2,6.9 65.1,8.5 62.4,9.6 C59.6,10.7 57.8,9.7 57.6,9.6 C57.4,9.5 57.1,9.5 56.9,9.6 C56.7,9.7 56.5,9.9 56.5,10.2 C56.4,10.7 55.8,13.1 53.3,14 C51,14.9 49.3,14.4 48.7,14.1 C48.4,14 48,14.1 47.8,14.4 C47.8,14.4 46.3,16.6 44.4,17.4 C42.8,18.1 41.5,17.9 40.6,17.7 C40.5,17.6 40.3,17.5 40.1,17.5 C40.2,17.5 40.2,17.6 40.2,17.6 C39.9,17.5 39.6,17.5 39.4,17.7 C39,18 38.8,18.5 38.8,19 C38.2,20 37.2,21.2 35.5,21.9 C32.8,23 31,22 30.9,21.9 C30.6,21.7 30.1,21.8 29.9,22.1 C29.9,22.1 29.2,22.8 26,23.2 C24.8,23.3 23.1,21.7 22.6,21.1 C22.4,20.9 22.2,20.8 21.9,20.8 L21.3,21 C20.7,21.2 19.6,21.7 18.6,21.4 C17.6,21.2 16.9,20.2 16.5,19.7 C16.3,19.3 16,18.9 15.4,19.1 C14.9,19.2 13.6,19.4 11.6,18.9 C9.1,18.3 8.5,16.7 8.5,16.6 C8.4,16.4 8.2,16.2 8,16.1 C7.8,16 7.5,16.1 7.3,16.2 C7.3,16.2 5.7,17.5 3.9,17.1 C1.7,16.6 1.8,15.4 1.9,15.2 C2,14.8 1.7,14.4 1.3,14.4 C0.9,14.3 0.5,14.6 0.4,15 C0.2,16 0.6,17.9 3.6,18.6 C5.3,19 6.7,18.3 7.6,17.9 C8.1,18.7 9.2,19.8 11.3,20.3 C13.3,20.8 14.5,20.7 15.3,20.5 C15.7,21.1 16.7,22.4 18.2,22.8 C19.7,23.1 21,22.6 21.8,22.3 C22.5,23.1 24.3,24.7 26.2,24.5 C28.9,24.2 30.1,23.7 30.7,23.2 C31.6,23.6 33.5,24.1 36.2,23.1 C38.3,22.3 39.5,20.7 40.2,19.5 C40.2,19.4 40.3,19.3 40.3,19.2 C40.3,19.2 40.3,19.1 40.4,19 C41.5,19.3 43.1,19.4 45,18.6 C46.7,17.9 48.1,16.3 48.7,15.5 C49.7,15.8 51.5,16.1 53.8,15.2 C56.4,14.2 57.4,12.2 57.8,11 C58.8,11.3 60.7,11.6 63,10.7 C65.9,9.6 66.5,7.8 66.7,7 C67.8,7.1 69.8,7.1 72.2,6.2 C75.9,4.8 75.5,2.3 75.4,2.4 C74.5,2.7 75,0.8 75.3,0.3 C75.4,0.1 74.4,0.8 74.4,1.2 L74.4,1.2 Z"></path>
                    <path d="M39.4,18.5 C39.4,18.6 39.6,18.7 39.7,18.8 C39.6,18.7 39.5,18.6 39.4,18.5 L39.4,18.5 Z"></path>
                    <path d="M39.8,18.9 L39.8,18.9 L39.7,18.9 L39.8,18.9 L39.8,18.9 Z"></path>
                    <path d="M15.7,20.4 L15.6,20.4 C15.6,20.4 15.7,20.4 15.7,20.4 L15.7,20.4 Z"></path>
                </g>
                <g transform="translate(104.000000, 114.000000)" id="Shape" fill="#E0E4EB">
                    <path d="M51.5,1.6 C49.3,3 48.2,4.6 47.6,5.6 C47.1,5.4 45.1,4.6 42.2,6.5 C40,7.9 39.2,9.5 39,10.6 C37.7,10.2 35.3,9.9 32.9,11.4 C30.7,12.8 30,14.4 29.7,15.4 C28.7,15.4 26.5,15.6 24.8,16.7 C23,17.8 22.2,19.2 21.8,20.2 C21.7,20.2 21.5,20.1 21.5,20.1 C21.4,20.1 21.3,20 21.2,20 C19.7,19.9 17.6,20 15.7,21.2 C13.3,22.7 12.6,24.6 12.5,25.5 C11.8,25.7 10.6,26.4 8.8,28.4 C8.2,29.1 8,30.1 8,31 C8,31.9 8.2,32.7 8.3,33.2 C7.6,33.6 6.4,34.5 5.8,35.8 C5.6,36.2 5.6,36.6 5.6,37 C5.6,38 6,38.9 6.2,39.4 C5.6,39.9 4.8,41 4.1,42.8 C3.8,43.6 3.7,44.4 3.7,45 C3.7,45.9 3.9,46.6 4.2,47.2 C3.3,47.6 1.9,48.4 1.3,49.9 C1,50.6 0.9,51.2 0.9,51.7 C0.9,53.3 2,54.2 2.7,54.5 C3.1,54.6 3.5,54.5 3.7,54.1 C3.9,53.7 3.7,53.3 3.3,53.1 C3.1,53 1.9,52.4 2.7,50.4 C3.4,48.8 5.4,48.2 5.5,48.2 C5.7,48.1 5.9,48 6,47.7 C6.1,47.5 6,47.2 5.9,47 C5.9,46.9 4.7,45.5 5.6,43.2 C6.3,41.3 7.2,40.4 7.6,40.1 C8.1,39.7 7.9,39.2 7.7,38.8 C7.4,38.2 6.9,37.1 7.3,36.2 C7.7,35.3 8.6,34.6 9.2,34.3 L9.7,33.9 C10,33.7 10,33.5 9.9,33.2 C9.7,32.5 9.2,30.2 10,29.3 C12.2,26.9 13.2,26.8 13.2,26.8 C13.6,26.8 13.9,26.4 13.9,26.1 C13.9,26 14,24 16.5,22.4 C18.1,21.4 19.9,21.3 21.1,21.4 C21.6,21.6 22.1,21.8 22.5,21.6 C22.8,21.5 23,21.3 23,21 L23,21 L23,21.1 C23.1,21 23.1,20.9 23.1,20.8 L23.1,20.7 C23.4,19.9 24,18.8 25.5,17.8 C27.3,16.7 30.1,16.7 30.2,16.7 C30.6,16.7 30.9,16.4 31,16.1 C31.1,15.5 31.6,13.9 33.7,12.5 C36,11 38.4,11.8 39.1,12.1 C39.3,12.2 39.6,12.2 39.8,12.1 C40,12 40.2,11.7 40.2,11.5 C40.2,11.3 40.4,9.3 42.9,7.7 C45.5,6.1 47,6.9 47.1,7 C47.2,7.1 47.6,7.2 47.6,7.2 C48,7.4 48.4,7.2 48.6,6.8 C48.8,6.4 49.7,4.4 52.2,2.8 C54.8,1.2 57.3,2.6 57.4,2.7 C57.8,2.9 58.2,2.8 58.4,2.5 C58.6,2.2 58.5,1.7 58.2,1.5 C58.2,1.4 54.9,-0.6 51.5,1.6 L51.5,1.6 Z"></path>
                </g>
                <path d="M136.7,76.5 C136.3,76.6 136.1,76.9 136.1,77.2 L136.1,77.4 L136.1,77.5 C136.1,78.1 135,79.2 134.1,79.8 C133.9,79.9 130.6,80.6 130.6,80.6 C129.5,80.8 127.5,81.6 125.5,82.5 L121.8,84 C118.8,85.1 104.3,90.6 100.7,92.5 C98.1,93.8 89.5,95.6 84.8,96.6 C82.4,97.1 81.6,97.3 81.3,97.4 L79.6,98.2 L77.3,99.4 C76.5,99.8 75,99.9 73.7,99.9 L71.2,100.2 C69.6,100.5 67.2,102.2 66.2,102.9 C65.7,102.7 64.8,102.1 64,100.7 C63.8,100.3 63.3,100.2 63,100.4 C62.6,100.6 62.5,101 62.7,101.4 C64,103.8 66,104.4 66.1,104.5 C66.3,104.6 66.6,104.5 66.8,104.4 C67.7,103.7 70.2,101.9 71.5,101.7 L73.8,101.5 C75.3,101.4 76.8,101.3 77.9,100.8 L80.4,99.6 L81.9,98.8 L85.1,98.1 C90.2,97 98.7,95.3 101.4,93.9 C105,92.1 119.3,86.6 122.3,85.5 L126,84 C127.9,83.2 129.9,82.4 130.8,82.2 L134.5,81.3 C134.6,81.3 134.6,81.3 134.7,81.2 C135.2,80.9 137.5,79.4 137.5,77.6 L137.5,77.2 C137.6,76.7 137.2,76.5 136.7,76.5 L136.7,76.5 Z" id="Shape" fill="#E0E4EB"></path>
                <g transform="translate(60.000000, 59.000000)" id="Shape" fill="#E0E4EB">
                    <path d="M74.2,1.6 C74.2,1.7 74.1,4.4 71.4,5.5 C68.7,6.6 66.5,6.2 66,6.1 C65.8,6.1 65.6,6.1 65.4,6.2 C65.2,6.3 65.1,6.5 65.1,6.7 L65,7.1 C65,7.3 64.9,8.9 62.2,10 C59.4,11.1 57.5,10.1 57.4,10 C57.2,9.9 56.9,9.9 56.7,10 C56.5,10.1 56.3,10.3 56.3,10.6 C56.2,11.3 55.5,13.5 53.1,14.4 C50.8,15.3 49.2,14.8 48.6,14.5 C48.3,14.4 47.9,14.5 47.7,14.8 C47.7,14.8 46.2,17 44.3,17.8 C42.7,18.5 41.4,18.3 40.6,18.1 C40.5,18 40.3,17.9 40.1,17.9 C40.2,17.9 40.2,18 40.2,18 C39.9,17.9 39.6,17.9 39.4,18.1 C39,18.4 38.8,18.9 38.8,19.4 C38.2,20.4 37.2,21.6 35.5,22.3 C32.8,23.4 31,22.4 30.9,22.3 C30.6,22.1 30.1,22.2 29.9,22.5 C29.9,22.5 29.2,23.2 26,23.6 C24.8,23.7 23.1,22.1 22.6,21.5 C22.4,21.3 22.2,21.2 21.9,21.2 L21.3,21.4 C20.7,21.6 19.6,22.1 18.6,21.8 C17.6,21.6 16.9,20.6 16.6,20.1 C16.4,19.8 16.1,19.3 15.5,19.5 C15,19.6 13.8,19.8 11.7,19.3 C9.2,18.7 8.6,17.1 8.6,17 C8.5,16.8 8.3,16.6 8.1,16.5 C7.9,16.4 7.6,16.5 7.4,16.6 C7.4,16.6 5.8,17.9 4,17.5 C1.8,17 1.9,15.8 2,15.6 C2.1,15.2 1.8,14.8 1.4,14.8 C1,14.7 0.6,15 0.5,15.4 C0.3,16.4 0.7,18.3 3.7,19 C5.4,19.4 6.8,18.7 7.6,18.3 C8.1,19.1 9.2,20.2 11.3,20.7 C13.3,21.2 14.5,21.1 15.3,20.9 C15.7,21.5 16.7,22.8 18.2,23.2 C19.6,23.5 21,23 21.8,22.7 C22.5,23.5 24.3,25.1 26.2,24.9 C28.8,24.6 30,24.1 30.6,23.6 C31.5,24 33.4,24.5 36,23.5 C38,22.7 39.3,21.1 40,19.9 C40,19.8 40.1,19.7 40.1,19.6 C40.1,19.6 40.1,19.5 40.2,19.4 C41.3,19.7 42.8,19.8 44.8,19 C46.5,18.3 47.9,16.7 48.5,16 C49.5,16.3 51.3,16.6 53.6,15.7 C56.2,14.7 57.1,12.7 57.5,11.5 C58.5,11.8 60.4,12.1 62.7,11.2 C65.5,10.1 66.2,8.4 66.4,7.5 C67.5,7.6 69.5,7.6 71.8,6.7 C75.5,5.3 75.6,1.6 75.6,1.5 C75.6,1.1 75.3,0.8 74.8,0.8 C74.6,0.8 74.2,1.2 74.2,1.6 L74.2,1.6 Z"></path>
                    <path d="M39.4,18.9 C39.4,19 39.6,19.1 39.7,19.2 C39.5,19.1 39.4,19 39.4,18.9 L39.4,18.9 Z"></path>
                    <path d="M39.8,19.3 L39.8,19.3 L39.7,19.3 L39.8,19.3 L39.8,19.3 Z"></path>
                    <path d="M15.8,20.8 L15.7,20.8 L15.8,20.8 L15.8,20.8 Z"></path>
                </g>
                <path d="M135,95.1 L132.6,96.3 C127.8,98.6 118.8,103 112.8,104.4 C107.6,105.6 104.7,107.5 102.3,109.1 L99.6,110.7 L97.3,111.7 C95,112.6 92.9,113.5 91.9,114.8 C90.8,116.2 85.7,120.5 83.2,121.3 C80.5,122.2 73.3,127.5 72.4,128.4 C72.1,128.7 72.2,129.2 72.5,129.4 C72.8,129.7 73.3,129.6 73.6,129.3 C74.2,128.6 81.1,123.4 83.7,122.6 C86.5,121.7 91.9,117.1 93.1,115.6 C93.9,114.6 95.8,113.8 97.9,112.9 L100.3,111.9 L103.2,110.2 C105.5,108.7 108.3,106.9 113.2,105.7 C119.4,104.3 128.4,99.9 133.3,97.5 L135.7,96.4 C139.1,94.8 142.5,95.3 142.6,95.3 C143,95.4 143.4,95.1 143.5,94.7 C143.6,94.3 143.3,93.9 142.9,93.9 C142.6,93.9 138.8,93.4 135,95.1 L135,95.1 Z" id="Shape" fill="#E0E4EB"></path>
                <path d="M145.6,105.5 C144.4,105.8 142.7,106.9 141.2,107.9 C140.4,108.4 139.5,109 139.2,109.1 C138.5,109.2 137,110 134.9,111.3 L134.5,111.5 C134.2,111.7 133.4,111.8 132.6,111.9 C131.4,112.1 129.9,112.4 128.2,112.9 C126.6,113.4 125.4,114.5 124.3,115.6 C123.2,116.6 122.2,117.5 121,117.8 C119.3,118.2 118,118.8 116.8,119.3 L114.7,120.1 C113.6,120.4 111.7,121.7 110,123 C108.8,123.8 107.6,124.7 107,125 C106.3,125.3 105.6,125.5 104.7,125.7 C103.5,126 102.3,126.3 101.1,127.1 C100,127.9 98.8,130.3 97.3,133.7 C96.6,135.3 95.9,136.9 95.4,137.4 L94.2,138.8 C92.8,140.4 91.1,142.3 90.1,144.3 C89.5,145.6 89,147.4 88.6,149.1 C88.3,150.4 87.8,152.2 87.5,152.5 C87.2,152.8 87.2,153.3 87.5,153.5 C87.8,153.7 88.3,153.8 88.6,153.5 C89.2,152.9 89.5,151.6 90.1,149.4 C90.5,147.8 91,146 91.5,144.9 C92.3,143.1 94,141.3 95.4,139.8 L96.7,138.3 C97.2,137.6 97.9,136.1 98.8,134.3 C99.8,132 101.3,128.9 102.1,128.3 C103,127.7 104,127.4 105.2,127.2 C106.1,127 107,126.8 107.8,126.4 C108.6,126 109.8,125.2 111.1,124.2 C112.6,123.1 114.5,121.8 115.4,121.5 L117.7,120.6 C118.8,120.1 120,119.5 121.6,119.2 C123.2,118.8 124.4,117.7 125.6,116.6 C126.7,115.6 127.7,114.7 129,114.3 C130.5,113.8 132,113.5 133.2,113.3 C134.3,113.1 135.1,113 135.6,112.7 L136,112.5 C136.8,112 139.2,110.6 139.9,110.5 C140.4,110.4 141.1,110 142.4,109.1 C143.7,108.3 145.4,107.2 146.3,106.9 C148,106.5 150.9,107.2 151.3,107.7 C151.4,108.1 151.8,108.3 152.2,108.2 C152.6,108.1 152.8,107.8 152.8,107.4 C152.7,107 152.4,106.6 151.9,106.3 C150.2,105.5 147.2,105.1 145.6,105.5 L145.6,105.5 Z" id="Shape" fill="#E0E4EB"></path>
            </g>
        </g>
    </g>
</svg>