<?xml version="1.0" encoding="utf-8"?>
<!-- Generator: Adobe Illustrator 19.2.1, SVG Export Plug-In . SVG Version: 6.00 Build 0)  -->
<svg version="1.1" id="Layer_1" xmlns="http://www.w3.org/2000/svg" xmlns:xlink="http://www.w3.org/1999/xlink" x="0px" y="0px"
	 viewBox="0 0 63.126 61.142" enable-background="new 0 0 63.126 61.142" xml:space="preserve">
<g>
	<g>
		<g>
			<g>
				<path fill="#3398FC" d="M11.231,35.531C7.465,34.918,3.719,34.133,0,33.176c0.901-0.997,1.788-2.002,2.658-3.017
					C2.29,28.774,1.94,27.387,1.608,26c3.529,0.908,7.085,1.653,10.658,2.235C11.921,30.667,11.575,33.099,11.231,35.531z"/>
				<path fill="#3398FC" d="M51.896,35.531c3.766-0.613,7.513-1.398,11.23-2.355c-0.901-0.997-1.787-2.002-2.658-3.017
					c0.369-1.385,0.718-2.773,1.051-4.16c-3.528,0.908-7.084,1.653-10.658,2.235C51.206,30.667,51.551,33.099,51.896,35.531z"/>
			</g>
			<polygon fill="#3398FC" points="5.376,28.615 8.267,27.173 8.267,30.181 			"/>
		</g>
		<polygon fill="#3398FC" points="57.74,28.615 54.848,27.173 54.848,30.181 		"/>
	</g>
	<g>
		<path fill="#3398FC" d="M31.148,60.977C16.254,55.073,10.442,43.751,8.19,35.291c-2.427-9.119-1.361-21.823-1.316-22.143
			l0.147-1.003l0.981-0.017c10.491-0.184,22.839-11.68,22.962-11.757L31.563,0l0.598,0.371c0.124,0.077,12.486,11.574,22.963,11.757
			l0.982,0.017l0.146,1.003c0.047,0.32,1.112,13.024-1.315,22.143c-2.253,8.46-8.064,19.783-22.957,25.687l-0.416,0.165
			L31.148,60.977z"/>
		<path fill="#423F40" d="M31.563,59.86c27.956-11.081,23.541-46.535,23.541-46.535C44.18,13.133,31.563,1.397,31.563,1.397l0,0
			c0,0-12.618,11.736-23.542,11.928C8.022,13.325,3.606,48.778,31.563,59.86z"/>
		<path fill="#FFFFFF" d="M31.563,59.126C20.312,54.593,13.04,46.407,9.948,34.792c-1.959-7.358-1.527-18.897-1.335-20.8
			c9.951-0.404,20.854-10.549,22.95-11.802c2.094,1.253,12.998,11.398,22.949,11.802c0.191,1.91,0.622,13.483-1.348,20.848
			C50.064,46.43,42.799,54.599,31.563,59.126z"/>
		<path fill="#3398FC" d="M53.905,14.645C44.413,14.053,34.263,4.56,31.563,2.979c-0.066,0.04-0.139,0.081-0.213,0.125v55.194
			c0.072,0.03,0.14,0.063,0.213,0.093c10.891-4.463,17.944-12.446,20.963-23.732C54.299,28.028,54.092,17.011,53.905,14.645z"/>
	</g>
	<g>
		<path fill="#FFFFFF" d="M59.389,36.468c-18.291,4.391-37.36,4.391-55.651,0c0.608-2.527,1.214-5.053,1.82-7.58
			c17.094,4.104,34.916,4.104,52.011,0C58.176,31.415,58.782,33.941,59.389,36.468z"/>
		<path fill="#423F40" d="M3.683,36.691L3.46,36.636l0.054-0.223c0.608-2.527,1.213-5.052,1.82-7.58l0,0l0.052-0.223l0.225,0.053
			c8.529,2.047,17.24,3.071,25.952,3.071l0,0c8.71,0,17.421-1.025,25.952-3.071l0,0l0.223-0.054l0.054,0.224
			c0.607,2.528,1.212,5.053,1.819,7.58l0,0l-0.223,0.054l0.223-0.054l0.054,0.224l-0.224,0.053c-9.163,2.2-18.523,3.3-27.879,3.3
			l0,0C22.204,39.991,12.845,38.891,3.683,36.691L3.683,36.691z M31.564,39.53c9.245,0,18.49-1.077,27.548-3.232l0,0
			c-0.572-2.378-1.142-4.755-1.712-7.133l0,0c-8.495,2.019-17.166,3.031-25.836,3.031l0,0c-8.671,0-17.343-1.011-25.835-3.031l0,0
			c-0.571,2.378-1.141,4.755-1.714,7.133l0,0C13.07,38.453,22.316,39.53,31.564,39.53L31.564,39.53z"/>
	</g>
	<g>
		<polygon fill="#3398FC" points="23.57,44.987 23.882,45.951 24.895,45.951 24.076,46.546 24.389,47.51 23.57,46.914 22.75,47.51 
			23.063,46.546 22.243,45.951 23.256,45.951 		"/>
		<polygon fill="#3398FC" points="28.899,44.987 29.211,45.951 30.225,45.951 29.406,46.546 29.719,47.51 28.899,46.914 
			28.08,47.51 28.393,46.546 27.572,45.951 28.586,45.951 		"/>
		<polygon fill="#FFFFFF" points="34.229,44.987 34.541,45.951 35.554,45.951 34.735,46.546 35.048,47.51 34.229,46.914 
			33.409,47.51 33.722,46.546 32.902,45.951 33.915,45.951 		"/>
		<polygon fill="#FFFFFF" points="39.559,44.987 39.87,45.951 40.884,45.951 40.065,46.546 40.378,47.51 39.559,46.914 
			38.739,47.51 39.052,46.546 38.231,45.951 39.245,45.951 		"/>
	</g>
	<g>
		<g>
			<path d="M21.661,19.949c0-0.109-0.018-0.219-0.061-0.264c-0.097-0.099-0.384-0.099-0.517-0.099v-0.179
				c0.451-0.04,0.84-0.095,1.242-0.279h0.134v2.637c0,0.114,0,0.363,0.091,0.458c0.091,0.104,0.347,0.094,0.481,0.099v0.179
				c-0.323-0.005-0.676-0.015-1.029-0.02c-0.305,0.005-0.603,0.015-0.907,0.02v-0.179c0.116,0,0.378,0,0.463-0.08
				c0.104-0.09,0.104-0.323,0.104-0.443V19.949z"/>
			<path d="M23.877,20.855c0-0.642,0.347-1.726,1.34-1.726c0.999,0,1.34,1.085,1.34,1.726c0,0.652-0.359,1.701-1.34,1.701
				C24.242,22.556,23.877,21.502,23.877,20.855z M25.217,19.328c-0.493,0-0.457,1.124-0.457,1.522c0,0.448-0.049,1.507,0.457,1.507
				c0.505,0,0.457-1.06,0.457-1.507C25.673,20.452,25.71,19.328,25.217,19.328z"/>
			<path d="M27.042,20.855c0-0.642,0.347-1.726,1.34-1.726c0.999,0,1.34,1.085,1.34,1.726c0,0.652-0.359,1.701-1.34,1.701
				C27.408,22.556,27.042,21.502,27.042,20.855z M28.382,19.328c-0.493,0-0.457,1.124-0.457,1.522c0,0.448-0.049,1.507,0.457,1.507
				c0.505,0,0.457-1.06,0.457-1.507C28.839,20.452,28.876,19.328,28.382,19.328z"/>
		</g>
	</g>
	<g>
		<g>
			<path fill="#FFFFFF" d="M33.81,21.483c0,0.129,0,0.426,0.034,0.535c0.048,0.157,0.209,0.129,0.329,0.137v0.092
				c-0.178-0.004-0.356-0.012-0.534-0.016c-0.168,0.004-0.332,0.012-0.503,0.016v-0.092c0.11,0,0.253,0,0.291-0.137
				c0.031-0.109,0.031-0.406,0.031-0.535v-1.129c0-0.133,0-0.43-0.031-0.539c-0.041-0.141-0.181-0.137-0.291-0.137v-0.092
				c0.174,0.004,0.346,0.012,0.517,0.016c0.164-0.004,0.325-0.012,0.49-0.016c0.369,0.016,0.787,0.185,0.787,0.695
				c0,0.587-0.483,0.727-0.89,0.727c-0.061,0-0.216-0.012-0.229-0.012V21.483z M33.81,20.888c0.065,0.004,0.134,0.016,0.198,0.016
				c0.353,0,0.527-0.177,0.527-0.611c0-0.39-0.157-0.591-0.489-0.591c-0.041,0-0.178,0-0.212,0.024
				c-0.028,0.02-0.024,0.064-0.024,0.165V20.888z"/>
			<path fill="#FFFFFF" d="M35.444,20.366c0-0.129,0-0.426-0.034-0.534c-0.045-0.137-0.185-0.137-0.294-0.137v-0.108h1.701v0.607
				h-0.079c-0.065-0.47-0.243-0.498-0.606-0.498h-0.246c-0.051,0-0.075-0.004-0.085,0.016c-0.007,0.016-0.003,0.06-0.003,0.149
				v0.952c0.469,0.024,0.537-0.205,0.558-0.494h0.079c-0.004,0.181-0.007,0.366-0.014,0.547c0.007,0.165,0.01,0.334,0.014,0.498
				h-0.079c-0.048-0.422-0.229-0.442-0.558-0.442v0.659c0,0.12,0,0.309,0.061,0.406c0.089,0.14,0.301,0.149,0.438,0.145
				c0.356-0.008,0.589-0.06,0.633-0.539h0.079l-0.031,0.647h-1.862v-0.092c0.11,0,0.25,0,0.294-0.137
				c0.034-0.108,0.034-0.406,0.034-0.534V20.366z"/>
			<path fill="#FFFFFF" d="M39.16,21.917c0.11,0.149,0.161,0.205,0.336,0.237v0.092c-0.103-0.004-0.205-0.012-0.308-0.016
				c-0.085,0.004-0.171,0.012-0.257,0.016l-0.161-0.233l-0.568-0.828c-0.113-0.153-0.099-0.177-0.28-0.177v0.474
				c0,0.129,0,0.426,0.031,0.535c0.041,0.141,0.181,0.137,0.291,0.137v0.092c-0.157-0.004-0.318-0.012-0.482-0.016
				c-0.171,0.004-0.343,0.012-0.513,0.016v-0.092c0.11,0,0.253,0,0.291-0.137c0.031-0.109,0.031-0.406,0.031-0.535V20.35
				c0-0.129,0-0.426-0.031-0.534c-0.038-0.141-0.181-0.137-0.291-0.137v-0.092c0.195,0.004,0.393,0.012,0.588,0.016
				c0.144-0.004,0.291-0.012,0.435-0.016c0.39,0,0.784,0.104,0.784,0.663c0,0.434-0.281,0.655-0.619,0.691L39.16,21.917z
				 M37.921,20.9c0.428,0,0.739-0.012,0.739-0.595c0-0.354-0.171-0.603-0.479-0.603c-0.041,0-0.192-0.012-0.223,0.004
				c-0.045,0.024-0.038,0.101-0.038,0.145V20.9z"/>
			<path fill="#FFFFFF" d="M41.458,19.598h0.051l0.027,0.792h-0.078c-0.058-0.446-0.325-0.76-0.722-0.76
				c-0.613,0-0.797,0.711-0.797,1.314c0,0.607,0.198,1.254,0.804,1.254c0.479,0,0.654-0.402,0.756-0.884h0.062v0.88h-0.045
				l-0.082-0.205c-0.23,0.213-0.462,0.301-0.757,0.301c-0.695,0-1.167-0.526-1.167-1.346c0-0.816,0.503-1.407,1.198-1.407
				c0.28,0,0.458,0.076,0.695,0.249L41.458,19.598z"/>
			<path fill="#FFFFFF" d="M42.096,20.366c0-0.129,0-0.426-0.034-0.534c-0.045-0.137-0.185-0.137-0.294-0.137v-0.108h1.701v0.607
				H43.39c-0.065-0.47-0.243-0.498-0.606-0.498h-0.246c-0.051,0-0.075-0.004-0.085,0.016c-0.007,0.016-0.004,0.06-0.004,0.149v0.952
				c0.469,0.024,0.537-0.205,0.558-0.494h0.079c-0.003,0.181-0.007,0.366-0.014,0.547c0.007,0.165,0.01,0.334,0.014,0.498h-0.079
				c-0.048-0.422-0.229-0.442-0.558-0.442v0.659c0,0.12,0,0.309,0.061,0.406c0.089,0.14,0.301,0.149,0.438,0.145
				c0.356-0.008,0.589-0.06,0.633-0.539h0.078l-0.031,0.647h-1.862v-0.092c0.11,0,0.25,0,0.294-0.137
				c0.034-0.108,0.034-0.406,0.034-0.534V20.366z"/>
			<path fill="#FFFFFF" d="M44.251,19.92c-0.106-0.177-0.188-0.237-0.373-0.241v-0.092c0.11,0.004,0.216,0.012,0.325,0.016
				c0.089-0.004,0.181-0.012,0.27-0.016l1.444,2.069h0.007v-1.117c0-0.173,0-0.454-0.031-0.619
				c-0.041-0.225-0.133-0.209-0.305-0.241v-0.092c0.127,0.004,0.25,0.012,0.377,0.016c0.12-0.004,0.236-0.012,0.363-0.016v0.092
				c-0.127,0.016-0.216,0.004-0.26,0.177c-0.034,0.129-0.041,0.543-0.041,0.703v1.732h-0.103c-0.075-0.109-0.151-0.221-0.226-0.334
				l-1.338-1.905h-0.007v1.35c0,0.149,0,0.45,0.051,0.587c0.058,0.157,0.171,0.149,0.298,0.165v0.092
				c-0.13-0.004-0.264-0.012-0.394-0.016c-0.127,0.004-0.253,0.012-0.38,0.016v-0.092c0.134-0.016,0.26-0.024,0.294-0.197
				c0.027-0.145,0.027-0.398,0.027-0.555V19.92z"/>
			<path fill="#FFFFFF" d="M48.61,20.213h-0.092c-0.021-0.394-0.15-0.498-0.472-0.498c-0.127,0-0.332-0.02-0.332,0.108v1.905
				c0,0.297,0.048,0.41,0.38,0.426v0.092c-0.188-0.004-0.38-0.012-0.568-0.016c-0.181,0.004-0.36,0.012-0.544,0.016v-0.092
				c0.332-0.016,0.38-0.129,0.38-0.426v-1.905c0-0.12-0.151-0.108-0.288-0.108c-0.339,0-0.503,0.02-0.517,0.498h-0.079v-0.627h2.102
				L48.61,20.213z"/>
		</g>
	</g>
	<text transform="matrix(0.819 -0.071 0.0863 0.9963 32.0703 37.3991)" font-family="'AdellePE-Bold'" font-size="4.3172px">WARRANTY</text>
	<text transform="matrix(0.8193 0.0667 -0.0812 0.9967 12.8469 35.9348)" font-family="'AdellePE-Bold'" font-size="4.3172px">LIFETIME </text>
</g>
</svg>
