<?xml version="1.0" encoding="utf-8"?>
<!-- Generator: Adobe Illustrator 19.2.1, SVG Export Plug-In . SVG Version: 6.00 Build 0)  -->
<svg version="1.1" id="Layer_1" xmlns="http://www.w3.org/2000/svg" xmlns:xlink="http://www.w3.org/1999/xlink" x="0px" y="0px"
	 viewBox="0 0 57.196 34.448" enable-background="new 0 0 57.196 34.448" xml:space="preserve">
<g opacity="0.75">
	<rect x="12.29" y="16.085" fill="none" width="31.809" height="18"/>
	<text transform="matrix(1.0654 0 0 1 14.2373 19.9551)"><tspan x="0" y="0" fill="#333333" font-family="'AdellePE-Bold'" font-size="5.1257px">Made with </tspan><tspan x="4.195" y="6.15" fill="#333333" font-family="'AdellePE-Bold'" font-size="5.1257px">love by </tspan><tspan x="1.371" y="12.302" fill="#333333" font-family="'AdellePE-Bold'" font-size="5.1257px">PIONEER</tspan></text>
	<g>
		<path fill="#D14927" d="M10.031,32.503c0.18,0.183,0.274,0.383,0.186,0.328c0.413,0.341,0.347,0.399,0.518,0.364
			c0.286,0.205,0.438,0.526,0.132,0.279l0.724,0.659l-0.367-0.438c0.211,0.045,0.587,0.7,0.832,0.752l-0.711-0.762l0.07,0.015
			c-0.197-0.15-0.489-0.501-0.582-0.629c0.034,0.007,0.052-0.024,0.178,0.11c-0.834-0.934-0.411-0.128-1.142-0.877
			C9.914,32.352,9.967,32.413,10.031,32.503z"/>
		<path fill="#D14927" d="M9.582,31.541l-0.423-0.239l-0.446-0.571c-0.052,0.024-0.439-0.353-0.243-0.056
			c0.054,0.048,0.159,0.144,0.229,0.231c-0.077,0.001-0.249-0.173-0.397-0.32c-0.146-0.148-0.269-0.268-0.25-0.154
			c0.402,0.421,0.442,0.5,0.756,0.716c0.339,0.405,0.576,0.707,0.704,0.916c0.12,0.108,0.195,0.084,0.342,0.226
			c-0.031-0.032-0.059-0.062-0.095-0.099l0.135-0.114c-0.143-0.104-0.232-0.231-0.358-0.368l0.745,0.524
			c-0.047-0.297-0.686-0.871-0.85-1.159C9.579,31.467,9.146,30.867,9.582,31.541z"/>
		<path fill="#D14927" d="M9.853,32.29l0.014,0.015L9.853,32.29z"/>
		<path fill="#D14927" d="M39.094,1.673c0.208-0.036,0.258-0.08,0.284-0.103c0,0-0.139,0.018-0.364,0.056
			c-0.112,0.019-0.247,0.044-0.393,0.078c-0.145,0.035-0.31,0.079-0.459,0.133c-0.137,0.05-0.274,0.099-0.402,0.146
			c-0.126,0.051-0.244,0.098-0.345,0.138c-0.198,0.086-0.33,0.143-0.33,0.143c0.045,0.004,0.225-0.047,0.345-0.075
			c0.122-0.025,0.181-0.029-0.015,0.067c0.101-0.018,0.288-0.09,0.454-0.167c0.168-0.073,0.314-0.153,0.353-0.196
			c0,0-0.036,0.03-0.071,0.059c-0.032,0.029-0.063,0.058-0.063,0.058c0.029-0.016,0.056-0.031,0.085-0.045
			c0.031-0.014,0.061-0.027,0.091-0.039c0.059-0.025,0.12-0.042,0.175-0.056c0.111-0.028,0.205-0.034,0.269-0.03
			c0.129,0.011,0.145,0.06-0.023,0.123l0.045-0.012c0,0,0.022-0.01,0.06-0.027c0.038-0.017,0.094-0.042,0.16-0.069
			c0.133-0.056,0.311-0.123,0.482-0.187c0.171-0.064,0.335-0.128,0.449-0.178c0.114-0.05,0.183-0.085,0.183-0.085
			c-0.225,0.035-0.319,0.074-0.421,0.12C39.539,1.574,39.425,1.62,39.094,1.673z"/>
		<path fill="#D14927" d="M48.466,29.229c0.185-0.193,0.197-0.226,0.161-0.216C48.566,29.086,48.509,29.158,48.466,29.229z"/>
		<path fill="#D14927" d="M40.306,1.272c0,0,0.018-0.012,0.045-0.029l0.022-0.014c0.014-0.008,0.029-0.016,0.044-0.024
			c0.031-0.017,0.063-0.035,0.096-0.052c0.017-0.009,0.032-0.019,0.05-0.026c0.019-0.006,0.037-0.012,0.055-0.018
			c0.036-0.012,0.069-0.023,0.097-0.032c0.03-0.015,0.05-0.025,0.05-0.025c-0.016,0.007-0.032,0.013-0.048,0.02
			c-0.021,0.007-0.058,0.017-0.085,0.025c-0.029,0.009-0.058,0.016-0.084,0.027c-0.024,0.013-0.047,0.025-0.069,0.037
			c-0.022,0.012-0.043,0.024-0.064,0.036c-0.01,0.006-0.02,0.012-0.03,0.017c-0.011,0.006-0.02,0.012-0.023,0.015
			C40.342,1.242,40.323,1.257,40.306,1.272z"/>
		<path fill="#D14927" d="M38.014,3.409c0.002,0.005,0.001,0.011,0.014,0.013c0,0,0.035-0.029,0.07-0.059
			c0.035-0.028,0.071-0.057,0.071-0.057l-0.004,0.002C38.107,3.343,38.058,3.377,38.014,3.409z"/>
		<path fill="#D14927" d="M50.818,2.553c0.044,0.02,0.082,0.037,0.134,0.062C50.908,2.592,50.86,2.57,50.818,2.553z"/>
		<path fill="#D14927" d="M33.478,6.633c0,0,0.166-0.141,0.34-0.28c0.077-0.063,0.153-0.126,0.211-0.174
			c0.068-0.05,0.114-0.083,0.114-0.083c-0.076,0.097,0.297-0.131,0.165,0.008c0.03-0.021,0.114-0.079,0.182-0.127
			c0.069-0.05,0.118-0.091,0.068-0.076l-0.173,0.103c0.363-0.37,0.063-0.255,0.725-0.767c-0.501,0.201-0.657,0.378-0.862,0.569
			c-0.078,0.056-0.136,0.094-0.2,0.136c0,0-0.034,0.033-0.085,0.083c-0.028,0.025-0.051,0.053-0.076,0.082
			c-0.025,0.029-0.052,0.06-0.079,0.091c-0.124,0.137-0.247,0.274-0.247,0.274L33.478,6.633z"/>
		<path fill="#D14927" d="M55.104,18.751l-0.007-0.012C55.097,18.748,55.1,18.751,55.104,18.751z"/>
		<path fill="#D14927" d="M55.066,18.69l0.031,0.049C55.092,18.689,55.141,18.522,55.066,18.69z"/>
		<path fill="#D14927" d="M40.208,1.386c0.002-0.027,0.042-0.065,0.098-0.115c0,0-0.014,0.009-0.034,0.022
			c-0.022,0.013-0.052,0.03-0.081,0.047c-0.029,0.018-0.062,0.033-0.086,0.046c-0.024,0.012-0.04,0.021-0.04,0.021
			C40.105,1.399,40.161,1.395,40.208,1.386z"/>
		<path fill="#D14927" d="M39.583,1.79c0,0-0.206,0.033-0.42,0.071c-0.214,0.037-0.432,0.09-0.432,0.09s-0.076,0.036-0.15,0.072
			c-0.073,0.039-0.146,0.078-0.146,0.078C38.751,1.974,39.145,1.893,39.583,1.79z"/>
		<path fill="#D14927" d="M49.65,1.889c0.204,0.093,0.349,0.162,0.448,0.213c0.098,0.052,0.151,0.084,0.171,0.102
			c0.041,0.037-0.047,0.018-0.163-0.013c-0.233-0.06-0.579-0.161-0.221,0.029c0.452,0.197,0.648,0.213,0.932,0.333
			c-0.318-0.147-0.46-0.225-0.512-0.273c-0.052-0.048-0.013-0.064,0.027-0.082c0.039-0.017,0.079-0.035,0.027-0.087
			c-0.052-0.051-0.194-0.137-0.526-0.281c0.129-0.015,0.388,0.063,0.659,0.182c0.137,0.058,0.277,0.126,0.407,0.196
			c0.065,0.035,0.129,0.07,0.188,0.104c0.06,0.034,0.106,0.064,0.153,0.094c0.181,0.172,0.071,0.141-0.107,0.074
			c-0.085-0.033-0.204-0.08-0.306-0.113c-0.103-0.034-0.192-0.055-0.238-0.042c0.518,0.242,0.437,0.175,0.678,0.219
			c0.167,0.1,0.389,0.203,0.594,0.297c0.105,0.048,0.214,0.106,0.32,0.157c0.105,0.053,0.212,0.102,0.308,0.158
			c0.394,0.214,0.722,0.437,0.878,0.669c0.14,0.095,0.246,0.162,0.331,0.212c0.084,0.051,0.147,0.086,0.205,0.114
			c0.115,0.057,0.21,0.085,0.383,0.187c0.088-0.025-0.09-0.199-0.308-0.394c-0.106-0.099-0.233-0.196-0.334-0.288
			c-0.101-0.091-0.184-0.173-0.218-0.23c0.036,0.039,0.103,0.117,0.064,0.114c0,0-0.029-0.023-0.073-0.057
			c-0.044-0.034-0.104-0.079-0.163-0.125c-0.06-0.045-0.119-0.091-0.164-0.124c-0.044-0.034-0.075-0.056-0.075-0.056
			c0.221,0.178,0.178,0.195,0.051,0.146c-0.125-0.051-0.349-0.154-0.481-0.231C52.396,2.977,52,2.769,52.078,2.765l0.315,0.143
			c-0.088-0.063-0.19-0.119-0.297-0.173c-0.054-0.028-0.108-0.051-0.161-0.071c-0.054-0.021-0.108-0.043-0.162-0.064l-0.162-0.066
			L51.532,2.5l-0.069-0.034c-0.091-0.046-0.177-0.098-0.251-0.159c0.001-0.036,0.139,0.021,0.17,0.015
			c-0.21-0.059-0.446-0.153-0.688-0.256c-0.249-0.102-0.522-0.22-0.867-0.342l0.455,0.059C49.68,1.66,48.509,1.09,47.62,0.727
			c0.092,0.055,0.266,0.129,0.146,0.118c-0.54-0.148-0.926-0.347-0.644-0.344c-0.073-0.006-0.158-0.022-0.254-0.044
			c-0.097-0.021-0.207-0.046-0.323-0.077c-0.231-0.064-0.504-0.13-0.782-0.2c-0.564-0.128-1.186-0.216-1.603-0.167
			c-0.226,0.025-0.455,0.066-0.676,0.1l-0.207,0.249c-0.007-0.033-0.013-0.065-0.018-0.098l-0.006-0.049L43.248,0.19l-0.005-0.038
			c-0.003,0,0.001,0.012-0.009,0.017c-0.007,0.007-0.013,0.014-0.029,0.02l-0.02,0.01l-0.028,0.009
			c-0.076,0.025-0.197,0.045-0.338,0.065c-0.141,0.021-0.303,0.043-0.468,0.075c-0.082,0.015-0.167,0.033-0.25,0.053l-0.136,0.032
			L41.82,0.472c-0.147,0.043-0.289,0.094-0.421,0.158c-0.127,0.06-0.278,0.146-0.334,0.191c-0.135,0.1-0.181,0.161-0.299,0.228
			c0.077-0.034,0.131-0.064,0.207-0.097c0.112,0.024,0.235,0.002,0.26,0.02c0.027,0.016-0.064,0.085-0.203,0.196
			c0.066-0.037,0.115-0.075,0.158-0.109c0.043-0.035,0.075-0.066,0.131-0.104c0.051-0.036,0.106-0.072,0.19-0.11
			c0.084-0.037,0.197-0.077,0.367-0.107c0.091-0.015,0.207-0.03,0.316-0.037c-0.046,0.01-0.085,0.023-0.123,0.035
			c-0.039,0.013-0.072,0.027-0.096,0.041c-0.048,0.028-0.063,0.053-0.035,0.072c0.025,0.019,0.102,0.03,0.211,0.037
			c0.107,0.008,0.263,0.011,0.463,0.019c0.177-0.007,0.336-0.008,0.467-0.017c0.133-0.008,0.227-0.027,0.286-0.051l0.114-0.008
			c0.716-0.074,1.372-0.1,2.033-0.081c0.661,0.021,1.329,0.09,2.052,0.252c0.013,0.052,0.349,0.183,0.748,0.343
			c0.399,0.161,0.859,0.355,1.147,0.499c-0.14-0.006-0.32-0.054-0.53-0.116c-0.104-0.031-0.214-0.069-0.328-0.108
			c-0.115-0.039-0.234-0.079-0.354-0.119c0.293,0.118,0.791,0.326,1.147,0.495L49.65,1.889z"/>
		<path fill="#D14927" d="M45.421,0.826c0.045,0.016,0.093,0.029,0.142,0.042C45.539,0.856,45.496,0.843,45.421,0.826z"/>
		<path fill="#D14927" d="M48.106,1.441l-0.011,0.007c0.051,0.016,0.101,0.034,0.153,0.051C48.198,1.478,48.141,1.455,48.106,1.441z
			"/>
		<path fill="#D14927" d="M40.657,1.472c-0.053,0.032-0.099,0.057-0.144,0.082c-0.036,0.019-0.07,0.038-0.11,0.064
			c0.053-0.025,0.11-0.047,0.198-0.087C40.675,1.49,40.712,1.467,40.657,1.472z"/>
		<path fill="#D14927" d="M40.272,1.419l0.032-0.047c-0.037,0.006-0.063,0.01-0.095,0.015C40.205,1.408,40.221,1.422,40.272,1.419z"
			/>
		<path fill="#D14927" d="M54.495,6.208l0.123,0.105C54.554,6.243,54.519,6.217,54.495,6.208z"/>
		<path fill="#D14927" d="M51.287,2.895c-0.258-0.131-0.291-0.109-0.353-0.103c-0.031,0.003-0.067,0.003-0.143-0.022
			c-0.079-0.026-0.197-0.078-0.387-0.176l0.219,0.122c-0.29-0.117-0.674-0.3-1.077-0.486c-0.403-0.186-0.824-0.374-1.177-0.509
			c0.106-0.018-0.394-0.228-0.273-0.273c-0.5-0.164-1.009-0.306-1.306-0.296c-0.304-0.123-0.82-0.166-1.226-0.284
			c0.082,0.041-0.079,0.057-0.129,0.078c-0.051,0.023,0.009,0.039,0.516,0.119c-0.083-0.011-0.036,0.012-0.117,0.002
			c0.615,0.213,0.904,0.169,1.436,0.336c0.147,0.075,0.009,0.052-0.128,0.025c-0.136-0.028-0.277-0.053-0.131,0
			c0.337,0.082,0.842,0.267,1.25,0.43c0.411,0.159,0.739,0.281,0.77,0.187c0.456,0.187,0.491,0.255,0.602,0.347
			c0.203,0.036,0.46,0.14,0.733,0.271c0.134,0.066,0.277,0.14,0.411,0.214c0.131,0.074,0.263,0.148,0.389,0.219
			c0.135,0.073,0.264,0.143,0.384,0.205c0.12,0.066,0.231,0.129,0.328,0.175c0.195,0.092,0.324,0.141,0.368,0.087
			c-0.124-0.075-0.293-0.167-0.479-0.264c-0.046-0.024-0.094-0.049-0.143-0.072c-0.048-0.021-0.097-0.042-0.146-0.063
			c-0.098-0.042-0.199-0.081-0.299-0.116L51.287,2.895z"/>
		<path fill="#D14927" d="M41.589,1.173c0.043-0.013,0.102-0.031,0.139-0.038C41.686,1.145,41.635,1.158,41.589,1.173z"/>
		<path fill="#D14927" d="M34.028,3.186l0.101-0.266c0.596-0.374,1.035-0.617,1.468-0.837c0.436-0.219,0.86-0.424,1.505-0.693
			c0.112-0.018-0.041,0.057-0.114,0.098c0.11-0.05,0.233-0.099,0.358-0.15c0.126-0.052,0.253-0.095,0.385-0.144l0.049-0.018
			l0.063-0.022l0.127-0.043c0.088-0.027,0.182-0.055,0.271-0.079c0.178-0.046,0.353-0.084,0.511-0.112
			c0.321-0.059,0.583-0.093,0.784-0.132c0.202-0.038,0.34-0.077,0.43-0.119c0.02-0.005,0.045-0.01,0.072-0.015
			c0.024-0.006,0.05-0.011,0.078-0.015c0.079-0.023,0.161-0.047,0.24-0.07c0.044-0.009,0.094-0.012,0.139-0.018
			c0.023-0.003,0.045,0.224,0.067,0.221C40.577,0.771,40.577,1,40.582,1h0.011c0.015,0,0.029,0,0.043,0
			c0.012,0,0.016-0.227,0.024-0.226c0.014,0.003,0.025-0.108,0.032-0.104c0.015,0.008,0.019-0.036-0.002-0.017
			c0.022-0.014,0.042-0.055,0.07-0.071c0.027-0.014,0.065-0.046,0.135-0.071c0.016,0.01,0.007,0.017-0.017,0.032
			c-0.018,0.013-0.05,0.024-0.071,0.033c-0.045,0.02-0.076,0.029-0.07,0.054c0.048-0.01,0.076-0.009,0.083-0.033
			c-0.039,0.043,0.012,0.08,0.011,0.129c-0.001,0.024-0.012,0.051-0.053,0.077c-0.022,0.013-0.044,0.026-0.107,0.041l-0.011,0.003
			c-0.003,0.001-0.007,0.002-0.017,0.004c-0.017,0.003-0.035,0.007-0.053,0.01c-0.036,0.007-0.075,0.014-0.115,0.021
			c-0.035,0.012-0.071,0.025-0.11,0.038c-0.036,0.012-0.074,0.025-0.114,0.039c-0.073-0.017-0.082-0.034-0.061-0.052
			c0.005-0.004,0.013-0.009,0.022-0.013l0.014-0.007c0.012-0.005,0.025-0.01,0.039-0.015c0.055-0.021,0.119-0.045,0.186-0.069
			c0.039-0.007,0.078-0.014,0.117-0.022c0.019-0.004,0.039-0.007,0.058-0.011c0.017-0.003,0.018-0.005,0.027-0.007
			c0.03-0.008,0.057-0.017,0.065-0.027c0.024-0.019,0.025-0.041-0.011-0.074c-0.017,0.004-0.028,0.008-0.051,0.013
			c-0.01,0.003-0.018,0.005-0.027,0.008l-0.012,0.004l-0.005,0.002l-0.013,0.003c-0.071,0.018-0.114,0.033-0.14,0.046
			c-0.027,0.012-0.035,0.026-0.04,0.037c-0.005,0.011-0.006,0.019-0.015,0.027c-0.072,0.024-0.141,0.047-0.191,0.062
			c-0.024,0.005-0.044,0.009-0.062,0.011c-0.034,0.006-0.062,0.005-0.079,0.001c-0.035-0.007-0.035-0.027-0.034-0.046
			c-0.039,0.037-0.16,0.056-0.304,0.079c-0.143,0.022-0.32,0.048-0.426,0.101c-0.204,0.032-0.322,0.045-0.371,0.042
			c-0.05-0.003-0.037-0.02-0.014-0.04c0.044-0.038,0.137-0.088-0.176-0.033c0,0-0.083,0.057-0.167,0.114
			c-0.042,0.03-0.084,0.059-0.115,0.081c-0.032,0.023-0.053,0.039-0.053,0.039s-0.018,0.004-0.048,0.011
			c-0.031,0.007-0.074,0.015-0.129,0.03c-0.11,0.027-0.254,0.069-0.381,0.111c-0.111,0.036-0.223,0.073-0.307,0.1
			c-0.042,0.013-0.077,0.026-0.102,0.035c-0.025,0.009-0.039,0.014-0.039,0.014c-0.317,0.139-0.445,0.227-0.494,0.281
			c-0.048,0.054-0.012,0.079,0.019,0.106c0.064,0.057,0.092,0.119-0.548,0.481c0.128-0.159-0.497-0.02-1.109,0.283
			c0.087-0.05,0.19-0.116,0.305-0.189c0.113-0.073,0.239-0.154,0.372-0.233c0.262-0.161,0.556-0.316,0.82-0.41
			c-0.385,0.109-0.151-0.01,0.141-0.143c0.073-0.033,0.148-0.068,0.217-0.1c0.071-0.031,0.134-0.061,0.182-0.086
			c0.095-0.051,0.124-0.084,0.009-0.078c-0.345,0.206-0.926,0.481-1.382,0.674c0,0,0.033-0.021,0.067-0.043
			c0.034-0.021,0.068-0.042,0.068-0.042c-0.479,0.222-0.716,0.547-1.353,0.834c-0.291,0.174-0.265,0.105-0.238,0.044
			C34.248,3.06,34.053,3.214,34.028,3.186z M34.642,2.788l0.411-0.214C34.939,2.605,34.792,2.691,34.642,2.788z"/>
		<path fill="#D14927" d="M5.848,27.081c0.02,0.035,0.044,0.075,0.062,0.107C5.901,27.161,5.876,27.122,5.848,27.081z"/>
		<path fill="#D14927" d="M21.853,8.434l-0.229-0.096C21.712,8.379,21.785,8.408,21.853,8.434z"/>
		<path fill="#D14927" d="M16.319,7.771l-0.357,0.023C16.101,7.797,16.212,7.787,16.319,7.771z"/>
		<path fill="#D14927" d="M4.278,24.767l-0.005-0.01c-0.013-0.015-0.023-0.026-0.036-0.042L4.278,24.767z"/>
		<path fill="#D14927" d="M5.868,10.159c-0.051,0.02-0.107,0.045-0.178,0.084C5.71,10.25,5.775,10.217,5.868,10.159z"/>
		<path fill="#D14927" d="M16.384,7.767c-0.009-0.002-0.014-0.003-0.021-0.004c-0.014,0.003-0.03,0.005-0.045,0.008L16.384,7.767z"
			/>
		<path fill="#D14927" d="M23.786,9.845c0.049,0.019,0.093,0.037,0.146,0.058C23.867,9.87,23.823,9.857,23.786,9.845z"/>
		<path fill="#D14927" d="M23.758,9.303c0.053,0.022,0.104,0.043,0.146,0.056L23.758,9.303z"/>
		<path fill="#D14927" d="M31.478,7.723c0,0,0.053-0.055,0.106-0.11c0.054-0.054,0.108-0.108,0.108-0.108
			C31.578,7.605,31.518,7.672,31.478,7.723z"/>
		<path fill="#D14927" d="M24.459,9.807c0.021,0.003,0.042,0.007,0.058,0.007C24.475,9.796,24.45,9.793,24.459,9.807z"/>
		<polygon fill="#D14927" points="6.653,28.962 6.64,28.947 6.617,28.951 		"/>
		<path fill="#D14927" d="M7.379,29.438c0.064,0.069,0.131,0.141,0.196,0.212C7.508,29.567,7.437,29.491,7.379,29.438z"/>
		<path fill="#D14927" d="M3.009,13.32c-0.055,0.066-0.156,0.232-0.152,0.142C2.836,13.616,2.93,13.633,3.009,13.32z"/>
		<path fill="#D14927" d="M4.692,28.27c0.052,0.031,0.109,0.073,0.166,0.116C4.759,28.302,4.676,28.226,4.692,28.27z"/>
		<path fill="#D14927" d="M4.858,28.385c0.049,0.041,0.1,0.086,0.146,0.121C4.955,28.463,4.906,28.422,4.858,28.385z"/>
		<path fill="#D14927" d="M2.636,10.818c0.025-0.012,0.057-0.034,0.091-0.07C2.697,10.746,2.668,10.774,2.636,10.818z"/>
		<path fill="#D14927" d="M7.7,29.842c0.07,0.017,0.959,0.914,0.295,0.107c0.139-0.04,0.487,0.479,0.701,0.671
			c-0.108-0.17,0.138,0.031,0.137-0.041c-0.105-0.096-0.246-0.199-0.386-0.378c-0.017-0.112,0.241,0.13,0.402,0.346
			c-0.162-0.289,0.367,0.263,0.101-0.122c-0.701-0.738-1.199-1.254-1.81-1.701c0.192,0.214,0.405,0.437,0.597,0.657
			c0.191,0.22,0.37,0.433,0.502,0.627l-0.226-0.09c-0.133-0.229-0.263-0.398-0.405-0.559c-0.14-0.162-0.294-0.316-0.453-0.521
			c0,0,0.043,0.059,0.107,0.147c0.066,0.088,0.154,0.204,0.242,0.321c0.176,0.234,0.352,0.467,0.352,0.467
			c0.281,0.47,0.018,0.202-0.279-0.121C7.643,29.732,7.699,29.81,7.7,29.842z"/>
		<path fill="#D14927" d="M6.333,29.754l0.01,0.017c0.015,0.011,0.031,0.027,0.042,0.033L6.333,29.754z"/>
		<path fill="#D14927" d="M29.686,6.324l0.051-0.101C29.682,6.297,29.671,6.324,29.686,6.324z"/>
		<path fill="#D14927" d="M6.358,28.919L6.358,28.919L6.358,28.919z"/>
		<path fill="#D14927" d="M27.729,8.231c0,0,0-0.01,0.002-0.017C27.727,8.224,27.73,8.226,27.729,8.231z"/>
		<path fill="#D14927" d="M29.494,9.988c0.009-0.003,0.014-0.003,0.028-0.014C29.56,9.903,29.534,9.934,29.494,9.988z"/>
		<path fill="#D14927" d="M27.737,8.238l-0.008-0.007L27.737,8.238z"/>
		<path fill="#D14927" d="M17.626,5.976c0,0,0.041,0.023,0.108,0.049C17.762,6.019,17.737,6.005,17.626,5.976z"/>
		<path fill="#D14927" d="M20.297,6.629c0.015,0.008,0.024,0.014,0.044,0.024L20.297,6.629z"/>
		<path fill="#D14927" d="M3.73,13.002c0.048-0.099,0.079-0.174,0.104-0.239C3.797,12.835,3.761,12.913,3.73,13.002z"/>
		<path fill="#D14927" d="M27.731,8.214c0.008-0.029,0.024-0.067,0.055-0.128C27.751,8.153,27.736,8.19,27.731,8.214z"/>
		<path fill="#D14927" d="M13.448,6.445c0.028-0.007,0.054-0.013,0.081-0.019l-0.05-0.001L13.448,6.445z"/>
		<path fill="#D14927" d="M12.042,6.551c0.045-0.02,0.064-0.036,0.088-0.051c-0.121,0.033-0.269,0.065-0.425,0.097
			c-0.155,0.033-0.319,0.059-0.466,0.1c-0.296,0.075-0.542,0.147-0.577,0.211c0.082-0.02,0.342-0.063,0.563-0.089
			c0.221-0.029,0.409-0.024,0.344,0.019c0.166-0.044,0.38-0.071,0.573-0.092c0.194-0.021,0.37-0.025,0.46-0.048
			c-0.573,0.019-0.08-0.082,0.297-0.172c0.352-0.014-0.051,0.091,0.251,0.079c0,0,0.2-0.022,0.401-0.044
			c0.1-0.011,0.201-0.282,0.276-0.29C13.9,6.262,13.951,6,13.951,6s-0.011,0-0.03,0c-0.019,0-0.047,0.262-0.08,0.265
			C13.775,6.27,13.687,6.407,13.6,6.413c-0.176,0.013-0.351,0.091-0.351,0.091l0.2-0.092c-0.026,0.006-0.043,0.027-0.071,0.033
			c-0.148,0.02-0.262,0.041-0.348,0.049c-0.086,0.011-0.146,0.02-0.189,0.02c-0.086,0.001-0.103-0.014-0.12-0.03
			c-0.018-0.016-0.036-0.03-0.126-0.026c-0.045,0.002-0.108,0.009-0.197,0.022C12.307,6.495,12.191,6.512,12.042,6.551z"/>
		<path fill="#D14927" d="M12.129,6.5c0.073-0.021,0.137-0.035,0.186-0.054C12.203,6.463,12.161,6.479,12.129,6.5z"/>
		<path fill="#D14927" d="M7.38,7.745C7.327,7.774,7.27,7.807,7.199,7.849C7.233,7.83,7.312,7.784,7.38,7.745z"/>
		<path fill="#D14927" d="M37.859,2.288c-0.017-0.01-0.196,0.033-0.363,0.093c-0.165,0.061-0.32,0.132-0.292,0.166
			c0.192-0.075,0.385-0.151,0.585-0.218L37.859,2.288z"/>
		<path fill="#D14927" d="M1.352,17.413c0.008-0.066,0.014-0.132,0.017-0.198c-0.004-0.014-0.008-0.028-0.012-0.039
			C1.341,17.216,1.348,17.347,1.352,17.413z"/>
		<path fill="#D14927" d="M11.37,6.916c0.119-0.04,0.172-0.059,0.199-0.078C11.49,6.859,11.418,6.882,11.37,6.916z"/>
		<path fill="#D14927" d="M1.125,17.443c-0.031,0.084-0.071,0.209-0.108,0.227c-0.003,0.176,0.046,0.299,0.062,0.477
			C1.068,17.946,1.077,17.712,1.125,17.443z"/>
		<path fill="#D14927" d="M1.081,18.161l-0.002-0.014L1.081,18.161z"/>
		<path fill="#D14927" d="M38.262,2.178c0.055-0.025,0.113-0.052,0.175-0.077c0,0-0.022,0.012-0.043,0.025
			c-0.021,0.013-0.043,0.026-0.043,0.026c0.16-0.047,0.325-0.081,0.487-0.106c0.057-0.018,0.118-0.034,0.195-0.051
			c-0.031,0.008-0.053,0.021-0.065,0.033c0.053-0.007,0.105-0.013,0.156-0.018c0.181-0.074,0.512-0.151,0.807-0.232
			c0.148-0.041,0.288-0.083,0.399-0.127c0.115-0.043,0.191-0.081,0.271-0.122c0.024-0.01,0.048-0.021,0.072-0.031
			c0.024-0.01,0.053-0.014,0.081-0.021c0.062-0.013,0.099-0.025,0.14-0.037c0.078-0.024,0.15-0.049,0.222-0.078
			c0.071-0.028,0.143-0.06,0.22-0.094c0.038-0.016,0.078-0.033,0.125-0.051c0.044-0.017,0.087-0.032,0.128-0.045
			c-0.037,0.012-0.076,0.026-0.114,0.041c-0.038,0.015-0.077,0.031-0.106,0.044c-0.061,0.027-0.112,0.052-0.152,0.072
			c-0.079,0.04-0.118,0.07-0.068,0.077c0.234-0.048,0.511-0.138,0.837-0.153c0.12-0.007,0.253-0.015,0.409-0.024
			c0.153-0.009,0.329-0.016,0.526-0.032c0,0-0.132-0.007-0.272-0.011c-0.139-0.004-0.283,0.001-0.283,0.001
			c0.391-0.069,0.816-0.065,1.037-0.156l0.076-0.005l0.094-0.011c0.193,0.038,0.094,0.056-0.094,0.07l-0.065,0.004
			c-0.071,0.023-0.187,0.038-0.306,0.047c-0.118,0.009-0.236,0.016-0.284,0.032c0.243-0.01,0.447-0.075,0.603-0.091L43.467,1h0.012
			c0.656,0,1.154,0.275,1.502,0.204c0.021,0.051,0.05,0.156,0.147,0.223c0.098,0.067,0.264,0.148,0.56,0.21
			c-0.4-0.194,0.378,0.021,0.057-0.164c0.056-0.001,0.126,0.013,0.199,0.03c0.073,0.018,0.149,0.044,0.221,0.065
			c0.143,0.043,0.264,0.079,0.293,0.053l-0.069,0.021c0.476,0.212,0.806,0.3,1.082,0.346c0.137,0.023,0.261,0.034,0.379,0.045
			c0.117,0.013,0.228,0.025,0.34,0.049c0.586,0.215,0.995,0.405,1.368,0.594c0.188,0.093,0.364,0.189,0.553,0.285
			c0.185,0.099,0.386,0.201,0.598,0.312c-0.002,0.035,0.03,0.12,0.106,0.219c0.078,0.098,0.202,0.208,0.38,0.295
			c0.054,0.003,0.143,0.034,0.252,0.074c0.107,0.042,0.237,0.09,0.356,0.147c0.121,0.055,0.241,0.108,0.34,0.145
			c0.098,0.038,0.174,0.063,0.212,0.055c-0.571-0.427-0.556-0.245-0.943-0.437c-0.12-0.136-0.112-0.16-0.119-0.191
			c-0.008-0.03-0.034-0.062-0.231-0.202c0.081,0.056,0.223,0.125,0.395,0.218c0.17,0.096,0.376,0.199,0.568,0.319
			c0.394,0.23,0.759,0.502,0.889,0.67L52.78,4.504c0.252,0.225,0.337,0.416,0.491,0.614c0.073,0.102,0.16,0.208,0.29,0.327
			c0.064,0.06,0.135,0.126,0.221,0.196c0.086,0.07,0.187,0.144,0.298,0.23c0,0,0.105,0.083,0.21,0.166
			c0.054,0.041,0.103,0.085,0.142,0.117c0.038,0.032,0.063,0.054,0.063,0.054c-0.027-0.012-0.04-0.007-0.058-0.011
			c0.281,0.317,0.337,0.46,0.425,0.595c0.043,0.068,0.085,0.14,0.161,0.234c0.038,0.048,0.083,0.101,0.139,0.165
			c0.054,0.065,0.117,0.139,0.195,0.227c-0.048-0.054-0.034-0.012-0.083-0.067c0.241,0.455,0.631,0.841,0.839,1.185
			c0.017,0.247-0.121-0.016-0.258-0.118c0.048,0.101,0.1,0.202,0.154,0.302c0.047,0.103,0.095,0.205,0.142,0.307
			c0.049,0.102,0.099,0.202,0.151,0.301c0.026,0.049,0.053,0.098,0.079,0.147c0.024,0.049,0.045,0.098,0.068,0.146
			c0.09,0.193,0.182,0.376,0.27,0.542c0.047,0.083,0.079,0.164,0.115,0.24c0.036,0.076,0.069,0.146,0.1,0.211
			c0,0,0.017,0.142,0.035,0.285c0.022,0.142,0.024,0.285,0.024,0.285c-0.012-0.041-0.025-0.083-0.039-0.125
			c-0.016-0.042-0.034-0.083-0.052-0.123c-0.036-0.08-0.074-0.155-0.109-0.216c-0.07-0.122-0.129-0.189-0.149-0.134
			c0.045,0.149,0.077,0.208,0.107,0.283c0.028,0.075,0.066,0.166,0.085,0.384c-0.039-0.033-0.08-0.092-0.126-0.167
			c-0.05-0.074-0.11-0.162-0.174-0.256c0.012,0.111,0.025,0.197,0.039,0.264c0.01,0.067,0.02,0.115,0.033,0.148
			c0.024,0.068,0.053,0.081,0.078,0.086c0.049,0.01,0.082-0.01,0.029,0.312c0.047,0.277,0.149,0.434,0.233,0.459l-0.063,0.517
			c0.025,0.013,0.053,0.062,0.068,0.136c0.016,0.073,0.028,0.171,0.038,0.279c0.009,0.109,0.016,0.229,0.022,0.348
			c0.002,0.059,0.007,0.119,0.007,0.176c-0.001,0.057-0.002,0.113-0.003,0.165c0.021,0.026,0.052-0.057,0.075-0.167
			c0.018-0.11,0.021-0.247,0-0.326c0.04,0.015,0.071,0.135,0.093,0.287c0.014,0.152,0.011,0.336,0.004,0.479
			c-0.055,0.024-0.087,0.153-0.107,0.328c-0.025,0.174-0.053,0.393-0.074,0.599c-0.011,0.103-0.022,0.202-0.035,0.29
			c-0.018,0.088-0.035,0.164-0.054,0.223c-0.037,0.116-0.077,0.158-0.125,0.067c-0.021,0.159-0.043,0.326-0.066,0.498
			c-0.032,0.171-0.069,0.346-0.105,0.525c-0.018,0.089-0.037,0.179-0.056,0.269c-0.019,0.09-0.047,0.178-0.07,0.268
			c-0.048,0.178-0.097,0.356-0.144,0.53c-0.051,0.174-0.112,0.342-0.164,0.505c-0.056,0.163-0.099,0.323-0.16,0.468
			c-0.055,0.147-0.107,0.286-0.155,0.412c-0.047,0.127-0.084,0.245-0.127,0.345c-0.187,0.238-0.459,0.756-0.389,0.408
			c-0.03,0.059-0.058,0.116-0.086,0.172c-0.03,0.055-0.059,0.108-0.088,0.16c-0.056,0.105-0.106,0.205-0.154,0.303
			c-0.046,0.098-0.091,0.193-0.135,0.286c-0.048,0.091-0.096,0.181-0.143,0.27c-0.048,0.089-0.097,0.179-0.146,0.27
			c-0.022,0.04-0.045,0.081-0.068,0.122c-0.012,0.018-0.019,0.039-0.027,0.058c-0.011,0.023-0.021,0.046-0.032,0.07
			c-0.091,0.196-0.204,0.401-0.353,0.624c-0.067,0.066,0.24-0.416,0.155-0.411c-0.131,0.318-0.314,0.581-0.532,0.877
			c-0.219,0.296-0.471,0.627-0.766,1.079c0.105-0.149,0.096-0.213,0.092-0.243c0.042,0.001-0.195,0.394-0.338,0.634
			c-0.112,0.117,0.106-0.18,0.029-0.122c-0.168,0.204-0.332,0.402-0.491,0.595c-0.16,0.194-0.315,0.379-0.457,0.567
			c-0.287,0.375-0.54,0.752-0.79,1.133c-0.25,0.38-0.497,0.764-0.774,1.152c-0.138,0.195-0.283,0.389-0.442,0.587
			c-0.163,0.202-0.344,0.397-0.539,0.587c0.223-0.217,0.341-0.397,0.398-0.52c0.056-0.126,0.054-0.195,0.032-0.212
			c0,0-0.097,0.114-0.198,0.225c-0.101,0.111-0.206,0.218-0.206,0.218c-0.105,0.207-0.435,0.519-0.672,0.803
			c-0.053,0.016-0.208,0.122-0.096-0.023c-0.484,0.356-0.77,0.709-1.017,1.101c-0.249,0.401-0.515,0.842-1,1.365L47.383,30
			c0,0-0.089,0.068-0.177,0.136c-0.088,0.069-0.177,0.138-0.177,0.138s0.095-0.161,0.19-0.321c0.096-0.162,0.204-0.319,0.204-0.319
			c-0.189,0.146-0.309,0.326-0.392,0.459c-0.085,0.134-0.142,0.229-0.203,0.223c0.036-0.088,0.192-0.259,0.149-0.293
			c-0.312,0.31-0.269,0.376-0.46,0.636c0.093-0.191,0.23-0.415,0.392-0.655c0.079-0.117,0.172-0.248,0.273-0.374
			c0.1-0.127,0.21-0.251,0.321-0.373c0.45-0.486,0.937-0.925,1.227-1.255c0.085-0.108-0.044,0.114-0.046,0.144
			c0.256-0.261,0.457-0.374,0.715-0.743c0.104-0.266-0.192,0.138-0.345,0.289c-0.022-0.033-0.012-0.068,0.019-0.119
			c0.031-0.052,0.086-0.116,0.161-0.216c0.061,0.006,0.287-0.253,0.528-0.546c0.242-0.292,0.502-0.615,0.655-0.715
			c0.39-0.548,0.302-0.538,0.216-0.519c-0.084,0.019-0.167,0.046,0.259-0.474l0.349-0.257c0.101-0.163,0.218-0.34,0.339-0.516
			c0.117-0.172,0.239-0.351,0.363-0.533c0.247-0.363,0.499-0.735,0.747-1.076l-0.097,0.148c-0.022,0.12,0.117-0.026,0.189-0.086
			c0.406-0.507,0.567-1.052,0.863-1.337c0.03-0.084,0.063-0.175,0.097-0.271c0.009-0.024,0.018-0.048,0.027-0.073
			c0.013-0.031,0.026-0.063,0.04-0.095l0.026-0.047l0.032-0.056c0.013-0.024,0.025-0.049,0.038-0.074
			c0.052-0.099,0.106-0.201,0.161-0.305c0.054-0.105,0.118-0.207,0.165-0.317c0.103-0.217,0.207-0.436,0.307-0.647
			c0.089-0.214,0.173-0.419,0.25-0.602c0.125-0.069,0.036,0.174-0.092,0.479c-0.033,0.076-0.064,0.157-0.103,0.235
			c-0.039,0.078-0.077,0.155-0.113,0.228c-0.071,0.146-0.129,0.277-0.15,0.36c0,0,0.095-0.159,0.19-0.319
			c0.047-0.08,0.095-0.159,0.131-0.219c0.037-0.059,0.056-0.101,0.056-0.101c-0.111,0.2-0.183,0.341-0.227,0.471
			c-0.048,0.128-0.066,0.245-0.106,0.379c0.19-0.272,0.271-0.474,0.349-0.67c0.041-0.097,0.067-0.199,0.104-0.309
			c0.037-0.11,0.08-0.23,0.141-0.37c0.009,0.029,0.03,0.027,0.064-0.013c0.034-0.04,0.086-0.118,0.141-0.248l-0.068-0.107
			c0.01-0.002,0.03-0.028,0.072-0.105c0,0,0.024-0.063,0.059-0.158c0.033-0.095,0.087-0.219,0.125-0.348
			c0.079-0.256,0.157-0.513,0.157-0.513c-0.124,0.202-0.217,0.187-0.314,0.445c0.047-0.037,0.053-0.001,0.035,0.078
			c-0.019,0.079-0.071,0.196-0.128,0.323c0.033-0.243-0.165,0.23-0.217,0.206c0.112-0.253,0.243-0.534,0.328-0.803
			c0.092-0.267,0.177-0.512,0.209-0.689l0.13-0.09c0.045-0.124,0.085-0.251,0.123-0.377c0.037-0.126,0.059-0.253,0.086-0.374
			c0.05-0.242,0.105-0.462,0.145-0.635l0.032,0.117c0.149-0.613,0.175-1.227,0.301-1.776c-0.021-0.141-0.04-0.289-0.058-0.44
			c-0.007-0.076-0.022-0.152-0.037-0.227c-0.014-0.076-0.028-0.151-0.042-0.226c-0.028-0.149-0.056-0.294-0.086-0.43
			c-0.039-0.135-0.077-0.26-0.116-0.369c-0.037-0.057-0.053-0.186-0.06-0.356c-0.016-0.169-0.033-0.379-0.049-0.601
			c-0.004-0.056-0.009-0.112-0.014-0.169c-0.006-0.056-0.018-0.112-0.027-0.168c-0.02-0.112-0.042-0.223-0.067-0.329
			c-0.026-0.106-0.049-0.208-0.086-0.298c-0.039-0.09-0.08-0.171-0.125-0.239c0-0.021,0.055,0.074,0.125,0.199
			c0.037,0.062,0.067,0.134,0.098,0.202c0.031,0.068,0.061,0.132,0.084,0.182c-0.018-0.101-0.046-0.195-0.077-0.281
			c-0.03-0.086-0.074-0.162-0.105-0.231c-0.065-0.138-0.105-0.244-0.06-0.321c0.236,0.892,0.088-0.071,0.252,0.319
			c-0.069-0.208-0.139-0.423-0.216-0.604c-0.086-0.177-0.167-0.327-0.229-0.417c0.265,0.643-0.269-0.173,0.053,0.457
			c-0.079-0.117-0.157-0.246-0.234-0.383c-0.038-0.068-0.076-0.139-0.113-0.21c-0.04-0.07-0.087-0.138-0.129-0.209
			c-0.081-0.14-0.179-0.288-0.264-0.437c-0.089-0.147-0.179-0.293-0.261-0.437c0.054-0.02,0.03-0.099-0.094-0.315
			c0,0-0.046-0.032-0.096-0.063c-0.049-0.031-0.097-0.061-0.097-0.061c-0.089-0.129,0.024-0.02,0.115,0.058
			c0.046,0.038,0.083,0.071,0.09,0.059c0.007-0.012-0.019-0.067-0.111-0.197c-0.254-0.232-0.559-0.62-0.871-0.952
			c-0.309-0.334-0.631-0.6-0.835-0.616c-0.153-0.2,0.046-0.057,0.227,0.066c0.091,0.06,0.172,0.119,0.203,0.123
			c0.029,0.006,0.015-0.049-0.109-0.195c0.411,0.247,0.759,0.757,0.956,0.801c-0.162-0.155-0.168-0.199-0.157-0.232
			c0.011-0.033,0.04-0.054-0.061-0.158c0,0-0.103-0.078-0.206-0.156c-0.106-0.075-0.212-0.149-0.212-0.149l0.076,0.079
			c-0.346-0.257-0.766-0.603-1.236-0.939c-0.235-0.168-0.48-0.334-0.73-0.487c-0.251-0.153-0.5-0.293-0.763-0.417
			c-0.228-0.08-0.464-0.175-0.676-0.247c-0.211-0.072-0.415-0.141-0.625-0.213c-0.417-0.143-0.845-0.302-1.369-0.525
			c0.172,0.037-0.037-0.075-0.203-0.163c-0.165-0.09-0.285-0.17,0.083-0.094c-0.467-0.256-1.001-0.351-1.03-0.307
			c0.434,0.161,0.149,0.065,0.507,0.218c-0.275-0.041-0.847-0.224-1.072-0.327c0.109,0.036,0.071,0.013,0.102,0.002
			c-0.128-0.049-0.211-0.073-0.267-0.082c-0.056-0.01-0.087-0.008-0.113-0.002c-0.053,0.012-0.09,0.032-0.285-0.001
			c-0.024-0.027-0.089-0.053-0.177-0.079c-0.089-0.026-0.202-0.054-0.323-0.073c-0.121-0.019-0.249-0.045-0.368-0.061
			c-0.119-0.017-0.23-0.035-0.317-0.057c0,0-0.033,0.002-0.082,0.01c-0.049,0.008-0.114,0.018-0.179,0.028
			c-0.064,0.01-0.129,0.02-0.177,0.027c-0.048,0.006-0.08,0.015-0.08,0.015c0.203-0.05-0.138-0.051-0.371-0.075l0.162-0.011
			c-0.185,0.018-0.309,0.008-0.346-0.011c-0.275,0.03-0.464,0.046-0.631,0.069c-0.126,0.017-0.264,0.036-0.436,0.059
			c-0.017,0.002-0.037,0.004-0.056,0.007c0.044-0.03-0.015-0.037-0.094-0.031c-0.021,0.002-0.038,0.003-0.063,0.007
			c-0.043,0.01-0.085,0.02-0.121,0.028c-0.086,0.02-0.163,0.03-0.175,0.013c-0.168,0.052-0.356,0.101-0.516,0.134
			c-0.034,0.007-0.068,0.014-0.102,0.021l-0.043,0.009c-0.015,0.005-0.033,0.013-0.048,0.02c-0.018,0.008-0.028,0.013-0.052,0.023
			c-0.281,0.103-0.539,0.181-0.778,0.246c-0.479,0.129-0.873,0.21-1.226,0.245c0.014-0.023,0.141-0.111-0.073-0.076
			c-0.039,0.016-0.085,0.035-0.134,0.055c-0.062,0.024-0.129,0.049-0.196,0.075c-0.143,0.051-0.277,0.107-0.378,0.152l0.005-0.005
			l-0.01,0.006c-0.099,0.043-0.157,0.083-0.15,0.101c-0.156,0.11-0.266,0.207-0.418,0.321c-0.152,0.117-0.345,0.253-0.663,0.462
			c0.107,0.048,0.653-0.276,0.884-0.411c0,0,0.041-0.045,0.082-0.09c0.041-0.044,0.083-0.088,0.083-0.088
			c0.14,0.017,0.288-0.054,0.426-0.127c0.034-0.019,0.068-0.038,0.101-0.056c0.035-0.017,0.068-0.034,0.1-0.05
			c0.064-0.03,0.121-0.052,0.167-0.056c-0.186,0.152-0.554,0.327-0.97,0.548c-0.414,0.218-0.87,0.479-1.188,0.716
			c0.254-0.066,0.613-0.218,1.003-0.389c0.195-0.086,0.398-0.176,0.6-0.261c0.101-0.043,0.202-0.087,0.301-0.126
			c0.05-0.02,0.099-0.041,0.148-0.061c0.052-0.02,0.104-0.04,0.156-0.059c0,0-0.097,0.021-0.194,0.041
			c-0.093,0.022-0.186,0.044-0.186,0.044s0.103-0.041,0.205-0.083c0.109-0.04,0.218-0.08,0.218-0.08s-0.117,0.016-0.235,0.032
			c-0.113,0.018-0.225,0.036-0.225,0.036c0.195-0.072,0.378-0.138,0.555-0.203c0.033-0.014,0.06-0.02,0.09-0.03
			c0.027-0.01,0.064-0.018,0.095-0.027c0.067-0.017,0.145-0.033,0.231-0.047c-0.199,0.036-0.307,0.033-0.361,0.019
			c-0.054-0.015-0.054-0.044,0.036-0.058c0.195-0.001,0.315-0.035,0.424-0.078c0.115-0.043,0.21-0.093,0.447-0.124
			c-0.268,0.029-0.546,0.069-0.371-0.011c0.419-0.004,0.768-0.04,1.113-0.108c0.09-0.02,0.176-0.036,0.271-0.06
			c0.047-0.012,0.095-0.023,0.143-0.036c0.025-0.006,0.035-0.007,0.053-0.01l0.025-0.003l0.017,0.003L41.187,2.9
			c0.005,0-0.001,0.002,0.018,0c0.028-0.003,0.056-0.006,0.085-0.01c0.119-0.014,0.28-0.041,0.436-0.077
			c-0.039-0.017-0.012-0.044,0.049-0.078c0.063-0.034,0.162-0.078,0.254-0.118c0.034-0.014,0.07-0.03,0.107-0.046
			c0.013-0.005,0.026-0.01,0.039-0.015c0.027-0.009,0.055-0.249,0.08-0.256C42.281,2.289,42.365,2,42.38,2h-0.138
			c-0.009,0-0.019,0.236-0.028,0.236c0.008-0.005,0.017,0.107,0.026,0.103l0.028,0.045l0.015,0.023l0.025,0.007
			c0.036-0.009,0.071-0.011,0.11-0.019c0.078-0.016,0.164-0.025,0.268-0.034c0.161,0.039,0.229,0.068,0.215,0.086
			c-0.012,0.019-0.088,0.031-0.142,0.042C42.705,2.5,42.667,2.511,42.7,2.527c0.016,0.008,0.051,0.018,0.12,0.03
			c0.075,0.012,0.177,0.03,0.391,0.042c0.156,0.002,0.331-0.009,0.485-0.032l-0.222,0.015c0.159,0.002,0.282-0.006,0.387-0.018
			c0.105-0.007,0.193-0.017,0.28-0.029c0.044-0.005,0.087-0.011,0.133-0.016c0.046-0.004,0.094-0.005,0.147-0.006
			c0.053,0,0.11,0.001,0.174,0.004c0.064,0.003,0.135,0.008,0.214,0.022c-0.031,0.006-0.067,0.011-0.107,0.015
			c-0.04,0.006-0.084,0.011-0.132,0.015c-0.095,0.009-0.205,0.011-0.322,0.014c-0.117,0.006-0.244,0.009-0.375,0.006
			c-0.13,0.005-0.264,0.006-0.398,0.001l0.224-0.015c-0.011,0.001-0.023,0.003-0.034,0.004l0.035-0.002l-0.224,0.015l0.312,0.051
			c-0.056,0.015-0.169,0.023-0.313,0.024l0.238-0.016c-0.192,0.03-0.384,0.039-0.542,0.039c-0.16,0-0.289-0.008-0.392-0.013
			c-0.207-0.011-0.319-0.014-0.402-0.011c0.068-0.022,0.118-0.034,0.137-0.044c0.021-0.009,0.012-0.015-0.013-0.018
			c-0.027-0.004-0.07-0.307-0.117-0.306C42.36,2.3,42.334,2,42.309,2c-0.017,0-0.026,0-0.039,0c-0.041,0-0.082,0.303-0.118,0.291
			c0.014,0.043,0.046,0.202,0.06,0.214c0.008,0.007,0.011,0.089,0.009,0.1c0,0-0.004,0.05-0.008,0.059
			c-0.004,0.005,0.002,0.025-0.018,0.038c-0.01,0.006-0.017,0.021-0.032,0.029c-0.014,0.008-0.03,0.021-0.046,0.03
			c0.04-0.016,0.075-0.029,0.108-0.042l0.024,0.14C42.264,2.854,42.278,3,42.292,3c0.008,0,0.015,0,0.025,0c0.021,0,0.048,0,0.076,0
			c0.061,0,0.131-0.142,0.266-0.128c-0.117-0.009-0.191-0.083-0.253-0.078c-0.03,0.003-0.058-0.031-0.082-0.025
			c-0.015,0.004-0.017-0.01-0.024-0.006c-0.026,0.021-0.03,0.041-0.035,0.073c-0.072,0.06-0.228,0.156-0.422,0.246
			c-0.097,0.045-0.204,0.087-0.32,0.125c-0.029,0.009-0.059,0.018-0.089,0.027c-0.025,0.007-0.05,0.014-0.076,0.022l-0.171,0.011
			c-0.011,0.003-0.159,0.008-0.159,0.008V3.28c0,0,0.123,0.009,0.114,0.014l0.051,0.007c-0.035,0.011-0.037,0.021-0.074,0.032
			c-0.076,0.023-0.139,0.044-0.22,0.061c-0.041,0.009-0.075,0.018-0.118,0.027c-0.041,0.007-0.08,0.015-0.124,0.022
			c0.049-0.013,0.093-0.025,0.128-0.035c0.036-0.011,0.068-0.022,0.091-0.031c0.047-0.018,0.069-0.031,0.072-0.039
			c0.005-0.016-0.065-0.015-0.163-0.008c-0.194,0.012-0.474,0.028-0.514,0.012c-0.145,0.027-0.365,0.068-0.578,0.108
			c-0.187,0.036-0.325,0.071-0.396,0.097c0,0,0.01,0.006,0.025,0.015c0.017,0.009,0.039,0.021,0.061,0.034
			c0.022,0.012,0.043,0.025,0.059,0.034c0.016,0.009,0.029,0.015,0.029,0.015c-0.131,0.036-0.217,0.049-0.291,0.052
			c-0.035,0.003-0.063-0.352-0.102-0.35L39.021,3h-0.014l-0.022,0.353l-0.044,0.182c-0.116,0.019-0.243,0.127-0.363,0.171
			c-0.062,0.022-0.126,0.09-0.193,0.124c-0.067,0.035-0.138,0.099-0.212,0.149C38.151,4.032,38.3,3.986,38.44,3.924
			c0.139-0.056,0.27-0.114,0.215-0.083c-0.426,0.213-0.75,0.335-1.08,0.438c-0.331,0.106-0.667,0.197-1.115,0.392
			c-0.023,0.059,0.039,0.12-0.209,0.344c0.042-0.116-0.2-0.024,0.093-0.259c-0.3,0.132-0.598,0.375-0.831,0.548
			c0.622-0.312-0.168,0.232-0.252,0.337c-0.321,0.174,0.046-0.12,0.22-0.249c-0.26,0.129-0.635,0.213-0.704,0.392
			c-0.06-0.061,0.567-0.591,1.005-0.873l-0.316,0.17c0.185-0.158,0.233-0.174,0.544-0.338c-0.337,0.12-0.354,0.048-0.322-0.041
			c0.047-0.013-0.009,0.028,0.036,0.016c0.258-0.126,0.432-0.251,0.347-0.254c0.151-0.216-0.383,0.138-0.586,0.193
			c-0.122,0.08-0.244,0.161-0.363,0.24c0,0-0.267,0.263-0.535,0.525c-0.269,0.26-0.539,0.521-0.539,0.521
			c-0.032,0.021-0.063,0.041-0.093,0.06c-0.015,0.009-0.03,0.019-0.045,0.028c-0.012,0.008-0.025,0.017-0.037,0.025
			c-0.048,0.032-0.095,0.061-0.14,0.087c-0.101,0.061-0.196,0.11-0.287,0.156c-0.184,0.091-0.356,0.164-0.56,0.27l-0.032,0.142
			c-0.427,0.286-0.82,0.56-0.656,0.274c0.039,0.012,0.086-0.034,0.179-0.097c0.002-0.018,0.016-0.04,0.037-0.065
			c0.004-0.01,0.005-0.018,0.008-0.027c-0.421,0.348-0.657,0.58-0.679,0.602c0.299-0.339,0.282-0.375,0.177-0.357
			c-0.103,0.019-0.285,0.098-0.29-0.011c0,0-0.174,0.159-0.341,0.323c-0.083,0.082-0.166,0.164-0.226,0.227
			c-0.061,0.063-0.102,0.106-0.102,0.106c0.235-0.176,0.251-0.161,0.197-0.088c-0.028,0.038-0.073,0.088-0.122,0.143
			c-0.05,0.057,0.381,0.114,0.346,0.153c-0.143-0.006-0.354,0.534-0.354,0.75V8.615c-2,0.093-0.751,0.234-0.887,0.386
			c-0.137,0.152-0.501,0.316-0.587,0.456c0.02,0.002-0.119,0.109-0.134,0.239l-0.064,0.025l-0.042,0.04
			c-0.008,0.027-0.032,0.054-0.04,0.082c-0.02,0.056-0.035,0.109-0.073,0.17c-0.032,0.059-0.068,0.117-0.1,0.17
			c-0.019,0.03-0.022,0.041-0.031,0.061c-0.006,0.016-0.013,0.032-0.018,0.046c0.016-0.015,0.031-0.029,0.045-0.042
			c0.02-0.019,0.038-0.036,0.056-0.053c0.042-0.042,0.08-0.08,0.113-0.113c0.073-0.069,0.099-0.112,0.128-0.146
			c0.055-0.066,0.076-0.079,0.083-0.068c0.014,0.021-0.032,0.141,0.018,0.122c-0.015,0.021-0.033,0.047-0.052,0.073
			c-0.018,0.026-0.051,0.059-0.074,0.087c-0.05,0.057-0.091,0.105-0.095,0.119c-0.048,0.071,0,0.035,0.068-0.024
			c0.065-0.058,0.156-0.141,0.173-0.142l0.103-0.175l0.061-0.106c0.031-0.057,0.069-0.114,0.104-0.17
			c0.074-0.112,0.152-0.223,0.227-0.327c0.15-0.209,0.286-0.395,0.327-0.532c-0.198,0.104-0.194,0.277-0.373,0.408
			c0.126-0.281,0.442-0.564,0.888-0.959c0,0,0.053-0.019,0.105-0.039c0.057-0.023,0.114-0.046,0.114-0.046s0.029-0.03,0.073-0.075
			c0.039-0.042,0.09-0.098,0.142-0.154c0.096-0.102,0.192-0.204,0.192-0.204c-0.071,0.092-0.062,0.13-0.089,0.193
			c-0.007,0.016-0.015,0.033-0.029,0.055c-0.014,0.023-0.033,0.049-0.058,0.079c-0.026,0.031-0.054,0.066-0.097,0.11
			c-0.023,0.022-0.047,0.047-0.074,0.073c-0.026,0.025-0.054,0.052-0.085,0.081c0.053,0.004,0.201-0.13,0.328-0.267
			c0.032-0.033,0.066-0.069,0.101-0.104c0.034-0.034,0.068-0.07,0.103-0.104c0.071-0.068,0.144-0.134,0.218-0.188
			c0,0,0.014-0.048,0.028-0.096c0.015-0.048,0.03-0.096,0.03-0.096c-0.01,0.084,0.603-0.392,0.236,0.009
			c0,0-0.156,0.156-0.305,0.314c-0.074,0.08-0.148,0.16-0.202,0.221c-0.055,0.062-0.092,0.104-0.092,0.104s0.016-0.008,0.04-0.021
			c0.022-0.011,0.052-0.025,0.082-0.04c0.06-0.029,0.12-0.057,0.12-0.057S31.699,8.023,31.65,8.07
			c-0.053,0.052-0.123,0.12-0.194,0.189c-0.156,0.148-0.311,0.295-0.311,0.295s0.024-0.041,0.048-0.081
			c0.012-0.02,0.024-0.041,0.033-0.056c0.011-0.017,0.018-0.028,0.018-0.028c-0.232,0.233-0.36,0.345-0.453,0.411
			c-0.092,0.065-0.144,0.079-0.196,0.095c-0.052,0.016-0.102,0.033-0.184,0.102c-0.08,0.069-0.198,0.191-0.346,0.41
			c-0.052,0.163-0.123,0.308-0.215,0.47c-0.012,0.02-0.023,0.04-0.036,0.061c-0.022,0.036-0.045,0.073-0.068,0.11
			c-0.031,0.047-0.062,0.096-0.094,0.146c-0.046,0.055-0.098,0.113-0.151,0.17c-0.026,0.027-0.052,0.055-0.079,0.083
			c-0.015,0.016-0.031,0.031-0.047,0.048c-0.028,0.028-0.057,0.057-0.087,0.086c-0.05,0.05-0.103,0.103-0.159,0.159
			c0.061-0.081,0.1-0.135,0.11-0.164c0.013-0.03-0.001-0.035-0.023-0.034c-0.044,0.002-0.118,0.029-0.085-0.063
			c-0.202,0.17-0.267,0.279-0.27,0.336c-0.004,0.017,0.005,0.021,0.01,0.027l0.001,0.001l-0.027-0.01l-0.068-0.026
			c-0.044-0.017-0.074-0.032-0.113-0.047c-0.073-0.029-0.147-0.055-0.223-0.078c-0.084-0.022-0.135-0.044-0.197-0.061
			c-0.061-0.017-0.124-0.031-0.189-0.041c-0.048-0.012-0.094-0.022-0.145-0.026c-0.025-0.002-0.051-0.003-0.077-0.003
			c-0.016-0.003-0.032-0.004-0.049-0.004c-0.028,0-0.057,0.003-0.083,0.008l-1.371,1.067c-0.034-0.073-0.044-0.12,0.064-0.061
			l1.307-1.005c0.025-0.006,0.056-0.01,0.091-0.008c0.009,0,0.018-0.275,0.027-0.274L27.833,10h0.023
			c0.032,0,0.066,0.279,0.101,0.284c0.017,0.003,0.035,0.144,0.053,0.148l0.027,0.076c0.008,0.003,0.018,0.039,0.033,0.041
			c0.053,0.008,0.108,0.037,0.165,0.053c0.028,0.008,0.057,0.025,0.085,0.035c0.015,0.005,0.027,0.014,0.045,0.02
			c0.019,0.005,0.038,0.013,0.058,0.019c0.078,0.023,0.158,0.051,0.239,0.084c0.066,0.029-0.069-0.036-0.32-0.106
			c-0.049-0.018-0.106-0.035-0.169-0.049c-0.032-0.007-0.065-0.014-0.1-0.019c-0.02-0.002-0.031-0.006-0.044-0.009
			c-0.013-0.003-0.026-0.006-0.039-0.008c-0.027-0.005-0.055-0.009-0.084-0.011c-0.015-0.001-0.029-0.002-0.045-0.002
			c-0.016,0-0.032,0-0.038-0.002c-0.037-0.005-0.078-0.004-0.121,0.006l-1.257,0.957c-0.155-0.105-0.326-0.219-0.291-0.289
			C25.981,11.1,25.828,11,25.692,10.917c-0.138-0.082-0.266-0.137-0.38-0.188c-0.229-0.098-0.415-0.154-0.604-0.219
			c-0.191-0.061-0.39-0.123-0.636-0.246c-0.062-0.03-0.127-0.065-0.195-0.103c-0.068-0.039-0.141-0.081-0.223-0.124
			c-0.16-0.087-0.34-0.194-0.548-0.327l0.099-0.015c-0.072-0.033-0.143-0.065-0.212-0.096c-0.069-0.03-0.139-0.056-0.205-0.084
			c-0.134-0.054-0.26-0.108-0.382-0.161c-0.122-0.051-0.236-0.109-0.354-0.152c-0.117-0.046-0.231-0.091-0.344-0.136
			c-0.113-0.045-0.226-0.091-0.339-0.136c-0.113-0.048-0.233-0.081-0.353-0.123c-0.121-0.039-0.245-0.08-0.374-0.121
			c-0.065-0.02-0.13-0.042-0.198-0.061c-0.069-0.017-0.139-0.034-0.211-0.052c0,0-0.211-0.098-0.422-0.196
			c-0.053-0.025-0.106-0.049-0.156-0.072c-0.051-0.02-0.098-0.04-0.139-0.056c-0.082-0.033-0.136-0.055-0.136-0.055
			c0.213,0.016,0.797,0.073,0.566-0.067c0.197,0.134,0.416,0.218,0.641,0.302c0.221,0.092,0.451,0.176,0.666,0.291
			c0.065-0.019-0.113-0.109-0.186-0.159C21.21,8.611,21.31,8.66,21.42,8.715c0.109,0.058,0.229,0.116,0.418,0.177
			c-0.002-0.034-0.385-0.225-0.075-0.123l0.453,0.277c0.335,0.126,0.444,0.115,0.563,0.119c0.059,0.002,0.121,0.008,0.214,0.038
			c0.047,0.015,0.101,0.036,0.168,0.064c0.066,0.03,0.14,0.073,0.231,0.125c-0.047,0-0.103-0.004-0.167-0.01
			c-0.063-0.008-0.133-0.016-0.21-0.025c-0.151-0.021-0.315-0.056-0.467-0.114c0.336,0.172-0.486-0.165-0.197,0.021
			c0.28,0.059,0.469,0.137,0.674,0.229c0.201,0.101,0.416,0.219,0.762,0.353c-0.086-0.025-0.121-0.015-0.283-0.09
			c0,0,0.056,0.033,0.141,0.082c0.084,0.05,0.2,0.11,0.307,0.184c0.217,0.141,0.435,0.283,0.435,0.283
			c-0.089-0.094,0.11-0.001,0.331,0.098c0.214,0.108,0.448,0.227,0.444,0.159c-0.227-0.161-0.382-0.27-0.511-0.341
			c-0.127-0.075-0.218-0.125-0.314-0.179C24.241,9.987,24.142,9.931,24,9.844c-0.145-0.083-0.338-0.187-0.615-0.348
			c0.169,0.073,0.374,0.141,0.571,0.194c0.196,0.053,0.375,0.104,0.504,0.117c0.007,0.009,0.021,0.021,0.055,0.043
			c0.24,0.015,0.082-0.11,0.202-0.257c-0.152-0.049-0.282-0.104-0.404-0.164c-0.123-0.058-0.241-0.113-0.358-0.175
			c-0.118-0.061-0.238-0.126-0.371-0.191c-0.067-0.033-0.136-0.066-0.211-0.098c-0.076-0.029-0.157-0.059-0.244-0.088
			c-0.089,0.016-0.011,0.086,0.129,0.167c0.14,0.083,0.336,0.19,0.501,0.258c0,0-0.148-0.057-0.297-0.115
			c-0.074-0.028-0.147-0.058-0.204-0.077c-0.057-0.019-0.095-0.031-0.095-0.031l0.138,0.011c0,0-0.358-0.171-0.716-0.342
			c-0.045-0.021-0.09-0.043-0.134-0.064c-0.045-0.019-0.09-0.038-0.133-0.056c-0.086-0.036-0.167-0.07-0.236-0.098
			c-0.138-0.058-0.23-0.096-0.23-0.096c0.285,0.106,0.409,0.092,0.579,0.112c-0.192-0.079-0.371-0.178-0.562-0.285
			c-0.001,0.103-0.06,0.153-0.246,0.077c-0.963-0.365-1.495-0.589-1.837-0.79c-0.04-0.007-0.086-0.015-0.122-0.021
			c0.139,0.135-0.779-0.011-1.122,0.043c0.02-0.047-0.109-0.086-0.278-0.126c-0.042-0.01-0.087-0.02-0.133-0.03
			c-0.046-0.008-0.093-0.017-0.14-0.025c-0.093-0.017-0.182-0.036-0.255-0.059c-0.18,0.092,0.007,0.275,0.341,0.416
			c0.704,0.022,0.405-0.034,0.768-0.12c0,0,0.018,0.002,0.049,0.004c0.031,0.003,0.076,0.006,0.128,0.015
			c0.106,0.015,0.247,0.035,0.387,0.055c0.142,0.02,0.283,0.04,0.389,0.055c0.054,0.006,0.097,0.016,0.127,0.022
			c0.031,0.006,0.048,0.009,0.048,0.009s-0.068,0.005-0.137,0.009c-0.069,0.008-0.138,0.015-0.138,0.015
			c0.135,0.038,0.266,0.081,0.391,0.111c0.125,0.031,0.242,0.057,0.34,0.079c0.196,0.044,0.316,0.079,0.272,0.13
			c-0.156-0.006-0.348-0.049-0.537-0.095c-0.19-0.044-0.378-0.095-0.534-0.086c0,0,0.021,0.008,0.054,0.019
			c0.032,0.012,0.076,0.026,0.117,0.044c0.084,0.035,0.168,0.071,0.168,0.071c-0.083-0.008-0.149-0.017-0.203-0.027
			c-0.054-0.009-0.098-0.017-0.133-0.027c-0.07-0.02-0.11-0.045-0.153-0.072c-0.087-0.053-0.191-0.117-0.585-0.164
			c0.127,0.08,0.109,0.079,0.016,0.054c-0.093-0.02-0.263-0.057-0.436-0.054c0.25,0.099,1.351,0.264,1.069,0.374
			c-0.104-0.004-0.234-0.038-0.38-0.085c-0.146-0.046-0.307-0.111-0.479-0.157c-0.17-0.05-0.346-0.099-0.515-0.13
			c-0.042-0.008-0.084-0.015-0.125-0.02c-0.041-0.004-0.082-0.006-0.122-0.007c-0.079-0.001-0.155,0.003-0.225,0.015l0.03-0.016
			c-0.195-0.031-0.359-0.051-0.501-0.063c-0.142-0.007-0.262-0.003-0.365,0.002c-0.208,0.012-0.353,0.038-0.502,0.058
			c-0.33-0.065-0.795-0.018-1.154,0l0.009-0.05c0,0-0.128,0.006-0.255,0.012c-0.064,0.003-0.127,0.006-0.175,0.008
			c-0.048,0.004-0.079,0.007-0.079,0.007c0.119-0.053,0.27-0.048,0.444-0.04c0.087,0.005,0.18,0.011,0.279,0.016
			c0.049,0.003,0.1,0.004,0.152,0.005c0.052,0.003,0.105,0.006,0.16,0.006l-0.052-0.095c0.252,0.065,0.462,0.059,0.663,0.029
			c0.2-0.024,0.39-0.067,0.593-0.091c-0.147,0.008-0.322,0.001-0.504-0.01c-0.182-0.007-0.373-0.011-0.549-0.016
			c-0.353-0.014-0.651,0.019-0.718,0.107L14.821,7.56c0,0-0.042,0.008-0.085,0.019C14.694,7.59,14.652,7.6,14.652,7.6
			c-0.134-0.028-0.136-0.073-0.038-0.117c0.049-0.021,0.122-0.046,0.217-0.06c0.094-0.015,0.209-0.026,0.34-0.032
			c0.091,0.023,0.136,0.034,0.109,0.054c0.121-0.019,0.237-0.055,0.397-0.068c0.16-0.014,0.364-0.018,0.657,0.004l-0.317,0.037
			c0.365,0.011,0.712,0.04,1.002,0.044c0.146,0.001,0.276,0.001,0.386,0.002c0.111-0.001,0.202-0.009,0.268-0.023
			c-1.045-0.178-2.101-0.231-3.101-0.189c-0.284,0.225-0.615,0.353-0.737,0.566c-0.643,0.079-1.492,0.245-2.058,0.281l0.04-0.046
			c-0.272,0.036-0.514,0.106-0.711,0.172c-0.148,0.009-0.109-0.027-0.058-0.063c0.052-0.035,0.115-0.07,0.012-0.061
			c0,0-0.056,0.016-0.137,0.046c-0.081,0.029-0.19,0.067-0.298,0.105c-0.108,0.038-0.216,0.076-0.298,0.104
			c-0.079,0.032-0.132,0.053-0.132,0.053c0.005-0.025,0.054-0.059,0.132-0.096c0.079-0.034,0.186-0.072,0.304-0.111
			c0.118-0.038,0.246-0.077,0.367-0.112c0.123-0.03,0.238-0.058,0.328-0.079c-0.066,0.023-0.2,0.068-0.152,0.069
			c0.108-0.015,0.235-0.046,0.369-0.084c0.067-0.019,0.135-0.039,0.204-0.059c0.069-0.017,0.139-0.035,0.207-0.052
			c0.272-0.065,0.516-0.122,0.624-0.067c0.204-0.05-0.403,0.15,0.302,0.06c0.477-0.023,0.617-0.137,0.662-0.183
			c0.001-0.025-0.19-0.026-0.349-0.027c-0.158,0.004-0.286,0.001-0.159-0.047c-0.372,0.06-0.508,0.133-0.99,0.177
			c0.36-0.081,0.848-0.242,1.058-0.194c0.72-0.17,0.596-0.387,0.234-0.368c0.024,0.016-0.05,0.038-0.157,0.061
			c-0.107,0.026-0.246,0.06-0.359,0.087c-0.224,0.057-0.333,0.1,0.161,0.08c-0.105,0.038-0.233,0.074-0.374,0.108
			c-0.071,0.018-0.145,0.032-0.221,0.051c-0.076,0.019-0.153,0.039-0.232,0.058c-0.157,0.038-0.319,0.077-0.475,0.115
			c-0.154,0.045-0.303,0.091-0.436,0.136l0.019-0.024c0,0-0.042,0.011-0.106,0.028C11.094,7.955,11.008,7.974,10.925,8
			c-0.167,0.052-0.333,0.103-0.333,0.103c0.086-0.051,0.283-0.128,0.273-0.177c0,0-0.223,0.096-0.446,0.192
			c-0.055,0.024-0.111,0.048-0.163,0.07c-0.051,0.025-0.098,0.048-0.139,0.067C10.037,8.294,9.983,8.32,9.983,8.32
			c0.24-0.125,0.155-0.114-0.024-0.067C9.78,8.3,9.509,8.381,9.387,8.41C9.323,8.516,9.001,8.695,9.356,8.612
			c0.4-0.087,0.199-0.12,0.547-0.238c0,0-0.111,0.067-0.222,0.135C9.624,8.541,9.572,8.58,9.532,8.607
			c-0.04,0.027-0.067,0.045-0.067,0.045L9.419,8.656L9.176,8.852C9.011,8.908,8.945,8.925,8.917,8.913
			C8.891,8.901,8.907,8.866,8.92,8.836c0.026-0.06,0.035-0.098-0.352,0.116l0.175,0.076c-0.48,0.18-1.017,0.404-1.512,0.631
			c-0.483,0.239-0.918,0.488-1.171,0.716c0.095-0.17,0.077-0.318-0.193-0.216c0.127-0.085,0.329-0.204,0.535-0.341
			c0.102-0.07,0.215-0.135,0.322-0.201c0.107-0.067,0.211-0.131,0.306-0.19c0.044-0.012-0.05,0.093-0.209,0.226
			C6.744,9.721,6.645,9.792,6.548,9.867c-0.098,0.076-0.202,0.149-0.307,0.208c0.177,0.025,0.391-0.17,0.615-0.334
			C6.965,9.657,7.069,9.574,7.16,9.525c0.093-0.047,0.169-0.064,0.216-0.023c0.142-0.063,0.258-0.12,0.356-0.172
			c0.099-0.051,0.182-0.092,0.251-0.134c0.138-0.081,0.223-0.15,0.305-0.216C8.37,8.915,8.452,8.86,8.577,8.798
			c0.063-0.031,0.137-0.062,0.228-0.095c0.09-0.035,0.2-0.065,0.335-0.096c-0.033-0.096,0.265-0.15,0.28-0.251
			c-0.093-0.01-0.226,0.017-0.383,0.066c-0.159,0.046-0.335,0.125-0.52,0.211C8.423,8.677,8.327,8.721,8.231,8.766
			c-0.093,0.048-0.187,0.096-0.28,0.143C7.767,9.002,7.584,9.085,7.425,9.157C7.481,9.12,7.591,9.041,7.606,9.015
			C7.148,9.22,6.976,9.333,6.709,9.541l0.045-0.012C6.642,9.625,6.563,9.68,6.502,9.712C6.443,9.746,6.403,9.756,6.364,9.758
			C6.288,9.763,6.225,9.737,6.062,9.816c-0.109,0.081-0.517,0.347-0.399,0.356c0,0-0.036,0.019-0.09,0.047
			c-0.053,0.029-0.128,0.064-0.198,0.104c-0.139,0.081-0.278,0.163-0.278,0.163l0.113,0.061c-0.132,0.112-0.229,0.167-0.308,0.23
			c-0.081,0.062-0.154,0.127-0.238,0.254l0.076,0.076c0,0,0.161-0.136,0.322-0.272c0.079-0.069,0.17-0.13,0.233-0.179
			c0.064-0.048,0.107-0.08,0.107-0.08c-0.153,0.148-0.157,0.184-0.166,0.222c-0.004,0.019-0.01,0.039-0.036,0.073
			c-0.024,0.036-0.066,0.087-0.146,0.168c0.142-0.212,0.065-0.16-0.064-0.058c-0.065,0.051-0.142,0.115-0.211,0.164
			c-0.071,0.048-0.122,0.088-0.153,0.081l-0.182,0.278l0.035-0.078c-0.057,0.039-0.098,0.075-0.129,0.109
			c-0.028,0.036-0.048,0.07-0.068,0.105s-0.039,0.073-0.066,0.115c-0.013,0.021-0.03,0.044-0.047,0.066
			c-0.009,0.013-0.022,0.028-0.036,0.041c0.011-0.007,0.022-0.014,0.033-0.02c0.011-0.007,0.019-0.012,0.039-0.028
			c0.033-0.027,0.065-0.054,0.096-0.079c0.064-0.051,0.119-0.104,0.181-0.157c0.063-0.053,0.124-0.11,0.185-0.178
			c0.063-0.067,0.117-0.148,0.191-0.237c-0.053,0.065-0.109,0.151-0.173,0.239c-0.063,0.089-0.137,0.18-0.198,0.271
			c-0.058,0.09-0.119,0.18-0.163,0.244c-0.007,0.016-0.022,0.035-0.023,0.041c-0.004,0.008-0.004,0.015-0.007,0.021
			c-0.001,0.01-0.004,0.019-0.006,0.028l-0.002,0.007l-0.006,0.014l-0.013,0.029c-0.018,0.038-0.036,0.075-0.055,0.11
			c-0.039,0.07-0.08,0.135-0.123,0.199c-0.085,0.128-0.183,0.249-0.256,0.4c0.055-0.15,0.063-0.219,0.046-0.256
			c-0.017-0.038-0.058-0.044-0.085-0.067c-0.027-0.023-0.041-0.063-0.005-0.169c0.018-0.053,0.049-0.122,0.096-0.214
			c0.024-0.046,0.052-0.097,0.085-0.155c0.011-0.018,0.022-0.037,0.034-0.056c0.008-0.014,0.018-0.027,0.035-0.04
			c0.007,0.019-0.015,0.05-0.04,0.072c0.022-0.003,0.043-0.015,0.057-0.022c0.015-0.01,0.029-0.015,0.048-0.033
			c0.009-0.008,0.017-0.017,0.025-0.027c0.014-0.017,0.028-0.035,0.042-0.054c0.028-0.037,0.055-0.078,0.081-0.12
			c0.027-0.042,0.05-0.086,0.078-0.128c0.028-0.043,0.055-0.085,0.082-0.125c0.052-0.082,0.099-0.158,0.136-0.216
			c-0.116,0.005,0.074-0.221-0.31,0.117c0.08-0.044,0.038,0.056-0.058,0.209c-0.023,0.039-0.049,0.081-0.079,0.125
			c-0.015,0.022-0.031,0.044-0.047,0.066c-0.016,0.021-0.032,0.042-0.048,0.064c-0.059,0.069-0.058,0.074-0.142,0.196
			c0,0-0.031-0.035-0.063-0.071c-0.031-0.036-0.063-0.071-0.063-0.071l-0.35,0.623l0.023-0.062
			c-0.119,0.098-0.187,0.274-0.269,0.473c-0.04,0.1-0.082,0.207-0.13,0.314c-0.049,0.108-0.093,0.22-0.156,0.326
			c-0.092,0.338-0.547,1.58-0.185,1.084c-0.129,0.188-0.164,0.383-0.196,0.583c-0.015,0.1-0.025,0.202-0.038,0.307
			c-0.007,0.105-0.015,0.214-0.032,0.326c0,0,0.047-0.136,0.094-0.271c0.023-0.068,0.055-0.134,0.075-0.185
			c0.021-0.05,0.035-0.084,0.035-0.084c-0.014,0.168-0.025,0.281-0.025,0.365c-0.004,0.084-0.007,0.139-0.007,0.191
			c0.002,0.102,0.009,0.191,0.065,0.461c-0.057,0.046-0.114,0.157-0.151,0.045c-0.073,0.436-0.149,0.968-0.148,1.456
			c0,0.122,0.001,0.241,0.004,0.355c0.001,0.114,0.02,0.223,0.032,0.324c0.03,0.202,0.055,0.376,0.114,0.5
			c0.017,0.153,0.017,0.275,0.01,0.386c-0.004,0.056-0.009,0.108-0.013,0.16c-0.002,0.052-0.003,0.104-0.005,0.157
			c-0.003,0.213-0.002,0.462,0.155,0.882c0.035,0.088,0.068,0.045,0.103,0.052c0.018,0.003,0.036,0.019,0.055,0.07
			c0.01,0.025,0.019,0.06,0.031,0.105c0.013,0.045,0.028,0.102,0.043,0.174c-0.001,0.042-0.301-0.514-0.09,0.111
			c0.069,0.104,0.119,0.222,0.16,0.35c0.047,0.127,0.088,0.263,0.129,0.404c0.075,0.283,0.189,0.58,0.366,0.847
			c0.093,0.314,0.365,0.825,0.21,0.756c-0.052-0.121-0.112-0.253-0.176-0.384c-0.062-0.132-0.133-0.261-0.187-0.382
			c-0.113-0.24-0.215-0.43-0.263-0.474c0.088,0.048-0.075-0.361,0.115-0.021c-0.103-0.375-0.158-0.489-0.22-0.593
			c-0.063-0.103-0.115-0.199-0.191-0.537c-0.056-0.037-0.016,0.369,0.074,0.502c-0.078,0.022-0.195-0.304-0.298-0.555
			c-0.054-0.125-0.09-0.234-0.121-0.271c-0.03-0.037-0.052-0.002-0.058,0.158c0.052,0.181,0.116,0.326,0.181,0.452
			c0.033,0.063,0.066,0.12,0.098,0.175c0.034,0.055,0.071,0.106,0.105,0.157c0.068,0.102,0.131,0.201,0.181,0.316
			c0.025,0.057,0.046,0.119,0.066,0.186c0.022,0.067,0.04,0.14,0.054,0.222c-0.048-0.054-0.09-0.12-0.13-0.193
			c-0.038-0.073-0.07-0.154-0.107-0.235c-0.072-0.164-0.162-0.332-0.29-0.472c0,0,0.007,0.033,0.017,0.083
			c0.012,0.049,0.029,0.115,0.045,0.18c0.033,0.132,0.066,0.263,0.066,0.263s0.06,0.085,0.121,0.17
			c0.062,0.085,0.129,0.167,0.129,0.167l-0.03-0.015c0.063,0.232,0.126,0.397,0.191,0.526c0.07,0.127,0.144,0.217,0.22,0.302
			c0.077,0.085,0.158,0.164,0.248,0.268c0.091,0.104,0.199,0.232,0.319,0.417c-0.143-0.48,0.294,0.007,0.174-0.347
			c0.282,0.5,0.489,0.872,0.355,0.935c-0.334-0.446-0.372-0.448-0.414-0.436c-0.042,0.011-0.081,0.034-0.39-0.385
			c0.03,0.166-0.318-0.137-0.044,0.406c0.211,0.283,0.217,0.224,0.213,0.171c0-0.055-0.017-0.104,0.18,0.182
			c0.008,0.04,0.017,0.082-0.015,0.069c0.115,0.121,0.155,0.203,0.201,0.292c0.044,0.089,0.097,0.184,0.239,0.329l-0.076-0.065
			c0.176,0.438,0.363,0.397,0.508,0.778c0.006-0.184,0.235,0.189,0.437,0.368c-0.193-0.364-0.192-0.613-0.626-1.292
			c-0.129-0.047-0.148,0.025-0.353-0.243c0,0,0.067,0.112,0.139,0.223c0.073,0.11,0.146,0.221,0.146,0.221
			c-0.074-0.09-0.14-0.154-0.212-0.235l-0.214-0.452c0.381,0.524,0.312,0.236,0.538,0.429c0.139,0.254,0.209,0.353,0.265,0.429
			c0.056,0.076,0.098,0.128,0.19,0.287c-0.067,0.012,0.044,0.271,0.211,0.604c0.179,0.328,0.408,0.732,0.585,1.026
			c-0.06-0.088-0.147-0.198-0.189-0.259c-0.181-0.184-0.154-0.102-0.084,0.031c0.073,0.131,0.191,0.312,0.181,0.328l0.276,0.263
			C5.983,27.392,5.9,27.33,5.979,27.464c0.324,0.384,0.417,0.298,0.743,0.679c-0.036,0.064-0.387-0.215-0.227,0.047
			c0.012,0.115,0.093,0.463,0.567,0.95c0.053,0.023,0.177,0.148,0.316,0.297c-0.021-0.02-0.046-0.045-0.058-0.052l0.222,0.381
			c-0.342-0.231-0.449-0.616-0.787-0.852L6.64,28.947c-0.188-0.23-0.484-0.518-0.646-0.636c0.261,0.366,0.352,0.422,0.69,0.805
			c-0.016,0.092-0.286-0.159-0.325-0.195l0.102,0.026c-0.151-0.258-0.317-0.419-0.497-0.594c-0.18-0.175-0.387-0.356-0.601-0.662
			c-0.064-0.093-0.015-0.041,0.018-0.032c-0.228-0.217-0.405-0.46-0.571-0.706c-0.167-0.245-0.342-0.483-0.568-0.695l0.16,0.132
			c-0.135-0.154-0.335-0.382-0.567-0.646c-0.224-0.269-0.49-0.573-0.732-0.89L3.06,24.864c0.02,0.086-0.128-0.168-0.191-0.311
			l0.001,0c-0.121-0.16-0.234-0.32-0.343-0.471c-0.054-0.076-0.107-0.149-0.157-0.22c-0.047-0.072-0.092-0.142-0.135-0.208
			c0.018,0.098,0.049,0.221,0.114,0.35c0.107,0.09,0.409,0.741,0.474,0.607c0.052,0.157,0.169,0.342,0.284,0.515
			c0.113,0.174,0.236,0.331,0.28,0.444c-0.17-0.408,0.267,0.216,0.367,0.253c0.015,0.158,0.375,0.545,0.252,0.541
			c0.026,0.084-0.064-0.211-0.224-0.342c-0.346-0.348,0.408,0.747,0.002,0.302c0.236,0.295,0.499,0.64,0.763,0.988
			c0.134,0.173,0.273,0.343,0.41,0.508c0.069,0.082,0.137,0.162,0.205,0.24c0.07,0.077,0.14,0.15,0.209,0.221
			c0,0-0.058-0.09-0.116-0.18c-0.058-0.089-0.113-0.181-0.113-0.181c0.195,0.279,0.714,0.905,0.713,0.975
			c-0.171-0.192-0.351-0.428-0.57-0.674c-0.106,0.042,0.482,0.617,0.448,0.678c0,0,0.189,0.161,0.378,0.321
			C6.301,29.38,6.49,29.54,6.49,29.54s-0.065-0.081-0.129-0.162c-0.064-0.081-0.128-0.162-0.128-0.162
			c0.11,0.084,0.285,0.304,0.487,0.564c0.199,0.261,0.422,0.563,0.626,0.81c-0.37-0.199-0.633-0.738-1.115-1.228
			c-0.359-0.352,0.066,0.311-0.259-0.032c0.046,0.112,0.241,0.347,0.371,0.441l0.095,0.156c-0.096-0.062-0.204-0.154-0.32-0.264
			c-0.114-0.111-0.235-0.241-0.361-0.376c-0.252-0.268-0.511-0.564-0.754-0.78c0.047,0.036,0.09,0.065,0.114,0.071
			c-0.125-0.202-0.263-0.398-0.404-0.591c-0.142-0.193-0.296-0.377-0.449-0.557c0.106,0.221,0.194,0.283,0.292,0.389
			c-0.019,0.03-0.299-0.313-0.427-0.433c0.218,0.372-0.026,0.105,0.118,0.338c-0.2-0.211-0.322-0.406-0.511-0.693
			c-0.058-0.17,0.151,0.087,0.19,0.026c-0.246-0.269-0.184-0.481-0.548-0.874c0.363,0.584-0.242-0.081-0.406-0.268l0.058,0.1
			c-0.191-0.151-0.295-0.308-0.309-0.468c0.182,0.226,0.308,0.468,0.34,0.364c-0.103-0.157-0.207-0.312-0.342-0.482l0.157,0.138
			c0,0-0.032-0.049-0.08-0.121c-0.047-0.073-0.107-0.173-0.168-0.272c-0.122-0.198-0.243-0.397-0.243-0.397
			c-0.142-0.098-0.351-0.278-0.515-0.353c-0.022-0.111-0.084-0.23-0.154-0.345c-0.066-0.117-0.143-0.228-0.202-0.32l0.072,0.079
			c-0.133-0.388-0.541-1.216-0.627-1.274c-0.011-0.074,0.051,0.006,0.147,0.132c0.098,0.125,0.225,0.299,0.326,0.421
			c0.101,0.122,0.176,0.193,0.171,0.117c-0.002-0.077-0.094-0.297-0.301-0.769c-0.271-0.733-0.381-0.4-0.587-0.814
			c0,0,0.029,0.019,0.028-0.027c-0.086-0.335-0.184-0.348-0.284-0.62c0.013,0.21,0.111,0.498,0.168,0.585
			c-0.058-0.04-0.113-0.214-0.165-0.409c-0.045-0.197-0.093-0.413-0.16-0.538c0.109,0.157,0.081-0.009,0.043-0.182
			c-0.028-0.175-0.066-0.359-0.007-0.232c-0.01-0.173-0.033-0.346-0.063-0.515c-0.021-0.17-0.05-0.336-0.083-0.491
			c-0.017-0.078-0.034-0.153-0.053-0.225c-0.018-0.072-0.03-0.141-0.046-0.206C0.062,18.662,0.03,18.549,0,18.459
			c0.067-0.238,0.068-0.442,0.053-0.685c-0.006-0.121-0.021-0.252-0.016-0.4c0.007-0.148,0.022-0.312,0.056-0.501
			c-0.014,0.117-0.004,0.33-0.035,0.492c0.077,0.434,0.116-0.781,0.165-0.114c-0.006-0.142-0.057-0.013-0.051,0.133
			c0.002,0.255,0.053,0.495,0.102,0.431c0,0,0.026-0.152,0.051-0.305c0.011-0.076,0.032-0.151,0.045-0.208
			c0.013-0.057,0.022-0.094,0.022-0.094l0.011,0.213c0,0,0.051-0.228,0.101-0.455c0.027-0.113,0.048-0.227,0.072-0.31
			c0.024-0.084,0.041-0.14,0.041-0.14c-0.018-0.027-0.057,0.056-0.077,0.099c0.026-0.131,0.05-0.265,0.073-0.4
			c0.025-0.135,0.04-0.272,0.073-0.408c0.028-0.136,0.056-0.273,0.084-0.41c0.027-0.137,0.053-0.274,0.09-0.407
			c0.034-0.134,0.068-0.267,0.102-0.399c0.017-0.066,0.034-0.131,0.05-0.196c0.017-0.065,0.04-0.127,0.059-0.19
			c0.082-0.249,0.156-0.49,0.243-0.708c-0.057-0.061-0.039-0.228,0.022-0.458c0.031-0.114,0.069-0.246,0.122-0.384
			c0.055-0.137,0.117-0.284,0.181-0.434c0.067-0.149,0.128-0.307,0.204-0.455c0.073-0.15,0.145-0.298,0.211-0.439
			c0.034-0.075,0.068-0.148,0.1-0.219c0.022-0.047,0.043-0.093,0.064-0.138c0.009-0.025,0.026-0.045,0.041-0.066
			c0.015-0.02,0.029-0.04,0.043-0.06c0.026-0.037,0.052-0.074,0.077-0.109c0.018-0.029,0.036-0.056,0.053-0.083
			c0.034-0.054,0.063-0.104,0.088-0.15c-0.076,0.22-0.024,0.387,0.116,0.314c-0.014,0.019-0.027,0.039-0.042,0.065
			c-0.019,0.029-0.039,0.061-0.059,0.096c-0.011,0.018-0.022,0.036-0.033,0.055c-0.012,0.019-0.025,0.039-0.031,0.062
			c-0.015,0.043-0.031,0.089-0.047,0.136c-0.013,0.039-0.027,0.08-0.041,0.122c-0.014,0.039-0.029,0.08-0.046,0.121
			c-0.034,0.082-0.074,0.165-0.125,0.248c-0.037,0.019-0.123,0.128-0.189,0.197c-0.063,0.07-0.109,0.099-0.067-0.048
			c-0.419,0.973,0.184-0.087,0.156,0.235c0.055-0.135,0.119-0.257,0.172-0.378c0.054-0.12,0.103-0.235,0.149-0.345
			c0.025-0.061,0.05-0.12,0.074-0.178c0.014-0.034,0.029-0.068,0.043-0.101c0.021-0.03,0.042-0.06,0.062-0.09
			c0.02-0.029,0.04-0.057,0.059-0.086c0.016-0.024,0.032-0.048,0.047-0.072c0.031-0.048,0.061-0.094,0.091-0.14
			c0.243-0.364,0.472-0.676,0.749-0.97l0.041,0.007c0,0,0.025-0.029,0.063-0.071c0.037-0.044,0.09-0.098,0.144-0.152
			c0.108-0.109,0.215-0.217,0.215-0.217C3.618,9.622,3.512,9.502,4.065,9.12L4.009,9.176c0.043-0.024,0.088-0.054,0.137-0.087
			c0.05-0.032,0.103-0.068,0.159-0.107c0.111-0.079,0.23-0.171,0.355-0.268C4.786,8.62,4.921,8.527,5.053,8.433
			C5.12,8.387,5.187,8.341,5.251,8.297c0.066-0.043,0.133-0.081,0.198-0.118L5.74,7.902c0.129-0.076,0.24-0.116,0.33-0.143
			C6.16,7.732,6.232,7.722,6.295,7.72c0.125-0.003,0.212,0.026,0.325,0.023C7.04,7.547,7.351,7.361,7.642,7.2
			c0.143-0.085,0.28-0.166,0.416-0.247C8.196,6.876,8.336,6.8,8.485,6.724c0.313-0.055,1.676-0.441,0.991-0.145
			c0.097-0.041,0.18-0.077,0.251-0.112c0.071-0.036,0.131-0.072,0.185-0.108c0.108-0.072,0.193-0.144,0.301-0.213
			c0.107-0.071,0.24-0.128,0.439-0.182c0.2-0.051,0.466-0.103,0.847-0.114c0,0-0.091,0.034-0.181,0.068
			c-0.045,0.017-0.09,0.034-0.124,0.047c-0.034,0.013-0.056,0.023-0.056,0.023c0.693-0.141,1.536-0.324,2.303-0.407
			c0.765-0.097,1.445-0.126,1.775-0.088c-0.132,0.061-0.085,0.107,0.061,0.145c0.073,0.019,0.17,0.036,0.283,0.051
			c0.113,0.015,0.24,0.039,0.374,0.059c0.133,0.021,0.272,0.042,0.407,0.063c0.067,0.011,0.134,0.022,0.198,0.033
			c0.064,0.014,0.126,0.028,0.185,0.043c0.235,0.058,0.416,0.119,0.469,0.183c-0.031-0.03,0.084-0.038,0.218-0.042
			c0.133-0.002,0.283,0.009,0.323-0.001c0.109,0.043,0.292,0.095,0.502,0.073c-0.531-0.119,0.429-0.194-0.627-0.236
			c0.138-0.023,0.286-0.043,0.449-0.056c0.082-0.007,0.167-0.012,0.256-0.016c0.09-0.004,0.184-0.006,0.281,0
			C18.986,5.81,19.46,5.854,20.028,6L19.98,6.092c0,0-0.223-0.059-0.446-0.119c-0.111-0.032-0.225-0.052-0.31-0.072
			c-0.085-0.018-0.142-0.031-0.142-0.031c0.074,0.088-0.394-0.002-0.593-0.003c0.839,0.18,0.767,0.227,0.704,0.266
			c-0.032,0.02-0.061,0.037,0.024,0.069C19.303,6.23,19.5,6.285,19.92,6.379c0.091-0.012,0.109-0.018,0.159-0.011
			c0.025,0.003,0.058,0.01,0.113,0.021c0.055,0.011,0.132,0.024,0.241,0.05c-0.102-0.028-0.168-0.025-0.168-0.006
			c0.001,0.017,0.068,0.053,0.23,0.1l0.341,0.013c0.514,0.319-0.992-0.166-0.541,0.083c-0.165-0.022-0.36-0.049-0.557-0.076
			c-0.196-0.026-0.391-0.061-0.563-0.072c-0.344-0.026-0.58-0.025-0.491,0.056c0.258,0.06,0.451,0.082,0.609,0.096
			c0.158,0.017,0.284,0.015,0.413,0.015c0.128,0,0.259,0,0.425,0.02c0.166,0.019,0.362,0.074,0.625,0.161l0.094,0.083
			c0.391,0.069,0.483,0.016,0.71,0.033c0.006,0.035,0.091,0.088,0.325,0.177c0.085,0.013,0.167,0.025,0.246,0.036
			c0.078,0.014,0.151,0.031,0.224,0.046c0.144,0.033,0.281,0.064,0.415,0.095c0.135,0.031,0.269,0.062,0.41,0.091
			c0.138,0.035,0.281,0.068,0.44,0.101c-0.194-0.07-0.354-0.141-0.5-0.191c-0.145-0.052-0.269-0.099-0.377-0.144
			c-0.218-0.087-0.375-0.167-0.538-0.239c-0.165-0.07-0.332-0.14-0.561-0.222c-0.115-0.039-0.244-0.088-0.4-0.129
			c-0.157-0.041-0.337-0.084-0.547-0.132c0.068,0.008,0.193,0.034,0.344,0.065c0.076,0.016,0.158,0.033,0.242,0.051
			c0.085,0.017,0.169,0.042,0.255,0.061c0.339,0.082,0.662,0.146,0.729,0.095l-0.06,0.087c0.14,0.03,0.272,0.074,0.41,0.114
			c0.137,0.041,0.276,0.084,0.418,0.132c0.287,0.089,0.571,0.22,0.879,0.377l-0.416-0.125c0.436,0.16,0.77,0.343,1.064,0.534
			c0.298,0.187,0.588,0.338,0.944,0.453c-0.106-0.066-0.203-0.126-0.294-0.174c-0.092-0.046-0.176-0.084-0.25-0.113
			c0.11,0.046,0.229,0.092,0.342,0.153c0.114,0.06,0.23,0.124,0.346,0.191c0.116,0.067,0.232,0.136,0.345,0.205
			c0.114,0.068,0.225,0.137,0.325,0.211c0,0,0.246,0.108,0.493,0.217c0.124,0.055,0.248,0.11,0.341,0.151
			c0.094,0.04,0.153,0.071,0.153,0.071c-0.043,0.033,0.484,0.418,0.17,0.294c0.227,0.206,0.428,0.341,0.61,0.445l-1.728,0.816
			c-0.05-0.251-0.015-0.443,0.014-0.567c0.008-0.032,0.017-0.065,0.025-0.096c0.009-0.033,0.017-0.053,0.026-0.08
			c0.017-0.049,0.037-0.105,0.054-0.143c0.073-0.176,0.145-0.3,0.232-0.424c0.167-0.158,0.219-0.184,0.211-0.157
			c-0.009,0.03-0.081,0.122-0.173,0.252c-0.09,0.131-0.204,0.305-0.281,0.523c-0.009,0.023-0.018,0.057-0.026,0.086
			c-0.008,0.03-0.015,0.058-0.02,0.086c-0.003,0.014-0.005,0.027-0.008,0.04c-0.002,0.017-0.004,0.033-0.006,0.049
			c-0.003,0.032-0.005,0.061-0.006,0.089c-0.001,0.027,0,0.053,0.001,0.075c0.002,0.026,0.006,0.055,0.011,0.076
			c0.009,0.045,0.021,0.075,0.032,0.089c-0.003-0.05-0.004-0.101-0.002-0.151c0.004-0.042,0.011-0.078,0.018-0.117
			c0.007-0.037,0.016-0.081,0.026-0.11l0.031-0.088c0.011-0.028,0.023-0.062,0.034-0.084l0.035-0.07l0.036-0.069l0.036-0.059
			c0.097-0.157,0.193-0.28,0.286-0.391c0.093-0.111,0.184-0.212,0.27-0.306c0.041-0.045,0.082-0.09,0.123-0.134l0.051-0.057
			l0.025-0.031c0.009-0.011,0.015-0.019,0.024-0.033l0.025-0.047c0.008-0.015,0.016-0.031,0.024-0.046
			c0.015-0.024,0.029-0.049,0.044-0.072c0.059-0.101,0.12-0.194,0.176-0.284c0.114-0.175,0.214-0.331,0.297-0.459
			c-0.165,0.153-0.249,0.231-0.265,0.207c0.05-0.01,0.328-0.349,0.498-0.518l0.058-0.159c0.321-0.251,0.312-0.184,0.118,0.082
			c0.276-0.26,0.495-0.64,0.846-0.82c-0.193,0.23-0.453,0.468-0.686,0.695c-0.233,0.225-0.438,0.438-0.528,0.581
			c0.212-0.267,0.396-0.443,0.561-0.582c0.166-0.139,0.315-0.243,0.471-0.351c0.154-0.106,0.324-0.224,0.501-0.367
			c0.047-0.039,0.095-0.082,0.146-0.127c0.053-0.048,0.11-0.098,0.17-0.153c0.119-0.11,0.254-0.233,0.407-0.374
			c0.041,0.009-0.127,0.233,0.121,0.028c0.278-0.245,0.293-0.298,0.249-0.318c-0.043-0.02-0.143-0.003-0.078-0.102
			c-0.425,0.391-0.655,0.542-0.975,0.711l0.07-0.14c0.04,0.003,0.317-0.237,0.422-0.288l-0.014-0.137
			C30.158,6.01,30.68,5.703,31.02,5.4c-0.44,0.214-0.335,0.143-0.542,0.121c0.211-0.248,0.386-0.336,0.567-0.425
			c0.182-0.09,0.369-0.184,0.626-0.44c-0.02,0.059-0.526,0.441-0.049,0.154c0.382-0.248,0.267-0.286,0.504-0.475
			c-0.221,0.264-0.096,0.275-0.321,0.571c-0.329,0.228-0.394,0.277-0.456,0.324c-0.061,0.049-0.12,0.096-0.418,0.347
			c0,0,0.149-0.083,0.299-0.165c0.15-0.081,0.301-0.159,0.301-0.159c-0.271,0.2-0.348,0.296-0.361,0.346
			c-0.013,0.05,0.039,0.057,0.031,0.087c0.499-0.3,0.652-0.444,0.755-0.575c0.104-0.128,0.159-0.237,0.48-0.425
			c0.256-0.248-0.595,0.363-0.173,0.004c0.613-0.366,0.108-0.157,0.746-0.577l-0.079,0.1c0.236-0.065,0.384-0.239,0.606-0.382
			c0.116-0.087-0.012-0.115-0.04-0.199c-0.027-0.085,0.041-0.222,0.567-0.536c-0.034,0.053-0.041,0.079-0.034,0.088l-0.471,1.282
			c0.528-0.309,1.097-0.645,1.706-0.979c0.304-0.167,0.619-0.332,0.942-0.492c0.325-0.158,0.658-0.311,1-0.45
			c0.201,0.001-0.02,0.137-0.269,0.281c-0.249,0.145-0.524,0.302-0.463,0.313c0,0-0.151,0.067-0.299,0.139
			c-0.149,0.071-0.297,0.142-0.297,0.142c-0.006-0.038,0.291-0.208,0.519-0.34c0.228-0.132,0.386-0.233,0.084-0.149
			c-0.504,0.288-0.873,0.489-1.228,0.697c-0.354,0.209-0.689,0.427-1.111,0.761c0.398-0.037,1.212-0.756,1.917-0.991
			c-0.268,0.135-0.475,0.273-0.671,0.414c0.59-0.313,1.226-0.641,1.93-0.934c0,0,0.033-0.027,0.067-0.053
			c0.034-0.026,0.068-0.052,0.068-0.052c-0.478,0.193-0.801,0.346-0.845,0.361c0.609-0.3,1.097-0.598,1.084-0.722
			c0,0-0.029,0.011-0.059,0.021c-0.03,0.01-0.058,0.022-0.058,0.022s0.053-0.033,0.108-0.064c0.054-0.032,0.109-0.064,0.109-0.064
			C37.945,2.272,38.105,2.227,38.262,2.178z M49.307,28.193c0.018-0.036,0.027-0.067,0.028-0.094
			C49.334,28.127,49.363,28.115,49.307,28.193z M28.05,9.947c0.071-0.075,0.146-0.15,0.223-0.226l0.125-0.126l0.064-0.068
			l0.049-0.072c0.068-0.103,0.122-0.174,0.185-0.257c0.062-0.08,0.127-0.158,0.193-0.236c0.267-0.309,0.569-0.595,0.873-0.872
			c-0.32,0.214-0.606,0.421-0.826,0.59c-0.22,0.168-0.377,0.295-0.453,0.33c-0.075,0.036-0.076-0.026,0.048-0.217
			c0.123-0.19,0.38-0.507,0.842-0.942l0.107-0.125c-0.267,0.206-0.69,0.603-1.007,1.032c-0.047,0.097-0.118,0.248-0.18,0.424
			c-0.017,0.044-0.03,0.088-0.045,0.135c-0.008,0.023-0.015,0.047-0.023,0.07c-0.01,0.022-0.022,0.044-0.034,0.067
			c-0.05,0.088-0.1,0.177-0.149,0.264c-0.096,0.171-0.172,0.332-0.213,0.448c-0.042,0.116-0.049,0.184-0.041,0.185
			c0.127-0.07,0.179-0.264,0.38-0.447L28.05,9.947z M27.302,10.218c-0.055,0.095-0.09,0.174-0.1,0.246
			c-0.016,0.067,0,0.128,0.006,0.161l0.306-0.145c-0.079-0.039-0.084-0.004-0.143-0.01l0.091,0.061l-0.176,0.083
			c-0.013-0.082-0.005-0.163,0.019-0.231c0.021-0.071,0.052-0.135,0.086-0.196C27.345,10.239,27.312,10.265,27.302,10.218z
			 M27.36,10.523c0.023,0.017,0.044,0.034,0.061,0.048l-0.073,0.034c0-0.022,0.002-0.041,0.005-0.053l-0.001,0.052l0.067-0.032
			L27.36,10.523z M34.415,4.338c-0.019,0.013-0.025,0.017-0.043,0.029c0.106-0.058,0.213-0.117,0.324-0.178
			C34.648,4.208,34.564,4.25,34.415,4.338z M33.446,4.766l-0.049,0.132c0.099-0.054,0.201-0.108,0.305-0.164
			C33.642,4.721,33.585,4.713,33.446,4.766z M30.496,6.45c-0.038,0.105-0.189,0.271-0.315,0.43
			c-0.128,0.157-0.228,0.302-0.195,0.355c-0.006,0.05,0.11-0.037,0.235-0.141c0.135-0.12,0.281-0.247,0.441-0.378
			c-0.009-0.017,0.009-0.055,0.048-0.11c-0.168,0.121-0.294,0.191-0.293,0.085c0.265-0.117,0.332-0.211,0.393-0.321
			c0.062-0.109,0.117-0.234,0.362-0.395c0.041-0.087-0.104-0.006-0.271,0.117C30.735,6.216,30.549,6.382,30.496,6.45z M2.004,22.323
			c-0.007,0.018-0.018,0.074-0.024,0.152c0,0-0.055-0.081-0.102-0.164c-0.049-0.083-0.098-0.166-0.098-0.166
			c-0.051-0.158-0.09-0.311-0.122-0.46c-0.026-0.15-0.048-0.295-0.076-0.437c-0.063-0.282-0.111-0.554-0.27-0.827
			c-0.016-0.138,0.004-0.248,0.023-0.341c0.021-0.093,0.048-0.169,0.072-0.243c0.019,0.132,0.035,0.256,0.043,0.361
			c0.071,0.196,0.138,0.354,0.179,0.486c0.045,0.132,0.068,0.238,0.091,0.324c0.043,0.172,0.038,0.273,0.028,0.366
			c-0.01,0.093-0.026,0.177-0.003,0.316C1.774,21.828,1.845,22.019,2.004,22.323z M1.764,14.996C1.754,15.062,1.77,15.09,1.77,15.09
			c0.017-0.18,0.035-0.357,0.056-0.53c0.029-0.171,0.062-0.337,0.094-0.499c0.058-0.326,0.156-0.625,0.24-0.906
			c0.022-0.07,0.044-0.139,0.065-0.206c0.026-0.066,0.051-0.131,0.075-0.195c0.05-0.127,0.099-0.249,0.148-0.364
			c0.092-0.233,0.2-0.435,0.295-0.613c-0.041,0.026-0.098,0.084-0.162,0.161c-0.065,0.077-0.139,0.173-0.206,0.278
			c-0.137,0.209-0.278,0.443-0.37,0.594l0.022-0.314l0.165-0.145c0,0,0.032-0.129,0.064-0.259c0.015-0.065,0.036-0.128,0.05-0.176
			c0.014-0.048,0.024-0.08,0.024-0.08c-0.147,0.104-0.31,0.504-0.488,0.749c-0.002,0.027-0.225,0.922-0.241,1.18
			c0,0,0.02-0.042,0.049-0.105c0.033-0.062,0.076-0.144,0.12-0.226c0.087-0.164,0.174-0.328,0.174-0.328
			c-0.05,0.087-0.166,0.356-0.269,0.652c-0.047,0.149-0.095,0.305-0.136,0.446c-0.04,0.141-0.08,0.267-0.094,0.361
			c0.014,0.005,0.04-0.03,0.07-0.086c0.034-0.055,0.073-0.132,0.107-0.213c0.069-0.161,0.119-0.338,0.072-0.393
			C1.8,13.82,1.559,14.534,1.8,14.105c-0.113,0.549-0.385,1.396-0.504,1.797l-0.156,0.05c-0.065,0.222-0.029,0.304-0.003,0.394
			c0.029,0.091,0.046,0.19-0.026,0.454c0.058-0.66-0.175,0.099-0.112-0.428c-0.039,0.081-0.077,0.079-0.113,0.122
			c-0.018,0.022-0.036,0.055-0.053,0.116c-0.008,0.031-0.018,0.068-0.025,0.115c-0.005,0.047-0.01,0.103-0.014,0.17
			c0.078,0.229,0.037,0.367-0.006,0.504c-0.042,0.137-0.073,0.273,0.007,0.485c-0.062,0.283-0.112-0.306-0.142,0.253
			c0.128,0.639,0.203,0.594,0.342,0.627c0.004-0.294-0.054-0.457-0.103-0.609c-0.044-0.152-0.089-0.292-0.07-0.535
			c0,0,0.057,0.241,0.114,0.482c0.025,0.12,0.069,0.238,0.094,0.326c0.027,0.088,0.045,0.147,0.045,0.147
			c0.024-0.176,0.018-0.305,0.006-0.414c0.021,0.19,0.068,0.351,0.123,0.486c0.032,0.077,0.059,0.148,0.082,0.213
			c-0.013-0.266-0.03-0.516-0.028-0.711c0.01-0.195,0.027-0.334,0.057-0.375l0.066,0.073c0.032-0.093,0.036-0.215,0.027-0.332
			c-0.006-0.117-0.019-0.229-0.039-0.3c0.015-0.472,0.008-0.952,0.105-1.046l0.035,0.185c0.017-0.144,0.025-0.257,0.041-0.356
			c0.017-0.098,0.032-0.183,0.048-0.272C1.633,15.55,1.66,15.352,1.764,14.996z M19.171,7.093c-0.169-0.144-0.356-0.275-0.74-0.416
			c-0.386-0.131-0.977-0.441-1.951-0.493c0,0,0.039-0.184,0.077-0.184c0.039,0,0.077,0,0.077,0c-0.121,0-0.242,0.14-0.364,0.131
			c-0.122-0.009-0.244,0.078-0.367,0.077c-0.123,0.001-0.246,0.044-0.37,0.055c-0.124,0.011-0.249,0.044-0.375,0.055
			c-0.126,0.011-0.254,0.034-0.384,0.043c-0.13,0.011-0.261,0.033-0.396,0.042c-0.135,0.01-0.272,0.019-0.414,0.02
			c-0.142,0-0.286,0.009-0.437,0.003c0.142-0.034,0.247-0.058,0.333-0.079c0.087-0.018,0.157-0.033,0.228-0.052
			c0.143-0.038,0.292-0.089,0.613-0.196l-0.627,0.091c0.083-0.062-0.032-0.07-0.226-0.06c-0.193,0.018-0.464,0.057-0.695,0.076
			l0.391-0.174c0.071,0.003,0.17,0.002,0.277-0.001c0.108,0,0.225-0.001,0.332-0.004c0.214-0.006,0.39-0.019,0.379-0.034
			c-0.079,0.013,0.163,0.037,0.498,0.076c0.168,0.017,0.358,0.033,0.544,0.041c0.186,0.013,0.368,0.025,0.519,0.021
			c-0.014-0.024-0.105-0.042-0.224-0.059c-0.119-0.016-0.267-0.033-0.395-0.041c-0.256-0.02-0.435-0.047-0.147-0.124
			c-0.254,0.033-0.396,0.027-0.542,0.016c-0.146-0.01-0.295-0.013-0.559,0.015c0.506-0.088,0.118-0.133,0.497-0.218l-0.878,0.074
			c-0.028-0.03,1.281-0.132,0.55-0.21c-0.088,0.017-0.214,0.028-0.354,0.038c-0.07,0.004-0.143,0.009-0.216,0.014
			c-0.073,0.005-0.146,0.014-0.217,0.021c-0.283,0.03-0.522,0.062-0.523,0.112l-0.026-0.028c-0.167,0.008-0.265,0.032-0.334,0.052
			c-0.069,0.021-0.106,0.043-0.149,0.064C12.494,5.9,12.389,5.936,11.984,5.97c0.001,0.026,0.041,0.039,0.116,0.041
			c0.076,0.003,0.186-0.006,0.328-0.031c0.119-0.028,0.184-0.06,0.283-0.095c0.049-0.018,0.107-0.036,0.183-0.056
			c0.076-0.019,0.173-0.033,0.298-0.049c0.118,0.028-0.034,0.04-0.17,0.057c-0.136,0.015-0.253,0.048-0.07,0.088
			c0.091,0.024,0.419-0.021,0.682-0.049c0.066-0.007,0.127-0.013,0.18-0.017c0.053-0.002,0.097-0.001,0.127,0.002
			c0.06,0.007,0.065,0.027-0.023,0.069c0,0-0.041,0.001-0.102,0.002c-0.061,0.004-0.142,0.009-0.224,0.014
			c-0.163,0.01-0.326,0.02-0.326,0.02c-0.002,0.05-0.12,0.085-0.234,0.117c-0.114,0.032-0.223,0.069-0.21,0.107
			c-0.192,0.045-0.384,0.052-0.578,0.066C12.05,6.27,11.86,6.306,11.672,6.382c-0.074,0.046-0.032,0.086-0.054,0.122
			c-0.011,0.018-0.038,0.035-0.104,0.052c-0.066,0.017-0.17,0.032-0.333,0.057c-0.135-0.007-0.329,0.01-0.553,0.042
			c-0.224,0.033-0.471,0.097-0.721,0.158C9.845,6.831,9.783,6.847,9.721,6.863C9.66,6.882,9.599,6.901,9.54,6.92
			C9.421,6.959,9.305,6.997,9.197,7.033c-0.218,0.069-0.401,0.147-0.531,0.2c0,0-0.108,0.057-0.216,0.114
			C8.395,7.375,8.342,7.403,8.301,7.425c-0.04,0.021-0.066,0.037-0.066,0.037C8.302,7.499,9.109,7.131,8.85,7.311
			c0,0-0.176,0.071-0.351,0.142C8.321,7.521,8.152,7.603,8.152,7.603l0.035-0.057C7.952,7.637,7.732,7.766,7.539,7.882
			C7.712,7.719,8.235,7.54,8.082,7.487c-0.17,0.06-0.273,0.086-0.37,0.116C7.614,7.632,7.523,7.665,7.38,7.745
			c0.061-0.037,0.111-0.072,0.095-0.081C7.135,7.798,6.992,7.899,6.919,7.978C6.845,8.057,6.842,8.12,6.772,8.175
			C6.497,8.4,6.677,8.342,6.919,8.246c0.244-0.094,0.564-0.209,0.551-0.145c0,0-0.115,0.058-0.287,0.145
			C7.096,8.289,7,8.345,6.895,8.404C6.791,8.463,6.68,8.526,6.569,8.589C6.456,8.649,6.352,8.721,6.25,8.783
			c-0.1,0.063-0.194,0.122-0.274,0.173c-0.081,0.049-0.144,0.096-0.19,0.127c-0.045,0.032-0.071,0.05-0.071,0.05
			c0.06-0.061,0.121-0.122,0.156-0.167C5.909,8.922,5.92,8.892,5.877,8.892c-0.455,0.232-0.066-0.06-0.652,0.331
			c0.07,0.039-0.089,0.187-0.308,0.367C4.862,9.635,4.802,9.68,4.745,9.731C4.689,9.782,4.632,9.834,4.576,9.886
			c-0.11,0.105-0.219,0.203-0.289,0.299c-0.106,0.056-0.171,0.09-0.164,0.068c0.004-0.011,0.025-0.036,0.068-0.079
			c0.022-0.021,0.049-0.047,0.082-0.079c0.035-0.029,0.076-0.064,0.124-0.104c-0.03-0.007-0.083,0.015-0.149,0.056
			c-0.064,0.042-0.137,0.105-0.214,0.172c-0.076,0.068-0.154,0.141-0.225,0.207c-0.07,0.066-0.125,0.131-0.169,0.171
			c-0.037,0.056-0.092,0.129-0.149,0.201c-0.028,0.036-0.056,0.073-0.083,0.108c-0.025,0.036-0.046,0.071-0.065,0.102
			c0.168-0.122,0.165-0.019-0.06,0.317l0.004,0.028c0.057-0.062,0.118-0.127,0.182-0.196c0.064-0.069,0.132-0.141,0.209-0.209
			c0.075-0.069,0.151-0.139,0.227-0.21l0.113-0.105c0.04-0.033,0.079-0.066,0.119-0.099c0.078-0.066,0.154-0.131,0.225-0.194
			c0.035-0.032,0.07-0.063,0.104-0.093c0.035-0.029,0.069-0.058,0.102-0.085c0.13-0.112,0.236-0.214,0.301-0.301L4.811,9.971
			C5.154,9.75,5.478,9.463,5.786,9.23c0.077-0.058,0.148-0.118,0.223-0.167C6.084,9.013,6.155,8.968,6.224,8.93
			c0.137-0.077,0.262-0.131,0.372-0.141c0.013,0.074,0.157-0.064,0.206,0.027c0,0,0.121-0.087,0.243-0.174
			c0.061-0.044,0.122-0.087,0.168-0.12c0.047-0.032,0.079-0.052,0.079-0.052S7.269,8.492,7.247,8.515
			C7.225,8.539,7.204,8.564,7.204,8.564s0.014-0.008,0.038-0.021C7.268,8.53,7.304,8.512,7.347,8.49
			c0.087-0.043,0.202-0.101,0.318-0.158c0.116-0.058,0.23-0.117,0.321-0.154c0.089-0.04,0.149-0.066,0.149-0.066L8.118,8.139
			C8.525,7.86,8.867,7.666,9.137,7.499C9.12,7.459,9.081,7.455,9.23,7.374C9.384,7.302,9.507,7.259,9.62,7.23L9.62,7.229l0,0.001
			c0.256-0.072,0.452-0.054,0.773-0.116c0,0-0.24,0.068-0.48,0.136C9.677,7.327,9.441,7.405,9.441,7.405
			C9.395,7.499,9.508,7.543,9.986,7.447C9.799,7.508,9.744,7.588,9.978,7.522c0.017-0.026,0.603-0.214,0.356-0.208
			c0.112-0.034,0.234-0.067,0.364-0.1c0.132-0.028,0.272-0.054,0.419-0.081c0.147-0.025,0.299-0.058,0.459-0.078
			c0.16-0.022,0.324-0.044,0.493-0.067c0.084-0.011,0.168-0.026,0.255-0.035c0.086-0.009,0.173-0.019,0.261-0.028
			c0.175-0.02,0.351-0.043,0.529-0.067c0.179-0.018,0.358-0.039,0.537-0.064l0.268-0.04c0.09-0.011,0.179-0.023,0.268-0.036
			c-0.256,0.033-0.331,0.056-0.319,0.069c0.012,0.011,0.113,0.016,0.209,0.021c0.193,0.009,0.37,0.009-0.196,0.056
			c0.8,0.078,0.673-0.163,1.491-0.146c0.07,0.042-0.444-0.003-0.628,0.082c0.337,0.011,0.647-0.002,0.944-0.011
			c0.297-0.001,0.582-0.02,0.866-0.025c0.283,0.001,0.568-0.004,0.862,0.011c0.293,0.024,0.598,0.05,0.92,0.111l0.035,0.1
			C18.614,7.018,18.888,7.05,19.171,7.093z M21.689,7.681c0.061,0.018,0.121,0.035,0.182,0.053c0.06,0.021,0.119,0.041,0.18,0.062
			c0.12,0.042,0.241,0.083,0.364,0.126c-0.023-0.01-0.044-0.019-0.068-0.03c0,0,0.184,0.052,0.368,0.104
			c0.093,0.024,0.183,0.055,0.25,0.078c0.068,0.023,0.113,0.038,0.113,0.038c-0.1-0.055-0.188-0.112-0.258-0.157
			c-0.07-0.044-0.119-0.083-0.134-0.108c-0.016-0.026,0.001-0.039,0.061-0.034c0.06,0.006,0.166,0.027,0.319,0.086
			c-0.07,0.012,0.078,0.131-0.138,0.058c0.183,0.114,0.483,0.28,0.718,0.39c0.119,0.053,0.216,0.101,0.278,0.116
			c0.062,0.016,0.087,0.002,0.052-0.056c-0.202-0.069-0.313-0.108-0.369-0.144c-0.057-0.036-0.061-0.064-0.059-0.09
			c0.003-0.053,0.028-0.102-0.299-0.194c0.371,0.066,0.673,0.242,0.989,0.366c-0.353-0.093-0.028,0.186,0.406,0.451
			c0.107,0.041,0.283,0.148,0.48,0.258c0.195,0.112,0.411,0.227,0.579,0.311c-0.026-0.07,0.036-0.072,0.044-0.098
			c0.009-0.028-0.04-0.078-0.297-0.24c0.103,0.048,0.237,0.107,0.374,0.194c0.137,0.087,0.285,0.191,0.431,0.313
			c-0.138-0.071-0.369-0.208-0.374-0.173c0.153,0.198,0.397,0.351,0.507,0.464c0.055,0.033,0.111,0.065,0.164,0.099
			c0.053,0.035,0.105,0.07,0.157,0.104C26.683,10,26.664,9.974,26.655,9.951l0.396,0.188c-0.483-0.297-0.181-0.182-0.138-0.216
			c-0.086,0.068,0.283,0.222,0.442,0.332l-0.261-0.326c0.205,0.079,0.523,0.477,0.517,0.337c-0.346-0.277-0.592-0.464-0.838-0.635
			c-0.255-0.162-0.508-0.31-0.86-0.519l0.22,0.245c-0.4-0.229-0.505-0.322-0.612-0.436c-0.054-0.056-0.11-0.116-0.209-0.194
			c-0.05-0.039-0.11-0.083-0.186-0.133c-0.077-0.05-0.167-0.109-0.286-0.167c-0.218-0.068-0.568-0.249-0.88-0.393
			C23.64,7.9,23.363,7.798,23.313,7.86c0.072,0.007-0.059-0.09-0.255-0.2c-0.2-0.102-0.469-0.212-0.654-0.248
			c-0.111-0.004-0.261-0.04-0.427-0.072c-0.166-0.032-0.342-0.073-0.494-0.109c-0.303-0.071-0.51-0.118-0.35-0.031
			c0.154,0.053,0.343,0.097,0.519,0.148c0.176,0.053,0.344,0.107,0.443,0.199c0,0-0.037-0.013-0.093-0.032
			c-0.056-0.018-0.133-0.039-0.209-0.061c-0.152-0.044-0.305-0.087-0.305-0.087l0.358,0.201C21.658,7.475,21.646,7.549,21.689,7.681
			z M32.917,6.446l0.02-0.011l-0.021,0.013L32.917,6.446z"/>
		<path fill="#D14927" d="M6.854,29.232c0.139,0.108,0.397,0.426,0.415,0.322C7.198,29.608,6.787,28.998,6.854,29.232z"/>
		<path fill="#D14927" d="M7.094,29.654c0.037,0.011,0.053-0.022,0.174,0.117l-0.345-0.378L7.094,29.654z"/>
		<path fill="#D14927" d="M6.908,30.373c0.229,0.165,0.369,0.272,0.634,0.59c-0.082,0.235-0.493-0.483-0.788-0.518
			c0.478,0.589,0.79,0.665,1.219,1.125C7.841,31.289,7.062,30.303,6.908,30.373z"/>
		<polygon fill="#D14927" points="6.456,30.259 6.771,30.557 6.755,30.519 6.44,30.22 		"/>
		<path fill="#D14927" d="M3.313,22.085c0.05-0.051-0.097-0.25-0.157-0.364C3.189,21.818,3.214,21.959,3.313,22.085z"/>
		<path fill="#D14927" d="M53.547,20.019c0,0-0.098,0.151-0.246,0.377c-0.018,0.028-0.038,0.058-0.057,0.088
			c-0.03,0.046-0.061,0.093-0.093,0.141c-0.02,0.031-0.043,0.06-0.059,0.093c-0.017,0.032-0.034,0.064-0.051,0.097
			c-0.019,0.037-0.038,0.074-0.057,0.112c-0.078,0.152-0.165,0.313-0.255,0.474c-0.358,0.644-0.779,1.267-0.779,1.267
			c0.24-0.358,0.462-0.708,0.696-1.113c0.117-0.203,0.235-0.42,0.358-0.659c0.016-0.031,0.032-0.063,0.048-0.095
			c0.032-0.061,0.058-0.115,0.097-0.169c0.021-0.031,0.041-0.062,0.062-0.094l0.029-0.045c0.019-0.03,0.039-0.06,0.058-0.091
			C53.378,20.282,53.461,20.154,53.547,20.019z"/>
		<path fill="#D14927" d="M3.181,12.88c-0.145,0.373-0.194,0.656-0.263,0.933c-0.016,0.07-0.035,0.139-0.05,0.21
			c-0.014,0.072-0.029,0.145-0.046,0.221c-0.034,0.153-0.076,0.317-0.131,0.507c0.118-0.239,0.191-0.442,0.241-0.627
			c0.025-0.093,0.048-0.179,0.07-0.263c0.021-0.084,0.039-0.165,0.056-0.245c0.018-0.08,0.036-0.158,0.053-0.238
			c0.018-0.08,0.041-0.16,0.074-0.24c0.063-0.162,0.147-0.334,0.275-0.525L3.181,12.88z"/>
		<path fill="#D14927" d="M3.595,13.309c-0.181,0.078,0.108-0.598-0.032-0.527c-0.097,0.247-0.093,0.313-0.092,0.372
			c0.001,0.029,0.001,0.057-0.013,0.104c-0.015,0.047-0.04,0.114-0.085,0.224c0,0,0.054-0.044,0.109-0.087
			c0.027-0.022,0.055-0.043,0.077-0.059C3.581,13.319,3.595,13.309,3.595,13.309z"/>
		<polygon fill="#D14927" points="0.43,16.379 0.398,16.112 0.393,16.324 		"/>
		<path fill="#D14927" d="M5.478,10.599l-0.047,0.075c0,0,0.084-0.056,0.167-0.113c0.041-0.029,0.086-0.054,0.119-0.074
			c0.033-0.02,0.055-0.033,0.055-0.033s-0.075,0.035-0.15,0.069C5.55,10.562,5.478,10.599,5.478,10.599z"/>
		<path fill="#D14927" d="M5.386,10.748l0.046-0.074L5.386,10.748z"/>
		<polygon fill="#D14927" points="0.191,16.012 0.107,16.401 0.141,16.6 		"/>
		<path fill="#D14927" d="M1.862,12.896l-0.086,0.329C1.793,13.159,2.018,12.744,1.862,12.896z"/>
		<path fill="#D14927" d="M7.617,9.294c0,0,0.021-0.014,0.052-0.036C7.7,9.236,7.743,9.209,7.787,9.183
			c0.087-0.054,0.174-0.107,0.174-0.107L7.917,9.084c0,0-0.087,0.053-0.174,0.107C7.699,9.217,7.658,9.247,7.626,9.268
			C7.595,9.289,7.574,9.304,7.574,9.304L7.617,9.294z"/>
		<path fill="#D14927" d="M2.994,10.317C2.73,10.45,3.5,9.755,3.053,10.094C2.73,10.453,2.909,10.339,2.994,10.317z"/>
		<path fill="#D14927" d="M7.986,7.763c0.057-0.024,0.115-0.052,0.168-0.084C8.087,7.711,8.031,7.739,7.986,7.763z"/>
		<path fill="#D14927" d="M7.986,7.763c-0.092,0.038-0.188,0.069-0.275,0.1C7.624,7.893,7.548,7.929,7.494,7.969
			C7.737,7.897,7.815,7.855,7.986,7.763z"/>
		<path fill="#D14927" d="M10.142,6.996L9.963,7.038c0.164-0.091,0.081-0.061-0.067,0.016C9.711,7.109,9.734,7.137,9.719,7.16
			C9.687,7.183,9.655,7.205,9.62,7.229c0.052-0.029,0.098-0.056,0.138-0.078C10.044,7.066,10.22,7.019,10.142,6.996z"/>
		<path fill="#D14927" d="M18.361,8.076c-0.148-0.036-0.269-0.066-0.366-0.09c-0.098-0.02-0.172-0.037-0.226-0.053
			c-0.108-0.031-0.135-0.056-0.113-0.088c-0.577-0.101-0.505,0.033-0.857,0.03c0.164,0.011,0.295,0.02,0.412,0.033
			c0.116,0.017,0.217,0.032,0.323,0.048C17.746,7.988,17.974,8.012,18.361,8.076z"/>
		<path fill="#D14927" d="M16.8,7.875c-0.073-0.005-0.144-0.009-0.229-0.014C16.666,7.871,16.736,7.874,16.8,7.875z"/>
		<path fill="#D14927" d="M7.215,7.227c0,0,0.021-0.018,0.053-0.043c0.033-0.025,0.076-0.058,0.12-0.09
			c0.088-0.066,0.175-0.132,0.175-0.132L7.422,7.037c0,0-0.052,0.047-0.104,0.094C7.265,7.177,7.215,7.227,7.215,7.227z"/>
		<path fill="#D14927" d="M19.236,8.291c-0.108-0.03-0.285-0.067-0.365-0.111C18.821,8.241,19.344,8.321,19.236,8.291z"/>
		<path fill="#D14927" d="M17.094,6.572c-0.063-0.047-0.496-0.063-0.67-0.088C16.676,6.508,16.865,6.656,17.094,6.572z"/>
		<path fill="#D14927" d="M21.027,8.503c-0.106-0.04-0.254-0.14-0.158-0.169C20.696,8.312,20.435,8.354,21.027,8.503z"/>
		<path fill="#D14927" d="M18.312,6.735c0,0-0.022-0.01-0.045-0.02c-0.023-0.009-0.045-0.018-0.045-0.018L17.757,6.68
			c0,0,0.139,0.013,0.277,0.026c0.069,0.007,0.139,0.013,0.191,0.018C18.278,6.728,18.312,6.735,18.312,6.735z"/>
		<path fill="#D14927" d="M16.781,5.535c-0.28,0.017-0.065,0.085,0.098,0.148c0.163,0.062,0.274,0.118-0.198,0.113
			c1.198,0.189-0.08-0.124,0.813-0.034C16.974,5.689,16.724,5.564,16.781,5.535z"/>
		<path fill="#D14927" d="M17.494,5.762c0.075,0.014,0.157,0.027,0.246,0.039C17.642,5.785,17.563,5.772,17.494,5.762z"/>
		<path fill="#D14927" d="M24.405,8.397c-0.071-0.027-0.122-0.042-0.169-0.055C24.292,8.364,24.347,8.382,24.405,8.397z"/>
		<path fill="#D14927" d="M20.329,6.205L19.496,6.14c0.138,0.011,0.325,0.038,0.528,0.072c0.101,0.017,0.206,0.035,0.311,0.053
			c0.104,0.02,0.206,0.045,0.304,0.065c0.392,0.085,0.713,0.145,0.696,0.076c-0.209-0.073-0.447-0.138-0.66-0.186
			c-0.107-0.023-0.207-0.045-0.296-0.057c-0.09-0.01-0.167-0.016-0.225-0.016L20.329,6.205z"/>
		<path fill="#D14927" d="M28.936,10.868l0.002,0.001l0.002,0.002l0.001,0.001c-0.014-0.006-0.028-0.012-0.043-0.018
			c-0.036-0.014-0.074-0.029-0.115-0.044c-0.043-0.015-0.07-0.03-0.109-0.045c-0.073-0.03-0.153-0.058-0.235-0.083
			c-0.091-0.024-0.143-0.047-0.207-0.064c-0.062-0.017-0.122-0.029-0.174-0.037c-0.077-0.02-0.128-0.024-0.128-0.024
			s0.016,0.002,0.044,0.006c0.014,0.002,0.031,0.006,0.049,0.01c0.01,0.002,0.018,0.005,0.031,0.008
			c0.015,0.002,0.03,0.005,0.047,0.008c0.065,0.012,0.138,0.029,0.213,0.054c0.021,0.006,0.033,0.013,0.06,0.02
			c0.025,0.007,0.05,0.014,0.075,0.022c0.05,0.015,0.101,0.032,0.15,0.051c0.049,0.018,0.098,0.038,0.145,0.059
			c0.057,0.022,0.114,0.044,0.168,0.065c0.027,0.011,0.054,0.023,0.08,0.034l0.004,0.002l0.001,0l0.01-0.009
			C28.974,10.899,28.909,10.817,28.936,10.868z"/>
		<path fill="#D14927" d="M29.023,10.869l-0.015,0.017C29.015,10.883,29.016,10.882,29.023,10.869z"/>
		<path fill="#D14927" d="M23.061,7.827c-0.109-0.057-0.216-0.096-0.319-0.135c-0.103-0.038-0.206-0.071-0.317-0.103
			C22.502,7.645,23.069,7.89,23.061,7.827z"/>
		<path fill="#D14927" d="M29.971,9.284c0,0-0.016,0.021-0.04,0.052c-0.024,0.031-0.057,0.072-0.086,0.113
			c-0.031,0.041-0.061,0.082-0.081,0.113c-0.021,0.031-0.036,0.051-0.036,0.051s0.016-0.022,0.041-0.055
			c0.024-0.033,0.059-0.077,0.093-0.12c0.07-0.088,0.147-0.176,0.147-0.176L29.971,9.284z"/>
		<path fill="#D14927" d="M31.779,7.885l0.079-0.037c0,0,0.064-0.07,0.129-0.141c0.066-0.07,0.131-0.14,0.131-0.14l-0.082,0.036
			c0,0-0.065,0.07-0.13,0.14C31.843,7.814,31.779,7.885,31.779,7.885z"/>
		<path fill="#D14927" d="M27.4,8.598c-0.03,0.041-0.058,0.081-0.083,0.121L27.3,8.749l-0.007,0.016
			c-0.004,0.01-0.008,0.02-0.012,0.03c-0.007,0.019-0.012,0.041-0.015,0.057c-0.002,0.012-0.002,0.024-0.002,0.035
			c0.001,0.023,0.007,0.04,0.003,0.066c0,0.021,0.011,0.028,0.031,0.016c0,0,0.015-0.016,0.037-0.041l0.014-0.016
			c0.005-0.006,0.01-0.011,0.017-0.023c0.013-0.021,0.027-0.043,0.04-0.065l0.01-0.017l0.019-0.028
			c0.013-0.02,0.026-0.039,0.039-0.057c0.025-0.037,0.048-0.072,0.069-0.101c0.042-0.058,0.07-0.097,0.07-0.097
			c-0.105,0.052-0.137,0.096-0.175,0.172c-0.009,0.019-0.02,0.039-0.032,0.063c-0.006,0.011-0.012,0.023-0.019,0.036
			c-0.003,0.007-0.006,0.015-0.01,0.023c-0.014,0.031-0.04,0.08-0.071,0.099c0,0,0.009-0.058,0.019-0.115l0.004-0.024l0.002-0.012
			l0.008-0.02c0.011-0.027,0.021-0.052,0.03-0.074C27.388,8.627,27.4,8.598,27.4,8.598z"/>
		<path fill="#D14927" d="M47.295,3.485c-0.166-0.003-0.817-0.267-0.829-0.332c0.051,0.002,0.171,0.028,0.251,0.038
			c0.08,0.012,0.122,0.009,0.015-0.049c0,0-0.151-0.068-0.301-0.075C46.356,3.064,46.281,3,46.225,3c-0.056,0-0.093,0-0.093,0
			c-0.335,0-0.185-0.1,0.104-0.065c0.145,0.014,0.322,0.085,0.488,0.116c0.166,0.034,0.319,0.089,0.414,0.107
			c-0.361-0.144-0.61-0.193-0.864-0.246c-0.254-0.05-0.513-0.094-0.904-0.181c0.057,0.016,0.108,0.033,0.154,0.05
			c0.046,0.018,0.087,0.037,0.125,0.055c0.075,0.036,0.135,0.071,0.19,0.102c-0.006,0.058-0.185,0.026-0.425-0.028
			c-0.12-0.023-0.256-0.057-0.394-0.085c-0.138-0.024-0.278-0.053-0.405-0.069c0.157,0.048,0.186,0.079,0.145,0.093
			c-0.04,0.014-0.149,0.017-0.268,0.026c-0.042-0.002-0.071,0.001-0.091,0.006c-0.028,0.002-0.054,0.004-0.08,0.006l0.059,0.008
			c-0.006,0.012,0.004,0.028,0.043,0.054c0.208,0.005,0.39,0.059,0.549,0.104c0.16,0.052,0.299,0.107,0.432,0.137
			c-0.105-0.12,0.128-0.074,0.433,0.011c0.306,0.091,0.679,0.233,0.862,0.269c0,0,0.1,0.031,0.201,0.063
			c0.05,0.016,0.101,0.031,0.138,0.043c0.038,0.013,0.063,0.021,0.063,0.021l0.147,0.057c0.02,0.03-0.034,0.035-0.274-0.018
			c0.101,0.018,0.306,0.092,0.482,0.153c0.175,0.064,0.322,0.113,0.308,0.075c0,0,0.089,0.036,0.221,0.096
			c0.133,0.059,0.31,0.137,0.486,0.221c0.353,0.164,0.703,0.344,0.703,0.344c0.039,0.029,0.077,0.059,0.101,0.087
			c0.055,0.015,0.069,0.011,0.069,0.011s0.023,0.001,0.068,0.024c0.048,0.025,0.118,0.063,0.208,0.11
			c0.045,0.024,0.096,0.051,0.151,0.08c0.027,0.015,0.056,0.03,0.086,0.045c0.027,0.014,0.055,0.028,0.084,0.043
			c0.057,0.029,0.118,0.06,0.183,0.093c0.062,0.033,0.138,0.067,0.196,0.102c0.506,0.275,1.154,0.697,1.731,1.199
			c0.293,0.246,0.56,0.516,0.807,0.772c0.238,0.262,0.454,0.511,0.623,0.734c0.174,0.22,0.302,0.413,0.395,0.546
			c0.087,0.136,0.137,0.213,0.137,0.213c-0.072-0.125-0.127-0.248-0.195-0.368c-0.065-0.12-0.128-0.244-0.213-0.37
			c0.399,0.301-0.285-0.412-0.098-0.367c0.089,0.068,0.174,0.167,0.248,0.269c0.037,0.05,0.072,0.101,0.103,0.15
			c0.028,0.049,0.053,0.096,0.072,0.137c0.096,0.026-0.002-0.214,0.083-0.226c-0.102-0.164-0.196-0.288-0.296-0.382
			c-0.1-0.095-0.196-0.167-0.294-0.236c-0.101-0.067-0.201-0.133-0.305-0.219c-0.106-0.085-0.221-0.185-0.344-0.33
			c0.042-0.012,0.116,0.015,0.137,0.001c0.021-0.015-0.014-0.072-0.203-0.243l0.107,0.079c-0.164-0.128-0.266-0.226-0.341-0.3
			C52.4,6.105,52.36,6.047,52.325,5.998c-0.072-0.097-0.133-0.158-0.407-0.252l0.089-0.065c-0.18-0.086-0.413-0.239-0.656-0.386
			c-0.118-0.077-0.244-0.146-0.357-0.214c-0.113-0.07-0.223-0.127-0.315-0.175l0.034-0.004c-0.262-0.12-0.464-0.195-0.594-0.254
			c-0.065-0.028-0.126-0.058-0.177-0.084c-0.052-0.026-0.097-0.05-0.143-0.075c-0.046-0.025-0.093-0.051-0.148-0.082
			c-0.052-0.027-0.111-0.059-0.185-0.098c-0.147-0.077-0.354-0.177-0.675-0.32c0,0,0.04,0.011,0.101,0.028
			c0.061,0.017,0.141,0.041,0.222,0.064c0.162,0.045,0.324,0.096,0.324,0.096c-0.406-0.262-0.578-0.199-0.884-0.358
			c0.033-0.006,0-0.105,0.309,0.02c0,0-0.411-0.146-0.822-0.276c-0.207-0.061-0.411-0.126-0.566-0.166
			c-0.154-0.042-0.257-0.07-0.257-0.07C46.81,3.26,47.259,3.421,47.295,3.485z"/>
		<path fill="#D14927" d="M45.372,2.735c-0.082-0.023-0.177-0.047-0.291-0.065C45.189,2.694,45.282,2.715,45.372,2.735z"/>
		<path fill="#D14927" d="M54.226,8.938c0,0-0.052-0.089-0.104-0.177c-0.05-0.089-0.108-0.176-0.108-0.176
			C54.08,8.695,54.138,8.813,54.226,8.938z"/>
		<path fill="#D14927" d="M42.994,2.74c0.107,0.016,0.146,0.028,0.133,0.037c-0.01,0.009-0.076,0.017-0.144,0.022
			c-0.144,0.011-0.285,0.017-0.304,0.036c0.099,0.004,0.223,0.012,0.396,0.016c0.171,0.004,0.397,0.004,0.669-0.034l-0.271,0.019
			l0.343,0.009c-0.002-0.04,0.093-0.077,0.077-0.112c-0.141-0.006-0.28-0.005-0.42-0.01l0.249-0.017
			C43.42,2.749,43.17,2.745,42.994,2.74z"/>
		<path fill="#D14927" d="M44.074,2.938c0.034-0.022,0.133-0.045,0.247-0.05c0,0-0.032-0.004-0.08-0.01
			c-0.047-0.004-0.111-0.008-0.174-0.013c-0.063-0.005-0.126-0.01-0.174-0.014c-0.048-0.005-0.078-0.004-0.078-0.004
			C43.817,2.874,43.871,2.903,44.074,2.938z"/>
		<path fill="#D14927" d="M44.176,0.892l0.219,0.014c0,0,0.021,0,0.052,0c0.031,0,0.073-0.001,0.115,0.001
			c0.083,0.003,0.166,0.006,0.166,0.006s-0.034-0.002-0.086-0.006c-0.052-0.003-0.12-0.01-0.189-0.01
			C44.315,0.895,44.176,0.892,44.176,0.892z"/>
		<path fill="#D14927" d="M47.37,1.744c-0.105-0.065-0.274-0.125-0.436-0.171c-0.164-0.042-0.321-0.072-0.399-0.087
			C47.057,1.636,46.823,1.588,47.37,1.744z"/>
		<path fill="#D14927" d="M46.968,0.954c0,0,0.136,0.03,0.271,0.063c0.133,0.035,0.267,0.07,0.267,0.07L47.462,1.06
			c0,0-0.122-0.028-0.245-0.056C47.092,0.979,46.968,0.954,46.968,0.954z"/>
		<path fill="#D14927" d="M55.578,11.675c0.013,0.066,0.025,0.129,0.038,0.196C55.602,11.781,55.59,11.722,55.578,11.675z"/>
		<path fill="#D14927" d="M54.339,8.476c0.194,0.445,0.084,0.317-0.064,0.121c-0.157-0.194-0.369-0.449-0.356-0.286
			c0,0,0.083,0.105,0.166,0.209c0.085,0.104,0.161,0.212,0.161,0.212l-0.062-0.021c0,0,0.083,0.135,0.166,0.27
			c0.073,0.13,0.146,0.26,0.146,0.26c0.013-0.133-0.027-0.218,0.059-0.223c0.044,0.091,0.079,0.163,0.103,0.221
			c0.019,0.061,0.032,0.107,0.04,0.142c0.016,0.07,0.012,0.098,0.004,0.12c-0.016,0.044-0.052,0.067,0.013,0.353
			c0,0,0.006,0.013,0.015,0.035c0.011,0.022,0.023,0.056,0.036,0.097c0.027,0.083,0.064,0.193,0.101,0.303
			c0.037,0.11,0.074,0.22,0.102,0.303c0.023,0.084,0.036,0.141,0.036,0.141l-0.04-0.069c0.019,0.076,0.037,0.108,0.056,0.132
			c0,0,0.048,0.19,0.119,0.476c0.03,0.144,0.054,0.315,0.087,0.497c0.015,0.091,0.034,0.185,0.047,0.281
			c0.009,0.097,0.019,0.195,0.028,0.294c0.01,0.099,0.019,0.197,0.029,0.294c0.004,0.049,0.011,0.096,0.013,0.144
			c0.001,0.048,0.002,0.095,0.004,0.142c0.005,0.186,0.01,0.36,0.015,0.509c0.005,0.149-0.008,0.274-0.009,0.361
			c-0.003,0.087-0.005,0.137-0.005,0.137c0.033,0.587,0.162-0.318,0.257,0.12c0.072-0.684,0.075-1.704-0.093-1.749
			c0.024,0.021,0.072,0.063,0.08-0.076c0,0-0.041-0.095-0.081-0.191c-0.019-0.048-0.047-0.094-0.064-0.129
			c-0.018-0.035-0.03-0.058-0.03-0.058s0.005,0.092,0.006,0.185c-0.003,0.093-0.006,0.187-0.006,0.187
			c-0.02-0.048-0.039-0.109-0.056-0.18c-0.019-0.071-0.044-0.15-0.064-0.236c-0.043-0.172-0.073-0.37-0.111-0.56
			c-0.044-0.189-0.08-0.374-0.103-0.528c-0.018-0.155-0.047-0.27-0.042-0.329c0.032,0.084,0.064,0.15,0.087,0.207
			c0.022,0.057,0.042,0.103,0.061,0.141c0.038,0.077,0.071,0.125,0.102,0.183c0.058,0.116,0.131,0.268,0.156,0.772
			c0.033-0.049,0.076-0.241,0.133-0.017c-0.027-0.146-0.054-0.291-0.08-0.434c-0.035-0.141-0.069-0.281-0.103-0.419
			c-0.056-0.281-0.153-0.547-0.238-0.817c-0.023-0.067-0.041-0.137-0.068-0.201c-0.028-0.064-0.056-0.128-0.084-0.192
			c-0.057-0.128-0.115-0.257-0.173-0.387l-0.022-0.049l-0.028-0.046l-0.056-0.092c-0.038-0.061-0.076-0.122-0.114-0.184
			C54.523,8.729,54.438,8.601,54.339,8.476z"/>
		<path fill="#D14927" d="M53.757,19.906l-0.008-0.014C53.744,19.914,53.746,19.923,53.757,19.906z"/>
		<path fill="#D14927" d="M53.986,19.558c0,0,0.01-0.036,0.026-0.09c0.017-0.053,0.033-0.127,0.049-0.201
			c0.032-0.146,0.065-0.292,0.065-0.292s-0.026,0.052-0.065,0.129c-0.04,0.077-0.088,0.182-0.144,0.284
			c-0.116,0.201-0.233,0.402-0.233,0.402l0.063,0.102c0.018-0.083,0.135-0.385,0.239-0.478L53.986,19.558z"/>
		<path fill="#D14927" d="M54.334,18.324c-0.148,0.448-0.019,0.47,0.143,0.248c-0.059,0.213-0.125,0.251-0.165,0.28
			c-0.042,0.028-0.067,0.044-0.075,0.203c0.045,0.012,0.118-0.109,0.185-0.247c0.066-0.139,0.111-0.3,0.13-0.359L54.334,18.324z"/>
		<path fill="#D14927" d="M55.374,15.011c0,0,0.009,0.034,0.016,0.068c0.007,0.034,0.015,0.068,0.015,0.068s0.005-0.02,0.011-0.05
			c0.007-0.03,0.016-0.07,0.022-0.11c0.013-0.08,0.026-0.161,0.026-0.161L55.374,15.011z"/>
		<path fill="#D14927" d="M55.405,15.147l-0.072,0.316c0.043-0.017,0.086-0.033,0.122-0.082L55.405,15.147z"/>
		<path fill="#D14927" d="M55.114,16.287c-0.02,0.066-0.041,0.135-0.064,0.21c-0.022,0.075-0.053,0.154-0.081,0.243
			c0,0,0.04-0.112,0.079-0.225C55.082,16.401,55.114,16.287,55.114,16.287z"/>
		<path fill="#D14927" d="M55.235,15.932l-0.019,0.008l-0.101,0.347C55.156,16.16,55.195,16.046,55.235,15.932z"/>
		<path fill="#D14927" d="M55.333,15.463c-0.05,0.02-0.101,0.041-0.146,0.115c-0.023,0.037-0.044,0.087-0.064,0.157
			c-0.02,0.069-0.046,0.157-0.066,0.271l0.159-0.066c0,0,0.009-0.03,0.022-0.074c0.014-0.044,0.03-0.104,0.042-0.164
			C55.306,15.583,55.333,15.463,55.333,15.463z"/>
		<polygon fill="#D14927" points="50.478,2.515 50.913,2.689 50.88,2.657 50.441,2.482 		"/>
		<path fill="#D14927" d="M52.776,3.897c0.106,0.056,0.192,0.094,0.268,0.131C52.938,3.962,52.845,3.918,52.776,3.897z"/>
		<path fill="#D14927" d="M54.793,4.799c0.338,0.44-0.649-0.464,0.071,0.275c0.001,0.055-0.107,0.015-0.254-0.083
			c-0.074-0.049-0.156-0.113-0.243-0.185c-0.088-0.071-0.178-0.152-0.262-0.238c0.086-0.023,0.393,0.284,0.227,0.036
			c-0.309-0.161-0.362-0.275-0.359-0.129c-0.239-0.149-0.381-0.22-0.512-0.273c-0.131-0.052-0.244-0.09-0.417-0.174
			c0.28,0.177,0.677,0.493,1.056,0.847c0.383,0.351,0.766,0.725,1.089,0.988c0.207,0.127,0.303,0.119,0.371,0.063
			c0.069-0.057,0.107-0.161,0.191-0.213c-0.002-0.019-0.051-0.09-0.128-0.185c-0.076-0.095-0.178-0.215-0.291-0.326
			C55.113,4.974,54.861,4.775,54.793,4.799z"/>
		<path fill="#D14927" d="M54.269,4.076C54.065,3.9,53.999,3.85,53.853,3.762C53.843,3.833,54.097,3.939,54.269,4.076z"/>
		<path fill="#D14927" d="M56.346,9.251c0.022,0.016,0.081,0.115,0.136,0.2c0.05,0.086,0.093,0.156,0.105,0.108
			c0,0-0.014-0.036-0.035-0.09c-0.022-0.054-0.058-0.124-0.092-0.195c-0.068-0.141-0.136-0.282-0.136-0.282
			C56.376,9.128,56.361,9.186,56.346,9.251z"/>
		<path fill="#D14927" d="M56.207,8.745l0.119,0.247C56.302,8.928,56.266,8.851,56.207,8.745z"/>
		<path fill="#D14927" d="M56.34,9.283c0.002-0.011,0.005-0.021,0.006-0.032C56.337,9.245,56.332,9.248,56.34,9.283z"/>
		<path fill="#D14927" d="M54.664,17.559c-0.052-0.022-0.106,0.218-0.133,0.339C54.571,17.805,54.639,17.677,54.664,17.559z"/>
		<path fill="#D14927" d="M49.432,26.043l-0.184,0.17C49.322,26.159,49.36,26.13,49.432,26.043z"/>
		<path fill="#D14927" d="M48.113,29.623c0.003,0.011-0.003,0.029-0.013,0.051C48.112,29.653,48.117,29.636,48.113,29.623z"/>
		<path fill="#D14927" d="M48.1,29.674c-0.041,0.072-0.165,0.187-0.282,0.309c-0.058,0.061-0.116,0.122-0.16,0.18
			c-0.022,0.029-0.042,0.056-0.058,0.082c-0.017,0.027-0.03,0.053-0.037,0.075l-0.003-0.029L47.37,30.58
			c0.102-0.123,0.259-0.314,0.406-0.491C47.919,29.919,48.061,29.76,48.1,29.674z"/>
	</g>
</g>
</svg>
