<?xml version="1.0" encoding="utf-8"?>
<!-- Generator: Adobe Illustrator 19.2.1, SVG Export Plug-In . SVG Version: 6.00 Build 0)  -->
<svg version="1.1" id="Layer_1" xmlns="http://www.w3.org/2000/svg" xmlns:xlink="http://www.w3.org/1999/xlink" x="0px" y="0px" viewBox="0 0 44.5 38" style="enable-background:new 0 0 44.5 38;" xml:space="preserve">
    <g>
        <path style="fill:#FFFFFF;" d="M32.7,14c0,0.6-0.4,1-1,1h-19c-0.6,0-1-0.4-1-1l0,0c0-0.6,0.4-1,1-1h19C32.2,13,32.7,13.4,32.7,14L32.7,14z" />
        <path style="fill:#FFFFFF;" d="M32.7,20c0,0.6-0.4,1-1,1h-19c-0.6,0-1-0.4-1-1l0,0c0-0.6,0.4-1,1-1h19C32.2,19,32.7,19.4,32.7,20L32.7,20z" />
        <path style="fill:#FFFFFF;" d="M32.7,26c0,0.6-0.4,1-1,1h-19c-0.6,0-1-0.4-1-1l0,0c0-0.6,0.4-1,1-1h19C32.2,25,32.7,25.4,32.7,26L32.7,26z" />
        <rect y="4.5" style="fill:none;" width="44.5" height="14.6" />
        <text transform="matrix(1 0 0 1 14.373 9.3784)" style="fill:#FFFFFF;font-family:'FreightSansProBook-Regular';font-size:7.0512px;">Menu</text>
        <g>
            <path style="fill:#FFFFFF;" d="M39.5,0L9.3,0C7.9,0,6.7,0.6,6.7,2v28h0.1c0,0,0.4,0.8,0.8,0.8c0.4,0,0.8-0.8,0.8-0.8H7.7V2
			c0-0.5,1.2,0,1.7,0h25.9c0.5,0,0.4-0.4,0.4,0v32.8c0,0.5,0.1,1.2-0.4,1.2h-3.4c-0.3,0-1.6-0.9-1.6-1.8c0-1.1,1.6-1.8,1.6-1.8
			c0.4-0.1,0.6-0.5,0.5-0.9c-0.1-0.4-0.4-0.5-0.8-0.5h-24c-1.8,0-3.3,1.7-3.3,3.5c0,1.8,1.5,3.5,3.3,3.5h23.1c0,0,0,0,0,0h4.5
			c1.4,0,2.4-1.8,2.4-3.2V2.4c0-1.2,1.6-0.4,1.8-0.4h0c0.7,0,1.3,0.2,1.3,0.9c0,0.7-0.6,0.9-1.3,0.9c-0.5,0-0.8,0.4-0.8,0.9
			s0.4,0.9,0.8,0.9c1.6,0,3-1.2,3-2.9C42.4,1.1,41.1,0,39.5,0L39.5,0z M29.2,36H7.7C6.8,36,6,35.4,6,34.5C6,33.6,6.8,33,7.7,33h21.5
			c-0.3,0-0.5,0.9-0.5,1.5C28.6,35.2,28.8,36,29.2,36L29.2,36z M29.2,35.6" />
        </g>
    </g>
</svg>