<?xml version="1.0" encoding="UTF-8" standalone="no"?>
<svg width="18px" height="18px" viewBox="0 0 18 18" version="1.1" xmlns="http://www.w3.org/2000/svg" xmlns:xlink="http://www.w3.org/1999/xlink">
    <!-- Generator: Sketch 3.6.1 (26313) - http://www.bohemiancoding.com/sketch -->
    <title>Slice 1</title>
    <desc>Created with Sketch.</desc>
    <defs></defs>
    <g id="Page-1" stroke="none" stroke-width="1" fill="none" fill-rule="evenodd">
        <g id="network" transform="translate(-3.000000, -3.000000)">
            <path d="M0,0 L24,0 L24,24 L0,24 L0,0 L0,0 Z" id="Shape"></path>
            <path d="M17,16 L13,12 L13,8.82 C14.16,8.4 15,7.3 15,6 C15,4.34 13.66,3 12,3 C10.34,3 9,4.34 9,6 C9,7.3 9.84,8.4 11,8.82 L11,12 L7,16 L3,16 L3,21 L8,21 L8,17.95 L12,13.75 L16,17.95 L16,21 L21,21 L21,16 L17,16 L17,16 Z" id="Shape" fill="currentColor"></path>
            <path d="M0,0 L24,0 L24,24 L0,24 L0,0 Z" id="Shape"></path>
        </g>
    </g>
</svg>