<?xml version="1.0" encoding="utf-8"?>
<!-- Generator: Adobe Illustrator 19.2.1, SVG Export Plug-In . SVG Version: 6.00 Build 0)  -->
<svg version="1.1" id="Layer_1" xmlns="http://www.w3.org/2000/svg" xmlns:xlink="http://www.w3.org/1999/xlink" x="0px" y="0px"
	 viewBox="0 0 34.5 24.7" style="enable-background:new 0 0 34.5 24.7;" xml:space="preserve">
<g>
	<path style="opacity:0.1;fill:#333333;" d="M34.1,1.1c-0.6,0-3.1,0.3-3.6,0.3c-1.5,0.2-3.1,0.4-4.6,0.6c-3.7,0.5-7.4,1-11,1.5C11.5,4,8.2,4.5,4.9,4.9
		C3.9,5,3,5.2,2,5.3C1.6,5.3,1.1,5.4,0.6,5.5C0.5,5.5,0.2,5.5,0,5.6c-0.1,0,0,0.2,0.1,0.3C0.2,5.9,0.3,6,0.3,6
		c0.2,0.2,0.3,0.3,0.5,0.5C1.2,7,1.6,7.4,2.1,7.9c1,1,1.9,2,2.9,3c0.5,0.5,1,1,1.5,1.5c0.1,1,0.2,2,0.3,2.9c0.2,1.3,0.3,2.7,0.5,4
		c0,0.3,0.1,0.6,0.1,0.8c0,0.2,0.1,1,0.3,0.9c0.3-0.1,0.7-0.4,1-0.6c0.5-0.3,0.9-0.6,1.4-0.9c0.6-0.4,1.3-0.9,1.9-1.3
		c0.5,0.6,1,1.1,1.4,1.7c0.9,1,1.8,2.1,2.7,3.1c0.3,0.3,0.6,0.7,0.9,1c0.1,0.1,0.2,0.2,0.3,0.4c0,0,0.1,0.1,0.1,0.1
		c0.3,0.2,0.4-0.2,0.6-0.4c0.2-0.3,0.5-0.7,0.7-1c0.5-0.7,1-1.3,1.4-2c1.9-2.6,3.8-5.3,5.7-7.9c1.9-2.7,3.8-5.4,5.7-8
		c0.5-0.8,1.1-1.5,1.6-2.3C33.2,2.7,34.5,1.1,34.1,1.1z"/>
	<g>
		<path fill="#B6BFD0" d="M8.5,13.6c0.1-0.3,0.1-0.6,0.3-0.9c0.1-0.1,0.2-0.2,0.4-0.3c1.5-0.8,3-1.5,4.5-2.2c2.1-1,4.1-2,6.2-3
			C22,6.2,24.1,5.1,26.3,4c1.6-0.8,3.3-1.6,4.9-2.4c0.5-0.3,1.1-0.6,1.6-0.8c0,0-26.1,9.6-26.1,9.6l0.6,7.2c0.2-0.8,0.4-1.6,0.6-2.4
			C8.2,14.7,8.3,14.2,8.5,13.6z"/>
		<polygon fill="#EAEDF7" points="0.9,3.6 6.6,10.1 32.8,0.4"/>
		<polygon fill="#EAEDF7" points="7.5,18.6 11.3,16.2 9,13.2"/>
		<polygon fill="#EAEDF7" points="16.9,22.5 33.4,0.9 9.2,12.8"/>
		<path fill="#DFE3E9" d="M30.8,0.2c-1.5,0.2-3.1,0.3-4.6,0.5c-3.7,0.4-7.4,0.7-11.1,1.1c-3.3,0.3-6.7,0.7-10,1C3.5,3,1.8,3.1,0.2,3.3
			c0,0,0,0,0,0l-0.1,0l6.3,7.1c0.1,1,0.2,2,0.3,2.9c0.1,1.3,0.2,2.7,0.3,4C7,17.7,7,18,7,18.3c0,0.2,0.1,1,0.2,0.9
			c0.3-0.1,0.8-0.4,1-0.6c0.5-0.3,0.9-0.6,1.4-0.9c0.6-0.4,1.3-0.8,1.9-1.2l5.3,6.6l0,0c0.9-1.2,1.8-2.3,2.7-3.5
			c2-2.6,3.9-5.2,5.9-7.7c2-2.6,4-5.2,6-7.8c0.6-0.7,1.1-1.5,1.7-2.2C33.4,1.6,34.8,0,34.4,0C33.7,0,31.3,0.2,30.8,0.2z M0.9,3.6
			l31.9-3.2L6.6,10.1L0.9,3.6z M7.4,17.6l-0.6-7.2c0,0,26.1-9.6,26.1-9.6c-0.6,0.2-1.1,0.5-1.6,0.8c-1.6,0.8-3.3,1.6-4.9,2.4
			c-2.2,1.1-4.3,2.1-6.5,3.2c-2.1,1-4.1,2-6.2,3c-1.5,0.7-3,1.4-4.5,2.2c-0.2,0.1-0.3,0.2-0.4,0.3c-0.2,0.2-0.2,0.5-0.3,0.9
			c-0.1,0.5-0.3,1.1-0.4,1.6C7.8,16.1,7.6,16.9,7.4,17.6z M7.5,18.6L9,13.2l2.4,3L7.5,18.6z M16.9,22.5l-7.7-9.7L33.4,0.9L16.9,22.5
			z"/>
	</g>
</g>
</svg>
