<?xml version="1.0" encoding="UTF-8" standalone="no"?>
<svg width="20px" height="16px" viewBox="0 0 20 16" version="1.1" xmlns="http://www.w3.org/2000/svg" xmlns:xlink="http://www.w3.org/1999/xlink">
    <!-- Generator: Sketch 3.6.1 (26313) - http://www.bohemiancoding.com/sketch -->
    <title>Slice 1</title>
    <desc>Created with Sketch.</desc>
    <defs></defs>
    <g id="Page-1" stroke="none" stroke-width="1" fill="none" fill-rule="evenodd">
        <g id="refer_a_friend" transform="translate(-2.000000, -4.000000)">
            <path d="M0,0 L24,0 L24,24 L0,24 L0,0 Z" id="Shape"></path>
            <path d="M11,17 L13,17 L13,16 L14,16 C14.55,16 15,15.55 15,15 L15,12 C15,11.45 14.55,11 14,11 L11,11 L11,10 L15,10 L15,8 L13,8 L13,7 L11,7 L11,8 L10,8 C9.45,8 9,8.45 9,9 L9,12 C9,12.55 9.45,13 10,13 L13,13 L13,14 L9,14 L9,16 L11,16 L11,17 L11,17 Z M20,4 L4,4 C2.89,4 2.01,4.89 2.01,6 L2,18 C2,19.11 2.89,20 4,20 L20,20 C21.11,20 22,19.11 22,18 L22,6 C22,4.89 21.11,4 20,4 L20,4 Z M20,18 L4,18 L4,6 L20,6 L20,18 L20,18 Z" id="Shape" fill="currentColor"></path>
        </g>
    </g>
</svg>