<?xml version="1.0" encoding="utf-8"?>
<!-- Generator: Adobe Illustrator 19.2.1, SVG Export Plug-In . SVG Version: 6.00 Build 0)  -->
<svg version="1.1" id="Layer_1" xmlns="http://www.w3.org/2000/svg" xmlns:xlink="http://www.w3.org/1999/xlink" x="0px" y="0px"
	 viewBox="0 0 58.3 43.5" style="enable-background:new 0 0 58.3 43.5;" xml:space="preserve">
<style type="text/css">
	.st0{fill:#DFE3E9;}
	.st1{fill:none;}
</style>
<g>
	<path class="st0" d="M15.2,21.9c-1.4-0.8-2.5,0.4-2.5,2.8s1.1,4.9,2.5,5.7c1.4,0.8,2.5-0.4,2.5-2.8C17.7,25.3,16.6,22.7,15.2,21.9z
		 M15.2,30c-1.3-0.7-2.3-3.1-2.3-5.2c0-2.1,1-3.2,2.3-2.5c1.3,0.7,2.3,3.1,2.3,5.2C17.5,29.6,16.4,30.7,15.2,30z"/>
	<path class="st0" d="M13.7,22.3c-0.7,0.3-1.2,1.2-1.2,2.7c0,2.1,1,4.4,2.3,5.2c0.4,0.2,0.8,0.3,1.1,0.1l0.4-0.1
		c-0.3,0.1-0.7,0.1-1.2-0.1c-1.3-0.7-2.3-3.1-2.3-5.2c0-1.4,0.5-2.4,1.1-2.7L13.7,22.3z"/>
	<g>
		<g>
			<polygon class="st0" points="12.3,24.7 12.3,25 14.3,26.3 14.3,26"/>
			<g>
				<g>
					<g>
						<g>
							<polygon class="st0" points="12.8,24.6 15,25.9 14.8,26 12.6,24.7"/>
						</g>
					</g>
				</g>
			</g>
			<polygon class="st0" points="14.8,26.3 14.8,26 15,25.9 15,26.2"/>
		</g>
	</g>
	<g>
		<g>
			<g>
				<g>
					<g>
						<polygon class="st0" points="15,22.3 15.2,22.4 15,22.5 14.8,22.4"/>
					</g>
				</g>
			</g>
		</g>
		<polygon class="st0" points="14.3,22.4 14.3,30 15.3,30.1 15.3,22.5"/>
		<polygon class="st0" points="15.3,30.1 15.3,22.5 15.3,22.4 15.3,30"/>
	</g>
	<g>
		<g>
			<polygon class="st0" points="15.3,26.1 15.3,26.4 17.3,27.7 17.3,27.3"/>
			<g>
				<g>
					<g>
						<g>
							<polygon class="st0" points="15.2,26 17.4,27.3 17.2,27.3 15,26.1"/>
						</g>
					</g>
				</g>
			</g>
			<polygon class="st0" points="17.2,27.7 17.2,27.3 17.4,27.3 17.4,27.6"/>
		</g>
	</g>
	<path class="st0" d="M14.8,22c-1.4-0.8-2.5,0.4-2.5,2.8c0,2.3,1.1,4.9,2.5,5.7c1.4,0.8,2.5-0.4,2.5-2.8
		C17.3,25.4,16.2,22.8,14.8,22z M14.8,30.1c-1.3-0.7-2.3-3.1-2.3-5.2c0-2.1,1-3.2,2.3-2.5c1.3,0.7,2.3,3.1,2.3,5.2
		C17.1,29.7,16.1,30.8,14.8,30.1z"/>
	<path class="st0" d="M16.1,30.7c0.8-0.3,1.3-1.4,1.3-2.9c0-2.3-1.1-4.9-2.5-5.7c-0.4-0.3-0.9-0.3-1.2-0.2l0.3-0.1
		c0.4-0.1,0.8-0.1,1.3,0.2c1.4,0.8,2.5,3.4,2.5,5.7c0,1.6-0.5,2.6-1.3,2.9L16.1,30.7z"/>
</g>
<path class="st0" d="M13.8,13.2l12.2,27.6L1.6,26.6L13.8,13.2z M13.8,22.4c-1.4-0.8-2.5,0.4-2.5,2.8c0,2.3,1.1,4.9,2.5,5.7
	c1.4,0.8,2.5-0.4,2.5-2.8C16.3,25.8,15.1,23.3,13.8,22.4z"/>
<polygon class="st0" points="58.3,31.9 58.3,31.7 27.2,43.5 27.4,43.1 58.3,31.2 58.3,31.9 58.3,31.9 58.3,31.9 58.3,31.9 
	58.3,31.9 58.3,31.1 58.3,31.1 27.4,43 27,43.5 58.3,31.6 58.3,31.9 "/>
<polygon class="st1" points="27,43.5 13.7,13.2 0.4,27.8 0,27 13.7,12.1 27.4,43 "/>
<polygon class="st0" points="45.3,6.7 39.3,9.2 39.3,10 45.3,7.5 "/>
<polygon class="st0" points="39.3,9.2 36.3,7.6 36.3,8.4 39.3,10 "/>
<path class="st0" d="M13.7,12.1L44.4,0l13.9,31.1L27.4,43L13.7,12.1z M45.3,6.7l-2.5-1.5l-6.3,2.5l0.8,0.4v4.5l1.9,4.9l5.1-2.1V7
	L45.3,6.7z"/>
</svg>
