<?xml version="1.0" encoding="utf-8"?>
<!-- Generator: Adobe Illustrator 19.2.1, SVG Export Plug-In . SVG Version: 6.00 Build 0)  -->
<svg version="1.1" id="Layer_1" xmlns="http://www.w3.org/2000/svg" xmlns:xlink="http://www.w3.org/1999/xlink" x="0px" y="0px"
	 viewBox="0 0 274.3 118" style="enable-background:new 0 0 274.3 118;" xml:space="preserve">
<style type="text/css">
	.st0{fill:currentColor;}
</style>
<path class="st0" d="M88.6,100.8c11.9,0,21.6-9.7,21.5-21.6c0-11.9-9.7-21.6-21.6-21.5c-11.9,0-21.6,9.7-21.5,21.6
	C66.9,91.2,76.7,100.9,88.6,100.8z M88.6,76.9c1.3,0,2.3,1,2.3,2.3s-1,2.3-2.3,2.3s-2.3-1-2.3-2.3C86.2,78,87.3,76.9,88.6,76.9z
	 M85.8,84.3c0.3,0.2,0.6,0.3,0.9,0.4v12.5c-3.7-0.3-7.1-1.8-9.8-4L85.8,84.3z M90.3,84.7c0.3-0.1,0.6-0.2,0.9-0.4l8.8,8.8
	c-2.7,2.3-6.1,3.7-9.8,4.1L90.3,84.7z M93.6,81.9c0.2-0.3,0.3-0.6,0.4-0.9h12.5c-0.3,3.7-1.8,7.1-4.1,9.8L93.6,81.9z M93.9,77.5
	c-0.1-0.3-0.2-0.6-0.4-0.9l8.8-8.8c2.2,2.7,3.7,6.1,4.1,9.7L93.9,77.5z M91.2,74.2c-0.3-0.2-0.6-0.3-0.9-0.4V61.3
	c3.7,0.3,7.1,1.8,9.8,4L91.2,74.2z M86.8,73.8c-0.3,0.1-0.6,0.2-0.9,0.4L77,65.4c2.7-2.2,6.1-3.7,9.8-4.1V73.8z M83.4,76.6
	c-0.2,0.3-0.3,0.6-0.4,0.9H70.5c0.4-3.7,1.8-7.1,4.1-9.8L83.4,76.6z M83.1,81c0.1,0.3,0.2,0.6,0.4,0.9l-8.8,8.8
	C72.5,88,71,84.6,70.6,81H83.1z"/>
<path class="st0" d="M162.6,45c1.3,0,2.3-0.7,2.3-1.9s-1-1.8-2.5-1.8h-1.5V45H162.6z"/>
<path class="st0" d="M172.8,41.1c-2.1,0-3.6,1.6-3.6,4c0,2.5,1.5,4.1,3.7,4.1c2.1,0,3.6-1.6,3.6-4C176.4,42.7,174.9,41.1,172.8,41.1
	z"/>
<path class="st0" d="M184.1,41.1c-2.1,0-3.6,1.6-3.6,4c0,2.5,1.5,4.1,3.7,4.1c2.1,0,3.6-1.6,3.6-4C187.9,42.7,186.4,41.1,184.1,41.1
	z"/>
<path class="st0" d="M261.5,51.7L139.6,2c-1.5-0.6-3.2-0.6-4.6,0L13.5,51.7c-1.8,0.7-1.2,3.2,0.7,3.2h246.4
	C262.6,54.9,263.1,52.4,261.5,51.7z M121.2,31.3c0-8,6.5-14.4,14.4-14.4l0,0v14.7h-14.4C121.2,31.6,121.2,31.3,121.2,31.3z
	 M135.6,50h-14.4V35.3h14.4V50z M139.3,16.9c8,0,14.4,6.5,14.4,14.4v0.3h-14.4V16.9z M153.6,50h-14.4V35.3h14.4V50z M161.1,50.2
	h-1.4V40h3c2.4,0,3.7,1.2,3.7,3c0,1.5-0.9,2.5-2.2,2.9l2.7,4.2h-1.6l-2.4-4l-1.7,0.1v3.9L161.1,50.2L161.1,50.2z M172.8,50.4
	c-2.9,0-5-2.1-5-5.3c0-3,2.1-5.3,5-5.3s5,2.1,5,5.3C177.8,48,175.6,50.4,172.8,50.4z M184.1,50.4c-2.9,0-5-2.1-5-5.3
	c0-3,2.1-5.3,5-5.3s5,2.1,5,5.3C189.1,48,187.1,50.4,184.1,50.4z M191.1,40h6.1v1.3h-4.8v3.3h4v1.3h-4v4.3H191L191.1,40L191.1,40z
	 M199.1,50.2V40h1.3v10.1C200.4,50.1,199.1,50.1,199.1,50.2z M209.8,40h1.3v10.2h-1.5l-5.3-8.2v8.1H203V40h1.5l5.3,8.1V40z
	 M218.1,50.4c-2.9,0-5-2.1-5-5.3s2.1-5.3,5-5.3c1.2,0,2.5,0.3,3.3,0.9L221,42c-0.8-0.5-1.8-0.9-2.9-0.9c-2.2,0-3.6,1.5-3.6,4
	s1.5,4.1,3.6,4.1c0.8,0,1.6-0.2,2.2-0.5v-2.4h-2.8V45h4.1v4.4C220.4,50,219.1,50.4,218.1,50.4z"/>
<path class="st0" d="M12.9,99.4v-4.3l3.4-0.4c0.8-0.1,0.9-0.3,0.9-1.1V65.7c0-0.8-0.1-1-0.9-1.1L13,64.2v-4.4h18.5
	c10.1,0,13.2,5.4,13.2,11.6c0,9.5-5.7,13.3-15,13.3h-4v8.8c0,0.9,0.1,1,0.9,1.1l7.8,0.4v4.3L12.9,99.4L12.9,99.4z M28.5,78.9
	c3.6,0,7.6-0.8,7.6-7c0-5.2-3.2-6.2-7.1-6.2h-3.2v13.2H28.5z"/>
<path class="st0" d="M12.9,99.4v-4.3l3.4-0.4c0.8-0.1,0.9-0.3,0.9-1.1V65.7c0-0.8-0.1-1-0.9-1.1L13,64.2v-4.4h18.5
	c10.1,0,13.2,5.4,13.2,11.6c0,9.5-5.7,13.3-15,13.3h-4v8.8c0,0.9,0.1,1,0.9,1.1l7.8,0.4v4.3L12.9,99.4L12.9,99.4z M28.5,78.9
	c3.6,0,7.6-0.8,7.6-7c0-5.2-3.2-6.2-7.1-6.2h-3.2v13.2H28.5z"/>
<path class="st0" d="M48.2,99.4v-4.3l4-0.4c0.8-0.1,0.9-0.3,0.9-1.1v-28c0-0.8-0.1-1-0.9-1.1l-4-0.4v-4.4h18.4v4.4l-4.2,0.4
	c-0.8,0.1-0.9,0.2-0.9,1v27.9c0,0.9,0.1,1,0.9,1.1l4.2,0.4v4.3H48.2V99.4z"/>
<path class="st0" d="M48.2,99.4v-4.3l4-0.4c0.8-0.1,0.9-0.3,0.9-1.1v-28c0-0.8-0.1-1-0.9-1.1l-4-0.4v-4.4h18.4v4.4l-4.2,0.4
	c-0.8,0.1-0.9,0.2-0.9,1v27.9c0,0.9,0.1,1,0.9,1.1l4.2,0.4v4.3H48.2V99.4z"/>
<path class="st0" d="M139.9,99.4l-17.4-28.5v22.7c0,0.9,0.1,1,0.9,1.1l3.7,0.4v4.3h-15.2v-4.3l3.4-0.4c0.8-0.1,0.9-0.3,0.9-1.1V65.5
	c0-0.8-0.1-1-0.9-1.1l-3.4-0.4v-4.3h13.6l17.2,28.6V65.7c0-0.8-0.1-1-0.9-1.1l-3.4-0.4v-4.4h15.2v4.4l-3.7,0.4
	c-0.8,0.1-0.9,0.2-0.9,1v33.7L139.9,99.4L139.9,99.4z"/>
<path class="st0" d="M139.9,99.4l-17.4-28.5v22.7c0,0.9,0.1,1,0.9,1.1l3.7,0.4v4.3h-15.2v-4.3l3.4-0.4c0.8-0.1,0.9-0.3,0.9-1.1V65.5
	c0-0.8-0.1-1-0.9-1.1l-3.4-0.4v-4.3h13.6l17.2,28.6V65.7c0-0.8-0.1-1-0.9-1.1l-3.4-0.4v-4.4h15.2v4.4l-3.7,0.4
	c-0.8,0.1-0.9,0.2-0.9,1v33.7L139.9,99.4L139.9,99.4z"/>
<path class="st0" d="M157.1,99.4v-4.3l3.4-0.4c0.8-0.1,0.9-0.3,0.9-1.1v-28c0-0.8-0.1-1-0.9-1.1l-3.4-0.4v-4.3h29.1v11l-6-0.3
	l-0.8-4.2c-0.1-0.5-0.3-0.7-0.9-0.7h-8.6v10.9h12.8v6.1h-12.8v11h9.8c0.6,0,0.8-0.1,0.9-0.6l0.9-4.8h6v11.3L157.1,99.4L157.1,99.4z"
	/>
<path class="st0" d="M157.1,99.4v-4.3l3.4-0.4c0.8-0.1,0.9-0.3,0.9-1.1v-28c0-0.8-0.1-1-0.9-1.1l-3.4-0.4v-4.3h29.1v11l-6-0.3
	l-0.8-4.2c-0.1-0.5-0.3-0.7-0.9-0.7h-8.6v10.9h12.8v6.1h-12.8v11h9.8c0.6,0,0.8-0.1,0.9-0.6l0.9-4.8h6v11.3L157.1,99.4L157.1,99.4z"
	/>
<path class="st0" d="M191.4,99.4v-4.3l3.4-0.4c0.8-0.1,0.9-0.3,0.9-1.1v-28c0-0.8-0.1-1-0.9-1.1l-3.4-0.4v-4.3h29.1v11l-6-0.3
	l-0.8-4.2c-0.1-0.5-0.3-0.7-0.9-0.7h-8.6v10.9H217v6.1h-12.8v11h9.8c0.6,0,0.8-0.1,0.9-0.6l0.9-4.8h6v11.3L191.4,99.4L191.4,99.4z"
	/>
<path class="st0" d="M191.4,99.4v-4.3l3.4-0.4c0.8-0.1,0.9-0.3,0.9-1.1v-28c0-0.8-0.1-1-0.9-1.1l-3.4-0.4v-4.3h29.1v11l-6-0.3
	l-0.8-4.2c-0.1-0.5-0.3-0.7-0.9-0.7h-8.6v10.9H217v6.1h-12.8v11h9.8c0.6,0,0.8-0.1,0.9-0.6l0.9-4.8h6v11.3L191.4,99.4L191.4,99.4z"
	/>
<path class="st0" d="M249.1,99.4l-4.9-13.7c-0.7-1.9-1.4-2.5-3.2-2.5h-2.6v10.3c0,0.9,0.1,1,0.9,1.1l3.8,0.4v4.4h-17.4V95l3.4-0.4
	c0.8-0.1,0.9-0.3,0.9-1.1V65.6c0-0.8-0.1-1-0.9-1.1l-3.4-0.4v-4.3h18.5c9.8,0,12.7,5.2,12.7,10.9c0,5.6-3,8.6-7.2,10.5
	c1.6,0.8,2.3,2.1,3.2,4.4l3,7.8c0.4,0.8,0.8,0.9,1.6,1l3.4,0.5v4.4L249.1,99.4L249.1,99.4z M240.9,77.5c3.9,0,7.4-0.9,7.4-6.3
	c0-4.2-2.4-5.5-7.2-5.5h-2.7v11.8H240.9z"/>
<path class="st0" d="M249.1,99.4l-4.9-13.7c-0.7-1.9-1.4-2.5-3.2-2.5h-2.6v10.3c0,0.9,0.1,1,0.9,1.1l3.8,0.4v4.4h-17.4V95l3.4-0.4
	c0.8-0.1,0.9-0.3,0.9-1.1V65.6c0-0.8-0.1-1-0.9-1.1l-3.4-0.4v-4.3h18.5c9.8,0,12.7,5.2,12.7,10.9c0,5.6-3,8.6-7.2,10.5
	c1.6,0.8,2.3,2.1,3.2,4.4l3,7.8c0.4,0.8,0.8,0.9,1.6,1l3.4,0.5v4.4L249.1,99.4L249.1,99.4z M240.9,77.5c3.9,0,7.4-0.9,7.4-6.3
	c0-4.2-2.4-5.5-7.2-5.5h-2.7v11.8H240.9z"/>
<path class="st0" d="M95.3,108.6c-0.3-0.6-0.7-1-1.3-1.3c-0.6-0.3-1.2-0.4-1.9-0.3c-0.7,0.1-1.3,0.3-1.9,0.7c-1,0.7-1.7,1.5-2,2.6
	c-0.4,1-0.4,2.1-0.1,3.2c0.2,1,0.8,1.8,1.5,2.4c0.8,0.6,1.6,0.9,2.5,0.8c0.9,0,1.7-0.3,2.4-0.9c0.7-0.6,1.1-1.5,1.2-2.6l0.1-0.2
	c0.1-0.1,0.1-0.1,0.2-0.1s0.2,0,0.2,0.1c0.1,0.1,0.1,0.1,0.1,0.2c-0.1,1.3-0.6,2.3-1.4,3s-1.7,1.1-2.8,1.1c-1.1,0-2-0.3-2.9-1
	s-1.5-1.6-1.8-2.8c-0.3-1.2-0.2-2.4,0.2-3.6c0.4-1.1,1.2-2.1,2.3-2.8c0.6-0.5,1.4-0.7,2.2-0.8c0.8-0.1,1.6,0,2.3,0.4
	c0.7,0.3,1.3,0.9,1.6,1.6v0.2l-0.2,0.2h-0.3L95.3,108.6z"/>
<path class="st0" d="M101.5,109.6c0.9,0.3,1.6,0.9,2,1.6c0.4,0.8,0.6,1.6,0.6,2.4c0,0.5-0.1,0.9-0.3,1.4s-0.4,0.8-0.8,1.2
	c-0.3,0.3-0.7,0.6-1.2,0.8c-0.5,0.2-1,0.2-1.6,0.2c-0.8-0.1-1.4-0.3-2-0.8c-0.5-0.4-0.9-0.9-1.1-1.5s-0.2-1.2-0.1-1.8
	c0.1-0.8,0.4-1.6,1-2.2c0.5-0.7,1.3-1.1,2.1-1.3c0.1-0.1,0.2-0.2,0.3-0.1c0.1,0,0.2,0,0.3,0c0.1,0,0.3,0,0.4,0
	C101.4,109.4,101.5,109.5,101.5,109.6z M100.7,110.1c-0.8,0.1-1.5,0.4-2,1s-0.9,1.3-1,2.1c-0.1,0.9,0,1.6,0.5,2.3
	c0.4,0.7,1.1,1,2.1,1.1c0.9,0.1,1.6-0.2,2.2-0.7c0.6-0.6,0.9-1.3,1-2.2c0.1-0.8-0.1-1.6-0.6-2.3
	C102.3,110.7,101.6,110.2,100.7,110.1z"/>
<path class="st0" d="M105.1,116.8c0-0.7,0-1.7,0-3.1s0-2.4,0-3.1l0.1-0.2c0.1-0.1,0.1-0.1,0.2-0.1s0.2,0,0.2,0.1l0.1,0.2v0.3
	c0.3-0.4,0.7-0.6,1.2-0.8c0.4-0.2,0.9-0.3,1.4-0.3s0.9,0.1,1.4,0.3c0.4,0.2,0.7,0.6,0.9,1c0.3-0.3,0.6-0.6,1.1-0.8
	c0.4-0.2,0.9-0.4,1.3-0.5c0.6-0.1,1.2,0,1.6,0.2c0.5,0.3,0.9,0.7,1.1,1.3c0.2,0.6,0.3,1.2,0.3,2s0.1,1.4,0,1.8c0,0.4,0,1.1-0.1,2
	l-0.1,0.2c-0.1,0.1-0.2,0.1-0.2,0.1c-0.1,0-0.2,0-0.2-0.1l-0.1-0.2c0-0.9,0.1-1.6,0.1-2s0-1-0.1-1.7s-0.1-1.3-0.3-1.9
	c-0.1-0.5-0.4-0.8-0.7-0.9c-0.3-0.2-0.7-0.2-1.2-0.1c-0.4,0.1-0.9,0.2-1.3,0.5s-0.7,0.5-0.9,0.9l0,0c0,0.3,0,0.9,0,1.6s0,2.3,0,2.7
	l-0.1,0.2l-0.2,0.1l-0.2-0.1l-0.1-0.2c0-0.1,0-0.3,0-0.5c0-0.6,0-1.5,0-2c0-0.7,0-1.1,0-1.3v-0.1c-0.1-0.6-0.3-1.1-0.6-1.4
	s-0.8-0.4-1.2-0.4c-0.5,0-1,0.2-1.4,0.5c-0.5,0.3-0.8,0.7-1.1,1.2l-0.1,0.1c0,0.1,0,0.8,0,2s0,2.1,0,2.8l-0.1,0.2
	c-0.1,0.1-0.1,0.1-0.2,0.1s-0.2,0-0.2-0.1L105.1,116.8z"/>
<path class="st0" d="M117.3,116.8c0-0.7,0-1.7,0-3.1s0-2.4,0-3.1l0.1-0.2c0.1-0.1,0.1-0.1,0.2-0.1s0.2,0,0.2,0.1l0.1,0.2v0.3
	c0.3-0.4,0.7-0.6,1.2-0.8c0.4-0.2,0.9-0.3,1.4-0.3s0.9,0.1,1.4,0.3c0.4,0.2,0.7,0.6,0.9,1c0.3-0.3,0.6-0.6,1.1-0.8
	c0.4-0.2,0.9-0.4,1.3-0.5c0.6-0.1,1.2,0,1.6,0.2c0.5,0.3,0.9,0.7,1.1,1.3c0.2,0.6,0.3,1.2,0.3,2s0.1,1.4,0,1.8c0,0.4,0,1.1-0.1,2
	l-0.1,0.2c-0.1,0.1-0.2,0.1-0.2,0.1c-0.1,0-0.2,0-0.2-0.1l-0.1-0.2c0-0.9,0.1-1.6,0.1-2s0-1-0.1-1.7s-0.1-1.3-0.3-1.9
	c-0.1-0.5-0.4-0.8-0.7-0.9c-0.3-0.2-0.7-0.2-1.2-0.1c-0.4,0.1-0.9,0.2-1.3,0.5s-0.7,0.5-0.9,0.9l0,0c0,0.3,0,0.9,0,1.6s0,2.3,0,2.7
	l-0.1,0.2c-0.1,0.1-0.1,0.1-0.2,0.1s-0.2,0-0.2-0.1l-0.1-0.2c0-0.4,0-1.9,0-2.6s0-1.1,0-1.3v-0.1c-0.1-0.6-0.3-1.1-0.6-1.4
	s-0.8-0.4-1.2-0.4c-0.5,0-1,0.2-1.4,0.5c-0.5,0.3-0.8,0.7-1.1,1.2l-0.1,0.1c0,0.1,0,0.8,0,2s0,2.1,0,2.8l-0.1,0.2
	c-0.1,0.1-0.1,0.1-0.2,0.1s-0.2,0-0.2-0.1L117.3,116.8z"/>
<path class="st0" d="M130.3,109.9c0,0.8,0,1.9,0,3.5c0,1.5,0,2.7,0,3.5l-0.1,0.2c-0.1,0.1-0.1,0.1-0.2,0.1c-0.1,0-0.2,0-0.2-0.1
	l-0.1-0.2c0-0.8,0-1.9,0-3.5c0-1.5,0-2.7,0-3.5l0.1-0.2c0.1-0.1,0.1-0.1,0.2-0.1s0.2,0,0.2,0.1L130.3,109.9z M130.2,107.6l0.1,0.2
	l-0.1,0.2c-0.1,0.1-0.1,0.1-0.2,0.1c-0.1,0-0.2,0-0.2-0.1l-0.1-0.2l0.1-0.2c0.1-0.1,0.1-0.1,0.2-0.1
	C130.1,107.5,130.2,107.5,130.2,107.6z"/>
<path class="st0" d="M133.6,109.6c0,0.3,0,1.3,0,3.1s0,3.2,0,4.1l-0.1,0.2c-0.1,0.1-0.1,0.1-0.2,0.1c-0.1,0-0.2,0-0.2-0.1l-0.1-0.2
	c0-0.9,0-2.3,0-4.1s0-2.8,0-3.1c-0.3,0-0.6,0-1,0c-0.1,0-0.2,0-0.2-0.1l-0.1-0.2l0.1-0.2c0.1-0.1,0.2-0.1,0.2-0.1h1v-1.5l0.1-0.2
	c0.1-0.1,0.1-0.1,0.2-0.1s0.2,0,0.2,0.1l0.1,0.2v1.5h0.9c0.1,0,0.2,0,0.2,0.1l0.1,0.2l-0.1,0.2c-0.1,0.1-0.1,0.1-0.2,0.1H133.6z"/>
<path class="st0" d="M138,109.6c0,0.3,0,1.3,0,3.1s0,3.2,0,4.1l-0.1,0.2c-0.1,0.1-0.1,0.1-0.2,0.1s-0.2,0-0.2-0.1l-0.1-0.2
	c0-0.9,0-2.3,0-4.1s0-2.8,0-3.1c-0.3,0-0.6,0-1,0c-0.1,0-0.2,0-0.2-0.1l-0.1-0.2l0.1-0.2c0.1-0.1,0.2-0.1,0.2-0.1h1v-1.5l0.1-0.2
	c0.1-0.1,0.1-0.1,0.2-0.1c0.1,0,0.2,0,0.2,0.1l0.1,0.2v1.5h0.9c0.1,0,0.2,0,0.2,0.1l0.1,0.2l-0.1,0.2c-0.1,0.1-0.1,0.1-0.2,0.1H138z
	"/>
<path class="st0" d="M146.8,113.8L146.8,113.8H141c0,0.8,0.2,1.4,0.6,1.9c0.4,0.5,1,0.8,1.6,0.9c0.7,0.1,1.3,0,2-0.3
	c0.6-0.3,1.1-0.8,1.4-1.4l0.2-0.2h0.3l0.2,0.2v0.2c-0.4,0.8-1,1.4-1.8,1.7c-0.8,0.4-1.6,0.5-2.4,0.3c-0.9-0.2-1.6-0.5-2.1-1.2
	c-0.5-0.6-0.8-1.5-0.7-2.4c0.1-1.2,0.5-2.1,1.1-2.8c0.7-0.7,1.5-1.1,2.3-1.1c0.9-0.1,1.7,0.3,2.4,0.9c0.7,0.7,1,1.7,1.1,2.9
	l-0.1,0.2c-0.1,0.1-0.1,0.1-0.2,0.1L146.8,113.8z M141,113.2h5.5c-0.1-1-0.4-1.8-1-2.3c-0.5-0.5-1.1-0.7-1.8-0.7
	c-0.6,0-1.2,0.3-1.8,0.8C141.5,111.6,141.2,112.3,141,113.2z"/>
<path class="st0" d="M154.1,111.2c0-1.7,0-3.1,0-4.2l0.1-0.2c0.1-0.1,0.1-0.1,0.2-0.1c0.1,0,0.2,0,0.2,0.1l0.1,0.2c0,1.1,0,2.8,0,5
	s0,3.9,0,5l-0.1,0.2c-0.1,0.1-0.1,0.1-0.2,0.1c-0.1,0-0.2,0-0.2-0.1l-0.1-0.2v-0.8c-0.5,0.5-1,0.8-1.7,0.9c-0.7,0.2-1.3,0.2-1.9,0
	c-0.6-0.1-1.2-0.4-1.6-0.9c-0.5-0.4-0.8-1-0.9-1.7c-0.2-0.9,0-1.8,0.4-2.7c0.4-0.9,1.1-1.5,1.8-1.9c0.9-0.4,1.7-0.4,2.5,0
	C153.2,110.2,153.7,110.6,154.1,111.2z M154.1,112.6c-0.4-1.1-1-1.8-1.7-2.2c-0.6-0.3-1.2-0.3-1.9,0.1c-0.7,0.3-1.2,0.8-1.6,1.6
	c-0.4,0.7-0.5,1.5-0.3,2.4c0.1,0.5,0.3,0.9,0.6,1.2c0.3,0.3,0.7,0.6,1.2,0.7c0.4,0.1,0.9,0.2,1.4,0.2s0.9-0.2,1.3-0.4
	c0.4-0.3,0.7-0.6,0.9-1.1C154.1,114.4,154.1,113.6,154.1,112.6L154.1,112.6z"/>
<path class="st0" d="M162.8,109.6c0,0.3,0,1.3,0,3.1s0,3.2,0,4.1l-0.1,0.2c-0.1,0.1-0.1,0.1-0.2,0.1c-0.1,0-0.2,0-0.2-0.1l-0.1-0.2
	c0-0.9,0-2.3,0-4.1s0-2.8,0-3.1c-0.3,0-0.6,0-1,0c-0.1,0-0.2,0-0.2-0.1l-0.1-0.2l0.1-0.2c0.1-0.1,0.2-0.1,0.2-0.1h1v-1.5l0.1-0.2
	c0.1-0.1,0.1-0.1,0.2-0.1s0.2,0,0.2,0.1l0.1,0.2v1.5h0.9c0.1,0,0.2,0,0.2,0.1l0.1,0.2l-0.1,0.2c-0.1,0.1-0.1,0.1-0.2,0.1H162.8z"/>
<path class="st0" d="M169.6,109.6c0.9,0.3,1.6,0.9,2,1.6c0.4,0.8,0.6,1.6,0.6,2.4c0,0.5-0.1,0.9-0.3,1.4s-0.4,0.8-0.8,1.2
	c-0.3,0.3-0.7,0.6-1.2,0.8c-0.5,0.2-1,0.2-1.6,0.2c-0.8-0.1-1.4-0.3-2-0.8c-0.5-0.4-0.9-0.9-1.1-1.5s-0.2-1.2-0.1-1.8
	c0.1-0.8,0.4-1.6,1-2.2c0.5-0.7,1.3-1.1,2.1-1.3c0.1-0.1,0.2-0.2,0.3-0.1c0.1,0,0.2,0,0.3,0s0.3,0,0.4,0
	C169.4,109.4,169.5,109.5,169.6,109.6z M168.7,110.1c-0.8,0.1-1.5,0.4-2,1s-0.9,1.3-1,2.1c-0.1,0.9,0,1.6,0.5,2.3
	c0.4,0.7,1.1,1,2.1,1.1c0.9,0.1,1.6-0.2,2.2-0.7c0.6-0.6,0.9-1.3,1-2.2c0.1-0.8-0.1-1.6-0.6-2.3
	C170.3,110.7,169.7,110.2,168.7,110.1z"/>
<path class="st0" d="M178.4,106.8c0.1,3.3,0.1,6.6,0.1,10c0,0.1,0,0.2-0.1,0.2c-0.1,0.1-0.2,0.1-0.2,0.1s-0.2,0-0.2-0.1l-0.1-0.2
	c0.1-3.4,0.1-6.7-0.1-10c0-0.1,0-0.2,0.1-0.2c0.1-0.1,0.1-0.1,0.2-0.1c0.1,0,0.2,0,0.2,0.1L178.4,106.8z"/>
<path class="st0" d="M180.9,111.8c0,3.1-0.1,4.7-0.1,5l-0.1,0.2c-0.1,0.1-0.1,0.1-0.2,0.1s-0.2,0-0.2-0.1l-0.1-0.2
	c0-0.3,0-1.9,0.1-5v-0.1c0-0.7,0-1.3,0-1.9l0.1-0.2c0.1-0.1,0.1-0.1,0.2-0.1c0.1,0,0.2,0,0.2,0.1l0.1,0.2v0.8c0.4-0.5,0.9-0.8,1.5-1
	c0.4-0.1,0.7-0.2,1-0.2s0.7,0.1,1,0.3c0.3,0.2,0.6,0.4,0.9,0.8c0.5,0.7,0.8,1.7,0.9,3.1c0,0.2,0,0.7,0,1.7s0,1.5,0,1.5l-0.1,0.2
	c-0.1,0.1-0.1,0.1-0.2,0.1c-0.1,0-0.2,0-0.2-0.1l-0.1-0.2c0,0,0-0.5,0-1.5s0-1.5,0-1.7c-0.1-1.3-0.3-2.2-0.8-2.8
	c-0.5-0.7-1.2-0.9-2.1-0.6c-0.4,0.1-0.7,0.3-1.1,0.6C181.3,111.1,181.1,111.5,180.9,111.8z"/>
<path class="st0" d="M188.4,111.8c0,3.1-0.1,4.7-0.1,5l-0.1,0.2c-0.1,0.1-0.1,0.1-0.2,0.1s-0.2,0-0.2-0.1l-0.1-0.2
	c0-0.3,0-1.9,0.1-5v-0.1c0-0.7,0-1.3,0-1.9l0.1-0.2c0.1-0.1,0.1-0.1,0.2-0.1c0.1,0,0.2,0,0.2,0.1l0.1,0.2v0.8c0.4-0.5,0.9-0.8,1.5-1
	c0.4-0.1,0.7-0.2,1-0.2s0.7,0.1,1,0.3c0.3,0.2,0.6,0.4,0.9,0.8c0.5,0.7,0.8,1.7,0.9,3.1c0,0.2,0,0.7,0,1.7s0,1.5,0,1.5l-0.1,0.2
	c-0.1,0.1-0.1,0.1-0.2,0.1s-0.2,0-0.2-0.1l-0.1-0.2c0,0,0-0.5,0-1.5s0-1.5,0-1.7c-0.1-1.3-0.3-2.2-0.8-2.8c-0.5-0.7-1.2-0.9-2.1-0.6
	c-0.4,0.1-0.7,0.3-1.1,0.6C188.8,111.1,188.6,111.5,188.4,111.8z"/>
<path class="st0" d="M199.3,109.6c0.9,0.3,1.6,0.9,2,1.6c0.4,0.8,0.6,1.6,0.6,2.4c0,0.5-0.1,0.9-0.3,1.4s-0.4,0.8-0.8,1.2
	c-0.3,0.3-0.7,0.6-1.2,0.8c-0.5,0.2-1,0.2-1.6,0.2c-0.8-0.1-1.4-0.3-2-0.8c-0.5-0.4-0.9-0.9-1.1-1.5s-0.2-1.2-0.1-1.8
	c0.1-0.8,0.4-1.6,1-2.2c0.5-0.7,1.3-1.1,2.1-1.3c0.1-0.1,0.2-0.2,0.3-0.1c0.1,0,0.2,0,0.3,0s0.3,0,0.4,0
	C199.1,109.4,199.2,109.5,199.3,109.6z M198.4,110.1c-0.8,0.1-1.5,0.4-2,1s-0.9,1.3-1,2.1c-0.1,0.9,0,1.6,0.5,2.3
	c0.4,0.7,1.1,1,2.1,1.1c0.9,0.1,1.6-0.2,2.2-0.7c0.6-0.6,0.9-1.3,1-2.2c0.1-0.8-0.1-1.6-0.6-2.3C200,110.7,199.4,110.2,198.4,110.1z
	"/>
<path class="st0" d="M205.3,116.9l-1.2-3.4c-0.5-1.5-1-2.7-1.3-3.5v-0.2l0.2-0.2h0.3l0.2,0.2c0.3,0.8,0.7,1.8,1.2,3.3l1,2.8l1.2-2.8
	l1.4-3.1l0.2-0.2c0.1,0,0.2,0,0.3,0s0.2,0.1,0.2,0.2v0.2l-1.5,3.4c-0.7,1.5-1.1,2.6-1.4,3.3c0,0.2-0.1,0.3-0.2,0.3
	c-0.1,0-0.2,0-0.3,0L205.3,116.9z"/>
<path class="st0" d="M209.9,111.1c0.3-0.4,0.7-0.8,1.1-1c0.4-0.2,0.9-0.4,1.4-0.5c0.5,0,0.9,0,1.2,0.2c0.4,0.2,0.6,0.4,0.9,0.7
	c0.2,0.3,0.4,0.6,0.5,1c0.1,0.3,0.2,0.7,0.3,1.2c0,0.2,0.1,0.5,0.1,0.7s0,0.5,0.1,0.7c0,0.2,0,0.5,0,0.7s0,0.4,0,0.7
	c0,0.3,0,0.5,0,0.6s0,0.3,0,0.6s0,0.4,0,0.4l-0.1,0.2c-0.1,0.1-0.2,0.1-0.2,0.1c-0.1,0-0.2,0-0.2-0.1l-0.1-0.2c0-0.1,0-0.2,0-0.3
	c0-0.1,0-0.3,0-0.3c-0.3,0.3-0.7,0.5-1.2,0.6c-1.1,0.5-2.1,0.5-2.9,0.1c-0.4-0.2-0.6-0.4-0.8-0.8c-0.2-0.3-0.3-0.7-0.4-1
	c-0.1-0.8,0.1-1.5,0.7-2c0.6-0.6,1.6-0.9,2.8-0.8c0.7,0.1,1.3,0.3,1.7,0.6c0-0.1,0-0.2-0.1-0.3c-0.1-0.8-0.4-1.5-0.7-1.9
	c-0.4-0.4-0.8-0.6-1.5-0.6c-0.4,0-0.8,0.2-1.1,0.4c-0.3,0.2-0.6,0.5-0.9,0.9c0,0.1-0.1,0.1-0.2,0.1s-0.2,0-0.3,0l-0.1-0.2V111.1z
	 M214.8,113.9c-0.4-0.5-1-0.8-1.9-0.9c-1-0.1-1.7,0.1-2.2,0.6c-0.4,0.4-0.6,0.9-0.5,1.6c0.1,0.6,0.4,1.1,0.9,1.3
	c0.6,0.3,1.4,0.3,2.3-0.1c0.6-0.2,1.1-0.6,1.5-1C214.9,114.8,214.9,114.3,214.8,113.9z"/>
<path class="st0" d="M218.6,109.6c0,0.3,0,1.3,0,3.1s0,3.2,0,4.1l-0.1,0.2c-0.1,0.1-0.1,0.1-0.2,0.1c-0.1,0-0.2,0-0.2-0.1l-0.1-0.2
	c0-0.9,0-2.3,0-4.1s0-2.8,0-3.1c-0.3,0-0.6,0-1,0c-0.1,0-0.2,0-0.2-0.1l-0.1-0.2l0.1-0.2c0.1-0.1,0.2-0.1,0.2-0.1h1v-1.5l0.1-0.2
	c0.1-0.1,0.1-0.1,0.2-0.1s0.2,0,0.2,0.1l0.1,0.2v1.5h0.9c0.1,0,0.2,0,0.2,0.1l0.1,0.2l-0.1,0.2c-0.1,0.1-0.1,0.1-0.2,0.1H218.6z"/>
<path class="st0" d="M221.9,109.9c0,0.8,0,1.9,0,3.5c0,1.5,0,2.7,0,3.5l-0.1,0.2c-0.1,0.1-0.1,0.1-0.2,0.1s-0.2,0-0.2-0.1l-0.1-0.2
	c0-0.8,0-1.9,0-3.5c0-1.5,0-2.7,0-3.5l0.1-0.2c0.1-0.1,0.1-0.1,0.2-0.1c0.1,0,0.2,0,0.2,0.1L221.9,109.9z M221.8,107.6l0.1,0.2
	l-0.1,0.2c-0.1,0.1-0.1,0.1-0.2,0.1c-0.1,0-0.2,0-0.2-0.1l-0.1-0.2l0.1-0.2c0.1-0.1,0.1-0.1,0.2-0.1S221.8,107.5,221.8,107.6z"/>
<path class="st0" d="M227.4,109.6c0.9,0.3,1.6,0.9,2,1.6c0.4,0.8,0.6,1.6,0.6,2.4c0,0.5-0.1,0.9-0.3,1.4s-0.4,0.8-0.8,1.2
	c-0.3,0.3-0.7,0.6-1.2,0.8c-0.5,0.2-1,0.2-1.6,0.2c-0.8-0.1-1.4-0.3-2-0.8c-0.5-0.4-0.9-0.9-1.1-1.5c-0.2-0.6-0.2-1.2-0.1-1.8
	c0.1-0.8,0.4-1.6,1-2.2c0.5-0.7,1.3-1.1,2.1-1.3c0.1-0.1,0.2-0.2,0.3-0.1c0.1,0,0.2,0,0.3,0s0.3,0,0.4,0
	C227.3,109.4,227.4,109.5,227.4,109.6z M226.6,110.1c-0.8,0.1-1.5,0.4-2,1s-0.9,1.3-1,2.1c-0.1,0.9,0,1.6,0.5,2.3
	c0.4,0.7,1.1,1,2.1,1.1c0.9,0.1,1.6-0.2,2.2-0.7c0.6-0.6,0.9-1.3,1-2.2c0.1-0.8-0.1-1.6-0.6-2.3
	C228.2,110.7,227.5,110.2,226.6,110.1z"/>
<path class="st0" d="M231.9,111.8c0,3.1-0.1,4.7-0.1,5l-0.1,0.2c-0.1,0.1-0.1,0.1-0.2,0.1s-0.2,0-0.2-0.1l-0.1-0.2
	c0-0.3,0-1.9,0.1-5v-0.1c0-0.7,0-1.3,0-1.9l0.1-0.2c0.1-0.1,0.1-0.1,0.2-0.1c0.1,0,0.2,0,0.2,0.1l0.1,0.2v0.8c0.4-0.5,0.9-0.8,1.5-1
	c0.4-0.1,0.7-0.2,1-0.2s0.7,0.1,1,0.3s0.6,0.4,0.9,0.8c0.5,0.7,0.8,1.7,0.9,3.1c0,0.2,0,0.7,0,1.7s0,1.5,0,1.5l-0.1,0.2
	c-0.1,0.1-0.1,0.1-0.2,0.1s-0.2,0-0.2-0.1l-0.1-0.2c0,0,0-0.5,0-1.5s0-1.5,0-1.7c-0.1-1.3-0.3-2.2-0.8-2.8c-0.5-0.7-1.2-0.9-2.1-0.6
	c-0.4,0.1-0.7,0.3-1.1,0.6C232.3,111.1,232.1,111.5,231.9,111.8z"/>
<rect x="13.3" y="111.2" class="st0" width="70.8" height="4.5"/>
<rect x="240.9" y="111.2" class="st0" width="19" height="4.5"/>
</svg>
