<?xml version="1.0" encoding="UTF-8" standalone="no"?>
<svg width="234px" height="252px" viewBox="0 0 234 252" version="1.1" xmlns="http://www.w3.org/2000/svg" xmlns:xlink="http://www.w3.org/1999/xlink">
    <!-- Generator: Sketch 3.6.1 (26313) - http://www.bohemiancoding.com/sketch -->
    <title>synthetic felt icon</title>
    <desc>Created with Sketch.</desc>
    <defs></defs>
    <g id="Page-1" stroke="none" stroke-width="1" fill="none" fill-rule="evenodd">
        <g id="synthetic-felt-icon" fill="#FF9800">
            <g id="Group">
                <path d="M133.7,76.3 C179.5,71 212.5,48.1 209.8,27.3 C207.1,6.5 170.9,-3.6 125.2,1.8 C79.5,7.2 44.2,28.4 46.9,48.6 C49.6,69.4 88.4,81.6 133.7,76.3 L133.7,76.3 Z M57.6,47.5 C55.5,29.4 86.3,11.3 126.3,6.5 C166.2,1.7 199.2,10.8 201.4,28.9 C203.6,47 171.6,64.6 131.7,69.4 C91.6,74.1 59.7,65.6 57.6,47.5 L57.6,47.5 Z" id="Shape"></path>
                <path d="M171.5,32.6 C171,22.5 149.7,17.2 125.2,19.8 C100.7,22.4 82,33.2 83.1,43.3 C84.2,53.4 101.2,57.7 128.3,55.5 C157.6,52.9 172,41.7 171.5,32.6 L171.5,32.6 Z M92.7,43.3 C91.1,34.8 109.7,27.3 131,26.3 C148.6,25.2 161.9,27.9 162.9,33.8 C164,39.1 150.1,46.6 131.5,48.7 C109.7,51.3 93.7,50.7 92.7,43.3 L92.7,43.3 Z" id="Shape"></path>
                <path d="M169.3,76.3 C165.6,79 167.2,79.5 169.3,91.7 C171.4,104.5 180.5,159.8 184.7,185.4 C187.4,201.9 188.4,202.4 195.3,200.8 C203.3,198.7 232.6,181.1 233.6,163 C234.1,153.4 216,41.1 216,41.1 C213,58.2 173.1,73.1 169.3,76.3 L169.3,76.3 Z M224.7,151.3 C225.8,162.5 227.9,164.6 221.5,173.1 C215.6,181.6 208.7,185.9 203.9,189.1 C198,193.4 194.3,193.4 194.3,193.4 C193.8,192.9 192.2,184.4 191.6,179.6 C191.1,174.8 184.7,139.7 181.5,117.9 C178.3,96.1 176.2,85.4 175.6,80.6 C175.1,78.5 185.2,76.3 194.8,71 C202.3,66.7 211.8,60.4 211.8,60.4 C211.4,59.2 224.2,144.4 224.7,151.3 L224.7,151.3 Z" id="Shape"></path>
                <path d="M175.7,193.4 C173,182.8 154.4,81.1 154.4,81.1 C154.4,81.1 139,83.8 127.8,84.8 C105.4,86.4 93.7,84.8 93.7,84.8 C93.7,84.8 115.5,187.5 117.7,197.6 C120.4,210.4 120.9,216.8 129.9,217.8 C139.5,218.9 158.1,217.8 169.8,210.9 C174.1,208.8 178.4,204 175.7,193.4 L175.7,193.4 Z M163.5,207.2 C158.2,209.9 153.4,211.5 147.5,212 C140,212.5 129.9,212.5 127.8,209.3 C126.2,207.2 125.7,204.5 124.6,199.7 C119.3,174.2 102.2,90.6 102.2,90.6 C102.2,90.6 115.5,91.1 127.7,90.6 C134.6,90.1 149.5,87.9 149.5,87.9 C149,87.9 163.9,166.7 164.4,170.9 C166.5,183.1 168.7,192.2 169.2,196.4 C170.4,204 167.7,205.1 163.5,207.2 L163.5,207.2 Z" id="Shape"></path>
                <path d="M81.5,83.2 C81.5,83.2 71.9,81.6 60.7,75.7 C53.3,71.5 49,66.2 49,66.2 C49,66.2 73.5,179 75.7,191.3 C78.4,205.1 82.1,208.3 90.6,212.6 C97,215.8 111.9,220.1 111.4,216.9 C110.8,213.1 81.5,83.2 81.5,83.2 L81.5,83.2 Z M91.1,204.6 C85.8,201.4 82.6,194 81,184.9 C79.4,176.9 57.6,79.5 57.6,79.5 C57.6,79.5 60.3,81.6 65.6,83.8 C70.4,85.9 76.8,88.1 76.8,88.1 C76.8,88.1 105,210.5 103.9,210.5 C100.7,209.9 94.8,206.7 91.1,204.6 L91.1,204.6 Z" id="Shape"></path>
                <path d="M52.8,224.3 C59.2,216.3 68.8,202.5 68.8,202.5 L39.5,63 C39.5,63 27.8,88.5 23,95.5 C13.4,108.3 0.6,118.9 0.6,118.9 L30.9,251.4 C30.9,251.4 46.9,231.2 52.8,224.3 L52.8,224.3 Z M24,105.6 C30.4,98.1 36.8,83.8 36.8,83.8 C41.1,100.8 61.3,201.4 61.3,201.4 C61.3,201.4 50.7,215.8 48.5,218.4 C46.4,221.1 35.2,236.5 35.2,236.5 L9.7,121.5 C9.6,121.5 19.2,111.4 24,105.6 L24,105.6 Z" id="Shape"></path>
            </g>
        </g>
    </g>
</svg>