<?xml version="1.0" encoding="UTF-8" standalone="no"?>
<svg width="18px" height="22px" viewBox="0 0 18 22" version="1.1" xmlns="http://www.w3.org/2000/svg" xmlns:xlink="http://www.w3.org/1999/xlink">
    <!-- Generator: Sketch 3.6.1 (26313) - http://www.bohemiancoding.com/sketch -->
    <title>Slice 1</title>
    <desc>Created with Sketch.</desc>
    <defs></defs>
    <g id="Page-1" stroke="none" stroke-width="1" fill="none" fill-rule="evenodd">
        <g id="warranty" transform="translate(-3.000000, -1.000000)">
            <path d="M12,1 L3,5 L3,11 C3,16.55 6.84,21.74 12,23 C17.16,21.74 21,16.55 21,11 L21,5 L12,1 L12,1 Z M12,11.99 L19,11.99 C18.47,16.11 15.72,19.78 12,20.93 L12,12 L5,12 L5,6.3 L12,3.19 L12,11.99 L12,11.99 Z" id="Shape" fill="currentColor"></path>
            <path d="M0,0 L24,0 L24,24 L0,24 L0,0 Z" id="Shape"></path>
        </g>
    </g>
</svg>