<?xml version="1.0" encoding="UTF-8"?>
<svg width="350px" height="159px" viewBox="0 0 350 159" version="1.1" xmlns="http://www.w3.org/2000/svg" xmlns:xlink="http://www.w3.org/1999/xlink">
    <!-- Generator: Sketch 43.1 (39012) - http://www.bohemiancoding.com/sketch -->
    <title>15 percent off with stars for coupon section</title>
    <desc>Created with Sketch.</desc>
    <defs></defs>
    <g id="Page-1" stroke="none" stroke-width="1" fill="none" fill-rule="evenodd">
        <g id="15-percent-off-with-stars-for-coupon-section" fill-rule="nonzero" fill="#FFFFFF">
            <g id="Group">
                <g transform="translate(0.000000, 106.782058)" id="Shape">
                    <path d="M5.63571971,45.5306829 L5.63571971,7.7120375 L0.44492524,6.67387861 L0.44492524,1.03815889 L12.6062151,1.03815889 L18.2419349,1.03815889 L25.6573555,1.03815889 C31.1447668,1.03815889 35.5940192,1.48308413 38.7084959,2.2246262 C41.8229726,3.11447668 44.1959072,4.59756082 45.6789914,6.37726178 C47.1620755,8.30527116 47.7553091,10.8265142 47.7553091,14.0892993 C47.7553091,16.0173087 47.3103839,17.7970096 46.7171503,19.5767106 C46.1239166,21.2081031 44.7891409,23.1361125 43.3060567,24.6191966 C41.8229726,26.1022808 39.7466548,27.1404397 37.3737202,27.7336733 C39.3017296,28.326907 40.7848137,29.2167575 42.2678978,30.4032248 C43.4543652,31.5896921 44.7891409,33.0727762 45.6789914,34.5558603 C46.5688418,36.0389445 47.6070007,37.9669539 48.3485428,40.0432716 C49.2383933,41.6746642 49.8316269,43.0094399 50.4248606,43.750982 C51.0180942,44.492524 51.4630195,44.9374493 52.0562531,45.2340661 L53.9842625,45.8272998 L53.9842625,50.8697858 L37.8186454,50.8697858 C36.928795,50.8697858 36.3355613,50.2765522 35.7423277,48.793468 C35.149094,47.3103839 34.1109351,45.2340661 33.0727762,42.2678978 C32.1829257,39.7466548 31.4413837,37.8186454 30.6998416,36.3355613 C30.1066079,34.8524772 29.2167575,33.369393 28.6235238,32.1829257 C27.7336733,30.9964584 26.9921313,30.2549164 25.9539724,30.1066079 L20.7631779,30.1066079 L20.7631779,45.3823745 L26.9921313,45.9756082 L26.9921313,51.0180942 L0.296616827,51.0180942 L0.296616827,45.9756082 L5.63571971,45.5306829 Z M30.2549164,22.8394957 C31.4413837,21.2081031 32.1829257,18.3902433 32.1829257,14.6825329 C32.1829257,11.5680563 31.5896921,9.19512164 30.2549164,7.7120375 C29.068449,6.22895337 27.1404397,5.63571971 24.3225798,5.63571971 C22.3945704,5.63571971 21.2081031,5.78402813 20.6148695,6.08064495 L20.6148695,25.2124303 C20.7631779,25.3607387 21.50472,25.3607387 22.5428789,25.3607387 L24.9158135,25.3607387 C26.9921313,25.3607387 28.9201406,24.6191966 30.2549164,22.8394957 Z"></path>
                    <path d="M57.2470476,12.7545236 C59.3233654,9.04681322 62.2895337,6.08064495 65.997244,4.00432716 C69.7049543,1.92800938 74.4508236,0.889850481 79.641618,0.889850481 C88.3918144,0.889850481 94.9173846,2.96616827 98.9217118,7.11880385 C102.926039,11.2714394 105.002357,17.203776 105.002357,25.2124303 C105.002357,30.2549164 103.964198,34.8524772 101.88788,38.8568043 C99.8115623,42.8611315 96.845394,45.8272998 92.8410668,48.051926 C89.1333565,50.4248606 84.3874873,51.4630195 79.1966928,51.4630195 C70.4464964,51.4630195 64.0692346,49.0900849 60.0649075,44.7891409 C56.0605803,40.4881969 53.9842625,34.1109351 53.9842625,26.2505892 C54.1325709,21.0597947 55.1707298,16.6105423 57.2470476,12.7545236 Z M73.1160479,41.5263558 C74.599132,44.6408325 76.8237582,46.4205334 79.7899265,46.4205334 C82.7560947,46.4205334 84.9807209,44.492524 86.4638051,40.9331221 C87.9468892,37.3737202 88.8367397,32.1829257 88.8367397,25.2124303 C88.8367397,20.3182526 88.3918144,16.6105423 87.7985808,13.644374 C87.2053471,10.9748226 86.1671882,8.7501964 84.8324125,7.56372909 C83.6459452,6.37726178 81.8662443,5.93233654 79.9382349,5.93233654 C76.9720666,5.93233654 74.7474404,7.56372909 73.2643563,10.9748226 C71.7812721,14.3859161 70.8914217,19.4284022 70.8914217,26.1022808 C70.7431132,33.369393 71.6329637,38.4118791 73.1160479,41.5263558 Z"></path>
                    <path d="M111.083002,12.7545236 C113.159319,9.04681322 116.125488,6.08064495 119.833198,4.00432716 C123.540908,1.92800938 128.286778,0.889850481 133.477572,0.889850481 C142.227769,0.889850481 148.753339,2.96616827 152.757666,7.11880385 C156.761993,11.2714394 158.838311,17.203776 158.838311,25.2124303 C158.838311,30.2549164 157.800152,34.8524772 155.723834,38.8568043 C153.647516,42.8611315 150.681348,45.8272998 146.973638,48.051926 C142.969311,50.4248606 138.520058,51.4630195 133.329264,51.4630195 C124.579067,51.4630195 118.201806,49.0900849 114.197478,44.7891409 C110.193151,40.3398885 108.116833,34.1109351 108.116833,26.2505892 C108.116833,21.0597947 109.006684,16.6105423 111.083002,12.7545236 Z M126.803694,41.5263558 C128.286778,44.6408325 130.511404,46.4205334 133.477572,46.4205334 C136.44374,46.4205334 138.668367,44.492524 140.151451,40.9331221 C141.634535,37.3737202 142.524385,32.1829257 142.524385,25.2124303 C142.524385,20.3182526 142.07946,16.6105423 141.486226,13.644374 C140.892993,10.9748226 139.854834,8.7501964 138.520058,7.56372909 C137.185282,6.37726178 135.55389,5.93233654 133.625881,5.93233654 C130.659712,5.93233654 128.435086,7.56372909 126.952002,10.9748226 C125.468918,14.3859161 124.579067,19.4284022 124.579067,26.1022808 C124.579067,33.369393 125.320609,38.4118791 126.803694,41.5263558 Z"></path>
                    <polygon points="167.588507 45.5306829 167.588507 7.41542067 161.952788 6.37726178 161.952788 1.18646731 204.517302 1.18646731 205.407153 14.3859161 197.843424 14.3859161 194.43233 7.26711226 182.715965 6.08064495 182.715965 24.3225798 190.428003 24.3225798 192.059395 18.0936264 197.991732 18.0936264 197.991732 37.2254118 192.059395 37.2254118 190.428003 30.6998416 182.715965 30.6998416 182.715965 45.8272998 193.839096 46.7171503 193.839096 51.7596363 162.101096 51.7596363 162.101096 46.7171503"></polygon>
                    <polygon points="214.009041 45.5306829 214.009041 7.41542067 208.373321 6.37726178 208.373321 1.18646731 235.068835 1.18646731 235.068835 6.37726178 229.136499 7.41542067 229.136499 45.6789914 235.068835 46.5688418 235.068835 51.6113279 208.669938 51.6113279 208.669938 46.5688418"></polygon>
                    <polygon points="244.263957 45.5306829 244.263957 7.41542067 238.33162 6.37726178 238.33162 1.18646731 259.391415 1.18646731 277.929967 27.8819817 282.082602 36.4838697 282.082602 7.41542067 275.853649 6.37726178 275.853649 1.18646731 295.578668 1.18646731 295.578668 6.37726178 290.091257 7.41542067 290.091257 51.3147111 276.595191 51.3147111 256.573555 21.8013368 252.124303 13.0511404 252.124303 45.6789914 260.281266 46.5688418 260.281266 51.6113279 238.183312 51.6113279 238.183312 46.5688418"></polygon>
                    <path d="M300.917771,12.6062151 C303.290706,8.89850481 306.553491,5.93233654 310.854435,4.00432716 C315.00707,2.07631779 320.494482,1.03815889 326.575127,1.03815889 C329.98622,1.03815889 333.545622,1.18646731 337.253332,1.63139255 C340.961043,2.07631779 343.778902,2.52124303 346.003529,3.11447668 L344.96537,16.1656171 L334.287164,16.1656171 L331.914229,7.41542067 C331.765921,6.97049543 331.024379,6.82218702 329.98622,6.37726178 C329.09637,6.22895337 327.909902,5.93233654 326.27851,5.93233654 C322.570799,5.93233654 319.604631,7.56372909 317.676622,10.9748226 C315.748612,14.3859161 314.710453,19.1317853 314.710453,25.6573555 C314.710453,32.1829257 315.600304,37.2254118 317.231696,40.7848137 C318.863089,44.3442156 321.384332,45.9756082 325.240351,45.9756082 C326.723435,45.9756082 327.909902,45.8272998 329.244678,45.3823745 C330.282837,44.9374493 331.320996,44.492524 331.765921,43.8992904 L331.765921,30.2549164 L326.130201,29.6616827 L326.130201,24.1742714 L349.859547,24.1742714 L349.859547,29.6616827 L346.448454,30.2549164 L346.448454,47.9036176 C345.85522,47.9036176 344.96537,47.9036176 344.075519,48.051926 C343.185669,48.2002344 341.999202,48.4968512 340.367809,48.9417765 C337.253332,49.5350101 334.435472,50.1282438 331.765921,50.573169 C329.244678,51.0180942 326.575127,51.1664027 323.757267,51.1664027 C318.121547,51.1664027 313.227369,50.1282438 309.223042,48.051926 C305.218715,45.9756082 302.252547,43.0094399 300.176229,39.3017296 C298.099911,35.5940192 297.061752,31.2930752 297.061752,26.547206 C297.358369,21.0597947 298.693145,16.3139255 300.917771,12.6062151 Z"></path>
                </g>
                <g transform="translate(96.400469, 1.483084)" id="Shape">
                    <path d="M3.11447668,9.49173846 C4.59756082,6.82218702 6.67387861,4.59756082 9.34343005,3.2627851 C12.0129815,1.77970096 14.9791498,1.18646731 18.3902433,1.18646731 C24.025963,1.18646731 28.326907,2.81785986 30.84815,6.08064495 C33.369393,9.34343005 34.5558603,13.4960656 34.5558603,18.8351685 C34.5558603,22.5428789 33.6660099,25.8056639 32.1829257,28.4752154 C30.6998416,31.1447668 28.6235238,33.369393 25.9539724,34.5558603 C23.2844209,36.0389445 20.3182526,36.6321781 16.9071591,36.6321781 C13.3477572,36.6321781 10.3815889,35.7423277 8.15696274,34.2592435 C5.63571971,32.7761594 4.00432716,30.6998416 2.66955144,28.0302902 C1.33477572,25.3607387 0.741542067,22.5428789 0.741542067,19.2800938 C0.741542067,15.5723834 1.48308413,12.1612899 3.11447668,9.49173846 Z M21.6530284,10.5298974 C21.0597947,8.15696274 20.0216358,7.11880385 18.0936264,7.11880385 C16.1656171,7.11880385 14.9791498,8.15696274 14.3859161,10.0849721 C13.7926825,12.0129815 13.3477572,14.9791498 13.3477572,18.6868601 C13.3477572,22.0979536 13.7926825,24.7675051 14.3859161,27.2887481 C14.9791498,29.6616827 16.3139255,30.84815 17.945318,30.84815 C19.1317853,30.84815 20.3182526,30.4032248 20.9114863,29.3650659 C21.50472,28.4752154 21.9496452,27.2887481 22.0979536,25.6573555 C22.246262,24.025963 22.5428789,22.0979536 22.5428789,19.5767106 C22.3945704,15.7206918 21.9496452,12.7545236 21.6530284,10.5298974 Z M59.6199822,1.18646731 L33.5177015,61.5479916 L24.025963,61.5479916 L50.1282438,1.33477572 L59.6199822,1.33477572 L59.6199822,1.18646731 L59.6199822,1.18646731 Z M79.7899265,29.8099911 C82.3111695,33.2210846 83.4976368,37.5220286 83.4976368,43.0094399 C83.4976368,46.7171503 82.6077863,50.1282438 81.1247022,52.9461036 C79.641618,55.6156551 77.5653003,57.8402813 74.8957488,59.175057 C72.2261974,60.6581411 69.2600291,61.2513748 65.8489356,61.2513748 C62.2895337,61.2513748 59.3233654,60.3615243 57.0987392,58.8784402 C54.5774962,57.2470476 52.9461036,55.1707298 51.6113279,52.35287 C50.4248606,49.6833185 49.6833185,46.7171503 49.6833185,43.3060567 C49.6833185,39.5983464 50.573169,36.1872529 52.0562531,33.2210846 C53.5393373,30.5515332 55.6156551,28.1785986 58.2852065,26.6955144 C60.9547579,25.2124303 63.9209262,24.3225798 67.3320197,24.3225798 C73.1160479,24.9158135 77.120375,26.6955144 79.7899265,29.8099911 Z M70.298188,52.5011784 C70.8914217,50.573169 71.1880385,47.6070007 71.1880385,43.8992904 C71.1880385,39.8949632 71.0397301,36.7804865 70.298188,34.4075519 C69.7049543,32.0346173 68.6667954,30.84815 66.7387861,30.84815 C64.8107767,30.84815 63.6243094,31.8863089 63.0310757,33.9626267 C62.4378421,36.0389445 61.9929168,39.0051127 61.9929168,43.0094399 C61.9929168,46.4205334 62.4378421,49.2383933 63.0310757,51.7596363 C63.6243094,54.2808793 64.9590851,55.4673466 66.5904777,55.4673466 C68.3701786,55.1707298 69.7049543,54.4291878 70.298188,52.5011784 Z"></path>
                    <path d="M92.2478332,15.2757666 C94.6207678,10.6782058 97.7352445,7.26711226 101.88788,4.74586923 C106.040516,2.2246262 111.083002,1.03815889 117.015338,1.03815889 C126.655385,1.03815889 133.774189,3.55940192 138.223441,8.60188798 C142.672694,13.644374 144.749012,20.7631779 144.749012,30.2549164 C144.749012,36.3355613 143.710853,41.8229726 141.337918,46.5688418 C138.964983,51.3147111 135.850507,55.0224214 131.401254,57.6919729 C127.248619,60.3615243 122.206133,61.6963 116.273796,61.6963 C106.633749,61.6963 99.6632539,59.0267486 95.2140015,53.6876457 C90.7647491,48.3485428 88.5401229,40.9331221 88.5401229,31.4413837 C88.8367397,25.2124303 89.8748986,19.8733274 92.2478332,15.2757666 Z M109.451609,49.9799353 C111.083002,53.6876457 113.604245,55.6156551 116.86703,55.6156551 C119.981507,55.6156551 122.50275,53.5393373 124.282451,49.0900849 C125.913843,44.6408325 126.803694,38.4118791 126.803694,30.2549164 C126.803694,24.3225798 126.358768,19.725019 125.617226,16.4622339 C124.875684,13.1994488 123.689217,10.5298974 122.206133,9.34343005 C120.723049,7.86034592 119.091656,7.26711226 117.015338,7.26711226 C113.900862,7.26711226 111.379619,9.19512164 109.599918,13.1994488 C107.820217,17.203776 107.078675,23.2844209 107.078675,31.2930752 C106.930366,39.8949632 107.671908,45.9756082 109.451609,49.9799353 Z"></path>
                    <polygon points="154.833984 54.5774962 154.833984 8.7501964 148.60503 7.56372909 148.60503 1.18646731 195.173872 1.18646731 196.212031 16.9071591 187.758451 16.9071591 184.347358 8.30527116 171.296218 7.11880385 171.296218 28.9201406 179.898106 28.9201406 181.529498 21.3564115 188.055068 21.3564115 188.055068 44.1959072 181.826115 44.1959072 179.898106 36.1872529 171.296218 36.1872529 171.296218 54.4291878 183.457507 55.4673466 183.457507 61.5479916 148.753339 61.5479916 148.753339 55.4673466"></polygon>
                    <polygon points="205.555461 54.5774962 205.555461 8.7501964 199.326508 7.56372909 199.326508 1.18646731 245.89535 1.18646731 246.933508 16.9071591 238.479929 16.9071591 235.068835 8.30527116 222.017695 7.11880385 222.017695 28.9201406 230.619583 28.9201406 232.250976 21.3564115 238.776546 21.3564115 238.776546 44.1959072 232.547592 44.1959072 230.619583 36.1872529 222.017695 36.1872529 222.017695 54.4291878 234.178985 55.4673466 234.178985 61.5479916 199.474816 61.5479916 199.474816 55.4673466"></polygon>
                </g>
                <path d="M66.7387861,57.6919729 C69.7049543,56.2088887 71.9295805,54.2808793 73.7092815,51.7596363 C75.3406741,49.2383933 76.2305245,46.7171503 76.2305245,44.0475988 C76.2305245,40.6365053 75.3406741,38.4118791 73.7092815,36.928795 C72.077889,35.4457108 69.5566459,34.8524772 65.997244,34.8524772 C64.3658515,34.8524772 62.4378421,35.0007856 60.3615243,35.4457108 C58.2852065,35.8906361 56.8021224,36.3355613 55.3190382,36.928795 L51.9079447,34.7041688 L55.6156551,3.85601875 L83.4976368,3.85601875 L84.3874873,2.37293462 L90.6164406,2.37293462 L88.5401229,14.8308413 L65.5523188,14.8308413 L62.5861505,28.9201406 C62.7344589,28.7718322 63.6243094,28.4752154 64.9590851,27.8819817 C66.2938608,27.2887481 67.9252534,26.8438228 69.8532628,26.2505892 C71.7812721,25.6573555 73.5609731,25.6573555 75.7855993,25.6573555 C81.7179358,25.6573555 86.0188798,27.1404397 88.9850481,29.8099911 C91.9512164,32.4795426 93.4343005,36.3355613 93.4343005,41.0814305 C93.4343005,46.272225 91.9512164,51.0180942 88.8367397,54.874113 C85.722263,58.8784402 81.421319,61.8446084 76.2305245,63.9209262 C71.0397301,65.997244 64.9590851,67.0354029 58.4335149,67.0354029 C56.3571971,67.0354029 54.4291878,66.8870945 52.7977952,66.4421692 L52.7977952,59.4716738 C53.9842625,59.6199822 55.7639635,59.6199822 57.395356,59.6199822 C60.6581411,59.9165991 63.7726178,59.175057 66.7387861,57.6919729 Z" id="Shape"></path>
                <path d="M20.9114863,58.7301317 L20.9114863,19.725019 C19.8733274,20.1699442 18.3902433,20.3182526 16.0173087,20.9114863 C13.644374,21.3564115 12.3095983,21.50472 11.123131,21.50472 L10.0849721,12.0129815 C13.1994488,11.123131 16.6105423,9.64004688 20.1699442,7.56372909 C23.7293462,5.19079447 26.3988976,3.11447668 28.6235238,0.889850481 L28.6235238,0.889850481 L37.2254118,2.07631779 L37.2254118,58.4335149 L45.2340661,59.6199822 L45.2340661,67.3320197 L12.1612899,67.3320197 L12.1612899,59.6199822 L20.9114863,58.7301317 Z" id="Shape"></path>
            </g>
            <g id="Group" transform="translate(13.347757, 71.188038)">
                <g id="Shape">
                    <path d="M205.70377,1.63139255 L208.818246,7.86034592 C209.114863,8.45357957 209.708097,8.89850481 210.449639,9.04681322 L217.271826,10.0849721 C219.051527,10.3815889 219.793069,12.4579067 218.458293,13.7926825 L213.564115,18.6868601 C213.11919,19.1317853 212.822573,19.8733274 212.970882,20.6148695 L214.157349,27.4370565 C214.453966,29.2167575 212.674265,30.5515332 211.042872,29.6616827 L204.962227,26.3988976 C204.368994,26.1022808 203.627452,26.1022808 203.034218,26.3988976 L196.953573,29.6616827 C195.322181,30.5515332 193.54248,29.2167575 193.839096,27.4370565 L195.025564,20.6148695 C195.173872,19.8733274 194.877255,19.2800938 194.43233,18.6868601 L189.538152,13.7926825 C188.203377,12.6062151 188.944919,10.3815889 190.72462,10.0849721 L197.546807,9.04681322 C198.288349,8.89850481 198.881582,8.45357957 199.178199,7.86034592 L202.292676,1.63139255 C202.589293,-1.99840144e-15 204.962227,-1.99840144e-15 205.70377,1.63139255 Z"></path>
                    <path d="M159.283236,1.63139255 L162.397713,7.86034592 C162.69433,8.45357957 163.287563,8.89850481 164.029105,9.04681322 L170.851292,10.0849721 C172.630993,10.3815889 173.372535,12.4579067 172.03776,13.7926825 L167.143582,18.6868601 C166.698657,19.1317853 166.40204,19.8733274 166.550348,20.6148695 L167.736816,27.4370565 C168.033432,29.2167575 166.253732,30.5515332 164.622339,29.6616827 L158.541694,26.3988976 C157.94846,26.1022808 157.206918,26.1022808 156.613685,26.3988976 L150.53304,29.6616827 C148.901647,30.5515332 147.121946,29.2167575 147.418563,27.4370565 L148.60503,20.6148695 C148.753339,19.8733274 148.456722,19.2800938 148.011797,18.6868601 L143.117619,13.7926825 C141.782843,12.6062151 142.524385,10.3815889 144.304086,10.0849721 L151.126273,9.04681322 C151.867815,8.89850481 152.461049,8.45357957 152.757666,7.86034592 L155.872143,1.63139255 C156.168759,-1.99840144e-15 158.541694,-1.99840144e-15 159.283236,1.63139255 Z"></path>
                    <path d="M252.124303,1.63139255 L255.23878,7.86034592 C255.535396,8.45357957 256.12863,8.89850481 256.870172,9.04681322 L263.692359,10.0849721 C265.47206,10.3815889 266.213602,12.4579067 264.878827,13.7926825 L259.984649,18.6868601 C259.539724,19.1317853 259.243107,19.8733274 259.391415,20.6148695 L260.577883,27.4370565 C260.874499,29.2167575 259.094798,30.5515332 257.463406,29.6616827 L251.382761,26.3988976 C250.789527,26.1022808 250.047985,26.1022808 249.454752,26.3988976 L243.374107,29.6616827 C241.742714,30.5515332 239.963013,29.2167575 240.25963,27.4370565 L241.446097,20.6148695 C241.594406,19.8733274 241.297789,19.2800938 240.852864,18.6868601 L235.958686,13.7926825 C234.62391,12.6062151 235.365452,10.3815889 237.145153,10.0849721 L243.96734,9.04681322 C244.708882,8.89850481 245.302116,8.45357957 245.598733,7.86034592 L248.713209,1.63139255 C249.158135,-1.99840144e-15 251.382761,-1.99840144e-15 252.124303,1.63139255 Z"></path>
                    <path d="M297.358369,1.63139255 L300.472846,7.86034592 C300.769463,8.45357957 301.362696,8.89850481 302.104238,9.04681322 L308.926425,10.0849721 C310.706126,10.3815889 311.447668,12.4579067 310.112893,13.7926825 L305.218715,18.6868601 C304.77379,19.1317853 304.477173,19.8733274 304.625481,20.6148695 L305.811949,27.4370565 C306.108565,29.2167575 304.328864,30.5515332 302.697472,29.6616827 L296.616827,26.3988976 C296.023593,26.1022808 295.282051,26.1022808 294.688818,26.3988976 L288.608173,29.6616827 C286.97678,30.5515332 285.197079,29.2167575 285.493696,27.4370565 L286.680163,20.6148695 C286.828472,19.8733274 286.531855,19.2800938 286.08693,18.6868601 L281.192752,13.7926825 C279.857976,12.6062151 280.599518,10.3815889 282.379219,10.0849721 L289.201406,9.04681322 C289.942948,8.89850481 290.536182,8.45357957 290.832799,7.86034592 L293.947276,1.63139255 C294.243892,-1.99840144e-15 296.616827,-1.99840144e-15 297.358369,1.63139255 Z"></path>
                    <path d="M64.5141599,1.63139255 L67.6286366,7.86034592 C67.9252534,8.45357957 68.518487,8.89850481 69.2600291,9.04681322 L76.0822161,10.0849721 C77.8619171,10.3815889 78.6034592,12.4579067 77.2686834,13.7926825 L72.3745058,18.6868601 C71.9295805,19.1317853 71.6329637,19.8733274 71.7812721,20.6148695 L72.9677394,27.4370565 C73.2643563,29.2167575 71.4846553,30.5515332 69.8532628,29.6616827 L63.7726178,26.3988976 C63.1793841,26.1022808 62.4378421,26.1022808 61.8446084,26.3988976 L55.7639635,29.6616827 C54.1325709,30.5515332 52.35287,29.2167575 52.6494868,27.4370565 L53.8359541,20.6148695 C53.9842625,19.8733274 53.6876457,19.2800938 53.2427204,18.6868601 L48.3485428,13.7926825 C47.0137671,12.6062151 47.7553091,10.3815889 49.5350101,10.0849721 L56.3571971,9.04681322 C57.0987392,8.89850481 57.6919729,8.45357957 57.9885897,7.86034592 L60.8064495,1.63139255 C61.5479916,-2.60902411e-15 63.7726178,-2.60902411e-15 64.5141599,1.63139255 Z"></path>
                    <path d="M18.0936264,1.63139255 L21.2081031,7.86034592 C21.50472,8.45357957 22.0979536,8.89850481 22.8394957,9.04681322 L29.6616827,10.0849721 C31.4413837,10.3815889 32.1829257,12.4579067 30.84815,13.7926825 L25.9539724,18.6868601 C25.5090471,19.1317853 25.2124303,19.8733274 25.3607387,20.6148695 L26.547206,27.4370565 C26.8438228,29.2167575 25.0641219,30.5515332 23.4327293,29.6616827 L17.3520844,26.3988976 C16.7588507,26.1022808 16.0173087,26.1022808 15.424075,26.3988976 L9.34343005,29.6616827 C7.7120375,30.5515332 5.93233654,29.2167575 6.22895337,27.4370565 L7.41542067,20.6148695 C7.56372909,19.8733274 7.26711226,19.2800938 6.82218702,18.6868601 L1.92800938,13.7926825 C0.593233654,12.6062151 1.33477572,10.3815889 3.11447668,10.0849721 L9.9366637,9.04681322 C10.6782058,8.89850481 11.2714394,8.45357957 11.5680563,7.86034592 L14.6825329,1.63139255 C15.1274582,-1.99840144e-15 17.3520844,-1.99840144e-15 18.0936264,1.63139255 Z"></path>
                    <path d="M111.083002,1.63139255 L114.197478,7.86034592 C114.494095,8.45357957 115.087329,8.89850481 115.828871,9.04681322 L122.651058,10.0849721 C124.430759,10.3815889 125.172301,12.4579067 123.837525,13.7926825 L118.943348,18.6868601 C118.498422,19.1317853 118.201806,19.8733274 118.350114,20.6148695 L119.536581,27.4370565 C119.833198,29.2167575 118.053497,30.5515332 116.422105,29.6616827 L110.34146,26.3988976 C109.748226,26.1022808 109.006684,26.1022808 108.41345,26.3988976 L102.332805,29.6616827 C100.701413,30.5515332 98.9217118,29.2167575 99.2183286,27.4370565 L100.404796,20.6148695 C100.553104,19.8733274 100.256488,19.2800938 99.8115623,18.6868601 L94.9173846,13.7926825 C93.5826089,12.6062151 94.324151,10.3815889 96.1038519,10.0849721 L102.926039,9.04681322 C103.667581,8.89850481 104.260815,8.45357957 104.557432,7.86034592 L107.671908,1.63139255 C107.968525,-1.99840144e-15 110.193151,-1.99840144e-15 111.083002,1.63139255 Z"></path>
                </g>
                <g opacity="0.2" transform="translate(2.966168, 1.483084)" id="Shape">
                    <path d="M205.110536,2.37293462 L208.225013,8.60188798 C208.521629,9.19512164 209.114863,9.64004688 209.856405,9.78835529 L216.678592,10.8265142 C218.458293,11.123131 219.199835,13.1994488 217.865059,14.5342245 L212.970882,19.4284022 C212.525957,19.8733274 212.22934,20.6148695 212.377648,21.3564115 L213.564115,28.1785986 C213.860732,29.9582995 212.081031,31.2930752 210.449639,30.4032248 L204.368994,27.1404397 C203.77576,26.8438228 203.034218,26.8438228 202.440984,27.1404397 L196.360339,30.4032248 C194.728947,31.2930752 192.949246,29.9582995 193.245863,28.1785986 L194.43233,21.3564115 C194.580639,20.6148695 194.284022,20.0216358 193.839096,19.4284022 L188.944919,14.5342245 C187.610143,13.3477572 188.351685,11.123131 190.131386,10.8265142 L196.953573,9.78835529 C197.695115,9.64004688 198.288349,9.19512164 198.584966,8.60188798 L201.699442,2.37293462 C202.144368,0.741542067 204.368994,0.741542067 205.110536,2.37293462 Z"></path>
                    <path d="M158.690002,2.37293462 L161.804479,8.60188798 C162.101096,9.19512164 162.69433,9.64004688 163.435872,9.78835529 L170.258059,10.8265142 C172.03776,11.123131 172.779302,13.1994488 171.444526,14.5342245 L166.550348,19.4284022 C166.105423,19.8733274 165.808806,20.6148695 165.957115,21.3564115 L167.143582,28.1785986 C167.440199,29.9582995 165.660498,31.2930752 164.029105,30.4032248 L157.94846,27.1404397 C157.355227,26.8438228 156.613685,26.8438228 156.020451,27.1404397 L149.939806,30.4032248 C148.308413,31.2930752 146.528713,29.9582995 146.825329,28.1785986 L148.011797,21.3564115 C148.160105,20.6148695 147.863488,20.0216358 147.418563,19.4284022 L142.524385,14.5342245 C141.18961,13.3477572 141.931152,11.123131 143.710853,10.8265142 L150.53304,9.78835529 C151.274582,9.64004688 151.867815,9.19512164 152.164432,8.60188798 L155.278909,2.37293462 C155.723834,0.741542067 157.94846,0.741542067 158.690002,2.37293462 Z"></path>
                    <path d="M251.531069,2.37293462 L254.645546,8.60188798 C254.942163,9.19512164 255.535396,9.64004688 256.276939,9.78835529 L263.099126,10.8265142 C264.878827,11.123131 265.620369,13.1994488 264.285593,14.5342245 L259.391415,19.4284022 C258.94649,19.8733274 258.649873,20.6148695 258.798182,21.3564115 L259.984649,28.1785986 C260.281266,29.9582995 258.501565,31.2930752 256.870172,30.4032248 L250.789527,27.1404397 C250.196294,26.8438228 249.454752,26.8438228 248.861518,27.1404397 L242.780873,30.4032248 C241.14948,31.2930752 239.369779,29.9582995 239.666396,28.1785986 L240.852864,21.3564115 C241.001172,20.6148695 240.704555,20.0216358 240.25963,19.4284022 L235.365452,14.5342245 C234.030676,13.3477572 234.772219,11.123131 236.55192,10.8265142 L243.374107,9.78835529 C244.115649,9.64004688 244.708882,9.19512164 245.005499,8.60188798 L248.119976,2.37293462 C248.564901,0.741542067 250.789527,0.741542067 251.531069,2.37293462 Z"></path>
                    <path d="M296.765135,2.37293462 L299.879612,8.60188798 C300.176229,9.19512164 300.769463,9.64004688 301.511005,9.78835529 L308.333192,10.8265142 C310.112893,11.123131 310.854435,13.1994488 309.519659,14.5342245 L304.625481,19.4284022 C304.180556,19.8733274 303.883939,20.6148695 304.032248,21.3564115 L305.218715,28.1785986 C305.515332,29.9582995 303.735631,31.2930752 302.104238,30.4032248 L296.023593,27.1404397 C295.43036,26.8438228 294.688818,26.8438228 294.095584,27.1404397 L288.014939,30.4032248 C286.383546,31.2930752 284.603846,29.9582995 284.900462,28.1785986 L286.08693,21.3564115 C286.235238,20.6148695 285.938621,20.0216358 285.493696,19.4284022 L280.599518,14.5342245 C279.264743,13.3477572 280.006285,11.123131 281.785986,10.8265142 L288.608173,9.78835529 C289.349715,9.64004688 289.942948,9.19512164 290.239565,8.60188798 L293.354042,2.37293462 C293.798967,0.741542067 296.023593,0.741542067 296.765135,2.37293462 Z"></path>
                    <path d="M64.0692346,2.37293462 L67.1837113,8.60188798 C67.4803281,9.19512164 68.0735618,9.64004688 68.8151039,9.78835529 L75.6372909,10.8265142 C77.4169918,11.123131 78.1585339,13.1994488 76.8237582,14.5342245 L71.9295805,19.4284022 C71.4846553,19.8733274 71.1880385,20.6148695 71.3363469,21.3564115 L72.5228142,28.1785986 C72.819431,29.9582995 71.0397301,31.2930752 69.4083375,30.4032248 L63.3276926,27.1404397 C62.7344589,26.8438228 61.9929168,26.8438228 61.3996832,27.1404397 L55.3190382,30.4032248 C53.3910289,30.84815 51.6113279,29.5133743 51.9079447,27.8819817 L53.094412,21.0597947 C53.2427204,20.3182526 52.9461036,19.725019 52.5011784,19.1317853 L47.4586923,14.2376077 C46.1239166,13.0511404 46.8654587,10.8265142 48.6451596,10.5298974 L55.4673466,9.49173846 C56.2088887,9.34343005 56.8021224,8.89850481 57.0987392,8.30527116 L60.2132159,2.07631779 C60.9547579,0.741542067 63.1793841,0.741542067 64.0692346,2.37293462 Z"></path>
                    <path d="M17.6487012,2.37293462 L20.7631779,8.60188798 C21.0597947,9.19512164 21.6530284,9.64004688 22.3945704,9.78835529 L29.2167575,10.8265142 C30.9964584,11.123131 31.7380005,13.1994488 30.4032248,14.5342245 L25.5090471,19.4284022 C25.0641219,19.8733274 24.7675051,20.6148695 24.9158135,21.3564115 L26.1022808,28.1785986 C26.3988976,29.9582995 24.6191966,31.2930752 22.9878041,30.4032248 L16.9071591,27.1404397 C16.3139255,26.8438228 15.5723834,26.8438228 14.9791498,27.1404397 L8.89850481,30.4032248 C7.26711226,31.2930752 5.4874113,29.9582995 5.78402813,28.1785986 L6.97049543,21.3564115 C7.11880385,20.6148695 6.82218702,20.0216358 6.37726178,19.4284022 L1.48308413,14.5342245 C0.148308413,13.3477572 0.889850481,11.123131 2.66955144,10.8265142 L9.49173846,9.78835529 C10.2332805,9.64004688 10.8265142,9.19512164 11.123131,8.60188798 L14.2376077,2.37293462 C14.5342245,0.741542067 16.7588507,0.741542067 17.6487012,2.37293462 Z"></path>
                    <path d="M110.489768,2.37293462 L113.604245,8.60188798 C113.900862,9.19512164 114.494095,9.64004688 115.235637,9.78835529 L122.057824,10.8265142 C123.837525,11.123131 124.579067,13.1994488 123.244292,14.5342245 L118.350114,19.4284022 C117.905189,19.8733274 117.608572,20.6148695 117.75688,21.3564115 L118.943348,28.1785986 C119.239964,29.9582995 117.460263,31.2930752 115.828871,30.4032248 L109.748226,27.1404397 C109.154992,26.8438228 108.41345,26.8438228 107.820217,27.1404397 L101.739572,30.4032248 C100.108179,31.2930752 98.3284781,29.9582995 98.625095,28.1785986 L99.8115623,21.3564115 C99.9598707,20.6148695 99.6632539,20.0216358 99.2183286,19.4284022 L94.324151,14.5342245 C92.9893753,13.3477572 93.7309173,11.123131 95.5106183,10.8265142 L102.332805,9.78835529 C103.074347,9.64004688 103.667581,9.19512164 103.964198,8.60188798 L107.078675,2.37293462 C107.375291,0.741542067 109.599918,0.741542067 110.489768,2.37293462 Z"></path>
                </g>
            </g>
        </g>
    </g>
</svg>