<?xml version="1.0" encoding="utf-8"?>
<!-- Generator: Adobe Illustrator 20.1.0, SVG Export Plug-In . SVG Version: 6.00 Build 0)  -->
<svg version="1.1" id="Layer_1" xmlns="http://www.w3.org/2000/svg" xmlns:xlink="http://www.w3.org/1999/xlink" x="0px" y="0px"
	 viewBox="0 0 242.2 90" style="enable-background:new 0 0 242.2 90;" xml:space="preserve">
<style type="text/css">
	.st0{fill:#FFFFFF;}
</style>
<g>
	<g>
		<g>
			<path class="st0" d="M8.8,81.7V56.2l-3.5-0.7v-3.8h8.2c1.1,0,2.4,0,3.8,0c1.8,0,3.5,0,5,0c3.7,0,6.7,0.3,8.8,0.8
				c2.1,0.6,3.7,1.6,4.7,2.8c1,1.3,1.4,3,1.4,5.2c0,1.3-0.3,2.5-0.7,3.7c-0.4,1.1-1.3,2.4-2.3,3.4c-1,1-2.4,1.7-4,2.1
				c1.3,0.4,2.3,1,3.3,1.8c0.8,0.8,1.7,1.8,2.3,2.8c0.6,1,1.3,2.3,1.8,3.7c0.6,1.1,1,2,1.4,2.5s0.7,0.8,1.1,1l1.3,0.4v3.4H30.5
				c-0.6,0-1-0.4-1.4-1.4c-0.4-1-1.1-2.4-1.8-4.4c-0.6-1.7-1.1-3-1.6-4c-0.4-1-1-2-1.4-2.8c-0.6-0.8-1.1-1.3-1.8-1.4h-3.5v10.3
				l4.2,0.4v3.4h-18v-3.4L8.8,81.7z M25.4,66.4c0.8-1.1,1.3-3,1.3-5.5c0-2.1-0.4-3.7-1.3-4.7c-0.8-1-2.1-1.4-4-1.4
				c-1.3,0-2.1,0.1-2.5,0.3V68c0.1,0.1,0.6,0.1,1.3,0.1c0.7,0,1.1,0,1.6,0C23.2,68.1,24.5,67.6,25.4,66.4z"/>
			<path class="st0" d="M43.6,59.6c1.4-2.5,3.4-4.5,5.9-5.9c2.5-1.4,5.7-2.1,9.2-2.1c5.9,0,10.3,1.4,13,4.2
				c2.7,2.8,4.1,6.8,4.1,12.2c0,3.4-0.7,6.5-2.1,9.2s-3.4,4.7-6.1,6.2c-2.5,1.6-5.7,2.3-9.2,2.3c-5.9,0-10.2-1.6-12.9-4.5
				s-4.1-7.2-4.1-12.5C41.5,65.2,42.2,62.2,43.6,59.6z M54.3,79c1,2.1,2.5,3.3,4.5,3.3s3.5-1.3,4.5-3.7s1.6-5.9,1.6-10.6
				c0-3.3-0.3-5.8-0.7-7.8c-0.4-1.8-1.1-3.3-2-4.1c-0.8-0.8-2-1.1-3.3-1.1c-2,0-3.5,1.1-4.5,3.4c-1,2.3-1.6,5.7-1.6,10.2
				C52.7,73.5,53.3,76.9,54.3,79z"/>
			<path class="st0" d="M79.9,59.6c1.4-2.5,3.4-4.5,5.9-5.9c2.5-1.4,5.7-2.1,9.2-2.1c5.9,0,10.3,1.4,13,4.2
				c2.7,2.8,4.1,6.8,4.1,12.2c0,3.4-0.7,6.5-2.1,9.2c-1.4,2.7-3.4,4.7-5.9,6.2c-2.7,1.6-5.7,2.3-9.2,2.3c-5.9,0-10.2-1.6-12.9-4.5
				c-2.7-3-4.1-7.2-4.1-12.5C77.9,65.2,78.5,62.2,79.9,59.6z M90.5,79c1,2.1,2.5,3.3,4.5,3.3c2,0,3.5-1.3,4.5-3.7
				c1-2.4,1.6-5.9,1.6-10.6c0-3.3-0.3-5.8-0.7-7.8c-0.4-1.8-1.1-3.3-2-4.1s-2-1.1-3.3-1.1c-2,0-3.5,1.1-4.5,3.4
				c-1,2.3-1.6,5.7-1.6,10.2C89,73.5,89.5,76.9,90.5,79z"/>
			<path class="st0" d="M118,81.7V56l-3.8-0.7v-3.5h28.7l0.6,8.9h-5.1l-2.3-4.8l-7.9-0.8v12.3h5.2l1.1-4.2h4v12.9h-4l-1.1-4.4h-5.2
				v10.2l7.5,0.6v3.4h-21.4v-3.4L118,81.7z"/>
			<path class="st0" d="M149.3,81.7V56l-3.8-0.7v-3.5h18v3.5l-4,0.7v25.8l4,0.6v3.4h-17.8v-3.4L149.3,81.7z"/>
			<path class="st0" d="M169.7,81.7V56l-4-0.7v-3.5h14.2l12.5,18l2.8,5.8V56l-4.2-0.7v-3.5h13.3v3.5l-3.7,0.7v29.6h-9.1L178,65.7
				l-3-5.9v22l5.5,0.6v3.4h-14.9v-3.4L169.7,81.7z"/>
			<path class="st0" d="M207.9,59.5c1.6-2.5,3.8-4.5,6.7-5.8c2.8-1.3,6.5-2,10.6-2c2.3,0,4.7,0.1,7.2,0.4c2.5,0.3,4.4,0.6,5.9,1
				l-0.7,8.8h-7.2l-1.6-5.9c-0.1-0.3-0.6-0.4-1.3-0.7c-0.6-0.1-1.4-0.3-2.5-0.3c-2.5,0-4.5,1.1-5.8,3.4c-1.3,2.3-2,5.5-2,9.9
				s0.6,7.8,1.7,10.2c1.1,2.4,2.8,3.5,5.4,3.5c1,0,1.8-0.1,2.7-0.4c0.7-0.3,1.4-0.6,1.7-1v-9.2l-3.8-0.4v-3.7h16V71l-2.3,0.4v11.9
				c-0.4,0-1,0-1.6,0.1c-0.6,0.1-1.4,0.3-2.5,0.6c-2.1,0.4-4,0.8-5.8,1.1c-1.7,0.3-3.5,0.4-5.4,0.4c-3.8,0-7.1-0.7-9.8-2.1
				c-2.7-1.4-4.7-3.4-6.1-5.9c-1.4-2.5-2.1-5.4-2.1-8.6C205.5,65.2,206.4,62,207.9,59.5z"/>
		</g>
	</g>
	<g>
		<path class="st0" d="M72.1,10.4c1-1.8,2.4-3.3,4.2-4.2c1.8-1,3.8-1.4,6.1-1.4c3.8,0,6.7,1.1,8.4,3.3s2.5,5,2.5,8.6
			c0,2.5-0.6,4.7-1.6,6.5c-1,1.8-2.4,3.3-4.2,4.1c-1.8,1-3.8,1.4-6.1,1.4c-2.4,0-4.4-0.6-5.9-1.6c-1.7-1-2.8-2.4-3.7-4.2
			s-1.3-3.7-1.3-5.9C70.5,14.5,71,12.2,72.1,10.4z M84.6,11.1c-0.4-1.6-1.1-2.3-2.4-2.3s-2.1,0.7-2.5,2c-0.4,1.3-0.7,3.3-0.7,5.8
			c0,2.3,0.3,4.1,0.7,5.8c0.4,1.6,1.3,2.4,2.4,2.4c0.8,0,1.6-0.3,2-1c0.4-0.6,0.7-1.4,0.8-2.5c0.1-1.1,0.3-2.4,0.3-4.1
			C85.1,14.6,84.8,12.6,84.6,11.1z M110.2,4.8L92.6,45.5h-6.4l17.6-40.6H110.2z M123.8,24.1c1.7,2.3,2.5,5.2,2.5,8.9
			c0,2.5-0.6,4.8-1.6,6.7c-1,1.8-2.4,3.3-4.2,4.2c-1.8,1-3.8,1.4-6.1,1.4c-2.4,0-4.4-0.6-5.9-1.6c-1.7-1.1-2.8-2.5-3.7-4.4
			c-0.8-1.8-1.3-3.8-1.3-6.1c0-2.5,0.6-4.8,1.6-6.8c1-1.8,2.4-3.4,4.2-4.4s3.8-1.6,6.1-1.6C119.3,20.8,122,22,123.8,24.1z
			 M117.4,39.4c0.4-1.3,0.6-3.3,0.6-5.8c0-2.7-0.1-4.8-0.6-6.4c-0.4-1.6-1.1-2.4-2.4-2.4c-1.3,0-2.1,0.7-2.5,2.1s-0.7,3.4-0.7,6.1
			c0,2.3,0.3,4.2,0.7,5.9c0.4,1.7,1.3,2.5,2.4,2.5C116.1,41.2,117,40.7,117.4,39.4z"/>
		<path class="st0" d="M132.2,14.3c1.6-3.1,3.7-5.4,6.5-7.1c2.8-1.7,6.2-2.5,10.2-2.5c6.5,0,11.3,1.7,14.3,5.1s4.4,8.2,4.4,14.6
			c0,4.1-0.7,7.8-2.3,11s-3.7,5.7-6.7,7.5c-2.8,1.8-6.2,2.7-10.2,2.7c-6.5,0-11.2-1.8-14.2-5.4s-4.5-8.6-4.5-15
			C129.9,21,130.6,17.4,132.2,14.3z M143.8,37.7c1.1,2.5,2.8,3.8,5,3.8c2.1,0,3.8-1.4,5-4.4c1.1-3,1.7-7.2,1.7-12.7
			c0-4-0.3-7.1-0.8-9.3s-1.3-4-2.3-4.8c-1-1-2.1-1.4-3.5-1.4c-2.1,0-3.8,1.3-5,4s-1.7,6.8-1.7,12.2C142.1,30.9,142.6,35,143.8,37.7z
			"/>
		<path class="st0" d="M174.4,40.8V9.9l-4.2-0.8V4.8h31.4l0.7,10.6h-5.7l-2.3-5.8l-8.8-0.8v14.7h5.8l1.1-5.1h4.4v15.4h-4.2l-1.3-5.4
			h-5.8v12.3l8.2,0.7v4.1h-23.4v-4.1L174.4,40.8z"/>
		<path class="st0" d="M208.6,40.8V9.9l-4.2-0.8V4.8h31.4l0.7,10.6h-5.7l-2.3-5.8l-8.8-0.8v14.7h5.8l1.1-5.1h4.4v15.4h-4.2l-1.3-5.4
			h-5.8v12.3l8.2,0.7v4.1h-23.4v-4.1L208.6,40.8z"/>
	</g>
	<g>
		<path class="st0" d="M50,41.9c2-1,3.5-2.3,4.7-4c1.1-1.7,1.7-3.4,1.7-5.2c0-2.3-0.6-3.8-1.7-4.8c-1.1-1-2.8-1.4-5.2-1.4
			c-1.1,0-2.4,0.1-3.8,0.4c-1.4,0.3-2.4,0.6-3.4,1L40,26.4l2.5-20.8h18.8l0.6-1h4.2L64.7,13H49.2l-2,9.5c0.1-0.1,0.7-0.3,1.6-0.7
			s2-0.7,3.3-1.1c1.3-0.4,2.5-0.4,4-0.4c4,0,6.9,1,8.9,2.8c2,1.8,3,4.4,3,7.6c0,3.5-1,6.7-3.1,9.3c-2.1,2.7-5,4.7-8.5,6.1
			c-3.5,1.4-7.6,2.1-12,2.1c-1.4,0-2.7-0.1-3.8-0.4v-4.7c0.8,0.1,2,0.1,3.1,0.1C45.9,43.4,48,42.9,50,41.9z"/>
	</g>
	<g>
		<path class="st0" d="M19.1,42.6V16.3c-0.7,0.3-1.7,0.4-3.3,0.8c-1.6,0.3-2.5,0.4-3.3,0.4l-0.7-6.4c2.1-0.6,4.4-1.6,6.8-3
			c2.4-1.6,4.2-3,5.7-4.5l0,0l5.8,0.8v38l5.4,0.8v5.2H13.2v-5.2L19.1,42.6z"/>
	</g>
</g>
</svg>
