<svg id="Layer_1" xmlns="http://www.w3.org/2000/svg" viewBox="0 0 180 90"><style>.st0{opacity:0.2;} .st1{fill:#FFFFFF;} .st2{opacity:0.25;}</style><g class="st0"><path class="st1" d="M26.4 62.5H24V69h-6.7V48.7h11.9c5.2 0 8 3.2 8 7 0 3.5-2.2 5.4-4 6.2l4 7.2h-7.7l-3.1-6.6zm1.6-8.7h-4.1v3.6H28c1.1 0 2.2-.7 2.2-1.8s-1-1.8-2.2-1.8zM50.5 48.4c6.9 0 12.2 4.3 12.2 10.5s-5.3 10.5-12.2 10.5c-6.9 0-12.2-4.3-12.2-10.5s5.3-10.5 12.2-10.5zm0 5.4c-3.2 0-5.3 2.3-5.3 5.1s2.1 5.1 5.3 5.1c3.2 0 5.3-2.3 5.3-5.1s-2.1-5.1-5.3-5.1zM75.7 48.4c6.9 0 12.2 4.3 12.2 10.5s-5.3 10.5-12.2 10.5c-6.9 0-12.2-4.3-12.2-10.5s5.3-10.5 12.2-10.5zm0 5.4c-3.2 0-5.3 2.3-5.3 5.1s2.1 5.1 5.3 5.1c3.2 0 5.3-2.3 5.3-5.1s-2.1-5.1-5.3-5.1zM89.9 48.7h16.9v5.1H96.7v2.4h9.9v5.1h-9.9V69H90V48.7zM109.4 48.7h6.7V69h-6.7V48.7zM126.1 58.1V69h-6.7V48.7h6.9l7.7 10.2V48.7h6.7V69h-6.5l-8.1-10.9zM155.1 48.4c5.2 0 8.2 2.4 9.8 5l-5.7 2.6c-.7-1.2-2.2-2.2-4.1-2.2-3.2 0-5.4 2.3-5.4 5.1s2.2 5.1 5.4 5.1c1.4 0 2.8-.3 3.6-.9v-.9h-4.3v-5.1h10.9v8.2c-2.5 2.5-5.8 4.1-10.2 4.1-6.7 0-12.3-4-12.3-10.5.1-6.5 5.6-10.5 12.3-10.5z"/></g><path class="st1" d="M24.8 61h-2.4v6.5h-6.7V47.2h11.9c5.2 0 8 3.2 8 7 0 3.5-2.2 5.4-4 6.2l4 7.2h-7.7L24.8 61zm1.7-8.7h-4.1v3.6h4.1c1.1 0 2.2-.7 2.2-1.8 0-1.2-1.1-1.8-2.2-1.8zM48.9 46.8c6.9 0 12.2 4.3 12.2 10.5s-5.3 10.5-12.2 10.5c-6.9 0-12.2-4.3-12.2-10.5S42 46.8 48.9 46.8zm0 5.4c-3.2 0-5.3 2.3-5.3 5.1s2.1 5.1 5.3 5.1c3.2 0 5.3-2.3 5.3-5.1s-2.1-5.1-5.3-5.1zM74.1 46.8c6.9 0 12.2 4.3 12.2 10.5S81 67.8 74.1 67.8c-6.9 0-12.2-4.3-12.2-10.5s5.4-10.5 12.2-10.5zm0 5.4c-3.2 0-5.3 2.3-5.3 5.1s2.1 5.1 5.3 5.1c3.2 0 5.3-2.3 5.3-5.1s-2-5.1-5.3-5.1zM88.4 47.2h16.9v5.1H95.1v2.4h9.9v5.1h-9.9v7.7h-6.7V47.2zM107.8 47.2h6.7v20.3h-6.7V47.2zM124.6 56.6v10.9h-6.7V47.2h6.9l7.7 10.2V47.2h6.7v20.3h-6.5l-8.1-10.9zM153.6 46.8c5.2 0 8.2 2.4 9.8 5l-5.7 2.6c-.7-1.2-2.2-2.2-4.1-2.2-3.2 0-5.4 2.3-5.4 5.1s2.2 5.1 5.4 5.1c1.4 0 2.8-.3 3.6-.9v-.9h-4.3v-5.1h10.9v8.2c-2.5 2.5-5.8 4.1-10.2 4.1-6.7 0-12.3-4-12.3-10.5s5.5-10.5 12.3-10.5z"/><g class="st2"><path class="st1" d="M25.6 32.6c10.5-7.4 11.5-8.3 11.5-10 0-1.1-1.2-1.8-2.8-1.8-2.3 0-4.2.9-5.9 2.4l-3.8-4.6c2.7-2.8 6.5-3.9 9.7-3.9 6 0 9.8 3.3 9.8 7.9 0 3.1-1.8 5.7-8 9.3h8.2V38H25.6v-5.4zM50 30.6c1.6 1.3 3.9 2 5.9 2 2.3 0 3.2-1.1 3.2-2.2 0-1.2-.9-2.1-3-2.1-1.8 0-3.1.5-4.3 1.6L47 28.8V15h17.6v5.8h-11v3.7c1.4-1.1 3.2-1.8 5.1-1.8 3.9 0 7.4 2.9 7.4 7.4 0 5.1-3.8 8.3-10.2 8.3-4.1 0-7.4-1.2-9.6-3.2l3.7-4.6zM73.7 14.7c3.8 0 6.2 2.6 6.2 5.8 0 3.2-2.4 5.8-6.2 5.8-3.8 0-6.1-2.5-6.1-5.8 0-3.2 2.3-5.8 6.1-5.8zm12.4.3h3.4L74.7 38h-3.3l14.7-23zm-12.4 3.3c-1.1 0-1.9.6-1.9 2.2 0 1.5.9 2.1 1.9 2.1 1.1 0 2-.6 2-2.1s-.9-2.2-2-2.2zM87 26.9c3.8 0 6.2 2.6 6.2 5.8 0 3.2-2.4 5.8-6.2 5.8-3.8 0-6.1-2.5-6.1-5.8s2.4-5.8 6.1-5.8zm0 3.6c-1.1 0-2 .6-2 2.2 0 1.5.9 2.1 2 2.1s2-.6 2-2.1c0-1.6-.9-2.2-2-2.2zM107 14.7c6.8 0 11.4 5.1 11.4 11.9 0 6.8-4.6 11.9-11.4 11.9-6.8 0-11.4-5.1-11.4-11.9 0-6.8 4.6-11.9 11.4-11.9zm0 2.5c-5.2 0-8.4 4-8.4 9.3 0 5.3 3.3 9.3 8.4 9.3 5.1 0 8.4-4 8.4-9.3.1-5.3-3.2-9.3-8.4-9.3zM122.9 15h15v2.5h-12.2V25h12v2.5h-12V38h-2.9V15zM141.9 15h15v2.5h-12.2V25h12v2.5h-12V38h-2.9V15z"/></g><path class="st1" d="M24.4 32.4c10.5-7.4 11.5-8.3 11.5-10 0-1.1-1.2-1.8-2.8-1.8-2.3 0-4.2.9-5.9 2.4l-3.8-4.6c2.7-2.8 6.5-3.9 9.7-3.9 6 0 9.8 3.3 9.8 7.9 0 3.1-1.8 5.7-8 9.3h8.2v6.1H24.4v-5.4zM48.8 30.4c1.6 1.3 3.9 2 5.9 2 2.3 0 3.2-1.1 3.2-2.2 0-1.2-.9-2.1-3-2.1-1.8 0-3.1.5-4.3 1.6l-4.8-1.1V14.9h17.6v5.8h-11v3.7c1.4-1.1 3.2-1.8 5.1-1.8 3.9 0 7.4 2.9 7.4 7.4 0 5.1-3.8 8.3-10.2 8.3-4.1 0-7.4-1.2-9.6-3.2l3.7-4.7zM72.5 14.5c3.8 0 6.2 2.6 6.2 5.8 0 3.2-2.4 5.8-6.2 5.8-3.8 0-6.1-2.5-6.1-5.8-.1-3.2 2.3-5.8 6.1-5.8zm12.3.4h3.4l-14.7 23h-3.3l14.6-23zm-12.3 3.3c-1.1 0-1.9.6-1.9 2.2 0 1.5.9 2.1 1.9 2.1 1.1 0 2-.6 2-2.1 0-1.6-.9-2.2-2-2.2zm13.3 8.5c3.8 0 6.2 2.6 6.2 5.8 0 3.2-2.4 5.8-6.2 5.8s-6.1-2.5-6.1-5.8c0-3.2 2.3-5.8 6.1-5.8zm0 3.6c-1.1 0-2 .6-2 2.2 0 1.5.9 2.1 2 2.1s2-.6 2-2.1c0-1.6-.9-2.2-2-2.2zM105.8 14.5c6.8 0 11.4 5.1 11.4 11.9 0 6.8-4.6 11.9-11.4 11.9-6.8 0-11.4-5.1-11.4-11.9 0-6.8 4.6-11.9 11.4-11.9zm0 2.5c-5.2 0-8.4 4-8.4 9.3 0 5.3 3.3 9.3 8.4 9.3 5.1 0 8.4-4 8.4-9.3 0-5.3-3.3-9.3-8.4-9.3zM121.7 14.9h15v2.5h-12.2v7.4h12v2.5h-12v10.5h-2.9V14.9zM140.6 14.9h15v2.5h-12.2v7.4h12v2.5h-12v10.5h-2.9V14.9z"/></svg>