<svg id="airplane_1_" xmlns="http://www.w3.org/2000/svg" viewBox="0 0 300 300"><style>.st0{display:none;} .st1{display:inline;fill:none;stroke:#000000;stroke-miterlimit:10;} .st2{fill:#FB8C00;} .st3{fill:#FFB74D;} .st4{fill:#FF9800;}</style><g id="grid" class="st0"><path class="st1" d="M25.5 50h250M25.5 250h250M50.5 25v250M250.5 25v250"/></g><path class="st2" d="M128.6 145.1c0-6.8-6.7-6.8-10.3-6.8v-8h42c18.8 0 21.6 10 21.8 12.9.2 3.1-1.3 8.4-5.2 11.2 4 2.2 7.4 6.1 7.4 11.9 0 8.8-6.5 15.3-18.4 15.3h-47.6v-8.2c7.4 0 10.3-2.7 10.3-7.6l14.6 5.7h16.4c3.6 0 6.5-2.5 6.5-5.7 0-3.1-2.9-5.7-6.5-5.7h-16.4V150H159c3 0 5.5-2.1 5.5-4.8 0-2.6-2.5-4.8-5.5-4.8l-15.8.1v31.1c-4.9-1.9-9.8-3.8-14.6-5.7v-20.8z"/><path class="st3" d="M165.1 196l-7.6 45.4h-14.4l-7.6-45.4H50.7v-7.5h199.2v7.5zM178 116.5c-1.7-1.2-1.7-4.5.5-5.9s7.4-8.2 6.7-15.7c-.7-7.4-6.5-16.6-19.1-22.7-3.6-2.2-11.9-7.2-13.2-11.3-1.6 4.7 1.6 9.2 7.2 13.3 5.6 4.1 15.5 12.1 16.6 17.6s-.2 13.3-4.9 18.6c1.3-5.5 3.1-17.6-6.1-25.4S146.2 69.5 146 58.6c-3.1 4.7-2.5 10.4 2 16.2 4.5 5.9 18.8 18.2 18.8 24.5s-.9 12.7-6.3 17.2h-29.4c-6.3-4.3-11.4-10.6-10.8-17.4.7-6.8 5-10.8 8.5-13.3 2.5-1.8 13-10.2 10.3-16.8-2.7 5.7-7.2 10.4-13.5 14.5-5.9 3.9-10.8 9.6-10.8 15.8-.2 5.1 1.8 10.8 5.4 13.7 2 1.6 2.6 2.7 2.1 3.5-1.8 0-3.2 1.3-3.2 2.8v2.2c0 1.6 1.4 2.8 3.2 2.8H178c1.8 0 3.2-1.3 3.2-2.8v-2.2c.1-1.5-1.4-2.8-3.2-2.8 0 0 1.8 0 0 0z"/><path class="st4" d="M140 75.1c-.9 3.3-6.1 8.8-9.4 12.3-3.4 3.5-7.4 8.6-7 14.3.4 5.7 4.7 8.6 9.6 11 1.3.4 3.1-.2.9-2.3-2.2-2.2-5.6-5.1-5.4-10.6.2-5.5 2-8.8 5.4-11.9 3.4-3.2 5.7-8.1 5.9-12.8 0 0-.2 4.7 0 0z"/><path class="st4" d="M139.5 112c-4.3-2.9-7.4-7.8-6.1-12.9 1.3-5.1 6.7-10.4 7.2-13.7.9 2.9-1.3 7.8-2.7 10.6-1.3 2.7-1.6 9.2 3.1 14.7 1.5 1.5-.1 2.5-1.5 1.3 0 0 1.4 1.2 0 0z"/><path class="st2" d="M195.6 145.1c0-6.8-6.7-6.8-10.3-6.8v-8h42c18.8 0 21.6 10 21.8 12.9.2 3.1-1.3 8.4-5.2 11.2 4 2.2 7.4 6.1 7.4 11.9 0 8.8-6.5 15.3-18.4 15.3h-47.6v-8.2c7.4 0 10.3-2.7 10.3-7.6l14.6 5.7h16.4c3.6 0 6.5-2.5 6.5-5.7 0-3.1-2.9-5.7-6.5-5.7h-16.4V150H226c3 0 5.5-2.1 5.5-4.8 0-2.6-2.5-4.8-5.5-4.8l-15.8.1v31.1c-4.9-1.9-9.8-3.8-14.6-5.7v-20.8zM62.6 145.1c0-6.8-6.7-6.8-10.3-6.8v-8h42c18.8 0 21.6 10 21.8 12.9.2 3.1-1.3 8.4-5.2 11.2 4 2.2 7.4 6.1 7.4 11.9 0 8.8-6.5 15.3-18.4 15.3H52.3v-8.2c7.4 0 10.3-2.7 10.3-7.6l14.6 5.7h16.4c3.6 0 6.5-2.5 6.5-5.7 0-3.1-2.9-5.7-6.5-5.7H77.2V150H93c3 0 5.5-2.1 5.5-4.8 0-2.6-2.5-4.8-5.5-4.8l-15.8.1v31.1c-4.9-1.9-9.8-3.8-14.6-5.7v-20.8z"/></svg>