<?xml version="1.0" encoding="utf-8"?>
<!-- Generator: Adobe Illustrator 20.0.0, SVG Export Plug-In . SVG Version: 6.00 Build 0)  -->
<svg version="1.1" id="Layer_1" xmlns="http://www.w3.org/2000/svg" xmlns:xlink="http://www.w3.org/1999/xlink" x="0px" y="0px"
	 viewBox="0 0 90 90" style="enable-background:new 0 0 90 90;" xml:space="preserve">
<style type="text/css">
	.st0{fill:#424242;}
</style>
<g>
	<path class="st0" d="M7.4,29.6v51.2c0,3.8,3.1,6.9,6.8,6.9h61.6c3.8,0,6.8-3.1,6.8-6.9V29.6H7.4z M26.2,82.6H12.5V68.9h13.7V82.6z
		 M26.2,65.5H12.5V51.8h13.7V65.5z M26.2,48.4H12.5V34.7h13.7V48.4z M43.3,82.6H29.6V68.9h13.7V82.6z M43.3,65.5H29.6V51.8h13.7
		V65.5z M43.3,48.4H29.6V34.7h13.7V48.4z M60.4,82.6H46.7V68.9h13.7V82.6z M60.4,65.5H46.7V51.8h13.7V65.5z M60.4,48.4H46.7V34.7
		h13.7V48.4z M77.5,82.6H63.8V68.9h13.7V82.6z M77.5,65.5H63.8V51.8h13.7V65.5z M77.5,48.4H63.8V34.7h13.7V48.4z"/>
	<path class="st0" d="M75.8,12.5H64.7V4.8c0-1.4-1.1-2.6-2.6-2.6c-1.4,0-2.6,1.1-2.6,2.6v7.7H30.5V4.8c0-1.4-1.1-2.6-2.6-2.6
		c-1.4,0-2.6,1.1-2.6,2.6v7.7H14.2c-3.8,0-6.8,3.1-6.8,6.9v5.9l0,0v0.9h75.2v-0.9l0,0v-5.9C82.6,15.6,79.6,12.5,75.8,12.5z
		 M27.9,24.5c-2.8,0-5.1-2.3-5.1-5.1c0-1.9,1-3.5,2.6-4.4v4.4c0,1.4,1.1,2.6,2.6,2.6c1.4,0,2.6-1.1,2.6-2.6v-4.4
		c1.5,0.9,2.6,2.5,2.6,4.4C33,22.2,30.7,24.5,27.9,24.5z M62.1,24.5c-2.8,0-5.1-2.3-5.1-5.1c0-1.9,1-3.5,2.6-4.4v4.4
		c0,1.4,1.1,2.6,2.6,2.6c1.4,0,2.6-1.1,2.6-2.6v-4.4c1.5,0.9,2.6,2.5,2.6,4.4C67.2,22.2,64.9,24.5,62.1,24.5z"/>
</g>
<g>
</g>
<g>
</g>
<g>
</g>
<g>
</g>
<g>
</g>
<g>
</g>
<g>
</g>
<g>
</g>
<g>
</g>
<g>
</g>
<g>
</g>
<g>
</g>
<g>
</g>
<g>
</g>
<g>
</g>
</svg>
