<?xml version="1.0" encoding="UTF-8" standalone="no"?>
<svg width="76px" height="86px" viewBox="0 0 76 86" version="1.1" xmlns="http://www.w3.org/2000/svg" xmlns:xlink="http://www.w3.org/1999/xlink" xmlns:sketch="http://www.bohemiancoding.com/sketch/ns">
    <!-- Generator: Sketch 3.5.1 (25234) - http://www.bohemiancoding.com/sketch -->
    <title>calendar</title>
    <desc>Created with Sketch.</desc>
    <defs></defs>
    <g id="Page-1" stroke="none" stroke-width="1" fill="none" fill-rule="evenodd" sketch:type="MSPage">
        <g id="calendar" sketch:type="MSLayerGroup" fill="#FFFFFF">
            <g id="Group" sketch:type="MSShapeGroup">
                <path d="M0.4,27.6 L0.4,78.8 C0.4,82.6 3.5,85.7 7.2,85.7 L68.8,85.7 C72.6,85.7 75.6,82.6 75.6,78.8 L75.6,27.6 L0.4,27.6 L0.4,27.6 Z M19.2,80.6 L5.5,80.6 L5.5,66.9 L19.2,66.9 L19.2,80.6 L19.2,80.6 Z M19.2,63.5 L5.5,63.5 L5.5,49.8 L19.2,49.8 L19.2,63.5 L19.2,63.5 Z M19.2,46.4 L5.5,46.4 L5.5,32.7 L19.2,32.7 L19.2,46.4 L19.2,46.4 Z M36.3,80.6 L22.6,80.6 L22.6,66.9 L36.3,66.9 L36.3,80.6 L36.3,80.6 Z M36.3,63.5 L22.6,63.5 L22.6,49.8 L36.3,49.8 L36.3,63.5 L36.3,63.5 Z M36.3,46.4 L22.6,46.4 L22.6,32.7 L36.3,32.7 L36.3,46.4 L36.3,46.4 Z M53.4,80.6 L39.7,80.6 L39.7,66.9 L53.4,66.9 L53.4,80.6 L53.4,80.6 Z M53.4,63.5 L39.7,63.5 L39.7,49.8 L53.4,49.8 L53.4,63.5 L53.4,63.5 Z M53.4,46.4 L39.7,46.4 L39.7,32.7 L53.4,32.7 L53.4,46.4 L53.4,46.4 Z M70.5,80.6 L56.8,80.6 L56.8,66.9 L70.5,66.9 L70.5,80.6 L70.5,80.6 Z M70.5,63.5 L56.8,63.5 L56.8,49.8 L70.5,49.8 L70.5,63.5 L70.5,63.5 Z M70.5,46.4 L56.8,46.4 L56.8,32.7 L70.5,32.7 L70.5,46.4 L70.5,46.4 Z" id="Shape"></path>
                <path d="M68.8,10.5 L57.7,10.5 L57.7,2.8 C57.7,1.4 56.6,0.2 55.1,0.2 C53.7,0.2 52.5,1.3 52.5,2.8 L52.5,10.5 L23.5,10.5 L23.5,2.8 C23.5,1.4 22.4,0.2 20.9,0.2 C19.5,0.2 18.3,1.3 18.3,2.8 L18.3,10.5 L7.2,10.5 C3.4,10.5 0.4,13.6 0.4,17.4 L0.4,23.3 L0.4,23.3 L0.4,24.2 L75.6,24.2 L75.6,23.3 L75.6,23.3 L75.6,17.4 C75.6,13.6 72.6,10.5 68.8,10.5 L68.8,10.5 Z M20.9,22.5 C18.1,22.5 15.8,20.2 15.8,17.4 C15.8,15.5 16.8,13.9 18.4,13 L18.4,17.4 C18.4,18.8 19.5,20 21,20 C22.4,20 23.6,18.9 23.6,17.4 L23.6,13 C25.1,13.9 26.2,15.5 26.2,17.4 C26,20.2 23.7,22.5 20.9,22.5 L20.9,22.5 Z M55.1,22.5 C52.3,22.5 50,20.2 50,17.4 C50,15.5 51,13.9 52.6,13 L52.6,17.4 C52.6,18.8 53.7,20 55.2,20 C56.6,20 57.8,18.9 57.8,17.4 L57.8,13 C59.3,13.9 60.4,15.5 60.4,17.4 C60.2,20.2 57.9,22.5 55.1,22.5 L55.1,22.5 Z" id="Shape"></path>
            </g>
        </g>
    </g>
</svg>