<svg id="airplane_1_" xmlns="http://www.w3.org/2000/svg" viewBox="0 0 250 49.5"><style>.st0{display:none;} .st1{display:inline;fill:none;stroke:#000000;stroke-miterlimit:10;} .st2{display:inline;fill:url(#SVGID_1_);stroke:#000000;stroke-miterlimit:10;} .st3{display:inline;fill:url(#SVGID_2_);stroke:#000000;stroke-miterlimit:10;} .st4{fill:#FFA726;} .st5{opacity:0.5;} .st6{fill:#FF9800;}</style><g id="grid" class="st0"><path class="st1" d="M-.3-72h249.9M-.3 127.9h249.9"/><linearGradient id="SVGID_1_" gradientUnits="userSpaceOnUse" x1="24.724" y1="27.953" x2="24.724" y2="27.953"><stop offset="0" stop-color="#FFF"/><stop offset="1"/></linearGradient><path class="st2" d="M24.7-97v249.9"/><linearGradient id="SVGID_2_" gradientUnits="userSpaceOnUse" x1="224.649" y1="27.953" x2="224.649" y2="27.953"><stop offset="0" stop-color="#FFF"/><stop offset="1"/></linearGradient><path class="st3" d="M224.6-97v249.9"/></g><path class="st4" d="M12.1 36.5c1.5.5 3.8.9 6.4 1 2.6.1 5.6-.2 8.5-.7.7-.1 1.5-.3 2.2-.5.7-.2 1.4-.5 2.1-.7 1.3-.5 2.6-.9 3.8-1.4 1.4-.5 2.7-.9 3.8-1.2-.2.4-.5.9-.7 1.2-.6.8-1.1 1.5-1.7 2-1.1 1.1-2.2 1.5-2.9 1.9-.4.1-.7.3-1 .4-.3.1-.5.1-.6.2-.3.1-.4.2-.4.2h1.2c.3 0 .7-.1 1.1-.2.9-.2 2.1-.5 3.5-1.6.7-.5 1.4-1.2 2.1-2.1.5-.7 1.1-1.6 1.5-2.5h.1c1.5-.3 2.5-.2 3.3-.1.8.1 1.2.3 1.6.4.3.1.5.1.5.1s0-.2-.1-.6c-.2-.3-.5-1-1.4-1.5-.6-.4-1.6-.7-2.7-.9.2-.6.5-1.1.7-1.7.5-1.3 1.2-2.5 1.9-3.7.7-1.2 1.5-2.4 2.3-3.4.8-1.1 1.7-2.1 2.6-3 .9-.9 1.7-1.7 2.6-2.3.8-.6 1.6-1.1 2.3-1.4.3-.2.7-.3 1-.4.3-.1.5-.2.7-.2.4-.1.6-.2.6-.2s-.2 0-.7.1c-.2 0-.5.1-.8.2-.3.1-.6.2-1 .3-.7.3-1.6.7-2.5 1.3-.9.6-1.9 1.3-2.8 2.1-1 .8-1.9 1.8-2.8 2.8-.9 1.1-1.8 2.2-2.6 3.4-.8 1.2-1.6 2.5-2.1 3.8-.1.3-.3.6-.4.9-.2-1-.7-2.3-1.7-3.3-1.6-1.6-4-2-4.8-2-.2 0-.5 0-.7.3-.2.4 0 3.3 1.9 5.3.6.6 1.4 1.1 2.2 1.4-1.2.2-2.5.6-3.8 1.1-1.3.4-2.6 1-3.9 1.5-.7.3-1.3.5-1.9.8-.6.2-1.3.4-1.9.7-2.7.8-5.5 1.4-7.9 1.7-2.5.3-4.7.3-6.2.1-.8-.1-1.4-.2-1.8-.3-.4-.1-.7-.1-.7-.1l.6.3c0 .1.6.3 1.4.5zm22.6-12.4c.8 0 2.7.4 4.1 1.8 1.1 1.1 1.5 2.7 1.6 3.7l-3.1-2.8 2.8 3.1c-1-.1-2.6-.5-3.7-1.6-1.4-1.5-1.7-3.5-1.7-4.2z"/><path class="st4" d="M15.9 32.4c2.3.8 5.2.4 7.2-.2 1-.3 1.9-.7 2.5-1 .3-.2.5-.3.7-.4l.2-.1s-.1 0-.3.1c-.2 0-.4.1-.8.1-.6.1-1.5.2-2.6.3-2.1.1-4.6-.2-6.4-.8-1.8-.6-2.3-1.3-2.7-1.8-.2-.3-.3-.5-.4-.6l-.2-.2s-.1 0-.2.2c-.1.1-.2.4-.3.9 0 .4.1 1.1.6 1.8.6.7 1.5 1.3 2.7 1.7zM42.5 34.6s-.2.4-.4 1c-.1.6-.2 1.3-.1 1.7.1.2.1.4.3.5.1.1.2.2.4.3.3.1.5.1.6.1.1 0 .3-.1.5-.3.1-.1.2-.3.3-.4.1-.2.1-.4 0-.7-.1-.5-.6-1-.9-1.4-.4-.5-.7-.8-.7-.8zM225.4 30.8c.6.3 1.5.7 2.5 1 2.1.6 4.9 1 7.2.2 1.2-.4 2-1 2.6-1.7.5-.7.6-1.4.6-1.8 0-.5-.2-.7-.3-.9l-.2-.2-.2.2c-.1.1-.2.3-.4.6-.4.5-.9 1.2-2.7 1.8-1.8.6-4.4.9-6.4.8-1 0-1.9-.2-2.6-.3-.3-.1-.6-.1-.8-.1-.2 0-.3-.1-.3-.1s.1 0 .2.1c.3.2.5.3.8.4z"/><path class="st4" d="M195.5 13.7c.3.1.6.2 1 .4.7.3 1.5.8 2.3 1.4.9.6 1.7 1.4 2.6 2.3.9.9 1.7 1.9 2.6 3 .8 1.1 1.6 2.2 2.3 3.4.7 1.2 1.3 2.4 1.9 3.7.2.6.5 1.1.7 1.7-1.1.1-2.1.5-2.7.9-.9.6-1.2 1.2-1.4 1.5-.1.4-.1.5-.1.6 0 0 .2 0 .5-.1s.8-.3 1.6-.4c.8-.1 1.8-.1 3.3.1.5.9 1 1.8 1.5 2.5.7.9 1.4 1.6 2.1 2.1 1.4 1.1 2.6 1.4 3.5 1.6.4.1.8.1 1.1.2h1.1s-.1-.1-.4-.2c-.2-.1-.4-.1-.6-.2-.3-.1-.6-.2-1-.4-.8-.3-1.8-.8-2.9-1.9-.6-.5-1.1-1.2-1.7-2-.2-.4-.5-.8-.7-1.2 1.1.3 2.3.7 3.8 1.2 1.2.4 2.5.9 3.8 1.4.7.2 1.4.5 2.1.7.8.2 1.5.4 2.2.5 2.9.6 5.9.8 8.5.7 2.6-.1 4.9-.5 6.4-1 .8-.2 1.4-.5 1.8-.6l.6-.3s-.2.1-.7.1c-.4.1-1 .2-1.8.3-1.6.2-3.8.2-6.2-.1-2.5-.3-5.2-.9-7.9-1.7-.7-.2-1.3-.4-1.9-.7-.6-.3-1.3-.5-1.9-.8-1.3-.5-2.6-1.1-3.9-1.5-1.4-.5-2.7-.8-3.8-1.1.7-.3 1.5-.7 2.2-1.4 1.9-1.9 2.1-4.9 1.9-5.3-.1-.3-.5-.3-.7-.3-.8 0-3.2.4-4.8 2-1 1-1.5 2.3-1.7 3.3-.1-.3-.3-.6-.4-.9-.6-1.3-1.3-2.6-2.1-3.8-.8-1.2-1.7-2.3-2.6-3.4-.9-1-1.9-2-2.8-2.8-1-.8-1.9-1.6-2.8-2.1-.9-.6-1.8-1-2.5-1.3-.7-.1-1.1-.1-1.4-.1-.3-.2-.5-.2-.7-.3-.4-.1-.7-.1-.7-.1s.2.1.6.2c.3 0 .5 0 .8.2zm16.7 11.7c1.3-1.3 3.3-1.7 4.1-1.8 0 .8-.4 2.7-1.7 4.1-1.1 1.1-2.7 1.5-3.7 1.6l2.8-3.1-3.1 2.8c.1-.8.5-2.4 1.6-3.6z"/><path class="st4" d="M207.8 34.9c-.4.4-.8.9-.9 1.4-.1.2-.1.5 0 .7.1.2.2.3.3.4.2.2.5.3.5.3.1 0 .3 0 .6-.1.1-.1.3-.1.4-.3.1-.1.2-.3.3-.5.1-.4 0-1.1-.1-1.7-.2-.6-.4-1-.4-1s-.4.4-.7.8z"/><g class="st5"><path d="M62.3 39v-2.1l1.3-.1c.2 0 .3-.1.3-.4v-9.3c0-.3 0-.4-.3-.4l-1.3-.2v-2.1h7.3v2.1l-1.3.2c-.3-.1-.3 0-.3.3v9.4c0 .3 0 .4.3.4l1.3.2v2h-7.3zM79.1 39l-4.3-8.8v6.2c0 .3 0 .4.3.4l1.2.2v2h-5.8v-2.1l1.1-.1c.2 0 .3-.1.3-.4V27c0-.3 0-.4-.3-.4l-1.1-.1v-2.1h5.6l4.3 9V27c0-.3 0-.4-.3-.4l-1.1-.1v-2.1h5.8v2.1l-1.2.2c-.3 0-.3.1-.3.4v12h-4.2zM94.3 39L90 30.2v6.2c0 .3 0 .4.3.4l1.2.2v2h-5.8v-2.1l1.1-.1c.2 0 .3-.1.3-.4V27c0-.3 0-.4-.3-.4l-1.1-.1v-2.1h5.6l4.3 9V27c0-.3 0-.4-.3-.4l-1.1-.1v-2.1h5.8v2.1l-1.2.2c-.3 0-.3.1-.3.4v12h-4.2zM100.6 31.8c0-4.4 1.8-7.7 6.5-7.7s6.2 3.4 6.2 7.4c0 4.7-1.8 7.7-6.4 7.7-4.8.1-6.3-3-6.3-7.4zm8.4-.1c0-3.1-.5-4.2-1.9-4.2-1.5 0-2.2 1.1-2.2 4.2 0 3.2.6 4.2 2.1 4.2 1.3-.1 2-.9 2-4.2zM117.6 39l-3.1-12c-.1-.2-.2-.3-.4-.3l-.8-.2.2-2.1h6.8v2.1l-1.4.2 1.7 8.2h.3l1.7-8.2-1.4-.2.2-2.1h5.6v2.1l-.7.2c-.2.1-.4.1-.4.4l-2.8 12h-5.5zM132.5 39v-2.1l1.4-.2-.3-1.1H130l-.3 1.1 1.3.2V39h-6v-2.1l.8-.2c.2-.1.4-.1.4-.4l3.8-12h4.5l3.7 12c.1.2.2.3.4.3l.9.2V39h-7zm-.4-10.2h-.2l-1.1 4h2.2l-.9-4zM140.9 39v-2.1l1.8-.1c.2 0 .3-.1.3-.4v-9.1h-.6c-.2 0-.2 0-.3.2l-.3 1.8h-2.9v-4.9h12.3v4.9h-2.9l-.3-1.8c0-.2-.1-.2-.3-.2h-.6v9.1c0 .3 0 .4.3.4l1.9.2v2h-8.4zM152 39v-2.1l1.3-.1c.2 0 .3-.1.3-.4v-9.3c0-.3 0-.4-.3-.4l-1.3-.2v-2.1h7.3v2.1l-1.3.2c-.3 0-.3.1-.3.4v9.4c0 .3 0 .4.3.4l1.3.2V39H152zM159.9 31.8c0-4.4 1.8-7.7 6.5-7.7s6.2 3.4 6.2 7.4c0 4.7-1.8 7.7-6.4 7.7-4.8.1-6.3-3-6.3-7.4zm8.4-.1c0-3.1-.5-4.2-1.9-4.2-1.5 0-2.2 1.1-2.2 4.2 0 3.2.6 4.2 2.1 4.2 1.4-.1 2-.9 2-4.2zM182.1 39l-4.3-8.8v6.2c0 .3 0 .4.3.4l1.2.2v2h-5.8v-2.1l1.1-.1c.2 0 .3-.1.3-.4V27c0-.3 0-.4-.3-.4l-1.1-.1v-2.1h5.6l4.3 9V27c0-.3 0-.4-.3-.4l-1.1-.1v-2.1h5.8v2.1l-1.2.2c-.3 0-.3.1-.3.4v12h-4.2z"/></g><g class="st5"><path d="M76 20.8c-1.1.7-3 1.2-4.6 1.2-4.7 0-6.4-2.8-6.4-7.6 0-4.4 2-7.6 6.8-7.6 1.4 0 3.1.4 4.2 1.2v4.7l-3-.2-.3-2c0-.2-.1-.3-.3-.3-.1-.2-.4-.2-.7-.2-1.7 0-2.5 1.4-2.5 4.4 0 3.1.7 4.5 2.3 4.5.3 0 .6 0 .8-.1.3-.1.4-.2.4-.7l.2-1.7H76v4.4zM77.1 14.5c0-4.4 1.8-7.7 6.5-7.7s6.2 3.4 6.2 7.4c0 4.7-1.8 7.7-6.4 7.7-4.8.1-6.3-3-6.3-7.4zm8.4-.1c0-3.1-.5-4.2-1.9-4.2-1.5 0-2.2 1.1-2.2 4.2 0 3.2.6 4.2 2.1 4.2 1.4 0 2-.9 2-4.2zM100.9 21.8v-2.1l1.4-.1c.2 0 .3-.1.3-.4v-5.3h-.1l-1.5 5.4h-4.2l-1.4-5.4h-.1v5.3c0 .3 0 .4.3.4l1.5.2v2.1h-6.2v-2.1l1.1-.1c.2 0 .3-.1.3-.4V9.7c0-.3 0-.4-.3-.4l-1.1-.1V7.1H97l2.2 8.9h.2l2.3-8.9h6.2v2.1l-1.2.2c-.3 0-.3.1-.3.4v9.4c0 .3.1.3.3.4l1.2.2v2.1h-7zM118.9 21.8v-2.1l1.4-.1c.2 0 .3-.1.3-.4v-5.3h-.1l-1.5 5.4h-4.2l-1.4-5.4h-.1v5.3c0 .3 0 .4.3.4l1.5.2v2.1h-6.2v-2.1l1.1-.1c.2 0 .3-.1.3-.4V9.7c0-.3 0-.4-.3-.4l-1.1-.1V7.1h6.4l2.2 8.9h.2l2.3-8.9h6.2v2.1l-1.2.2c-.3 0-.3.1-.3.4v9.4c0 .3.1.3.3.4l1.2.2v2.1h-7.3zM126.5 21.8v-2.1l1.3-.1c.2 0 .3-.1.3-.4V9.8c0-.3 0-.4-.3-.4l-1.3-.2V7.1h7.3v2.1l-1.3.2c-.3 0-.3.1-.3.4v9.4c0 .3 0 .4.3.4l1.3.2v2.1h-7.3zM136.6 21.8v-2.1l1.8-.1c.2 0 .3-.1.3-.4V10h-.6c-.2 0-.2 0-.3.2l-.3 1.8h-2.9V7.1h12.3V12H144l-.3-1.8c0-.2-.1-.2-.3-.2h-.6v9.1c0 .3 0 .4.3.4l1.9.2v2.1h-8.4zM149.7 21.8v-2.1l1.8-.1c.2 0 .3-.1.3-.4V10h-.6c-.2 0-.2 0-.3.2l-.3 1.8h-2.9V7.1H160V12h-2.9l-.3-1.8c0-.2-.1-.2-.3-.2h-.6v9.1c0 .3 0 .4.3.4l1.9.2v2.1h-8.4zM161 21.8v-2.1l1.1-.1c.2 0 .3-.1.3-.4V9.7c0-.3 0-.4-.3-.4l-1.1-.1V7.1h10v4.8l-2.9-.1-.2-1.5c0-.2-.1-.3-.3-.3h-1v2.9h3.3V16h-3.3v2.9h1.4c.2 0 .2 0 .3-.2l.3-1.8h2.9v4.9H161zM172.4 21.8v-2.1l1.1-.1c.2 0 .3-.1.3-.4V9.7c0-.3 0-.4-.3-.4l-1.1-.1V7.1h6.2c4.7 0 6.3 2.7 6.3 7.1 0 4.5-1.8 7.6-6.6 7.6h-5.9zm5.8-2.9c2.5 0 2.6-2 2.6-4.6 0-2.9-.4-4.3-2.7-4.3h-.1v8.9h.2z"/></g><path class="st6" d="M120 29.5v-9.9l-2 .5c-.6.1-.4.9 0 1.3.1-.2.5-.3.7-.4.3-.1.7.1.7.4s-.2.6-.5.6c-.4.1-.8 0-1-.3-.3-.2-.4-.6-.4-1s.2-.8.4-1.1c.3-.3.7-.6 1.1-.6l8-1.4c.7-.1.9-1 .5-1.3-.1.2-.3.4-.5.4-.3.1-.5-.1-.5-.4 0-.3.2-.6.5-.6.4-.1.8 0 1.1.3.3.2.4.6.4 1s-.2.8-.4 1.1c-.3.3-1.6.6-2 .6l-3.9.5v9.9l-2.2.4zm7.5-7.7c-.3 0-.5.3-.5.5 0 .1.1.2.2.3.9.8 2.5-.7 1.7-1.8-.2-.3-.5-.4-.8-.5-1.1-.3-2.2.4-2.8 1.4-.5.8-.8 1.6-.8 3.1 0 1.7.7 3.3 2.2 3.8.9.3 2.5.1 3.5-.5 1.7-.9 2.4-2.9 2.4-4.7 0-.8 0-1.4-.4-2.2-.3-.6-.8-1.1-1.5-1.4-.6-.2-1.6 0-2.2.4 1-.2 1.6.5 2 1.5.3.7.4 2.1.2 3.3-.5 3.2-3.7 3.8-4.3.8-.2-1.1-.1-2.5.1-3.2.1-.4.2-.7.5-1 .2-.3.5-.4.8-.5.6-.1.9.4.5.9-.1.1-.2.2-.3.2V22c-.1-.1-.3-.3-.5-.2z"/></svg>