<?xml version="1.0" encoding="UTF-8" standalone="no"?>
<svg width="80px" height="74px" viewBox="0 0 80 74" version="1.1" xmlns="http://www.w3.org/2000/svg" xmlns:xlink="http://www.w3.org/1999/xlink" xmlns:sketch="http://www.bohemiancoding.com/sketch/ns">
    <!-- Generator: Sketch 3.5.1 (25234) - http://www.bohemiancoding.com/sketch -->
    <title>fastestimate</title>
    <desc>Created with Sketch.</desc>
    <defs></defs>
    <g id="Page-1" stroke="none" stroke-width="1" fill="none" fill-rule="evenodd" sketch:type="MSPage">
        <g id="fastestimate" sketch:type="MSLayerGroup" fill="#FFFFFF">
            <g id="Group" sketch:type="MSShapeGroup">
                <path d="M70.1,14.5 L70.1,31.9 L58.1,42.1 L51.1,48.1 L69.8,64.3 L67.3,66.8 L48.3,50.6 L31.8,50.6 L31.8,50.6 L12.8,66.8 L10.3,64.3 L29,48.1 L22,42.1 L9.9,31.9 L9.9,14.5 L0.4,22.7 L0.4,25.9 L0.4,67.1 C0.4,70.6 3.3,73.4 6.7,73.4 L73.3,73.4 C76.8,73.4 79.6,70.5 79.6,67.1 L79.6,22.7 L70.1,14.5 L70.1,14.5 Z" id="Shape"></path>
                <path d="M56.5,38.6 L67,29.7 L67,3.7 C67,1.8 65.4,0.5 63.8,0.5 L16.2,0.5 C14.3,0.5 13,1.8 13,3.7 L13,29.7 L23.5,38.6 L56.5,38.6 L56.5,38.6 Z M19.4,10.1 L60.6,10.1 L60.6,13.3 L19.4,13.3 L19.4,10.1 L19.4,10.1 Z M19.4,19.6 L60.6,19.6 L60.6,22.8 L19.4,22.8 L19.4,19.6 L19.4,19.6 Z M19.4,29.1 L60.6,29.1 L60.6,32.3 L19.4,32.3 L19.4,29.1 L19.4,29.1 Z" id="Shape"></path>
                <path d="M47,46.5 L52.7,41.8 L27.3,41.8 L33,46.5 L47,46.5 Z" id="Shape"></path>
            </g>
        </g>
    </g>
</svg>