<?xml version="1.0" encoding="utf-8"?>
<!-- Generator: Adobe Illustrator 20.0.0, SVG Export Plug-In . SVG Version: 6.00 Build 0)  -->
<svg version="1.1" id="Layer_1" xmlns="http://www.w3.org/2000/svg" xmlns:xlink="http://www.w3.org/1999/xlink" x="0px" y="0px"
	 viewBox="0 0 90 90" style="enable-background:new 0 0 90 90;" xml:space="preserve">
<style type="text/css">
	.st0{fill:#424242;}
</style>
<g>
	<g>
		<g>
			<path class="st0" d="M75.1,22.5v17.4L63.1,50.1l-7,6l18.7,16.2l-2.5,2.5l-19-16.2H36.8l0,0l-19,16.2l-2.5-2.5l18.7-16.2l-7-6
				L14.9,39.9V22.5l-9.5,8.2v3.2v41.2c0,3.5,2.9,6.3,6.3,6.3h66.6c3.5,0,6.3-2.9,6.3-6.3V30.7L75.1,22.5z"/>
			<path class="st0" d="M61.5,46.6L72,37.7v-26c0-1.9-1.6-3.2-3.2-3.2H21.2c-1.9,0-3.2,1.3-3.2,3.2v26l10.5,8.9H61.5z M24.4,18.1
				h41.2v3.2H24.4V18.1z M24.4,27.6h41.2v3.2H24.4V27.6z M24.4,37.1h41.2v3.2H24.4V37.1z"/>
			<polygon class="st0" points="52,54.5 57.7,49.8 32.3,49.8 38,54.5 			"/>
		</g>
	</g>
</g>
<g>
</g>
<g>
</g>
<g>
</g>
<g>
</g>
<g>
</g>
<g>
</g>
<g>
</g>
<g>
</g>
<g>
</g>
<g>
</g>
<g>
</g>
<g>
</g>
<g>
</g>
<g>
</g>
<g>
</g>
</svg>
