<?xml version="1.0" encoding="utf-8"?>
<!-- Generator: Adobe Illustrator 19.0.0, SVG Export Plug-In . SVG Version: 6.00 Build 0)  -->
<svg version="1.1" id="Layer_1" xmlns="http://www.w3.org/2000/svg" xmlns:xlink="http://www.w3.org/1999/xlink" x="0px" y="0px"
	 viewBox="-145 354.2 320 125.8" style="enable-background:new -145 354.2 320 125.8;" xml:space="preserve">
<style type="text/css">
	.st0{fill:#FF9800;}
	.st1{fill:#F57C00;}
	.st2{fill:none;stroke:#F57C00;stroke-width:1.5;stroke-linecap:square;stroke-miterlimit:10;}
	.st3{fill:#FF9800;stroke:#F57C00;stroke-miterlimit:10;}
	.st4{fill:url(#SVGID_1_);}
	.st5{fill:url(#SVGID_2_);}
	.st6{fill:url(#SVGID_3_);}
	.st7{fill:url(#SVGID_4_);}
	.st8{fill:url(#SVGID_5_);}
	.st9{fill:#8A8A8A;}
	.st10{fill:url(#SVGID_6_);}
	.st11{fill:#B3B1B2;}
	.st12{fill:url(#SVGID_7_);}
	.st13{fill:url(#SVGID_8_);}
	.st14{fill:url(#SVGID_9_);}
	.st15{fill:url(#SVGID_10_);}
	.st16{fill:url(#SVGID_11_);}
	.st17{fill:url(#SVGID_12_);}
	.st18{fill:url(#SVGID_13_);}
	.st19{fill:url(#SVGID_14_);}
	.st20{fill:url(#SVGID_15_);}
	.st21{fill:url(#SVGID_16_);}
	.st22{fill:url(#SVGID_17_);}
	.st23{fill:url(#SVGID_18_);}
	.st24{fill:url(#SVGID_19_);}
	.st25{fill:url(#SVGID_20_);}
	.st26{fill:url(#SVGID_21_);}
	.st27{fill:url(#SVGID_22_);}
	.st28{fill:url(#SVGID_23_);}
	.st29{fill:url(#SVGID_24_);}
	.st30{fill:url(#SVGID_25_);}
	.st31{fill:url(#SVGID_26_);}
	.st32{fill:url(#SVGID_27_);}
	.st33{fill:url(#SVGID_28_);}
	.st34{fill:url(#SVGID_29_);}
	.st35{fill:url(#SVGID_30_);}
	.st36{fill:url(#SVGID_31_);}
	.st37{fill:url(#SVGID_32_);}
	.st38{fill:url(#SVGID_33_);}
	.st39{fill:url(#SVGID_34_);}
	.st40{fill:url(#SVGID_35_);}
	.st41{fill:url(#SVGID_36_);}
	.st42{fill:#F3B175;}
	.st43{fill:url(#SVGID_37_);}
	.st44{fill:url(#SVGID_38_);}
	.st45{fill:url(#SVGID_39_);}
	.st46{fill:#FFFFFF;}
	.st47{fill:url(#SVGID_40_);}
	.st48{fill:#EEB87D;}
	.st49{fill:#7E1416;}
	.st50{fill:url(#SVGID_41_);}
	.st51{fill:url(#SVGID_42_);}
	.st52{fill:url(#SVGID_43_);}
	.st53{fill:url(#SVGID_44_);}
	.st54{fill:url(#SVGID_45_);}
	.st55{fill:#D84315;}
	.st56{fill:#E57373;}
	.st57{fill:#FCDBD0;}
	.st58{fill:#FDD3AA;}
	.st59{fill:url(#SVGID_46_);}
	.st60{fill:url(#SVGID_47_);}
	.st61{fill:url(#SVGID_48_);}
	.st62{fill:url(#SVGID_49_);}
	.st63{fill:url(#SVGID_50_);}
	.st64{fill:url(#SVGID_51_);}
	.st65{fill:#FCC680;}
	.st66{fill:#FFDDAE;}
	.st67{fill:#757575;}
	.st68{fill:#64B5F6;}
	.st69{fill:#BBDEFB;}
	.st70{fill:#424242;}
	.st71{fill:#808184;}
	.st72{fill:#616161;}
	.st73{fill:#FF6D00;}
	.st74{fill:none;stroke:#F57C00;stroke-width:2;stroke-miterlimit:10;}
</style>
<path class="st0" d="M-10.7,388c0.1-1,0.7-1.9,1-1.9s0.9,0.9,1,1.9H-10.7z"/>
<path class="st1" d="M-9.7,387.1c0,0.1,0.1,0.1,0.1,0.2h-0.2C-9.7,387.2-9.7,387.1-9.7,387.1 M-9.7,385.4c-1,0-1.8,1.5-1.8,3.3v0.4
	H-8v-0.5C-8,386.8-8.7,385.4-9.7,385.4z"/>
<path class="st0" d="M-14.8,399c0-6,2.4-10.3,5.1-10.3c2.7,0,5.1,4.3,5.1,10.3H-14.8L-14.8,399z"/>
<path class="st1" d="M-9.7,389.3c1.9,0,4.1,3.8,4.3,8.8H-14C-13.8,393-11.6,389.3-9.7,389.3 M-9.7,388c-3.2,0-5.8,5.1-5.8,11.3v0.7
	h11.7v-0.7C-3.8,393.1-6.5,388-9.7,388z"/>
<path class="st2" d="M-9.7,387.4v-33.2"/>
<path class="st3" d="M93.5,376.5h3v101h-3V376.5z M155.5,376.5h2v101h-2V376.5z M167,397.5H88H167z"/>
<path class="st3" d="M87.5,420.5h79v1h-79V420.5z M87.5,447.5h79v1h-79V447.5z M100.5,380.5v16h10v-16H100.5z M125.5,432.5v15h11
	v-15H125.5z M124.5,396.1c0,0.2-0.2,0.4-0.4,0.4h-2.2c-0.2,0-0.4-0.2-0.4-0.4v-17.2c0-0.2,0.2-0.4,0.4-0.4h2.2
	c0.2,0,0.4,0.2,0.4,0.4C124.5,378.9,124.5,396.1,124.5,396.1z M153.8,396.7l-0.7,0.5c-0.1,0.1-0.2,0-0.3-0.1l-10.5-15
	c-0.1-0.1,0-0.2,0.1-0.3l0.7-0.5c0.1-0.1,0.2,0,0.3,0.1l10.5,15C154,396.5,153.9,396.6,153.8,396.7z M131.5,396.1
	c0,0.2-0.2,0.4-0.4,0.4h-2.2c-0.2,0-0.4-0.2-0.4-0.4v-13.2c0-0.2,0.2-0.4,0.4-0.4h2.2c0.2,0,0.4,0.2,0.4,0.4
	C131.5,382.9,131.5,396.1,131.5,396.1z M134.5,396.1c0,0.2-0.2,0.4-0.4,0.4h-1.2c-0.2,0-0.4-0.2-0.4-0.4v-15.2
	c0-0.2,0.2-0.4,0.4-0.4h1.2c0.2,0,0.4,0.2,0.4,0.4C134.5,380.9,134.5,396.1,134.5,396.1z M137.5,396.4c0,0.1-0.1,0.2-0.2,0.2h-0.7
	c-0.1,0-0.2-0.1-0.2-0.2v-14.7c0-0.1,0.1-0.2,0.2-0.2h0.7c0.1,0,0.2,0.1,0.2,0.2V396.4z M141.5,396.2c0,0.2-0.2,0.4-0.4,0.4h-1.2
	c-0.2,0-0.4-0.2-0.4-0.4v-15.3c0-0.2,0.2-0.4,0.4-0.4h1.2c0.2,0,0.4,0.2,0.4,0.4V396.2z M114.5,411.1c0,0.2-0.2,0.4-0.4,0.4h-12.2
	c-0.2,0-0.4-0.2-0.4-0.4v-2.2c0-0.2,0.2-0.4,0.4-0.4h12.2c0.2,0,0.4,0.2,0.4,0.4V411.1z M116.5,414.1c0,0.2-0.2,0.4-0.4,0.4h-15.2
	c-0.2,0-0.4-0.2-0.4-0.4v-1.2c0-0.2,0.2-0.4,0.4-0.4h15.2c0.2,0,0.4,0.2,0.4,0.4V414.1z M115.5,418.1c0,0.2-0.2,0.4-0.4,0.4h-14.2
	c-0.2,0-0.4-0.2-0.4-0.4v-2.2c0-0.2,0.2-0.4,0.4-0.4h14.2c0.2,0,0.4,0.2,0.4,0.4V418.1z"/>
<path class="st3" d="M117.5,419.2c0,0.2-0.2,0.4-0.4,0.4H98.9c-0.2,0-0.4-0.2-0.4-0.4V418c0-0.2,0.2-0.4,0.4-0.4h18.2
	c0.2,0,0.4,0.2,0.4,0.4V419.2z M101.5,453.5v23h23v-23H101.5z M115.7,458.5h-3.1c-0.9,0-1.6-0.6-1.6-1.5c0-0.9,0.7-1.5,1.6-1.5h3.1
	c0.9,0,1.6,0.6,1.6,1.5C117.3,457.9,116.6,458.5,115.7,458.5z M127.5,453.5v23h22v-23H127.5z M140.9,458.5h-3.1
	c-0.9,0-1.6-0.6-1.6-1.5c0-0.9,0.7-1.5,1.6-1.5h3.1c0.9,0,1.6,0.6,1.6,1.5C142.5,457.9,141.8,458.5,140.9,458.5z M140,411.9
	c-2.2,0-3.9,0.2-3.9,0.4l1.7,7.7c0,0,0.7,0.4,2.3,0.4c1.9,0,2.5-0.4,2.5-0.4l1.4-7.7C144,412.1,142.2,411.9,140,411.9z"/>
<ellipse class="st3" cx="140" cy="412.3" rx="3.6" ry="0.4"/>
<path class="st3" d="M139.8,412.7h-0.3c-0.3-1.4-0.6-5.8,0.9-7.9c1.9-2.6,6-4.2,5.9-3.6s-5.6,5-6,6.8
	C139.9,409.8,139.8,412.7,139.8,412.7z"/>
<path class="st3" d="M139.6,412.5h0.2c0.1,0,0.8-2.3-0.3-3.7c-0.9-1.2-2.8-1.6-2.9-1.5c0,0.3,2.6,2.9,2.8,3.8
	C139.5,412,139.6,412.5,139.6,412.5L139.6,412.5z M139.7,408.5l0.2,0.1c0.4-0.7,1.5-3,1.1-4.4c-0.5-1.8-2.5-3.5-2.6-3.2
	c-0.1,0.3,1.8,4.7,1.7,5.7C139.9,407.7,139.7,408.5,139.7,408.5L139.7,408.5z"/>
<path class="st3" d="M139.9,408l0.2,0.1c0.7-0.6,2.6-2.6,2.7-4.2c0-2-1.5-4.4-1.7-4.1s0.4,5.4-0.1,6.5
	C140.4,407.4,139.9,408,139.9,408z"/>
<path class="st3" d="M139.8,410.4c0,0.1,0.1,0.3,0.1,0.4c0.1-0.4,0.8-2.5-0.4-4.1c-0.9-1.2-2.7-1.8-2.8-1.7c0,0.4,2.2,2.2,2.8,3.9
	C139.6,409.2,139.8,409.7,139.8,410.4z M108.5,432.5v15h10v-15H108.5z"/>
<path class="st3" d="M140.1,411c0,0.1-0.1,0.3-0.1,0.4c-0.1-0.4-0.8-2.5,0.4-4.1c0.9-1.2,2.7-1.8,2.8-1.7c0,0.4-2.2,2.2-2.8,3.9
	C140.2,409.8,140.1,410.3,140.1,411z"/>
<path class="st1" d="M-131,435.4v2.3V435.4z M-131,432.2v2.3V432.2z M-98.1,448.3v1.8V448.3z"/>
<path class="st0" d="M-136.1,477.7v-88.3h43.2v88.3H-136.1z M-113.2,470.4H-96v-74.7h-17.2V470.4z M-133,470.4h16.7v-74.7H-133
	V470.4z"/>
<path class="st1" d="M-93.7,390.2V477h-41.6v-86.8H-93.7 M-113.9,471.2h18.7V395h-18.7V471.2 M-133.7,471.2h18.2V395h-18.2V471.2
	 M-92.2,388.7h-44.6v89.8h44.7L-92.2,388.7C-92.1,388.7-92.2,388.7-92.2,388.7z M-112.4,469.7v-73.2h15.7v73.2H-112.4z
	 M-132.2,469.7v-73.2h15.2v73.2C-117,469.7-132.2,469.7-132.2,469.7z"/>
<path class="st0" d="M-115,478v-89V478v-0.3v0.4V389V478L-115,478z"/>
<path class="st1" d="M-115,389v89V389z M-115,389.4V478v-0.4v0.6C-115,478.2-115,389.4-115,389.4z M-114.7,478.3h-0.3H-114.7z"/>
<path class="st0" d="M-112,449h15v1h-15V449z"/>
<path class="st1" d="M-96,448h-16v2h16V448z"/>
<path class="st0" d="M-132,449h15v1h-15V449z"/>
<path class="st1" d="M-117,448h-16v2h16V448z"/>
<path class="st0" d="M-112,406h15H-112z"/>
<path class="st1" d="M-96,405h-16v2h16V405z"/>
<path class="st0" d="M-132,406h15H-132z"/>
<path class="st1" d="M-117,405h-16v2h16V405z"/>
<path class="st0" d="M-119,434v-0.3V434l0.1-0.2h-0.1V434l0.2-0.2L-119,434l0.2-0.2L-119,434l0.2-0.2v-0.1c-0.1-0.2-0.1-0.6-0.2-1.1
	c0-0.5-0.1-1.2-0.1-1.9c0-0.9,0-1.7,0.1-2.3c0-0.3,0.1-0.5,0.1-0.7v-0.1l-0.1-0.1l0.1,0.1l-0.1-0.1v0.1l-0.2-0.2v0.2h0.1l-0.1-0.2
	v0.2v-0.2l-0.1,0.2h0.1v-0.2l-0.1,0.2l0.1-0.1l-0.1,0.1l0.1-0.1l-0.1,0.1v0.1c0.1,0.2,0.1,0.6,0.2,1.1c0,0.5,0.1,1.2,0.1,1.9
	c0,0.9,0,1.7-0.1,2.3c0,0.3-0.1,0.5-0.1,0.7v0.1L-119,434l-0.2-0.2L-119,434l-0.2-0.2L-119,434v-0.3h-0.1L-119,434v-0.3v0.6
	c0,0,0.2,0,0.3-0.1c0.1-0.1,0.1-0.2,0.2-0.2c0.1-0.1,0.1-0.3,0.2-0.5c0.1-0.6,0.2-1.6,0.2-2.8c0-0.9,0-1.8-0.1-2.4
	c0-0.3-0.1-0.6-0.1-0.8c0-0.1-0.1-0.2-0.1-0.3l-0.1-0.1c0,0-0.1-0.1-0.2-0.1c-0.1,0-0.2,0-0.2,0.1c-0.1,0.1-0.1,0.2-0.2,0.2
	c-0.1,0.1-0.1,0.3-0.1,0.5c-0.1,0.6-0.2,1.6-0.2,2.8c0,0.9,0,1.8,0.1,2.4c0,0.3,0.1,0.6,0.1,0.8c0,0.1,0.1,0.2,0.1,0.3
	c0,0,0,0.1,0.1,0.1l0.2,0.1V434H-119z"/>
<path class="st1" d="M-118.9,427c-0.1,0-0.2,0-0.2,0.1l-0.2,0.2c-0.1,0.1-0.1,0.3-0.1,0.5c-0.1,0.6-0.2,1.6-0.2,2.8
	c0,0.9,0,1.8,0.1,2.4c0,0.3,0.1,0.6,0.1,0.8c0,0.1,0.1,0.2,0.1,0.3h0.3v-0.2h-0.2l0.1,0.1c0,0,0-0.2,0.1-0.2v-0.2
	c0-0.1,0.1-0.3,0.1-0.5c0-0.2-0.1-0.4-0.1-0.6c0-0.5-0.1-1.2-0.1-1.9c0-0.9,0-1.7,0.1-2.3v-0.2c0-0.2-0.1-0.4-0.1-0.5v-0.1h-0.1
	h-0.1l0.2-0.2v0.1l0.1,0.1v-0.1l0.1,0.1v0.1c0,0.1-0.1,0.3-0.1,0.5c0,0.2,0.1,0.4,0.1,0.6c0,0.5,0.1,1.2,0.1,1.9
	c0,0.9,0,1.7-0.1,2.3v0.2c0,0.2,0.1,0.4,0.1,0.5v0.1l-0.1,0.1v-0.1l-0.1,0.1v-0.1l-0.1,0.1l-0.1,0.1v0.4c0,0,0.2,0,0.3-0.1
	c0.1-0.1,0.1-0.2,0.2-0.2c0.1-0.1,0.1-0.3,0.2-0.5c0.1-0.6,0.2-1.6,0.2-2.8c0-0.9,0-1.8-0.1-2.4c0-0.3-0.1-0.6-0.1-0.8
	c0-0.1-0.1-0.2-0.1-0.3l-0.1-0.1C-118.7,427.1-118.8,427-118.9,427z M-119.1,427.4v0.2V427.4z M-119.1,427.4L-119.1,427.4
	L-119.1,427.4z M-119.1,427.4v0.2V427.4z M-118.9,427.4L-118.9,427.4L-118.9,427.4z M-119,427.5C-119.1,427.5-119.1,427.5-119,427.5
	z M-119,427.5C-119.1,427.5-119,427.6-119,427.5z M-119,433.7C-119.1,433.7-119.1,433.7-119,433.7z M-119.1,433.7v0.2V433.7z
	 M-119.1,433.7v0.2V433.7z M-119.1,433.7v0.2V433.7z M-119.1,433.7v0.2V433.7z"/>
<path class="st0" d="M-111,434v-0.3V434l0.1-0.2h-0.1V434l0.3-0.2v0.1l0.1-0.1l-0.1,0.1l0.1-0.1v-0.1c-0.1-0.2-0.1-0.6-0.2-1.1
	c0-0.5-0.1-1.2-0.1-1.9c0-0.9,0-1.7,0.1-2.3c0-0.3,0.1-0.5,0.1-0.7v-0.1l-0.1-0.1l0.1,0.1l-0.1-0.1l-0.1,0.1l-0.3-0.2v0.2h0.1
	l-0.1-0.2v0.2v-0.2l-0.1,0.2h0.1v-0.2l0.1,0.2l0.2-0.1l-0.1,0.1l0.1-0.1l-0.1,0.1v0.1c0.1,0.2,0.1,0.6,0.2,1.1
	c0,0.5,0.1,1.2,0.1,1.9c0,0.9,0,1.7-0.1,2.3c0,0.3-0.1,0.5-0.1,0.7v0.1l0.1,0.1l-0.1-0.1l0.1,0.1l-0.3-0.1L-111,434v-0.3h-0.1
	L-111,434v-0.3v0.6c0,0,0.4,0,0.4-0.1c0.1-0.1,0.2-0.2,0.3-0.2c0.1-0.1,0.1-0.3,0.2-0.5c0.1-0.6,0.2-1.6,0.2-2.8
	c0-0.9,0-1.8-0.1-2.4c0-0.3-0.1-0.6-0.1-0.8c0-0.1-0.1-0.2-0.1-0.3l-0.1-0.1c0,0-0.1-0.1-0.2-0.1s-0.2,0-0.2,0.1
	c-0.1,0.1-0.1,0.2-0.2,0.2c-0.1,0.1-0.1,0.3-0.1,0.5c-0.1,0.6-0.2,1.6-0.2,2.8c0,0.9,0,1.8,0.1,2.4c0,0.3,0.1,0.6,0.1,0.8V434
	c0.1,0.1-0.1,0.2,0,0.2v0.1V434L-111,434z"/>
<path class="st1" d="M-110.6,427c-0.1,0-0.2,0-0.2,0.1l-0.2,0.2c-0.1,0.1-0.1,0.3-0.1,0.5c-0.1,0.6-0.2,1.6-0.2,2.8
	c0,0.9,0,1.8,0.1,2.4c0,0.3,0.1,0.6,0.1,0.8c0,0.1,0.1,0.2,0.1,0.3v-0.2l0.2,0.1l0.1-0.2v-0.2c0-0.1,0.1-0.3,0.1-0.5
	c0-0.2-0.1-0.4-0.1-0.6c0-0.5-0.1-1.2-0.1-1.9c0-0.9,0-1.7,0.1-2.3v-0.2c0-0.2-0.1-0.4-0.1-0.5v-0.1h-0.1h-0.2l0.1-0.2l0.2,0.1h0.1
	l0.1,0.1v-0.1l0.1,0.1v0.1c0,0.1-0.1,0.3-0.1,0.5c0,0.2,0.1,0.4,0.1,0.6c0,0.5,0.1,1.2,0.1,1.9c0,0.9,0,1.7-0.1,2.3v0.2
	c0,0.2,0.1,0.4,0.1,0.5v0.1l-0.1,0.1v-0.1l-0.1,0.1v-0.1l-0.1,0.1h-0.1l-0.2,0.1v0.4c0,0,0.4,0,0.4-0.1c0.1-0.1,0.2-0.2,0.3-0.2
	c0.1-0.1,0.1-0.3,0.2-0.5c0.1-0.6,0.2-1.6,0.2-2.8c0-0.9,0-1.8-0.1-2.4c0-0.3-0.1-0.6-0.1-0.8c0-0.1-0.1-0.2-0.1-0.3l-0.1-0.1
	C-110.5,427.1-110.5,427-110.6,427z M-110.8,427.4v0.2V427.4z M-110.8,427.4L-110.8,427.4L-110.8,427.4z M-110.8,427.4v0.2V427.4z
	 M-110.6,427.4L-110.6,427.4L-110.6,427.4z M-110.7,427.5C-110.8,427.5-110.8,427.6-110.7,427.5z M-110.8,433.7
	C-110.7,433.7-110.7,433.7-110.8,433.7z M-110.9,433.7v0.2V433.7z M-110.8,433.7v0.2V433.7z M-110.8,433.7v0.2V433.7z M-110.8,433.7
	v0.2V433.7z"/>
<path class="st0" d="M-74,394h16v16h-16V394z"/>
<path class="st1" d="M-59,394v15h-15v-15H-59 M-58,393h-17v17h17V393z"/>
<path class="st0" d="M-71.2,401.9c0.1,0.1,0.1,0.1,0.2,0.1c0.2,0,0.4-0.2,0.4-0.6c-0.1,0.1-0.2,0.2-0.3,0.2c-0.3,0-0.4-0.2-0.4-0.4
	c0-0.3,0.2-0.5,0.4-0.5c0.3,0,0.5,0.2,0.5,0.7c0,0.6-0.3,0.8-0.6,0.8c-0.2,0-0.3-0.1-0.4-0.2C-71.4,402-71.2,401.9-71.2,401.9z
	 M-70.6,401.2c0-0.3-0.1-0.4-0.3-0.4c-0.1,0-0.3,0.1-0.3,0.3c0,0.2,0.1,0.3,0.3,0.3C-70.8,401.4-70.7,401.4-70.6,401.2z"/>
<path class="st1" d="M-70.9,400.6c-0.2,0-0.4,0.2-0.4,0.5c0,0.3,0.2,0.4,0.4,0.4c0.1,0,0.3-0.1,0.3-0.2c0,0.5-0.2,0.6-0.4,0.6
	c-0.1,0-0.2,0-0.2-0.1l-0.1,0.1c0.1,0.1,0.2,0.2,0.4,0.2c0.3,0,0.6-0.2,0.6-0.8C-70.4,400.9-70.6,400.6-70.9,400.6z M-70.9,401.4
	c-0.2,0-0.3-0.1-0.3-0.3c0-0.2,0.1-0.3,0.3-0.3c0.2,0,0.3,0.2,0.3,0.4C-70.7,401.4-70.8,401.4-70.9,401.4z"/>
<path class="st0" d="M-61.9,401.8c0.1,0.1,0.2,0.2,0.4,0.2s0.3-0.1,0.3-0.2c0-0.2-0.5-0.3-0.5-0.3v-0.1c0,0,0.5-0.1,0.5-0.2
	s-0.1-0.2-0.2-0.2s-0.2,0-0.3,0.1l-0.1-0.1c0.1-0.1,0.3-0.2,0.4-0.1c0.3,0,0.2,0.2,0.2,0.4s0,0.3-0.5,0.3c0.5,0.1,0.5,0.2,0.5,0.4
	c0,0.3-0.1,0.4-0.4,0.4c-0.2,0-0.3-0.1-0.4-0.2L-61.9,401.8L-61.9,401.8z"/>
<path class="st1" d="M-61.5,400.6c-0.2,0-0.3,0.1-0.4,0.2l0.1,0.1c0.1-0.1,0.2-0.1,0.3-0.1c0.2,0,0.2,0.1,0.2,0.2
	c0,0.2-0.5,0.2-0.5,0.2v0.1c0.5,0,0.5-0.1,0.5-0.3C-61.2,400.8-61.2,400.7-61.5,400.6L-61.5,400.6z M-61.8,401.4
	c0,0.1,0.5,0.2,0.5,0.4c0,0.2-0.1,0.2-0.2,0.2c-0.2,0-0.3-0.1-0.4-0.2l-0.2,0.1c0.1,0.1,0.2,0.2,0.4,0.2s0.3-0.1,0.4-0.4
	C-61.2,401.6-61.3,401.4-61.8,401.4z"/>
<path class="st0" d="M-65.8,405.6c-0.1-0.1-0.1-0.1-0.2-0.1c-0.2,0-0.4,0.2-0.4,0.6c0.1-0.1,0.2-0.2,0.3-0.2c0.3,0,0.4,0.2,0.4,0.4
	c0,0.3-0.2,0.5-0.4,0.5c-0.3,0-0.5-0.2-0.5-0.7c0-0.6,0.3-0.8,0.6-0.8c0.2,0,0.3,0.1,0.4,0.2C-65.6,405.5-65.8,405.6-65.8,405.6z
	 M-65.8,406.4c0-0.2-0.1-0.3-0.3-0.3c-0.1,0-0.2,0.1-0.3,0.2c0,0.3,0.1,0.4,0.3,0.4C-66,406.7-65.8,406.6-65.8,406.4z"/>
<path class="st1" d="M-66,405.4c-0.3,0-0.6,0.2-0.6,0.8c0,0.5,0.2,0.7,0.5,0.7c0.2,0,0.4-0.2,0.4-0.5c0-0.3-0.2-0.4-0.4-0.4
	c-0.1,0-0.2,0.1-0.3,0.2c0-0.5,0.2-0.6,0.4-0.6c0.1,0,0.2,0,0.2,0.1l0.1-0.1C-65.8,405.4-65.9,405.4-66,405.4z M-66.1,406.7
	c-0.2,0-0.3-0.2-0.3-0.4c0.1-0.1,0.2-0.2,0.3-0.2c0.2,0,0.3,0.1,0.3,0.3C-65.8,406.6-66,406.7-66.1,406.7z"/>
<path class="st0" d="M-65.8,400.8l0.1,0.3l-4.7,3.4L-65.8,400.8z"/>
<path class="st1" d="M-65.8,400.8l-4.6,3.7l4.7-3.4C-65.7,401.1-65.8,400.8-65.8,400.8z"/>
<g>
	<path class="st0" d="M-66.1,401.8h-0.3l0.1-4.3L-66.1,401.8z"/>
	<path class="st1" d="M-66.3,397.5l-0.1,4.3h0.3C-66.1,401.8-66.3,397.5-66.3,397.5z"/>
</g>
<g>
	<path class="st0" d="M-50.7,467c-3.5,0-7-0.8-10.4-1.8c-5.1-1.5-7.6-2.2-10.1-4.3c-2.2-1.9-2.8-3.5-3.6-5.5c-0.8-2-1.7-4.6-4.7-8.1
		l-0.1-0.1c-0.7-0.8-1.8-2.1-1.6-3c0.1-0.3,0.6-1,3.7-1.6c1.9-0.4,4.9-0.5,8.6-0.5c4.4,0,9.9,0.2,16.3,0.7c11,0.8,22.2,2.2,32.4,4
		c13.2,2.3,28.6,5.9,31.1,8.4c0.2,0.2,0.3,0.3,0.3,0.4c0,0.4-0.7,1-1.2,1.4l-0.2,0.2c-0.2,0.1-0.3,0.2-0.4,0.4
		c-0.1,0.1-0.4,0.6-2.8,2.9c-2.9,2.8-6,5.7-6.4,6c-0.1,0.1-0.3,0.2-0.5,0.4l-0.1,0.1L-50.7,467L-50.7,467z"/>
	<path class="st1" d="M-68.8,442.9c4.4,0,9.8,0.2,16.2,0.7c10.9,0.8,22.1,2.2,32.4,4c15.6,2.7,28.4,6.1,30.6,8.2
		c-0.2,0.2-0.6,0.5-0.8,0.7l-0.2,0.2c-0.2,0.2-0.4,0.3-0.5,0.6c-0.1,0.1-0.6,0.7-2.7,2.7c-3,2.9-5.9,5.4-6.3,5.7
		c-0.1,0.1-0.3,0.3-0.5,0.3h-50.1c-3.5,0-6.9-0.7-10.2-1.7c-5.1-1.5-7.5-2.1-9.8-4.1c-2.1-1.8-2.6-3.1-3.4-5.1
		c-0.8-2.1-1.8-4.7-4.8-8.3l-0.1-0.1c-0.4-0.5-1.6-1.8-1.4-2.3c0,0,0.4-0.6,3.1-1.1C-75.4,443.1-72.5,442.9-68.8,442.9 M-68.8,441.4
		c-3.5,0-6.6,0.2-8.8,0.6c-2.9,0.5-4,1.3-4.3,2.1c-0.4,1.3,0.9,2.8,1.8,3.8c5.8,6.8,3.6,9.6,8.4,13.6c2.6,2.2,5.2,3,10.4,4.5
		c4.3,1.2,8,2,10.6,2H0.2c0.1,0,0.2-0.4,0.2-0.5c0.1-0.2,0.3-0.3,0.3-0.3c0.5-0.3,3.7-3.4,6.5-6.1c3.9-3.8,2.6-2.8,3.1-3.3
		c0.8-0.6,1.7-1.3,1.7-2.2c0-0.3-0.2-0.6-0.5-0.9c-2.9-2.9-19.3-6.5-31.5-8.7c-10.6-1.9-21.9-3.2-32.5-4
		C-57.9,441.7-63.8,441.4-68.8,441.4z"/>
</g>
<g>
	<path class="st0" d="M-71.3,467c-1.3,0-2.7-0.4-2.7-0.6v-4.6c0-0.2,1.2-0.5,2.6-0.6c13.1-1.1,26.7-1.7,40.5-1.7s27.4,0.6,40.5,1.7
		c1.4,0.1,2.5,0.5,2.5,0.8v4.5c0,0.2-1.1,0.6-2.4,0.6h-81L-71.3,467z"/>
	<path class="st1" d="M-30.9,460.2c13.7,0,27.2,0.6,40.3,1.7c0.9,0.1,1.7,0.3,1.7,0.4v3.6c0,0.1-0.7,0-1.4,0h-81
		c-0.8,0-1.7,0.1-1.7,0v-3.7c0-0.1,1-0.3,1.8-0.4C-58.2,460.8-44.7,460.2-30.9,460.2 M-30.9,458.7c-13.7,0-27.5,0.6-40.7,1.7
		c-1.7,0.2-3.4,0.7-3.4,1.2v5c0,0.5,2,1.4,3.7,1.4H9.6c1.8,0,3.4-0.9,3.4-1.4v-5c-1-0.5-1.6-1-3.3-1.2
		C-3.5,459.3-17.3,458.7-30.9,458.7z"/>
</g>
<g>
	<path class="st0" d="M-78,478v-4h1.9l-1,4H-78z"/>
	<path class="st1" d="M-75.2,473H-78v5h1.4L-75.2,473z"/>
</g>
<g>
	<path class="st0" d="M-78,468h90v4h-90V468z"/>
	<path class="st1" d="M11,468v3h-88v-3H11 M13,467h-91v6h91V467z"/>
</g>
<g>
	<path class="st0" d="M9.3,474c-2-15,0.5-20.3,2.2-22.2c0.9-1,1.9-1.7,3.1-1.7c1.1,0,2.2,0.5,3,1.4c1.9,2,1.3,3.3-0.5,5.8
		c-2.1,3.1-5.3,7.7-2,16.7H9.3z"/>
	<path class="st1" d="M14.6,450.8c0.9,0,1.8,0.4,2.5,1.2c1.5,1.6,1.1,2.3-0.6,4.8c-2.1,3.1-5.2,7.3-2.4,16.3H10
		c-1.9-15,0.8-19.4,2.1-20.9C12.8,451.3,13.7,450.8,14.6,450.8 M14.6,449.1c-4.1,0-8.7,5.9-5.9,24.9h7.5c-6.5-16,7.6-17.5,1.9-23.4
		C17.2,449.6,15.9,449.1,14.6,449.1z"/>
</g>
<g>
	<path class="st0" d="M-79.8,473c3.3-9,0.1-13.7-2-16.8c-1.8-2.5-2.4-3.8-0.5-5.7c0.9-0.9,2-1.5,3-1.5c1.1,0,2.2,0.7,3.1,1.7
		c1.7,2,4.2,7.2,2.2,22.2L-79.8,473L-79.8,473z"/>
	<path class="st1" d="M-79.3,449.8c0.9,0,1.7,0.5,2.5,1.4c1.3,1.5,4,5.9,2.1,20.9h-4.1c2.8-9-0.3-13.2-2.4-16.3
		c-1.7-2.5-2.1-3.2-0.6-4.7C-81,450.2-80.1,449.8-79.3,449.8 M-79.3,448.1c-1.3,0-2.6,0.5-3.6,1.6c-5.6,5.9,8.4,7.4,1.9,23.4h7.5
		C-70.6,454-75.2,448.1-79.3,448.1z"/>
</g>
<g>
	<path class="st0" d="M-66.6,460.5c0.3-4.4,0-8.8-0.7-13.1c2,0.2,4,0.2,5.9,0.2c5.2,0,10.3-0.5,15.6-1.6c-0.3,4.4,0,8.8,0.7,13.1
		c-2-0.2-4-0.2-5.9-0.2C-56.2,458.8-61.3,459.4-66.6,460.5z"/>
	<path class="st1" d="M-46.5,446.8c-0.2,3.8,0,7.6,0.6,11.4c-1.7-0.1-3.4-0.2-5-0.2c-5,0-9.8,0.5-14.8,1.5c0.2-3.8,0-7.6-0.6-11.4
		c1.7,0.1,3.4,0.2,5,0.2C-56.4,448.3-51.5,447.8-46.5,446.8 M-44.9,445c-5.5,1.2-10.9,1.8-16.4,1.8c-2.3,0-4.5-0.1-6.8-0.3
		c0.9,4.9,1.2,9.9,0.8,14.9c5.5-1.2,10.9-1.8,16.4-1.8c2.3,0,4.5,0.1,6.8,0.3C-45,455-45.3,450-44.9,445z"/>
</g>
<g>
	<path class="st0" d="M-64.1,459.6c-0.4,0.1-0.9,0.1-1.3,0.2c0.2-4.3,0-8.7-0.8-12.9c0.4,0,0.9,0,1.3,0.1
		C-64.2,451.1-64,455.4-64.1,459.6L-64.1,459.6z"/>
	<path class="st1" d="M-66.2,446.9c0.7,4.3,1,8.6,0.8,12.9c0.4-0.1,0.9-0.2,1.3-0.2c0.2-4.2-0.1-8.5-0.7-12.6
		C-65.3,447-65.7,446.9-66.2,446.9L-66.2,446.9z"/>
</g>
<g>
	<path class="st0" d="M-61.8,459.3c-0.4,0.1-0.9,0.1-1.3,0.2c0.1-4.2-0.1-8.3-0.7-12.4h1.3C-62,451.1-61.8,455.2-61.8,459.3z"/>
	<path class="st1" d="M-63.9,447c0.6,4.1,0.8,8.3,0.7,12.4c0.4-0.1,0.9-0.1,1.3-0.2c0-4.1-0.2-8.2-0.7-12.2H-63.9z"/>
</g>
<g>
	<path class="st0" d="M-48.5,459.6h-1.3c-0.5-4-0.8-8.2-0.7-12.2c0.4-0.1,0.9-0.1,1.3-0.2C-49.3,451.3-49,455.5-48.5,459.6z"/>
	<path class="st1" d="M-49.2,447.1c-0.4,0.1-0.9,0.1-1.3,0.2c0,4.1,0.2,8.2,0.7,12.2h1.3C-49,455.5-49.3,451.3-49.2,447.1z"/>
</g>
<g>
	<path class="st0" d="M-46.1,459.7c-0.4,0-0.9,0-1.3-0.1c-0.7-4.2-0.9-8.4-0.7-12.6c0.4-0.1,0.9-0.1,1.3-0.2
		C-47.1,451.1-46.9,455.4-46.1,459.7L-46.1,459.7z"/>
	<path class="st1" d="M-46.9,446.8c-0.4,0.1-0.9,0.2-1.3,0.2c-0.2,4.2,0.1,8.5,0.7,12.6c0.4,0,0.9,0,1.3,0.1
		C-46.9,455.4-47.1,451.1-46.9,446.8L-46.9,446.8z"/>
</g>
<g>
	<path class="st0" d="M12.6,478l-1-3H13v3H12.6z"/>
	<path class="st1" d="M14,474h-3.3l1.3,5h2V474z"/>
</g>
<g>
	<path class="st1" d="M-66.6,396.5l-0.2,0.1v-0.1H-66.6L-66.6,396.5l0.1,1h-0.1V396.5z M-66.1,397.5l0.1-0.2
		c0.3-0.3,0.4-0.4,0.4-0.6c0-0.1-0.1-0.2-0.2-0.2s-0.2,0.1-0.2,0.1v-0.1c0.1-0.1,0.2-0.1,0.3-0.1c0.2,0,0.3,0.2,0.3,0.3
		c0,0.2-0.1,0.4-0.4,0.6l-0.1,0.1h0.5v0.1L-66.1,397.5L-66.1,397.5z"/>
</g>
<g>
	
		<linearGradient id="SVGID_1_" gradientUnits="userSpaceOnUse" x1="-474.5374" y1="1074.7023" x2="-474.3814" y2="1074.7023" gradientTransform="matrix(25.3507 4.1922 4.1922 -25.3507 7531.7021 29666.3223)">
		<stop  offset="0" style="stop-color:#000000"/>
		<stop  offset="1" style="stop-color:#484848"/>
	</linearGradient>
	<path class="st4" d="M9.6,435.9c-0.8-0.4-2.4-1.2-2-3.8s1.8-3,2.8-1.4C11.5,432.2,11.4,436.7,9.6,435.9z"/>
	
		<linearGradient id="SVGID_2_" gradientUnits="userSpaceOnUse" x1="-533.6424" y1="526.0863" x2="-533.4864" y2="526.0863" gradientTransform="matrix(-26.1987 43.9661 43.9661 26.1987 -37091.8359 10114.6582)">
		<stop  offset="0" style="stop-color:#FFDFB2"/>
		<stop  offset="1" style="stop-color:#FBBB6C"/>
	</linearGradient>
	<path class="st5" d="M20.5,437.3c-3.4-1.8-8.3-4-10.1-6.6c-0.6,0.7-1,3.7-0.9,5.2c2.1,0.7,7.8,5.3,10,6.7c-0.6,3.4,3.4,6.1,3.8,3.8
		c0.5-3.1,1-4.2,0.9-5.4C24.3,439.7,22.5,438.3,20.5,437.3z"/>
	
		<linearGradient id="SVGID_3_" gradientUnits="userSpaceOnUse" x1="-474.5363" y1="1075.7034" x2="-474.3802" y2="1075.7034" gradientTransform="matrix(25.35 4.192 4.192 -25.35 7526.7217 29695.4902)">
		<stop  offset="0" style="stop-color:#000000"/>
		<stop  offset="1" style="stop-color:#484848"/>
	</linearGradient>
	<path class="st6" d="M8.9,440.5c-0.9-0.3-2.4-1.2-2-3.8s1.8-2.7,2.8-1.4C10.9,436.8,10.3,441.1,8.9,440.5z"/>
	
		<linearGradient id="SVGID_4_" gradientUnits="userSpaceOnUse" x1="-536.8237" y1="544.9067" x2="-536.6677" y2="544.9067" gradientTransform="matrix(-15.7415 26.1156 26.1156 15.7415 -22664.5078 5883.1323)">
		<stop  offset="0" style="stop-color:#FFDFB2"/>
		<stop  offset="1" style="stop-color:#FBBB6C"/>
	</linearGradient>
	<path class="st7" d="M19.8,441.9c-3.4-1.8-8.3-4-10.1-6.6c-0.6,0.7-1,3.7-0.9,5.2c2.1,0.7,7.8,5.3,10,6.7c0.3,1.4,4,2.4,4.4,0.1
		c0.1-0.3,0.2-1.2,0.3-1.7C23.8,444.3,21.7,442.9,19.8,441.9L19.8,441.9z"/>
	
		<linearGradient id="SVGID_5_" gradientUnits="userSpaceOnUse" x1="-530.3396" y1="502.8393" x2="-530.1836" y2="502.8393" gradientTransform="matrix(-144.3675 226.76 226.76 144.3675 -190511.7344 48060.043)">
		<stop  offset="0" style="stop-color:#7E3D1B"/>
		<stop  offset="1" style="stop-color:#3F160A"/>
	</linearGradient>
	<path class="st8" d="M76.6,392.3c-12.6-7.3-26.3-2.2-34,10.8c-4.3,7.3-5.1,12.5-4.5,16.8c1,6.9,24.7,22.1,32.9,18.8
		C79.4,435.3,100.3,406.1,76.6,392.3z"/>
	<path class="st9" d="M54.2,444.5c-1.3-0.3-2.2,0.3-2.6,1.5c-0.2,0.5-2.5,7.5-2.5,7.5c-0.2,0.7-1,1.2-1.8,1l-3.4-0.7l-0.4,1.2
		l3.4,0.7l3.8,0.8c1.4,0.3,2.9-0.6,3.3-1.9l2.5-7.5C56.9,446,55.8,444.8,54.2,444.5z"/>
	
		<linearGradient id="SVGID_6_" gradientUnits="userSpaceOnUse" x1="-531.8763" y1="1098.6116" x2="-531.7203" y2="1098.6116" gradientTransform="matrix(49.06 -145.39 149.14 31.028 -137712.625 -110938.1641)">
		<stop  offset="0" style="stop-color:#000000"/>
		<stop  offset="1" style="stop-color:#484848"/>
	</linearGradient>
	<path class="st10" d="M54,454.5c0,0,2.4-7,2.5-7.5c0.2-0.5,0.2-2-2.4-2.5c1,0.4,1.6,1.1,1.2,2.3c-0.2,0.5-2.5,7.5-2.5,7.5
		c-0.2,0.7-1,1.2-1.8,1l-7.3-1.5l-0.4,1.2l7.3,1.5C52.1,456.7,53.6,455.9,54,454.5z"/>
	<path class="st11" d="M60.8,431.3c-8.2-1.8-14.1,1.4-20,13.6c-1.7,3.6,2.3,5.3,10.1,6.9c7.8,1.6,11.3,1.5,13-2.1
		C70.1,436.8,69,432.9,60.8,431.3L60.8,431.3z"/>
	
		<linearGradient id="SVGID_7_" gradientUnits="userSpaceOnUse" x1="-525.0441" y1="520.9861" x2="-524.8881" y2="520.9861" gradientTransform="matrix(-11.0959 53.3361 53.3361 11.0959 -33567.4141 22666.8281)">
		<stop  offset="0" style="stop-color:#6BC9F2"/>
		<stop  offset="1" style="stop-color:#327EC0"/>
	</linearGradient>
	<path class="st12" d="M57.7,453.7c-0.1,0.6-0.8,1.1-1.4,0.9l-24.5-5.1c-0.6-0.1-1.1-0.8-0.9-1.4l0.3-1.7c0.1-0.6,0.8-1.1,1.4-0.9
		l24.5,5.1c0.6,0.1,1.1,0.8,0.9,1.4L57.7,453.7z"/>
	
		<linearGradient id="SVGID_8_" gradientUnits="userSpaceOnUse" x1="-538.1318" y1="457.509" x2="-537.9758" y2="457.509" gradientTransform="matrix(6.1408 -29.518 -29.518 -6.1408 16856.1191 -12610.4082)">
		<stop  offset="0" style="stop-color:#515050"/>
		<stop  offset="1" style="stop-color:#99999A"/>
	</linearGradient>
	<path class="st13" d="M46.7,461.6c-0.1,0.5-0.2,1.5,0,1.5c0.3,0.1,0.4,0.1,0.5,0.1c0.3,0.1,0.7-0.5,0.9-1.3c0.2-0.8,0-1.5-0.3-1.6
		c-0.2,0-0.3-0.1-0.5-0.1C47.1,460.1,46.8,461.1,46.7,461.6L46.7,461.6z"/>
	
		<linearGradient id="SVGID_9_" gradientUnits="userSpaceOnUse" x1="-538.4418" y1="457.4115" x2="-538.2858" y2="457.4115" gradientTransform="matrix(6.1408 -29.518 -29.518 -6.1408 16854.9844 -12621.9932)">
		<stop  offset="0" style="stop-color:#515050"/>
		<stop  offset="1" style="stop-color:#99999A"/>
	</linearGradient>
	<path class="st14" d="M46.2,461.4c-0.1,0.5-0.2,1.5,0,1.5s0.4,0.1,0.5,0.1c0.3,0.1,0.7-0.5,0.9-1.3s0-1.5-0.3-1.6
		c-0.2,0-0.3-0.1-0.5-0.1S46.3,461,46.2,461.4L46.2,461.4z"/>
	
		<linearGradient id="SVGID_10_" gradientUnits="userSpaceOnUse" x1="-538.1318" y1="457.3179" x2="-537.9758" y2="457.3179" gradientTransform="matrix(6.1408 -29.518 -29.518 -6.1408 16849.3691 -12611.833)">
		<stop  offset="0" style="stop-color:#515050"/>
		<stop  offset="1" style="stop-color:#99999A"/>
	</linearGradient>
	<path class="st15" d="M45.6,461.3c-0.1,0.5-0.2,1.5,0,1.5c0.3,0.1,0.4,0.1,0.5,0.1c0.3,0.1,0.7-0.5,0.9-1.3c0.2-0.8,0-1.5-0.3-1.6
		c-0.2,0-0.3-0.1-0.5-0.1C46.1,459.9,45.7,460.9,45.6,461.3L45.6,461.3z"/>
	
		<linearGradient id="SVGID_11_" gradientUnits="userSpaceOnUse" x1="-522.4535" y1="1132.8383" x2="-522.2975" y2="1132.8383" gradientTransform="matrix(-5.898 28.351 28.351 5.898 -35151.9336 8589.0615)">
		<stop  offset="0" style="stop-color:#515050"/>
		<stop  offset="1" style="stop-color:#99999A"/>
	</linearGradient>
	<path class="st16" d="M45.4,461.3c-0.2,0.8,0,1.5,0.3,1.6s0.7-0.5,0.9-1.3c0.2-0.8,0-1.5-0.3-1.6C46,459.9,45.6,460.5,45.4,461.3z"
		/>
	
		<linearGradient id="SVGID_12_" gradientUnits="userSpaceOnUse" x1="-538.1318" y1="455.7237" x2="-537.9758" y2="455.7237" gradientTransform="matrix(6.1408 -29.518 -29.518 -6.1408 16793.7051 -12623.4043)">
		<stop  offset="0" style="stop-color:#515050"/>
		<stop  offset="1" style="stop-color:#99999A"/>
	</linearGradient>
	<path class="st17" d="M37,459.5c-0.1,0.5-0.2,1.5,0,1.5c0.3,0.1,0.4,0.1,0.5,0.1c0.3,0.1,0.7-0.5,0.9-1.3s0-1.5-0.3-1.6
		c-0.2,0-0.3-0.1-0.5-0.1S37.1,459.1,37,459.5L37,459.5z"/>
	
		<linearGradient id="SVGID_13_" gradientUnits="userSpaceOnUse" x1="-538.4418" y1="455.628" x2="-538.2858" y2="455.628" gradientTransform="matrix(6.1408 -29.518 -29.518 -6.1408 16792.543 -12634.9639)">
		<stop  offset="0" style="stop-color:#515050"/>
		<stop  offset="1" style="stop-color:#99999A"/>
	</linearGradient>
	<path class="st18" d="M36.4,459.4c-0.1,0.5-0.2,1.5,0,1.5c0.3,0.1,0.4,0.1,0.5,0.1c0.3,0.1,0.7-0.5,0.9-1.3s0-1.5-0.3-1.6
		c-0.2,0-0.3-0.1-0.5-0.1C36.9,458,36.5,459,36.4,459.4L36.4,459.4z"/>
	
		<linearGradient id="SVGID_14_" gradientUnits="userSpaceOnUse" x1="-538.1318" y1="455.5312" x2="-537.9758" y2="455.5312" gradientTransform="matrix(6.1408 -29.518 -29.518 -6.1408 16786.9258 -12624.8047)">
		<stop  offset="0" style="stop-color:#515050"/>
		<stop  offset="1" style="stop-color:#99999A"/>
	</linearGradient>
	<path class="st19" d="M35.9,459.3c-0.1,0.5-0.2,1.5,0,1.5c0.3,0.1,0.4,0.1,0.5,0.1c0.3,0.1,0.7-0.5,0.9-1.3c0.2-0.8,0-1.5-0.3-1.6
		c-0.2,0-0.3-0.1-0.5-0.1S36,458.9,35.9,459.3L35.9,459.3z"/>
	
		<linearGradient id="SVGID_15_" gradientUnits="userSpaceOnUse" x1="-522.4535" y1="1134.6943" x2="-522.2975" y2="1134.6943" gradientTransform="matrix(-5.898 28.351 28.351 5.898 -35214.3438 8576.0586)">
		<stop  offset="0" style="stop-color:#515050"/>
		<stop  offset="1" style="stop-color:#99999A"/>
	</linearGradient>
	<path class="st20" d="M35.6,459.3c-0.2,0.8,0,1.5,0.3,1.6s0.7-0.5,0.9-1.3c0.2-0.8,0-1.5-0.3-1.6C36.2,457.8,35.8,458.4,35.6,459.3
		z"/>
	
		<linearGradient id="SVGID_16_" gradientUnits="userSpaceOnUse" x1="-523.5605" y1="1126.9042" x2="-523.4045" y2="1126.9042" gradientTransform="matrix(-6.9054 33.1933 33.1933 6.9054 -40975.9102 10054.2744)">
		<stop  offset="0" style="stop-color:#515050"/>
		<stop  offset="1" style="stop-color:#99999A"/>
	</linearGradient>
	<path class="st21" d="M47,460.1l-4.8,0.2l0.6-3l4.3,1.9L47,460.1z"/>
	
		<linearGradient id="SVGID_17_" gradientUnits="userSpaceOnUse" x1="-527.5154" y1="514.5844" x2="-527.3594" y2="514.5844" gradientTransform="matrix(-15.4244 74.1426 74.1426 15.4244 -46246.2969 31628.9668)">
		<stop  offset="0" style="stop-color:#000000"/>
		<stop  offset="1" style="stop-color:#484848"/>
	</linearGradient>
	<path class="st22" d="M44.2,458.6l-4-0.8l1.3-6.3l4,0.9L44.2,458.6z"/>
	
		<linearGradient id="SVGID_18_" gradientUnits="userSpaceOnUse" x1="-523.6488" y1="529.937" x2="-523.4928" y2="529.937" gradientTransform="matrix(-8.002 38.4645 38.4645 8.002 -24530.1289 16351.4375)">
		<stop  offset="0" style="stop-color:#000000"/>
		<stop  offset="1" style="stop-color:#484848"/>
	</linearGradient>
	<path class="st23" d="M45.5,455.7l-5.4-1.1l0.7-3.2l5.4,1.1L45.5,455.7z"/>
	
		<linearGradient id="SVGID_19_" gradientUnits="userSpaceOnUse" x1="-523.5062" y1="1046.1536" x2="-523.3502" y2="1046.1536" gradientTransform="matrix(-5.898 28.35 -28.35 -5.898 26607.1914 21473.5957)">
		<stop  offset="0" style="stop-color:#000000"/>
		<stop  offset="1" style="stop-color:#484848"/>
	</linearGradient>
	<path class="st24" d="M31.9,457.7l10.3,2.1l0.5-2.5l-10.6-0.5L31.9,457.7z"/>
	
		<linearGradient id="SVGID_20_" gradientUnits="userSpaceOnUse" x1="-523.5062" y1="543.2283" x2="-523.3502" y2="543.2283" gradientTransform="matrix(-5.8972 28.3471 28.3471 5.8972 -18454.9648 12097.4238)">
		<stop  offset="0" style="stop-color:#000000"/>
		<stop  offset="1" style="stop-color:#484848"/>
	</linearGradient>
	<circle class="st25" cx="31.6" cy="459.2" r="1.5"/>
	
		<linearGradient id="SVGID_21_" gradientUnits="userSpaceOnUse" x1="-523.5058" y1="1132.6045" x2="-523.3498" y2="1132.6045" gradientTransform="matrix(-5.8976 28.349 28.349 5.8976 -35149.0508 8625.4756)">
		<stop  offset="0" style="stop-color:#000000"/>
		<stop  offset="1" style="stop-color:#484848"/>
	</linearGradient>
	<path class="st26" d="M52.5,462l-10.3-2.2l0.5-2.5l10,3.8L52.5,462z"/>
	
		<linearGradient id="SVGID_22_" gradientUnits="userSpaceOnUse" x1="-523.5063" y1="1131.6227" x2="-523.3503" y2="1131.6227" gradientTransform="matrix(-5.8977 28.347 28.347 5.8977 -35113.7891 8631.2998)">
		<stop  offset="0" style="stop-color:#000000"/>
		<stop  offset="1" style="stop-color:#484848"/>
	</linearGradient>
	<circle class="st27" cx="52.2" cy="463.5" r="1.5"/>
	
		<linearGradient id="SVGID_23_" gradientUnits="userSpaceOnUse" x1="-508.9577" y1="620.5191" x2="-508.8017" y2="620.5191" gradientTransform="matrix(-2.0918 10.0547 10.0547 2.0918 -7263.105 4280.7563)">
		<stop  offset="0" style="stop-color:#000000"/>
		<stop  offset="1" style="stop-color:#484848"/>
	</linearGradient>
	<path class="st28" d="M40.5,460l0.8,0.2l0.2-0.9l-0.8-0.2L40.5,460z"/>
	
		<linearGradient id="SVGID_24_" gradientUnits="userSpaceOnUse" x1="-523.5702" y1="1053.4016" x2="-523.4142" y2="1053.4016" gradientTransform="matrix(-6.905 33.192 -33.192 -6.905 31391.6699 25109.1816)">
		<stop  offset="0" style="stop-color:#000000"/>
		<stop  offset="1" style="stop-color:#484848"/>
	</linearGradient>
	<path class="st29" d="M41.3,460.2l0.9,0.2l0.6-3l-1.3,1.9L41.3,460.2z"/>
	
		<linearGradient id="SVGID_25_" gradientUnits="userSpaceOnUse" x1="-520.2601" y1="1037.2267" x2="-520.1041" y2="1037.2267" gradientTransform="matrix(-4.813 23.137 -23.137 -4.813 21536.4141 17485.9277)">
		<stop  offset="0" style="stop-color:#000000"/>
		<stop  offset="1" style="stop-color:#484848"/>
	</linearGradient>
	<path class="st30" d="M40.7,459.1l0.8,0.2l1.3-1.9l-0.8-0.2L40.7,459.1z"/>
	
		<linearGradient id="SVGID_26_" gradientUnits="userSpaceOnUse" x1="-538.7509" y1="449.905" x2="-538.5949" y2="449.905" gradientTransform="matrix(5.3453 -25.6939 -25.6939 -5.3453 14478.5254 -10972.5586)">
		<stop  offset="0" style="stop-color:#000000"/>
		<stop  offset="1" style="stop-color:#484848"/>
	</linearGradient>
	<path class="st31" d="M40.5,461.5c-0.1,0.5-0.3,1.5-0.6,1.4c-0.3-0.1-0.7-0.1-0.8-0.2c-0.2-0.1-0.3-0.7-0.1-1.6
		c0.2-0.8,0.5-1.4,0.8-1.4c0.1,0,0.6,0.1,0.8,0.2C40.8,460.1,40.6,461.2,40.5,461.5L40.5,461.5z"/>
	
		<linearGradient id="SVGID_27_" gradientUnits="userSpaceOnUse" x1="-536.4515" y1="1123.572" x2="-536.2955" y2="1123.572" gradientTransform="matrix(7.718 -37.1 37.1 7.718 -37504.3398 -28109.1758)">
		<stop  offset="0" style="stop-color:#000000"/>
		<stop  offset="1" style="stop-color:#484848"/>
	</linearGradient>
	<path class="st32" d="M41.3,461.7c-0.1,0.5-0.3,1.5-0.6,1.4s-0.7-0.1-0.8-0.2c-0.2-0.1-0.3-0.7-0.1-1.6c0.2-0.8,0.5-1.4,0.8-1.4
		c0.1,0,0.6,0.1,0.8,0.2S41.4,461.4,41.3,461.7L41.3,461.7z"/>
	
		<linearGradient id="SVGID_28_" gradientUnits="userSpaceOnUse" x1="-538.7509" y1="450.2479" x2="-538.5949" y2="450.2479" gradientTransform="matrix(5.3453 -25.6939 -25.6939 -5.3453 14488.9404 -10970.3564)">
		<stop  offset="0" style="stop-color:#000000"/>
		<stop  offset="1" style="stop-color:#484848"/>
	</linearGradient>
	<path class="st33" d="M42.1,461.9c-0.1,0.5-0.3,1.5-0.6,1.4c-0.3-0.1-0.7-0.1-0.8-0.2c-0.2-0.1-0.3-0.7-0.1-1.6
		c0.2-0.8,0.5-1.4,0.8-1.4c0.1,0,0.6,0.1,0.8,0.2C42.4,460.4,42.2,461.6,42.1,461.9L42.1,461.9z"/>
	
		<linearGradient id="SVGID_29_" gradientUnits="userSpaceOnUse" x1="-523.6032" y1="1047.1526" x2="-523.4472" y2="1047.1526" gradientTransform="matrix(-5.898 28.35 -28.35 -5.898 26640.0176 21483.9707)">
		<stop  offset="0" style="stop-color:#000000"/>
		<stop  offset="1" style="stop-color:#484848"/>
	</linearGradient>
	<path class="st34" d="M42.3,461.9c-0.2,0.8-0.5,1.4-0.8,1.4c-0.2-0.1-0.3-0.7-0.1-1.6c0.2-0.8,0.5-1.4,0.8-1.4
		C42.4,460.4,42.5,461.1,42.3,461.9z"/>
	
		<linearGradient id="SVGID_30_" gradientUnits="userSpaceOnUse" x1="-530.6734" y1="1121.2715" x2="-530.5164" y2="1121.2715" gradientTransform="matrix(14.427 -40.374 37.157 20.204 -33960.3086 -43642.918)">
		<stop  offset="0" style="stop-color:#FFFFFF"/>
		<stop  offset="1" style="stop-color:#D3D3D3"/>
	</linearGradient>
	<path class="st35" d="M43.5,425c-1.4,1.9-6.3,13.6-1.8,16.2s12.2-7.1,14.5-9.1C58.4,430.1,45,422.9,43.5,425z"/>
	
		<linearGradient id="SVGID_31_" gradientUnits="userSpaceOnUse" x1="-534.6069" y1="486.4207" x2="-534.4509" y2="486.4207" gradientTransform="matrix(12.8661 -108.1715 -108.1715 -12.8661 59531.3672 -51120.8438)">
		<stop  offset="0" style="stop-color:#000000"/>
		<stop  offset="1" style="stop-color:#484848"/>
	</linearGradient>
	<path class="st36" d="M48.7,445.3c0,0,1.6,6.4-2.7,5.5s-16.8-3.5-19.8-4.1s-2.3-6.6,1.7-5.7C31.9,441.8,48.7,445.3,48.7,445.3z"/>
	
		<linearGradient id="SVGID_32_" gradientUnits="userSpaceOnUse" x1="-523.4225" y1="496.3618" x2="-523.2665" y2="496.3618" gradientTransform="matrix(179.0857 37.2564 37.2564 -179.0857 75264.3672 108833.7031)">
		<stop  offset="0" style="stop-color:#000000"/>
		<stop  offset="1" style="stop-color:#484848"/>
	</linearGradient>
	<path class="st37" d="M35.3,442.5l-7-1.5l-4.6-2.5c-4-0.8-5.2,6.8-2.2,7.4l13.1,2.4C37.6,449.1,39.3,443.4,35.3,442.5L35.3,442.5z"
		/>
	
		<linearGradient id="SVGID_33_" gradientUnits="userSpaceOnUse" x1="-555.499" y1="1092.9176" x2="-555.343" y2="1092.9176" gradientTransform="matrix(-304.6458 60.2883 60.2883 304.6458 -236268.2969 -298783.5312)">
		<stop  offset="0" style="stop-color:#000000"/>
		<stop  offset="1" style="stop-color:#484848"/>
	</linearGradient>
	<path class="st38" d="M73,437.6c-0.6,2.6-5.4,0.4-13.9-3.8c-2.8-1.4-5.5,1.9-3.3,3.6c13.1,10,26.6,11.8,24.3-7.2
		C77.7,433.4,75.1,436.1,73,437.6z"/>
	
		<linearGradient id="SVGID_34_" gradientUnits="userSpaceOnUse" x1="-527.3007" y1="509.3997" x2="-527.1447" y2="509.3997" gradientTransform="matrix(-28.362 113.6691 113.6691 28.362 -72817.9531 45902.3242)">
		<stop  offset="0" style="stop-color:#000000"/>
		<stop  offset="1" style="stop-color:#484848"/>
	</linearGradient>
	<path class="st39" d="M44.2,425.7c-4.6-4.4-6.1-7-6.3-8.8c0.1-2.9,0.8-6.3,2.8-10.4c-13.4,1-12,12.9,1.3,22.2
		C44.3,430.4,46.5,427.9,44.2,425.7z"/>
	
		<linearGradient id="SVGID_35_" gradientUnits="userSpaceOnUse" x1="-526.6274" y1="1092.8438" x2="-526.4714" y2="1092.8438" gradientTransform="matrix(123.536 217.637 267.337 -103.8 -227062.625 228471.7031)">
		<stop  offset="0" style="stop-color:#000000"/>
		<stop  offset="1" style="stop-color:#484848"/>
	</linearGradient>
	<path class="st40" d="M43.6,427.6c-0.4,1.1-3.3,9.6-2.8,11.1c3.4-1.7,14.7-7.4,15.4-7.7c0.6-0.3,2.3,2,2.9,2.7
		c0.6,0.7-7.7,7.9-8.5,10.5c-0.7,2.4-0.5,5.8-0.5,5.8l-14.9-7.9c0,0,2.6-4.2,3-5.1c-0.8-0.8-1.5-3.5-1-5.1c0.6-1.9,3.3-3.5,5.3-5
		C43.9,425.9,44.3,425.9,43.6,427.6z"/>
	
		<linearGradient id="SVGID_36_" gradientUnits="userSpaceOnUse" x1="-530.6548" y1="1154.5017" x2="-530.4988" y2="1154.5017" gradientTransform="matrix(10.1 -17.81 17.81 10.1 -15153.9473 -20680.6113)">
		<stop  offset="0" style="stop-color:#FFDFB2"/>
		<stop  offset="1" style="stop-color:#EFA05E"/>
	</linearGradient>
	<path class="st41" d="M50.4,426.7c0,0-2-1.1-4.2-2.3c-2.4,4.4-1.6,6.7-1.6,6.7s7.7,2.3,10.1-2.1C52.4,427.8,50.4,426.7,50.4,426.7z
		"/>
	<ellipse class="st42" cx="45.1" cy="429.5" rx="0.8" ry="0.8"/>
	<ellipse class="st42" cx="46.5" cy="430.9" rx="0.8" ry="0.8"/>
	
		<linearGradient id="SVGID_37_" gradientUnits="userSpaceOnUse" x1="-528.1704" y1="674.328" x2="-528.0145" y2="674.328" gradientTransform="matrix(-3.6105 6.6422 6.6422 3.6105 -6340.6992 1502.0618)">
		<stop  offset="0" style="stop-color:#FFFFFF"/>
		<stop  offset="1" style="stop-color:#EFE9DA"/>
	</linearGradient>
	<circle class="st43" cx="44.9" cy="429.1" r="0.8"/>
	
		<linearGradient id="SVGID_38_" gradientUnits="userSpaceOnUse" x1="-528.4944" y1="915.4599" x2="-528.3384" y2="915.4599" gradientTransform="matrix(-3.61 6.643 -6.643 -3.61 4220.0747 7245.7422)">
		<stop  offset="0" style="stop-color:#FFFFFF"/>
		<stop  offset="1" style="stop-color:#EFE9DA"/>
	</linearGradient>
	<circle class="st44" cx="46.4" cy="430.4" r="0.8"/>
	
		<linearGradient id="SVGID_39_" gradientUnits="userSpaceOnUse" x1="-528.3724" y1="916.9561" x2="-528.2164" y2="916.9561" gradientTransform="matrix(-3.61 6.643 -6.643 -3.61 4232.4307 7251.0923)">
		<stop  offset="0" style="stop-color:#FFFFFF"/>
		<stop  offset="1" style="stop-color:#EFE9DA"/>
	</linearGradient>
	<circle class="st45" cx="48.3" cy="431.3" r="0.8"/>
	<path class="st46" d="M44.8,431.1c1.6,0.9,8.8-0.9,10.9-2.8c0.7,0.2,1.7,2.7,1.8,3c0.1,0.3-3.7,5.1-4.4,6.9c-0.1-2-1.4-6.2-1.9-6.5
		c-0.4-0.2-6.2,1.2-7.3,0.4c-1-0.8-1.1-4.8-1.6-5.1c-0.5-0.3-4,1.1-4.9,1.3c0.9-0.7,7-4.6,7.9-4.1s1.4,0.5,1.4,0.5
		S43.8,430.6,44.8,431.1z"/>
	
		<linearGradient id="SVGID_40_" gradientUnits="userSpaceOnUse" x1="-532.2781" y1="518.935" x2="-532.1221" y2="518.935" gradientTransform="matrix(-36.4395 50.6549 50.6549 36.4395 -45626.9727 8473.6758)">
		<stop  offset="0" style="stop-color:#FFDFB2"/>
		<stop  offset="1" style="stop-color:#FBC38F"/>
	</linearGradient>
	<path class="st47" d="M76.1,423.3c3.5-4.7,5.6-9.2,2.5-15.5C73.4,397.3,65,392.4,59,393.6c-5.8,1.1-8.8,3.8-12.2,8.6
		c-3.7,5.2-5.5,9.3-5.6,12c-0.1,4.3,1.6,10.6,6.2,13.7c7.7,4.9,10.9,4.2,16.8,3.7C68.7,431.1,72.4,428.4,76.1,423.3L76.1,423.3z"/>
	<path class="st48" d="M73.8,422c-7.8,0.4,1.9-14.5-2.1-17.8c-4,2.1-12.1,3.4-18.9,0c4.1,1.1,10.6,0.5,12.6-1.4
		c-3.9,0.2-13.9,0.4-17.5-2.3c8.1-10.9,17.8-15.1,31.2-3.2c13.3,11.9,3.2,22.1-0.7,26.1C77.9,422.7,77.2,421.8,73.8,422z"/>
	<path class="st49" d="M64.3,406.5c1.9,0.3,4.5,2.1,5.4,3.3C69,407.9,66.4,405.8,64.3,406.5z M58.8,403.1c-0.5-1.8-2.7-4.1-4-4.9
		C56.7,398.7,59.2,401,58.8,403.1z"/>
	
		<linearGradient id="SVGID_41_" gradientUnits="userSpaceOnUse" x1="-507.2709" y1="517.3668" x2="-507.1149" y2="517.3668" gradientTransform="matrix(11.6443 37.8033 37.8033 -11.6443 -13577.7139 25626.2461)">
		<stop  offset="0" style="stop-color:#FFDFB2"/>
		<stop  offset="1" style="stop-color:#FBC38F"/>
	</linearGradient>
	<path class="st50" d="M75.8,421.1l-6.6,8.1c1.8,1.9,5.4,4.2,8.6,0.3C81,425.6,78.3,422.3,75.8,421.1z"/>
	
		<linearGradient id="SVGID_42_" gradientUnits="userSpaceOnUse" x1="-597.485" y1="488.6691" x2="-597.329" y2="488.6691" gradientTransform="matrix(-13.2917 -11.752 -11.752 13.2917 -2122.5886 -13088.6641)">
		<stop  offset="0" style="stop-color:#E5B274"/>
		<stop  offset="1" style="stop-color:#FBC38F"/>
	</linearGradient>
	<path class="st51" d="M75,422.9l-4.2,5.1c1.1,1.2,3.4,2.6,5.4,0.2C78.3,425.8,76.6,423.7,75,422.9z"/>
	
		<linearGradient id="SVGID_43_" gradientUnits="userSpaceOnUse" x1="-530.401" y1="502.2339" x2="-530.246" y2="502.2339" gradientTransform="matrix(-165.8774 260.5459 260.5459 165.8774 -218760.8281 55276.9375)">
		<stop  offset="0" style="stop-color:#7E3D1B"/>
		<stop  offset="1" style="stop-color:#3F160A"/>
	</linearGradient>
	<path class="st52" d="M73.8,422c-5.5,0.4,2.7-15.7-1.3-19c-4,2.1-12.5,3.6-19.3,0.2c4.1,1.1,10.6,0.5,12.6-1.4
		c-3.9,0.2-14.9-0.3-18.4-3c9.1-9.9,18.7-13.3,31.5-3.8c14.3,10.7,5.3,24.2-0.3,28.5C78,422.8,77.2,421.8,73.8,422z"/>
	
		<linearGradient id="SVGID_44_" gradientUnits="userSpaceOnUse" x1="-523.1248" y1="1080.3157" x2="-522.9688" y2="1080.3157" gradientTransform="matrix(-0.63 97.38 -97.38 -0.63 104951.2656 52029.2695)">
		<stop  offset="0" style="stop-color:#8B4920"/>
		<stop  offset="1" style="stop-color:#5C270C"/>
	</linearGradient>
	<path class="st53" d="M87.5,410.3c-0.2,0.2-0.5,0.4-0.9,0.5c-0.2,0.1-0.5,0.1-0.7,0.2c-3.1,0.4-9.4-1.8-12.3-3.6
		c-0.2,3.7-1.8,8.7-1.8,11.8c1.8,1.6,5.1,2.7,7.7,3h0.3c1.5,0.1,3.4,0,5-0.3C86.5,418.2,87.5,414.2,87.5,410.3z"/>
	
		<linearGradient id="SVGID_45_" gradientUnits="userSpaceOnUse" x1="-533.7988" y1="1078.1893" x2="-533.6428" y2="1078.1893" gradientTransform="matrix(-85.443 66.836 -66.836 -85.443 26517.6543 128192.4688)">
		<stop  offset="0" style="stop-color:#8B4920"/>
		<stop  offset="1" style="stop-color:#602B0E"/>
	</linearGradient>
	<path class="st54" d="M65.4,388.9c-6.4-0.2-12.5,2.4-17.5,7.2c0.2,1.1,1.2,2.9,2.4,4.1c4.2,1.3,10.4,1.6,14,1.6
		C62.3,398.6,63.2,391.6,65.4,388.9z"/>
	<path class="st55" d="M49.1,417.9c-0.2-0.3,1.7-0.5,2.3-0.2s0.6,0.8,0.6,0.8s0.7-0.2,1.2,0c0.7,0.3,3.5,2.9,4.7,3.8
		c-1.2,1.7-4.5,6.3-8.8,3.9C46,424.6,49,418,49.1,417.9z"/>
	<path class="st56" d="M49.1,417.9c1.5,0.7,6.8,3.8,8.8,4.5c-1.6,0.6-4.4,3.7-7.9,2C47.4,423.1,48.7,418.6,49.1,417.9L49.1,417.9z"
		/>
	<path class="st46" d="M51.5,420.7c1.5,0.7,3.6,1.7,5.6,1.4c-1.9-0.8-5.1-2.6-7-3.6C50,419.3,50.1,419.9,51.5,420.7z"/>
	<path class="st57" d="M50.9,425c-0.8-0.2-1-0.3-1.1-0.2c0,0.1,0.2,0.3,1,0.5s1.3,0.2,1.3,0.1C52.1,425.3,51.7,425.2,50.9,425z"/>
	<ellipse transform="matrix(-0.811 -0.585 0.585 -0.811 -130.9312 804.897)" class="st58" cx="64.5" cy="423.6" rx="3.1" ry="2.1"/>
	
		<ellipse transform="matrix(-0.8111 -0.5849 0.5849 -0.8111 -158.8746 768.435)" class="st58" cx="44.6" cy="409.9" rx="1.6" ry="1.5"/>
	<path class="st49" d="M65.6,416.9c0.5,0.4,0.7,0.7,1.1,0.8c-0.6,0.2-1.2,0-1.5-0.4C64.9,417,65.2,416.6,65.6,416.9z"/>
	
		<linearGradient id="SVGID_46_" gradientUnits="userSpaceOnUse" x1="-527.6705" y1="1058.5747" x2="-527.5145" y2="1058.5747" gradientTransform="matrix(25.6518 -31.2734 -31.2734 -25.6518 46701.2422 11070.2744)">
		<stop  offset="0" style="stop-color:#FFDFB2"/>
		<stop  offset="1" style="stop-color:#7E1416"/>
	</linearGradient>
	<circle class="st59" cx="62.3" cy="415.6" r="3.6"/>
	<ellipse class="st46" cx="62.3" cy="415.6" rx="3.2" ry="3.2"/>
	
		<linearGradient id="SVGID_47_" gradientUnits="userSpaceOnUse" x1="-535.8294" y1="1148.9534" x2="-535.6734" y2="1148.9534" gradientTransform="matrix(-13.892 16.9364 16.9364 13.892 -26838.8809 -6471.8916)">
		<stop  offset="0" style="stop-color:#5A2C0E"/>
		<stop  offset="1" style="stop-color:#2E160C"/>
	</linearGradient>
	<circle class="st60" cx="63" cy="415.5" r="1.9"/>
	
		<linearGradient id="SVGID_48_" gradientUnits="userSpaceOnUse" x1="-537.3771" y1="1166.7596" x2="-537.2211" y2="1166.7596" gradientTransform="matrix(-10.6525 12.987 12.987 10.6525 -20813.2617 -5035.4619)">
		<stop  offset="0" style="stop-color:#955924"/>
		<stop  offset="1" style="stop-color:#5C2C0F"/>
	</linearGradient>
	<circle class="st61" cx="63.1" cy="415.5" r="1.4"/>
	<ellipse class="st46" cx="63.4" cy="414.3" rx="0.4" ry="0.4"/>
	<path class="st49" d="M49,404.6c-0.5-0.4-0.8-0.6-1-0.9c0,0.6,0.3,1.2,0.7,1.4C49,405.3,49.4,404.9,49,404.6z"/>
	
		<linearGradient id="SVGID_49_" gradientUnits="userSpaceOnUse" x1="-527.5365" y1="464.3753" x2="-527.3805" y2="464.3753" gradientTransform="matrix(25.6518 -31.2734 -31.2734 -25.6518 28103.75 -4175.8003)">
		<stop  offset="0" style="stop-color:#FFDFB2"/>
		<stop  offset="1" style="stop-color:#7E1416"/>
	</linearGradient>
	<circle class="st62" cx="50.9" cy="407.6" r="3.6"/>
	<ellipse class="st46" cx="50.9" cy="407.6" rx="3.2" ry="3.2"/>
	
		<linearGradient id="SVGID_50_" gradientUnits="userSpaceOnUse" x1="-536.0861" y1="1152.3737" x2="-535.9301" y2="1152.3737" gradientTransform="matrix(-13.8913 16.9357 16.9357 13.8913 -26910.4941 -6522.6802)">
		<stop  offset="0" style="stop-color:#5A2C0E"/>
		<stop  offset="1" style="stop-color:#2E160C"/>
	</linearGradient>
	<circle class="st63" cx="51.7" cy="407.5" r="1.9"/>
	
		<linearGradient id="SVGID_51_" gradientUnits="userSpaceOnUse" x1="-537.7097" y1="1171.2047" x2="-537.5536" y2="1171.2047" gradientTransform="matrix(-10.6531 12.9878 12.9878 10.6531 -20887.2051 -5086.79)">
		<stop  offset="0" style="stop-color:#955924"/>
		<stop  offset="1" style="stop-color:#5C2C0F"/>
	</linearGradient>
	<circle class="st64" cx="51.7" cy="407.5" r="1.4"/>
	<ellipse class="st46" cx="52.1" cy="406.4" rx="0.4" ry="0.4"/>
	<path class="st65" d="M54.5,413.9c-1.4-1.5-3.2-1.9-4.4-1c-1.2,0.9,0,2.4,1.2,3.5C49.3,413.8,52.8,412.4,54.5,413.9z"/>
	<path class="st66" d="M51.4,416.4l3.1-2.5C52.8,412.4,49.3,413.8,51.4,416.4z"/>
	<path class="st67" d="M1.1,440c0,0.3-0.3,0.6-0.6,0.6h-4.4c-0.3,0-0.6-0.3-0.6-0.6c0-0.3,0.3-0.6,0.6-0.6h4.4
		C0.8,439.4,1.1,439.6,1.1,440z"/>
	<path class="st68" d="M-28,416.2H1.1l1.6,18h-29.1L-28,416.2z"/>
	<path class="st69" d="M1.1,416.2l0.5-0.5l1.6,18l-0.5,0.5L1.1,416.2z"/>
	<path class="st69" d="M-28,416.2l0.8-0.5H1.6l-0.5,0.5H-28z"/>
	<path class="st70" d="M-9.9,426.3H-17l-2.9,13.7h7.1L-9.9,426.3z"/>
	<path class="st71" d="M-9.9,426.3l0.1,0.3l-2.5,12.2h-0.2L-9.9,426.3z"/>
	<path class="st67" d="M-23.9,438.8h15.5l-0.4,1.9h-15.4L-23.9,438.8z"/>
	<path class="st72" d="M-8.4,438.8l2.2,1.8l-2.6,0.1L-8.4,438.8z"/>
	<path class="st70" d="M-37.7,440.5H64.1v39H-37.7V440.5z"/>
	<path class="st73" d="M-39.8,444H66.3c0.9,0,1.5-0.7,1.5-1.5v-0.4c0-0.9-0.7-1.5-1.5-1.5H-39.8c-0.9,0-1.5,0.7-1.5,1.5v0.4
		C-41.4,443.3-40.7,444-39.8,444z"/>
</g>
<g>
	<path class="st0" d="M10.3,391c0.1-1,0.7-1.9,1-1.9s0.9,0.9,1,1.9H10.3z"/>
	<path class="st1" d="M11.3,390.1c0,0.1,0.1,0.1,0.1,0.2h-0.2C11.3,390.2,11.3,390.1,11.3,390.1 M11.3,388.4c-1,0-1.8,1.5-1.8,3.3
		v0.4H13v-0.5C13,389.8,12.3,388.4,11.3,388.4z"/>
	<g>
		<path class="st0" d="M6.2,402c0-6,2.4-10.3,5.1-10.3c2.7,0,5.1,4.3,5.1,10.3H6.2L6.2,402z"/>
		<path class="st1" d="M11.3,392.3c1.9,0,4.1,3.8,4.3,8.8H7C7.2,396,9.4,392.3,11.3,392.3 M11.3,391c-3.2,0-5.8,5.1-5.8,11.3v0.7
			h11.7v-0.7C17.2,396.1,14.5,391,11.3,391z"/>
		<g>
			<path class="st2" d="M11.3,390.4v-33.2"/>
		</g>
	</g>
</g>
<path class="st74" d="M-145,479h320"/>
</svg>
