<svg id="airplane_1_" xmlns="http://www.w3.org/2000/svg" viewBox="0 0 300 300"><style>.st0{display:none;} .st1{display:inline;fill:none;stroke:#000000;stroke-miterlimit:10;} .st2{fill:#FFA726;}</style><g id="grid" class="st0"><path class="st1" d="M25.5 50h250M25.5 250h250M50.5 25v250M250.5 25v250"/></g><path id="i-1211_8_" class="st2" d="M241.3 49.6H58.7c-5 0-9.1 4.1-9.1 9.1v182.6c0 5 4.1 9.1 9.1 9.1h182.6c5 0 9.1-4.1 9.1-9.1V58.7c0-5-4.1-9.1-9.1-9.1zm-85 123.6c-8.7 11.2-24.8 14.5-37.9 10.1-13.9-4.6-24.1-18.6-23.7-33.3-.7-18.2 15.2-34.9 33.4-35.1 9.3-.8 18.3 2.8 25.3 8.7-2.9 3.1-5.8 6.3-8.9 9.2-6.2-3.7-13.6-6.6-20.8-4.1-11.6 3.3-18.7 17-14.3 28.4 3.6 11.9 18 18.4 29.3 13.4 5.8-2.1 9.7-7.5 11.4-13.3-6.7-.1-13.5 0-20.2-.2v-12c11.2 0 22.4 0 33.6.1.6 9.7-.8 20.2-7.2 28.1zm49.1-18.1h-10c-.1 3.4-.1 6.7-.1 10.1h-10c-.1-3.4-.1-6.7-.1-10.1h-10v-10h10c0-3.4 0-6.7.1-10h10c0 3.3 0 6.7.1 10h10v10z"/></svg>