<?xml version="1.0" encoding="UTF-8" standalone="no"?>
<svg width="209px" height="163px" viewBox="0 0 209 163" version="1.1" xmlns="http://www.w3.org/2000/svg" xmlns:xlink="http://www.w3.org/1999/xlink" xmlns:sketch="http://www.bohemiancoding.com/sketch/ns">
    <!-- Generator: Sketch 3.5.1 (25234) - http://www.bohemiancoding.com/sketch -->
    <title>lifetimewarrantyroofing</title>
    <desc>Created with Sketch.</desc>
    <defs></defs>
    <g id="Page-1" stroke="none" stroke-width="1" fill="none" fill-rule="evenodd" sketch:type="MSPage">
        <g id="lifetimewarrantyroofing" sketch:type="MSLayerGroup">
            <path d="M207.5,116.5 L126.8,116.5 L121.8,94.4 L110.2,125.2 L97.4,86.2 L81.2,116.5 L60.4,116.5 C69.8,128.5 82.9,139 98.7,152.9 L107.6,161.6 L116.5,153.8 C129.3,142.5 140.3,132.5 149.1,124.5 L207.6,124.5 L207.6,116.5 L207.5,116.5 L207.5,116.5 Z M77.1,110.5 L97.9,70.7 L110.6,106.2 L121.9,79 L132.2,110 L159.7,110 C166.9,100.2 170.9,90.7 170.9,80.4 C170.9,60.9 155.7,45.8 136,45.8 C125.2,45.8 114.4,50.8 107.5,59 C100.5,50.8 89.7,45.8 79,45.8 C59.3,45.8 44.1,62.3 44.1,81.8 C44.1,89.9 46.6,95.5 51.2,106.5 L0.5,106.5 L0.5,110.5 L77.2,110.5 L77.1,110.5 L77.1,110.5 Z" id="Shape" stroke="#FF9800" sketch:type="MSShapeGroup"></path>
            <path d="M97.4,19.2 C97.3,19.1 97.3,19.1 97.2,19.1 C97.1,19.1 97,19.1 97,19.2 C96.5,20 95.1,21.9 95.1,22.9 C95.1,24.1 96,25 97.2,25 C98.4,25 99.3,24.1 99.3,22.9 C99.2,22 97.9,20 97.4,19.2 L97.4,19.2 Z M96.2,23.7 L96.1,23.8 L96,23.8 C95.5,23.4 95.7,22.7 95.7,22.7 C95.7,22.6 95.8,22.5 95.9,22.6 C96,22.6 96.1,22.7 96,22.8 C96,22.8 95.9,23.3 96.2,23.5 C96.3,23.5 96.3,23.7 96.2,23.7 L96.2,23.7 Z M107.5,30.9 C107.4,30.7 107.1,30.6 106.9,30.6 C106.6,30.6 106.4,30.7 106.3,30.9 C104.7,33.1 100.8,38.9 100.8,41.7 C100.8,45.1 103.6,47.9 107,47.9 C110.4,47.9 113.2,45.1 113.2,41.7 C113.1,38.9 109.1,33.1 107.5,30.9 L107.5,30.9 Z M104.2,44.2 C104.1,44.3 103.9,44.4 103.8,44.4 C103.7,44.4 103.6,44.4 103.5,44.3 C102,43 102.5,41.1 102.5,41 C102.6,40.7 102.9,40.5 103.2,40.6 C103.5,40.7 103.7,41 103.6,41.3 C103.6,41.4 103.3,42.6 104.2,43.5 C104.4,43.6 104.4,43.9 104.2,44.2 L104.2,44.2 Z M117.6,16.1 C117.5,16 117.3,15.9 117.2,15.9 C117,15.9 116.9,16 116.8,16.1 C115.7,17.6 113.1,21.5 113.1,23.3 C113.1,25.6 115,27.5 117.3,27.5 C119.6,27.5 121.5,25.6 121.5,23.3 C121.4,21.5 118.7,17.6 117.6,16.1 L117.6,16.1 Z M115.4,25 C115.3,25.1 115.2,25.1 115.1,25.1 C115,25.1 114.9,25.1 114.9,25 C113.9,24.1 114.2,22.8 114.2,22.8 C114.3,22.6 114.5,22.5 114.6,22.6 C114.8,22.7 114.9,22.9 114.9,23 C114.9,23 114.7,23.9 115.3,24.5 C115.5,24.6 115.5,24.9 115.4,25 L115.4,25 Z M133.6,35.5 C133.5,35.4 133.3,35.3 133.2,35.3 C133,35.3 132.9,35.4 132.8,35.5 C131.7,37 129.1,40.9 129.1,42.7 C129.1,45 131,46.9 133.3,46.9 C135.6,46.9 137.5,45 137.5,42.7 C137.3,40.9 134.7,37 133.6,35.5 L133.6,35.5 Z M131.3,44.5 C131.2,44.6 131.1,44.6 131,44.6 C130.9,44.6 130.8,44.6 130.8,44.5 C129.8,43.6 130.1,42.3 130.1,42.3 C130.2,42.1 130.4,42 130.5,42.1 C130.7,42.2 130.8,42.4 130.7,42.5 C130.7,42.5 130.5,43.4 131.1,44 C131.5,44.1 131.5,44.3 131.3,44.5 L131.3,44.5 Z M86.5,41.7 C86.5,41.6 86.4,41.6 86.3,41.6 C86.2,41.6 86.1,41.6 86.1,41.7 C85.6,42.5 84.2,44.4 84.2,45.4 C84.2,46.6 85.1,47.5 86.3,47.5 C87.5,47.5 88.4,46.6 88.4,45.4 C88.4,44.4 87,42.4 86.5,41.7 L86.5,41.7 Z M85.4,46.2 L85.3,46.3 L85.2,46.3 C84.7,45.9 84.9,45.2 84.9,45.2 C84.9,45.1 85,45 85.1,45.1 C85.2,45.1 85.3,45.2 85.2,45.3 C85.2,45.3 85.1,45.8 85.4,46 L85.4,46.2 L85.4,46.2 Z M75.6,24.8 C75.5,24.7 75.3,24.6 75.2,24.6 C75,24.6 74.9,24.7 74.8,24.8 C73.6,26.3 71,30.2 71,32 C71,34.3 72.9,36.2 75.2,36.2 C77.5,36.2 79.4,34.3 79.4,32 C79.3,30.2 76.6,26.3 75.6,24.8 L75.6,24.8 Z M73.3,33.7 C73.2,33.8 73.1,33.8 73,33.8 C72.9,33.8 72.8,33.8 72.8,33.7 C71.8,32.8 72.1,31.5 72.1,31.5 C72.2,31.3 72.4,31.2 72.5,31.3 C72.7,31.4 72.8,31.6 72.8,31.7 C72.8,31.7 72.6,32.6 73.2,33.2 C73.4,33.3 73.5,33.5 73.3,33.7 L73.3,33.7 Z M138.1,6.8 C138.1,6.7 138,6.7 137.9,6.7 C137.8,6.7 137.7,6.7 137.7,6.8 C137.2,7.6 135.8,9.5 135.8,10.5 C135.8,11.7 136.7,12.6 137.9,12.6 C139.1,12.6 140,11.7 140,10.5 C140,9.5 138.6,7.6 138.1,6.8 L138.1,6.8 Z M137,11.3 L136.9,11.4 L136.8,11.4 C136.3,11 136.5,10.3 136.5,10.3 C136.5,10.2 136.6,10.1 136.7,10.2 C136.8,10.2 136.9,10.3 136.8,10.4 C136.8,10.4 136.7,10.9 137,11.1 L137,11.3 L137,11.3 Z M85,0.7 C85,0.6 84.9,0.6 84.8,0.6 C84.7,0.6 84.6,0.6 84.6,0.7 C84.1,1.5 82.7,3.4 82.7,4.4 C82.7,5.6 83.6,6.5 84.8,6.5 C86,6.5 86.9,5.6 86.9,4.4 C86.9,3.4 85.6,1.4 85,0.7 L85,0.7 Z M83.9,5.2 L83.8,5.3 L83.7,5.3 C83.2,4.9 83.4,4.2 83.4,4.2 C83.4,4.1 83.5,4 83.6,4.1 C83.7,4.1 83.8,4.2 83.7,4.3 C83.7,4.3 83.6,4.8 83.9,5 C84,5 84,5.1 83.9,5.2 L83.9,5.2 Z" id="Shape" fill="#64B5F6" sketch:type="MSShapeGroup"></path>
        </g>
    </g>
</svg>