<svg id="airplane_1_" xmlns="http://www.w3.org/2000/svg" viewBox="0 0 500 500"><style>.st0{display:none;} .st1{display:inline;fill:none;stroke:#000000;stroke-miterlimit:10;} .st2{fill:#90CAF9;stroke:#616161;stroke-width:6;stroke-linejoin:round;} .st3{fill:#F9D5A5;stroke:#616161;stroke-width:6;} .st4{fill:#616161;} .st5{fill:none;stroke:#616161;stroke-width:6;stroke-linecap:round;stroke-linejoin:round;} .st6{opacity:0.57;fill:#F2F2F2;enable-background:new ;} .st7{fill:#FFE0B2;stroke:#616161;stroke-width:6;} .st8{fill:#FBB03B;} .st9{opacity:0.57;fill:#F57C00;enable-background:new ;} .st10{fill:#424242;}</style><g id="grid" class="st0"><path class="st1" d="M0 50h500M0 450h500M50 0v500M450 0v500"/></g><path class="st2" d="M276.1 304h-61.3L157 344.4V418h186v-73.6z"/><path class="st3" d="M229 285h40v33h-40z"/><ellipse class="st4" cx="258.8" cy="342.7" rx="3.8" ry="3.5"/><ellipse class="st4" cx="258.8" cy="357.2" rx="3.8" ry="3.5"/><ellipse class="st4" cx="258.8" cy="371.8" rx="3.8" ry="3.5"/><ellipse class="st4" cx="258.8" cy="386.4" rx="3.8" ry="3.5"/><ellipse class="st4" cx="258.8" cy="401" rx="3.8" ry="3.5"/><path class="st5" d="M196 412v-54M295 412v-54"/><path class="st6" d="M254.8 86.8S238.1 97.6 228.3 99c0 0 14.8.5 26.5-12.2z"/><path class="st7" d="M186.7 138l2.1 112.5 43.1 34.5h37.9l45.2-40.2V138zM183 188.7c-6 0-15.7 6.4-15.7 14.3s9.7 14.3 15.7 14.3v-28.6zM315 188.7c7 0 15.7 6.4 15.7 14.3s-8.7 14.3-15.7 14.3v-28.6z"/><path class="st4" d="M188.3 212H208v-27.6s14.2-6.1 7.5-44.9c0 0 37.1 14.2 75.5 3.8 0 0-2.9 27.9 10.1 40.7v28h14v-30s20.3-11.8 9.9-42.6c0 0 18.3-9.9 7.9-42.1 0 0-16.5 27.9-38.4 0 0 0-10.3-15.6-45.2-15.1 0 0-47.8-2.4-60.9 37.4 0 0-39 27.2-5.3 59.8l.9 32.6h4.3z"/><path class="st4" d="M212.4 188h-3.8c-1.2 0-2.2.9-2.2 2s1 2 2.2 2h3.8c1.2 0 2.2-.9 2.2-2s-1-2-2.2-2zM303.6 188h-3.8c-1.2 0-2.2.9-2.2 2s1 2 2.2 2h3.8c1.2 0 2.2-.9 2.2-2 .1-1.1-.9-2-2.2-2z"/><g><path class="st8" d="M215.2 189.4c-.8 0-1.4.6-1.6.6h3.2c-.2 0-.8-.6-1.6-.6z"/><path class="st9" d="M248.7 191c-.2-.2-.3-.5-.5-.7s-.4-.3-.6-.4c-.5-.3-1-.6-1.6-.8-2.8-1.1-5.7-1.6-8.7-1.8-3.1-.3-6.2-.2-9.4.2-2 .2-4.1.6-6 1.2-1.3.4-2.4 1-2.9 2.2-.3.7-.5 1.3-.6 2-.5 3.4-.1 6.8.9 10.2.6 1.9 1.9 3.4 4.1 4.3.4.2.7.4 1.1.5.4.2.9.3 1.3.5 1.1.4 2.2.6 3.4.7 1.7.2 3.5.1 5.2 0 4.9-.4 9.5-2.4 12.2-5.9 1-1.4 1.8-2.9 2.3-4.5.6-1.7 1-3.5.9-5.3-.1-.5-.2-1.1-.5-1.6-.3-.4-.5-.6-.6-.8z"/><path class="st8" d="M215.2 190.6c.8 0 1.4.4 1.6-.6h-3.2c.2 1 .8.6 1.6.6z"/><path class="st9" d="M293 190.8c-.5-1.2-1.6-1.7-2.9-2.2-1.9-.7-3.9-1-6-1.2-3.1-.3-6.2-.4-9.4-.2-3 .2-5.9.7-8.7 1.8-.6.2-1.1.5-1.6.8-.2.1-.4.3-.6.4-.2.2-.4.5-.5.7-.2.2-.4.4-.5.7-.3.5-.4 1-.5 1.6-.1 1.8.3 3.6.9 5.3.5 1.6 1.2 3.1 2.3 4.5 2.6 3.5 7.3 5.5 12.2 5.9 1.7.1 3.5.2 5.2 0 1.2-.1 2.3-.3 3.4-.7.4-.2.9-.3 1.3-.5.4-.1.7-.3 1.1-.5 2.2-.9 3.5-2.4 4.1-4.3 1.1-3.3 1.4-6.7.9-10.2-.2-.6-.4-1.2-.7-1.9z"/><path class="st8" d="M296.8 189.4c-.8 0-1.4.6-1.6.6h3.2c-.2 0-.8-.6-1.6-.6zM296.8 190.6c.8 0 1.4.4 1.6-.6h-3.2c.2 1 .8.6 1.6.6z"/><path class="st4" d="M299.6 188.7c0-.2 0-.4-.1-.6-.1-.8-.3-1-1.3-1.1-1.3-.1-2.6-.1-3.9-.2-1.9-.2-3.7-.4-5.6-.5-.8-.1-1.5-.1-2.3-.2-1.3-.1-2.7-.2-4-.3-.7 0-1.3-.1-2-.1-1.7-.1-3.3 0-4.9.2l-3.3.3c-1.5.2-3 .4-4.5.7-1.8.3-3.6.7-5.4 1-2.1.4-4.2.5-6.4.5-2.1 0-4.2-.1-6.3-.5-1.8-.4-3.6-.7-5.4-1-1.5-.3-3-.5-4.5-.7l-3.3-.3c-1.6-.2-3.3-.3-4.9-.2-.7 0-1.3.1-2 .1-1.3.1-2.7.2-4 .3-.8.1-1.5.1-2.3.2-1.9.1-3.7.4-5.6.5-1.3.1-2.6.2-3.9.2-1 .1-1.2.2-1.3 1.1 0 .2-.1.4-.1.6 0 .9-.1 1.8-.1 2.7 0 .4.1.7.6.8 1.3.3 2 1 2.2 2.1.3 1.3.6 2.6.8 3.9.4 2 1 4 2 5.9.8 1.6 1.9 3.1 3.8 4 1.3.6 2.6 1.1 4 1.4 2.3.6 4.8.8 7.2.7 6.9-.3 13.1-3 16.3-8.1 1.3-2.1 2.3-4.3 3.2-6.5 1.2-2.8 5.8-2.9 7 0 .9 2.2 1.9 4.4 3.2 6.5 3.2 5.2 9.4 7.8 16.3 8.1 2.5.1 4.9-.1 7.2-.7 1.4-.3 2.7-.8 4-1.4 1.9-.9 3-2.3 3.8-4 1-1.9 1.5-3.9 2-5.9.3-1.3.6-2.6.8-3.9.2-1.1.9-1.8 2.2-2.1.5-.1.6-.5.6-.8.3-.9.2-1.8.2-2.7zm-84.4 1.9c-.8 0-1.4.4-1.6-.6h3.2c-.2 1-.8.6-1.6.6zm-1.6-.6c.2 0 .8-.6 1.6-.6s1.4.6 1.6.6h-3.2zm35.3 8.5c-.5 1.6-1.2 3.1-2.3 4.5-2.6 3.5-7.3 5.5-12.2 5.9-1.7.1-3.5.2-5.2 0-1.2-.1-2.3-.3-3.4-.7-.4-.2-.9-.3-1.3-.5-.4-.1-.7-.3-1.1-.5-2.2-.9-3.5-2.4-4.1-4.3-1.1-3.3-1.4-6.7-.9-10.2.1-.7.4-1.4.6-2 .5-1.2 1.6-1.7 2.9-2.2 1.9-.7 3.9-1 6-1.2 3.1-.3 6.2-.4 9.4-.2 3 .2 5.9.7 8.7 1.8.6.2 1.1.5 1.6.8.2.1.4.3.6.4.2.2.4.5.5.7.2.2.4.4.5.7.3.5.4 1 .5 1.6.2 1.9-.3 3.7-.8 5.4zm43.8 4.5c-.6 1.9-1.9 3.4-4.1 4.3-.4.2-.7.4-1.1.5-.4.2-.9.3-1.3.5-1.1.4-2.2.6-3.4.7-1.7.2-3.5.1-5.2 0-4.9-.4-9.5-2.4-12.2-5.9-1-1.4-1.8-2.9-2.3-4.5-.6-1.7-1-3.5-.9-5.3.1-.5.2-1.1.5-1.6.2-.2.4-.4.5-.7.2-.2.3-.5.5-.7s.4-.3.6-.4c.2-.1.4-.3.6-.4l.6-.3h.1c.1 0 .2-.1.3-.1.7-.3 1.3-.5 2-.7.3-.1.6-.2.9-.2.6-.1 1.2-.3 1.7-.4 1.3-.2 2.7-.4 4-.5 3.1-.3 6.2-.2 9.4.2 2.1.2 4.1.6 6 1.2 1.3.4 2.4 1 2.9 2.2.3.7.5 1.3.6 2 .7 3.4.4 6.8-.7 10.1zm4.1-12.4c-.8 0-1.4.4-1.6-.6h3.2c-.2 1-.8.6-1.6.6zm-1.6-.6c.2 0 .8-.6 1.6-.6s1.4.6 1.6.6h-3.2z"/></g><g><path class="st4" d="M256.1 215.3c-6.5.1-7.9 3-7.9 3 0-2.8 3.5-5.1 7.9-5.1 4.3 0 7.9 2.3 7.9 5.1 0 0-1.8-3.1-7.9-3z"/></g><path class="st10" d="M278.1 302.9c1.4 9.8 2.6 28.5-5.1 49.8-5.5 15.4-13.6 26.4-19.5 33.2-7.6-7.4-18.5-19.9-27.1-37.9-8.6-18.1-11.3-34.4-12.3-45-20 14.7-36 29.4-57.2 44.1V418h186v-70.9l-64.8-44.2z"/><path class="st10" d="M241.5 386.6h3.7v3.3h-3.7z"/><path class="st4" d="M258.8 383.8c-.2.4-.7 1.2-2 1.8-.2.1-.7.3-1.5.6-.8.2-1.7.5-2.7.4-.8-.1-1.2-.4-2.5-1.3-.5-.3-1.3-.8-2.5-1.3-.2-25.8-.2-51.6-.3-77.3h9.6c.9 25.7 1.4 51.5 1.9 77.1z"/><path class="st2" d="M251.1 304.9l-12.8 24.6-22.8-26.1 18-18.5zM253.8 304.3l11.6 23.8 20.6-25.3-16.3-17.9z"/><path class="st7" d="M247.1 380.5c-6.7-3.7-13.8-8-21.2-13-8.2-5.6-15.6-8.3-22-13.7l11.4-13.1h-13.1l-5.6-22.5 22.3-16c4.7 13.8 9.5 27 14.4 40.9 4.7 12.9 9.2 24.8 13.8 37.4zM259.6 380c6.1-3.9 12.1-7.9 18.3-11.8 7.1-4.6 14.2-7.8 21.2-12.2l-10.6-11.6h12.2c1.8-6.2 3.6-16 5.3-23.1-7-4.7-13.9-10.6-20.9-15.3-4.9 12.6-9.7 25.5-14.2 39.1-4.1 11.9-7.8 23.5-11.3 34.9z"/><path class="st4" d="M254 227.7s7.2-6.4 18.1-.7c0 0 8.9 6 10.9 6.6 1.4.3 4.9 1.1 6.6-.7 0 0 2.6-2.5-.7-5.6 0 0-2.5-2-4.4-.5 0 0 1.6-2.8 5.7-.9 0 0 4.8 1.9 3.6 9 0 0-2.2 8.4-15 8.3 0 0-13.9.6-23.2-6.3 0 0-1.4-1.2-1.8-1.2 0 0-.4 0-1.8 1.3 0 0-9.2 7.3-24.8 6.2 0 0-8.5-.9-11.7-5.7 0 0-4.2-6.7 1.9-11 0 0 1.8-1.4 5.6-.2 0 0-6.7-.2-4.9 5.9 0 0 .7 2.5 4 1.9 0 0 1.9 0 10.3-4.9 0 0 6-3.5 8.6-4.3.2.4 6.7-1.9 13 2.8"/></svg>