<svg id="airplane_1_" xmlns="http://www.w3.org/2000/svg" viewBox="0 0 250 250"><style>.st0{display:none;} .st1{display:inline;fill:none;stroke:#000000;stroke-miterlimit:10;} .st2{fill:#FFE2C3;} .st3{fill:#FF9800;} .st4{fill:#FFC651;} .st5{fill:#FFCC80;} .st6{fill:#F7DFC7;}</style><g id="grid" class="st0"><path class="st1" d="M-.3 25h249.9M-.3 224.9h249.9M24.7 0v249.9M224.6 0v249.9"/></g><g><path class="st2" d="M124.1 224.4c55.6 0 101-44.8 101-99.7S179.7 25 124.1 25s-101 44.8-101 99.7c0 54.9 45.4 99.7 101 99.7z"/><path class="st3" d="M66.3 95.3h115.5c8 0 14.5 6.4 14.5 14.3v67c0 7.9-6.5 14.3-14.5 14.3H66.3c-8 0-14.5-6.4-14.5-14.3v-67c0-7.8 6.6-14.3 14.5-14.3z"/><path class="st4" d="M103.8 72.4h40.5c2.5 0 4.6 2 4.6 4.5V98c0 2.5-2.1 4.5-4.6 4.5H143V82.1c0-1.5-1.3-2.8-2.8-2.8H108c-1.5 0-2.8 1.2-2.8 2.8v20.5h-1.4c-2.5 0-4.6-2-4.6-4.5V76.9c.1-2.5 2.1-4.5 4.6-4.5z"/><path class="st5" d="M66.3 95.3h115.5c2.2 0 4.2.5 6 1.3v48.8c0 7-5.8 12.6-12.8 12.6H73c-7 0-12.8-5.7-12.8-12.6V96.6c1.9-.8 4-1.3 6.1-1.3z"/><path class="st5" d="M101 150l-2.6 16.5c-.6 4.1-9.2 3.8-9.7 0L86 150c-.7-4.5 15.7-4.6 15 0zM162.2 150l-2.6 16.5c-.6 4.1-9.1 3.8-9.7 0l-2.6-16.5c-.8-4.5 15.6-4.6 14.9 0z"/><path class="st2" d="M150 66.2l-5.5-16.4c-.9-2.8-8.6-10.3-11.3-8.4-2.6 1.8-.4 10.7.9 13.2l7.8 13.4c3.6 6.1 6.7 9.4 9.5 7.4.5-.4.5-3.7-1.4-9.2z"/><path class="st5" d="M132.9 87.2l.4.2c-2.6 4.3-9 3.8-9.5-.8-2.1 4.6-8.3 4.7-9.6.9-2.6 4.1-8.9 3.4-8.9-1.5V63.8c0-6.2 3.4-15.1 6.1-19 8-11.5 22.6-9.2 26.2-4.5 2.8 3.6 5.3 5.8 5.3 9.1l.5 36.6c.6 6.7-9.7 6.6-10.5 1.2z"/><path class="st6" d="M113.9 79.8s-.1 4.4-.2 8.4l.5-.7.5.9c-.4-3.8-.8-8.6-.8-8.6zm19.3 7.7c-.2.4-.5.7-.8 1 .1-4.4.4-12 .4-12s.4 7.6.5 10.8l-.1.2zm-8.8.9c-.3-.5-.5-1.1-.6-1.7l-.5.9c0-4.3.1-9.7.1-9.7s.7 6.4 1 10.5zM143.4 70.4l-.2-8.5 1.4 10.2c-.3-.4-.7-.8-1.2-1.7z"/><path class="st3" d="M138.3 42.7c.4-5.5.8-10.9 1.2-16.4-3.8-.7-8.3-1.2-13.4-1.3-5.3-.1-10 .3-14 .8.5 5.4.9 10.8 1.4 16.3 8.3.1 16.6.3 24.8.6z"/></g></svg>