<?xml version="1.0" encoding="UTF-8" standalone="no"?>
<svg width="74px" height="98px" viewBox="0 0 74 98" version="1.1" xmlns="http://www.w3.org/2000/svg" xmlns:xlink="http://www.w3.org/1999/xlink" xmlns:sketch="http://www.bohemiancoding.com/sketch/ns">
    <!-- Generator: Sketch 3.5.1 (25234) - http://www.bohemiancoding.com/sketch -->
    <title>menu-livechat</title>
    <desc>Created with Sketch.</desc>
    <defs></defs>
    <g id="Page-1" stroke="none" stroke-width="1" fill="none" fill-rule="evenodd" sketch:type="MSPage">
        <g id="menu-livechat" sketch:type="MSLayerGroup">
            <path d="M36.7,27.8 C36.9,28.1 37,28.3 37.2,28.5 C37.1,27.7 37,27 36.9,26.5 C36.9,27 36.8,27.4 36.7,27.8 L36.7,27.8 Z" id="Shape" sketch:type="MSShapeGroup"></path>
            <path d="M49,24.7 L48.9,24.7 L47.6,25.9 L31.7,17.7 C26.5,17.2 25.7,24.2 25.6,24.8 C25.4,24.7 25.2,24.6 25,24.6 C24.9,24.6 24.8,24.6 24.8,24.7 C24.3,25.1 24.1,26.3 24.4,27.7 C24.6,28.8 25,29.7 25.4,30.1 C25.6,30.3 25.8,30.4 26.1,30.4 C26.2,30.4 26.3,30.3 26.4,30.2 C26.5,30.6 26.7,31 26.9,31.5 C28.4,31.9 30,32.1 31.7,32 C32,31.3 32.6,30.8 33.4,30.7 C34.6,30.5 35.8,31.3 36.1,32.6 C36.4,33.9 35.5,35 34.2,35.3 C33.3,35.5 32.5,35.1 32,34.4 C31.6,34.4 31.2,34.5 30.8,34.5 C29.9,34.5 29,34.4 28.1,34.3 C29.2,36.1 30.5,37.8 32,39 C33.5,40.2 35.2,40.9 37,40.9 C38.8,40.9 40.4,40.2 41.9,39 C44.5,37 46.5,33.7 47.5,30.5 C47.6,30.6 47.7,30.6 47.8,30.7 C48,30.7 48.2,30.7 48.4,30.5 C48.9,30.1 49.3,29.1 49.5,28 C49.8,26.3 49.6,25 49,24.7 L49,24.7 Z" id="Shape" sketch:type="MSShapeGroup"></path>
            <path d="M36.4,5.5 L37.4,5.5 C-12.9,-1 50.7,3.6 52.3,21.8 C52.4,20.7 52.6,19.6 52.9,18.7 C51.1,10.3 44.6,4.1 36.9,4.1 C29.2,4.1 22.7,10.3 20.9,18.7 C21.1,19.4 21.3,20.1 21.4,21 C23.5,3.7 36.4,5.5 36.4,5.5 L36.4,5.5 Z M44.6,39.8 C43.3,41.1 41.8,42.1 40.3,42.7 C39.3,43.1 38.2,43.3 37.1,43.3 C36,43.3 34.9,43.1 33.9,42.7 C32.4,42.1 30.9,41.1 29.6,39.8 C29.6,41.4 28.4,42.3 27.6,42.7 C27.5,42.8 27.4,42.8 27.3,42.8 C27,42.9 26.8,43 26.8,43 C26.8,43.4 27,43.8 27.3,44.2 C28.7,45.9 32.5,48.5 37,48.5 C41.5,48.5 45.4,46 46.7,44.2 C47,43.8 47.2,43.4 47.2,43 C46.7,42.8 44.6,41.9 44.6,39.8 L44.6,39.8 Z" id="Shape" sketch:type="MSShapeGroup"></path>
            <path d="M67.1,95.2 L6.9,95.2 C6.3,95.2 5.8,95.7 5.8,96.3 C5.8,96.9 6.3,97.4 6.9,97.4 L67.2,97.4 C67.8,97.4 68.3,96.9 68.3,96.3 C68.2,95.7 67.7,95.2 67.1,95.2 L67.1,95.2 Z M10.5,94.3 L63.6,94.3 C66.1,94.3 68.1,92.3 68.1,89.8 L73.4,59 C73.4,56.5 71.4,54.5 68.9,54.5 L64.6,54.5 C64.6,54.6 64.7,54.7 64.7,54.8 L10,54.8 C10,54.7 10.1,54.6 10.1,54.5 L5.2,54.5 C2.7,54.5 0.7,56.5 0.7,59.1 L6,89.8 C5.9,92.3 8,94.3 10.5,94.3 L10.5,94.3 Z M5.1,55 L68.8,55 C71,55 72.8,56.8 72.8,58.9 L67.5,89.7 C67.5,91.9 65.7,93.7 63.5,93.7 L10.5,93.7 C8.3,93.7 6.5,91.9 6.5,89.7 L1.2,59 C1.2,56.8 2.9,55 5.1,55 L5.1,55 Z" id="Shape" fill="#424242" sketch:type="MSShapeGroup"></path>
            <path d="M64.6,54.8 C64.6,54.7 64.5,54.6 64.5,54.5 C61.3,44.5 55.8,44.1 54.6,43.8 C54.5,43.8 54.3,43.7 54.2,43.7 C50.8,40.5 52.6,28.3 52.9,26 C53.3,28.8 54.4,30.9 55.7,30.9 C57.3,30.9 58.7,27.6 58.7,23.5 C58.7,20 57.7,17.1 56.5,16.4 C53.9,7.3 46.4,0.7 37.5,0.7 C28.7,0.7 21.2,7.3 18.5,16.4 C17.2,17.2 16.3,20.1 16.3,23.5 C16.3,27.6 17.6,30.9 19.3,30.9 C19.8,30.9 20.2,30.6 20.6,30.2 C21.2,30.8 21.8,31.4 22.6,32 C22.9,36.4 22.8,41.9 20.7,43.9 C20.6,43.9 20.4,44 20.3,44 C19.1,44.3 13.6,44.7 10.4,54.7 C10.4,54.8 10.3,54.9 10.3,55 L64.6,54.8 L64.6,54.8 Z M47.5,43 C47.5,43.4 47.3,43.8 47,44.2 C45.6,45.9 41.8,48.5 37.3,48.5 C32.8,48.5 28.9,46 27.6,44.2 C27.3,43.8 27.1,43.4 27.1,43 C27.2,43 27.3,42.9 27.5,42.8 C27.6,42.8 27.7,42.7 27.8,42.7 C28.6,42.3 29.8,41.4 29.8,39.8 C31.1,41.1 32.6,42.1 34.1,42.7 C35.1,43.1 36.2,43.3 37.3,43.3 C38.4,43.3 39.5,43.1 40.5,42.7 C42,42.1 43.5,41.1 44.8,39.8 C44.9,41.9 47,42.8 47.5,43 L47.5,43 Z M49.9,27.8 C49.7,29 49.2,29.9 48.8,30.3 C48.6,30.5 48.4,30.5 48.2,30.5 C48.1,30.5 48,30.4 47.9,30.3 C46.8,33.6 44.8,36.9 42.3,38.8 C40.8,40 39.1,40.7 37.4,40.7 C35.6,40.7 33.9,40 32.4,38.8 C30.9,37.6 29.6,36 28.5,34.1 C29.4,34.2 30.3,34.3 31.2,34.3 C31.6,34.3 32,34.3 32.4,34.2 C32.9,34.9 33.7,35.3 34.6,35.1 C35.9,34.9 36.7,33.7 36.5,32.4 C36.3,31.2 35.1,30.3 33.8,30.5 C33,30.6 32.4,31.2 32.1,31.8 C30.4,31.9 28.8,31.7 27.3,31.3 C27.1,30.9 27,30.5 26.8,30 C26.7,30.1 26.6,30.1 26.5,30.2 C26.3,30.2 26.1,30.1 25.8,29.9 C25.4,29.5 24.9,28.6 24.8,27.5 C24.5,26.1 24.7,24.8 25.2,24.5 C25.3,24.5 25.3,24.4 25.4,24.4 C25.6,24.4 25.8,24.4 26,24.6 C26.1,24 26.9,17 32.1,17.5 L48,25.9 L49.3,24.7 L49.4,24.7 C49.9,25 50.2,26.3 49.9,27.8 L49.9,27.8 Z M21.5,27.8 L21.8,26.6 C21.9,27.1 22,27.8 22.1,28.6 C21.9,28.3 21.7,28.1 21.5,27.8 L21.5,27.8 Z M21.9,21 C21.8,20.2 21.6,19.4 21.4,18.7 C23.2,10.3 29.7,4.1 37.4,4.1 C45.1,4.1 51.6,10.3 53.4,18.7 C53.1,19.6 52.9,20.6 52.8,21.8 C51.1,3.6 37.8,5.5 37.8,5.5 L36.8,5.5 C36.7,5.5 23.8,3.7 21.9,21 L21.9,21 Z M37.2,73 L38.3,75.2 L40.7,75.5 L39,77.2 L39.4,79.5 L37.2,78.4 L35.1,79.5 L35.5,77.2 L33.8,75.5 L36.2,75.2 L37.2,73 Z" id="Shape" fill="#424242" sketch:type="MSShapeGroup"></path>
        </g>
    </g>
</svg>