<?xml version="1.0" encoding="UTF-8" standalone="no"?>
<svg width="92px" height="60px" viewBox="0 0 92 60" version="1.1" xmlns="http://www.w3.org/2000/svg" xmlns:xlink="http://www.w3.org/1999/xlink" xmlns:sketch="http://www.bohemiancoding.com/sketch/ns">
    <!-- Generator: Sketch 3.5.1 (25234) - http://www.bohemiancoding.com/sketch -->
    <title>menu-email</title>
    <desc>Created with Sketch.</desc>
    <defs></defs>
    <g id="Page-1" stroke="none" stroke-width="1" fill="none" fill-rule="evenodd" sketch:type="MSPage">
        <g id="menu-email" sketch:type="MSLayerGroup" fill="#424242">
            <path d="M6.5,0.2 C5.7,0.2 5,0.3 4.3,0.6 L45.9,35 L88.1,0.7 C87.3,0.3 86.5,0.1 85.6,0.1 L6.5,0.2 L6.5,0.2 Z" id="Shape" sketch:type="MSShapeGroup"></path>
            <path d="M91.4,4.7 L47.5,40.4 C47,40.8 46.4,41 45.8,41 C45.2,41 44.6,40.8 44.1,40.4 L0.6,4.4 C0.4,5 0.3,5.6 0.3,6.3 L0.3,53.5 C0.3,54.2 0.4,54.9 0.7,55.5 L25,31.9 C26,30.9 27.7,30.9 28.7,31.9 C29.7,32.9 29.7,34.6 28.7,35.6 L4.4,59.2 C5,59.4 5.7,59.6 6.5,59.6 L85.5,59.6 C86.3,59.6 87.1,59.4 87.8,59.1 L63.5,35.4 C62.5,34.4 62.5,32.7 63.5,31.7 C64.5,30.7 66.1,30.7 67.2,31.7 L91.4,55.3 C91.6,54.7 91.7,54.1 91.7,53.5 L91.7,6.3 C91.6,5.7 91.5,5.2 91.4,4.7 L91.4,4.7 Z" id="Shape" sketch:type="MSShapeGroup"></path>
        </g>
    </g>
</svg>