<?xml version="1.0" encoding="UTF-8" standalone="no"?>
<svg width="70px" height="70px" viewBox="0 0 70 70" version="1.1" xmlns="http://www.w3.org/2000/svg" xmlns:xlink="http://www.w3.org/1999/xlink" xmlns:sketch="http://www.bohemiancoding.com/sketch/ns">
    <!-- Generator: Sketch 3.5.1 (25234) - http://www.bohemiancoding.com/sketch -->
    <title>menu-call</title>
    <desc>Created with Sketch.</desc>
    <defs></defs>
    <g id="Page-1" stroke="none" stroke-width="1" fill="none" fill-rule="evenodd" sketch:type="MSPage">
        <g id="menu-call" sketch:type="MSLayerGroup" fill="#424242">
            <path d="M14.6,30.3 C20.1,41 28.8,49.8 39.6,55.3 L47.9,47 C48.9,46 50.4,45.6 51.8,46.1 C56,47.5 60.6,48.3 65.3,48.3 C67.4,48.3 69.1,50 69.1,52.1 L69.1,65.3 C69.1,67.4 67.4,69.1 65.3,69.1 C29.7,69 0.9,40.2 0.9,4.6 C0.9,2.5 2.6,0.8 4.7,0.8 L18,0.8 C20.1,0.8 21.8,2.5 21.8,4.6 C21.8,9.3 22.6,13.9 24,18.1 C24.4,19.4 24.1,20.9 23.1,22 L14.6,30.3 L14.6,30.3 Z" id="Shape" sketch:type="MSShapeGroup"></path>
        </g>
    </g>
</svg>