<svg id="airplane_1_" xmlns="http://www.w3.org/2000/svg" viewBox="0 0 250 250"><style>.st0{display:none;} .st1{display:inline;fill:none;stroke:#000000;stroke-miterlimit:10;} .st2{display:inline;fill:url(#SVGID_1_);stroke:#000000;stroke-miterlimit:10;} .st3{display:inline;fill:url(#SVGID_2_);stroke:#000000;stroke-miterlimit:10;} .st4{fill-rule:evenodd;clip-rule:evenodd;fill:#FFE2C3;} .st5{fill-rule:evenodd;clip-rule:evenodd;fill:#FFCC80;} .st6{fill-rule:evenodd;clip-rule:evenodd;fill:#FF9800;} .st7{fill-rule:evenodd;clip-rule:evenodd;fill:#EC7271;} .st8{fill-rule:evenodd;clip-rule:evenodd;fill:#FFB74D;} .st9{fill:#FFB74D;}</style><g id="grid" class="st0"><path class="st1" d="M-.3 25h249.9M-.3 224.9h249.9"/><linearGradient id="SVGID_1_" gradientUnits="userSpaceOnUse" x1="24.724" y1="124.953" x2="24.724" y2="124.953"><stop offset="0" stop-color="#FFF"/><stop offset="1"/></linearGradient><path class="st2" d="M24.7 0v249.9"/><linearGradient id="SVGID_2_" gradientUnits="userSpaceOnUse" x1="224.649" y1="124.953" x2="224.649" y2="124.953"><stop offset="0" stop-color="#FFF"/><stop offset="1"/></linearGradient><path class="st3" d="M224.6 0v249.9"/></g><path class="st4" d="M125 220.9c53.5 0 97.1-43.1 97.1-95.9S178.5 29.1 125 29.1 27.9 72.2 27.9 125s43.6 95.9 97.1 95.9z"/><path class="st4" d="M166 74.6l-45.6-.6-14.4 33.2 8.6 21.9 50.3-30.6z"/><path class="st4" d="M132.9 129.5c-3.7 1-7.7-1.2-8.7-4.9l-8.6-35.4c-.9-3.7 1.2-7.5 4.9-8.5s7.6 1.2 8.6 4.9l8.6 35.4c1.1 3.6-1 7.4-4.8 8.5z"/><path class="st4" d="M120.5 131.3c-3.7 1-7.7-1.2-8.7-4.9L103.2 91c-.9-3.7 1.2-7.5 4.9-8.5s7.6 1.2 8.7 4.9l8.6 35.4c.9 3.6-1.2 7.4-4.9 8.5zM142.3 127.2c-3.5 1.6-7.8.1-9.3-3.4l-14.2-33.6c-1.5-3.5 0-7.6 3.5-9.2 3.5-1.6 7.7 0 9.3 3.4l14.2 33.6c1.5 3.5 0 7.6-3.5 9.2z"/><path class="st5" d="M155.4 71c8.1-12.1 30.2-6.3 35.7 2.6 5.4 8.9-.4 18.1-12.6 26.3s-17.8.2-24.3 18.5c-6.6 18.4-6.9-35.3 1.2-47.4z"/><path class="st5" d="M173.8 67.8c.6 3.8-1.9 8.2-5.8 8l-47.1-2c-3.9-.2-7.5-2-8.1-5.7-.6-3.8 2-7.4 5.8-8l47.1 2c3.9.1 7.5 1.9 8.1 5.7z"/><path class="st5" d="M101.9 100c-3.4-1.9-4.5-6.1-2.6-9.5L113.4 64c1.8-3.4 6.2-4.5 9.6-2.6 3.4 1.9 4.5 6.2 2.6 9.5l-14.1 26.5c-1.8 3.4-6.2 4.5-9.6 2.6z"/><path class="st5" d="M104.9 139.7c-3.9.1-7.2-3-7.1-6.8l.6-36.4c.1-3.8 3.1-7 6.9-7.1 3.9-.1 7.1 3 7.1 6.8l-.6 36.4c0 3.8-3 7-6.9 7.1zM116.9 88.7c7.3-6.8 32.4-3.9 26.3 13-6.1 16.9 31.8-18.2 31.8-18.2L154.8 65s-38.7-5.8-37.9 23.7z"/><path class="st5" d="M156 64.7l16.3 31.4 21-6.9-12.9-33.1z"/><path class="st6" d="M171.8 54l16 42.3c9.1-2.7 18.3-5.5 27.4-8.2-3.2-6.3-7.5-13.7-13.4-21.5-5.6-7.4-11.4-13.3-16.4-17.9L171.8 54z"/><path class="st7" d="M105.1 132.5h30.8v2h-30.8z"/><ellipse class="st8" cx="120.5" cy="134.4" rx="15.4" ry="6.8"/><ellipse class="st8" cx="120.5" cy="132.5" rx="15.4" ry="6.8"/><ellipse class="st6" cx="120.5" cy="132.5" rx="13" ry="5.8"/><path class="st9" d="M116 133.6c.7.4 1.4.6 2.2.8.7.2 1.5.3 2.2.3.6 0 1.1-.1 1.5-.2.4-.2.6-.4.6-.6l-.5-.6c-.3-.1-1.1-.3-2.3-.4-1.9-.2-3.2-.5-3.9-.8-.7-.3-1.1-.8-1.1-1.4 0-.7.5-1.3 1.5-1.8s2.5-.7 4.3-.8v-.8h1.6v.7c.7 0 1.4.1 2.1.2.7.1 1.4.3 2 .5l-1.6 1.6c-.6-.2-1.1-.4-1.7-.5-.6-.1-1.2-.2-1.8-.2-.6 0-1.1.1-1.4.2-.4.1-.5.3-.5.5l.5.5c.3.1 1 .2 1.9.3h.2c2 .2 3.4.5 4 .8.4.2.8.4 1 .7l.3.9c0 .8-.5 1.4-1.6 1.9-1 .5-2.4.8-4.2.9v1.3h-1.6v-1.3c-1.2 0-2.2-.1-3.2-.3-1-.2-1.9-.5-2.8-.9l2.3-1.5z"/><path class="st5" d="M156.7 86.8c4.3 1.3 7.1 6 5.4 10.2l-14.9 37.7c-1.6 4.2-6 6.7-10.3 5.4-4.3-1.3-6.8-5.9-5.4-10.2l14.9-37.7c1.6-4.2 6-6.7 10.3-5.4z"/><path class="st8" d="M105.1 190.5h30.8v2h-30.8z"/><ellipse class="st8" cx="120.5" cy="192.5" rx="15.4" ry="6.8"/><ellipse class="st8" cx="120.5" cy="190.5" rx="15.4" ry="6.8"/><ellipse class="st6" cx="120.5" cy="190.5" rx="13" ry="5.8"/><path class="st8" d="M105.1 186.5h30.8v2h-30.8z"/><ellipse class="st8" cx="120.5" cy="188.5" rx="15.4" ry="6.8"/><ellipse class="st8" cx="120.5" cy="186.5" rx="15.4" ry="6.8"/><ellipse class="st6" cx="120.5" cy="186.5" rx="13" ry="5.8"/><path class="st8" d="M105.1 182.5h30.8v2h-30.8z"/><ellipse class="st8" cx="120.5" cy="184.5" rx="15.4" ry="6.8"/><ellipse class="st8" cx="120.5" cy="182.5" rx="15.4" ry="6.8"/><ellipse class="st6" cx="120.5" cy="182.5" rx="13" ry="5.8"/><path class="st8" d="M105.1 178.5h30.8v2h-30.8z"/><ellipse class="st8" cx="120.5" cy="180.5" rx="15.4" ry="6.8"/><ellipse class="st8" cx="120.5" cy="178.5" rx="15.4" ry="6.8"/><ellipse class="st6" cx="120.5" cy="178.5" rx="13" ry="5.8"/><path class="st8" d="M105.1 174.5h30.8v2h-30.8z"/><ellipse class="st8" cx="120.5" cy="176.5" rx="15.4" ry="6.8"/><ellipse class="st8" cx="120.5" cy="174.5" rx="15.4" ry="6.8"/><ellipse class="st6" cx="120.5" cy="174.5" rx="13" ry="5.8"/><path class="st8" d="M105.1 170.5h30.8v2h-30.8z"/><ellipse class="st8" cx="120.5" cy="172.5" rx="15.4" ry="6.8"/><ellipse class="st8" cx="120.5" cy="170.5" rx="15.4" ry="6.8"/><ellipse class="st6" cx="120.5" cy="170.5" rx="13" ry="5.8"/><path class="st8" d="M105.1 166.5h30.8v2h-30.8z"/><ellipse class="st8" cx="120.5" cy="168.5" rx="15.4" ry="6.8"/><ellipse class="st8" cx="120.5" cy="166.5" rx="15.4" ry="6.8"/><ellipse class="st6" cx="120.5" cy="166.5" rx="13" ry="5.8"/><path class="st8" d="M105.1 162.5h30.8v2h-30.8z"/><ellipse class="st8" cx="120.5" cy="164.5" rx="15.4" ry="6.8"/><ellipse class="st8" cx="120.5" cy="162.5" rx="15.4" ry="6.8"/><ellipse class="st6" cx="120.5" cy="162.5" rx="13" ry="5.8"/></svg>