<?xml version="1.0" encoding="UTF-8" standalone="no"?>
<svg width="152px" height="65px" viewBox="0 0 152 65" version="1.1" xmlns="http://www.w3.org/2000/svg" xmlns:xlink="http://www.w3.org/1999/xlink" xmlns:sketch="http://www.bohemiancoding.com/sketch/ns">
    <!-- Generator: Sketch 3.5.1 (25234) - http://www.bohemiancoding.com/sketch -->
    <title>pioneerlogo</title>
    <desc>Created with Sketch.</desc>
    <defs></defs>
    <g id="Page-1" stroke="none" stroke-width="1" fill="none" fill-rule="evenodd" sketch:type="MSPage">
        <g id="pioneerlogo" sketch:type="MSLayerGroup">
            <g id="Group" transform="translate(1.000000, 34.000000)" fill="#424242" sketch:type="MSShapeGroup">
                <path d="M0.2,23.2 L0.2,20 L2.2,19.8 C2.6,19.7 2.7,19.6 2.7,19.2 L2.7,4.8 C2.7,4.3 2.6,4.2 2.2,4.2 L0.2,4 L0.2,0.8 L12.3,0.8 C18.1,0.8 20.6,3.9 20.6,7.5 C20.6,13 17.2,15.3 11.5,15.3 L10.1,15.3 L10.1,19.3 C10.1,19.8 10.1,19.9 10.6,19.9 L15,20.1 L15,23.3 L0.2,23.3 L0.2,23.2 Z M10.5,10.7 C11.5,10.7 13,10.5 13,7.8 C13,5.3 11.5,5.2 10.8,5.2 L10.3,5.2 L10.3,10.7 L10.5,10.7 L10.5,10.7 Z" id="Shape"></path>
                <path d="M21.4,23.2 L21.4,20 L23.7,19.8 C24.1,19.8 24.2,19.6 24.2,19.2 L24.2,4.9 C24.2,4.4 24.1,4.2 23.7,4.2 L21.4,4 L21.4,0.8 L34.7,0.8 L34.7,4 L32.3,4.2 C31.8,4.3 31.8,4.3 31.8,4.8 L31.8,19.2 C31.8,19.7 31.8,19.8 32.3,19.8 L34.7,20 L34.7,23.2 L21.4,23.2 L21.4,23.2 Z" id="Shape"></path>
                <path d="M35.5,12.2 C35.5,5.5 38.8,0.4 47.2,0.4 C55.6,0.4 58.4,5.6 58.4,11.8 C58.4,19.1 55.2,23.7 46.8,23.7 C38.2,23.6 35.5,18.8 35.5,12.2 L35.5,12.2 Z M50.6,12 C50.6,7.2 49.7,5.5 47.1,5.5 C44.4,5.5 43.2,7.2 43.2,12 C43.2,17 44.3,18.4 47,18.4 C49.5,18.4 50.6,17 50.6,12 L50.6,12 Z" id="Shape"></path>
                <path d="M75.2,23.2 L67.4,9.6 L67.4,19.1 C67.4,19.6 67.4,19.7 67.9,19.7 L70,19.9 L70,23.1 L59.6,23.1 L59.6,20 L61.6,19.8 C62,19.7 62.1,19.6 62.1,19.2 L62.1,4.8 C62.1,4.3 62,4.2 61.6,4.2 L59.6,4 L59.6,0.8 L69.8,0.8 L77.6,14.7 L77.6,5 C77.6,4.5 77.5,4.4 77.1,4.4 L75,4 L75,0.7 L85.5,0.7 L85.5,4 L83.4,4.2 C82.9,4.3 82.9,4.3 82.9,4.8 L82.9,23.2 L75.2,23.2 L75.2,23.2 Z" id="Shape"></path>
                <path d="M86.6,23.2 L86.6,20 L88.6,19.8 C89,19.7 89.1,19.6 89.1,19.2 L89.1,4.8 C89.1,4.3 89,4.2 88.6,4.2 L86.6,4 L86.6,0.8 L104.7,0.8 L104.7,8.2 L99.5,8 L99.1,5.7 C99,5.4 98.9,5.3 98.5,5.3 L96.7,5.3 L96.7,9.7 L102.7,9.7 L102.7,14.4 L96.7,14.4 L96.7,18.8 L99.2,18.8 C99.5,18.8 99.6,18.8 99.7,18.5 L100.2,15.8 L105.5,15.8 L105.5,23.4 L86.6,23.4 L86.6,23.2 Z" id="Shape"></path>
                <path d="M107,23.2 L107,20 L109,19.8 C109.4,19.7 109.5,19.6 109.5,19.2 L109.5,4.8 C109.5,4.3 109.4,4.2 109,4.2 L107,4 L107,0.8 L125.1,0.8 L125.1,8.2 L119.9,8 L119.5,5.7 C119.4,5.4 119.3,5.3 118.9,5.3 L117,5.3 L117,9.7 L123,9.7 L123,14.4 L117,14.4 L117,18.8 L119.5,18.8 C119.8,18.8 119.9,18.8 120,18.5 L120.5,15.8 L125.8,15.8 L125.8,23.4 L107,23.4 L107,23.2 Z" id="Shape"></path>
                <path d="M141.6,23.2 L139,15.6 C138.7,14.8 138.4,14.4 137.7,14.4 L137.4,14.4 L137.4,19.2 C137.4,19.7 137.4,19.8 137.9,19.8 L139.1,20 L139.1,23.2 L127.4,23.2 L127.4,20 L129.4,19.8 C129.8,19.7 129.9,19.6 129.9,19.2 L129.9,4.8 C129.9,4.3 129.8,4.2 129.4,4.2 L127.4,4 L127.4,0.8 L140.1,0.8 C145.8,0.8 147.9,3.6 147.9,6.8 C147.9,10.1 145.6,11.7 143.6,12.5 C145.2,12.9 145.9,13.9 146.5,15.6 L147.9,19 C148.1,19.5 148.3,19.7 149,19.8 L150.4,20.1 L150.4,23.3 L141.6,23.3 L141.6,23.2 Z M137.8,10.2 C139.2,10.2 140.2,9.7 140.2,7.7 C140.2,6 139.5,5.3 138,5.3 L137.4,5.3 L137.4,10.2 L137.8,10.2 L137.8,10.2 Z" id="Shape"></path>
            </g>
            <path d="M150.9,30.3 L77.4,0.8 C76.5,0.4 75.5,0.4 74.6,0.8 L1.3,30.3 C0.2,30.7 0.6,32.3 1.7,32.3 L150.5,32.3 C151.7,32.3 152,30.7 150.9,30.3 L150.9,30.3 Z" id="Shape" fill="#424242" sketch:type="MSShapeGroup"></path>
            <g id="Group" transform="translate(90.000000, 24.000000)" fill="#FFA726" sketch:type="MSShapeGroup">
                <path d="M2.5,2.9 L3,3.8 L3,4 C3,4.2 2.8,4.4 2.6,4.4 C2.5,4.4 2.3,4.3 2.3,4.2 L1.7,3.1 L1.1,3.1 L1.1,4.1 C1.1,4.3 0.9,4.5 0.7,4.5 C0.5,4.5 0.3,4.3 0.3,4.1 L0.3,1.2 C0.3,1 0.5,0.8 0.7,0.8 L2,0.8 C2.8,0.8 3.2,1.3 3.2,2 C3.4,2.5 2.9,2.8 2.5,2.9 L2.5,2.9 Z M1.2,1.3 L1.2,2.3 L2,2.3 C2.3,2.3 2.6,2.1 2.6,1.8 C2.6,1.5 2.4,1.3 2,1.3 L1.2,1.3 L1.2,1.3 Z" id="Shape"></path>
                <path d="M5.6,4.4 C4.5,4.4 3.7,3.6 3.7,2.5 C3.7,1.4 4.5,0.6 5.6,0.6 C6.7,0.6 7.5,1.4 7.5,2.5 C7.5,3.6 6.8,4.4 5.6,4.4 L5.6,4.4 Z M5.6,1.3 C4.9,1.3 4.5,1.8 4.5,2.5 C4.5,3.2 4.9,3.7 5.6,3.7 C6.3,3.7 6.7,3.2 6.7,2.5 C6.8,1.8 6.3,1.3 5.6,1.3 L5.6,1.3 Z" id="Shape"></path>
                <path d="M9.8,4.4 C8.7,4.4 7.9,3.6 7.9,2.5 C7.9,1.4 8.7,0.6 9.8,0.6 C10.9,0.6 11.7,1.4 11.7,2.5 C11.7,3.6 10.9,4.4 9.8,4.4 L9.8,4.4 Z M9.8,1.3 C9.1,1.3 8.7,1.8 8.7,2.5 C8.7,3.2 9.1,3.7 9.8,3.7 C10.5,3.7 10.9,3.2 10.9,2.5 C10.9,1.8 10.5,1.3 9.8,1.3 L9.8,1.3 Z" id="Shape"></path>
                <path d="M14.5,1.3 L13,1.3 L13,2.1 L14.5,2.1 C14.7,2.1 14.8,2.3 14.8,2.4 C14.8,2.6 14.6,2.7 14.5,2.7 L13,2.7 L13,4 C13,4.2 12.8,4.4 12.6,4.4 C12.4,4.4 12.2,4.2 12.2,4 L12.2,1.1 C12.2,0.9 12.4,0.7 12.6,0.7 L14.5,0.7 C14.7,0.7 14.8,0.9 14.8,1 C14.9,1.2 14.7,1.3 14.5,1.3 L14.5,1.3 Z" id="Shape"></path>
                <path d="M15.7,4.4 C15.5,4.4 15.3,4.2 15.3,4 L15.3,1 C15.3,0.8 15.5,0.6 15.7,0.6 C15.9,0.6 16.1,0.8 16.1,1 L16.1,4 C16.1,4.2 15.9,4.4 15.7,4.4 L15.7,4.4 Z" id="Shape"></path>
                <path d="M19.6,4.4 C19.5,4.4 19.3,4.3 19.2,4.2 L17.6,2 L17.6,4 C17.6,4.2 17.4,4.4 17.2,4.4 C17,4.4 16.8,4.2 16.8,4 L16.8,1.1 C16.8,0.8 17,0.6 17.3,0.6 C17.5,0.6 17.6,0.7 17.7,0.8 L19.3,2.9 L19.3,0.9 C19.3,0.7 19.5,0.5 19.7,0.5 C19.9,0.5 20.1,0.7 20.1,0.9 L20.1,3.8 C20.1,4.1 19.9,4.4 19.6,4.4 L19.6,4.4 Z" id="Shape"></path>
                <path d="M22.5,4.4 C21.4,4.4 20.5,3.6 20.5,2.5 C20.5,1.3 21.4,0.6 22.5,0.6 C23.1,0.6 23.5,0.8 23.8,1.1 C23.9,1.2 23.9,1.3 23.9,1.3 C23.9,1.5 23.7,1.7 23.5,1.7 C23.4,1.7 23.3,1.7 23.2,1.6 C23,1.4 22.7,1.3 22.4,1.3 C21.7,1.3 21.2,1.8 21.2,2.5 C21.2,3.2 21.7,3.7 22.4,3.7 C22.7,3.7 23,3.6 23.2,3.4 L23.2,3 L22.5,3 C22.3,3 22.2,2.9 22.2,2.7 C22.2,2.5 22.3,2.4 22.5,2.4 L23.5,2.4 C23.7,2.4 23.9,2.6 23.9,2.8 L23.9,3.4 C24.1,4 23.3,4.4 22.5,4.4 L22.5,4.4 Z" id="Shape"></path>
            </g>
            <g id="Group" transform="translate(67.000000, 10.000000)" fill="#FFA726" sketch:type="MSShapeGroup">
                <rect id="Rectangle-path" x="0.3" y="10.4" width="8.4" height="8.4"></rect>
                <path d="M9.6,0 L9.6,9.5 L18,9.5 L18,8.6 C18,3.8 14.3,0 9.6,0 L9.6,0 Z" id="Shape"></path>
                <rect id="Rectangle-path" x="9.6" y="10.4" width="8.4" height="8.4"></rect>
                <path d="M0.3,8.5 L0.3,9.4 L8.7,9.4 L8.7,0 C4,0 0.3,3.8 0.3,8.5 L0.3,8.5 Z" id="Shape"></path>
            </g>
            <path d="M90,64.8 L150.6,64.8 C151.2,64.8 151.7,64.3 151.7,63.7 L151.7,59.6 L90,59.6 L90,64.8 L90,64.8 Z" id="Shape" fill="#424242" sketch:type="MSShapeGroup"></path>
            <path d="M2.1,64.8 L62.1,64.8 L62.1,59.6 L0.8,59.6 L0.8,63.6 C0.8,64.2 1.4,64.8 2.1,64.8 L2.1,64.8 Z" id="Shape" fill="#424242" sketch:type="MSShapeGroup"></path>
            <g id="Group" transform="translate(63.000000, 59.000000)" fill="#424242" sketch:type="MSShapeGroup">
                <path d="M2.1,1.6 L0.6,1.6 L0.6,0.4 L4.9,0.4 L4.9,1.6 L3.4,1.6 L3.4,5.6 L2.1,5.6 L2.1,1.6 L2.1,1.6 Z" id="Shape"></path>
                <path d="M5.5,0.5 L9.3,0.5 L9.3,1.6 L6.8,1.6 L6.8,2.5 L9.2,2.5 L9.2,3.6 L6.8,3.6 L6.8,4.5 L9.3,4.5 L9.3,5.6 L5.5,5.6 L5.5,0.5 L5.5,0.5 Z" id="Shape"></path>
                <path d="M12.2,3.9 L11,5.7 L9.4,5.7 L11.2,3 L9.5,0.5 L11.1,0.5 L12.1,2.1 L13.1,0.5 L14.7,0.5 L13.1,3 L14.9,5.7 L13.3,5.7 L12.2,3.9 L12.2,3.9 Z" id="Shape"></path>
                <path d="M18.6,4.9 L16.4,4.9 L16.1,5.7 L14.6,5.7 L16.6,0.5 L18.3,0.5 L20.3,5.7 L18.8,5.7 L18.6,4.9 L18.6,4.9 Z M16.7,3.8 L18.2,3.8 L17.5,1.7 L16.7,3.8 L16.7,3.8 Z" id="Shape"></path>
                <path d="M20.9,3.9 C21.3,4.3 21.9,4.6 22.6,4.6 C23.1,4.6 23.3,4.4 23.3,4.2 C23.3,3.9 23,3.8 22.4,3.7 C21.5,3.5 20.3,3.3 20.3,2.1 C20.3,1.2 21,0.5 22.4,0.5 C23.2,0.5 24,0.8 24.5,1.2 L23.8,2.2 C23.4,1.8 22.8,1.7 22.3,1.7 C21.9,1.7 21.7,1.9 21.7,2.1 C21.7,2.4 22,2.5 22.6,2.6 C23.5,2.8 24.7,3 24.7,4.2 C24.7,5.2 23.9,5.9 22.5,5.9 C21.4,5.9 20.7,5.6 20.2,5.1 L20.9,3.9 L20.9,3.9 Z" id="Shape"></path>
            </g>
        </g>
    </g>
</svg>