<?xml version="1.0" encoding="UTF-8" standalone="no"?>
<svg width="401px" height="267px" viewBox="0 0 401 267" version="1.1" xmlns="http://www.w3.org/2000/svg" xmlns:xlink="http://www.w3.org/1999/xlink" xmlns:sketch="http://www.bohemiancoding.com/sketch/ns">
    <!-- Generator: Sketch 3.5.1 (25234) - http://www.bohemiancoding.com/sketch -->
    <title>Group 2</title>
    <desc>Created with Sketch.</desc>
    <defs></defs>
    <g id="Page-1" stroke="none" stroke-width="1" fill="none" fill-rule="evenodd" sketch:type="MSPage">
        <g id="Group-2" sketch:type="MSLayerGroup">
            <path d="M329.4,192 C312.6,192 298.9,205.6 298.9,222.5 L298.9,262.4 L359.8,262.4 L359.8,222.5 C359.9,205.7 346.3,192 329.4,192 L329.4,192 Z" id="Shape" fill="#FFB74D" sketch:type="MSShapeGroup"></path>
            <circle id="Oval" fill="#FFCC80" sketch:type="MSShapeGroup" cx="366.5" cy="237.3" r="21.3"></circle>
            <circle id="Oval" fill="#FFCC80" sketch:type="MSShapeGroup" cx="24.4" cy="244.4" r="14.2"></circle>
            <circle id="Oval" fill="#FFB74D" sketch:type="MSShapeGroup" cx="55.7" cy="229.3" r="29.2"></circle>
            <path d="M0.2,250.7 L400.1,250.7 L400.1,267 L0.2,267 L0.2,250.7 L0.2,250.7 Z" id="Shape" fill="#757575" sketch:type="MSShapeGroup"></path>
            <path d="M67.3,83.9 L333.2,83.9 L333.2,250.8 L67.3,250.8 L67.3,83.9 L67.3,83.9 Z" id="Shape" fill="#FFCC80" sketch:type="MSShapeGroup"></path>
            <path d="M333.9,240.7 L308.5,240.7 L308.5,250.8 L336.8,250.8 L336.8,243.6 C336.8,242 335.5,240.7 333.9,240.7 L333.9,240.7 Z" id="Shape" fill="#E3F2FD" sketch:type="MSShapeGroup"></path>
            <path d="M233.8,130.1 L308.5,130.1 L308.5,250.8 L233.8,250.8 L233.8,130.1 L233.8,130.1 Z" id="Shape" fill="#EF6C00" sketch:type="MSShapeGroup"></path>
            <path d="M238.3,134.5 L304.1,134.5 L304.1,246.3 L238.3,246.3 L238.3,134.5 L238.3,134.5 Z" id="Shape" fill="#FFB74D" sketch:type="MSShapeGroup"></path>
            <g id="Group" transform="translate(238.000000, 134.000000)" fill="#FB8C00" sketch:type="MSShapeGroup">
                <path d="M66.1,28.2 L66.1,35 L31.6,0.5 L38.4,0.5 L66.1,28.2 L66.1,28.2 Z M66.1,95.6 L66.1,102.4 L0.3,36.6 L0.3,29.7 L66.1,95.6 L66.1,95.6 Z M66.1,38.7 L66.1,52.4 L14.2,0.5 L27.9,0.5 L66.1,38.7 L66.1,38.7 Z" id="Shape"></path>
            </g>
            <path d="M238.3,134.5 L304.1,134.5 L304.1,136.9 L238.3,136.9 L238.3,134.5 L238.3,134.5 Z" id="Shape" opacity="0.2" fill="#616161" sketch:type="MSShapeGroup"></path>
            <path d="M233.8,223.9 L233.8,250.7 L260.7,250.7 L233.8,223.9 L233.8,223.9 Z" id="Shape" opacity="0.4" fill="#616161" sketch:type="MSShapeGroup"></path>
            <circle id="Oval" fill="#E3F2FD" sketch:type="MSShapeGroup" cx="246.2" cy="182.6" r="2.8"></circle>
            <circle id="Oval" fill="#E3F2FD" sketch:type="MSShapeGroup" cx="246.2" cy="202.9" r="2.8"></circle>
            <path d="M246.2,180.3 C245.3,180.3 244.6,181 244.6,181.9 L244.6,203.4 C244.6,204.3 245.3,205 246.2,205 C247.1,205 247.8,204.3 247.8,203.4 L247.8,182 C247.9,181.1 247.1,180.3 246.2,180.3 L246.2,180.3 Z M233.8,240.7 L65.8,240.7 C64.6,240.7 63.6,241.7 63.6,242.9 L63.6,250.8 L233.8,250.8 L233.8,240.7 L233.8,240.7 Z" id="Shape" fill="#E3F2FD" sketch:type="MSShapeGroup"></path>
            <path d="M66.9,73.3 L333.4,73.3 L333.4,78.2 L66.9,78.2 L66.9,73.3 L66.9,73.3 Z" id="Shape" fill="#757575" sketch:type="MSShapeGroup"></path>
            <path d="M66.9,63.5 L333.4,63.5 L333.4,68.4 L66.9,68.4 L66.9,63.5 L66.9,63.5 Z" id="Shape" fill="#FFCC80" sketch:type="MSShapeGroup"></path>
            <path d="M70.2,68.4 L330.2,68.4 L330.2,73.3 L70.2,73.3 L70.2,68.4 L70.2,68.4 Z" id="Shape" fill="#FFB74D" sketch:type="MSShapeGroup"></path>
            <path d="M70.2,68.4 L330.2,68.4 L330.2,70.8 L70.2,70.8 L70.2,68.4 L70.2,68.4 Z" id="Shape" fill="#EF6C00" sketch:type="MSShapeGroup"></path>
            <path d="M285.1,120.1 L300,120.1 L300,125.9 L285.1,125.9 L285.1,120.1 L285.1,120.1 Z M303.9,120.1 L318.8,120.1 L318.8,125.9 L303.9,125.9 L303.9,120.1 L303.9,120.1 Z M294.6,110.5 L309.5,110.5 L309.5,116.3 L294.6,116.3 L294.6,110.5 L294.6,110.5 Z M311.4,201.5 L326.3,201.5 L326.3,207.3 L311.4,207.3 L311.4,201.5 L311.4,201.5 Z M320.9,191.9 L329.5,191.9 L329.5,197.7 L320.9,197.7 L320.9,191.9 L320.9,191.9 Z M91.9,120.1 L106.8,120.1 L106.8,125.9 L91.9,125.9 L91.9,120.1 L91.9,120.1 Z M110.7,120.1 L125.6,120.1 L125.6,125.9 L110.7,125.9 L110.7,120.1 L110.7,120.1 Z M101.3,110.5 L116.2,110.5 L116.2,116.3 L101.3,116.3 L101.3,110.5 L101.3,110.5 Z M120.2,110.5 L135.1,110.5 L135.1,116.3 L120.2,116.3 L120.2,110.5 L120.2,110.5 Z M137.1,230.2 L152,230.2 L152,236 L137.1,236 L137.1,230.2 L137.1,230.2 Z M192.8,220.6 L207.7,220.6 L207.7,226.4 L192.8,226.4 L192.8,220.6 L192.8,220.6 Z M118.3,230.2 L133.2,230.2 L133.2,236 L118.3,236 L118.3,230.2 L118.3,230.2 Z M127.7,220.6 L142.6,220.6 L142.6,226.4 L127.7,226.4 L127.7,220.6 L127.7,220.6 Z M108.8,220.6 L123.7,220.6 L123.7,226.4 L108.8,226.4 L108.8,220.6 L108.8,220.6 Z M67.9,170.4 L78.7,170.4 L78.7,176.2 L67.9,176.2 L67.9,170.4 L67.9,170.4 Z M74.7,160.7 L85.5,160.7 L85.5,166.5 L74.7,166.5 L74.7,160.7 L74.7,160.7 Z" id="Shape" fill="#FFBB58" sketch:type="MSShapeGroup"></path>
            <path d="M308.5,147.1 C307.9,147.1 307.4,147.6 307.4,148.2 L307.4,156.7 C307.4,157.3 307.9,157.8 308.5,157.8 C309.1,157.8 309.6,157.3 309.6,156.7 L309.6,148.2 C309.6,147.6 309.1,147.1 308.5,147.1 L308.5,147.1 Z M308.5,223 C307.9,223 307.4,223.5 307.4,224.1 L307.4,232.6 C307.4,233.2 307.9,233.7 308.5,233.7 C309.1,233.7 309.6,233.2 309.6,232.6 L309.6,224.1 C309.6,223.5 309.1,223 308.5,223 L308.5,223 Z" id="Shape" fill="#F5F5F5" sketch:type="MSShapeGroup"></path>
            <path d="M189.4,120.1 L196.9,120.1 L196.9,125.9 L189.4,125.9 L189.4,120.1 L189.4,120.1 Z M197.9,110.5 L205.4,110.5 L205.4,116.3 L197.9,116.3 L197.9,110.5 L197.9,110.5 Z M177.9,110.5 L192.8,110.5 L192.8,116.3 L177.9,116.3 L177.9,110.5 L177.9,110.5 Z M77.5,220.2 L85,220.2 L85,226 L77.5,226 L77.5,220.2 L77.5,220.2 Z M71.4,210.6 L79.7,210.6 L79.7,216.4 L71.4,216.4 L71.4,210.6 L71.4,210.6 Z M313.8,163.4 L324.6,163.4 L324.6,169.2 L313.8,169.2 L313.8,163.4 L313.8,163.4 Z M214.7,145.2 L222.2,145.2 L222.2,151 L214.7,151 L214.7,145.2 L214.7,145.2 Z M218.5,153.6 L226,153.6 L226,159.4 L218.5,159.4 L218.5,153.6 L218.5,153.6 Z" id="Shape" fill="#FFBB58" sketch:type="MSShapeGroup"></path>
            <g id="Group" transform="translate(60.000000, 78.000000)" sketch:type="MSShapeGroup">
                <path d="M31.3,21.2 C31.3,29.8 38.3,36.8 46.9,36.8 C55.5,36.8 62.5,29.8 62.5,21.2 L62.5,11.5 L31.4,11.5 L31.4,21.2 L31.3,21.2 L31.3,21.2 Z M93.5,21.2 C93.5,29.8 100.5,36.8 109.1,36.8 C117.7,36.8 124.7,29.8 124.7,21.2 L124.7,11.5 L93.6,11.5 L93.6,21.2 L93.5,21.2 L93.5,21.2 Z M155.7,21.2 C155.7,29.8 162.7,36.8 171.3,36.8 C179.9,36.8 186.9,29.8 186.9,21.2 L186.9,11.5 L155.8,11.5 L155.8,21.2 L155.7,21.2 L155.7,21.2 Z M217.9,11.5 L217.9,21.2 C217.9,29.8 224.9,36.8 233.5,36.8 C242.1,36.8 249.1,29.8 249.1,21.2 L249.1,11.5 L217.9,11.5 L217.9,11.5 Z" id="Shape" fill="#FFF3E0"></path>
                <path d="M31.3,11.5 L62.4,11.5 L66.2,0.2 L36.5,0.2 L31.3,11.5 L31.3,11.5 Z M93.5,11.5 L124.6,11.5 L125.4,0.2 L95.8,0.2 L93.5,11.5 L93.5,11.5 Z M155,0.2 L155.7,11.5 L186.8,11.5 L184.6,0.2 L155,0.2 L155,0.2 Z M243.8,0.2 L214.2,0.2 L217.9,11.5 L249,11.5 L243.8,0.2 L243.8,0.2 Z" id="Shape" fill="#FFE0B2"></path>
                <path d="M0.2,21.2 C0.2,29.8 7.2,36.8 15.8,36.8 C24.4,36.8 31.4,29.8 31.4,21.2 L31.4,11.5 L0.3,11.5 L0.2,21.2 L0.2,21.2 Z M62.4,21.2 C62.4,29.8 69.4,36.8 78,36.8 C86.6,36.8 93.6,29.8 93.6,21.2 L93.6,11.5 L62.5,11.5 L62.5,21.2 L62.4,21.2 L62.4,21.2 Z M124.6,21.2 C124.6,29.8 131.6,36.8 140.2,36.8 C148.8,36.8 155.8,29.8 155.8,21.2 L155.8,11.5 L124.7,11.5 L124.6,21.2 L124.6,21.2 L124.6,21.2 L124.6,21.2 Z M186.8,21.2 C186.8,29.8 193.8,36.8 202.4,36.8 C211,36.8 218,29.8 218,21.2 L218,11.5 L186.9,11.5 L186.9,21.2 L186.8,21.2 L186.8,21.2 Z M249,11.5 L249,21.2 C249,29.8 256,36.8 264.6,36.8 C273.2,36.8 280.2,29.8 280.2,21.2 L280.2,11.5 L249,11.5 L249,11.5 Z" id="Shape" fill="#FB8C00"></path>
                <path d="M0.2,11.5 L31.3,11.5 L36.5,0.2 L6.9,0.2 L0.2,11.5 L0.2,11.5 Z M62.4,11.5 L93.5,11.5 L95.8,0.2 L66.2,0.2 L62.4,11.5 L62.4,11.5 Z M125.4,0.2 L124.6,11.5 L155.7,11.5 L155,0.2 L125.4,0.2 L125.4,0.2 Z M184.6,0.2 L186.8,11.5 L217.9,11.5 L214.2,0.2 L184.6,0.2 L184.6,0.2 Z M273.5,0.2 L243.8,0.2 L249,11.5 L280.2,11.5 L273.5,0.2 L273.5,0.2 Z" id="Shape" fill="#F57C00"></path>
            </g>
            <path d="M70.2,130.1 L78.1,130.1 L78.1,135.9 L70.2,135.9 L70.2,130.1 L70.2,130.1 Z" id="Shape" fill="#FFBB58" sketch:type="MSShapeGroup"></path>
            <g id="Group" transform="translate(81.000000, 131.000000)" sketch:type="MSShapeGroup">
                <path d="M7.2,0.3 L133.7,0.3 L133.7,77.1 L7.2,77.1 L7.2,0.3 L7.2,0.3 Z" id="Shape" fill="#EF6C00"></path>
                <path d="M11.6,4.7 L129.3,4.7 L129.3,72.6 L11.6,72.6 L11.6,4.7 L11.6,4.7 Z" id="Shape" fill="#FFB74D"></path>
                <g transform="translate(50.000000, 4.000000)" id="Shape" fill="#FB8C00">
                    <path d="M79.3,20.8 L79.3,31.3 L48.8,0.7 L59.3,0.7 L79.3,20.8 L79.3,20.8 Z M79.3,34.2 L79.3,39.4 L40.6,0.7 L45.9,0.7 L79.3,34.2 L79.3,34.2 Z M79.3,58.1 L79.3,68.6 L68.8,68.6 L0.9,0.7 L21.9,0.7 L79.3,58.1 L79.3,58.1 Z"></path>
                </g>
                <path d="M11.6,4.7 L129.3,4.7 L129.3,7.1 L11.6,7.1 L11.6,4.7 L11.6,4.7 Z" id="Shape" opacity="0.2" fill="#616161"></path>
                <path d="M0.6,77.1 L140.3,77.1 L140.3,91.5 L0.6,91.5 L0.6,77.1 L0.6,77.1 Z" id="Shape" fill="#E3F2FD"></path>
                <path d="M131.7,68.6 L9.3,68.6 C6.1,68.6 3.4,71.2 3.4,74.5 L3.4,77.1 L137.5,77.1 L137.5,74.5 C137.5,71.2 134.9,68.6 131.7,68.6 L131.7,68.6 Z" id="Shape" fill="#FFB74D"></path>
                <path d="M0.6,77.1 L140.3,77.1 L140.3,80.2 L0.6,80.2 L0.6,77.1 L0.6,77.1 Z" id="Shape" opacity="0.5" fill="#BBDEFB"></path>
                <path d="M137.5,74.2 L3.4,74.2 L3.4,77.1 L137.5,77.1 L137.5,74.2 L137.5,74.2 Z" id="Shape" opacity="0.2" fill="#616161"></path>
                <path d="M153.1,90.4 L153.1,120.6 L29.1,120.6 L0.9,92.4 L140.6,92.4 L140.6,77.9 L153.1,90.4 L153.1,90.4 Z" id="Shape" opacity="0.4" fill="#616161"></path>
            </g>
            <path d="M337.5,0.8 L62.9,0.8 C58.6,0.8 55.1,4.3 55.1,8.6 L55.1,51 C55.1,55.3 58.6,58.8 62.9,58.8 L337.6,58.8 C341.9,58.8 345.4,55.3 345.4,51 L345.4,8.6 C345.3,4.3 341.8,0.8 337.5,0.8 L337.5,0.8 Z" id="Shape" fill="#EF6C00" sketch:type="MSShapeGroup"></path>
            <path d="M335.8,5.4 L64.6,5.4 C61.8,5.4 59.6,7.6 59.6,10.4 L59.6,49.2 C59.6,52 61.8,54.2 64.6,54.2 L335.8,54.2 C338.6,54.2 340.8,52 340.8,49.2 L340.8,10.4 C340.8,7.6 338.6,5.4 335.8,5.4 L335.8,5.4 L335.8,5.4 Z" id="Shape" fill="#FFA726" sketch:type="MSShapeGroup"></path>
            <path d="M340.8,10.4 L340.8,11 L59.6,11 L59.6,10.4 C59.6,7.6 61.8,5.4 64.6,5.4 L335.8,5.4 C338.6,5.4 340.8,7.6 340.8,10.4 L340.8,10.4 L340.8,10.4 Z" id="Shape" opacity="0.2" fill="#FFB74D" sketch:type="MSShapeGroup"></path>
            <path d="M81.5,36.7 L80.1,36.7 L80.1,41.3 L74.7,41.3 L74.7,24.1 L81.9,24.1 C86.8,24.1 89.6,26.6 89.6,30.3 C89.5,34.5 86.7,36.7 81.5,36.7 L81.5,36.7 Z M81.4,28.3 L79.9,28.3 L79.9,32.8 L81.3,32.8 C83.2,32.8 84.1,32 84.1,30.5 C84.1,29 83.2,28.3 81.4,28.3 L81.4,28.3 Z M95.9,41.4 L95.9,24.2 L101.3,24.2 L101.3,41.4 L95.9,41.4 L95.9,41.4 Z M117,41.8 C111.9,41.8 107.8,38.8 107.8,32.8 C107.8,27.2 111.9,23.7 117,23.7 C122.1,23.7 126.2,26.6 126.2,32.6 C126.3,38.3 122.2,41.8 117,41.8 L117,41.8 Z M117,28 C114.5,28 113.3,29.9 113.3,32.7 C113.3,35.5 114.6,37.5 117.1,37.5 C119.6,37.5 120.8,35.5 120.8,32.8 C120.8,30 119.5,28 117,28 L117,28 Z M144.8,24.2 L149.8,24.2 L149.8,41.6 L144,41.6 L137.8,31.7 L137.8,41.4 L132.8,41.4 L132.8,24.2 L138.6,24.2 L144.7,34 L144.8,24.2 L144.8,24.2 L144.8,24.2 Z M157,41.4 L157,24.2 L170.4,24.2 L170.4,28.4 L162.3,28.4 L162.3,30.7 L168.7,30.7 L168.7,34.9 L162.3,34.9 L162.3,37.2 L170.4,37.2 L170.4,41.4 L157,41.4 L157,41.4 Z M177.2,41.4 L177.2,24.2 L190.6,24.2 L190.6,28.4 L182.5,28.4 L182.5,30.7 L188.9,30.7 L188.9,34.9 L182.5,34.9 L182.5,37.2 L190.6,37.2 L190.6,41.4 L177.2,41.4 L177.2,41.4 Z M202.7,41.4 L197.3,41.4 L197.3,24.2 L205.1,24.2 C209.9,24.2 212.4,26.4 212.4,29.8 C212.4,32 211.3,33.8 209,34.8 L213.3,41.4 L207.3,41.4 L204.2,36.2 L202.7,36.3 L202.7,41.4 L202.7,41.4 L202.7,41.4 Z M204.5,32.4 C206.2,32.2 206.8,31.6 206.8,30.2 C206.8,28.9 206.1,28.3 204.1,28.3 L202.6,28.3 L202.6,32.4 L204.5,32.4 L204.5,32.4 L204.5,32.4 Z" id="Shape" fill="#FFF3E0" sketch:type="MSShapeGroup"></path>
            <path d="M238,28.6 L238,41.4 L232.6,41.4 L232.6,28.6 L227.4,28.6 L227.4,24.2 L243.2,24.2 L243.2,28.6 L238,28.6 L238,28.6 Z M249.5,41.4 L249.5,24.2 L262.9,24.2 L262.9,28.4 L254.8,28.4 L254.8,30.7 L261.2,30.7 L261.2,34.9 L254.8,34.9 L254.8,37.2 L262.9,37.2 L262.9,41.4 L249.5,41.4 L249.5,41.4 Z M274.2,41.4 L268.3,41.4 L274.1,32.8 L268.5,24.2 L274.5,24.2 L277.4,29.2 L280.4,24.2 L286.3,24.2 L280.6,32.6 L286.5,41.4 L280.5,41.4 L277.4,36.1 L274.2,41.4 L274.2,41.4 L274.2,41.4 Z M309.5,41.4 L304.1,41.4 L303,38.2 L297.2,38.2 L296.2,41.4 L290.9,41.4 L296.8,24.2 L303.7,24.2 L309.5,41.4 L309.5,41.4 Z M300.2,28 L298.3,34 L302,34 L300.2,28 L300.2,28 L300.2,28 Z M323.4,36.4 C323.4,35.6 322.2,35.3 320.2,34.7 C317.7,34 314.5,32.8 314.5,29.3 C314.5,25.9 316.8,23.7 321.5,23.7 C324.6,23.7 326.8,24.4 328.4,25.2 L327.5,29.6 C325.6,28.7 323.2,28 321.4,28 C320.4,28 319.7,28.2 319.7,28.9 C319.7,29.7 321.4,30.1 323.1,30.6 C325.8,31.4 328.7,32.6 328.7,35.9 C328.7,39.3 326.1,41.7 321.1,41.7 C318.3,41.7 315.6,41 314,40.2 L314.8,35.8 C316.6,36.7 319,37.4 321.1,37.4 C322.6,37.4 323.4,37.1 323.4,36.4 L323.4,36.4 L323.4,36.4 Z" id="Shape" fill="#FFF3E0" sketch:type="MSShapeGroup"></path>
            <path d="M86.2,58.8 L90.8,58.8 L90.8,63.5 L86.2,63.5 L86.2,58.8 L86.2,58.8 Z M309.5,58.8 L314.1,58.8 L314.1,63.5 L309.5,63.5 L309.5,58.8 L309.5,58.8 Z" id="Shape" fill="#FFCC80" sketch:type="MSShapeGroup"></path>
        </g>
    </g>
</svg>