<?xml version="1.0" encoding="utf-8"?>
<!-- Generator: Adobe Illustrator 19.0.0, SVG Export Plug-In . SVG Version: 6.00 Build 0)  -->
<svg version="1.1" id="Layer_1" xmlns:sketch="http://www.bohemiancoding.com/sketch/ns"
	 xmlns="http://www.w3.org/2000/svg" xmlns:xlink="http://www.w3.org/1999/xlink" x="0px" y="0px" viewBox="-229 364 152 65"
	 style="enable-background:new -229 364 152 65;" xml:space="preserve">
<style type="text/css">
	.st0{fill:#FFFFFF;}
</style>
<title>pioneerlogo</title>
<desc>Created with Sketch.</desc>
<g id="pioneerlogo">
	<g id="Group" transform="translate(1.000000, 34.000000)">
		<path id="Shape" class="st0" d="M-228.8,387.2V384l2-0.2c0.4-0.1,0.5-0.2,0.5-0.6v-14.4c0-0.5-0.1-0.6-0.5-0.6l-2-0.2v-3.2h12.1
			c5.8,0,8.3,3.1,8.3,6.7c0,5.5-3.4,7.8-9.1,7.8h-1.4v4c0,0.5,0,0.6,0.5,0.6l4.4,0.2v3.2L-228.8,387.2L-228.8,387.2L-228.8,387.2z
			 M-218.5,374.7c1,0,2.5-0.2,2.5-2.9c0-2.5-1.5-2.6-2.2-2.6h-0.5v5.5H-218.5L-218.5,374.7L-218.5,374.7z"/>
		<path id="Shape_1_" class="st0" d="M-207.6,387.2V384l2.3-0.2c0.4,0,0.5-0.2,0.5-0.6v-14.3c0-0.5-0.1-0.7-0.5-0.7l-2.3-0.2v-3.2
			h13.3v3.2l-2.4,0.2c-0.5,0.1-0.5,0.1-0.5,0.6v14.4c0,0.5,0,0.6,0.5,0.6l2.4,0.2v3.2H-207.6L-207.6,387.2L-207.6,387.2z"/>
		<path id="Shape_2_" class="st0" d="M-193.5,376.2c0-6.7,3.3-11.8,11.7-11.8c8.4,0,11.2,5.2,11.2,11.4c0,7.3-3.2,11.9-11.6,11.9
			C-190.8,387.6-193.5,382.8-193.5,376.2L-193.5,376.2L-193.5,376.2z M-178.4,376c0-4.8-0.9-6.5-3.5-6.5c-2.7,0-3.9,1.7-3.9,6.5
			c0,5,1.1,6.4,3.8,6.4C-179.5,382.4-178.4,381-178.4,376L-178.4,376L-178.4,376z"/>
		<path id="Shape_3_" class="st0" d="M-153.8,387.2l-7.8-13.6v9.5c0,0.5,0,0.6,0.5,0.6l2.1,0.2v3.2h-10.4V384l2-0.2
			c0.4-0.1,0.5-0.2,0.5-0.6v-14.4c0-0.5-0.1-0.6-0.5-0.6l-2-0.2v-3.2h10.2l7.8,13.9V369c0-0.5-0.1-0.6-0.5-0.6l-2.1-0.4v-3.3h10.5
			v3.3l-2.1,0.2c-0.5,0.1-0.5,0.1-0.5,0.6v18.4H-153.8L-153.8,387.2L-153.8,387.2z"/>
		<path id="Shape_4_" class="st0" d="M-142.4,387.2V384l2-0.2c0.4-0.1,0.5-0.2,0.5-0.6v-14.4c0-0.5-0.1-0.6-0.5-0.6l-2-0.2v-3.2
			h18.1v7.4l-5.2-0.2l-0.4-2.3c-0.1-0.3-0.2-0.4-0.6-0.4h-1.8v4.4h6v4.7h-6v4.4h2.5c0.3,0,0.4,0,0.5-0.3l0.5-2.7h5.3v7.6h-18.9
			V387.2L-142.4,387.2z"/>
		<path id="Shape_5_" class="st0" d="M-122,387.2V384l2-0.2c0.4-0.1,0.5-0.2,0.5-0.6v-14.4c0-0.5-0.1-0.6-0.5-0.6l-2-0.2v-3.2h18.1
			v7.4l-5.2-0.2l-0.4-2.3c-0.1-0.3-0.2-0.4-0.6-0.4h-1.9v4.4h6v4.7h-6v4.4h2.5c0.3,0,0.4,0,0.5-0.3l0.5-2.7h5.3v7.6H-122V387.2
			L-122,387.2z"/>
		<path id="Shape_6_" class="st0" d="M-87.4,387.2l-2.6-7.6c-0.3-0.8-0.6-1.2-1.3-1.2h-0.3v4.8c0,0.5,0,0.6,0.5,0.6l1.2,0.2v3.2
			h-11.7V384l2-0.2c0.4-0.1,0.5-0.2,0.5-0.6v-14.4c0-0.5-0.1-0.6-0.5-0.6l-2-0.2v-3.2h12.7c5.7,0,7.8,2.8,7.8,6
			c0,3.3-2.3,4.9-4.3,5.7c1.6,0.4,2.3,1.4,2.9,3.1l1.4,3.4c0.2,0.5,0.4,0.7,1.1,0.8l1.4,0.3v3.2L-87.4,387.2L-87.4,387.2
			L-87.4,387.2z M-91.2,374.2c1.4,0,2.4-0.5,2.4-2.5c0-1.7-0.7-2.4-2.2-2.4h-0.6v4.9H-91.2L-91.2,374.2L-91.2,374.2z"/>
	</g>
	<path id="Shape_17_" class="st0" d="M-139,428.8h60.6c0.6,0,1.1-0.5,1.1-1.1v-4.1H-139V428.8L-139,428.8L-139,428.8z"/>
	<path id="Shape_18_" class="st0" d="M-226.9,428.8h60v-5.2h-61.3v4C-228.2,428.2-227.6,428.8-226.9,428.8L-226.9,428.8
		L-226.9,428.8z"/>
	<g id="Group_3_" transform="translate(63.000000, 59.000000)">
		<path id="Shape_19_" class="st0" d="M-226.9,365.6h-1.5v-1.2h4.3v1.2h-1.5v4h-1.3V365.6L-226.9,365.6L-226.9,365.6z"/>
		<path id="Shape_20_" class="st0" d="M-223.5,364.5h3.8v1.1h-2.5v0.9h2.4v1.1h-2.4v0.9h2.5v1.1h-3.8V364.5L-223.5,364.5
			L-223.5,364.5z"/>
		<path id="Shape_21_" class="st0" d="M-216.8,367.9l-1.2,1.8h-1.6l1.8-2.7l-1.7-2.5h1.6l1,1.6l1-1.6h1.6l-1.6,2.5l1.8,2.7h-1.6
			L-216.8,367.9L-216.8,367.9L-216.8,367.9z"/>
		<path id="Shape_22_" class="st0" d="M-210.4,368.9h-2.2l-0.3,0.8h-1.5l2-5.2h1.7l2,5.2h-1.5L-210.4,368.9L-210.4,368.9
			L-210.4,368.9z M-212.3,367.8h1.5l-0.7-2.1L-212.3,367.8L-212.3,367.8L-212.3,367.8z"/>
		<path id="Shape_23_" class="st0" d="M-208.1,367.9c0.4,0.4,1,0.7,1.7,0.7c0.5,0,0.7-0.2,0.7-0.4c0-0.3-0.3-0.4-0.9-0.5
			c-0.9-0.2-2.1-0.4-2.1-1.6c0-0.9,0.7-1.6,2.1-1.6c0.8,0,1.6,0.3,2.1,0.7l-0.7,1c-0.4-0.4-1-0.5-1.5-0.5c-0.4,0-0.6,0.2-0.6,0.4
			c0,0.3,0.3,0.4,0.9,0.5c0.9,0.2,2.1,0.4,2.1,1.6c0,1-0.8,1.7-2.2,1.7c-1.1,0-1.8-0.3-2.3-0.8L-208.1,367.9L-208.1,367.9
			L-208.1,367.9z"/>
	</g>
</g>
<path class="st0" d="M-133.4,389.3c-0.7,0-1.1,0.5-1.1,1.2s0.4,1.2,1.1,1.2c0.7,0,1.1-0.5,1.1-1.2
	C-132.2,389.8-132.7,389.3-133.4,389.3z"/>
<path class="st0" d="M-129.2,389.3c-0.7,0-1.1,0.5-1.1,1.2s0.4,1.2,1.1,1.2s1.1-0.5,1.1-1.2S-128.5,389.3-129.2,389.3z"/>
<path class="st0" d="M-78.1,394.3l-73.5-29.5c-0.9-0.4-1.9-0.4-2.8,0l-73.3,29.5c-1.1,0.4-0.7,2,0.4,2h148.8
	C-77.3,396.3-77,394.7-78.1,394.3z M-153.3,392.8h-8.4v-8.4h8.4V392.8z M-153.3,383.4h-8.4v-0.9c0-4.7,3.7-8.5,8.4-8.5V383.4z
	 M-144,392.8h-8.4v-8.4h8.4V392.8z M-144,383.5h-8.4V374c4.7,0,8.4,3.8,8.4,8.6V383.5z M-136.5,390.9l0.5,0.9v0.2
	c0,0.2-0.2,0.4-0.4,0.4c-0.1,0-0.3-0.1-0.3-0.2l-0.6-1.1h-0.6v1c0,0.2-0.2,0.4-0.4,0.4s-0.4-0.2-0.4-0.4v-2.9c0-0.2,0.2-0.4,0.4-0.4
	h1.3c0.8,0,1.2,0.5,1.2,1.2C-135.6,390.5-136.1,390.8-136.5,390.9z M-133.4,392.4c-1.1,0-1.9-0.8-1.9-1.9s0.8-1.9,1.9-1.9
	c1.1,0,1.9,0.8,1.9,1.9S-132.2,392.4-133.4,392.4z M-129.2,392.4c-1.1,0-1.9-0.8-1.9-1.9s0.8-1.9,1.9-1.9c1.1,0,1.9,0.8,1.9,1.9
	S-128.1,392.4-129.2,392.4z M-124.5,390.1c0.2,0,0.3,0.2,0.3,0.3c0,0.2-0.2,0.3-0.3,0.3h-1.5v1.3c0,0.2-0.2,0.4-0.4,0.4
	c-0.2,0-0.4-0.2-0.4-0.4v-2.9c0-0.2,0.2-0.4,0.4-0.4h1.9c0.2,0,0.3,0.2,0.3,0.3c0.1,0.2-0.1,0.3-0.3,0.3h-1.5v0.8H-124.5z
	 M-122.9,392c0,0.2-0.2,0.4-0.4,0.4s-0.4-0.2-0.4-0.4v-3c0-0.2,0.2-0.4,0.4-0.4s0.4,0.2,0.4,0.4V392z M-118.9,391.8
	c0,0.3-0.2,0.6-0.5,0.6c-0.1,0-0.3-0.1-0.4-0.2l-1.6-2.2v2c0,0.2-0.2,0.4-0.4,0.4s-0.4-0.2-0.4-0.4v-2.9c0-0.3,0.2-0.5,0.5-0.5
	c0.2,0,0.3,0.1,0.4,0.2l1.6,2.1v-2c0-0.2,0.2-0.4,0.4-0.4s0.4,0.2,0.4,0.4V391.8z M-116.5,392.4c-1.1,0-2-0.8-2-1.9
	c0-1.2,0.9-1.9,2-1.9c0.6,0,1,0.2,1.3,0.5c0.1,0.1,0.1,0.2,0.1,0.2c0,0.2-0.2,0.4-0.4,0.4c-0.1,0-0.2,0-0.3-0.1
	c-0.2-0.2-0.5-0.3-0.8-0.3c-0.7,0-1.2,0.5-1.2,1.2s0.5,1.2,1.2,1.2c0.3,0,0.6-0.1,0.8-0.3V391h-0.7c-0.2,0-0.3-0.1-0.3-0.3
	s0.1-0.3,0.3-0.3h1c0.2,0,0.4,0.2,0.4,0.4v0.6C-114.9,392-115.7,392.4-116.5,392.4z"/>
<path class="st0" d="M-137,389.3h-0.8v1h0.8c0.3,0,0.6-0.2,0.6-0.5S-136.6,389.3-137,389.3z"/>
</svg>
