<?xml version="1.0" encoding="UTF-8"?>
<svg width="288px" height="123px" viewBox="0 0 288 123" version="1.1" xmlns="http://www.w3.org/2000/svg" xmlns:xlink="http://www.w3.org/1999/xlink">
    <!-- Generator: Sketch 43.1 (39012) - http://www.bohemiancoding.com/sketch -->
    <title>new logo svg</title>
    <desc>Created with Sketch.</desc>
    <defs></defs>
    <g id="Page-1" stroke="none" stroke-width="1" fill="none" fill-rule="evenodd">
        <g id="new-logo-svg" fill-rule="nonzero" fill="#FFFFFF">
            <g id="Group" transform="translate(2.000000, 64.000000)">
                <path d="M0.9,43.9 L0.9,37.9 L4.6,37.5 C5.4,37.4 5.6,37.2 5.6,36.3 L5.6,9 C5.6,8.1 5.5,7.9 4.6,7.8 L0.9,7.4 L0.9,1.3 L23.8,1.3 C34.8,1.3 39.5,7.1 39.5,13.9 C39.5,24.2 33,28.6 22.4,28.6 L19.8,28.6 L19.8,36.2 C19.8,37.1 19.9,37.3 20.8,37.4 L29,37.9 L29,43.9 C29,43.9 0.9,43.9 0.9,43.9 Z M20.3,20.2 C22.2,20.2 25,19.8 25,14.8 C25,10 22.1,9.9 20.8,9.9 L19.8,9.9 L19.8,20.2 L20.3,20.2 L20.3,20.2 Z" id="Shape"></path>
                <path d="M41,43.9 L41,37.9 L45.4,37.5 C46.2,37.4 46.4,37.2 46.4,36.3 L46.4,9.3 C46.4,8.4 46.3,8.1 45.4,8 L41,7.4 L41,1.3 L66.1,1.3 L66.1,7.4 L61.5,7.9 C60.6,8 60.5,8.1 60.5,9 L60.5,36.1 C60.5,37 60.6,37.2 61.5,37.3 L66.1,37.8 L66.1,43.8 L41,43.8 L41,43.9 Z" id="Shape"></path>
                <path d="M67.5,22.9 C67.5,10.3 73.7,0.5 89.7,0.5 C105.6,0.5 110.8,10.3 110.8,22.1 C110.8,35.8 104.8,44.5 88.8,44.5 C72.6,44.6 67.5,35.6 67.5,22.9 Z M96.2,22.6 C96.2,13.6 94.5,10.4 89.6,10.4 C84.5,10.4 82.2,13.7 82.2,22.6 C82.2,32 84.2,34.6 89.3,34.6 C94.1,34.7 96.2,32.2 96.2,22.6 Z" id="Shape"></path>
                <path d="M142.6,43.9 L127.9,18.3 L127.9,36.2 C127.9,37.1 128,37.3 128.9,37.4 L132.9,37.9 L132.9,43.9 L113.1,43.9 L113.1,37.9 L116.8,37.5 C117.6,37.4 117.8,37.2 117.8,36.3 L117.8,9 C117.8,8.1 117.7,7.9 116.8,7.8 L113.1,7.4 L113.1,1.3 L132.3,1.3 L147,27.5 L147,9.1 C147,8.2 146.9,8 146,7.9 L142.3,7.5 L142.3,1.3 L162.2,1.3 L162.2,7.5 L158.2,8 C157.3,8.1 157.2,8.2 157.2,9.1 L157.2,43.8 L142.6,43.9 L142.6,43.9 Z" id="Shape"></path>
                <path d="M164.2,43.9 L164.2,37.9 L167.9,37.5 C168.7,37.4 168.9,37.2 168.9,36.3 L168.9,9 C168.9,8.1 168.8,7.9 167.9,7.8 L164.2,7.4 L164.2,1.3 L198.4,1.3 L198.4,15.3 L188.5,14.9 L187.7,10.5 C187.6,9.9 187.3,9.7 186.7,9.7 L183.2,9.7 L183.2,18 L194.6,18 L194.6,26.9 L183.2,26.9 L183.2,35.2 L188,35.2 C188.6,35.2 188.8,35.1 189,34.6 L189.9,29.4 L199.9,29.4 L199.9,43.7 L164.2,43.7 L164.2,43.9 Z" id="Shape"></path>
                <path d="M202.8,43.9 L202.8,37.9 L206.5,37.5 C207.3,37.4 207.5,37.2 207.5,36.3 L207.5,9 C207.5,8.1 207.4,7.9 206.5,7.8 L202.8,7.4 L202.8,1.3 L237,1.3 L237,15.3 L227,15 L226.2,10.6 C226.1,10 225.8,9.8 225.2,9.8 L221.7,9.8 L221.7,18.1 L233.1,18.1 L233.1,27 L221.7,27 L221.7,35.3 L226.5,35.3 C227.1,35.3 227.3,35.2 227.5,34.7 L228.4,29.5 L238.4,29.5 L238.4,43.8 L202.8,43.9 L202.8,43.9 Z" id="Shape"></path>
                <path d="M268.1,43.9 L263.2,29.6 C262.6,28.1 262.1,27.3 260.7,27.3 L260.1,27.3 L260.1,36.3 C260.1,37.2 260.2,37.4 261.1,37.5 L263.5,38 L263.5,44 L241.3,44 L241.3,38 L245,37.6 C245.8,37.5 246,37.3 246,36.4 L246,9 C246,8.1 245.9,7.9 245,7.8 L241.3,7.4 L241.3,1.3 L265.3,1.3 C276.1,1.3 280.1,6.6 280.1,12.7 C280.1,19 275.7,22 272,23.4 C275,24.2 276.4,26 277.5,29.2 L280.2,35.6 C280.5,36.6 281,37 282.3,37.2 L285,37.7 L285,43.7 L268.1,43.7 L268.1,43.9 Z M260.9,19.2 C263.5,19.2 265.4,18.3 265.4,14.4 C265.4,11.2 264.1,9.9 261.3,9.9 L260.1,9.9 L260.1,19.2 L260.9,19.2 Z" id="Shape"></path>
            </g>
            <path d="M2.7,122.1 L285.2,122.1 C286.4,122.1 287.4,121.1 287.4,119.9 L287.4,114.4 C287.4,113.2 286.4,112.2 285.2,112.2 L2.7,112.2 C1.5,112.2 0.5,113.2 0.5,114.4 L0.5,119.9 C0.5,121.1 1.5,122.1 2.7,122.1 Z" id="Shape"></path>
            <g id="Group" transform="translate(1.000000, 0.000000)">
                <path d="M184.1,46.7 C183.4,46.7 182.7,47 182.2,47.5 C181.7,48.1 181.4,48.7 181.4,49.5 C181.4,50.3 181.7,51 182.2,51.5 C182.7,52 183.3,52.3 184.1,52.3 C184.8,52.3 185.5,52 186,51.5 C186.5,51 186.8,50.3 186.8,49.5 C186.8,48.7 186.5,48 186,47.5 C185.5,47 184.9,46.7 184.1,46.7 Z" id="Shape"></path>
                <path d="M194.6,46.7 C193.9,46.7 193.2,47 192.7,47.5 C192.2,48.1 191.9,48.7 191.9,49.5 C191.9,50.3 192.2,51 192.7,51.5 C193.2,52 193.8,52.3 194.6,52.3 C195.3,52.3 196,52 196.5,51.5 C197,51 197.3,50.3 197.3,49.5 C197.3,48.7 197,48 196.5,47.5 C196,47 195.4,46.7 194.6,46.7 Z" id="Shape"></path>
                <path d="M175.6,47.2 C175.3,47 174.9,46.9 174.3,46.9 L172.8,46.9 L172.8,49.5 L174.3,49.5 C175,49.5 175.4,49.4 175.7,49.2 C175.9,49 176.1,48.6 176.1,48.1 C176.1,47.6 175.8,47.4 175.6,47.2 Z" id="Shape"></path>
                <path d="M283.4,55.3 L148.4,1.5 C145,0.2 140.9,0.2 137.6,1.5 L2.6,55.3 C-1.2,56.8 0.2,61 4.5,61 L281.5,61 C285.8,61 287.2,56.8 283.4,55.3 Z M141.9,54.1 L126,54.1 L126,39.2 L141.9,39.2 L141.9,54.1 Z M141.9,37.1 L126,37.1 L126,36.3 C126,27.4 133.4,20.2 141.9,20.2 L141.9,37.1 Z M160,54.1 L144.1,54.1 L144.1,39.2 L160,39.2 L160,54.1 Z M160,37.1 L144.1,37.1 L144.1,20.1 C152.6,20.1 160,27.3 160,36.2 L160,37.1 Z M176.1,54.1 L174.1,51.3 L172.7,51.3 L172.7,54.1 L170.7,54.1 L170.7,45.2 L174.1,45.2 C175.5,45.2 176.5,45.4 177.1,45.9 C177.7,46.4 178,47.1 178,48.2 C178,49.6 177.4,50.5 176.3,51 L178.6,54.2 L176.1,54.1 L176.1,54.1 Z M187.4,52.9 C186.5,53.8 185.4,54.2 184.1,54.2 C182.8,54.2 181.7,53.8 180.8,52.9 C179.9,52 179.4,50.9 179.4,49.6 C179.4,48.3 179.9,47.2 180.8,46.3 C181.7,45.4 182.8,45 184.1,45 C185.4,45 186.5,45.4 187.4,46.3 C188.3,47.2 188.8,48.3 188.8,49.6 C188.8,50.9 188.3,52 187.4,52.9 Z M198,52.9 C197.1,53.8 196,54.2 194.7,54.2 C193.4,54.2 192.3,53.8 191.4,52.9 C190.5,52 190,50.9 190,49.6 C190,48.3 190.5,47.2 191.4,46.3 C192.3,45.4 193.4,45 194.7,45 C196,45 197.1,45.4 198,46.3 C198.9,47.2 199.4,48.3 199.4,49.6 C199.4,50.9 198.9,52 198,52.9 Z M207.1,46.9 L203,46.9 L203,48.8 L206.9,48.8 L206.9,50.5 L203,50.5 L203,54 L201,54 L201,45.1 L207.1,45.1 L207.1,46.9 Z M210.8,54.1 L208.8,54.1 L208.8,45.2 L210.8,45.2 L210.8,54.1 Z M221.2,54.1 L219.2,54.1 L215,48.5 L215,54.1 L213,54.1 L213,45.2 L214.9,45.2 L219.3,50.9 L219.3,45.2 L221.3,45.2 L221.2,54.1 L221.2,54.1 Z M231.2,52.7 C230.3,53.7 229.1,54.2 227.5,54.2 C226.2,54.2 225.1,53.8 224.2,52.9 C223.3,52 222.9,50.9 222.9,49.6 C222.9,48.3 223.4,47.2 224.3,46.3 C225.2,45.4 226.3,45 227.6,45 C228.9,45 230,45.4 230.9,46.3 L229.9,47.8 C229.5,47.5 229.1,47.2 228.8,47.1 C228.5,47 228.1,46.9 227.7,46.9 C226.9,46.9 226.3,47.2 225.8,47.7 C225.3,48.2 225,48.9 225,49.7 C225,50.5 225.2,51.2 225.7,51.7 C226.2,52.2 226.8,52.5 227.5,52.5 C228.2,52.5 228.8,52.4 229.2,52.1 L229.2,49.7 L231.2,49.7 L231.2,52.7 L231.2,52.7 Z" id="Shape"></path>
            </g>
        </g>
    </g>
</svg>