<?xml version="1.0" encoding="utf-8"?>
<!-- Generator: Adobe Illustrator 19.0.0, SVG Export Plug-In . SVG Version: 6.00 Build 0)  -->
<svg version="1.1" id="Layer_1" xmlns="http://www.w3.org/2000/svg" xmlns:xlink="http://www.w3.org/1999/xlink" x="0px" y="0px"
	 viewBox="0 0 800 345.5" style="enable-background:new 0 0 800 345.5;" xml:space="preserve">
<style type="text/css">
	.st0{fill:#FFFFFF;}
</style>
<g id="pioneerlogo">
	<g id="Group" transform="translate(1.000000, 34.000000)">
		<path id="Shape" class="st0" d="M1.9,266.3v-16.9l10.6-1.1c2.1-0.5,2.6-1.1,2.6-3.2v-76.3c0-2.6-0.5-3.2-2.6-3.2l-10.6-1.1v-16.9
			H66c30.7,0,44,16.4,44,35.5c0,29.1-18,41.3-48.2,41.3h-7.4v21.2c0,2.6,0,3.2,2.6,3.2l23.3,1.1v16.9L1.9,266.3L1.9,266.3L1.9,266.3
			z M56.5,200.1c5.3,0,13.2-1.1,13.2-15.4c0-13.2-7.9-13.8-11.7-13.8h-2.6v29.1H56.5L56.5,200.1L56.5,200.1z"/>
		<path id="Shape_1_" class="st0" d="M114.2,266.3v-16.9l12.2-1.1c2.1,0,2.6-1.1,2.6-3.2v-75.7c0-2.6-0.5-3.7-2.6-3.7l-12.2-1.1
			v-16.9h70.4v16.9l-12.7,1.1c-2.6,0.5-2.6,0.5-2.6,3.2v76.3c0,2.6,0,3.2,2.6,3.2l12.7,1.1v16.9H114.2L114.2,266.3L114.2,266.3z"/>
		<path id="Shape_2_" class="st0" d="M188.9,208c0-35.5,17.5-62.5,62-62.5s59.3,27.5,59.3,60.4c0,38.7-16.9,63-61.4,63
			C203.2,268.4,188.9,243,188.9,208L188.9,208L188.9,208z M268.9,207c0-25.4-4.8-34.4-18.5-34.4c-14.3,0-20.7,9-20.7,34.4
			c0,26.5,5.8,33.9,20.1,33.9C263,240.9,268.9,233.5,268.9,207L268.9,207L268.9,207z"/>
		<path id="Shape_3_" class="st0" d="M399.1,266.3l-41.3-72v50.3c0,2.6,0,3.2,2.6,3.2l11.1,1.1v16.9h-55.1v-16.4l10.6-1.1
			c2.1-0.5,2.6-1.1,2.6-3.2v-76.3c0-2.6-0.5-3.2-2.6-3.2l-10.6-1.1v-16.9h54l41.3,73.6v-51.4c0-2.6-0.5-3.2-2.6-3.2l-11.1-2.1v-17.5
			h55.6v17.5l-11.1,1.1c-2.6,0.5-2.6,0.5-2.6,3.2v97.5H399.1L399.1,266.3L399.1,266.3z"/>
		<path id="Shape_4_" class="st0" d="M459.5,266.3v-16.9l10.6-1.1c2.1-0.5,2.6-1.1,2.6-3.2v-76.3c0-2.6-0.5-3.2-2.6-3.2l-10.6-1.1
			v-16.9h95.9v39.2l-27.5-1.1l-2.1-12.2c-0.5-1.6-1.1-2.1-3.2-2.1H513v23.3h31.8v24.9H513V243h13.2c1.6,0,2.1,0,2.6-1.6l2.6-14.3
			h28.1v40.3H459.5V266.3L459.5,266.3z"/>
		<path id="Shape_5_" class="st0" d="M567.6,266.3v-16.9l10.6-1.1c2.1-0.5,2.6-1.1,2.6-3.2v-76.3c0-2.6-0.5-3.2-2.6-3.2l-10.6-1.1
			v-16.9h95.9v39.2l-27.5-1.1l-2.1-12.2c-0.5-1.6-1.1-2.1-3.2-2.1h-10.1v23.3h31.8v24.9h-31.8V243h13.2c1.6,0,2.1,0,2.6-1.6
			l2.6-14.3h28.1v40.3h-99.6V266.3L567.6,266.3z"/>
		<path id="Shape_6_" class="st0" d="M750.8,266.3L737,226c-1.6-4.2-3.2-6.4-6.9-6.4h-1.6v25.4c0,2.6,0,3.2,2.6,3.2l6.4,1.1v16.9
			h-62v-16.9l10.6-1.1c2.1-0.5,2.6-1.1,2.6-3.2v-76.3c0-2.6-0.5-3.2-2.6-3.2l-10.6-1.1v-16.9h67.3c30.2,0,41.3,14.8,41.3,31.8
			c0,17.5-12.2,26-22.8,30.2c8.5,2.1,12.2,7.4,15.4,16.4l7.4,18c1.1,2.6,2.1,3.7,5.8,4.2l7.4,1.6v16.9L750.8,266.3L750.8,266.3
			L750.8,266.3z M730.7,197.4c7.4,0,12.7-2.6,12.7-13.2c0-9-3.7-12.7-11.7-12.7h-3.2v26H730.7L730.7,197.4L730.7,197.4z"/>
	</g>
	<path id="Shape_17_" class="st0" d="M473.2,340.5h320.9c3.2,0,5.8-2.6,5.8-5.8V313H473.2V340.5L473.2,340.5L473.2,340.5z"/>
	<path id="Shape_18_" class="st0" d="M7.7,340.5h317.8V313H0.8v21.2C0.8,337.4,4,340.5,7.7,340.5L7.7,340.5L7.7,340.5z"/>
	<g id="Group_3_" transform="translate(63.000000, 59.000000)">
		<path id="Shape_19_" class="st0" d="M278.3,259.3h-7.9v-6.4h22.8v6.4h-7.9v21.2h-6.9V259.3L278.3,259.3L278.3,259.3z"/>
		<path id="Shape_20_" class="st0" d="M296.4,253.5h20.1v5.8h-13.2v4.8H316v5.8h-12.7v4.8h13.2v5.8h-20.1V253.5L296.4,253.5
			L296.4,253.5z"/>
		<path id="Shape_21_" class="st0" d="M331.8,271.5l-6.4,9.5H317l9.5-14.3l-9-13.2h8.5l5.3,8.5l5.3-8.5h8.5l-8.5,13.2l9.5,14.3h-8.5
			L331.8,271.5L331.8,271.5L331.8,271.5z"/>
		<path id="Shape_22_" class="st0" d="M365.7,276.8h-11.7l-1.6,4.2h-7.9l10.6-27.5h9l10.6,27.5h-7.9L365.7,276.8L365.7,276.8
			L365.7,276.8z M355.7,271h7.9l-3.7-11.1L355.7,271L355.7,271L355.7,271z"/>
		<path id="Shape_23_" class="st0" d="M377.9,271.5c2.1,2.1,5.3,3.7,9,3.7c2.6,0,3.7-1.1,3.7-2.1c0-1.6-1.6-2.1-4.8-2.6
			c-4.8-1.1-11.1-2.1-11.1-8.5c0-4.8,3.7-8.5,11.1-8.5c4.2,0,8.5,1.6,11.1,3.7l-3.7,5.3c-2.1-2.1-5.3-2.6-7.9-2.6
			c-2.1,0-3.2,1.1-3.2,2.1c0,1.6,1.6,2.1,4.8,2.6c4.8,1.1,11.1,2.1,11.1,8.5c0,5.3-4.2,9-11.7,9c-5.8,0-9.5-1.6-12.2-4.2
			L377.9,271.5L377.9,271.5L377.9,271.5z"/>
	</g>
</g>
<path class="st0" d="M502.9,131.3c-3.7,0-5.8,2.6-5.8,6.4c0,3.7,2.1,6.4,5.8,6.4c3.7,0,5.8-2.6,5.8-6.4
	C509.2,134,506.6,131.3,502.9,131.3z"/>
<path class="st0" d="M525.1,131.3c-3.7,0-5.8,2.6-5.8,6.4c0,3.7,2.1,6.4,5.8,6.4s5.8-2.6,5.8-6.4C531,134,528.8,131.3,525.1,131.3z"
	/>
<path class="st0" d="M795.8,157.8L406.5,1.6c-4.8-2.1-10.1-2.1-14.8,0L3.5,157.8c-5.8,2.1-3.7,10.6,2.1,10.6h788.1
	C800,168.4,801.6,159.9,795.8,157.8z M397.5,149.9H353v-44.5h44.5V149.9z M397.5,100.1H353v-4.8c0-24.9,19.6-45,44.5-45V100.1z
	 M446.7,149.9h-44.5v-44.5h44.5V149.9z M446.7,100.6h-44.5V50.3c24.9,0,44.5,20.1,44.5,45.5V100.6z M486.5,139.8l2.6,4.8v1.1
	c0,1.1-1.1,2.1-2.1,2.1c-0.5,0-1.6-0.5-1.6-1.1l-3.2-5.8h-3.2v5.3c0,1.1-1.1,2.1-2.1,2.1c-1.1,0-2.1-1.1-2.1-2.1v-15.4
	c0-1.1,1.1-2.1,2.1-2.1h6.9c4.2,0,6.4,2.6,6.4,6.4C491.2,137.7,488.6,139.3,486.5,139.8z M502.9,147.8c-5.8,0-10.1-4.2-10.1-10.1
	s4.2-10.1,10.1-10.1c5.8,0,10.1,4.2,10.1,10.1S509.2,147.8,502.9,147.8z M525.1,147.8c-5.8,0-10.1-4.2-10.1-10.1s4.2-10.1,10.1-10.1
	c5.8,0,10.1,4.2,10.1,10.1S531,147.8,525.1,147.8z M550,135.6c1.1,0,1.6,1.1,1.6,1.6c0,1.1-1.1,1.6-1.6,1.6h-7.9v6.9
	c0,1.1-1.1,2.1-2.1,2.1c-1.1,0-2.1-1.1-2.1-2.1v-15.4c0-1.1,1.1-2.1,2.1-2.1H550c1.1,0,1.6,1.1,1.6,1.6c0.5,1.1-0.5,1.6-1.6,1.6
	h-7.9v4.2L550,135.6L550,135.6z M558.5,145.6c0,1.1-1.1,2.1-2.1,2.1s-2.1-1.1-2.1-2.1v-15.9c0-1.1,1.1-2.1,2.1-2.1s2.1,1.1,2.1,2.1
	V145.6z M579.7,144.6c0,1.6-1.1,3.2-2.6,3.2c-0.5,0-1.6-0.5-2.1-1.1l-8.5-11.7v10.6c0,1.1-1.1,2.1-2.1,2.1s-2.1-1.1-2.1-2.1v-15.4
	c0-1.6,1.1-2.6,2.6-2.6c1.1,0,1.6,0.5,2.1,1.1l8.5,11.1v-10.6c0-1.1,1.1-2.1,2.1-2.1s2.1,1.1,2.1,2.1V144.6z M592.4,147.8
	c-5.8,0-10.6-4.2-10.6-10.1c0-6.4,4.8-10.1,10.6-10.1c3.2,0,5.3,1.1,6.9,2.6c0.5,0.5,0.5,1.1,0.5,1.1c0,1.1-1.1,2.1-2.1,2.1
	c-0.5,0-1.1,0-1.6-0.5c-1.1-1.1-2.6-1.6-4.2-1.6c-3.7,0-6.4,2.6-6.4,6.4c0,3.7,2.6,6.4,6.4,6.4c1.6,0,3.2-0.5,4.2-1.6v-2.1h-3.7
	c-1.1,0-1.6-0.5-1.6-1.6s0.5-1.6,1.6-1.6h5.3c1.1,0,2.1,1.1,2.1,2.1v3.2C600.9,145.6,596.6,147.8,592.4,147.8z"/>
<path class="st0" d="M483.8,131.3h-4.2v5.3h4.2c1.6,0,3.2-1.1,3.2-2.6C487,132.4,485.9,131.3,483.8,131.3z"/>
</svg>
