<?xml version="1.0" encoding="utf-8"?>
<!-- Generator: Adobe Illustrator 19.0.0, SVG Export Plug-In . SVG Version: 6.00 Build 0)  -->
<svg version="1.1" id="Layer_1" xmlns="http://www.w3.org/2000/svg" xmlns:xlink="http://www.w3.org/1999/xlink" x="0px" y="0px"
	 viewBox="-149 85.7 300 131.3" style="enable-background:new -149 85.7 300 131.3;" xml:space="preserve">
<style type="text/css">
	.st0{fill:#FFFFFF;}
</style>
<path class="st0" d="M-141.3,197.6v-6.1l3.8-0.4c0.8-0.1,1-0.3,1-1.2v-27.4c0-0.9-0.1-1.1-1-1.2l-3.8-0.4v-6.2h23.1
	c11.1,0,15.8,5.9,15.8,12.7c0,10.4-6.6,14.8-17.3,14.8h-2.6v7.6c0,0.9,0.1,1.1,1,1.2l8.3,0.5v6.1
	C-113,197.6-141.3,197.6-141.3,197.6z M-121.8,173.8c1.9,0,4.8-0.4,4.8-5.4c0-4.9-2.9-5-4.2-5h-1v10.4
	C-122.2,173.8-121.8,173.8-121.8,173.8z M-100.9,197.6v-6.1l4.4-0.4c0.8-0.1,1-0.3,1-1.2v-27.2c0-0.9-0.1-1.2-1-1.3l-4.4-0.5v-6.2
	h25.3v6.2l-4.6,0.5c-0.9,0.1-1,0.2-1,1.1v27.4c0,0.9,0.1,1.1,1,1.2l4.6,0.5v6.1L-100.9,197.6L-100.9,197.6z M-74.1,176.6
	c0-12.7,6.3-22.6,22.4-22.6s21.3,9.8,21.3,21.7c0,13.9-6.1,22.6-22.1,22.6C-68.9,198.4-74.1,189.3-74.1,176.6z M-45.2,176.3
	c0-9.1-1.7-12.3-6.6-12.3c-5.2,0-7.5,3.3-7.5,12.3c0,9.5,2,12.1,7.2,12.1C-47.3,188.4-45.2,185.9-45.2,176.3z M1.6,197.6l-14.8-25.8
	v18.1c0,0.9,0.1,1.1,1,1.2l4.1,0.5v6.1h-20v-6.1l3.8-0.4c0.8-0.1,1-0.3,1-1.2v-27.5c0-0.9-0.1-1.1-1-1.2l-3.8-0.4v-6.2h19.4L6,181.2
	v-18.6c0-0.9-0.1-1.1-1-1.2L1.2,161v-6.3h20.1v6.3l-4.1,0.5c-0.9,0.1-1,0.2-1,1.1v35H1.6L1.6,197.6z M23.4,197.6v-6.1l3.8-0.4
	c0.8-0.1,1-0.3,1-1.2v-27.4c0-0.9-0.1-1.1-1-1.2l-3.8-0.4v-6.2h34.4v14.2l-10-0.4l-0.8-4.4c-0.1-0.6-0.4-0.8-1-0.8h-3.5v8.4H54v9
	H42.5v8.4h4.8c0.6,0,0.8-0.1,1-0.7l0.9-5.2h10.1v14.4C59.3,197.6,23.4,197.6,23.4,197.6z M62.3,197.6v-6.1l3.8-0.4
	c0.8-0.1,1-0.3,1-1.2v-27.4c0-0.9-0.1-1.1-1-1.2l-3.8-0.4v-6.2h34.4v14.2l-10-0.4l-0.8-4.4c-0.1-0.6-0.4-0.8-1-0.8h-3.5v8.4h11.5v9
	H81.4v8.4h4.8c0.6,0,0.8-0.1,1-0.7l0.9-5.2h10.1v14.4H62.3L62.3,197.6z M128.2,197.6l-5-14.4c-0.6-1.5-1.1-2.4-2.5-2.4h-0.6v9.1
	c0,0.9,0.1,1.1,1,1.2l2.4,0.5v6.1h-22.4v-6.1l3.8-0.4c0.8-0.1,1-0.3,1-1.2v-27.5c0-0.9-0.1-1.1-1-1.2l-3.8-0.4v-6.2h24.2
	c10.9,0,14.9,5.3,14.9,11.5c0,6.3-4.4,9.4-8.2,10.8c3,0.8,4.4,2.6,5.6,5.9l2.7,6.5c0.3,1,0.8,1.4,2.1,1.6l2.7,0.5v6.1H128.2
	L128.2,197.6z M120.9,172.8c2.6,0,4.5-0.9,4.5-4.9c0-3.2-1.3-4.5-4.1-4.5h-1.2v9.4H120.9L120.9,172.8z"/>
<g>
	<path class="st0" d="M27.2,212h113.7c2.2,0,4-1.8,4-4v-2c0-2.2-1.8-4-4-4H27.2V212z M-138.8,212h114.7c0.1,0,0.1,0,0.1-0.1v-9.8
		c0-0.1,0-0.1-0.1-0.1h-114.7c-2.2,0-4,1.8-4,4v2C-142.8,210.2-141,212-138.8,212z M-19.2,204.5h-2.7v-2.6h8.3v2.6h-2.7v7.3h-3
		L-19.2,204.5L-19.2,204.5z M-12.6,201.9h7.5v2.5h-4.5v1.2h4.4v2.5h-4.4v1.3h4.5v2.5h-7.5V201.9z M0.4,208.8l-1.8,3h-3.5l3.3-5.1
		l-3.1-4.8h3.5l1.6,2.8l1.6-2.8h3.6l-3.1,4.8l3.3,5.1H2.3L0.4,208.8L0.4,208.8z"/>
	<path class="st0" d="M12.6,210.6H8.8l-0.4,1.3H5.1l3.7-9.9h3.8l3.7,9.9H13L12.6,210.6z M9.5,208.1h2.3l-1.1-3.5L9.5,208.1z
		 M17.4,208.2c0.7,0.7,1.9,1.3,3.2,1.3c0.6,0,1.1-0.2,1.1-0.6c0-0.4-0.4-0.6-1.4-0.8c-1.6-0.3-4.1-0.7-4.1-3.2
		c0-1.7,1.4-3.2,4.1-3.2c1.6,0,3.1,0.5,4.2,1.4l-1.6,2.1c-0.9-0.7-2-1-2.8-1c-0.7,0-0.9,0.3-0.9,0.5c0,0.4,0.4,0.5,1.5,0.7
		c1.6,0.3,4.1,0.8,4.1,3.1c0,2.2-1.6,3.5-4.3,3.5c-2.1,0-3.6-0.6-4.6-1.6C15.9,210.4,17.4,208.2,17.4,208.2z"/>
</g>
<path class="st0" d="M46.9,137.6c-1.3,0-2.1,1-2.1,2.3c0,1.3,0.8,2.3,2.1,2.3c1.3,0,2.1-1,2.1-2.3C49,138.6,48.2,137.6,46.9,137.6z"
	/>
<path class="st0" d="M32,137.7h-1.6v1.9H32c0.6,0,1.1-0.4,1.1-0.9C33.1,138,32.6,137.7,32,137.7z"/>
<path class="st0" d="M143.6,146.3L3.5,90c-1.7-0.7-3.6-0.8-5.3-0.1l-139.8,56.4c-2,0.8-1.4,3.9,0.8,3.9h283.5
	C145,150.2,145.6,147.1,143.6,146.3z M0.1,143.4h-16v-16h16V143.4z M0.1,125.6h-16v-1.8c0-9,7.1-16.3,16-16.3V125.6z M17.9,143.4
	h-16v-16h16V143.4z M17.9,125.6h-16v-18.1c8.9,0,16,7.3,16,16.3V125.6z M34,142.4L34,142.4c0.1,0.1,0.1,0.2,0.1,0.4
	c0,0.4-0.3,0.7-0.7,0.7c-0.3,0-0.5-0.1-0.6-0.4l-1.2-2.2h-1.1v1.8c0,0.4-0.3,0.7-0.8,0.7c-0.4,0-0.7-0.3-0.7-0.7v-5.5
	c0-0.5,0.4-0.8,0.8-0.8h2.4c1.5,0,2.4,1,2.4,2.3c0,1.2-0.8,1.9-1.5,2.1L34,142.4z M38.9,143.5c-2.1,0-3.7-1.5-3.7-3.6
	c0-2.1,1.5-3.6,3.7-3.6c2.1,0,3.7,1.5,3.7,3.6C42.6,142,41.1,143.5,38.9,143.5z M46.9,143.5c-2.1,0-3.7-1.5-3.7-3.6
	c0-2.1,1.5-3.6,3.7-3.6c2.1,0,3.7,1.5,3.7,3.6C50.6,142,49,143.5,46.9,143.5z M55.8,139.3L55.8,139.3c0.3-0.1,0.6,0.2,0.6,0.6
	c0,0.4-0.3,0.7-0.6,0.7H53v2.1c0,0.4-0.3,0.7-0.8,0.7c-0.4,0-0.7-0.3-0.7-0.7v-5.5c0-0.5,0.4-0.8,0.8-0.8h3.6c0.3,0,0.6,0.3,0.6,0.7
	c0,0.4-0.3,0.7-0.6,0.7H53v1.5H55.8z M58.9,142.7c0,0.4-0.3,0.7-0.8,0.7c-0.4,0-0.7-0.3-0.7-0.7V137c0-0.4,0.3-0.7,0.8-0.7
	c0.4,0,0.7,0.3,0.7,0.7V142.7z M66.6,142.6h-0.1c0,0.5-0.4,0.9-0.9,0.9c-0.3,0-0.6-0.1-0.7-0.4l-3.1-4.3v3.9c0,0.4-0.3,0.7-0.8,0.7
	c-0.4,0-0.7-0.3-0.7-0.7v-5.5c0-0.5,0.4-1,1-1c0.3,0,0.6,0.1,0.8,0.4l3,4.1V137c0-0.4,0.3-0.7,0.8-0.7c0.4,0,0.7,0.3,0.7,0.7V142.6z
	 M71.2,143.5c-2.1,0-3.7-1.4-3.7-3.6c0-2.2,1.7-3.6,3.7-3.6c1.1,0,1.9,0.4,2.5,1c0.1,0.1,0.2,0.3,0.2,0.5c0,0.4-0.3,0.7-0.7,0.7
	c-0.2,0-0.4-0.1-0.5-0.2c-0.4-0.4-0.9-0.6-1.5-0.6c-1.3,0-2.2,1-2.2,2.3s0.9,2.3,2.2,2.3c0.6,0,1.2-0.3,1.5-0.5V141h-1.3
	c-0.4,0-0.6-0.3-0.6-0.7c0-0.4,0.3-0.6,0.6-0.6h1.9c0.5,0,0.8,0.4,0.8,0.8v1h0.1C74.2,142.8,72.6,143.5,71.2,143.5z"/>
<path class="st0" d="M38.9,137.6c-1.3,0-2.1,1-2.1,2.3c0,1.3,0.8,2.3,2.1,2.3c1.3,0,2.1-1,2.1-2.3C41.1,138.6,40.2,137.6,38.9,137.6
	z"/>
</svg>
