<svg id="airplane_1_" xmlns="http://www.w3.org/2000/svg" viewBox="0 0 250 250"><style>.st0{display:none;} .st1{display:inline;fill:none;stroke:#000000;stroke-miterlimit:10;} .st2{display:inline;fill:url(#SVGID_1_);stroke:#000000;stroke-miterlimit:10;} .st3{display:inline;fill:url(#SVGID_2_);stroke:#000000;stroke-miterlimit:10;} .st4{fill:#FF9800;} .st5{fill:#FFB74D;}</style><g id="grid" class="st0"><path class="st1" d="M-125-75h500M-125 325h500"/><linearGradient id="SVGID_1_" gradientUnits="userSpaceOnUse" x1="-75" y1="125" x2="-75" y2="125"><stop offset="0" stop-color="#FFF"/><stop offset="1"/></linearGradient><path class="st2" d="M-75-125v500"/><linearGradient id="SVGID_2_" gradientUnits="userSpaceOnUse" x1="325" y1="125" x2="325" y2="125"><stop offset="0" stop-color="#FFF"/><stop offset="1"/></linearGradient><path class="st3" d="M325-125v500"/></g><path class="st4" d="M125 217.1c-50.7 0-92.1-41.4-92.1-92.1S74.3 32.9 125 32.9s92.1 41.4 92.1 92.1-41.4 92.1-92.1 92.1zm0-176.5c-46.4 0-84.4 38-84.4 84.4s38 84.4 84.4 84.4 84.4-38 84.4-84.4-38-84.4-84.4-84.4z"/><path class="st4" d="M109.3 114.6l-1.5-1.9c-.8-1.1-21.2-24.9-15.8-42.6 2.3-7.3 8.1-12.3 17.7-15.3 21.1-6.1 33.8-5.4 38.8 2.7 3.1 5 2.7 11.9-1.5 20.3-7.7 16.5-13.8 27.2-13.8 27.6l-.8 1.2-23.1 8zm23-56.4c-5.4 0-12.3 1.2-20.7 3.8-6.9 1.9-10.7 5.4-12.3 10-3.1 10.4 6.9 26.1 12.7 33.4l15.3-5.4c1.9-3.1 6.9-12.7 13-25.7 2.7-6.1 3.5-10.7 1.9-13-1.9-2.7-6.5-3.1-9.9-3.1zM124.2 199.4c-13.4 0-21.5-3.1-24.9-9.2-2.7-5.4-1.5-12.7 4.6-21.1 10.4-15 18.4-24.6 18.8-24.9l.8-1.2 24.2-3.8 1.2 2.3c.8 1.2 16.5 28.4 8.1 44.9-3.5 6.9-10.4 10.7-20 11.9-4.7.8-8.9 1.1-12.8 1.1zm3.1-49.1c-2.3 3.1-9.2 11.5-17.3 23-3.8 5.8-5.4 10.4-3.8 13 1.2 1.9 4.6 5 18 5 3.5 0 7.7-.4 11.9-.8 7.3-.8 11.9-3.5 14.2-7.7 5-9.6-2.3-27.2-6.5-35.3l-16.5 2.8zM185.2 148c-3.8 0-8.1-1.2-12.7-3.5-16.5-7.7-27.2-13.8-27.6-13.8l-1.2-.8-8.4-23 1.9-1.5c.8-.8 19.6-16.5 36.1-16.5 7.3 0 17.3 3.1 21.9 18.4 5 18 5.4 29.9.4 36.1-2.3 3.1-5.8 4.6-10.4 4.6zm-35.3-23.4c3.1 1.9 12.7 6.9 25.7 13 3.8 1.9 7.3 2.7 9.6 2.7 2.7 0 3.8-1.2 4.6-1.9 1.9-2.3 3.8-9.2-1.5-29.2-3.5-11.5-10-13-14.2-13-11.1 0-24.2 9.2-29.2 13l5 15.4zM74.7 157.2c-13.4 0-21.9-8.1-23.4-22.6-1.9-17.7-.4-29.2 5-34.5 5.4-5.8 14.2-5.4 24.6 1.9 15 10.7 24.6 18.4 24.6 18.4l1.2.8 3.8 24.2-2.3 1.2c-.9.7-18.1 10.6-33.5 10.6zm-9.2-53.7c-1.5 0-2.7.4-3.5 1.5-1.9 2.3-5 8.8-3.1 28.8 1.2 10.7 6.1 15.7 15.7 15.7 10.4 0 22.3-5.8 27.2-8.1l-2.3-15.7c-3.1-2.3-11.5-8.8-23.4-17.3-5.2-4.1-8.7-4.9-10.6-4.9z"/><path class="st5" d="M125 141.1c-8.1 0-14.6-6.5-14.6-14.6S116.9 112 125 112s14.6 6.5 14.6 14.6-6.5 14.5-14.6 14.5zm0-21.5c-3.8 0-6.9 3.1-6.9 6.9 0 3.8 3.1 6.9 6.9 6.9 3.8 0 6.9-3.1 6.9-6.9 0-3.8-3.1-6.9-6.9-6.9z"/></svg>