<svg id="airplane_1_" xmlns="http://www.w3.org/2000/svg" viewBox="0 0 250 250"><style>.st0{display:none;} .st1{display:inline;fill:none;stroke:#000000;stroke-miterlimit:10;} .st2{display:inline;fill:url(#SVGID_1_);stroke:#000000;stroke-miterlimit:10;} .st3{display:inline;fill:url(#SVGID_2_);stroke:#000000;stroke-miterlimit:10;} .st4{fill:#FF9800;} .st5{fill:#FFCC80;} .st6{fill:#90CAF9;}</style><path class="st4" d="M216.3 205.8l-100.9 8.7c-22.2 3.1-38.2-3.5-46.6-25.9L34.2 82.9S23.4 47.8 97.1 36.5c56.2-8.2 63.2 14.9 63.2 14.9l15.6 52.4s5.8.3 20.5 1c2.5 8.7 19.9 101 19.9 101zM102 112.2c9.5.5 22.6-1.2 37.4-4.6-2-6.6-6.3-20.6-8.3-27.2l-.7-2.3 2.2-.9c13.8-5.6 23.3-16.8 21.2-24.9-1.6-6.4-10.6-11-25.2-13.2-8.4-1.3-19.2-1-30.3.6-24 3.5-49.5 13.2-56.1 27.3-3.8 8.1-3.3 15.5 1.5 22 10 13.7 37.5 22.2 58.3 23.2zm33.7-31.5l8.7 26.1s24.6-.7 26.1-3.5c1.6-2.9-12.2-44.8-12.2-44.8S156 67 147.7 73.4c-5.3 4-12 7.3-12 7.3zM41.1 91.3l25.1 77.4c-.1.4 7.7 21 8 21.5 1.6 3.6 4.3 11.8 14.1 17.2 10.4 5.7 28.9 2.9 28.9 2.9l94.3-7.2-18.1-94.5s-9.7-.1-14.1-.2c-2.6-.1-24 .7-42.4 4.1-19.5 3.6-42.3 4.6-62.4-1.4-4.1-1.2-7.7-2.1-11.1-3.6-18.6-8.2-22.3-16.2-22.3-16.2z"/><path class="st5" d="M117.813 197.118l11.932-21.628 1.84 1.015-11.934 21.627z"/><path class="st5" d="M128.1 180.5l-.4-.9 6.2-1.2.4 1z"/><path class="st5" d="M129.1 180.3l-1 .2-2.3-5.8 1-.2zM121.1 193.2l-.9.1 2.3 5.9.9-.2z"/><path class="st5" d="M121.5 194.1l-.4-.9-6.1 1.1.3 1zM111.19 180.345l.82-1.488 26.18 14.447-.823 1.49z"/><path class="st5" d="M117 182.6l-.9.2-2.3-5.8.9-.2z"/><path class="st5" d="M116.7 181.7l.3.9-6.1 1.2-.4-1zM132.3 191l.4 1 6.2-1.2-.4-.9z"/><path class="st5" d="M133.3 190.9l-1 .1 2.3 5.9 1-.2zM129.9 198.3l-1.3.2-9.2-23.2 1.3-.2z"/><path class="st5" d="M136.6 183.9l.5 1.2-24.4 4.6-.6-1.2zM96.804 143.26l10.87-19.7 1.576.87-10.87 19.7z"/><path class="st5" d="M106.2 128.1l-.3-.8 5.5-1.2.3.9z"/><path class="st5" d="M107.1 127.9l-.9.2-1.9-5.2.9-.2zM99.9 139.6l-.9.2 1.9 5.3.9-.2z"/><path class="st5" d="M100.2 140.5l-.3-.9-5.5 1.2.3.8zM91.28 128.217l.773-1.4 22.853 12.608-.773 1.4z"/><path class="st5" d="M96.4 130.2l-.8.2-2-5.3.9-.1z"/><path class="st5" d="M96.1 129.4l.3.8-5.4 1.1-.3-.8zM109.8 137.6l.3.8 5.5-1.2-.4-.8z"/><path class="st5" d="M110.7 137.4l-.9.2 1.9 5.2.9-.2zM107.5 144.1l-1.2.3-7.7-20.8 1.2-.3z"/><path class="st5" d="M113.7 131l.4 1.1-21.7 4.6-.4-1.1z"/><path class="st6" d="M158.6 159.3l-1.2-.7 8.2-15.8 1.2.7z"/><path class="st6" d="M164.5 146.4l-.3-.6 4.2-.9.3.7z"/><path class="st6" d="M165.1 146.3l-.6.1-1.6-4.2.7-.2zM159.7 155.7l-.7.1 1.6 4.3.7-.1z"/><path class="st6" d="M159.9 156.4l-.2-.7-4.2.8.2.7zM171.3 155.8l-.5 1.1-17.9-10.6.5-1.1z"/><path class="st6" d="M156.9 148l-.7.1-1.6-4.3.7-.1z"/><path class="st6" d="M156.6 147.3l.3.7-4.2.8-.3-.7zM167.4 154.1l.2.7 4.2-.8-.2-.7z"/><path class="st6" d="M168 154l-.6.1 1.5 4.3.7-.1zM165.7 159.4l-.9.2-6.3-17 .9-.1z"/><path class="st6" d="M170.3 148.9l.3.9-16.7 3.4-.4-.9z"/></svg>