<svg id="airplane_1_" xmlns="http://www.w3.org/2000/svg" viewBox="0 0 250 250"><style>.st0{display:none;} .st1{display:inline;fill:none;stroke:#000000;stroke-miterlimit:10;} .st2{fill:#FFFFFF;stroke:#FF9800;stroke-miterlimit:10;} .st3{fill:#FF9800;stroke:#FF9800;stroke-width:3;stroke-miterlimit:10;} .st4{fill:#FFCC80;} .st5{fill:#FF9800;}</style><g id="grid" class="st0"><path class="st1" d="M-125-75h500M-125 325h500M-75-125v500M325-125v500"/></g><path class="st2" d="M85.2 61.5c-1.5-14.9 20.2-30.1 48.3-34.1 28.2-4 51.4 3.7 52.9 18.6s-20.9 29.4-49 33.4c-28.2 4-50.7-3-52.2-17.9z"/><path class="st3" d="M85.2 61.5l.9-.1c0-.4-.1-.9-.1-1.3 0-3.3 1.2-6.7 3.5-10 3.5-5 9.4-9.7 17.1-13.5 7.6-3.8 16.9-6.7 27-8.1 4.9-.7 9.7-1 14.2-1 10.6 0 19.8 1.8 26.5 5.1 3.3 1.6 6 3.7 7.9 5.9 1.9 2.3 3 4.8 3.3 7.6 0 .4.1.9.1 1.3 0 3.3-1.2 6.6-3.6 9.8-3.6 4.9-9.7 9.5-17.4 13.2-7.7 3.7-17.1 6.5-27.3 7.9-5.2.7-10.2 1.1-14.9 1.1-10.3 0-19.2-1.7-25.6-4.9-3.2-1.6-5.7-3.5-7.6-5.7-1.8-2.2-2.9-4.7-3.2-7.5l-.8.2-.9.1c.3 3.3 1.6 6.2 3.6 8.7 3 3.7 7.7 6.5 13.6 8.4s13 2.9 20.8 2.9c4.8 0 9.8-.4 15.1-1.1 13.7-1.9 26.1-6.4 35.1-12.2 4.5-2.9 8.2-6.1 10.7-9.6 2.6-3.5 4.1-7.3 4.1-11.2 0-.5 0-1-.1-1.6-.3-3.3-1.7-6.3-3.8-8.8-3.2-3.8-8.1-6.7-14.2-8.7-6.1-2-13.4-3-21.5-3-4.6 0-9.4.3-14.4 1-13.7 1.9-25.9 6.5-34.8 12.5-4.4 3-8 6.3-10.5 9.9s-3.9 7.4-3.9 11.3c0 .5 0 1.1.1 1.6l1-.2z"/><path class="st4" d="M165.7 46.7c-.4-8.2-15.4-12.8-32.6-10.4-17.1 2.4-30.4 11-29.6 19.2s12.8 12.1 31.9 10c20.3-2.2 30.6-11.7 30.3-18.8zM110 55.3c-1-7.1 12-13 27.1-14.3 12.4-1 21.7 1.3 22.4 6.3.6 4.6-9 10.6-22.2 12.5-15.1 2.1-26.5 1.5-27.3-4.5z"/><path class="st5" d="M159.4 84.7s-1 .8-1.4 1.8c-.6 1.5.2 3.7 1.3 11.1 1.3 9.1 12.5 85.4 13.5 88.7.3.9.5 1.6 1.1 1.9.5.3 1 0 3.3-.9 1.8-.8 3.9-1.7 6.4-3.5 5.8-4.2 18.4-16.9 18.9-26.3 0-.4.1-1.9.1-3.7 0-1.2 0-4.2-.2-8.4-.2-3.3-5.2-42.2-6.5-50.6-1.3-8-1.9-12-2.1-14.3-.3-3.2-.5-6.6-1.5-11.6-.4-2-.8-3.6-1.1-4.7-20.9 13.5-30.7 19.8-31.8 20.5zm39.1 62.3c.8 9.3 2.1 11-2.4 18.2-4.3 6.9-8.9 10.4-12.4 13.1-4.2 3.3-6.8 3.4-6.8 3.4-.4-2.4-1-6.4-1.8-11.4-1.9-12.3-2-14.4-3.8-25.5-1.2-7.5-1.4-8.6-2.2-14.2-.7-5-.8-6.2-1.6-11.6-.7-4.6-1.1-7.5-1.8-11.4-.9-5.2-1.2-6.1-1.6-9.2-.7-5.4-1-8.1-.3-9.8 1.6-4 5.6-4.6 13.2-8.8 3-1.6 7.2-4.2 12-8.1.1-1 9.1 69.5 9.5 75.3zM166.4 179.8c-.9-4.4-4.6-27.6-8.1-49.7-.2-1.1-1.8-11.5-5.1-32.2-.3-2.2-1.4-8.7-1.7-10.9-1.6.3-3.8.8-6.4 1.2-3.7.6-8.4 1.4-12.4 1.7-15.8 1.3-23.9.1-23.9.1s15.4 85 17 93.5c2 10.5 2.1 15.6 8.6 16.7 6.8 1.1 19.9 0 28.2-5.9 2.7-2 5.5-5.7 3.8-14.5zm-8.5 11.5c-3.6 2.2-7.1 3.4-11.3 3.8-5.2.5-12.3.5-14-2.2-1.1-1.8-1.5-4-2.2-8-3.7-21-15.9-90.2-15.9-90.2s9.4.5 18.1-.1c4.8-.3 15.2-2.2 15.2-2.2-.3.1 10.1 65.4 10.6 68.6 1.4 10 3 17.5 3.5 21.3.8 6-.9 7.1-4 9zM102.2 88.1s-6.6-1.3-14.5-6.4c-5.2-3.3-8.3-7.8-8.3-7.8s17.2 93.2 18.8 103.4c1.8 11.5 4.6 14 10.5 17.6 4.5 2.8 15.1 6.3 14.6 3.6-.6-2.8-21.1-110.4-21.1-110.4zm6.6 100.5c-3.7-2.4-5.8-8.6-7-16.2-1-6.7-16.4-87.1-16.4-87.1s2 1.6 5.5 3.5 7.7 3.5 7.7 3.5 19.8 101.2 19.1 101.1c-2-.5-6.1-3-8.9-4.8zM84.1 205c4.7-7 11.3-17.9 11.3-17.9-6.9-38-13.8-76.1-20.7-114.1-1.1 2.3-2.6 5.8-4.6 10.1C65.6 93 63.4 98 63 98.7c-6.6 10.7-15.7 19.4-15.7 19.4 7.1 35.5 14.2 71.1 21.3 106.6 7-7.7 12-14.6 15.5-19.7zm-20.2-98.4c4.5-6.2 9.1-17.9 9.1-17.9C76.1 103 90 186 90 186s-7.4 12-9 14.1c-1.5 2.1-9.4 14.8-9.4 14.8l-18-95.1c.1.1 6.8-8.3 10.3-13.2z"/></svg>