<svg id="Layer_1" xmlns="http://www.w3.org/2000/svg" viewBox="0 0 180 180"><style>.st0{fill:#FF9800;}</style><path class="st0" d="M134.2 14.6c-7.6 0-14.8 2.4-20.8 7.1-.2.2-.3.2-.5.3l-77 77c-4.8 3.8-8.6 8.8-10.8 14.3-6.2.5-11.2 5.7-11.2 12 0 20.3 15.5 37.7 35.3 39.4 1.2.2 2.4.2 3.4.2 9.8 0 18.9-3.6 26.1-10.3l.2-.2L156.2 77c7.9-7.2 12.4-17.7 12.4-28.4 0-18.7-15.5-34-34.4-34zm22.5 21.7l-9.8 9.8c-1.2-1.9-2.6-3.8-4.3-5.5-2.4-2.4-5.3-4.5-8.3-5.8l9.6-9.6c5.4 2.1 9.9 6.1 12.8 11.1zM91 92.1c-2.4-2.4-5.3-4.5-8.3-5.8l9.6-9.6c3.1 1.2 6 3.3 8.4 5.7 1.7 1.7 3.1 3.6 4.3 5.7l-9.8 9.8c-1.1-2.3-2.5-4-4.2-5.8zm1.2 8.6l-9.8 9.8c-2.9-5-7.4-8.9-12.6-11.4l9.6-9.6c3.1 1.2 6 3.3 8.4 5.7 1.8 1.6 3.2 3.5 4.4 5.5zm11.7-21.5c-2.4-2.4-5.3-4.5-8.3-5.8l9.6-9.6c3.1 1.2 6 3.3 8.4 5.7 1.7 1.7 3.1 3.6 4.3 5.7l-9.8 9.8c-1.1-2.3-2.5-4-4.2-5.8zm12.9-12.9c-2.4-2.4-5.3-4.5-8.3-5.8l9.6-9.6c3.1 1.2 6 3.3 8.4 5.7 1.7 1.7 3.1 3.6 4.3 5.7l-9.8 9.8c-1.1-2.3-2.5-4-4.2-5.8zm12.9-12.8c-2.4-2.4-5.3-4.5-8.3-5.8l9.6-9.6c3.1 1.2 6 3.3 8.4 5.7 1.7 1.7 3.1 3.6 4.3 5.7l-9.8 9.8c-1.1-2.4-2.5-4.1-4.2-5.8zm-10.8-25.3c4.5-3.3 9.8-5.2 15.3-5.2 1.7 0 3.4.2 5 .5l-9.3 9.5c-2.8-.9-5.7-1.2-8.6-1.2-2.2 0-4.6.3-6.7.9l4.3-4.5zm-13.1 13c4.5-3.3 9.8-5.2 15.5-5.2 1.7 0 3.4.2 5 .5l-9.3 9.3c-2.8-.9-5.7-1.2-8.6-1.2-2.2 0-4.6.3-6.7.9l4.1-4.3zM92.9 54.1c4.5-3.3 9.8-5.2 15.5-5.2 1.7 0 3.4.2 5 .5l-9.3 9.3c-2.8-.9-5.7-1.2-8.6-1.2-2.2 0-4.6.3-6.7.9l4.1-4.3zM80 67c4.5-3.3 9.8-5.2 15.5-5.2 1.7 0 3.4.2 5 .5l-9.3 9.3c-2.8-.9-5.7-1.2-8.6-1.2-2.2 0-4.6.3-6.7.9L80 67zM67.1 79.9c4.5-3.3 9.8-5.2 15.5-5.2 1.7 0 3.4.2 5 .5l-9.3 9.3c-2.8-.9-5.7-1.2-8.6-1.2-2.2 0-4.6.3-6.7.9l4.1-4.3zM54.2 92.8c4.5-3.3 9.8-5.2 15.5-5.2 1.7 0 3.4.2 5 .5l-9.3 9.3c-2.8-.9-5.7-1.4-8.8-1.4-2.2 0-4.5.3-6.5.7l4.1-3.9zm28.2 33.6c0 8.4-3.6 16.5-9.8 22.2-5.5 5-12.4 7.7-19.8 7.9-1 0-2.1 0-3.1-.2-15.3-1.4-27.3-15-27.3-30.8 0-1.9 1.5-3.4 3.4-3.4l1.2.2c-.2 1.4-.3 2.8-.3 4.1 0 14.4 11.7 26.1 26.1 26.1S79 140.8 79 126.4c0-12.2-10-22.2-22.2-22.2s-22.2 10-22.2 22.2c0 10 8.1 18.1 18.1 18.1s18.2-8.3 18.2-18.2c0-7.7-6.4-14.1-14.1-14.1s-14.1 6.4-14.1 14.1c0 5.5 4.5 10.1 10.1 10.1 5.5 0 10.1-4.5 10.1-10.1 0-3.4-2.8-6.2-6.2-6.2-3.4 0-6.2 2.8-6.2 6.2 0 1.2 1 2.2 2.2 2.2 1.2 0 2.2-1 2.2-2.2 0-1 .9-1.9 1.9-1.9s1.9.9 1.9 1.9c0 3.3-2.6 5.8-5.8 5.8-3.3 0-5.8-2.6-5.8-5.8 0-5.5 4.5-9.8 9.8-9.8s9.8 4.5 9.8 9.8c0 7.6-6.2 13.8-13.8 13.8s-13.8-6.2-13.8-13.8c0-9.8 7.9-17.9 17.9-17.9s18 7.8 18 17.8c0 12-9.8 21.8-21.8 21.8S31 138.2 31 126.2c0-2.4.3-4.6.9-6.7v-.4c1.5-5.3 4.8-10 9.1-13.2.2-.2.3-.2.5-.3l.2-.2c4.3-2.9 9.3-4.8 15-4.8 13.9 0 25.5 11.2 25.8 25.1-.1 0-.1.3-.1.7zm12.9-12.9c0 8.4-3.6 16.5-9.6 22.2l-.2.2-.3.3c.9-2.9 1.4-5.8 1.4-8.9.2-.3.2-.5.2-.9 0-4.1-.9-8.3-2.4-11.9.3-.2.5-.3.7-.5l8.9-8.9c.9 2.4 1.4 5 1.4 7.7-.1.2-.1.5-.1.7zm12.9-12.9c0 8.4-3.6 16.5-9.6 22.2l-.2.2-.2.2c.9-2.9 1.4-5.8 1.4-8.8.2-.3.2-.5.2-.9 0-4.1-.9-8.1-2.4-11.7l9.6-9.6c.9 2.4 1.4 5 1.4 7.7-.2.2-.2.5-.2.7zm12.9-12.9c0 8.4-3.6 16.5-9.6 22.2l-.2.2-.2.2c.9-2.9 1.4-5.8 1.4-8.8.2-.3.2-.5.2-.9 0-4.1-.9-8.1-2.4-11.7l9.6-9.6c.9 2.4 1.4 5 1.4 7.7-.2.2-.2.5-.2.7zM134 74.8c0 8.4-3.6 16.5-9.6 22.2l-.2.2-.2.2c.9-2.9 1.4-5.8 1.4-8.8.2-.3.2-.5.2-.9 0-4.1-.9-8.1-2.4-11.7l9.6-9.6c.9 2.4 1.4 5 1.4 7.7-.2.2-.2.5-.2.7zm12.9-12.9c0 8.4-3.6 16.5-9.6 22.2l-.2.2-.2.2c.9-2.9 1.4-5.8 1.4-8.8.2-.3.2-.5.2-.9 0-4.1-.9-8.1-2.4-11.7l9.6-9.6c.9 2.4 1.4 5 1.4 7.7-.2.2-.2.5-.2.7zM160 49c0 8.4-3.6 16.5-9.6 22.2l-.2.2-.3.3c.9-2.9 1.4-5.8 1.4-8.8.2-.3.2-.5.2-.9 0-4.1-.9-8.1-2.4-11.7l9.6-9.6c.8 2.4 1.3 5.2 1.3 8.3z"/></svg>